<svg width="101" height="101" viewBox="0 0 101 101" fill="none" xmlns="http://www.w3.org/2000/svg">
<rect width="100.338" height="100.338" rx="16.6715" fill="#FFF2F8"/>
<g clip-path="url(#clip0_1341_1652)">
<path d="M48.2946 19H50.6903C50.781 19.0374 50.8754 19.0648 50.9718 19.0817C54.5134 19.3467 57.8889 20.7052 60.6416 22.9734C64.596 26.2111 66.9304 30.407 67.3017 35.5535C67.5203 38.5249 67.411 41.5204 67.423 44.5069C67.432 46.9121 65.9257 48.4167 63.5299 48.4258H61.6433C61.3064 51.7271 60.146 54.6076 57.87 56.9795C58.4345 58.1254 59.0155 59.2273 59.5171 60.3641C59.7686 60.9287 60.131 61.2118 60.706 61.4025C62.8202 62.1079 65.0153 62.6664 66.9948 63.6533C73.3345 66.8093 76.4549 72.1844 76.979 79.2245C77.0359 80.0025 76.8397 80.6064 76.148 81H22.8399C22.1497 80.6064 21.9625 80.004 22.0059 79.2245C22.1152 77.1961 22.4641 75.2193 23.2158 73.3348C25.1758 68.4214 28.4564 64.8279 33.465 63.0221C35.1869 62.4015 36.9358 61.8551 38.6622 61.2481C38.9139 61.1542 39.1256 60.975 39.2612 60.741C39.8391 59.6391 40.3602 58.5068 40.9367 57.4019C41.1089 57.0704 41.0205 56.8963 40.8169 56.6223C40.1686 55.7595 39.5023 54.8967 38.9782 53.9567C38.6787 53.4179 38.3792 53.2408 37.7923 53.2544C36.1677 53.2937 34.895 52.5959 34.29 51.0459C34.0085 50.3254 34.0789 49.4687 33.9516 48.6801C33.9172 48.4651 33.8019 48.1745 33.6312 48.0837C32.2447 47.3375 31.5739 46.1765 31.5724 44.6022C31.5724 42.2833 31.5814 39.9628 31.5724 37.6394C31.5559 34.5227 32.1548 31.5453 33.6087 28.7859C36.0045 24.2207 39.664 21.1661 44.5767 19.7281C45.7761 19.3784 47.0503 19.2392 48.2946 19ZM40.1162 50.8477C41.2826 50.8477 42.2768 50.834 43.271 50.8477C43.593 50.8477 43.7487 50.7553 43.8999 50.4526C44.5498 49.1523 45.6263 48.4848 47.0593 48.4273C47.8753 48.3955 48.6929 48.3985 49.5089 48.4273C51.5393 48.4954 53.0801 50.0787 53.0741 52.0677C53.0681 54.0566 51.5153 55.6233 49.4805 55.6793C48.7048 55.702 47.9262 55.699 47.1506 55.6793C45.6668 55.6475 44.5722 54.9618 43.876 53.6283C43.8071 53.4966 43.6978 53.2892 43.6004 53.2847C42.8623 53.2559 42.1226 53.2695 41.3005 53.2695C42.4071 55.0859 43.7786 56.4482 45.5949 57.2596C51.2848 59.8116 57.2067 56.5148 58.7714 50.5873C59.303 48.5756 59.4901 46.4641 59.7596 44.3812C59.9633 42.807 60.0457 41.2177 60.1849 39.6162C60.0127 39.5753 59.9214 39.5466 59.827 39.5299C58.6906 39.3271 57.5406 39.1863 56.4206 38.9124C52.8971 38.0612 49.6451 36.3195 46.9694 33.8506C46.7869 33.6802 46.5486 33.5838 46.3001 33.5797C45.068 33.6953 43.8768 34.0867 42.8129 34.7255C41.0864 35.7261 40.0623 37.3805 38.9198 38.929C38.818 39.0683 38.8165 39.312 38.8299 39.5027C38.9512 41.1677 39.0351 42.8464 39.2282 44.5084C39.4798 46.6185 39.8137 48.7043 40.1162 50.8477ZM39.2178 63.62C37.662 64.1468 36.2381 64.6614 34.7961 65.1125C31.0438 66.2826 28.2977 68.6863 26.3871 72.1087C25.273 74.0815 24.6114 76.282 24.4511 78.5478H47.3962C44.1694 73.7873 40.9996 69.1207 39.2252 63.623L39.2178 63.62ZM59.824 63.623C59.5246 64.3799 59.2655 65.0625 58.987 65.7422C57.5172 69.2947 55.6456 72.6634 53.4095 75.7809C52.7941 76.6497 52.267 77.5836 51.6651 78.5433H74.4979C74.503 78.4425 74.503 78.3414 74.4979 78.2406C74.0487 74.0447 72.2294 70.5723 69.0985 67.7887C66.4392 65.4243 63.0164 64.8491 59.824 63.623ZM38.827 34.833L39.0216 34.9844C39.0622 34.8696 39.1176 34.7607 39.1863 34.6604C40.9831 32.6927 43.2126 31.5726 45.833 31.1866C46.9365 31.0231 47.7795 31.2577 48.633 32.066C51.8747 35.1342 55.7977 36.6888 60.1819 37.1171C60.2051 37.0788 60.2233 37.0376 60.2358 36.9945C60.6371 32.7123 58.0168 28.4862 54.0533 26.9271C52.2146 26.2051 50.31 26.2414 48.4024 26.2687C45.6608 26.3065 43.3115 27.3282 41.4233 29.3278C39.9874 30.8277 39.0756 32.7609 38.827 34.833ZM36.3234 35.9228C36.3429 35.6867 36.3563 35.4884 36.3773 35.2901C36.9388 29.9393 39.7074 26.3065 44.695 24.4568C46.8571 23.6545 49.1316 23.7499 51.3761 23.8876C53.8797 24.0515 56.2692 25.0058 58.2075 26.616C60.1458 28.2262 61.5351 30.411 62.1793 32.8622C62.4414 33.8612 62.5567 34.9011 62.7393 35.9213H64.9254C64.5631 28.633 58.3012 21.3901 49.4251 21.4355C40.4291 21.4809 34.3694 28.8585 34.0699 35.9228H36.3234ZM49.3772 66.1357C47.9921 67.6206 46.6475 69.048 45.3344 70.5012C45.2415 70.6041 45.2924 70.9553 45.3928 71.1066C46.7179 73.1879 48.064 75.2556 49.4071 77.3248C49.4236 77.3505 49.4745 77.352 49.5329 77.3747C50.9254 75.2314 52.3269 73.0865 53.7059 70.9265C53.7733 70.8221 53.7059 70.536 53.6116 70.4315C52.2281 69.0132 50.8296 67.6085 49.3772 66.1388V66.1357ZM51.1036 64.2891L55.2197 68.4547C56.0463 66.4274 56.8678 64.4036 57.6843 62.3833C57.7215 62.2524 57.7093 62.1121 57.6499 61.9898C57.1633 60.9771 56.6632 59.9736 56.1346 58.9019L51.1036 64.2891ZM43.8131 68.5712L47.5564 64.5645L42.5568 59.5043C42.1915 60.2415 41.7752 61.0649 41.3799 61.899C41.2977 62.0526 41.2737 62.2313 41.3125 62.4015C42.1106 64.4162 42.9341 66.4173 43.8131 68.5743V68.5712ZM36.9253 45.9994C36.7232 43.4186 36.5271 40.918 36.3264 38.4219H33.9516C33.9516 40.5411 33.9397 42.6163 33.9516 44.6885C33.9516 45.4923 34.4308 45.9615 35.2154 45.9948C35.7739 46.0206 36.3279 46.0024 36.9223 46.0024L36.9253 45.9994ZM62.0655 45.9994C62.5701 45.9994 63.0613 45.9994 63.5524 45.9994C64.6005 45.9903 65.0333 45.5453 65.0363 44.4857C65.0363 42.6693 65.0363 40.8635 65.0363 39.0516V38.4053H62.6585C62.4594 40.9361 62.2632 43.4367 62.07 46.0039L62.0655 45.9994ZM48.2751 53.2559C48.6929 53.2559 49.1136 53.2832 49.5284 53.2559C49.8314 53.2446 50.1188 53.1175 50.3328 52.9004C50.5468 52.6832 50.6713 52.3922 50.6813 52.0858C50.6845 51.9285 50.6569 51.7722 50.6002 51.6257C50.5435 51.4791 50.4588 51.3454 50.3508 51.2321C50.2429 51.1187 50.1139 51.028 49.9712 50.9652C49.8285 50.9023 49.675 50.8686 49.5194 50.8658C48.7048 50.8265 47.8858 50.828 47.0713 50.8658C46.7676 50.8735 46.4785 50.999 46.2639 51.2162C46.0493 51.4335 45.9255 51.7259 45.9183 52.0329C45.9033 52.6701 46.39 53.1999 47.0817 53.2559C47.474 53.2877 47.8738 53.262 48.2721 53.2604L48.2751 53.2559ZM51.403 60.4443H47.3018L49.4071 62.5801L51.403 60.4443ZM36.3938 48.4424C36.1917 49.8547 36.4342 50.89 37.7264 50.7856C37.5872 50.0045 37.4479 49.2265 37.3072 48.4424H36.3938Z" fill="#FF007A"/>
<path d="M66.9707 69.2539C67.2374 69.3625 67.4919 69.4995 67.7298 69.6626C69.0261 70.7074 70.0915 72.015 70.8577 73.5013C71.2201 74.196 71.0674 74.8999 70.4849 75.2465C69.9024 75.5932 69.2062 75.4312 68.8154 74.7243C68.1301 73.4712 67.2214 72.357 66.1352 71.4381C65.7054 71.0749 65.5257 70.5965 65.7578 70.0319C65.954 69.5566 66.3238 69.3266 66.9707 69.2539Z" fill="#FF007A"/>
<path d="M62.6689 69.3664C62.4337 69.3708 62.2025 69.3047 62.0045 69.1762C61.8065 69.0478 61.6507 68.8628 61.5567 68.6448C61.4628 68.4268 61.4349 68.1855 61.4766 67.9514C61.5184 67.7174 61.6279 67.5011 61.7913 67.33C61.9547 67.1589 62.1646 67.0407 62.3945 66.9902C62.6244 66.9398 62.8639 66.9594 63.0828 67.0467C63.3016 67.1339 63.4899 67.2848 63.6239 67.4803C63.7579 67.6758 63.8315 67.9071 63.8354 68.1449C63.8319 68.4605 63.7091 68.7628 63.4923 68.9899C63.2754 69.217 62.9809 69.3517 62.6689 69.3664Z" fill="#FF007A"/>
</g>
<defs>
<clipPath id="clip0_1341_1652">
<rect width="55" height="62" fill="white" transform="translate(22 19)"/>
</clipPath>
</defs>
</svg>
