<svg id="Layer_1" data-name="Layer 1" xmlns="http://www.w3.org/2000/svg" viewBox="0 0 100.36 100"><defs><style>.cls-1{fill:#0080ff;}</style></defs><path class="cls-1" d="M49.81,100V80.54A30.66,30.66,0,0,0,78.5,38.69,29,29,0,0,0,61.05,21.3,30.83,30.83,0,0,0,19.34,49.89H-.19c0-32.43,31.65-58.07,66.27-47.46A48.29,48.29,0,0,1,97.73,34C108.38,68.46,82.64,100,49.81,100Z" transform="translate(0.19)"/><path class="cls-1" d="M50.1,80.54H30.58V61.38H50.1Zm-19.52,15H15.79v-15H30.58Zm-14.79-15H3.36V68.16H15.79Z" transform="translate(0.19)"/></svg>