<svg id="Layer_1" data-name="Layer 1" xmlns="http://www.w3.org/2000/svg" viewBox="0 0 100 73.41"><defs><style>.cls-1{fill:#02303a;}</style></defs><path class="cls-1" d="M94.56,17.94a15.84,15.84,0,0,0-22-.38,1.52,1.52,0,0,0-.48,1.08,1.56,1.56,0,0,0,.45,1.1l2,2a1.52,1.52,0,0,0,2,.14,8.93,8.93,0,0,1,5.43-1.81,9.08,9.08,0,0,1,6.45,15.51C75.74,48.2,58.94,12.94,20.81,31.08A5.17,5.17,0,0,0,18.31,38c.06.13.12.25.19.37L25,49.65a5.18,5.18,0,0,0,7,1.93l.17-.1-.13.1L35,50a66.63,66.63,0,0,0,9.12-6.82,1.62,1.62,0,0,1,2.09,0,1.52,1.52,0,0,1,.07,2.31,67.7,67.7,0,0,1-9.62,7.14h-.09l-2.9,1.62a8.18,8.18,0,0,1-4,1,8.33,8.33,0,0,1-7.19-4.12L16.26,40.44C4.39,48.83-2.82,65,1.05,85.48a1.53,1.53,0,0,0,1.48,1.23h7a1.51,1.51,0,0,0,1.49-1.32,10.32,10.32,0,0,1,20.47,0A1.51,1.51,0,0,0,33,86.71h6.86a1.52,1.52,0,0,0,1.49-1.32,10.32,10.32,0,0,1,20.47,0,1.49,1.49,0,0,0,1.49,1.31h6.78a1.49,1.49,0,0,0,1.5-1.47c.16-9.55,2.74-20.52,10.08-26,25.44-19,18.75-35.35,12.87-41.27ZM68.62,46.73l-4.85-2.44a3,3,0,1,1,4.85,2.45Z" transform="translate(0 -13.29)"/></svg>