<svg id="Layer_1" data-name="Layer 1" xmlns="http://www.w3.org/2000/svg" viewBox="0 0 100.1 99.99"><defs><style>.cls-1{fill:#3880ff;}</style></defs><path class="cls-1" d="M50.06,0A49.67,49.67,0,0,1,73,5.58l.95.47-.83.65a15.47,15.47,0,0,0-4.63,6.05l-.29.65-.6-.29a40.55,40.55,0,0,0-17.49-4A40.92,40.92,0,1,0,91,50.05,39.56,39.56,0,0,0,87.84,34.4l-.3-.66.65-.29a15.84,15.84,0,0,0,6.29-4.27l.65-.83.41.95a49.14,49.14,0,0,1,4.51,20.63A50.05,50.05,0,1,1,50.06,0Zm0,27.28A22.83,22.83,0,1,1,27.23,50.11,22.92,22.92,0,0,1,50.06,27.28ZM82.74,8.42A10.44,10.44,0,1,1,72.3,18.86,10.43,10.43,0,0,1,82.74,8.42Z" transform="translate(0.05)"/></svg>