<svg id="Layer_1" data-name="Layer 1" xmlns="http://www.w3.org/2000/svg" viewBox="0 0 72.32 100"><defs><style>.cls-1{fill:#d33833;}.cls-2{fill:#ef3d3a;}.cls-3{fill:#231f20;}.cls-4{fill:#f0d6b7;}.cls-5{fill:#335061;}.cls-6{fill:#6d6b6d;}.cls-7{fill:#dcd9d8;}.cls-8{fill:#f7e4cd;}.cls-9{fill:#49728b;}.cls-10{fill:#fff;}.cls-11{fill:#81b0c4;}.cls-12{fill:#1d1919;}</style></defs><path class="cls-1" d="M85.07,48.19C85.07,68,69.37,84.06,50,84.06S14.93,68,14.93,48.19,30.63,12.31,50,12.31,85.07,28.38,85.07,48.19" transform="translate(-13.84)"/><path class="cls-2" d="M16.36,57.07S13.82,19.66,48.29,18.59l-2.41-4-18.7,6.28L21.83,27l-4.67,9L14.49,46.38l.8,6.95" transform="translate(-13.84)"/><path class="cls-3" d="M26,23.72a35.37,35.37,0,0,0,0,49.21,33.43,33.43,0,0,0,48,0,35.37,35.37,0,0,0,0-49.21,33.43,33.43,0,0,0-48,0ZM24.42,74.45a37.56,37.56,0,0,1,0-52.26,35.62,35.62,0,0,1,51.16,0,37.56,37.56,0,0,1,0,52.26,35.62,35.62,0,0,1-51.16,0" transform="translate(-13.84)"/><path class="cls-4" d="M64.76,48.39l-5.34.8L52.2,50l-4.67.13L43,50l-3.47-1.07-3.07-3.34L34,38.77,33.5,37.3l-3.21-1.07-1.87-3.08-1.33-4.4,1.46-3.88L32,23.67,34.83,25l1.34,2.94,1.6-.26.54-.67-.54-3.07-.13-3.88.8-5.34,0-3.06,2.44-3.89L45.12,4.7,52.6,1.49l8.29,1.2L68.1,7.9l3.34,5.35,2.14,3.87.54,9.62L72.51,35l-2.94,7.34-2.8,3.88" transform="translate(-13.84)"/><path class="cls-5" d="M68.77,44.51l-3.21,3.21V60.14L62.77,71.6l-1.35,0,1.07,12.83,5.08-.67L66.37,71.5l-2.27.06,6.14-.33s3.07-7.75,3.07-8.15S76,51.86,76,51.86l-6-6.28-1.2-1.07Zm-32.2,2-3.34,1.33L22.54,55.2l.67,2.14,3.07,9.08,1.34,15.1.93,1.6,13.36,4.55.81-.94L41.11,75.51V72.3l19.11-.8,1.47-.8L50.07,65.22l2.13-4.14-3.07,1.07-1.2-1.47-1.6-7L45,53.33l-2.94-.94-2.54-2.27-2.94-3.6Z" transform="translate(-13.84)"/><path class="cls-6" d="M28.55,24.87,32,23.67,34.83,25l1.34,2.94,1.6-.26.41-1.61L37.37,23l.81-7.35-.67-4,2.4-2.8L45.12,4.7l-1.47-2L36.3,6.3,33.23,8.7l-1.74,3.75-2.67,3.6L28,20.33l.53,4.54" transform="translate(-13.84)"/><path class="cls-7" d="M46.44,3.14c-.91,0-2,.09-2,.09L35.77,6.57,32.43,9.91,31,12.58,34,12.31s2-4.94,10-7.35C49.06,3.46,48,3.16,46.44,3.14Zm-8.93,8.5-7.35,1.74L28,20.33l.53,4.54L30,23.94s-2.8-9.36,7.89-10.69l-.4-1.61Z" transform="translate(-13.84)"/><path class="cls-8" d="M54.68.37a8.85,8.85,0,0,0-3,.59c-8,3.07-13.9,8.68-13.76,12.29A61.14,61.14,0,0,1,38,19.39s2.27-11.75,13.76-14c9.46-1.87,14.43.4,16.3,2.54,0,0-6.44-7.67-13.42-7.53ZM69,9.24c-.42,0-3.83.08-4,3.34a2.66,2.66,0,0,0,.27,1.07s3.07-3.48,4.94-1.61L69,9.24ZM49.32,10.81a4.63,4.63,0,0,0-2.46,1c-2.94,2-2.67,4.81-2.14,5.34s.39,1.61.8.87.27-3.14,1.74-3.81,3.88-1.41,4.81-.17c0,0-.41-3.26-2.75-3.2ZM70,19s-2.2.47-2.4,2.41,2.4.4,2.8.26L70,19Zm-16.16.14s-2.94.4-2.94,2.27,3.34,1.73,4.27.93ZM30,23.94,27,27.14l.54,4,1.6,4.14,1.74.54c-2.54-3.08-1.34-5.21-.81-8.15s5.62.13,5.62.13l-.14-2-2-1.61L30,23.94Zm30.17,6.13c-.88,0-1.22,2.84-1.29,3.58.24-.72,2.48-2.16,2.48-2.16a1.5,1.5,0,0,0-1.09-1.4ZM58.9,33.65a.35.35,0,0,0,0,.17s0-.06,0-.17Zm-22.85,1L34.3,36.36l.4,5.88L39,48.92s4.8,1.08,4.27.67c-5.74-4.54-6.14-13-6.28-13.9A1.12,1.12,0,0,0,36.05,34.67Zm15,2a1.38,1.38,0,0,0-1,.31c-.33.44.36,2.87.36,2.87l.66.13C51,37.3,52.6,37,52.6,37A3.41,3.41,0,0,0,51.08,36.66Z" transform="translate(-13.84)"/><path class="cls-9" d="M35.64,46.38,22.54,55.2,24,59.34l3.48,15,.13,7.88,1.87.67C32.16,76.44,27,55.73,27,55.73l12.56-5.61-3.87-3.74Zm5.16,15.2-.35.83s-.27,2.41-.27,3.08.27,6.28.27,6.28h2.13v-8L40.8,61.58ZM40.85,73l-6,.27,1.73,1.2,4.28.67ZM68.77,44.51l-2.54,2.81,9.36,7,.26-3.21-7.08-6.55ZM66.1,70.7l-4.68.93.67,3.75c1.74.8,4.68-1.34,4.68-1.34L66.1,70.7Z" transform="translate(-13.84)"/><path class="cls-10" d="M39.51,48.92v1.2L41.21,52l5.34,2.41.14-4L43,50l-3.47-1.07Zm39.11,19-4.28,1.34-4.1,2-2.18-.4-1.69.67L67.8,82.73,73,81.25l9.88-.53,1.47-4.54L81.69,68.3Zm-17.2,3.74H53.63l-12.52.66.23,6.15,1.38,8.28L45.48,98l6.15,1.33,10.15-.8.14-2L60.71,85.66Zm1-1.06-2.94-7.49-3.07-4.4s.67-1.88,1.6-1.88h3.08l2.93,1.07-.26,5-1.34,7.75" transform="translate(-13.84)"/><path class="cls-7" d="M40.71,50.79l-.4.54,2.28,1.6,3.74.8-.14-1.6C44.86,52.53,40.71,50.79,40.71,50.79Zm18.57,5.75-3.07.4,5.21,12.29,1.07.13L63,68s-3.75-7.22-3.75-8.29c0,0,.67-1.6,1.61-1.2S63.83,60,63.83,60V57.47Zm12.7,14-1.74.66,1.47,7.35c-.53-.13-4,1.47-4,1.47l.4,2.14,1.47-.54L74.25,81l1.34,1.73,4,.14L82,82.32l2.14-3.2L84,76.71l-1.47-4.27a12.18,12.18,0,0,1-1.2,6.28c-.67,0-8.15-.41-8.15-.41,0-.8-1.2-7.74-1.2-7.74Zm-10.29.13-2,.8S59,85.4,61,95.28a25.55,25.55,0,0,1-9.89,3.21l11.23-.4,1.33-.8-1.6-21.91ZM65.18,85c-.57,0-1.43.41-2,.37-.09,2.11.21,5.5.3,7.71a7.68,7.68,0,0,0,3.06-.66c.11-2.6-.83-5-1.1-7.39a.85.85,0,0,0-.23,0Z" transform="translate(-13.84)"/><path class="cls-1" d="M66.23,49.86c-1.71.08-4,2.26-5.1,2.64a3.78,3.78,0,0,1,.39,1.23,3.6,3.6,0,0,1,2.32.26,4.85,4.85,0,0,0-2.09.44,19.23,19.23,0,0,0-.08,2,25.9,25.9,0,0,0,6.11.84,4.58,4.58,0,0,0,.54-2.75c-.06-1.3-.41-4-1.21-4.46A1.56,1.56,0,0,0,66.23,49.86Zm-17.6.58c-1.82,0-1.63,3.21-1.54,5.15a16.73,16.73,0,0,0,1.29,4.47c.18.5.22,1,.65,1.14.77.18,3.31-.83,4-1.22a47.27,47.27,0,0,0,4-3l0-1.29a6.8,6.8,0,0,0-2.83-.72c.78-.39,1.92-.38,2.63-.85l0-.52a5.48,5.48,0,0,1-2.64-1.14A19.76,19.76,0,0,0,49,50.48,1.72,1.72,0,0,0,48.63,50.44Zm10.49,2.7a2.39,2.39,0,0,0-1.23.45A7.52,7.52,0,0,0,58.23,56C61,56.88,61,53.13,59.12,53.14Z" transform="translate(-13.84)"/><path class="cls-2" d="M66.06,48.92,61,51.86l-.27,1.47v2.94l1.87.67s-.93-1.34-.26-1.74,1.33,0,1.74-.67,0-1.07.13-1.87.8-.93,1.47-1.07,2.54-.4,2.8.27l-.8-2.4Zm-16.83.81a2.87,2.87,0,0,0-1.7.39c-3.14,2.14-.61,7.08.93,10-.13-1.67-.27-3.34-.42-5-.29-3.11.74-2.57,3.44-2.57a7.13,7.13,0,0,1,2.69.8c.73,1.49-1.22,1.16.84,2.28,1.73,1,4.8-.57,4.1-2.68-.39-.47-2-.15-2.64-.45l-3.13-1.63a10.68,10.68,0,0,0-4.11-1.12ZM48.46,60.1c0,.42.06.83.1,1.25L49,61.2l-.57-1.1Z" transform="translate(-13.84)"/><path class="cls-3" d="M52.78,0A24.45,24.45,0,0,0,45,1.37a29.1,29.1,0,0,0-4.84,2.06c-4,2.34-8.23,3.91-9.41,8.63-2.92,1.3-3.8,5-3.65,9.37a14.21,14.21,0,0,1,.33,2.69c-.09.41-.63.92-.74,1.19C25.24,28.64,26.36,33,28,35.39a7.08,7.08,0,0,0,4.72,3,10.11,10.11,0,0,0,1,3.67c.37.82,1.76,2.29,1.25,3.34-.26.52-2.53,1.66-3.28,2.12-2.55,1.52-4.39,2.46-6.74,4.15C23.41,52.8,21,52.94,21.4,55.46A41.13,41.13,0,0,0,23.18,61c.6,1.84,1.46,3.53,1.95,5.44a64.74,64.74,0,0,1,1.6,12.43c.1,1.63-.07,3.35.35,4.25s2.05,1.23,3.22,1.77c3.37,1.56,7,3.94,11.37,3.47,1,3.54,2,7.31,3.31,10.42,4.54,1.63,11.69,1.37,16.41.81,1.43-.18,2.94-.88,3.28-2.13A13.13,13.13,0,0,1,64.5,95c1.48-.31,3.48-.56,3.81-2.19.45-2.29-1.45-5.57-.81-8.08.85-.27,1.76-.49,1.62-1.84a9.87,9.87,0,0,1,5-.84A3.89,3.89,0,0,0,75,83.21a14.23,14.23,0,0,0,7.13-.14c2.4-.78,3.54-5.68,3-8a36.93,36.93,0,0,0-2-6c-2-4.35-8.08-1.62-11.32,0C73.31,65,74.66,60.66,76.05,56c.41-1.39,1.23-3.36,1-4.8s-2.29-2.78-3.4-3.85c-.62-.6-3.5-2.78-3.67-3.6s1.18-2.59,1.61-3.49A24.55,24.55,0,0,0,73,36.36c2.27-8,2.5-18.91-.74-25.46C71,8.42,67.6,5,65.46,3.37,62.3,1,57.46-.08,52.78,0Zm.38,2.22A23.37,23.37,0,0,1,64,5.13c2.38,1.35,4.14,4,5.81,6.11-2.35-.7-4.35.5-4,2.44,2-1.8,5.33,0,6.32,2s1,4.74,1.09,7.57c.36,6.87-1.26,14-4.71,18.93a13.57,13.57,0,0,1-3,3.69c-3.13,2.2-7.88,4.19-12,2.83-5.38-1.81-7.82-5.4-10.79-9.5.09,2.25,1.67,4.1,3.24,5.83a14.59,14.59,0,0,0,4.78,3.9c-1.48-.34-3.75-.45-4.36.88-3.45-.23-6.65-.59-8.28-2.92A24.87,24.87,0,0,1,35,39.47a8.42,8.42,0,0,1-.28-1.83c.2-1,2.06-1.51,1.33-3-1.36,0-1.66,1.23-2.91,1.36-3.22.31-5.49-4.28-5.35-7a4.48,4.48,0,0,1,4.84-4.31c1.92.22,2.58,2.32,2.95,4.18,1.11.06,2.71,0,3.24-.91-.08-2.11-1.06-3.8-1-5.75.13-3.64,2.11-6.93.58-10.52,1.64-3.73,6.45-6.66,10-8.44a10.76,10.76,0,0,1,4.74-1Zm-9.8,1.84a.79.79,0,0,1,.44.29c0,.63-.65.62-1.07.82-.66.81-1.62,1.19-2.42,2.07s-1.73,3.34-2.82,3.61a8,8,0,0,1-1.64-.06c-1.25.08-2.14.72-3.41.9C34.08,8.1,39.21,5.2,43.2,4.07A.29.29,0,0,1,43.36,4.06Zm6.83,7.79c-2.06,0-4.41,2.2-5,3.88-.25.69-.64,2,.35,2.26,1.1-2.46,2.91-4.83,6.55-4,.7-1.15-.55-2-1.47-2.13a2.83,2.83,0,0,0-.41,0Zm-13,.37c1.41,3.59-1,7.84-.11,11.76.27,1.2,1.23,3.06-.29,3.1,0-3.41-4.2-5.58-7.39-3.57-.21-2.59-.58-6.23,1.18-8.17A9.73,9.73,0,0,1,37.18,12.22Zm32.64,5.94c-.12,2,.61,3.15,1.12,4.54-.88.55-2.59.21-3.57.64-.07,2.91,4.5,1.47,5.19-.15a37.59,37.59,0,0,1-2.57-5Zm-15.88,0c-.54,1.54.92,4.14,1.75,5.46-1.07,1-3,.18-4.44.11-1.37,2.16,2.68,2.57,4.41,2.06a3.06,3.06,0,0,0,1.41-1.18c.48-1.35-.49-1.94-1-2.43C55,21.14,54.72,19.63,53.94,18.2Zm8.24,1.42a.5.5,0,0,0-.38.13c-.1,3.61,2.58,6.59,4.58,9,1,1.18,2.15,1.85,1.07,3.67-1.75.67-4.58,2.57-7,2.15-1.29-.22-1-1.68-1.46-2.47a2.89,2.89,0,0,0,.38,3.73c4.28.42,7.19-1.4,9.8-3.08-.1-.66.79-1.84.55-2.83-.09-.34-.86-.84-1.33-1.35-1.92-2.09-4.55-5.22-5.59-7.66-.09-.22-.16-1.23-.61-1.29ZM31.73,26.36c-1,0-1.89.64-2.1,2.18.44-.29.79-1.11,1.58-.72-.69,1.36-.53,4,.42,4.86,0-1.61-.26-4.36,1.12-4.28,1,.06,1.15,2.12,2,2.58A3.62,3.62,0,0,0,31.73,26.36Zm39.1,8.1c-2.09.95-3.78,2.34-6.5,2.6a8.6,8.6,0,0,0,0,2.34c3.57-.08,5.29-2.63,6.51-4.94ZM53.73,36c1,2.79,5.75,3.77,9.72,3.57a10.23,10.23,0,0,0-.17-2.34c-3.09.09-7.27,0-9.55-1.23Zm-.43,2.23c-2,0-.32,1.12,0,1.56.71.9,1.54,2.45,2.82,3.13,2,1.08,6.06.63,7.53,0a2.44,2.44,0,0,0,1.17-1.34C60.28,41.69,54.87,42.14,53.3,38.19Zm15.18,7.68c1.57,1.26,2.51,2.44,4,3.79.81.73,2.41,1.6,2.57,2.78a13.76,13.76,0,0,1-.46,3,66.33,66.33,0,0,1-3.54,10.93c-.51,1.24-1,2.78-1.67,3.05-1.85.73-4.09-.07-5.66.91,2.11-3.66,4.41-7.12,6.47-10.82-.31-.74-1.08-1.05-1.31-1.87,1.45-2.74.79-11.25-2.92-9.46C66.49,47.43,67.85,46.81,68.48,45.87ZM35.89,47.81c.33-.14,2.79,3.06,3.15,3.32a47.1,47.1,0,0,0,6.78,3.64,26.21,26.21,0,0,0,1,4.27c.63,2,1.16,4.91,3.84,3.44-.25,1.16-1.74,1.88-1.33,3.24.26.84,3.08,1.89,4,2.4a40.9,40.9,0,0,0,4.42,2,148.89,148.89,0,0,0-16.49,1.35c-.63-1-.38-2.51-.44-4.08s.63-5.56,0-5.8-.9,1.27-.93,1.61c-.14,1.8.86,5.62-.12,7.77-1.08-.3-1.62-1.11-2.63-1.48-.39,1.25.82,1.31.7,2.1-.17,1-2.15.17-2.14,1.73,1.29.21,3.28-.4,4.66.19.36,4.24.94,8.26,1.58,12.77-5.51-.28-9.07-3-13.13-4.92-.25-9-1.68-18.29-5.22-25.89,3.71-2.87,7.87-5.9,12.32-7.65Zm30.53,2a1.38,1.38,0,0,1,.69.2c.81.47,1.15,3.15,1.21,4.45a4.56,4.56,0,0,1-.54,2.75,25.4,25.4,0,0,1-6.11-.84c.13-.74-.1-1.46.08-2A4.85,4.85,0,0,1,63.84,54a3.67,3.67,0,0,0-2.32-.26,3.78,3.78,0,0,0-.39-1.23C62.25,52.11,64.69,49.77,66.42,49.86Zm-4.06.1c-1,.62-1.77,1.39-2.68,2.06a5.88,5.88,0,0,1-4.62-1.31c0-.09.18-.05.18-.16,2.17,1,4.93-.4,7.12-.59ZM41,50c1.13.78,3.32.59,5,.88.09.53-.34,1.23-.33,2C44.24,52.77,39.83,51.17,41,50Zm7.64.44a1.84,1.84,0,0,1,.39,0,19.76,19.76,0,0,1,5.28,1.93,5.48,5.48,0,0,0,2.64,1.14c0,.18,0,.35,0,.52-.71.47-1.85.46-2.63.85a6.8,6.8,0,0,1,2.83.72l0,1.29a47.27,47.27,0,0,1-4,3c-.72.39-3.26,1.4-4,1.22-.43-.1-.47-.64-.64-1.14a16.36,16.36,0,0,1-1.3-4.47C47,53.65,46.81,50.48,48.63,50.44ZM59,53.15a1.06,1.06,0,0,1,.31,0A1.54,1.54,0,1,1,58.23,56a7.58,7.58,0,0,1-.34-2.44A2.47,2.47,0,0,1,59,53.15Zm1.51,3.92c1,.1,1.71,1.41,3.07,1.32-.22,3.55-.11,7.1-1.1,10.34-1.84-3.37-2.92-7.45-5.3-10.32.25-.27.47-.57.72-.84C59,58,59.69,57,60.52,57.07ZM66,58.19A3.59,3.59,0,0,1,69,60a80,80,0,0,1-5.8,9.2c.92-2.7,1.31-7.22,1.45-10.67A3.29,3.29,0,0,1,66,58.19ZM56,59.4c2.19,2.78,3.52,6.35,5,9.79a50.66,50.66,0,0,1-10-4.45C51.57,62.16,53.9,60.82,56,59.4Zm23.06,9.16A3.25,3.25,0,0,1,81.39,70c.74,1.13,1.44,4.45,1.83,6.21.59,2.63-.73,5.18-2.81,5.69h0c-1.52.37-3.85.47-4.85,0,1.22-.67,3-.67,4.46-1.13-2-.87-5,0-7.43-.2a48.83,48.83,0,0,0-1.23-8.61c1.42-1.51,4.84-1.87,6.79-3.11A1.6,1.6,0,0,1,79.08,68.56Zm-.17,2.8c-2.48.07-4.43.73-5.54,2.29C75.39,73.78,76.85,71.77,78.91,71.36ZM69.12,72a4.18,4.18,0,0,1,.51.06c1.32,2.28,1.61,6.06,1.56,8.8a8.61,8.61,0,0,1-2.35.6c-.26-3.12-1-6.41-1.28-9.39.47,0,1-.09,1.56-.07ZM53.8,72a34,34,0,0,1,7.33.57c.54,3.48.34,6.91.73,10.32.52,4.54.13,9.71,1,14A30.77,30.77,0,0,1,46,96.55,109.8,109.8,0,0,1,41.3,73.36,77.52,77.52,0,0,1,53.8,72Zm11.58.3c.86,3.12.81,7.08,1.24,10.6-1.31.29-2.26.43-3.66.64-.28-3.66-.49-7.26-.44-10.92A8.74,8.74,0,0,1,65.38,72.3ZM76.7,74.1a2.68,2.68,0,0,0-2.25.8,30.25,30.25,0,0,0,5.38-.31A10.13,10.13,0,0,0,76.7,74.1Zm-.28,2.53a2.92,2.92,0,0,0-2.06.61c1.8.15,4.15.18,6,.14a11.09,11.09,0,0,0-4-.75ZM64.92,85a1.15,1.15,0,0,1,.49,0c.27,2.38,1.21,4.79,1.1,7.39a7.52,7.52,0,0,1-3.06.66c-.09-2.21-.39-5.6-.3-7.71A9.83,9.83,0,0,0,64.92,85Z" transform="translate(-13.84)"/><path class="cls-11" d="M66,58.19a3.29,3.29,0,0,0-1.38.33c-.14,3.45-.53,8-1.45,10.67A80,80,0,0,0,69,60,3.59,3.59,0,0,0,66,58.19ZM56,59.4c-2.12,1.42-4.45,2.76-5.05,5.34a50.91,50.91,0,0,0,10,4.45C59.54,65.75,58.21,62.18,56,59.4Z" transform="translate(-13.84)"/><path class="cls-4" d="M62.36,50c-1,.62-1.77,1.39-2.68,2.06a5.88,5.88,0,0,1-4.62-1.31c0-.09.18-.05.18-.16,2.17,1,4.93-.4,7.12-.59" transform="translate(-13.84)"/><path class="cls-12" d="M61.82,59.94a.74.74,0,1,1-.73-.73.74.74,0,0,1,.73.73m.74,3.41a.74.74,0,1,1-1.47,0,.74.74,0,0,1,1.47,0" transform="translate(-13.84)"/></svg>