<svg id="Layer_1" data-name="Layer 1" xmlns="http://www.w3.org/2000/svg" viewBox="0 0 100 100"><defs><style>.cls-1{fill:#023430;}.cls-2{fill:#10aa50;}.cls-3{fill:#b8c4c2;}.cls-4{fill:#12924f;}</style></defs><rect class="cls-1" width="100" height="100" rx="23.44"/><path class="cls-2" d="M66.86,42C62.75,23.87,54.17,19,52,15.62a38.87,38.87,0,0,1-2.39-4.68,4.78,4.78,0,0,1-1.7,3.85c-2.75,2.45-14.44,12-15.43,32.61C31.55,66.64,46.6,78.5,48.59,79.72a4.4,4.4,0,0,0,4.3-.67c7.26-5,17.18-18.26,14-37"/><path class="cls-3" d="M50.21,69.48c-.38,4.76-.65,7.53-1.61,10.25,0,0,.63,4.53,1.08,9.33h1.57A85.74,85.74,0,0,1,53,79C50.93,78,50.29,73.66,50.21,69.48Z"/><path class="cls-4" d="M53,79c-2.06-1-2.65-5.39-2.74-9.53A197.9,197.9,0,0,0,50.66,49c-.11-3.6.05-33.27-.89-37.61A36.71,36.71,0,0,0,52,15.62C54.17,19,62.75,23.87,66.86,42,70.07,60.75,60.21,74,53,79Z"/></svg>