<svg id="Layer_1" data-name="Layer 1" xmlns="http://www.w3.org/2000/svg" viewBox="0 0 94.61 64.42"><defs><style>.cls-1{fill:#00758f;}.cls-2{fill:#f29111;}</style></defs><path class="cls-1" d="M30.84,60.34l2.87,9.33a12.48,12.48,0,0,1,.81,4.44,61.4,61.4,0,0,0,3.3-13.77h3.46Q39,72.48,35.39,78c-1.89,2.82-4,4.24-6.23,4.24a6.19,6.19,0,0,1-2.23-.55v-2a9.67,9.67,0,0,0,1.52.1A3.64,3.64,0,0,0,31,78.93a3.17,3.17,0,0,0,1.16-2.39,16,16,0,0,0-.9-3.73l-4-12.47Zm-22-5.74L14.1,70.67h0l5.3-16.07h4.33q1.43,12,1.68,21.87H21.79Q21.6,67.2,20.72,59h0L15.13,76.47H12.36L6.83,59h0Q6.19,66.88,6,76.47H2.69Q3,64.82,4.31,54.6Z" transform="translate(-2.69 -17.78)"/><path class="cls-2" d="M67.83,54.28q8.51,0,8.5,10.85,0,5.9-2.55,8.91a7.78,7.78,0,0,1-1,1l4,2h0l-1.43,2.46-5.22-3a9.82,9.82,0,0,1-2.85.39q-4.17,0-6.23-2.43-2.27-2.7-2.27-8.46T61.34,57a8,8,0,0,1,6.49-2.75Zm-17.35,0A9.92,9.92,0,0,1,56,55.93l-.84,1.88A10.75,10.75,0,0,0,51,56.9a3.77,3.77,0,0,0-2.59.81,2.73,2.73,0,0,0-1,2.08c0,1.29.92,2.42,2.62,3.36l1.67.93.13.07.06,0,.13.07.06,0,.13.07c1.29.72,2.5,1.42,2.5,1.42a5.16,5.16,0,0,1,2.56,4.62,5.79,5.79,0,0,1-2,4.57,8,8,0,0,1-5.46,1.78,10.89,10.89,0,0,1-6.2-2l.94-1.88a10.63,10.63,0,0,0,4.68,1.29,4.93,4.93,0,0,0,3.09-.87,3,3,0,0,0,1.18-2.43c0-1.29-.9-2.4-2.56-3.34l-1.55-.86-.12-.08-.7-.39-.13-.07-2.08-1.2a5.23,5.23,0,0,1-2.49-4.65A5.44,5.44,0,0,1,45.69,56,7,7,0,0,1,50.48,54.31ZM83,54.6V73.78h6.88v2.69H79.5V54.6Zm10.7,19.19v.46h-.75v2.22h-.58V74.25h-.79v-.46Zm1.4,0,.73,1.83.66-1.83h.82v2.68h-.54v-2l-.76,2h-.4l-.76-2h0v2H94.3V73.79ZM67.48,57q-5,0-5,8.26,0,4.72,1.32,6.87a4.2,4.2,0,0,0,3.85,2q5,0,5-8.33c0-3.11-.45-5.38-1.33-6.81a4.21,4.21,0,0,0-3.84-2Z" transform="translate(-2.69 -17.78)"/><path class="cls-1" d="M58.73,19.14c1.1-2.72,5-.66,6.48.29a11,11,0,0,0,1.21.92l2,.11a12.81,12.81,0,0,1,3.37,1.08A26.67,26.67,0,0,1,82,31.42a28.24,28.24,0,0,1,1.34,3C84,36,84.71,37.58,85.47,39a10.71,10.71,0,0,0,1.08,2c.19.26.72.34,1,.5.87.45,1.92.79,2.74,1.32a34.91,34.91,0,0,1,4.35,3.25c.5.45.84,1.09,1.32,1.56v.24c-.42.13-.85.26-1.27.37-.92.24-1.74.18-2.63.42a11.21,11.21,0,0,1-1.82.43l0,.05c.34,1,2.19,1.77,3,2.35a12.39,12.39,0,0,1,2.74,2.67l.79.76c.19.27.24.61.43.85v.08a1.22,1.22,0,0,1-.5-.36l-.08-.09a3.08,3.08,0,0,0-.27-.24c-.58-.4-1.16-.87-1.74-1.24-1-.63-2.16-1-3.18-1.64-.59-.37-1.14-.79-1.69-1.21a6.09,6.09,0,0,1-1.37-1.62c-.19-.29-.21-.63-.42-.84,0-.35.36-.46.68-.55h.08l.32-.1a12.21,12.21,0,0,1,5.11-.74c-.08-.53-1.4-1.19-1.82-1.51-.84-.61-1.74-1.24-2.63-1.8-.48-.29-1.3-.5-1.82-.74-.71-.29-2.3-.58-2.69-1.13a14.62,14.62,0,0,1-1.62-3l-.13-.28-.12-.29c-.56-1.27-1.24-2.59-1.79-3.89-.29-.63-.43-1.19-.74-1.79a23.44,23.44,0,0,0-8.22-9A17.12,17.12,0,0,0,68.87,22c-.79-.24-1.74-.11-2.58-.29h-.56c-.47-.14-.87-.64-1.23-.9a13,13,0,0,0-2.61-1.32c-.35-.16-1.32-.53-1.66-.24a.41.41,0,0,0-.37.34c-.21.32,0,.8.1,1.09a14,14,0,0,0,1.45,2.06,13.82,13.82,0,0,1,1.32,2c.68,1.48,1,3.12,1.64,4.6a10.37,10.37,0,0,0,.94,1.69c.29.4.82.69,1,1.19.32.53-.48,2.27-.66,2.83a11.41,11.41,0,0,0,.24,7l0,.1,0,.1c.29.69.6,1.43,1.37,1.62.05,0,0,0,.1,0a15.23,15.23,0,0,1,.74-4,10.23,10.23,0,0,1,1.26-1.79c.27.15.27.63.43,1,.34.81.71,1.71,1.13,2.53a33.82,33.82,0,0,0,3,4.81A13.57,13.57,0,0,0,75.3,48a2.8,2.8,0,0,1,.61.53h0v.08c-.79-.3-1.29-1.11-1.92-1.59a15.18,15.18,0,0,1-3.43-3.54c-.34-.74-.71-1.45-1.08-2.19v-.06c-.16.21-.11.42-.19.74-.34,1.32-.07,2.83-1.26,3.31-1.34.55-2.35-.9-2.77-1.56a11.69,11.69,0,0,1-.76-8.88,7.51,7.51,0,0,1,.61-2c-.08-.48-.45-.61-.66-.9a12.25,12.25,0,0,1-1-1.64,32,32,0,0,1-1.37-3.54c-.18-.48-.24-.95-.42-1.4a12.75,12.75,0,0,0-1.34-2C59.78,22.55,58,20.86,58.73,19.14Zm8.64,5.17a1.59,1.59,0,0,0,.24.2l.11.07a1.18,1.18,0,0,1,.36.34,5.33,5.33,0,0,0,.32.56,1.5,1.5,0,0,1-.56,1.32l0,.05c-.21-.42-.4-.84-.61-1.27a8.91,8.91,0,0,1-.84-1.08h0v-.05A4.11,4.11,0,0,1,67.37,24.31Z" transform="translate(-2.69 -17.78)"/></svg>