<svg id="Layer_1" data-name="Layer 1" xmlns="http://www.w3.org/2000/svg" viewBox="0 0 95.4 99.97"><defs><style>.cls-1{fill:#2cb134;}</style></defs><path class="cls-1" d="M89.56,0a.64.64,0,0,1,.57,1L65.42,34.56a1,1,0,0,1-1.34.08.3.3,0,0,1-.08-.08l-8.72-9.71a1,1,0,0,0-1.43,0,1.15,1.15,0,0,0-.14.17L48.43,31.7a1.14,1.14,0,0,0,.14,1.15L64.28,49.13a1,1,0,0,0,1.35.08l.08-.08,30.84-34.7a.66.66,0,0,1,.94,0,.68.68,0,0,1,.21.46v84.4a.69.69,0,0,1-.63.72H3a.69.69,0,0,1-.72-.64V.72A.67.67,0,0,1,2.93,0H89.56ZM65.28,57A15.58,15.58,0,0,0,49.43,72.29c0,.23,0,.46,0,.68,0,9.86,7.14,16.14,16.42,16.14a19.63,19.63,0,0,0,12-3.71A.88.88,0,0,0,78,84.26L75.42,80.4a.86.86,0,0,0-1.14-.14,14.05,14.05,0,0,1-7.57,2.43c-5,0-8.14-3.15-8.71-6.86a.3.3,0,0,1,.28-.28H79.85a.92.92,0,0,0,.85-.86v-.86c0-10-6.28-16.85-15.42-16.85ZM44,51.55a22.9,22.9,0,0,0-15.42-5.14c-9.71,0-15.71,5.72-15.71,12.57,0,15.57,23.71,10.57,23.71,17.85,0,2.29-2.29,4.57-7.14,4.57A18,18,0,0,1,17,76.55a1,1,0,0,0-1.35,0l-.08.1-3.71,5.14A.88.88,0,0,0,12,83c3.86,3.57,9.29,6,16.86,6C40,89,45.43,83.26,45.72,75.83c0-15.42-23.71-11-23.71-17.56,0-2.43,2.14-4.15,5.86-4.15A17.78,17.78,0,0,1,39.15,58a.9.9,0,0,0,1.27-.13h0l3.72-5A.9.9,0,0,0,44,51.57l0,0ZM65.42,63.26A7.2,7.2,0,0,1,73,69.83a.3.3,0,0,1-.28.29H58.14a.31.31,0,0,1-.29-.29A7.51,7.51,0,0,1,65.42,63.26Z" transform="translate(-2.3 0)"/></svg>