<svg id="Layer_1" data-name="Layer 1" xmlns="http://www.w3.org/2000/svg" xmlns:xlink="http://www.w3.org/1999/xlink" viewBox="0 0 100 100"><defs><style>.cls-1{fill:url(#linear-gradient);}.cls-2{fill:url(#linear-gradient-2);}</style><linearGradient id="linear-gradient" x1="-1034.42" y1="777.66" x2="-1029.52" y2="772.8" gradientTransform="matrix(8.91, 0, 0, -8.93, 9233.04, 6960.27)" gradientUnits="userSpaceOnUse"><stop offset="0" stop-color="#3a7fba"/><stop offset="1" stop-color="#396a95"/></linearGradient><linearGradient id="linear-gradient-2" x1="-1031.76" y1="774.88" x2="-1026.5" y2="769.9" gradientTransform="matrix(8.91, 0, 0, -8.93, 9236.14, 6963.3)" gradientUnits="userSpaceOnUse"><stop offset="0" stop-color="#ffe054"/><stop offset="1" stop-color="#fcc234"/></linearGradient></defs><path class="cls-1" d="M49.68,6.1c-22.4,0-21,9.72-21,9.72l0,10.06H50.08v3H20.21s-14.34-1.63-14.34,21,12.52,21.8,12.52,21.8h7.46V61.2s-.4-12.51,12.32-12.51h21.2s11.92.19,11.92-11.52V17.82S73.1,6.1,49.68,6.1ZM37.89,12.87a3.84,3.84,0,0,1,3.85,3.84h0a3.84,3.84,0,0,1-3.84,3.84h0a3.83,3.83,0,0,1-3.84-3.84h0a3.84,3.84,0,0,1,3.84-3.85Z"/><path class="cls-2" d="M50.32,93.9c22.4,0,21-9.72,21-9.72l0-10.06H49.92v-3H79.79s14.34,1.63,14.34-21-12.52-21.8-12.52-21.8H74.15V38.8s.4,12.51-12.32,12.51H40.63s-11.92-.19-11.92,11.52V82.18S26.9,93.9,50.32,93.9Zm11.79-6.77a3.84,3.84,0,0,1-3.85-3.84h0a3.84,3.84,0,0,1,3.84-3.84h0A3.83,3.83,0,0,1,66,83.28h0a3.84,3.84,0,0,1-3.84,3.85Z"/></svg>