<svg id="Layer_1" data-name="Layer 1" xmlns="http://www.w3.org/2000/svg" viewBox="0 0 72.28 98"><defs><style>.cls-1{fill:#5382a1;}.cls-2{fill:#e76f00;}</style></defs><path class="cls-1" d="M37.13,76.79S33.39,79,39.8,79.71c7.77.88,11.73.76,20.29-.86a35.13,35.13,0,0,0,5.4,2.63C46.3,89.7,22.07,81,37.13,76.79M34.79,66.06s-4.2,3.11,2.21,3.78c8.3.85,14.85.92,26.19-1.26a11.66,11.66,0,0,0,4,2.46c-23.19,6.78-49,.53-32.43-5" transform="translate(-13.86 -1)"/><path class="cls-2" d="M54.55,47.86c4.73,5.44-1.24,10.34-1.24,10.34s12-6.2,6.49-14C54.65,37,50.71,33.41,72.08,21c0,0-33.55,8.38-17.53,26.84" transform="translate(-13.86 -1)"/><path class="cls-1" d="M79.93,84.73s2.77,2.28-3.05,4c-11.08,3.35-46.1,4.37-55.82.13-3.5-1.52,3.06-3.63,5.12-4.07a13.11,13.11,0,0,1,3.38-.38c-3.89-2.74-25.14,5.38-10.79,7.7,39.11,6.35,71.3-2.85,61.16-7.43M38.94,55s-17.82,4.23-6.31,5.76c4.86.65,14.54.51,23.56-.25C63.56,59.84,71,58.52,71,58.52a31.29,31.29,0,0,0-4.48,2.39c-18.09,4.76-53,2.55-43-2.32A33.7,33.7,0,0,1,38.94,55m32,17.86c18.39-9.56,9.88-18.74,4-17.5a13.94,13.94,0,0,0-2.1.56,3.38,3.38,0,0,1,1.57-1.21c11.74-4.13,20.77,12.17-3.79,18.63a1.8,1.8,0,0,0,.37-.48" transform="translate(-13.86 -1)"/><path class="cls-2" d="M59.8,1S70,11.19,50.14,26.85c-15.91,12.57-3.62,19.73,0,27.92C40.85,46.39,34,39,38.61,32.14,45.32,22.07,63.91,17.18,59.8,1" transform="translate(-13.86 -1)"/><path class="cls-1" d="M40.74,98.7c17.65,1.13,44.75-.63,45.4-9,0,0-1.24,3.16-14.59,5.68-15.06,2.83-33.64,2.5-44.66.69,0,0,2.25,1.86,13.85,2.61" transform="translate(-13.86 -1)"/></svg>