<svg id="Layer_1" data-name="Layer 1" xmlns="http://www.w3.org/2000/svg" viewBox="0 0 83.4 100"><defs><style>.cls-1{fill:#004711;}.cls-2{fill:#00b159;}</style></defs><path class="cls-1" d="M30.05,46.12,25.93,18.78,9.25,8.49l5,25.7L30.05,46.12ZM34,75.51,31.33,56.13,16.49,43.84,20.32,63ZM22.17,71.18,24.8,85.73,37.43,98.86,35.66,84Zm37.7-4.48-6.5-4.82a7.6,7.6,0,0,1-.26,1.84l-4.74,3.34,5.18,4.26.3,4.84,6.16,5L59.87,66.7ZM79.5,52.54,78.32,66.19,74,63.31l.48-6.9S66,50.73,66,50.73l.26-6.28Z" transform="translate(-8.3 0)"/><path class="cls-2" d="M51.85,34.83,50.64,9.41,25.93,18.78l4.12,27.34ZM53,63.65,52,44.27,31.33,56.12,34.38,76Zm.36,7.88L35.66,84l2.2,15.27L54,86.44Zm6.81-4.9.29,14.77L73.21,71,73.85,57ZM90.59,45.25l-1.67,13-10,8,1.19-13.61,10.47-7.36Z" transform="translate(-8.3 0)"/><path d="M54,71.28s0,0,0,0a.4.4,0,0,0,0-.15l0-.09,0,0a.27.27,0,0,0-.07-.08l0,0h0L49.05,67l4.35-2.93a.61.61,0,0,0,.26-.53l0-1,5.76,4.4.12,13.36L54.19,75.8Zm-23.21-15,2.68,18.27L20.8,62.65,17.13,44.93,30.79,56.31Zm21.66,6.94L34.77,75.17,32,56.32l19.67-11.2ZM50.18,10l1,24.6L30.42,45.43,26.56,19.08ZM25.34,19.05,29.13,45,14.82,33.8,9.77,9.37l15.57,9.68Zm.22,66.58-2.7-13.06,12,11.85,1.93,13.19Zm27.87.48L38.15,98.28l-2-13.87,16.73-12Zm19.19-15.3L60.69,80.32l-.11-13.41,12.83-9.18Zm1.66-7.61.41-6.65v0s0,0,0-.07a.13.13,0,0,1,0-.06.69.69,0,0,0,0-.13h0a.38.38,0,0,0-.09-.13l0,0L74.42,56l-8-5.3.11-5.82,12.64,7.88L78,65.79Zm5,2.34,1.11-12.76,10-7.14L88.65,58l-9.41,7.5ZM91.7,44.31a.08.08,0,0,0,0,0,.13.13,0,0,0,0-.06.88.88,0,0,0-.05-.15L91.57,44l0,0-.09-.08,0,0h0L77.74,36.25a.59.59,0,0,0-.6,0l-11.53,7,0,0-.06,0,0,.06,0,.06a.3.3,0,0,0,0,.08.14.14,0,0,0,0,.06s0,.06,0,.09v.06l-.13,6.12-4.69-3.1a.59.59,0,0,0-.64,0l-6.74,4.12-.3-6.85V44s0,0,0-.08a.14.14,0,0,0,0-.07.25.25,0,0,0,0-.07l0-.06,0-.06-.06-.05,0,0-7-4.72,6.57-3.42a.59.59,0,0,0,.32-.56l-1.1-25.8a.3.3,0,0,0,0-.1V9l-.06-.14,0,0-.08-.1,0,0,0,0,0,0,0,0L33.3.06a.56.56,0,0,0-.44,0L8.72,7.55h0l-.12.07h0l0,0-.09.08,0,.07-.05.08a.3.3,0,0,0,0,.1s0,0,0,0h0v.09a.28.28,0,0,0,0,.09h0l5.39,26a.56.56,0,0,0,.21.35l7.32,5.7-5.29,2.52h0l0,0-.09.07,0,0-.06.1a.05.05,0,0,0,0,0,.44.44,0,0,0-.05.15h0v0a.71.71,0,0,0,0,.14v0l4.05,19.58a.68.68,0,0,0,.18.32l5.09,4.79-3.37,2.06a.4.4,0,0,0-.12.1l0,0a.41.41,0,0,0-.07.11.52.52,0,0,0-.07.21,1,1,0,0,0,0,.17v0L24.42,86a.62.62,0,0,0,.15.29l12.7,13.48.06.06,0,0,.12.07h0a.52.52,0,0,0,.21,0,.49.49,0,0,0,.21,0l0,0,.06,0,0,0,16.34-13a.58.58,0,0,0,.22-.49l-.38-8.94L59.72,82l0,0,.1.06h0l0,0a.57.57,0,0,0,.18,0l.17,0h0l0,0,.08,0,0,0L73.57,71.58a.56.56,0,0,0,.23-.43l.4-6.55,4,2.77h0l0,0,.07,0h0l.16,0a.57.57,0,0,0,.18,0h0l0,0,.09-.06h0l10.68-8.52a.57.57,0,0,0,.22-.39l1.9-14s0,0,0,0Z" transform="translate(-8.3 0)"/></svg>