<svg id="Layer_1" data-name="Layer 1" xmlns="http://www.w3.org/2000/svg" viewBox="0 0 100 100"><defs><style>.cls-1{fill:#662d91;}</style></defs><path class="cls-1" d="M.12,46.64c9.69,22.27,34.28,26,63.64,7.13C77.3,66.3,80.67,81.15,69.37,96.11A50,50,0,0,1,0,50q0-1.7.12-3.36ZM45.84,37c4.38-18.24,16.6-28.7,35.81-25.67a50,50,0,0,1-9.56,83.57C87.11,73.47,74.83,50.89,45.84,37ZM50,0A49.75,49.75,0,0,1,78.78,9.11C51.46,5.94,38.56,28.71,40.36,60.17,22.6,65.61,8.14,61.6.5,43A50,50,0,0,1,50,0Z" transform="translate(0)"/></svg>