<svg id="Layer_1" data-name="Layer 1" xmlns="http://www.w3.org/2000/svg" viewBox="0 0 100 100"><defs><style>.cls-1{fill:#f4f2ed;}.cls-2{fill:#5294cf;}.cls-3{fill:#1f5b98;}.cls-4{fill:#2d72b8;}.cls-5{fill:#1a476f;}</style></defs><rect class="cls-1" width="100" height="100" rx="23.44"/><path class="cls-2" d="M60.23,89.79h1l15.72-7.87.27-.37V18.78l-.27-.38L61.2,10.55h-1Z"/><path class="cls-3" d="M39.77,89.79h-1L23.08,81.92l-.32-.55L22.6,19.1l.48-.69,15.71-7.86h1Z"/><path class="cls-4" d="M38.82,10.55H61.18V89.79H38.82Z"/><path class="cls-5" d="M85.16,48.39l-.54-.12L77,47.56l-.12.06L61.18,47H38.82l-15.74.63v-12h0l0,0,15.74-3.65H61.18l15.74,3.65,5.79,3.07v-2l2.45-.27-.26-.5-7.74-5.53-.24.07L61.18,25.59H38.82L23.08,30.46v-12l-8.24,9.64v8.42l.07,0,2.38.25v2L14.84,40v8.38h.07l2.38,0v3.52l-2.06,0-.39,0v8.39l2.45,1.31v2L15,63.93l-.11-.08v8.43l8.24,9.64V69.86l15.74,4.88H61.18L77,69.85l.21.09,7.64-5.45.34-.55-2.45-.27v-2l-.32-.13-5.23,2.82-.19.4L61.18,68.39H38.82L23.08,64.74v-12l15.74.62v0H61.18l15.74-.64.36.16,7.36-.63.52-.26-2.45,0V48.42l2.45,0Z"/><path class="cls-4" d="M76.92,69.86V81.92l8.24-9.64V63.91L77,69.85Zm0-5.09h0l8.19-4.4V51.94l-8.24.76ZM77,35.6h0v12l8.24.77V40L77,35.6Zm0-5.09,8.19,5.91V28.05L76.92,18.4V30.46l0,0Z"/></svg>