<svg id="Layer_1" data-name="Layer 1" xmlns="http://www.w3.org/2000/svg" viewBox="0 0 88.18 100"><defs><style>.cls-1{fill:#e44d26;}.cls-2{fill:#f16529;}.cls-3{fill:#ebebeb;}.cls-4{fill:#fff;}</style></defs><path class="cls-1" d="M13.94,90l-8-90H94.09l-8,90L50,100Z" transform="translate(-5.91)"/><path class="cls-2" d="M50,92.35l29.18-8.09L86,7.36H50Z" transform="translate(-5.91)"/><path class="cls-3" d="M50,40.74H35.39l-1-11.3H50v-11H22.32l.26,3L25.3,51.78H50Zm0,28.67h0L37.66,66.1l-.79-8.8H25.79l1.55,17.33L50,80.91l0,0Z" transform="translate(-5.91)"/><path class="cls-4" d="M50,40.74v11H63.55L62.27,66.1,50,69.42V80.9l22.63-6.27.17-1.86L75.35,43.7l.27-3H50ZM50,18.4v11H76.63L76.85,27l.5-5.6.26-3Z" transform="translate(-5.91)"/></svg>