<svg id="Layer_1" data-name="Layer 1" xmlns="http://www.w3.org/2000/svg" xmlns:xlink="http://www.w3.org/1999/xlink" viewBox="0 0 100 94.23"><defs><style>.cls-1{fill:url(#linear-gradient);}.cls-2{fill:#0078d4;}.cls-3{fill:url(#linear-gradient-2);}.cls-4{fill:url(#linear-gradient-3);}</style><linearGradient id="linear-gradient" x1="-388.46" y1="512.64" x2="-390.18" y2="505.05" gradientTransform="matrix(7.99, 0, 0, -11.96, 3140.22, 6141.58)" gradientUnits="userSpaceOnUse"><stop offset="0" stop-color="#114a8b"/><stop offset="1" stop-color="#0669bc"/></linearGradient><linearGradient id="linear-gradient-2" x1="-404.3" y1="509.04" x2="-404.86" y2="508.84" gradientTransform="matrix(11.14, 0, 0, -11.96, 4557.33, 6141.53)" gradientUnits="userSpaceOnUse"><stop offset="0" stop-opacity="0.3"/><stop offset="0.07" stop-opacity="0.2"/><stop offset="0.32" stop-opacity="0.1"/><stop offset="0.62" stop-opacity="0.05"/><stop offset="1" stop-opacity="0"/></linearGradient><linearGradient id="linear-gradient-3" x1="-389.44" y1="512.89" x2="-387.46" y2="505.37" gradientTransform="matrix(8.42, 0, 0, -11.96, 3337.46, 6141.61)" gradientUnits="userSpaceOnUse"><stop offset="0" stop-color="#3ccbf4"/><stop offset="1" stop-color="#2892df"/></linearGradient></defs><path class="cls-1" d="M33.34,2.87H62.93l-30.72,91a4.72,4.72,0,0,1-4.47,3.21h-23A4.71,4.71,0,0,1,0,92.38a4.5,4.5,0,0,1,.25-1.5L28.87,6.08a4.7,4.7,0,0,1,4.47-3.21Z" transform="translate(0 -2.87)"/><path class="cls-2" d="M76.34,63.92H29.41a2.16,2.16,0,0,0-2.17,2.17,2.2,2.2,0,0,0,.69,1.59L58.08,95.82a4.75,4.75,0,0,0,3.24,1.27H87.89Z" transform="translate(0 -2.87)"/><path class="cls-3" d="M33.34,2.87a4.67,4.67,0,0,0-4.48,3.27L.28,90.8a4.71,4.71,0,0,0,2.84,6,4.89,4.89,0,0,0,1.6.27H28.35a5,5,0,0,0,3.87-3.29L37.92,77,58.27,96a4.88,4.88,0,0,0,3,1.1H87.78L76.17,63.92H42.32L63,2.87Z" transform="translate(0 -2.87)"/><path class="cls-4" d="M71.13,6.07a4.7,4.7,0,0,0-4.46-3.2h-33a4.7,4.7,0,0,1,4.46,3.2L66.77,90.88a4.71,4.71,0,0,1-2.95,6,4.87,4.87,0,0,1-1.51.24h33A4.71,4.71,0,0,0,100,92.38a4.5,4.5,0,0,0-.25-1.5L71.13,6.07Z" transform="translate(0 -2.87)"/></svg>