<svg id="Layer_1" data-name="Layer 1" xmlns="http://www.w3.org/2000/svg" viewBox="0 0 100.38 63.72"><path d="M68.59,18.08a1,1,0,0,0-1,1v17.8l-4-2.35a1.62,1.62,0,0,0-1.65,0l-9.69,5.65a1.62,1.62,0,0,0-.82,1.41V52.88a1.62,1.62,0,0,0,.82,1.41L61.94,60a1.63,1.63,0,0,0,1.65,0l9.69-5.66a1.62,1.62,0,0,0,.82-1.41V22.06a1.61,1.61,0,0,0-.81-1.39l-4.22-2.46a1,1,0,0,0-.47-.13ZM36.86,34.28a1.58,1.58,0,0,0-.82.22l-9.7,5.65a1.63,1.63,0,0,0-.81,1.41V52.88a1.63,1.63,0,0,0,.81,1.41L36,60a1.65,1.65,0,0,0,1.64,0l9.7-5.66a1.63,1.63,0,0,0,.81-1.41V41.56a1.63,1.63,0,0,0-.81-1.41l-9.7-5.65A1.58,1.58,0,0,0,36.86,34.28Zm51.81,0a1.52,1.52,0,0,0-.83.22l-9.69,5.65a1.66,1.66,0,0,0-.82,1.41V52.88a1.64,1.64,0,0,0,.82,1.41L87.55,60a1.63,1.63,0,0,0,1.65,0l4.63-2.69a.73.73,0,0,0,.26-1,.81.81,0,0,0-.26-.26l-10-5.9V44.34l4.86-2.83,4.85,2.83v4a.48.48,0,0,0,.76.44L99.2,46a1.63,1.63,0,0,0,.8-1.39v-3a1.62,1.62,0,0,0-.82-1.41L89.49,34.5a1.58,1.58,0,0,0-.82-.22ZM11,34.28a1.65,1.65,0,0,0-.82.22L.44,40.15a1.67,1.67,0,0,0-.82,1.42V56A.92.92,0,0,0,1,56.81l4.3-2.5a1.64,1.64,0,0,0,.8-1.4V44.35L11,41.52l4.85,2.83v8.56a1.63,1.63,0,0,0,.81,1.39l4.3,2.51a.92.92,0,0,0,1.25-.33.93.93,0,0,0,.12-.46V41.57a1.63,1.63,0,0,0-.82-1.42L11.78,34.5A1.68,1.68,0,0,0,11,34.28Zm51.8,7.23,4.86,2.83V50.1l-4.86,2.83L57.91,50.1V44.34l4.85-2.83ZM88.67,44l-2.78,1.62v3.23l2.78,1.61,2.77-1.61V45.62ZM49.51,56.93a2,2,0,0,0-1,.24l-9.11,5.27a1.89,1.89,0,0,0-1,1.66V74.61a2,2,0,0,0,1,1.66l2.4,1.36a3.87,3.87,0,0,0,2.09.57,2.52,2.52,0,0,0,2.7-2.84V65a.28.28,0,0,0-.26-.27H45.21a.27.27,0,0,0-.27.27V75.36c0,.79-.84,1.6-2.19.92l-2.5-1.44a.28.28,0,0,1-.13-.24V64.09a.28.28,0,0,1,.14-.25l9.1-5.25a.3.3,0,0,1,.29,0l9.11,5.25a.26.26,0,0,1,.14.25V74.6a.29.29,0,0,1-.14.25l-9.11,5.27a.3.3,0,0,1-.29,0L47,78.74a.27.27,0,0,0-.23,0,5.17,5.17,0,0,1-1.37.63c-.16.05-.37.15.09.4l3,1.8a2.11,2.11,0,0,0,1,.25,1.8,1.8,0,0,0,1-.27l9.11-5.26a1.93,1.93,0,0,0,1-1.66V64.1a2,2,0,0,0-1-1.66l-9.11-5.26a1.88,1.88,0,0,0-1-.25Zm14.2,4.85a1.75,1.75,0,1,0,1.75,1.74A1.75,1.75,0,0,0,63.71,61.78Zm0,.28a1.47,1.47,0,0,1,1.49,1.46A1.51,1.51,0,0,1,63.69,65a1.48,1.48,0,0,1-1.46-1.49,1.46,1.46,0,0,1,1.45-1.46Zm-.63.47v2h.37v-.78h.35c.14,0,.17.05.2.16s.06.53.08.63h.4a2.45,2.45,0,0,1-.09-.53c-.05-.25-.06-.43-.33-.44a.46.46,0,0,0,.38-.49c0-.52-.45-.52-.69-.52h-.67Zm.37.32h.32c.09,0,.28,0,.28.26a.27.27,0,0,1-.3.29h-.3ZM52,64.45c-2.6,0-4.15,1.11-4.15,2.94,0,2,1.55,2.54,4,2.79,3,.3,3.21.72,3.21,1.31,0,1-.82,1.44-2.74,1.44-2.41,0-2.94-.59-3.12-1.79a.26.26,0,0,0-.27-.22H47.74a.27.27,0,0,0-.27.26h0c0,1.53.84,3.36,4.82,3.36,2.93,0,4.58-1.14,4.58-3.13s-1.33-2.49-4.13-2.87-3.12-.57-3.12-1.23.23-1.27,2.33-1.27c1.87,0,2.57.41,2.86,1.67a.24.24,0,0,0,.24.2h1.19a.27.27,0,0,0,.19-.08.21.21,0,0,0,.06-.2C56.3,65.47,54.87,64.45,52,64.45Z" transform="translate(0.38 -18.08)"/></svg>