<svg id="Layer_1" data-name="Layer 1" xmlns="http://www.w3.org/2000/svg" xmlns:xlink="http://www.w3.org/1999/xlink" viewBox="0 0 100.48 99.96"><defs><style>.cls-1{fill:url(#linear-gradient);}.cls-2{fill:url(#linear-gradient-2);}</style><linearGradient id="linear-gradient" x1="-397.65" y1="499.7" x2="-392.07" y2="494.17" gradientTransform="matrix(8.91, 0, 0, -8.93, 3553.07, 4472.54)" gradientUnits="userSpaceOnUse"><stop offset="0" stop-color="#387eb8"/><stop offset="1" stop-color="#366994"/></linearGradient><linearGradient id="linear-gradient-2" x1="-394.57" y1="496.49" x2="-388.58" y2="490.82" gradientTransform="matrix(8.91, 0, 0, -8.93, 3556.17, 4475.56)" gradientUnits="userSpaceOnUse"><stop offset="0" stop-color="#ffe052"/><stop offset="1" stop-color="#ffc331"/></linearGradient></defs><path class="cls-1" d="M49.63,0C24.12,0,25.71,11.06,25.71,11.06l0,11.46H50.09V26h-34S-.25,24.11-.25,49.85,14,74.68,14,74.68h8.5v-12s-.46-14.24,14-14.24H60.66s13.57.22,13.57-13.11v-22S76.29,0,49.63,0ZM36.21,7.71a4.38,4.38,0,0,1,4.38,4.37h0a4.39,4.39,0,0,1-4.37,4.38h0a4.38,4.38,0,0,1-4.38-4.38h0A4.37,4.37,0,0,1,36.2,7.71Z" transform="translate(0.25)"/><path class="cls-2" d="M50.35,100C75.86,100,74.27,88.9,74.27,88.9l0-11.46H49.9V74h34s16.32,1.85,16.32-23.89S86,25.28,86,25.28H77.48V37.23s.46,14.25-14,14.25H39.32s-13.56-.22-13.56,13.11v22S23.7,100,50.35,100Zm13.43-7.7a4.38,4.38,0,0,1-4.38-4.38h0a4.37,4.37,0,0,1,4.37-4.38h0a4.38,4.38,0,0,1,4.38,4.37h0a4.39,4.39,0,0,1-4.37,4.38Z" transform="translate(0.25)"/></svg>