<svg id="Layer_1" data-name="Layer 1" xmlns="http://www.w3.org/2000/svg" viewBox="0 0 98.36 83.99"><defs><style>.cls-1{fill:#912626;}.cls-2{fill:#c6302b;}.cls-3{fill:#fff;}.cls-4{fill:#621b1c;}.cls-5{fill:#9a2928;}</style></defs><path class="cls-1" d="M95.33,72.69C90.08,75.42,62.89,86.6,57.1,89.62s-9,3-13.58.81S10,76.55,4.79,74.06c-2.6-1.25-4-2.3-4-3.29V60.83s37.67-8.2,43.75-10.39,8.2-2.26,13.37-.36,36.13,7.48,41.24,9.35v9.8c0,1-1.18,2.07-3.85,3.46" transform="translate(-0.82 -8)"/><path class="cls-2" d="M95.33,62.8C90.08,65.54,62.88,76.72,57.1,79.74s-9,3-13.58.8S10,66.67,4.8,64.18-.53,60,4.59,58s33.9-13.29,40-15.47,8.2-2.27,13.37-.37S90.15,54.78,95.26,56.65s5.31,3.42.07,6.15" transform="translate(-0.82 -8)"/><path class="cls-1" d="M95.33,56.6C90.08,59.34,62.89,70.52,57.1,73.54s-9,3-13.58.8S10,60.46,4.79,58c-2.6-1.24-4-2.29-4-3.29V44.74s37.67-8.2,43.75-10.38,8.2-2.26,13.37-.37,36.13,7.48,41.24,9.35v9.81c0,1-1.18,2.06-3.85,3.45" transform="translate(-0.82 -8)"/><path class="cls-2" d="M95.33,46.72C90.08,49.45,62.88,60.63,57.1,63.65s-9,3-13.58.8S10,50.58,4.8,48.09s-5.33-4.21-.21-6.21,33.9-13.3,40-15.48,8.2-2.26,13.37-.37S90.15,38.69,95.26,40.56s5.31,3.42.07,6.16" transform="translate(-0.82 -8)"/><path class="cls-1" d="M95.33,39.92C90.08,42.65,62.89,53.83,57.1,56.85s-9,3-13.58.8S10,43.78,4.79,41.29C2.19,40,.82,39,.82,38V28.06s37.67-8.2,43.75-10.39,8.2-2.26,13.37-.36,36.13,7.48,41.24,9.35v9.8c0,1-1.18,2.06-3.85,3.46" transform="translate(-0.82 -8)"/><path class="cls-2" d="M95.33,30C90.08,32.77,62.88,44,57.1,47s-9,3-13.58.8S10,33.9,4.8,31.4s-5.33-4.2-.21-6.21,33.9-13.29,40-15.47,8.2-2.26,13.37-.37S90.15,22,95.26,23.88s5.31,3.42.07,6.15" transform="translate(-0.82 -8)"/><path class="cls-3" d="M62,20.36l-8.46.88L51.67,25.8l-3.06-5.09-9.76-.88,7.28-2.62-2.18-4,6.82,2.67,6.43-2.1-1.74,4.17L62,20.36M51.16,42.46,35.38,35.92,58,32.44l-6.84,10M29.28,22.89c6.68,0,12.09,2.1,12.09,4.69S36,32.26,29.28,32.26,17.2,30.17,17.2,27.58s5.41-4.69,12.08-4.69" transform="translate(-0.82 -8)"/><path class="cls-4" d="M72,21.61,85.4,26.9,72,32.18l0-10.57" transform="translate(-0.82 -8)"/><path class="cls-5" d="M57.21,27.46,72,21.61l0,10.57-1.46.57L57.21,27.46" transform="translate(-0.82 -8)"/></svg>