<svg id="Layer_1" data-name="Layer 1" xmlns="http://www.w3.org/2000/svg" viewBox="0 0 100 100"><defs><style>.cls-1{fill-rule:evenodd;}</style></defs><path d="M79,47.83A22.55,22.55,0,0,0,75.42,36l-.5-.82c-2-3.18-3.71-6-3.71-9.25a7.43,7.43,0,0,1,7.2-7.61l.36,0,.19,0a42.88,42.88,0,0,0-64.8,8.07c1,0,2,0,2.76,0,4.49,0,11.43-.54,11.43-.54a1.77,1.77,0,0,1,.27,3.53s-2.31.28-4.9.41L39.34,76.35l9.38-28.16L42,29.88c-2.31-.14-4.49-.41-4.49-.41-2.31-.13-2-3.67.27-3.53,0,0,7.08.54,11.3.54,4.48,0,11.43-.54,11.43-.54a1.77,1.77,0,0,1,.27,3.53s-2.32.27-4.9.41L71.41,76l4.27-14.3L76,60.61C77.71,55.24,79,51.27,79,47.82ZM7.11,50A42.88,42.88,0,0,0,31.28,88.6L10.81,32.54A42.67,42.67,0,0,0,7.11,50Z"/><path d="M37.88,91.14,50.76,53.75,63.94,89.88a5.28,5.28,0,0,0,.3.58A42.79,42.79,0,0,1,37.88,91.14ZM87.63,29.42a32,32,0,0,1,.29,4.41,40.43,40.43,0,0,1-3.26,15.36L71.56,87.07A42.87,42.87,0,0,0,87.64,29.42Z"/><path class="cls-1" d="M0,50a50,50,0,1,1,50,50A50.06,50.06,0,0,1,0,50Zm2.29,0A47.71,47.71,0,1,0,50,2.29,47.76,47.76,0,0,0,2.29,50Z"/></svg>