<svg width="70" height="70" viewBox="0 0 70 70" fill="none" xmlns="http://www.w3.org/2000/svg">
<rect width="70" height="70" rx="5.25" fill="#DFEEFF"/>
<path d="M53.7097 48.5484V24.0323C53.7097 23.3206 53.131 22.7419 52.4194 22.7419H45.9677V16.9355C45.9677 15.8684 45.0994 15 44.0323 15H25.9677C24.9006 15 24.0323 15.8684 24.0323 16.9355V20.28C23.2832 20.5471 22.7419 21.2568 22.7419 22.0968V22.7419H17.5806C16.869 22.7419 16.2903 23.3206 16.2903 24.0323V48.5484C15.5787 48.5484 15 49.1271 15 49.8387V50.4839C15 52.9742 17.0265 55 19.5161 55H50.4839C52.9735 55 55 52.9742 55 50.4839V49.8387C55 49.1271 54.4213 48.5484 53.7097 48.5484ZM27.1335 43.3871H24.8013L24.3174 42.0968H27.6168L27.1335 43.3871ZM26.6503 44.6774L26.2361 45.7813C26.1516 46.0045 25.7839 46.0045 25.6994 45.7813L25.2852 44.6774H26.6503ZM24.0323 27.9032H25.3226V40.8064H24.0323V27.9032ZM27.9032 40.8064H26.6129V27.9032H27.9032V40.8064ZM27.9032 26.6129H24.0323V25.3226H27.9032V26.6129ZM24.3916 45.9677H20.1613V26.6129H22.7419V41.5684L24.3916 45.9677ZM29.1935 41.5684V29.1935H34.7329L35.3297 29.7903L33.7716 31.3484L34.7271 32.3032C34.8426 32.4194 34.8697 32.5987 34.7916 32.7871C34.7213 32.9561 34.5729 33.0645 34.4123 33.0645H33.0645V36.9355H34.4123C34.5729 36.9355 34.7213 37.0439 34.7981 37.2277C34.8697 37.4013 34.8426 37.5806 34.7277 37.6961L33.7723 38.6516L36.5103 41.3897L37.4652 40.4348C37.5813 40.3187 37.7606 40.2923 37.949 40.3697C38.12 40.4406 38.2264 40.5858 38.2264 40.749V42.0968H42.0974V40.7497C42.0974 40.5865 42.2039 40.4406 42.3897 40.3639C42.5632 40.291 42.7419 40.3187 42.8587 40.4348L43.8135 41.3897L46.5516 38.6516L45.5961 37.6968C45.4806 37.5806 45.4535 37.4013 45.5316 37.2129C45.6013 37.0445 45.7503 36.9355 45.911 36.9355H47.2581V33.0645H45.9103C45.7497 33.0645 45.6013 32.9561 45.5245 32.7723C45.4529 32.5987 45.48 32.4194 45.5948 32.3039L46.5503 31.3484L44.3626 29.16C45.2729 29.0019 45.9677 28.2123 45.9677 27.2581V26.6129H49.8387V45.9677H27.5439L29.1935 41.5684ZM42.0968 29.1935H43.2297L42.8581 29.5652C42.7419 29.6813 42.5619 29.7077 42.3742 29.6303C42.2032 29.5594 42.0968 29.4142 42.0968 29.251V29.1935ZM41.8929 30.8271C42.5471 31.1 43.2839 30.9632 43.7703 30.4774L43.8129 30.4348L44.7264 31.3484L44.6832 31.3916C44.1981 31.8761 44.0613 32.6129 44.3394 33.28C44.6084 33.9329 45.2258 34.3548 45.9103 34.3548H45.9677V35.6452H45.9103C45.2252 35.6452 44.6077 36.0671 44.3342 36.7323C44.0613 37.3871 44.1981 38.1239 44.6832 38.609L44.7264 38.6516L43.8129 39.5652L43.7703 39.5219C43.2839 39.0368 42.5471 38.8994 41.8813 39.1781C41.2277 39.4477 40.8064 40.0645 40.8064 40.7497V40.8064H39.5161V40.7497C39.5161 40.0645 39.0948 39.4477 38.4297 39.1729C37.7755 38.9006 37.0387 39.0368 36.5523 39.5226L36.5097 39.5652L35.5961 38.6516L35.6394 38.6084C36.1245 38.1239 36.2613 37.3871 35.9832 36.72C35.7142 36.0671 35.0968 35.6452 34.4123 35.6452H34.3548V34.3548H34.4123C35.0974 34.3548 35.7148 33.9329 35.9884 33.2677C36.2613 32.6129 36.1245 31.8761 35.6394 31.391L35.5961 31.3484L36.2419 30.7026L36.8568 31.3174C37.1465 31.6077 37.5477 31.7742 37.9587 31.7742C38.8174 31.7742 39.5161 31.0755 39.5161 30.2168V29.1935H40.8064V29.2503C40.8064 29.9355 41.2277 30.5523 41.8929 30.8271ZM25.9677 16.2903H44.0323C44.3884 16.2903 44.6774 16.58 44.6774 16.9355V27.2581C44.6774 27.6135 44.3884 27.9032 44.0323 27.9032H38.2258V30.2168C38.2258 30.4348 37.9232 30.5594 37.7697 30.4058L35.2671 27.9032H29.1935V22.0968C29.1935 21.0297 28.3252 20.1613 27.2581 20.1613H25.3226V16.9355C25.3226 16.58 25.6116 16.2903 25.9677 16.2903ZM24.6774 21.4516H27.2581C27.6142 21.4516 27.9032 21.7413 27.9032 22.0968V24.0323H24.0323V22.0968C24.0323 21.7413 24.3213 21.4516 24.6774 21.4516ZM17.5806 24.0323H22.7419V25.3226H18.871V47.2581H51.129V25.3226H45.9677V24.0323H52.4194V48.5484H17.5806V24.0323ZM53.7097 50.4839C53.7097 52.2626 52.2626 53.7097 50.4839 53.7097H19.5161C17.7374 53.7097 16.2903 52.2626 16.2903 50.4839V49.8387H53.7097V50.4839Z" fill="#2639ED"/>
<path d="M45.9679 51.1289H43.3872V52.4192H45.9679V51.1289Z" fill="#2639ED"/>
<path d="M49.8387 51.1289H47.2581V52.4192H49.8387V51.1289Z" fill="#2639ED"/>
<path d="M48.5484 43.3867H47.2581V44.677H48.5484V43.3867Z" fill="#2639ED"/>
<path d="M45.9678 43.3867H44.6775V44.677H45.9678V43.3867Z" fill="#2639ED"/>
<path d="M43.387 43.3867H42.0967V44.677H43.387V43.3867Z" fill="#2639ED"/>
<path d="M36.9355 35.0012C36.9355 36.7799 38.3826 38.227 40.1614 38.227C41.9401 38.227 43.3872 36.7799 43.3872 35.0012C43.3872 33.2225 41.9401 31.7754 40.1614 31.7754C38.3826 31.7754 36.9355 33.2225 36.9355 35.0012ZM42.0968 35.0012C42.0968 36.0683 41.2284 36.9367 40.1614 36.9367C39.0943 36.9367 38.2259 36.0683 38.2259 35.0012C38.2259 33.9341 39.0943 33.0657 40.1614 33.0657C41.2284 33.0657 42.0968 33.9341 42.0968 35.0012Z" fill="#2639ED"/>
<path d="M43.387 17.5801H26.6128V18.8704H43.387V17.5801Z" fill="#2639ED"/>
<path d="M43.3871 20.1621H30.4839V21.4524H43.3871V20.1621Z" fill="#2639ED"/>
<path d="M43.3871 22.7422H30.4839V24.0325H43.3871V22.7422Z" fill="#2639ED"/>
<path d="M43.3871 25.3223H30.4839V26.6126H43.3871V25.3223Z" fill="#2639ED"/>
</svg>
