<svg width="71" height="70" viewBox="0 0 71 70" fill="none" xmlns="http://www.w3.org/2000/svg">
<rect x="0.5" width="70" height="70" rx="5.25" fill="#FFF2F8"/>
<path d="M28.1825 35.4414C28.2957 35.5545 28.4519 35.6252 28.625 35.6252H39.2502C39.5958 35.6252 39.8752 35.3458 39.8752 35.0001V26.25C39.8752 26.0769 39.8046 25.9207 39.6914 25.8075L36.567 22.6831C36.4501 22.5656 36.2914 22.5 36.1251 22.5H25.5C25.1544 22.5 24.875 22.7794 24.875 23.125V31.8751C24.875 32.0414 24.9406 32.2001 25.0581 32.317L28.1825 35.4414ZM26.125 24.6338L28 26.5088V33.4914L26.125 31.6164V24.6338ZM33.0001 26.8751H34.8751V28.7501H33.0001V26.8751ZM32.6338 25.625L30.7588 23.75H32.1163L33.9914 25.625H32.6338ZM30.8663 25.625H28.8838L27.0088 23.75H28.9913L30.8663 25.625ZM38.6252 34.3751H29.2501V26.8751H31.7501V29.3751C31.7501 29.7207 32.0295 30.0001 32.3751 30.0001H35.5001C35.8458 30.0001 36.1251 29.7207 36.1251 29.3751V26.8751H38.6252V34.3751ZM37.7414 25.625H35.7589L33.8839 23.75H35.8664L37.7414 25.625Z" fill="#FF007A"/>
<path d="M54.2111 48.8062C53.8129 48.5405 53.5504 48.1162 53.4917 47.6418L52.8354 42.3942C52.6136 40.618 51.4435 39.1636 49.8754 38.5061V38.1248C49.8754 37.6173 49.6779 37.146 49.3298 36.8079C49.3054 36.7829 49.276 36.7648 49.2504 36.741V29.9997V28.1247C49.2504 27.9303 49.1604 27.7478 49.0066 27.6297L45.5004 24.9296V18.1246C45.5004 17.7789 45.221 17.4996 44.8753 17.4996H35.8377L32.7558 15.1289C32.5314 14.957 32.2189 14.957 31.9939 15.1289L28.9127 17.4996H19.8751C19.5294 17.4996 19.25 17.7789 19.25 18.1246V24.9296L15.7438 27.6297C15.59 27.7478 15.5 27.9303 15.5 28.1247V29.9997V49.9999C15.5 50.3456 15.7794 50.6249 16.125 50.6249H40.5659C40.5259 50.8175 40.5003 51.0137 40.5003 51.2143C40.5003 52.2681 41.3572 53.125 42.4109 53.125H45.5891C45.8685 54.2006 46.8385 55 48.0004 55C49.1623 55 50.1323 54.2006 50.4117 53.125H53.5898C54.6436 53.125 55.5005 52.2681 55.5005 51.2143C55.5005 50.2449 55.0186 49.3443 54.2111 48.8062ZM48.0004 38.1248C47.7885 38.1248 47.581 38.1436 47.3754 38.1698V38.1248C47.3754 37.7798 47.6554 37.4998 48.0004 37.4998C48.1673 37.4998 48.3216 37.5642 48.446 37.6917C48.561 37.8035 48.6254 37.9579 48.6254 38.1248V38.1698C48.4198 38.1436 48.2123 38.1248 48.0004 38.1248ZM48.0004 28.4322V29.6916L45.5004 31.6147V26.5072L48.0004 28.4322ZM32.3752 16.4133L33.7877 17.4996H30.9627L32.3752 16.4133ZM44.2503 18.7496V32.5766L32.3752 41.7111L20.5001 32.5766V18.7496H44.2503ZM19.25 26.5072V31.6147L16.75 29.6916V28.4322L19.25 26.5072ZM16.75 49.3749V31.2691L31.9946 42.9955C32.2189 43.1674 32.5315 43.1674 32.7565 42.9955L48.0004 31.2691V36.2498C46.9666 36.2498 46.1254 37.091 46.1254 38.1248V38.5054C44.5566 39.1629 43.3872 40.6167 43.1653 42.3936L42.5091 47.6412C42.4497 48.1162 42.1872 48.5399 41.7897 48.8056C41.5509 48.9649 41.3441 49.1593 41.1666 49.3743L16.75 49.3749ZM48.0004 53.75C47.5398 53.75 47.141 53.4969 46.9241 53.125H49.076C48.8598 53.4969 48.461 53.75 48.0004 53.75ZM53.5898 51.875H42.4109C42.0466 51.875 41.7503 51.5787 41.7503 51.2143C41.7503 50.6631 42.0241 50.1518 42.4828 49.8462C43.1835 49.3793 43.6447 48.6324 43.7491 47.7968L44.4053 42.5492C44.631 40.7392 46.1766 39.3748 48.0004 39.3748C49.8242 39.3748 51.3698 40.7392 51.5954 42.5486L52.2517 47.7962C52.3561 48.6318 52.8173 49.3787 53.5179 49.8456C53.9767 50.1518 54.2505 50.6637 54.2505 51.2143C54.2505 51.5787 53.9542 51.875 53.5898 51.875Z" fill="#FF007A"/>
<path d="M50.5548 44.3L49.3145 44.4551L49.7715 48.1093L51.0118 47.9541L50.5548 44.3Z" fill="#FF007A"/>
<path d="M50.3557 42.7033C50.2982 42.2483 50.1126 41.8233 49.8182 41.4727L48.8613 42.277C49.0013 42.4427 49.0888 42.6439 49.1157 42.8583L49.1582 43.2021L50.3982 43.0483L50.3557 42.7033Z" fill="#FF007A"/>
</svg>
