<svg width="70" height="70" viewBox="0 0 70 70" fill="none" xmlns="http://www.w3.org/2000/svg">
<rect width="70" height="70" rx="5.25" fill="#DFEEFF"/>
<path d="M20.0181 51.9094C19.9501 51.9094 19.8849 51.8824 19.8367 51.8343C19.7884 51.786 19.7612 51.7204 19.7612 51.6519V21.5231C19.7612 21.3809 19.8762 21.2656 20.0181 21.2656H44.7598C44.828 21.2656 44.8935 21.2928 44.9417 21.3413C44.9899 21.3897 45.0168 21.4555 45.0166 21.5239L44.931 51.5668C44.9306 51.7084 44.8163 51.823 44.6751 51.8236L20.019 51.9094C20.0187 51.9094 20.0184 51.9094 20.0181 51.9094ZM20.2749 21.7806V51.3934L44.418 51.3094L44.5021 21.7806L20.2749 21.7806Z" fill="#2639ED"/>
<path d="M42.1059 30.1057H22.6721C22.5303 30.1057 22.4153 29.9905 22.4153 29.8482V23.9255C22.4153 23.7832 22.5303 23.668 22.6721 23.668H42.1059C42.2478 23.668 42.3628 23.7832 42.3628 23.9255V29.8482C42.3628 29.9905 42.2478 30.1057 42.1059 30.1057ZM22.929 29.5907H41.8491V24.183H22.929V29.5907Z" fill="#2639ED"/>
<path d="M26.1822 39.3764H22.929C22.7871 39.3764 22.6721 39.2612 22.6721 39.1189V35.8571C22.6721 35.7149 22.7871 35.5996 22.929 35.5996H26.1822C26.3241 35.5996 26.439 35.7149 26.439 35.8571V39.1189C26.439 39.2612 26.3241 39.3764 26.1822 39.3764ZM23.1858 38.8614H25.9254V36.1146H23.1858V38.8614Z" fill="#2639ED"/>
<path d="M31.4045 39.3764H28.1512C28.0094 39.3764 27.8944 39.2612 27.8944 39.1189V35.8571C27.8944 35.7149 28.0094 35.5996 28.1512 35.5996H31.4045C31.5463 35.5996 31.6613 35.7149 31.6613 35.8571V39.1189C31.6613 39.2612 31.5463 39.3764 31.4045 39.3764ZM28.4081 38.8614H31.1476V36.1146H28.4081V38.8614Z" fill="#2639ED"/>
<path d="M36.6266 39.3764H33.2877C33.1459 39.3764 33.0309 39.2612 33.0309 39.1189V35.8571C33.0309 35.7149 33.1459 35.5996 33.2877 35.5996H36.6266C36.7684 35.5996 36.8834 35.7149 36.8834 35.8571V39.1189C36.8834 39.2612 36.7684 39.3764 36.6266 39.3764ZM33.5446 38.8614H36.3697V36.1146H33.5446V38.8614Z" fill="#2639ED"/>
<path d="M41.8491 39.3764H38.5103C38.3684 39.3764 38.2534 39.2612 38.2534 39.1189V35.8571C38.2534 35.7149 38.3684 35.5996 38.5103 35.5996H41.8491C41.991 35.5996 42.1059 35.7149 42.1059 35.8571V39.1189C42.1059 39.2612 41.991 39.3764 41.8491 39.3764ZM38.7671 38.8614H41.5923V36.1146H38.7671V38.8614Z" fill="#2639ED"/>
<path d="M26.1821 44.0991H22.9288C22.787 44.0991 22.672 43.9838 22.672 43.8416V40.5798C22.672 40.4375 22.787 40.3223 22.9288 40.3223H26.1821C26.3239 40.3223 26.4389 40.4375 26.4389 40.5798V43.8416C26.4389 43.9838 26.3239 44.0991 26.1821 44.0991ZM23.1857 43.5841H25.9252V40.8373H23.1857V43.5841Z" fill="#2639ED"/>
<path d="M31.4045 44.0991H28.1512C28.0094 44.0991 27.8944 43.9838 27.8944 43.8416V40.5798C27.8944 40.4375 28.0094 40.3223 28.1512 40.3223H31.4045C31.5463 40.3223 31.6613 40.4375 31.6613 40.5798V43.8416C31.6613 43.9838 31.5463 44.0991 31.4045 44.0991ZM28.4081 43.5841H31.1476V40.8373H28.4081V43.5841Z" fill="#2639ED"/>
<path d="M36.6267 44.0991H33.2878C33.146 44.0991 33.031 43.9838 33.031 43.8416V40.5798C33.031 40.4375 33.146 40.3223 33.2878 40.3223H36.6267C36.7685 40.3223 36.8835 40.4375 36.8835 40.5798V43.8416C36.8835 43.9838 36.7685 44.0991 36.6267 44.0991ZM33.5447 43.5841H36.3699V40.8373H33.5447V43.5841Z" fill="#2639ED"/>
<path d="M41.849 44.0991H38.5101C38.3683 44.0991 38.2533 43.9838 38.2533 43.8416V40.5798C38.2533 40.4375 38.3683 40.3223 38.5101 40.3223H41.849C41.9908 40.3223 42.1058 40.4375 42.1058 40.5798V43.8416C42.1058 43.9838 41.9908 44.0991 41.849 44.0991ZM38.767 43.5841H41.5921V40.8373H38.767V43.5841Z" fill="#2639ED"/>
<path d="M26.1821 48.8197H22.9288C22.787 48.8197 22.672 48.7044 22.672 48.5622V45.2145C22.672 45.0723 22.787 44.957 22.9288 44.957H26.1821C26.3239 44.957 26.4389 45.0723 26.4389 45.2145V48.5622C26.4389 48.7044 26.3239 48.8197 26.1821 48.8197ZM23.1857 48.3047H25.9252V45.4721H23.1857V48.3047Z" fill="#2639ED"/>
<path d="M31.4045 48.8197H28.1512C28.0094 48.8197 27.8944 48.7044 27.8944 48.5622V45.2145C27.8944 45.0723 28.0094 44.957 28.1512 44.957H31.4045C31.5463 44.957 31.6613 45.0723 31.6613 45.2145V48.5622C31.6613 48.7044 31.5463 48.8197 31.4045 48.8197ZM28.4081 48.3047H31.1476V45.4721H28.4081V48.3047Z" fill="#2639ED"/>
<path d="M36.6267 48.8197H33.2878C33.146 48.8197 33.031 48.7044 33.031 48.5622V45.2145C33.031 45.0723 33.146 44.957 33.2878 44.957H36.6267C36.7685 44.957 36.8835 45.0723 36.8835 45.2145V48.5622C36.8835 48.7044 36.7685 48.8197 36.6267 48.8197ZM33.5447 48.3047H36.3699V45.4721H33.5447V48.3047Z" fill="#2639ED"/>
<path d="M41.849 48.8197H38.5101C38.3683 48.8197 38.2533 48.7044 38.2533 48.5622V45.2145C38.2533 45.0723 38.3683 44.957 38.5101 44.957H41.849C41.9908 44.957 42.1058 45.0723 42.1058 45.2145V48.5622C42.1058 48.7044 41.9908 48.8197 41.849 48.8197ZM38.767 48.3047H41.5921V45.4721H38.767V48.3047Z" fill="#2639ED"/>
<path d="M43.3045 22.9838H43.1333C42.9915 22.9838 42.8765 22.8685 42.8765 22.7263C42.8765 22.584 42.9915 22.4688 43.1333 22.4688H43.3045C43.4463 22.4688 43.5613 22.584 43.5613 22.7263C43.5613 22.8685 43.4463 22.9838 43.3045 22.9838ZM41.5923 22.9838H41.1643C41.0224 22.9838 40.9074 22.8685 40.9074 22.7263C40.9074 22.584 41.0224 22.4688 41.1643 22.4688H41.5923C41.7342 22.4688 41.8492 22.584 41.8492 22.7263C41.8492 22.8685 41.7342 22.9838 41.5923 22.9838ZM39.6232 22.9838H39.1952C39.0533 22.9838 38.9384 22.8685 38.9384 22.7263C38.9384 22.584 39.0533 22.4688 39.1952 22.4688H39.6232C39.7651 22.4688 39.8801 22.584 39.8801 22.7263C39.8801 22.8685 39.7651 22.9838 39.6232 22.9838ZM37.6542 22.9838H37.2261C37.0843 22.9838 36.9693 22.8685 36.9693 22.7263C36.9693 22.584 37.0843 22.4688 37.2261 22.4688H37.6542C37.796 22.4688 37.911 22.584 37.911 22.7263C37.911 22.8685 37.796 22.9838 37.6542 22.9838ZM35.6851 22.9838H35.2571C35.1152 22.9838 35.0002 22.8685 35.0002 22.7263C35.0002 22.584 35.1152 22.4688 35.2571 22.4688H35.6851C35.827 22.4688 35.942 22.584 35.942 22.7263C35.942 22.8685 35.827 22.9838 35.6851 22.9838ZM33.716 22.9838H33.2879C33.146 22.9838 33.0311 22.8685 33.0311 22.7263C33.0311 22.584 33.146 22.4688 33.2879 22.4688H33.716C33.8578 22.4688 33.9728 22.584 33.9728 22.7263C33.9728 22.8685 33.8578 22.9838 33.716 22.9838ZM31.7469 22.9838H31.3188C31.177 22.9838 31.062 22.8685 31.062 22.7263C31.062 22.584 31.177 22.4688 31.3188 22.4688H31.7469C31.8888 22.4688 32.0037 22.584 32.0037 22.7263C32.0037 22.8685 31.8888 22.9838 31.7469 22.9838ZM29.7778 22.9838H29.3498C29.2079 22.9838 29.0929 22.8685 29.0929 22.7263C29.0929 22.584 29.2079 22.4688 29.3498 22.4688H29.7778C29.9197 22.4688 30.0347 22.584 30.0347 22.7263C30.0347 22.8685 29.9197 22.9838 29.7778 22.9838ZM27.8088 22.9838H27.3807C27.2389 22.9838 27.1239 22.8685 27.1239 22.7263C27.1239 22.584 27.2389 22.4688 27.3807 22.4688H27.8088C27.9506 22.4688 28.0656 22.584 28.0656 22.7263C28.0656 22.8685 27.9506 22.9838 27.8088 22.9838ZM25.8397 22.9838H25.4116C25.2698 22.9838 25.1548 22.8685 25.1548 22.7263C25.1548 22.584 25.2698 22.4688 25.4116 22.4688H25.8397C25.9816 22.4688 26.0965 22.584 26.0965 22.7263C26.0965 22.8685 25.9816 22.9838 25.8397 22.9838ZM23.8706 22.9838H23.4426C23.3007 22.9838 23.1857 22.8685 23.1857 22.7263C23.1857 22.584 23.3007 22.4688 23.4426 22.4688H23.8706C24.0125 22.4688 24.1275 22.584 24.1275 22.7263C24.1275 22.8685 24.0125 22.9838 23.8706 22.9838ZM21.9016 22.9838H21.4735C21.3317 22.9838 21.2167 22.8685 21.2167 22.7263C21.2167 22.584 21.3317 22.4688 21.4735 22.4688H21.9016C22.0434 22.4688 22.1584 22.584 22.1584 22.7263C22.1584 22.8685 22.0434 22.9838 21.9016 22.9838Z" fill="#2639ED"/>
<path d="M26.1821 34.313H22.9288C22.787 34.313 22.672 34.1977 22.672 34.0555V31.652C22.672 31.5098 22.787 31.3945 22.9288 31.3945H26.1821C26.3239 31.3945 26.4389 31.5098 26.4389 31.652V34.0555C26.4389 34.1977 26.3239 34.313 26.1821 34.313ZM23.1857 33.798H25.9252V31.9096H23.1857V33.798Z" fill="#2639ED"/>
<path d="M31.4045 34.313H28.1512C28.0094 34.313 27.8944 34.1977 27.8944 34.0555V31.652C27.8944 31.5098 28.0094 31.3945 28.1512 31.3945H31.4045C31.5463 31.3945 31.6613 31.5098 31.6613 31.652V34.0555C31.6613 34.1977 31.5463 34.313 31.4045 34.313ZM28.4081 33.798H31.1476V31.9096H28.4081V33.798Z" fill="#2639ED"/>
<path d="M36.6267 34.313H33.2878C33.146 34.313 33.031 34.1977 33.031 34.0555V31.652C33.031 31.5098 33.146 31.3945 33.2878 31.3945H36.6267C36.7685 31.3945 36.8835 31.5098 36.8835 31.652V34.0555C36.8835 34.1977 36.7685 34.313 36.6267 34.313ZM33.5447 33.798H36.3699V31.9096H33.5447V33.798Z" fill="#2639ED"/>
<path d="M41.849 34.313H38.5101C38.3683 34.313 38.2533 34.1977 38.2533 34.0555V31.652C38.2533 31.5098 38.3683 31.3945 38.5101 31.3945H41.849C41.9908 31.3945 42.1058 31.5098 42.1058 31.652V34.0555C42.1058 34.1977 41.9908 34.313 41.849 34.313ZM38.767 33.798H41.5921V31.9096H38.767V33.798Z" fill="#2639ED"/>
<path d="M50.0188 42.4451C47.9462 42.4451 46.26 40.7546 46.26 38.6766V18.7687C46.26 16.9747 44.8043 15.5151 43.015 15.5151C41.2258 15.5151 39.7701 16.9747 39.7701 18.7687V21.5554C39.7701 21.6977 39.6552 21.813 39.5133 21.813H21.7343C21.5924 21.813 21.4774 21.6977 21.4774 21.5554V17.691C21.4774 16.2072 22.6814 15 24.1612 15H43.0149C45.0875 15 46.7736 16.6906 46.7736 18.7686V35.8832H53.5205C53.6623 35.8832 53.7773 35.9984 53.7773 36.1407V38.6766C53.7773 40.7546 52.0913 42.4451 50.0188 42.4451ZM46.7736 36.3983V38.6766C46.7736 40.4706 48.2293 41.93 50.0187 41.93C51.8079 41.93 53.2635 40.4706 53.2635 38.6766V36.3983H46.7736ZM21.9911 21.2979H39.2563V18.7687C39.2563 17.3832 40.0058 16.1699 41.1197 15.5151H24.1612C22.9646 15.5151 21.9911 16.4912 21.9911 17.6911V21.2979Z" fill="#2639ED"/>
<path d="M49.7252 42.4669H44.6741C44.5322 42.4669 44.4172 42.3516 44.4172 42.2094V36.1149C44.4172 35.9727 44.5322 35.8574 44.6741 35.8574C44.8159 35.8574 44.9309 35.9727 44.9309 36.1149V41.9518H49.7252C49.867 41.9518 49.982 42.0671 49.982 42.2094C49.982 42.3516 49.867 42.4669 49.7252 42.4669Z" fill="#2639ED"/>
<path d="M42.9618 53.3705H16.5934C16.4515 53.3705 16.3365 53.2552 16.3365 53.113C16.3365 52.9707 16.4515 52.8555 16.5934 52.8555H42.9618C43.1036 52.8555 43.2186 52.9707 43.2186 53.113C43.2186 53.2552 43.1036 53.3705 42.9618 53.3705Z" fill="#2639ED"/>
<path d="M50.2389 55.0013H32.0037C31.8618 55.0013 31.7468 54.8861 31.7468 54.7438C31.7468 54.6016 31.8618 54.4863 32.0037 54.4863H50.2389C50.3808 54.4863 50.4958 54.6016 50.4958 54.7438C50.4958 54.8861 50.3808 55.0013 50.2389 55.0013Z" fill="#2639ED"/>
<path d="M54.4338 55.0013H52.1223C51.9805 55.0013 51.8655 54.8861 51.8655 54.7438C51.8655 54.6016 51.9805 54.4863 52.1223 54.4863H54.4338C54.5757 54.4863 54.6907 54.6016 54.6907 54.7438C54.6907 54.8861 54.5757 55.0013 54.4338 55.0013Z" fill="#2639ED"/>
<path d="M24.2129 54.9154H15.5662C15.4243 54.9154 15.3093 54.8001 15.3093 54.6579C15.3093 54.5157 15.4243 54.4004 15.5662 54.4004H24.2129C24.3548 54.4004 24.4698 54.5157 24.4698 54.6579C24.4698 54.8001 24.3548 54.9154 24.2129 54.9154Z" fill="#2639ED"/>
<path d="M17.0217 45.7292C16.8799 45.7292 16.7649 45.614 16.7649 45.4717V33.2829C16.7649 33.1407 16.8799 33.0254 17.0217 33.0254C17.1636 33.0254 17.2786 33.1407 17.2786 33.2829V45.4717C17.2786 45.614 17.1636 45.7292 17.0217 45.7292Z" fill="#2639ED"/>
<path d="M17.0215 50.3646C16.9231 50.3646 16.8333 50.3082 16.7905 50.2194L15.4207 47.3868C15.4037 47.3518 15.3949 47.3134 15.3949 47.2745V31.738C15.3949 31.5957 15.5099 31.4805 15.6517 31.4805H18.3913C18.5332 31.4805 18.6481 31.5957 18.6481 31.738V47.2745C18.6481 47.3133 18.6393 47.3517 18.6224 47.3868L17.2526 50.2194C17.2097 50.3082 17.12 50.3646 17.0215 50.3646ZM15.9086 47.2153L17.0215 49.5169L18.1345 47.2153V31.9955H15.9086V47.2153Z" fill="#2639ED"/>
<path d="M18.3913 31.9961H15.6517C15.5099 31.9961 15.3949 31.8809 15.3949 31.7386V30.6227C15.3949 30.4805 15.5099 30.3652 15.6517 30.3652H18.3913C18.5332 30.3652 18.6481 30.4805 18.6481 30.6227V31.7386C18.6481 31.8809 18.5332 31.9961 18.3913 31.9961ZM15.9086 31.4811H18.1345V30.8803H15.9086V31.4811Z" fill="#2639ED"/>
<path d="M18.3913 30.8808H15.6517C15.5099 30.8808 15.3949 30.7656 15.3949 30.6233V28.1341C15.3949 27.7859 15.6109 27.5332 15.9086 27.5332H17.8776C18.2737 27.5332 18.6481 27.9087 18.6481 28.3057V30.6233C18.6481 30.7656 18.5332 30.8808 18.3913 30.8808ZM15.9086 30.3658H18.1345V28.3057C18.1345 28.1902 17.9929 28.0482 17.8776 28.0482H15.9253C15.9178 28.0636 15.9086 28.0936 15.9086 28.1341V30.3658Z" fill="#2639ED"/>
<path d="M17.0215 50.3653C16.9231 50.3653 16.8333 50.3089 16.7905 50.2201L15.4207 47.3875C15.4037 47.3525 15.3949 47.3141 15.3949 47.2751V45.6442C15.3949 45.502 15.5099 45.3867 15.6517 45.3867H18.3913C18.5332 45.3867 18.6481 45.502 18.6481 45.6442V47.2751C18.6481 47.314 18.6393 47.3524 18.6224 47.3875L17.2526 50.2201C17.2097 50.3089 17.12 50.3653 17.0215 50.3653ZM15.9086 47.216L17.0215 49.5175L18.1345 47.216V45.9017H15.9086V47.216Z" fill="#2639ED"/>
<path d="M31.233 17.6615H24.6409C24.499 17.6615 24.384 17.5462 24.384 17.404C24.384 17.2618 24.499 17.1465 24.6409 17.1465H31.233C31.3748 17.1465 31.4898 17.2618 31.4898 17.404C31.4898 17.5462 31.3748 17.6615 31.233 17.6615Z" fill="#2639ED"/>
<path d="M34.743 19.5502H24.6409C24.499 19.5502 24.384 19.4349 24.384 19.2927C24.384 19.1504 24.499 19.0352 24.6409 19.0352H34.743C34.8849 19.0352 34.9999 19.1504 34.9999 19.2927C34.9999 19.4349 34.8849 19.5502 34.743 19.5502Z" fill="#2639ED"/>
</svg>
