<svg width="70" height="70" viewBox="0 0 70 70" fill="none" xmlns="http://www.w3.org/2000/svg">
<rect width="70" height="70" rx="5.25" fill="#DFEEFF"/>
<path d="M22.7674 52.5594H47.2313C48.4857 52.5594 49.5063 51.5559 49.5063 50.3225C49.4993 21.797 49.5149 24.4403 49.4991 24.208C49.4882 24.0421 49.4357 23.9906 49.3275 23.8407L42.4604 17.5838C42.3597 17.4914 42.195 17.4375 42.0811 17.4375H22.7674C21.513 17.4375 20.4927 18.4407 20.4927 19.6742V50.3225C20.4927 51.5559 21.513 52.5594 22.7674 52.5594ZM42.6392 19.243L47.5248 23.6943H43.2257C42.9022 23.6943 42.6392 23.4355 42.6392 23.1177V19.243ZM21.6089 19.6742C21.6089 19.0458 22.1286 18.5351 22.7674 18.5351H41.523V23.1177C41.523 24.0408 42.2868 24.7919 43.2257 24.7919H48.3901V50.3225C48.3901 50.9506 47.8703 51.4619 47.2313 51.4619H22.7674C22.1286 51.4619 21.6089 50.9506 21.6089 50.3225V19.6742Z" fill="#2639ED"/>
<path d="M24.835 49.0565H45.1641C45.4723 49.0565 45.7222 48.8106 45.7222 48.5078C45.7222 48.2044 45.4723 47.959 45.1641 47.959H24.835C24.5268 47.959 24.2769 48.2044 24.2769 48.5078C24.2769 48.8106 24.5268 49.0565 24.835 49.0565Z" fill="#2639ED"/>
<path d="M33.6035 44.7207C33.6035 45.0237 33.8534 45.2694 34.1616 45.2694H45.1638C45.472 45.2694 45.7219 45.0237 45.7219 44.7207C45.7219 44.4176 45.472 44.1719 45.1638 44.1719H34.1616C33.8534 44.1719 33.6035 44.4176 33.6035 44.7207Z" fill="#2639ED"/>
<path d="M29.5401 38.6218L30.8814 40.8215C31.3868 41.6346 32.4745 41.8929 33.3017 41.3957C34.138 40.8931 34.3891 39.8259 33.8882 39.02L32.6155 36.9329L32.9559 36.7281C32.9603 36.7255 32.9623 36.7212 32.9665 36.7185C35.7152 35.9127 38.4902 35.517 41.4364 35.5143C42.0776 36.1701 43.0655 36.2897 43.8362 35.8267C44.7554 35.2737 45.0325 34.0989 44.4783 33.2082L42.6667 30.2953C43.6542 29.3585 43.8798 27.8614 43.1402 26.6722C42.4006 25.4827 40.9421 24.9982 39.6445 25.4353L37.8327 22.522C37.56 22.0831 37.1321 21.7784 36.6399 21.6672C36.1455 21.5445 35.61 21.626 35.1699 21.8907C34.38 22.3658 34.0607 23.3117 34.3526 24.1392C33.0085 26.7129 31.3887 28.9608 29.409 30.997C29.4046 30.9997 29.3997 30.9994 29.3953 31.0019L26.8731 32.5185C25.2641 33.4851 24.7527 35.5459 25.7383 37.1312C26.5282 38.4021 28.0717 39.014 29.5401 38.6218ZM42.188 27.2445C42.6036 27.9131 42.5319 28.7389 42.0632 29.3244L40.2481 26.4058C40.9927 26.2625 41.7721 26.5762 42.188 27.2445ZM32.7196 40.4592C32.4116 40.6441 32.0116 40.5355 31.8366 40.2534L30.5639 38.1666L31.6633 37.5058L32.9333 39.5883C33.1185 39.8863 33.0254 40.2755 32.7196 40.4592ZM35.7526 22.827C35.9468 22.7101 36.168 22.6818 36.378 22.7342C36.587 22.7814 36.7653 22.9095 36.8805 23.0944L43.5261 33.7811C43.762 34.1601 43.6405 34.6584 43.2538 34.8902C42.869 35.122 42.3628 35.0025 42.1264 34.6233L35.4794 23.9342C35.2451 23.555 35.3669 23.0587 35.7526 22.827ZM35.0072 25.2791C36.9963 28.4778 38.7054 31.2263 40.6945 34.425C38.0031 34.4859 35.4408 34.8696 32.9028 35.5904L30.401 31.5673C32.2103 29.6747 33.7252 27.6068 35.0072 25.2791ZM27.4552 33.4548L29.5014 32.2248L31.8974 36.0781L29.8516 37.308C28.7688 37.9591 27.356 37.629 26.6905 36.5588C26.3722 36.047 26.3724 34.1058 27.4552 33.4548Z" fill="#2639ED"/>
<path d="M25.4563 45.5738C25.3811 45.6198 25.3021 45.6595 25.2198 45.6922C24.9336 45.8053 24.7954 46.1252 24.9104 46.4063C25.0267 46.6899 25.3537 46.8226 25.6367 46.7102C26.0848 46.5325 26.4715 46.2394 26.7658 45.8749C27.3542 45.8594 27.9107 45.6525 28.3255 45.2892C28.368 45.2522 28.4094 45.2131 28.4511 45.174C28.5154 45.1131 28.613 45.0212 28.6503 45.0035C28.4252 45.1801 28.374 45.4963 28.5318 45.7332C28.6901 45.9703 29.0057 46.0496 29.26 45.9173C29.974 45.5451 30.867 45.5341 31.5906 45.8883C31.8669 46.0234 32.2013 45.9125 32.3387 45.6413C32.476 45.3701 32.3638 45.0405 32.0877 44.9055C31.3516 44.5453 30.494 44.4478 29.6903 44.6118C29.4895 44.0878 28.8779 43.7957 28.3304 43.9585C28.0339 44.0467 27.8368 44.2323 27.6785 44.3819L27.5828 44.4698C27.5095 44.5341 27.4264 44.5893 27.3362 44.6343C27.4514 43.9849 27.3252 43.2831 26.8762 42.7942C26.4401 42.3197 25.7444 42.1455 25.1838 42.3716C24.6698 42.5785 24.315 43.0882 24.2798 43.6696C24.252 44.13 24.4202 44.6053 24.7537 45.0084C24.9445 45.2388 25.1843 45.4301 25.4563 45.5738ZM25.6068 43.3872C25.6356 43.3754 25.6683 43.3701 25.7032 43.3701C25.8188 43.3701 25.9567 43.4306 26.0477 43.5298C26.1902 43.6849 26.2674 43.9371 26.2597 44.2211C26.2551 44.3808 26.2246 44.5386 26.1714 44.6895C25.9493 44.6107 25.7575 44.4824 25.6196 44.3157C25.465 44.1292 25.383 43.9175 25.3939 43.735C25.4032 43.5817 25.4947 43.4322 25.6068 43.3872Z" fill="#2639ED"/>
</svg>
