<svg width="70" height="70" viewBox="0 0 70 70" fill="none" xmlns="http://www.w3.org/2000/svg">
<rect width="70" height="70" rx="5.25" fill="#DFEEFF"/>
<path fill-rule="evenodd" clip-rule="evenodd" d="M37.1631 39.9512H43.9508C44.4282 39.9512 44.8151 39.5658 44.8151 39.0908C44.8151 38.6159 44.4282 38.2305 43.9508 38.2305H37.1631C36.6857 38.2305 36.2988 38.6159 36.2988 39.0908C36.2988 39.5658 36.6857 39.9512 37.1631 39.9512Z" fill="#2639ED"/>
<path fill-rule="evenodd" clip-rule="evenodd" d="M37.1624 43.3926H41.0921C41.5689 43.3926 41.9567 43.0072 41.9567 42.5322C41.9567 42.0573 41.5689 41.6719 41.0921 41.6719H37.1624C36.6856 41.6719 36.2979 42.0573 36.2979 42.5322C36.2979 43.0072 36.6856 43.3926 37.1624 43.3926Z" fill="#2639ED"/>
<path fill-rule="evenodd" clip-rule="evenodd" d="M37.1631 46.834H43.9508C44.4282 46.834 44.8151 46.4486 44.8151 45.9736C44.8151 45.4987 44.4282 45.1133 43.9508 45.1133H37.1631C36.6857 45.1133 36.2988 45.4987 36.2988 45.9736C36.2988 46.4486 36.6857 46.834 37.1631 46.834Z" fill="#2639ED"/>
<path fill-rule="evenodd" clip-rule="evenodd" d="M37.1624 50.2754H45.379C45.8556 50.2754 46.2445 49.89 46.2445 49.4151C46.2445 48.9401 45.8556 48.5547 45.379 48.5547H37.1624C36.6858 48.5547 36.2969 48.9401 36.2969 49.4151C36.2969 49.89 36.6858 50.2754 37.1624 50.2754Z" fill="#2639ED"/>
<path fill-rule="evenodd" clip-rule="evenodd" d="M47.8027 39.9512H51.5647C52.0424 39.9512 52.4299 39.5658 52.4299 39.0908C52.4299 38.6159 52.0424 38.2305 51.5647 38.2305H47.8027C47.325 38.2305 46.9375 38.6159 46.9375 39.0908C46.9375 39.5658 47.325 39.9512 47.8027 39.9512Z" fill="#2639ED"/>
<path fill-rule="evenodd" clip-rule="evenodd" d="M43.6495 43.3926H51.5639C52.0414 43.3926 52.4292 43.0072 52.4292 42.5322C52.4292 42.0573 52.0414 41.6719 51.5639 41.6719H43.6495C43.172 41.6719 42.7842 42.0573 42.7842 42.5322C42.7842 43.0072 43.172 43.3926 43.6495 43.3926Z" fill="#2639ED"/>
<path fill-rule="evenodd" clip-rule="evenodd" d="M47.1084 46.834H51.5631C52.0398 46.834 52.4274 46.4486 52.4274 45.9736C52.4274 45.4987 52.0398 45.1133 51.5631 45.1133H47.1084C46.6317 45.1133 46.2441 45.4987 46.2441 45.9736C46.2441 46.4486 46.6317 46.834 47.1084 46.834Z" fill="#2639ED"/>
<path fill-rule="evenodd" clip-rule="evenodd" d="M48.8393 50.2754H51.5643C52.0421 50.2754 52.429 49.89 52.429 49.4151C52.429 48.9401 52.0421 48.5547 51.5643 48.5547H48.8393C48.3616 48.5547 47.9746 48.9401 47.9746 49.4151C47.9746 49.89 48.3616 50.2754 48.8393 50.2754Z" fill="#2639ED"/>
<path fill-rule="evenodd" clip-rule="evenodd" d="M19.4318 37.6504H24.3618C24.8384 37.6504 25.2262 37.265 25.2262 36.7901C25.2262 36.3151 24.8384 35.9297 24.3618 35.9297H19.4318C18.9552 35.9297 18.5674 36.3151 18.5674 36.7901C18.5674 37.265 18.9552 37.6504 19.4318 37.6504Z" fill="#2639ED"/>
<path fill-rule="evenodd" clip-rule="evenodd" d="M19.4318 42.334H24.3618C24.8384 42.334 25.2262 41.9486 25.2262 41.4736C25.2262 40.9987 24.8384 40.6133 24.3618 40.6133H19.4318C18.9552 40.6133 18.5674 40.9987 18.5674 41.4736C18.5674 41.9486 18.9552 42.334 19.4318 42.334Z" fill="#2639ED"/>
<path fill-rule="evenodd" clip-rule="evenodd" d="M19.4318 47.0176H24.3618C24.8384 47.0176 25.2262 46.6322 25.2262 46.1572C25.2262 45.6823 24.8384 45.2969 24.3618 45.2969H19.4318C18.9552 45.2969 18.5674 45.6823 18.5674 46.1572C18.5674 46.6322 18.9552 47.0176 19.4318 47.0176Z" fill="#2639ED"/>
<path fill-rule="evenodd" clip-rule="evenodd" d="M19.4318 51.7012H24.3618C24.8384 51.7012 25.2262 51.3158 25.2262 50.8408C25.2262 50.3659 24.8384 49.9805 24.3618 49.9805H19.4318C18.9552 49.9805 18.5674 50.3659 18.5674 50.8408C18.5674 51.3158 18.9552 51.7012 19.4318 51.7012Z" fill="#2639ED"/>
<path fill-rule="evenodd" clip-rule="evenodd" d="M34.208 40.1447L32.9089 39.0908L34.208 38.0368C34.5782 37.7365 34.6335 37.1945 34.3317 36.8263C34.0298 36.458 33.4849 36.403 33.1147 36.7033L30.9931 38.424C30.7916 38.5874 30.6748 38.8318 30.6748 39.0908C30.6748 39.3497 30.7916 39.5941 30.9931 39.7575L33.1147 41.4783C33.4849 41.7785 34.0298 41.7235 34.3317 41.3552C34.6335 40.987 34.5782 40.445 34.208 40.1447Z" fill="#2639ED"/>
<path fill-rule="evenodd" clip-rule="evenodd" d="M33.2703 26.9814H16.8369C16.1485 26.9814 15.4894 27.2533 15.0016 27.7368C14.5155 28.2221 14.2422 28.8777 14.2422 29.5625V52.4189C14.2422 53.8437 15.4046 55 16.8369 55H53.1634C54.5957 55 55.7581 53.8437 55.7581 52.4189C55.7581 47.4305 55.7581 33.3171 55.7581 33.3171C55.7581 33.2862 55.7564 33.2569 55.7529 33.2259C55.7564 33.1743 55.7581 33.121 55.7581 33.0676V17.5811C55.7581 16.1563 54.5957 15 53.1634 15C49.254 15 39.7745 15 35.8651 15C34.4328 15 33.2703 16.1563 33.2703 17.5811V26.9814ZM27.2159 53.2793V34.0071H15.972V52.4189C15.972 52.8938 16.3595 53.2793 16.8369 53.2793H27.2159ZM33.4468 34.0071H28.9457V53.2793H53.1634C53.6408 53.2793 54.0283 52.8938 54.0283 52.4189V35.5025C53.7584 35.5971 53.4661 35.6487 53.1634 35.6487C49.254 35.6487 39.7745 35.6487 35.8651 35.6487C34.7649 35.6487 33.8239 34.969 33.4468 34.0071ZM44.8014 33.928L40.053 26.5805C39.8938 26.3344 39.6188 26.1847 39.3247 26.1847C39.0307 26.1847 38.7556 26.3344 38.5965 26.5805C37.6485 28.05 36.1557 30.237 35.0002 32.0249V33.0693C35.0002 33.5443 35.3876 33.928 35.8651 33.928H44.8014ZM54.0283 31.3331L50.0895 25.2366C49.9303 24.9905 49.6553 24.8426 49.3612 24.8426C49.0671 24.8426 48.7938 24.9905 48.6347 25.2366C47.6971 26.6872 46.0503 29.1117 44.8965 30.8943L46.8582 33.928H53.1634C53.6408 33.928 54.0283 33.5443 54.0283 33.0676V31.3331ZM33.2703 28.7021H16.8369C16.6069 28.7021 16.3872 28.7933 16.2246 28.9534C16.0637 29.1151 15.972 29.3336 15.972 29.5625V32.2864H33.2703V28.7021ZM54.0283 28.1498V17.5811C54.0283 17.1062 53.6408 16.7207 53.1634 16.7207H35.8651C35.3876 16.7207 35.0002 17.1062 35.0002 17.5811V28.8845C35.7838 27.7076 36.5639 26.5461 37.1417 25.6496C37.6191 24.9114 38.4425 24.464 39.3247 24.464C40.2069 24.464 41.0303 24.9114 41.5078 25.6496L43.8707 29.3061C44.9744 27.6215 46.353 25.5859 47.1799 24.3074C47.6573 23.5675 48.479 23.1218 49.3612 23.1218C50.2452 23.1218 51.0668 23.5675 51.5443 24.3074L54.0283 28.1498Z" fill="#2639ED"/>
<path fill-rule="evenodd" clip-rule="evenodd" d="M43.1132 18.043C41.3505 18.043 39.9199 19.466 39.9199 21.2194C39.9199 22.9711 41.3505 24.3942 43.1132 24.3942C44.8742 24.3942 46.3047 22.9711 46.3047 21.2194C46.3047 19.466 44.8742 18.043 43.1132 18.043ZM43.1132 19.7637C43.921 19.7637 44.5749 20.4159 44.5749 21.2194C44.5749 22.0213 43.921 22.6734 43.1132 22.6734C42.3054 22.6734 41.6498 22.0213 41.6498 21.2194C41.6498 20.4159 42.3054 19.7637 43.1132 19.7637Z" fill="#2639ED"/>
</svg>
