<svg width="70" height="70" viewBox="0 0 70 70" fill="none" xmlns="http://www.w3.org/2000/svg">
<rect width="70" height="70" rx="5.25" fill="#DFEEFF"/>
<path d="M21.069 55H48.9306C50.3592 55 51.5216 53.8571 51.5216 52.4524C51.5136 19.965 51.5313 22.9754 51.5134 22.7109C51.501 22.5219 51.4412 22.4632 51.318 22.2925L43.4971 15.1666C43.3824 15.0613 43.1949 15 43.0651 15H21.069C19.6403 15 18.4783 16.1426 18.4783 17.5473V52.4524C18.4783 53.8571 19.6403 55 21.069 55ZM43.7007 17.0563L49.2648 22.1259H44.3686C44.0002 22.1259 43.7007 21.8311 43.7007 21.4691V17.0563ZM19.7496 17.5473C19.7496 16.8317 20.3415 16.25 21.069 16.25H42.4294V21.4691C42.4294 22.5204 43.2994 23.3759 44.3686 23.3759H50.2503V52.4524C50.2503 53.1677 49.6584 53.75 48.9306 53.75H21.069C20.3415 53.75 19.7496 53.1677 19.7496 52.4524V17.5473Z" fill="#2639ED"/>
<path d="M23.4234 51.0098H46.576C46.927 51.0098 47.2116 50.7296 47.2116 50.3848C47.2116 50.0393 46.927 49.7598 46.576 49.7598H23.4234C23.0724 49.7598 22.7878 50.0393 22.7878 50.3848C22.7878 50.7296 23.0724 51.0098 23.4234 51.0098Z" fill="#2639ED"/>
<path d="M33.4097 46.0723C33.4097 46.4174 33.6943 46.6973 34.0454 46.6973H46.5756C46.9266 46.6973 47.2112 46.4174 47.2112 46.0723C47.2112 45.7271 46.9266 45.4473 46.5756 45.4473H34.0454C33.6943 45.4473 33.4097 45.7271 33.4097 46.0723Z" fill="#2639ED"/>
<path d="M28.7821 39.127L30.3098 41.6321C30.8854 42.5582 32.1241 42.8523 33.0662 42.2861C34.0186 41.7137 34.3046 40.4983 33.7341 39.5805L32.2847 37.2034L32.6723 36.9703C32.6773 36.9672 32.6796 36.9624 32.6845 36.9593C35.8149 36.0416 38.9753 35.5909 42.3306 35.5878C43.061 36.3347 44.186 36.4709 45.0638 35.9437C46.1106 35.3138 46.4262 33.9759 45.7951 32.9615L43.7318 29.6439C44.8565 28.577 45.1135 26.872 44.2711 25.5176C43.4288 24.163 41.7678 23.6112 40.2899 24.109L38.2265 20.7911C37.9159 20.2912 37.4286 19.9442 36.868 19.8176C36.305 19.6778 35.6951 19.7706 35.1938 20.0721C34.2942 20.6132 33.9306 21.6904 34.263 22.6328C32.7323 25.564 30.8875 28.1242 28.6328 30.4432C28.6278 30.4462 28.6222 30.4459 28.6173 30.4487L25.7447 32.176C23.9122 33.2768 23.3298 35.6238 24.4523 37.4293C25.3519 38.8768 27.1098 39.5736 28.7821 39.127ZM43.1867 26.1695C43.66 26.9309 43.5784 27.8715 43.0445 28.5383L40.9774 25.2143C41.8254 25.051 42.713 25.4084 43.1867 26.1695ZM32.4033 41.2196C32.0524 41.4301 31.5969 41.3065 31.3976 40.9852L29.9482 38.6085L31.2002 37.8559L32.6466 40.2277C32.8575 40.567 32.7515 41.0103 32.4033 41.2196ZM35.8574 21.1384C36.0786 21.0053 36.3306 20.9731 36.5697 21.0328C36.8078 21.0865 37.0108 21.2324 37.1421 21.4429L44.7106 33.614C44.9793 34.0456 44.8409 34.613 44.4006 34.8771C43.9623 35.1411 43.3858 35.005 43.1165 34.5731L35.5463 22.3994C35.2795 21.9675 35.4183 21.4024 35.8574 21.1384ZM35.0086 23.931C37.2739 27.574 39.2204 30.7043 41.4858 34.3473C38.4205 34.4166 35.5024 34.8536 32.6118 35.6745L29.7626 31.0926C31.8232 28.9371 33.5485 26.5821 35.0086 23.931ZM26.4077 33.2423L28.738 31.8415L31.4668 36.2299L29.1368 37.6307C27.9037 38.3723 26.2947 37.9963 25.5368 36.7774C25.1743 36.1945 25.1745 33.9837 26.4077 33.2423Z" fill="#2639ED"/>
<path d="M24.1311 47.0438C24.0454 47.0963 23.9554 47.1415 23.8617 47.1787C23.5358 47.3075 23.3784 47.6719 23.5094 47.992C23.6417 48.315 24.0142 48.4662 24.3365 48.3381C24.8468 48.1358 25.2872 47.8019 25.6224 47.3869C26.2925 47.3692 26.9263 47.1336 27.3987 46.7198C27.4471 46.6776 27.4943 46.6331 27.5418 46.5885C27.615 46.5193 27.7262 46.4146 27.7687 46.3944C27.5123 46.5955 27.4539 46.9557 27.6337 47.2254C27.814 47.4955 28.1734 47.5858 28.463 47.4351C29.2762 47.0112 30.2933 46.9987 31.1173 47.4021C31.432 47.5559 31.8129 47.4296 31.9693 47.1208C32.1257 46.8119 31.9979 46.4365 31.6835 46.2827C30.8451 45.8726 29.8684 45.7615 28.9531 45.9483C28.7244 45.3515 28.0278 45.0189 27.4043 45.2042C27.0666 45.3047 26.8422 45.5161 26.6619 45.6864L26.5529 45.7865C26.4694 45.8598 26.3748 45.9226 26.272 45.9739C26.4033 45.2344 26.2595 44.435 25.7481 43.8783C25.2515 43.3378 24.4591 43.1394 23.8207 43.397C23.2353 43.6326 22.8312 44.213 22.7912 44.8753C22.7595 45.3996 22.951 45.9409 23.3309 46.3999C23.5482 46.6624 23.8213 46.8803 24.1311 47.0438ZM24.3024 44.5536C24.3353 44.5402 24.3725 44.5341 24.4123 44.5341C24.5439 44.5341 24.7009 44.6031 24.8046 44.716C24.9669 44.8927 25.0547 45.1798 25.046 45.5033C25.0408 45.6852 25.006 45.865 24.9455 46.0368C24.6925 45.947 24.474 45.8009 24.317 45.611C24.141 45.3986 24.0476 45.1576 24.06 44.9497C24.0705 44.7752 24.1748 44.6049 24.3024 44.5536Z" fill="#2639ED"/>
</svg>
