<svg width="70" height="70" viewBox="0 0 70 70" fill="none" xmlns="http://www.w3.org/2000/svg">
<rect width="70" height="70" rx="5.25" fill="#DFEEFF"/>
<path d="M38.484 43.229C38.2173 43.229 37.9479 43.1751 37.6909 43.0657L36.3783 42.5081C36.296 42.4736 36.241 42.3944 36.2371 42.3055C36.2328 42.216 36.2803 42.1326 36.3589 42.0902C37.2646 41.6028 38.1106 41.0168 38.8735 40.3485C38.9926 40.2481 39.1088 40.1441 39.2246 40.0407C39.3615 39.9155 39.4943 39.7891 39.627 39.6506C39.7341 39.5436 39.8438 39.4329 39.9481 39.3235C39.9729 39.2981 39.9914 39.2799 40.0095 39.2569C40.8241 38.3813 41.5148 37.4185 42.0733 36.382C42.1156 36.3027 42.1969 36.2586 42.2888 36.2598C42.3784 36.2646 42.4573 36.3197 42.4917 36.4019L43.043 37.7148C43.3671 38.4696 43.1996 39.3356 42.6157 39.9198L39.9031 42.6381C39.5167 43.0246 39.0056 43.229 38.484 43.229ZM36.9954 42.2662L37.8726 42.6387C38.4568 42.8861 39.1254 42.7585 39.5744 42.3097L42.2867 39.592C42.7358 39.1427 42.8649 38.4768 42.6154 37.8969L42.2477 37.0206C41.7152 37.9331 41.0821 38.7865 40.3606 39.5611C40.3428 39.5841 40.314 39.6138 40.2853 39.6428C40.1783 39.7559 40.0655 39.869 39.9587 39.976C39.8221 40.1181 39.6821 40.2518 39.536 40.3854C39.4148 40.4937 39.2956 40.6001 39.1762 40.7011C38.5082 41.2859 37.7756 41.812 36.9954 42.2662Z" fill="#2639ED"/>
<path d="M40.9714 43.9348C40.9097 43.9348 40.8508 43.9106 40.8072 43.8665L39.575 42.634C39.4843 42.5439 39.4843 42.397 39.5747 42.3062L42.287 39.5879C42.3306 39.5443 42.3899 39.5195 42.4515 39.5195C42.5132 39.5195 42.5722 39.5437 42.6157 39.5873L43.8482 40.8198C43.9389 40.9105 43.9389 41.0574 43.8485 41.1481L41.1359 43.8665C41.0924 43.91 41.0331 43.9348 40.9714 43.9348ZM40.0673 42.4701L40.9711 43.3742L43.3556 40.9842L42.4518 40.0801L40.0673 42.4701Z" fill="#2639ED"/>
<path d="M29.5946 44.2662C29.3049 44.2662 29.0158 44.2577 28.7268 44.2402C25.146 44.0176 21.7872 42.5045 19.2687 39.9797C16.5026 37.2166 14.9789 33.5415 14.9789 29.6312C14.9789 25.7214 16.5026 22.0445 19.269 19.2778C21.8099 16.7426 25.1753 15.232 28.7455 15.0239C32.9301 14.7857 37.0164 16.3356 39.9649 19.2838C44.2662 23.5975 45.4567 29.9801 42.9983 35.5432C42.8311 35.9248 42.6621 36.2707 42.4816 36.6015C41.9049 37.6714 41.1913 38.6668 40.361 39.5594C40.3417 39.5842 40.3114 39.615 40.2809 39.6459C40.1835 39.7493 40.075 39.8581 39.9722 39.961C39.8225 40.117 39.6828 40.2506 39.5364 40.3843C39.4152 40.4925 39.2957 40.599 39.1763 40.7C38.3895 41.3888 37.5144 41.9947 36.5792 42.4973C36.268 42.6733 35.9209 42.8444 35.5218 43.0198C33.6625 43.8404 31.6296 44.2662 29.5946 44.2662ZM29.5937 15.4636C29.3206 15.4636 29.0467 15.4714 28.7724 15.4872C25.3159 15.6892 22.0572 17.1521 19.5971 19.6068C16.9186 22.2852 15.4433 25.8454 15.4433 29.6312C15.4433 33.4175 16.9186 36.9759 19.5974 39.6513C22.0361 42.0963 25.2881 43.5617 28.7552 43.7769C31 43.9082 33.2778 43.5024 35.3349 42.5947C35.7201 42.4259 36.0536 42.2608 36.3548 42.0909C37.2638 41.6023 38.1098 41.0162 38.8736 40.3474C38.9928 40.247 39.1092 40.143 39.225 40.0396C39.3617 39.9144 39.4941 39.788 39.6268 39.6495C39.7433 39.5328 39.8482 39.4276 39.9477 39.3223C39.9715 39.2981 39.9909 39.2794 40.0099 39.2552C40.8246 38.3795 41.5149 37.4161 42.0734 36.3802C42.2481 36.0603 42.4114 35.7259 42.5732 35.357L42.5735 35.3564C44.9541 29.9692 43.8015 23.7892 39.6362 19.6122C36.9747 16.9507 33.3528 15.4636 29.5937 15.4636Z" fill="#2639ED"/>
<path d="M39.8006 40.0395C39.7066 40.0395 39.6189 39.9826 39.5829 39.8961C39.5472 39.809 39.5639 39.7093 39.6304 39.6427C39.7341 39.5393 39.8439 39.4287 39.9482 39.3192C40.0365 39.2249 40.1831 39.2218 40.2763 39.3101C40.3694 39.3984 40.3733 39.5454 40.285 39.6385C40.2723 39.6524 40.2593 39.6657 40.2466 39.679C40.1526 39.7788 40.0586 39.8774 39.9648 39.9717C39.9213 40.0153 39.8623 40.0395 39.8006 40.0395Z" fill="#2639ED"/>
<path d="M29.6099 40.7358C26.7651 40.7358 23.9216 39.6533 21.7566 37.4888C17.4238 33.1552 17.4238 26.1044 21.7572 21.7707C23.8542 19.674 26.6427 18.5195 29.6093 18.5195C29.6108 18.5195 29.612 18.5195 29.6135 18.5195C32.5817 18.5207 35.3717 19.677 37.4699 21.7755C39.5681 23.874 40.7238 26.6631 40.7238 29.6301C40.7238 32.597 39.5681 35.3861 37.4699 37.4852C35.3028 39.652 32.4559 40.7358 29.6099 40.7358ZM29.6093 18.984C26.7664 18.984 24.0949 20.0901 22.0856 22.0997C17.9333 26.2519 17.9333 33.0082 22.085 37.1599C26.2354 41.3103 32.9899 41.3079 37.1415 37.1562C39.152 35.1454 40.2593 32.4724 40.2593 29.6301C40.2593 26.7871 39.152 24.1147 37.1415 22.1045C35.131 20.0931 32.4574 18.9852 29.6135 18.984H29.6093Z" fill="#2639ED"/>
<path d="M51.0555 54.9984C49.9757 54.9984 48.8808 54.5799 48.0526 53.752L40.1569 45.8624C39.9334 45.6387 39.8101 45.3405 39.8101 45.023C39.8101 44.7055 39.9334 44.4074 40.1569 44.1836L44.1634 40.1771C44.6263 39.7145 45.3795 39.7145 45.8419 40.1765L53.8428 48.1847C54.6156 48.9539 55.0344 49.9796 55.0208 51.0718C55.0075 52.167 54.5612 53.186 53.7641 53.9419C53.0173 54.6489 52.0424 54.9984 51.0555 54.9984ZM45.0028 40.2945C44.8177 40.2945 44.6327 40.3646 44.4918 40.5055L40.4847 44.5132C40.3495 44.6481 40.2745 44.8295 40.2745 45.023C40.2745 45.2165 40.3495 45.398 40.4853 45.5334L48.3809 53.4231C49.7897 54.8333 52.0618 54.9126 53.4448 53.6045C54.15 52.9362 54.5446 52.0345 54.5564 51.0663C54.5685 50.1005 54.1984 49.194 53.5147 48.5131L45.5135 40.5049C45.3726 40.3646 45.1875 40.2945 45.0028 40.2945Z" fill="#2639ED"/>
<path d="M51.2804 52.7623C50.9058 52.7623 50.5314 52.6202 50.246 52.3353C49.676 51.7644 49.676 50.8367 50.246 50.2664C50.819 49.6937 51.7491 49.6925 52.3185 50.2622C52.8887 50.8325 52.8869 51.7626 52.3145 52.3353C52.0294 52.6202 51.6547 52.7623 51.2804 52.7623ZM51.2858 50.3003C51.0285 50.3003 50.7709 50.3983 50.5743 50.5948C50.1852 50.9837 50.1852 51.6175 50.5743 52.0069C50.9632 52.3946 51.5967 52.3958 51.9861 52.0063C52.3774 51.6151 52.3792 50.9801 51.9901 50.5906C51.7963 50.3971 51.5413 50.3003 51.2858 50.3003Z" fill="#2639ED"/>
<path d="M25.3842 25.1076C25.337 25.1076 25.2899 25.0931 25.25 25.0647C24.852 24.7822 24.2687 24.7774 23.8648 25.0647C23.7937 25.1155 23.7012 25.1221 23.6238 25.0816C23.5467 25.0417 23.4983 24.9625 23.4983 24.8754V23.3399C23.4983 22.7539 23.9748 22.2773 24.5605 22.2773C25.1426 22.2773 25.6164 22.7539 25.6164 23.3399V24.8754C25.6164 24.9625 25.5681 25.0417 25.491 25.0816C25.4574 25.0991 25.4208 25.1076 25.3842 25.1076ZM24.5542 24.3831C24.7622 24.3831 24.9639 24.42 25.152 24.4907V23.3399C25.152 23.0103 24.8868 22.7418 24.5605 22.7418C24.231 22.7418 23.9627 23.0103 23.9627 23.3399V24.4907C24.1493 24.4194 24.3492 24.3831 24.5542 24.3831Z" fill="#2639ED"/>
<path d="M24.5606 36.1591C23.9749 36.1591 23.4987 35.6856 23.4987 35.1039V27.2324C23.4987 27.1453 23.5473 27.0661 23.6244 27.0262C23.7019 26.9856 23.7953 26.9929 23.8654 27.0431C24.2688 27.3303 24.8521 27.3261 25.2497 27.0431C25.3199 26.9929 25.4133 26.9856 25.4907 27.0262C25.5678 27.0661 25.6165 27.1453 25.6165 27.2324V35.1039C25.6165 35.6856 25.143 36.1591 24.5606 36.1591ZM23.9631 27.6176V35.1039C23.9631 35.4298 24.231 35.6947 24.5606 35.6947C24.8923 35.6947 25.1521 35.4353 25.1521 35.1039V27.6176C24.7786 27.7579 24.3384 27.7597 23.9631 27.6176Z" fill="#2639ED"/>
<path d="M24.5546 27.7235C24.206 27.7235 23.8746 27.6188 23.5964 27.4205C23.1519 27.1096 22.8855 26.5962 22.8855 26.0489C22.8855 25.6117 23.0585 25.1932 23.3726 24.8708C23.4458 24.7977 23.5166 24.7408 23.5943 24.6846C24.1585 24.2818 24.9662 24.2885 25.5189 24.6828C25.5987 24.7408 25.6695 24.7977 25.7402 24.8684C26.0568 25.1932 26.2298 25.6117 26.2298 26.0489C26.2298 26.4904 26.0568 26.9113 25.7424 27.2324C25.6698 27.3056 25.599 27.3618 25.521 27.4187C25.2407 27.6188 24.9072 27.7235 24.5546 27.7235ZM24.5546 24.8442C24.3033 24.8442 24.0651 24.9192 23.8655 25.0613C23.8093 25.1025 23.756 25.1448 23.7028 25.1974C23.4727 25.4333 23.3499 25.7284 23.3499 26.0489C23.3499 26.445 23.5423 26.8157 23.864 27.0407C24.2689 27.3298 24.8534 27.3237 25.2498 27.0419C25.3057 27.0014 25.3589 26.9597 25.4119 26.9064C25.6426 26.6706 25.7653 26.373 25.7653 26.0489C25.7653 25.7284 25.6426 25.4333 25.41 25.195C25.3592 25.1448 25.306 25.1025 25.2477 25.0595C25.0502 24.9192 24.8098 24.8442 24.5546 24.8442Z" fill="#2639ED"/>
<path d="M30.4377 31.4363C30.3902 31.4363 30.343 31.4218 30.3028 31.3934C29.9022 31.1067 29.3125 31.1116 28.9188 31.3934C28.8481 31.4436 28.7547 31.4509 28.6775 31.4103C28.6004 31.371 28.5518 31.2912 28.5518 31.2041V23.3332C28.5518 22.7509 29.0283 22.2773 29.614 22.2773C30.1961 22.2773 30.6699 22.7509 30.6699 23.3332V31.2041C30.6699 31.2912 30.6212 31.371 30.5441 31.4103C30.5106 31.4279 30.474 31.4363 30.4377 31.4363ZM29.614 22.7418C29.2844 22.7418 29.0162 23.0073 29.0162 23.3332V30.8189C29.3881 30.678 29.8299 30.6762 30.2055 30.8189V23.3332C30.2055 23.0018 29.9457 22.7418 29.614 22.7418Z" fill="#2639ED"/>
<path d="M29.6137 36.1585C29.028 36.1585 28.5518 35.6825 28.5518 35.0971V33.5544C28.5518 33.4667 28.6007 33.3869 28.6788 33.3476C28.7562 33.3077 28.8502 33.3155 28.921 33.3669C29.3128 33.6536 29.9025 33.6566 30.3028 33.3712C30.3733 33.321 30.4661 33.3137 30.5438 33.3542C30.6209 33.3942 30.6696 33.4734 30.6696 33.5605V35.0971C30.6696 35.6825 30.1961 36.1585 29.6137 36.1585ZM29.0162 33.9427V35.0971C29.0162 35.4261 29.2841 35.694 29.6137 35.694C29.94 35.694 30.2052 35.4261 30.2052 35.0971V33.9457C29.832 34.0884 29.3936 34.0878 29.0162 33.9427Z" fill="#2639ED"/>
<path d="M29.6139 34.0551C29.2652 34.0551 28.9221 33.9444 28.6472 33.7437C28.5858 33.7056 28.5138 33.6457 28.4334 33.5647C28.1147 33.2466 27.9387 32.8275 27.9387 32.386C27.9387 31.8381 28.2051 31.3247 28.6511 31.0126C29.2039 30.6207 30.0109 30.6153 30.5718 31.0138C30.6519 31.0719 30.7227 31.1287 30.7935 31.1995C31.1101 31.5242 31.283 31.9445 31.283 32.386C31.283 32.8238 31.1101 33.2423 30.7956 33.5635C30.723 33.6366 30.6523 33.6935 30.5742 33.7503C30.2927 33.9505 29.9613 34.0551 29.6139 34.0551ZM29.6139 31.1753C29.3593 31.1753 29.1189 31.2503 28.9184 31.3924C28.5955 31.6186 28.4032 31.9899 28.4032 32.386C28.4032 32.7077 28.5274 33.0022 28.7627 33.2369C28.8177 33.2925 28.8649 33.3324 28.9081 33.3596C29.326 33.6644 29.9024 33.6584 30.3033 33.3736C30.3589 33.333 30.4122 33.2907 30.4651 33.2375C30.6925 33.0047 30.8186 32.7017 30.8186 32.386C30.8186 32.0618 30.6958 31.7643 30.4633 31.526C30.4125 31.4758 30.3592 31.4335 30.3009 31.3906C30.1028 31.2503 29.8646 31.1753 29.6139 31.1753Z" fill="#2639ED"/>
<path d="M33.8372 27.2502C33.8012 27.2502 33.7652 27.2418 33.732 27.2248C33.654 27.1855 33.605 27.1051 33.605 27.018V23.3399C33.605 22.7539 34.0815 22.2773 34.6672 22.2773C35.2493 22.2773 35.7231 22.7539 35.7231 23.3399V27.012C35.7231 27.099 35.6748 27.1783 35.5973 27.2182C35.5196 27.2587 35.4268 27.252 35.3563 27.2012C34.9578 26.9176 34.367 26.92 33.9739 27.2055C33.9334 27.2351 33.8853 27.2502 33.8372 27.2502ZM34.6672 22.7418C34.3376 22.7418 34.0694 23.0103 34.0694 23.3399V26.6304C34.4474 26.4852 34.8862 26.4852 35.2587 26.6267V23.3399C35.2587 23.0103 34.9935 22.7418 34.6672 22.7418Z" fill="#2639ED"/>
<path d="M34.6672 36.162C34.0815 36.162 33.605 35.6885 33.605 35.1061V29.3652C33.605 29.2781 33.6537 29.1989 33.7308 29.159C33.8082 29.1184 33.9016 29.1257 33.9718 29.1759C34.3842 29.4692 34.9566 29.4668 35.356 29.1819C35.4265 29.1318 35.5196 29.1245 35.597 29.165C35.6741 29.2049 35.7228 29.2842 35.7228 29.3712V35.1061C35.7228 35.6885 35.2493 36.162 34.6672 36.162ZM34.0694 29.7528V35.1061C34.0694 35.4321 34.3376 35.6976 34.6672 35.6976C34.9986 35.6976 35.2584 35.4375 35.2584 35.1061V29.7565C34.8849 29.8998 34.4477 29.8986 34.0694 29.7528Z" fill="#2639ED"/>
<path d="M34.6669 29.8589C34.3209 29.8589 33.9877 29.7519 33.7029 29.5499C33.2581 29.239 32.9917 28.7304 32.9917 28.1904C32.9917 27.7417 33.1683 27.3214 33.4888 27.0081C33.5529 26.9373 33.6324 26.8756 33.7005 26.8261C34.2481 26.4263 35.0684 26.4215 35.6251 26.8182C35.7049 26.8763 35.7757 26.9398 35.8464 27.0099C36.1621 27.3256 36.336 27.7447 36.336 28.1904C36.336 28.6355 36.1621 29.0546 35.8467 29.3703C35.7757 29.441 35.7049 29.4979 35.6272 29.5541C35.3469 29.7543 35.0155 29.8589 34.6669 29.8589ZM34.6669 26.9797C34.4156 26.9797 34.1695 27.0583 33.9741 27.201C33.9224 27.2385 33.8686 27.2802 33.8232 27.3304C33.5831 27.5657 33.4562 27.8674 33.4562 28.1904C33.4562 28.5786 33.6485 28.9451 33.9702 29.1701C34.386 29.4652 34.9584 29.4598 35.356 29.1773C35.4122 29.1362 35.4654 29.0939 35.5187 29.0413C35.7461 28.8139 35.8715 28.5115 35.8715 28.1904C35.8715 27.8687 35.7461 27.5663 35.5184 27.3389C35.4654 27.2857 35.4122 27.2379 35.3539 27.195C35.1564 27.0547 34.9181 26.9797 34.6669 26.9797Z" fill="#2639ED"/>
</svg>
