<svg width="70" height="70" viewBox="0 0 70 70" fill="none" xmlns="http://www.w3.org/2000/svg">
<rect width="70" height="70" rx="5.25" fill="#DEFFEE"/>
<path d="M32.8795 56.6223C33.2991 57.0415 33.8335 57.3269 34.4152 57.4425C34.9969 57.5581 35.5998 57.4986 36.1477 57.2717C36.6956 57.0448 37.164 56.6606 37.4937 56.1677C37.8234 55.6747 37.9996 55.0951 38 54.502V48.5017H48.5005C49.6937 48.5005 50.8376 48.026 51.6813 47.1823C52.525 46.3386 52.9995 45.1947 53.0007 44.0015V17.0002C52.9995 15.807 52.525 14.6631 51.6813 13.8194C50.8376 12.9757 49.6937 12.5012 48.5005 12.5H21.4992C20.3061 12.5012 19.1621 12.9757 18.3184 13.8194C17.4747 14.6631 17.0002 15.807 16.999 17.0002V44.0015C17.0002 45.1947 17.4747 46.3386 18.3184 47.1823C19.1621 48.026 20.3061 48.5005 21.4992 48.5017H31.9997V54.502C31.9988 54.8961 32.0761 55.2864 32.2271 55.6503C32.3782 56.0143 32.5999 56.3447 32.8795 56.6223ZM22.9993 22.2505C22.8004 22.2505 22.6096 22.1714 22.469 22.0308C22.3283 21.8901 22.2493 21.6993 22.2493 21.5004V18.5003C22.2493 18.3014 22.3283 18.1106 22.469 17.9699C22.6096 17.8293 22.8004 17.7502 22.9993 17.7502H26.7495V22.2505H22.9993ZM28.2496 17.7502H47.0004C47.1994 17.7502 47.3901 17.8293 47.5308 17.9699C47.6715 18.1106 47.7505 18.3014 47.7505 18.5003V21.5004C47.7505 21.6993 47.6715 21.8901 47.5308 22.0308C47.3901 22.1714 47.1994 22.2505 47.0004 22.2505H28.2496V17.7502ZM34.9999 43.2515C33.0714 43.2515 31.1863 42.6796 29.5828 41.6082C27.9794 40.5368 26.7296 39.014 25.9916 37.2323C25.2536 35.4507 25.0605 33.4902 25.4368 31.5988C25.813 29.7074 26.7416 27.97 28.1053 26.6064C29.4689 25.2428 31.2063 24.3141 33.0977 23.9379C34.9891 23.5617 36.9496 23.7548 38.7312 24.4927C40.5129 25.2307 42.0357 26.4805 43.1071 28.0839C44.1785 29.6874 44.7503 31.5725 44.7503 33.501C44.7474 36.0861 43.7191 38.5644 41.8912 40.3923C40.0633 42.2202 37.5849 43.2485 34.9999 43.2515ZM34.9999 56.0021C34.602 56.0021 34.2205 55.844 33.9392 55.5627C33.6579 55.2814 33.4998 54.8998 33.4998 54.502V44.6398C34.4943 44.7888 35.5054 44.7888 36.4999 44.6398V54.502C36.4999 54.8998 36.3419 55.2814 36.0606 55.5627C35.7793 55.844 35.3977 56.0021 34.9999 56.0021ZM21.4992 47.0016C20.7035 47.0016 19.9405 46.6856 19.3778 46.1229C18.8152 45.5603 18.4991 44.7972 18.4991 44.0015V17.0002C18.4991 16.2045 18.8152 15.4414 19.3778 14.8788C19.9405 14.3162 20.7035 14.0001 21.4992 14.0001H48.5005C49.2962 14.0001 50.0593 14.3162 50.6219 14.8788C51.1846 15.4414 51.5007 16.2045 51.5007 17.0002V44.0015C51.5007 44.7972 51.1846 45.5603 50.6219 46.1229C50.0593 46.6856 49.2962 47.0016 48.5005 47.0016H38V44.333C40.1396 43.7437 42.0567 42.5338 43.5094 40.856C44.962 39.1781 45.8851 37.1076 46.162 34.9056C46.439 32.7037 46.0575 30.4691 45.0657 28.4837C44.0739 26.4984 42.5161 24.8514 40.5891 23.7505H47.0004C47.5972 23.7505 48.1695 23.5135 48.5915 23.0915C49.0135 22.6695 49.2506 22.0972 49.2506 21.5004V18.5003C49.2506 17.9035 49.0135 17.3312 48.5915 16.9092C48.1695 16.4872 47.5972 16.2502 47.0004 16.2502H22.9993C22.4025 16.2502 21.8302 16.4872 21.4082 16.9092C20.9863 17.3312 20.7492 17.9035 20.7492 18.5003V21.5004C20.7492 22.0972 20.9863 22.6695 21.4082 23.0915C21.8302 23.5135 22.4025 23.7505 22.9993 23.7505H29.4106C27.4836 24.8514 25.9259 26.4984 24.9341 28.4837C23.9422 30.4691 23.5607 32.7037 23.8377 34.9056C24.1147 37.1076 25.0378 39.1781 26.4904 40.856C27.943 42.5338 29.8601 43.7437 31.9997 44.333V47.0016H21.4992Z" fill="#00DA71"/>
<path d="M31.2491 28.2501H38.7494C38.9483 28.2501 39.1391 28.1711 39.2798 28.0304C39.4204 27.8897 39.4995 27.699 39.4995 27.5C39.4995 27.3011 39.4204 27.1103 39.2798 26.9697C39.1391 26.829 38.9483 26.75 38.7494 26.75H31.2491C31.0501 26.75 30.8594 26.829 30.7187 26.9697C30.578 27.1103 30.499 27.3011 30.499 27.5C30.499 27.699 30.578 27.8897 30.7187 28.0304C30.8594 28.1711 31.0501 28.2501 31.2491 28.2501Z" fill="#00DA71"/>
<path d="M32 30.5C32 30.699 32.079 30.8897 32.2197 31.0304C32.3603 31.1711 32.5511 31.2501 32.75 31.2501H41.0004C41.1993 31.2501 41.3901 31.1711 41.5308 31.0304C41.6714 30.8897 41.7505 30.699 41.7505 30.5C41.7505 30.3011 41.6714 30.1103 41.5308 29.9697C41.3901 29.829 41.1993 29.75 41.0004 29.75H32.75C32.5511 29.75 32.3603 29.829 32.2197 29.9697C32.079 30.1103 32 30.3011 32 30.5Z" fill="#00DA71"/>
<path d="M29 31.2501H29.7501C29.949 31.2501 30.1398 31.1711 30.2804 31.0304C30.4211 30.8897 30.5001 30.699 30.5001 30.5C30.5001 30.3011 30.4211 30.1103 30.2804 29.9697C30.1398 29.829 29.949 29.75 29.7501 29.75H29C28.8011 29.75 28.6103 29.829 28.4697 29.9697C28.329 30.1103 28.25 30.3011 28.25 30.5C28.25 30.699 28.329 30.8897 28.4697 31.0304C28.6103 31.1711 28.8011 31.2501 29 31.2501Z" fill="#00DA71"/>
<path d="M38.7494 38.752H31.2491C31.0501 38.752 30.8594 38.831 30.7187 38.9716C30.578 39.1123 30.499 39.3031 30.499 39.502C30.499 39.7009 30.578 39.8917 30.7187 40.0323C30.8594 40.173 31.0501 40.252 31.2491 40.252H38.7494C38.9483 40.252 39.1391 40.173 39.2798 40.0323C39.4204 39.8917 39.4995 39.7009 39.4995 39.502C39.4995 39.3031 39.4204 39.1123 39.2798 38.9716C39.1391 38.831 38.9483 38.752 38.7494 38.752Z" fill="#00DA71"/>
<path d="M41.0004 35.752H32.75C32.5511 35.752 32.3603 35.831 32.2197 35.9716C32.079 36.1123 32 36.3031 32 36.502C32 36.7009 32.079 36.8917 32.2197 37.0323C32.3603 37.173 32.5511 37.252 32.75 37.252H41.0004C41.1993 37.252 41.3901 37.173 41.5308 37.0323C41.6714 36.8917 41.7505 36.7009 41.7505 36.502C41.7505 36.3031 41.6714 36.1123 41.5308 35.9716C41.3901 35.831 41.1993 35.752 41.0004 35.752Z" fill="#00DA71"/>
<path d="M29.7501 35.752H29C28.8011 35.752 28.6103 35.831 28.4697 35.9716C28.329 36.1123 28.25 36.3031 28.25 36.502C28.25 36.7009 28.329 36.8917 28.4697 37.0323C28.6103 37.173 28.8011 37.252 29 37.252H29.7501C29.949 37.252 30.1398 37.173 30.2804 37.0323C30.4211 36.8917 30.5001 36.7009 30.5001 36.502C30.5001 36.3031 30.4211 36.1123 30.2804 35.9716C30.1398 35.831 29.949 35.752 29.7501 35.752Z" fill="#00DA71"/>
<path d="M43.2501 33.502C43.2501 33.3031 43.1711 33.1123 43.0304 32.9716C42.8898 32.831 42.699 32.752 42.5001 32.752H41.75C41.5511 32.752 41.3603 32.831 41.2197 32.9716C41.079 33.1123 41 33.3031 41 33.502C41 33.7009 41.079 33.8917 41.2197 34.0323C41.3603 34.173 41.5511 34.252 41.75 34.252H42.5001C42.699 34.252 42.8898 34.173 43.0304 34.0323C43.1711 33.8917 43.2501 33.7009 43.2501 33.502Z" fill="#00DA71"/>
<path d="M39.5006 33.502C39.5006 33.3031 39.4216 33.1123 39.2809 32.9716C39.1403 32.831 38.9495 32.752 38.7506 32.752H27.5C27.3011 32.752 27.1103 32.831 26.9697 32.9716C26.829 33.1123 26.75 33.3031 26.75 33.502C26.75 33.7009 26.829 33.8917 26.9697 34.0323C27.1103 34.173 27.3011 34.252 27.5 34.252H38.7506C38.9495 34.252 39.1403 34.173 39.2809 34.0323C39.4216 33.8917 39.5006 33.7009 39.5006 33.502Z" fill="#00DA71"/>
<path d="M40.9995 20C40.9995 19.8011 40.9205 19.6103 40.7798 19.4697C40.6392 19.329 40.4484 19.25 40.2495 19.25H31.2491C31.0501 19.25 30.8594 19.329 30.7187 19.4697C30.578 19.6103 30.499 19.8011 30.499 20C30.499 20.199 30.578 20.3897 30.7187 20.5304C30.8594 20.671 31.0501 20.7501 31.2491 20.7501H40.2495C40.4484 20.7501 40.6392 20.671 40.7798 20.5304C40.9205 20.3897 40.9995 20.199 40.9995 20Z" fill="#00DA71"/>
<path d="M43.25 20.7501H44.7501C44.949 20.7501 45.1398 20.671 45.2805 20.5304C45.4211 20.3897 45.5001 20.199 45.5001 20C45.5001 19.8011 45.4211 19.6103 45.2805 19.4697C45.1398 19.329 44.949 19.25 44.7501 19.25H43.25C43.0511 19.25 42.8603 19.329 42.7197 19.4697C42.579 19.6103 42.5 19.8011 42.5 20C42.5 20.199 42.579 20.3897 42.7197 20.5304C42.8603 20.671 43.0511 20.7501 43.25 20.7501Z" fill="#00DA71"/>
</svg>
