<svg width="70" height="70" viewBox="0 0 70 70" fill="none" xmlns="http://www.w3.org/2000/svg">
<rect width="70" height="70" rx="5.25" fill="#DFEEFF"/>
<path d="M29.5447 18.4337C29.803 18.4337 30.0171 18.2195 30.0171 17.9612V17.8982C30.0171 17.64 29.803 17.4258 29.5447 17.4258C29.2864 17.4258 29.0723 17.64 29.0723 17.8982V17.9612C29.0723 18.2195 29.2864 18.4337 29.5447 18.4337Z" fill="#2639ED"/>
<path d="M54.937 24.978C54.7732 24.115 54.2756 23.3654 53.5449 22.8677C52.0394 21.8472 49.9858 22.2441 48.9654 23.7496L47.6866 25.6331L41.8787 34.1937V21.0157C41.8787 20.7575 41.6646 20.5433 41.4063 20.5433H35.9764C35.9764 20.0898 35.8693 19.6677 35.6866 19.2835H41.7213C42.5024 19.2835 43.1386 19.9197 43.1386 20.7008V27.9953C43.1386 28.2535 43.3528 28.4677 43.611 28.4677C43.8693 28.4677 44.0835 28.2535 44.0835 27.9953V20.7008C44.0835 19.3969 43.0252 18.3386 41.7213 18.3386H34.9811C34.452 17.8598 33.7528 17.5575 32.9843 17.5575H32.5244C32.2976 16.1087 31.0441 15 29.5323 15C28.0268 15 26.7732 16.1087 26.5465 17.5575H26.0866C25.3181 17.5575 24.6189 17.8598 24.0898 18.3386H17.3622C16.0583 18.3386 15 19.3969 15 20.7008V52.6378C15 53.9417 16.0583 55 17.3622 55H41.7339C43.0378 55 44.0961 53.9417 44.0961 52.6378V42.6976L53.1606 29.3307L54.4331 27.4535C54.9244 26.7228 55.1071 25.8472 54.937 24.978ZM43.3402 42.1244C43.2583 42.1874 43.2016 42.2693 43.1764 42.3638L40.5811 46.1937L39.8819 45.7213L39.0252 45.1417L50.5528 28.1339L52.1087 29.1921L43.3402 42.1244ZM39.7748 46.7984L36.0583 48.6756L36.4236 44.5307L38.0992 45.6646L38.2693 45.778L39.7748 46.7984ZM48.2157 26.5528L49.7717 27.6047L38.2441 44.6126L36.6882 43.5543L48.2157 26.5528ZM26.9937 18.5024C27.252 18.5024 27.4661 18.2882 27.4661 18.0299C27.4661 16.8772 28.3984 15.9449 29.5449 15.9449C30.6976 15.9449 31.6299 16.8835 31.6299 18.0299C31.6299 18.2882 31.8441 18.5024 32.1024 18.5024H32.9969C34.1244 18.5024 35.0441 19.422 35.0441 20.5496V21.1669C35.0441 21.2551 34.9748 21.3244 34.8866 21.3244H24.2094C24.1213 21.3244 24.052 21.2551 24.052 21.1669V20.5496C24.052 19.422 24.9717 18.5024 26.0992 18.5024H26.9937ZM43.1512 52.6378C43.1512 53.4189 42.515 54.0551 41.7339 54.0551H17.3622C16.5811 54.0551 15.9449 53.4189 15.9449 52.6378V20.7008C15.9449 19.9197 16.5811 19.2835 17.3622 19.2835H23.3969C23.2142 19.6677 23.1071 20.0898 23.1071 20.5433H17.6772C17.4189 20.5433 17.2047 20.7575 17.2047 21.0157V52.3228C17.2047 52.5811 17.4189 52.7953 17.6772 52.7953H41.4189C41.6772 52.7953 41.8913 52.5811 41.8913 52.3228V49.3181C41.8913 49.0598 41.6772 48.8457 41.4189 48.8457C41.1606 48.8457 40.9465 49.0598 40.9465 49.3181V51.8504H18.1496V21.4882H23.1575C23.2961 21.9417 23.7118 22.2693 24.2094 22.2693H34.8866C35.3843 22.2693 35.8 21.9417 35.9386 21.4882H40.9465V35.5921L35.6362 43.422C35.5921 43.485 35.5732 43.5606 35.5606 43.6299C35.5606 43.6362 35.5543 43.6362 35.5543 43.6425L35.0441 49.4315C35.0315 49.6016 35.1071 49.7654 35.252 49.8661C35.3339 49.9165 35.422 49.948 35.5165 49.948C35.5921 49.948 35.6614 49.9291 35.7307 49.8976L40.9213 47.2772C40.9969 47.2394 41.0598 47.1764 41.1039 47.1071L43.1512 44.0898V52.6378ZM53.652 26.9244L52.6378 28.411L48.7386 25.7717L49.7465 24.285C50.4709 23.2142 51.9386 22.9307 53.0157 23.6551C53.5386 24.0079 53.885 24.5433 54.0047 25.1606C54.1307 25.778 54.0047 26.4016 53.652 26.9244Z" fill="#2639ED"/>
<path d="M35.4349 33.6397V25.8601C35.4349 24.7578 34.5404 23.8633 33.438 23.8633H31.3215H27.7814H25.6648C24.5625 23.8633 23.668 24.7578 23.668 25.8601V33.6397C23.668 34.742 24.5625 35.6365 25.6648 35.6365H33.4443C34.5404 35.6365 35.4349 34.742 35.4349 33.6397ZM30.8491 24.8082V27.7562L30.0869 26.9247C29.9483 26.7735 29.753 26.6916 29.5514 26.6916C29.3499 26.6916 29.1546 26.7798 29.016 26.9247L28.2538 27.7562V24.8082H30.8491ZM24.6066 33.6397V25.8601C24.6066 25.2806 25.079 24.8082 25.6585 24.8082H27.3026V28.3105C27.3026 28.6129 27.4853 28.8775 27.7625 28.9908C27.8506 29.0223 27.9388 29.0412 28.027 29.0412C28.2286 29.0412 28.4176 28.9593 28.5625 28.8082L29.5451 27.7436L30.5278 28.8082C30.7357 29.0286 31.0506 29.1042 31.3278 28.9908C31.6113 28.8838 31.7877 28.6129 31.7877 28.3168V24.8145H33.4317C34.0113 24.8145 34.4837 25.2869 34.4837 25.8664V33.646C34.4837 34.2255 34.0113 34.6979 33.4317 34.6979H25.6585C25.079 34.6916 24.6066 34.2192 24.6066 33.6397Z" fill="#2639ED"/>
<path d="M28.94 32.3867H26.4392C26.181 32.3867 25.9668 32.6009 25.9668 32.8592C25.9668 33.1174 26.181 33.3316 26.4392 33.3316H28.94C29.1983 33.3316 29.4125 33.1174 29.4125 32.8592C29.4125 32.6009 29.2046 32.3867 28.94 32.3867Z" fill="#2639ED"/>
<path d="M24.7194 38.3359L24.3478 38.7076C24.1273 38.3674 23.7431 38.1406 23.3084 38.1406H20.9714C20.2848 38.1406 19.7305 38.695 19.7305 39.3816V41.7186C19.7305 42.4052 20.2848 42.9595 20.9714 42.9595H23.3084C23.995 42.9595 24.5494 42.4052 24.5494 41.7186V39.8414L25.3872 39.0036C25.5698 38.8209 25.5698 38.5186 25.3872 38.3359C25.2045 38.1532 24.9021 38.1532 24.7194 38.3359ZM23.5982 41.7249C23.5982 41.8887 23.4659 42.0209 23.3021 42.0209H20.9651C20.8013 42.0209 20.6691 41.8887 20.6691 41.7249V39.3879C20.6691 39.2241 20.8013 39.0918 20.9651 39.0918H23.3021C23.4659 39.0918 23.5982 39.2241 23.5982 39.3879V39.4572L22.5462 40.5091L22.0171 39.98C21.8344 39.7973 21.532 39.7973 21.3494 39.98C21.1667 40.1627 21.1667 40.465 21.3494 40.6477L21.9604 41.2587C22.1242 41.4225 22.332 41.4981 22.5462 41.4981C22.7604 41.4981 22.9683 41.4162 23.132 41.2587L23.5982 40.7926V41.7249Z" fill="#2639ED"/>
<path d="M33.7846 42.0234H27.2586C27.0003 42.0234 26.7861 42.2376 26.7861 42.4959C26.7861 42.7541 27.0003 42.9683 27.2586 42.9683H33.7846C34.0428 42.9683 34.257 42.7541 34.257 42.4959C34.257 42.2376 34.0428 42.0234 33.7846 42.0234Z" fill="#2639ED"/>
<path d="M35.3846 39.9451C35.3846 39.6868 35.1704 39.4727 34.9121 39.4727H27.2586C27.0003 39.4727 26.7861 39.6868 26.7861 39.9451C26.7861 40.2034 27.0003 40.4175 27.2586 40.4175H34.9058C35.1704 40.4175 35.3846 40.2097 35.3846 39.9451Z" fill="#2639ED"/>
<path d="M24.7194 45.6718L24.3478 46.0435C24.1273 45.7033 23.7431 45.4766 23.3084 45.4766H20.9714C20.2848 45.4766 19.7305 46.0309 19.7305 46.7175V49.0545C19.7305 49.7411 20.2848 50.2955 20.9714 50.2955H23.3084C23.995 50.2955 24.5494 49.7411 24.5494 49.0545V47.1774L25.3872 46.3396C25.5698 46.1569 25.5698 45.8545 25.3872 45.6718C25.2045 45.4892 24.9021 45.4829 24.7194 45.6718ZM23.5982 49.0545C23.5982 49.2183 23.4659 49.3506 23.3021 49.3506H20.9651C20.8013 49.3506 20.6691 49.2183 20.6691 49.0545V46.7175C20.6691 46.5537 20.8013 46.4214 20.9651 46.4214H23.3021C23.4659 46.4214 23.5982 46.5537 23.5982 46.7175V46.7868L22.5462 47.8388L22.0171 47.3096C21.8344 47.127 21.532 47.127 21.3494 47.3096C21.1667 47.4923 21.1667 47.7947 21.3494 47.9773L21.9604 48.5884C22.1179 48.7459 22.3257 48.834 22.5462 48.834C22.7667 48.834 22.9746 48.7459 23.132 48.5884L23.5982 48.1222V49.0545Z" fill="#2639ED"/>
<path d="M32.9594 49.3516H27.2586C27.0003 49.3516 26.7861 49.5657 26.7861 49.824C26.7861 50.0823 27.0003 50.2964 27.2586 50.2964H32.9594C33.2176 50.2964 33.4318 50.0823 33.4318 49.824C33.4318 49.5657 33.2176 49.3516 32.9594 49.3516Z" fill="#2639ED"/>
<path d="M33.1798 46.8047H27.2586C27.0003 46.8047 26.7861 47.0189 26.7861 47.2771C26.7861 47.5354 27.0003 47.7496 27.2586 47.7496H33.1798C33.4381 47.7496 33.6523 47.5354 33.6523 47.2771C33.6523 47.0189 33.4381 46.8047 33.1798 46.8047Z" fill="#2639ED"/>
</svg>
