<svg width="70" height="70" viewBox="0 0 70 70" fill="none" xmlns="http://www.w3.org/2000/svg">
<rect width="70" height="70" rx="5.25" fill="#DFEEFF"/>
<path d="M50.5556 53.8889V22.7778C50.5556 22.7036 50.548 22.6298 50.5333 22.5578C50.524 22.5111 50.5076 22.4676 50.4925 22.4231C50.4845 22.3991 50.4796 22.3738 50.4698 22.3502C50.4493 22.3009 50.4222 22.2556 50.3947 22.2098C50.3849 22.1933 50.3782 22.1756 50.3671 22.1596C50.3262 22.0987 50.28 22.0422 50.2285 21.9907L43.5645 15.3267C43.5129 15.2751 43.4565 15.2289 43.3956 15.188C43.3796 15.1773 43.3618 15.1707 43.3453 15.1604C43.3 15.1333 43.2542 15.1062 43.2049 15.0853C43.1813 15.0756 43.1565 15.0711 43.132 15.0627C43.0876 15.0476 43.044 15.0311 42.9973 15.0218C42.9258 15.0076 42.852 15 42.7778 15H20.5556C19.9418 15 19.4445 15.4973 19.4445 16.1111V53.8889C19.4445 54.5027 19.9418 55 20.5556 55H49.4445C50.0582 55 50.5556 54.5027 50.5556 53.8889ZM43.8889 18.7938L46.7618 21.6667H43.8889V18.7938ZM48.3333 52.7778H21.6667V17.2222H41.6667V22.7778C41.6667 23.3916 42.164 23.8889 42.7778 23.8889H48.3333V52.7778Z" fill="#2639ED"/>
<path d="M27.2222 28.332C26.6084 28.332 26.1111 28.8294 26.1111 29.4431C26.1111 30.0569 26.6084 30.5543 27.2222 30.5543H42.7778C43.3915 30.5543 43.8889 30.0569 43.8889 29.4431C43.8889 28.8294 43.3915 28.332 42.7778 28.332H27.2222Z" fill="#2639ED"/>
<path d="M42.7778 32.7773H27.2222C26.6084 32.7773 26.1111 33.2747 26.1111 33.8885C26.1111 34.5022 26.6084 34.9996 27.2222 34.9996H42.7778C43.3915 34.9996 43.8889 34.5022 43.8889 33.8885C43.8889 33.2747 43.3915 32.7773 42.7778 32.7773Z" fill="#2639ED"/>
<path d="M42.7778 37.2227H27.2222C26.6084 37.2227 26.1111 37.72 26.1111 38.3338C26.1111 38.9475 26.6084 39.4449 27.2222 39.4449H42.7778C43.3915 39.4449 43.8889 38.9475 43.8889 38.3338C43.8889 37.72 43.3915 37.2227 42.7778 37.2227Z" fill="#2639ED"/>
<path d="M42.7778 41.668H27.2222C26.6084 41.668 26.1111 42.1653 26.1111 42.7791C26.1111 43.3929 26.6084 43.8902 27.2222 43.8902H42.7778C43.3915 43.8902 43.8889 43.3929 43.8889 42.7791C43.8889 42.1653 43.3915 41.668 42.7778 41.668Z" fill="#2639ED"/>
<path d="M42.7778 46.1094H27.2222C26.6084 46.1094 26.1111 46.6067 26.1111 47.2205C26.1111 47.8343 26.6084 48.3316 27.2222 48.3316H42.7778C43.3915 48.3316 43.8889 47.8343 43.8889 47.2205C43.8889 46.6067 43.3915 46.1094 42.7778 46.1094Z" fill="#2639ED"/>
</svg>
