<svg width="70" height="70" viewBox="0 0 70 70" fill="none" xmlns="http://www.w3.org/2000/svg">
<rect width="70" height="70" rx="5.25" fill="#DFEEFF"/>
<path d="M32.5502 47.8849C32.54 47.0592 32.2057 46.2705 31.6194 45.689C31.033 45.1075 30.2416 44.7797 29.4158 44.7764C28.59 44.773 27.7959 45.0944 27.2049 45.6712C26.6139 46.248 26.2733 47.034 26.2565 47.8596C26.2565 47.8778 26.2565 47.8956 26.2565 47.9138C26.2565 47.9201 26.2565 47.9258 26.2565 47.9321C26.2565 47.9383 26.2565 47.9449 26.2565 47.9512C26.261 48.7702 26.5847 49.5552 27.1588 50.1394C27.7328 50.7236 28.512 51.0609 29.3309 51.0798H29.4055C30.2322 51.0796 31.0255 50.754 31.6139 50.1734C32.2023 49.5928 32.5385 48.8039 32.5497 47.9774C32.5514 47.9626 32.5523 47.9478 32.5524 47.9329C32.5526 47.9169 32.5518 47.9009 32.5502 47.8849ZM27.8628 46.3177C28.1503 46.0427 28.5062 45.8495 28.8935 45.7583C29.2808 45.6671 29.6854 45.6812 30.0655 45.7991C30.4455 45.917 30.7871 46.1344 31.0548 46.4288C31.3225 46.7232 31.5065 47.0839 31.5879 47.4734H27.2192C27.3109 47.0316 27.5355 46.6283 27.8628 46.3177ZM30.9456 49.5468C30.6579 49.8215 30.3019 50.0143 29.9146 50.1053C29.5273 50.1963 29.1227 50.1822 28.7427 50.0643C28.3627 49.9465 28.0211 49.7292 27.7533 49.4351C27.4854 49.1409 27.301 48.7805 27.2192 48.3912H31.5879C31.4963 48.8327 31.2722 49.2358 30.9456 49.5468ZM24.9777 24.1756C24.9777 23.484 24.6484 23.3538 23.7074 23.1587C22.9158 22.9947 21.7198 22.7467 21.7198 21.2648C21.7382 20.8103 21.9132 20.3762 22.2151 20.0359C22.517 19.6957 22.9272 19.4704 23.3763 19.398V18.9193C23.38 18.8003 23.4299 18.6874 23.5154 18.6046C23.6009 18.5217 23.7153 18.4754 23.8343 18.4754C23.9534 18.4754 24.0678 18.5217 24.1533 18.6046C24.2388 18.6874 24.2887 18.8003 24.2924 18.9193V19.3962C24.7415 19.4685 25.1519 19.6938 25.4539 20.034C25.7559 20.3743 25.9309 20.8085 25.9493 21.263C25.9456 21.382 25.8958 21.4949 25.8103 21.5778C25.7248 21.6607 25.6104 21.707 25.4913 21.707C25.3723 21.707 25.2579 21.6607 25.1724 21.5778C25.0869 21.4949 25.037 21.382 25.0333 21.263C25.004 20.9725 24.8618 20.7052 24.6374 20.5185C24.413 20.3318 24.1242 20.2407 23.8332 20.2647C23.5423 20.2407 23.2535 20.3318 23.0291 20.5185C22.8046 20.7052 22.6625 20.9725 22.6332 21.263C22.6332 21.9386 22.959 22.0666 23.8906 22.26C24.6875 22.4253 25.8907 22.6746 25.8907 24.1738C25.8738 24.6189 25.7063 25.045 25.4156 25.3823C25.1249 25.7197 24.7282 25.9484 24.2906 26.0308V26.5198C24.2869 26.6388 24.237 26.7516 24.1515 26.8345C24.066 26.9174 23.9516 26.9637 23.8326 26.9637C23.7135 26.9637 23.5991 26.9174 23.5136 26.8345C23.4281 26.7516 23.3782 26.6388 23.3745 26.5198V26.0531C22.9148 25.9903 22.4917 25.7678 22.1793 25.4246C21.867 25.0814 21.6853 24.6393 21.666 24.1756C21.6697 24.0566 21.7196 23.9437 21.8051 23.8609C21.8906 23.778 22.005 23.7316 22.124 23.7316C22.2431 23.7316 22.3575 23.778 22.443 23.8609C22.5285 23.9437 22.5783 24.0566 22.5821 24.1756C22.6113 24.4661 22.7535 24.7334 22.978 24.9202C23.2024 25.1069 23.4912 25.198 23.7821 25.1739C24.0723 25.1968 24.36 25.1051 24.5834 24.9185C24.8069 24.7319 24.9484 24.4653 24.9777 24.1756ZM21.1673 32.7201C21.1674 32.5986 21.2158 32.4822 21.3017 32.3964C21.3876 32.3105 21.5041 32.2623 21.6256 32.2623H39.1483C39.2673 32.266 39.3802 32.3159 39.4631 32.4014C39.5459 32.4869 39.5923 32.6013 39.5923 32.7203C39.5923 32.8394 39.5459 32.9538 39.4631 33.0393C39.3802 33.1248 39.2673 33.1746 39.1483 33.1783H21.6256C21.5041 33.1782 21.3876 33.1299 21.3017 33.044C21.2157 32.9581 21.1674 32.8416 21.1673 32.7201ZM21.1673 29.1412C21.1674 29.0198 21.2158 28.9033 21.3017 28.8175C21.3876 28.7316 21.5041 28.6834 21.6256 28.6834H39.1483C39.2673 28.6871 39.3802 28.737 39.4631 28.8225C39.5459 28.908 39.5923 29.0224 39.5923 29.1415C39.5923 29.2605 39.5459 29.3749 39.4631 29.4604C39.3802 29.5459 39.2673 29.5958 39.1483 29.5995H21.6256C21.5041 29.5994 21.3876 29.551 21.3017 29.4651C21.2157 29.3792 21.1674 29.2627 21.1673 29.1412ZM27.9775 25.5624C27.9776 25.4409 28.0259 25.3245 28.1118 25.2386C28.1978 25.1528 28.3143 25.1046 28.4357 25.1046H39.1483C39.2673 25.1083 39.3802 25.1582 39.4631 25.2436C39.5459 25.3291 39.5923 25.4435 39.5923 25.5626C39.5923 25.6817 39.5459 25.796 39.4631 25.8815C39.3802 25.967 39.2673 26.0169 39.1483 26.0206H28.4339C28.3127 26.02 28.1967 25.9715 28.1112 25.8856C28.0257 25.7998 27.9776 25.6836 27.9775 25.5624ZM49.5289 35.9687H39.7634C39.5856 35.969 39.4152 36.0397 39.2894 36.1654C39.1637 36.2912 39.093 36.4616 39.0927 36.6394V40.3045C39.093 40.4823 39.1637 40.6528 39.2894 40.7785C39.4152 40.9042 39.5856 40.975 39.7634 40.9752H49.5289C49.7069 40.9753 49.8777 40.9048 50.0037 40.779C50.1298 40.6532 50.2007 40.4826 50.2009 40.3045V36.6394C50.2007 36.4614 50.1298 36.2907 50.0037 36.165C49.8777 36.0392 49.7069 35.9686 49.5289 35.9687ZM49.2835 40.0578H40.0088V36.8848H49.2835V40.0578ZM49.6329 33.8188H46.6683V18.3193C46.6682 18.1978 46.6198 18.0814 46.5339 17.9956C46.448 17.9097 46.3315 17.8615 46.21 17.8615H40.4959L37.7687 15.1333C37.6826 15.0477 37.5661 14.9997 37.4447 15H18.3738C18.2524 15.0001 18.1359 15.0485 18.0501 15.1344C17.9642 15.2203 17.916 15.3368 17.916 15.4582V47.9321C17.916 48.0535 17.9642 48.17 18.0501 48.2559C18.1359 48.3418 18.2524 48.3902 18.3738 48.3903H20.6802V50.7935C20.6803 50.915 20.7286 51.0315 20.8145 51.1174C20.9004 51.2034 21.0169 51.2517 21.1384 51.2518H23.6217L23.5017 51.4242C23.4414 51.511 23.413 51.6158 23.4211 51.7211C23.4292 51.8263 23.4733 51.9256 23.5461 52.0021L25.0022 53.5266C25.0751 53.6031 25.1723 53.6521 25.2773 53.665C25.3822 53.678 25.4884 53.6542 25.5778 53.5977L26.5556 52.983L26.7298 53.0719C26.9195 53.1705 27.1145 53.2587 27.3139 53.3359L27.4917 53.4052L27.7006 54.5738C27.719 54.6779 27.773 54.7724 27.8533 54.8412C27.9336 54.91 28.0353 54.9488 28.141 54.9511L30.2487 55H30.2594C30.3627 54.9997 30.4629 54.9644 30.5437 54.8998C30.6244 54.8352 30.6808 54.7452 30.7038 54.6444L30.9594 53.5195L31.1465 53.4608C31.3507 53.3966 31.5512 53.321 31.747 53.2346L31.9248 53.1568L32.8982 53.835C32.9848 53.8956 33.0897 53.9242 33.195 53.9161C33.3004 53.908 33.3997 53.8637 33.476 53.7906L35.0001 52.3354C35.0766 52.2625 35.1255 52.1654 35.1385 52.0606C35.1514 51.9557 35.1277 51.8496 35.0712 51.7603L34.7507 51.2518H37.1713C37.273 51.8177 37.5703 52.33 38.0111 52.6992C38.4519 53.0684 39.0084 53.2711 39.5834 53.2719H49.6329C50.2828 53.2712 50.9059 53.0127 51.3654 52.5532C51.8249 52.0936 52.0834 51.4706 52.0841 50.8207V36.271C52.0833 35.6211 51.8248 34.9982 51.3652 34.5387C50.9057 34.0793 50.2827 33.8209 49.6329 33.8202V33.8188ZM45.7518 18.778V33.8202H43.9037V21.459C43.9039 21.3376 43.856 21.2211 43.7703 21.135L41.4147 18.7793L45.7518 18.778ZM37.9029 16.5636L42.34 21.0003H37.9029V16.5636ZM18.8321 15.9161H36.9869V21.459C36.9869 21.5804 37.0351 21.6969 37.1209 21.7827C37.2068 21.8686 37.3232 21.9168 37.4447 21.9168H42.9876V33.8202H39.5826C39.0074 33.821 38.4507 34.0238 38.0098 34.3932C37.5688 34.7625 37.2716 35.275 37.17 35.8412H21.6256C21.5642 35.8392 21.5031 35.8497 21.4459 35.8718C21.3886 35.894 21.3364 35.9274 21.2923 35.9701C21.2483 36.0129 21.2132 36.064 21.1893 36.1205C21.1654 36.1771 21.153 36.2378 21.153 36.2992C21.153 36.3606 21.1654 36.4213 21.1893 36.4778C21.2132 36.5344 21.2483 36.5855 21.2923 36.6282C21.3364 36.6709 21.3886 36.7044 21.4459 36.7265C21.5031 36.7487 21.5642 36.7591 21.6256 36.7572H37.1335V39.42H21.6256C21.5642 39.4181 21.5031 39.4285 21.4459 39.4507C21.3886 39.4729 21.3364 39.5063 21.2923 39.549C21.2483 39.5917 21.2132 39.6429 21.1893 39.6994C21.1654 39.7559 21.153 39.8167 21.153 39.878C21.153 39.9394 21.1654 40.0002 21.1893 40.0567C21.2132 40.1132 21.2483 40.1644 21.2923 40.2071C21.3364 40.2498 21.3886 40.2832 21.4459 40.3054C21.5031 40.3276 21.5642 40.338 21.6256 40.3361H37.1335V42.9989H34.4396L33.8076 42.3371C33.7344 42.2602 33.6368 42.2111 33.5314 42.1981C33.426 42.1851 33.3194 42.2091 33.2298 42.266L32.2519 42.8811L32.0777 42.7922C31.8882 42.6932 31.6932 42.6051 31.4937 42.5282L31.3159 42.4584L31.107 41.2899C31.0884 41.1859 31.0344 41.0916 30.9542 41.0228C30.874 40.954 30.7725 40.9151 30.6669 40.9126L28.5588 40.8641C28.4534 40.8617 28.3503 40.8957 28.267 40.9605C28.1838 41.0253 28.1254 41.1168 28.1019 41.2197L27.8463 42.3446L27.6592 42.4037C27.4551 42.468 27.2546 42.5434 27.0587 42.6295L26.881 42.7073L25.9076 42.0291C25.8209 41.9688 25.716 41.9404 25.6108 41.9485C25.5055 41.9566 25.4062 42.0007 25.3298 42.0735L24.3599 42.9998H21.6256C21.5642 42.9979 21.5031 43.0083 21.4459 43.0305C21.3886 43.0526 21.3364 43.086 21.2923 43.1288C21.2483 43.1715 21.2132 43.2226 21.1893 43.2791C21.1654 43.3357 21.153 43.3964 21.153 43.4578C21.153 43.5192 21.1654 43.5799 21.1893 43.6365C21.2132 43.693 21.2483 43.7441 21.2923 43.7868C21.3364 43.8296 21.3886 43.863 21.4459 43.8851C21.5031 43.9073 21.5642 43.9177 21.6256 43.9158H23.6723C23.6799 43.9831 23.7023 44.0478 23.7381 44.1052L24.3528 45.083L24.2639 45.2572C24.1649 45.4469 24.0768 45.642 23.9999 45.8417L23.9306 46.0195L22.7621 46.2284C22.658 46.2471 22.5637 46.3012 22.4949 46.3814C22.4262 46.4617 22.3872 46.5632 22.3847 46.6689L22.366 47.476H18.8321V15.9161ZM35.3059 43.9149H37.1335V47.4742H36.4668L36.4757 47.0898C36.4783 46.9842 36.4443 46.8811 36.3795 46.7977C36.3147 46.7144 36.2231 46.656 36.1201 46.6324L34.9925 46.3795L34.9334 46.192C34.8694 45.9879 34.794 45.7876 34.7076 45.5919L34.6298 45.4141L35.3081 44.4407C35.3619 44.3635 35.3906 44.2716 35.3902 44.1775C35.3898 44.0834 35.3603 43.9917 35.3059 43.9149ZM36.0481 49.6375C36.1521 49.6189 36.2465 49.565 36.3153 49.4848C36.3841 49.4046 36.423 49.3031 36.4255 49.1975L36.4442 48.3903H37.1335V50.3353H34.6796C34.7241 50.2331 34.7685 50.1295 34.8103 50.0242L34.8796 49.8464L36.0481 49.6375ZM21.5962 48.3903H22.3434L22.3345 48.7748C22.3319 48.8803 22.3659 48.9835 22.4307 49.0668C22.4955 49.1502 22.5871 49.2086 22.6901 49.2321L23.815 49.4872L23.8741 49.6748C23.9385 49.8788 24.0139 50.0791 24.0999 50.2748L24.127 50.3357H21.5936L21.5962 48.3903ZM33.1124 52.8688L32.235 52.2572C32.1707 52.212 32.0957 52.1842 32.0175 52.1764C31.9393 52.1687 31.8603 52.1812 31.7883 52.2127L31.3772 52.3945C31.2122 52.4668 31.0436 52.5303 30.8718 52.5848L30.4336 52.7225C30.3568 52.7462 30.2877 52.7897 30.233 52.8486C30.1784 52.9075 30.1403 52.9798 30.1225 53.0581L29.8918 54.0746L28.533 54.0431L28.3446 52.9897C28.3308 52.9122 28.2973 52.8395 28.2472 52.7788C28.1971 52.7181 28.1322 52.6713 28.0588 52.643L27.6388 52.4807C27.4719 52.4156 27.3087 52.3414 27.1499 52.2585L26.7423 52.0465C26.6713 52.0102 26.592 51.9932 26.5124 51.9971C26.4328 52.001 26.3556 52.0257 26.2885 52.0687L25.4071 52.6239L24.4662 51.6407L25.0777 50.7629C25.1228 50.6985 25.1506 50.6236 25.1583 50.5453C25.1661 50.4671 25.1537 50.3882 25.1222 50.3162L24.9404 49.9046C24.8676 49.74 24.8041 49.5714 24.7502 49.3997L24.6124 48.9614C24.5886 48.8847 24.5451 48.8156 24.4862 48.761C24.4273 48.7064 24.3551 48.6682 24.2768 48.6503L23.2603 48.4196L23.2914 47.0609L24.3448 46.8724C24.4223 46.8586 24.4949 46.825 24.5556 46.7749C24.6163 46.7249 24.6631 46.66 24.6915 46.5866L24.8537 46.1671C24.9187 45.9992 24.9929 45.8351 25.076 45.6755L25.288 45.2679C25.3251 45.197 25.3429 45.1176 25.3397 45.0376C25.3364 44.9576 25.3121 44.8799 25.2693 44.8123L24.7128 43.9349L25.696 42.9962L26.5734 43.6074C26.6375 43.6521 26.712 43.6797 26.7898 43.6875C26.8676 43.6953 26.9461 43.683 27.0179 43.6518L27.4294 43.47C27.5941 43.3972 27.7626 43.3337 27.9343 43.2798L28.3726 43.142C28.4493 43.1182 28.5184 43.0747 28.573 43.0158C28.6277 42.9569 28.6658 42.8847 28.6837 42.8064L28.9144 41.7899L30.2736 41.821L30.4616 42.8749C30.4755 42.9523 30.5091 43.0249 30.5592 43.0856C30.6092 43.1463 30.674 43.1931 30.7474 43.2216L31.1674 43.3838C31.3344 43.4487 31.4976 43.5229 31.6563 43.606L32.0639 43.818C32.1349 43.855 32.2143 43.8727 32.2942 43.8694C32.3741 43.8661 32.4518 43.842 32.5195 43.7994L33.4009 43.2438L34.3423 44.2238L33.7311 45.1012C33.6859 45.1656 33.658 45.2406 33.6502 45.319C33.6424 45.3973 33.655 45.4763 33.6867 45.5484L33.8685 45.9595C33.9408 46.1242 34.0042 46.2928 34.0582 46.4644L34.1965 46.9031C34.2204 46.9795 34.2641 47.0482 34.323 47.1024C34.3819 47.1566 34.454 47.1944 34.532 47.212L35.5481 47.4427L35.517 48.8019L34.4632 48.9899C34.3858 49.0039 34.3133 49.0375 34.2527 49.0875C34.192 49.1376 34.1453 49.2024 34.1169 49.2757L33.9547 49.6957C33.8895 49.8626 33.8154 50.0258 33.7324 50.1846L33.5302 50.5726L33.5204 50.5909C33.5178 50.5962 33.516 50.602 33.5133 50.6078L33.5102 50.614C33.4789 50.6828 33.4651 50.7584 33.4702 50.8339C33.4752 50.9093 33.4989 50.9824 33.5391 51.0464L34.0947 51.9283L33.1124 52.8688ZM51.1681 50.8189C51.1676 51.2259 51.0057 51.616 50.7179 51.9037C50.4301 52.1915 50.0399 52.3533 49.6329 52.3536H39.5826C39.1757 52.3532 38.7856 52.1913 38.4978 51.9036C38.2101 51.6159 38.0483 51.2258 38.0478 50.8189V36.271C38.0478 35.8638 38.2094 35.4732 38.4972 35.1851C38.785 34.897 39.1753 34.7349 39.5826 34.7344H49.6329C50.0399 34.7348 50.4301 34.8966 50.7179 35.1843C51.0057 35.472 51.1676 35.8622 51.1681 36.2692V50.8189ZM42.1729 43.3811C42.1728 43.5026 42.1245 43.6191 42.0386 43.705C41.9527 43.7909 41.8362 43.8393 41.7147 43.8394H40.6244C40.5054 43.8357 40.3925 43.7858 40.3096 43.7003C40.2268 43.6148 40.1804 43.5004 40.1804 43.3814C40.1804 43.2623 40.2268 43.1479 40.3096 43.0624C40.3925 42.9769 40.5054 42.927 40.6244 42.9233H41.7147C41.8361 42.9233 41.9526 42.9715 42.0385 43.0574C42.1245 43.1432 42.1728 43.2597 42.1729 43.3811ZM45.6109 43.3811C45.6109 43.5026 45.5627 43.6191 45.4768 43.705C45.391 43.7909 45.2745 43.8393 45.1531 43.8394H44.0628C44.0014 43.8413 43.9403 43.8309 43.8831 43.8087C43.8259 43.7865 43.7737 43.7531 43.7296 43.7104C43.6855 43.6677 43.6505 43.6165 43.6265 43.56C43.6026 43.5035 43.5903 43.4427 43.5903 43.3814C43.5903 43.32 43.6026 43.2592 43.6265 43.2027C43.6505 43.1462 43.6855 43.095 43.7296 43.0523C43.7737 43.0096 43.8259 42.9762 43.8831 42.954C43.9403 42.9319 44.0014 42.9214 44.0628 42.9233H45.1531C45.2745 42.9233 45.3909 42.9716 45.4768 43.0574C45.5627 43.1433 45.6109 43.2597 45.6109 43.3811ZM49.0493 43.3811C49.0492 43.5026 49.0009 43.6191 48.915 43.705C48.829 43.7909 48.7126 43.8393 48.5911 43.8394H47.5008C47.3818 43.8357 47.2689 43.7858 47.186 43.7003C47.1031 43.6148 47.0568 43.5004 47.0568 43.3814C47.0568 43.2623 47.1031 43.1479 47.186 43.0624C47.2689 42.9769 47.3818 42.927 47.5008 42.9233H48.5911C48.7125 42.9233 48.829 42.9715 48.9149 43.0574C49.0008 43.1432 49.0492 43.2597 49.0493 43.3811ZM42.1729 46.612C42.1728 46.7334 42.1245 46.8499 42.0385 46.9357C41.9526 47.0216 41.8361 47.0698 41.7147 47.0698H40.6244C40.5054 47.0661 40.3925 47.0162 40.3096 46.9307C40.2268 46.8452 40.1804 46.7308 40.1804 46.6118C40.1804 46.4927 40.2268 46.3783 40.3096 46.2928C40.3925 46.2073 40.5054 46.1574 40.6244 46.1537H41.7147C41.8362 46.1538 41.9527 46.2022 42.0386 46.2881C42.1245 46.374 42.1728 46.4905 42.1729 46.612ZM45.6109 46.612C45.6109 46.7334 45.5627 46.8498 45.4768 46.9357C45.3909 47.0215 45.2745 47.0698 45.1531 47.0698H44.0628C44.0014 47.0717 43.9403 47.0613 43.8831 47.0391C43.8259 47.0169 43.7737 46.9835 43.7296 46.9408C43.6855 46.8981 43.6505 46.8469 43.6265 46.7904C43.6026 46.7339 43.5903 46.6731 43.5903 46.6118C43.5903 46.5504 43.6026 46.4896 43.6265 46.4331C43.6505 46.3766 43.6855 46.3254 43.7296 46.2827C43.7737 46.24 43.8259 46.2066 43.8831 46.1844C43.9403 46.1623 44.0014 46.1518 44.0628 46.1537H45.1531C45.2745 46.1538 45.391 46.2022 45.4768 46.2881C45.5627 46.374 45.6109 46.4905 45.6109 46.612ZM42.1729 49.8428C42.1728 49.9643 42.1245 50.0807 42.0385 50.1666C41.9526 50.2524 41.8361 50.3006 41.7147 50.3006H40.6244C40.5054 50.2969 40.3925 50.247 40.3096 50.1615C40.2268 50.0761 40.1804 49.9617 40.1804 49.8426C40.1804 49.7235 40.2268 49.6091 40.3096 49.5237C40.3925 49.4382 40.5054 49.3883 40.6244 49.3846H41.7147C41.8362 49.3847 41.9527 49.433 42.0386 49.5189C42.1245 49.6048 42.1728 49.7213 42.1729 49.8428ZM45.6109 49.8428C45.6109 49.9642 45.5627 50.0807 45.4768 50.1665C45.3909 50.2524 45.2745 50.3006 45.1531 50.3006H44.0628C44.0014 50.3025 43.9403 50.2921 43.8831 50.2699C43.8259 50.2478 43.7737 50.2144 43.7296 50.1716C43.6855 50.1289 43.6505 50.0778 43.6265 50.0213C43.6026 49.9647 43.5903 49.904 43.5903 49.8426C43.5903 49.7812 43.6026 49.7205 43.6265 49.6639C43.6505 49.6074 43.6855 49.5563 43.7296 49.5136C43.7737 49.4708 43.8259 49.4374 43.8831 49.4153C43.9403 49.3931 44.0014 49.3827 44.0628 49.3846H45.1531C45.2745 49.3847 45.391 49.433 45.4768 49.5189C45.5627 49.6049 45.6109 49.7214 45.6109 49.8428ZM49.0493 46.612C49.0492 46.7334 49.0008 46.8499 48.9149 46.9357C48.829 47.0216 48.7125 47.0698 48.5911 47.0698H47.5008C47.3818 47.0661 47.2689 47.0162 47.186 46.9307C47.1031 46.8452 47.0568 46.7308 47.0568 46.6118C47.0568 46.4927 47.1031 46.3783 47.186 46.2928C47.2689 46.2073 47.3818 46.1574 47.5008 46.1537H48.5911C48.7126 46.1538 48.829 46.2022 48.915 46.2881C49.0009 46.374 49.0492 46.4905 49.0493 46.612ZM49.0493 49.8428C49.0492 49.9643 49.0008 50.0807 48.9149 50.1666C48.829 50.2524 48.7125 50.3006 48.5911 50.3006H47.5008C47.3818 50.2969 47.2689 50.247 47.186 50.1615C47.1031 50.0761 47.0568 49.9617 47.0568 49.8426C47.0568 49.7235 47.1031 49.6091 47.186 49.5237C47.2689 49.4382 47.3818 49.3883 47.5008 49.3846H48.5911C48.7126 49.3847 48.829 49.433 48.915 49.5189C49.0009 49.6048 49.0492 49.7213 49.0493 49.8428Z" fill="#2639ED"/>
</svg>
