<svg width="70" height="70" viewBox="0 0 70 70" fill="none" xmlns="http://www.w3.org/2000/svg">
<rect width="70" height="70" rx="5.25" fill="#DFEEFF"/>
<path d="M48.3694 38.9882C49.1834 38.9882 49.8096 38.3602 49.8096 37.5439C49.8096 36.7276 49.1834 36.0996 48.3694 36.0996C47.5554 36.0996 46.9292 36.7276 46.9292 37.5439C46.9918 38.3602 47.618 38.9882 48.3694 38.9882ZM48.3694 37.0415C48.6199 37.0415 48.8704 37.2927 48.8704 37.5439C48.8704 37.7951 48.6199 38.0462 48.3694 38.0462C48.1189 38.0462 47.8685 37.7951 47.8685 37.5439C47.9311 37.2927 48.1189 37.0415 48.3694 37.0415Z" fill="#2639ED"/>
<path d="M53.8169 20.9655H37.3484C36.7848 19.7096 36.0334 18.5793 34.9689 17.5746C33.1529 15.8791 30.8361 15 28.3314 15C25.8893 15 23.5098 15.9419 21.6939 17.5746C20.692 18.5165 19.8779 19.6468 19.3144 20.9655H16.1835C15.2442 20.9655 14.4302 21.719 14.4302 22.7237V48.7206C14.4302 49.6625 15.1816 50.4788 16.1835 50.4788H29.7716L27.3921 54.0581H24.8874V55H45.113V54.0581H42.6083L40.2288 50.4788H53.8169C54.7561 50.4788 55.5702 49.7253 55.5702 48.7206V22.7237C55.5702 21.719 54.7561 20.9655 53.8169 20.9655ZM23.1341 25.2983C23.1967 26.9937 23.4472 28.5636 23.8229 29.8823C23.1967 30.1962 22.5705 30.573 22.0069 31.0754C20.5041 29.5055 19.5648 27.4961 19.4396 25.2983H23.1341ZM27.893 33.6499C26.7659 33.3987 25.764 32.1429 25.0752 30.3846C25.9519 30.0078 26.9538 29.8195 27.893 29.7567V33.6499ZM28.8323 33.6499V29.7567C29.8342 29.8195 30.7735 30.0078 31.6501 30.3846C30.9613 32.1429 29.9594 33.3987 28.8323 33.6499ZM28.8323 28.8148V25.2983H32.652C32.5894 26.8053 32.4015 28.2496 32.0258 29.5055C30.9613 29.0659 29.8968 28.8148 28.8323 28.8148ZM28.8323 24.3564V20.8399C29.8968 20.7771 30.9613 20.5259 31.9632 20.1491C32.3389 21.405 32.5894 22.7865 32.5894 24.3564H28.8323ZM28.8323 19.898V16.0047C29.9594 16.2559 30.9613 17.5118 31.6501 19.27C30.7735 19.6468 29.8342 19.898 28.8323 19.898ZM31.0239 16.3815C32.0884 16.6954 33.0903 17.2606 33.9044 17.9513C33.466 18.3281 32.9651 18.6421 32.5268 18.8932C32.1511 17.8885 31.6501 17.0094 31.0239 16.3815ZM27.893 16.0047V19.898C26.8911 19.8352 25.9519 19.6468 25.0752 19.27C25.764 17.5118 26.7659 16.3187 27.893 16.0047ZM24.1986 18.8932C23.6976 18.6421 23.2593 18.3281 22.821 17.9513C23.6976 17.2606 24.6995 16.6954 25.7014 16.3815C25.0752 17.0094 24.5743 17.8885 24.1986 18.8932ZM27.893 20.8399V24.3564H24.0733C24.136 22.8493 24.3238 21.405 24.6995 20.1491C25.764 20.5887 26.8285 20.8399 27.893 20.8399ZM27.893 25.2983V28.8148C26.8285 28.8776 25.764 29.1287 24.7621 29.5055C24.3864 28.2496 24.136 26.8681 24.136 25.3611H27.893V25.2983ZM22.7584 31.7033C23.1967 31.3265 23.6976 31.0126 24.136 30.7614C24.5117 31.7661 25.0752 32.6452 25.6388 33.2732C24.6369 32.9592 23.635 32.394 22.7584 31.7033ZM32.5268 30.7614C33.0277 31.0126 33.466 31.3265 33.9044 31.7033C33.9044 31.7033 33.9044 31.7033 33.967 31.7033C33.0903 32.394 32.0884 32.9592 31.0239 33.2732C31.6501 32.6452 32.1511 31.7661 32.5268 30.7614ZM34.6558 31.0754C34.0922 30.573 33.466 30.1962 32.8399 29.8823C33.2782 28.5636 33.5287 26.9937 33.5287 25.2983H37.1605C37.0353 27.4961 36.1586 29.5055 34.6558 31.0754ZM34.4053 31.2637L34.3427 31.3265L34.2801 31.3893C34.2801 31.3893 34.3427 31.3265 34.4053 31.2637ZM37.1605 24.3564H33.5287C33.466 22.6609 33.2156 21.0911 32.8399 19.7724C33.466 19.4584 34.0922 19.0188 34.5932 18.5793C36.1586 20.1491 37.0353 22.2214 37.1605 24.3564ZM22.0696 18.5793C22.6331 19.0188 23.1967 19.4584 23.8855 19.7724C23.4472 21.0911 23.1967 22.6609 23.1967 24.3564H19.5648C19.6275 22.2214 20.5667 20.1491 22.0696 18.5793ZM16.2461 21.9074H19.0013C18.6882 22.8493 18.563 23.854 18.563 24.7959C18.563 27.5589 19.6901 30.1962 21.7565 32.0173C23.4472 33.5871 25.6388 34.4662 27.9557 34.5918C28.2061 38.4223 31.3996 41.4992 35.282 41.4992C39.3521 41.4992 42.6709 38.1711 42.6709 34.0895V31.3265C42.6709 29.8823 43.8606 28.6892 45.3008 28.6892C46.741 28.6892 47.9308 29.8823 47.9308 31.3265V34.4662C46.1775 34.7174 44.7373 36.2245 44.7373 38.0455V40.8085C44.7373 42.8179 46.3653 44.4505 48.3691 44.4505C50.3729 44.4505 52.0009 42.8179 52.0009 40.8085V38.0455C52.0009 36.2245 50.6234 34.6546 48.8074 34.4662V31.3265C48.8074 29.3171 47.1794 27.7473 45.2382 27.7473C43.2344 27.7473 41.669 29.3799 41.669 31.3265V34.0895C41.669 37.6688 38.7886 40.5573 35.2193 40.5573C31.838 40.5573 29.0828 37.9199 28.8323 34.5918C31.0866 34.4662 33.2782 33.5871 34.9689 32.0173C36.9726 30.1334 38.1624 27.5589 38.1624 24.7959C38.1624 23.7912 37.9745 22.7865 37.7241 21.9074H53.8169C54.2552 21.9074 54.6309 22.2841 54.6309 22.7237V45.9576H15.4947V22.7237C15.4947 22.2841 15.8078 21.9074 16.2461 21.9074ZM48.3691 35.4082C49.8719 35.4082 51.0617 36.6013 51.0617 38.1083V40.8713C51.0617 42.3783 49.8719 43.5714 48.3691 43.5714C46.8663 43.5714 45.6765 42.3783 45.6765 40.8713V38.1083C45.6765 36.664 46.9289 35.4082 48.3691 35.4082ZM41.4811 53.9953H28.5818L30.9613 50.416H39.1017L41.4811 53.9953ZM53.8169 49.4741H16.2461C15.8078 49.4741 15.4947 49.0973 15.4947 48.6578V46.8367H54.6309V48.6578C54.6309 49.0973 54.2552 49.4741 53.8169 49.4741Z" fill="#2639ED"/>
</svg>
