<svg width="70" height="70" viewBox="0 0 70 70" fill="none" xmlns="http://www.w3.org/2000/svg">
<rect width="70" height="70" rx="5.25" fill="#DFEEFF"/>
<path d="M23.0138 51.5224C22.8917 51.5224 22.7724 51.4873 22.6701 51.4207L19.5159 49.3725C19.3377 49.2566 19.2295 49.0593 19.2283 48.8466C19.227 48.6346 19.3325 48.4354 19.5094 48.3177L22.6396 46.2301C22.7425 46.1616 22.8634 46.1247 22.9873 46.124L49.2553 46.0254C49.8037 46.026 50.3622 46.2473 50.787 46.6684C51.3037 47.1795 51.5999 47.9292 51.5999 48.7246C51.5999 49.4095 51.378 50.0643 50.9748 50.5668C50.5244 51.1136 49.9094 51.4237 49.2821 51.4237L23.0163 51.5224H23.0138ZM21.0079 48.8362L23.1997 50.2591L49.2796 50.1611C49.5308 50.1611 49.7904 50.0187 49.9948 49.7708C50.2137 49.4977 50.3373 49.1235 50.3373 48.7246C50.3373 48.264 50.1776 47.8417 49.8989 47.5661C49.7704 47.4385 49.5577 47.288 49.2728 47.288C49.2697 47.288 49.267 47.288 49.2642 47.288L23.1821 47.3861L21.0079 48.8362Z" fill="#2639ED"/>
<path d="M46.7497 51.4308C46.4011 51.4308 46.1184 51.1485 46.1184 50.7995V46.6626C46.1184 46.3136 46.4011 46.0312 46.7497 46.0312C47.0984 46.0312 47.3811 46.3136 47.3811 46.6626V50.7995C47.3811 51.1485 47.0984 51.4308 46.7497 51.4308Z" fill="#2639ED"/>
<path d="M43.5857 43.5293H41.438C41.1371 43.5293 40.8782 43.3172 40.819 43.0219L40.5101 41.4818C40.0634 41.3505 39.6325 41.1717 39.2218 40.9485L37.9194 41.8203C37.6688 41.9874 37.3349 41.9553 37.1219 41.742L35.605 40.2247C35.3923 40.012 35.3593 39.6791 35.5257 39.4287L36.3966 38.1198C36.1768 37.7037 36.0011 37.2746 35.8707 36.8362L34.3287 36.5218C34.0346 36.462 33.8235 36.2037 33.8235 35.9034V33.761C33.8235 33.4601 34.0359 33.2012 34.3309 33.142L35.8713 32.8331C36.0026 32.3898 36.1783 31.9601 36.396 31.5488L35.5257 30.2412C35.359 29.9909 35.3923 29.6567 35.6059 29.4446L37.1229 27.9335C37.3349 27.7226 37.6669 27.6881 37.9173 27.8546L39.2262 28.722C39.6349 28.4995 40.0643 28.3213 40.5098 28.1887L40.819 26.648C40.8782 26.3527 41.1371 26.1406 41.438 26.1406H43.5857C43.8865 26.1406 44.1455 26.3527 44.2047 26.648L44.5135 28.1887C44.9593 28.3213 45.3887 28.4995 45.7975 28.722L47.1061 27.8546C47.357 27.6881 47.6887 27.7226 47.9005 27.9329L49.4177 29.444C49.6314 29.6567 49.6647 29.9909 49.4979 30.2412L48.628 31.5488C48.849 31.9638 49.0259 32.3935 49.1573 32.8331L50.6983 33.142C50.9933 33.2012 51.2057 33.4601 51.2057 33.761V35.9034C51.2057 36.2037 50.9945 36.462 50.7004 36.5218L49.1579 36.8362C49.0278 37.2709 48.8502 37.7006 48.627 38.1205L49.4979 39.4287C49.6644 39.6791 49.6314 40.012 49.4187 40.2247L47.9014 41.742C47.6884 41.9553 47.3539 41.9886 47.103 41.8197L45.8064 40.9491C45.3961 41.1717 44.9633 41.3499 44.5132 41.4824L44.2047 43.0219C44.1455 43.3172 43.8865 43.5293 43.5857 43.5293ZM41.9552 42.2666H43.0684L43.3529 40.8474C43.4016 40.6032 43.5891 40.4109 43.8317 40.356C44.4245 40.2204 44.984 39.9898 45.4948 39.6692C45.7065 39.5379 45.9753 39.5416 46.1822 39.6803L47.3758 40.4818L48.1603 39.6976L47.3613 38.4972C47.2263 38.2943 47.2201 38.0317 47.3456 37.8227C47.6714 37.2795 47.9029 36.7179 48.0333 36.1537C48.0888 35.9127 48.2799 35.7265 48.5222 35.6771L49.943 35.3874V34.2782L48.5244 33.994C48.2815 33.9453 48.0894 33.7591 48.0333 33.5181C47.9011 32.9496 47.6637 32.3725 47.3468 31.8497C47.2201 31.6401 47.2257 31.3762 47.3613 31.1728L48.1597 29.973L47.3746 29.1912L46.1677 29.9915C45.9612 30.1296 45.6939 30.1321 45.4833 30.0007C44.9722 29.6801 44.4161 29.4489 43.8298 29.3139C43.5881 29.2578 43.4016 29.0661 43.3529 28.8225L43.0684 27.4033H41.9552L41.6704 28.8225C41.6217 29.0661 41.4352 29.2578 41.1935 29.3139C40.6075 29.4489 40.0514 29.6801 39.5403 30.0007C39.3297 30.1321 39.0628 30.129 38.8559 29.9915L37.6488 29.1912L36.8639 29.973L37.6623 31.1728C37.798 31.3762 37.8035 31.6401 37.6768 31.8497C37.3658 32.3627 37.1303 32.9397 36.9959 33.5181C36.9397 33.7591 36.7477 33.9453 36.5048 33.994L35.0861 34.2782V35.3874L36.5069 35.6771C36.7492 35.7265 36.9404 35.9127 36.9959 36.1537C37.1287 36.7277 37.3581 37.2894 37.678 37.8227C37.8035 38.0317 37.7973 38.2943 37.6623 38.4972L36.8633 39.6976L37.6481 40.4824L38.8479 39.6797C39.0548 39.5416 39.3239 39.5373 39.5344 39.6692C40.0474 39.991 40.605 40.2222 41.1917 40.356C41.4343 40.4109 41.6214 40.6032 41.6704 40.8474L41.9552 42.2666ZM42.5117 38.671C40.3966 38.671 38.6759 36.9503 38.6759 34.835C38.6759 32.7196 40.3966 30.9989 42.5117 30.9989C44.627 30.9989 46.3477 32.7196 46.3477 34.835C46.3477 36.9503 44.627 38.671 42.5117 38.671ZM42.5117 32.2616C41.0927 32.2616 39.9386 33.4157 39.9386 34.835C39.9386 36.2542 41.0927 37.4084 42.5117 37.4084C43.9306 37.4084 45.0851 36.2542 45.0851 34.835C45.0851 33.4157 43.9306 32.2616 42.5117 32.2616Z" fill="#2639ED"/>
<path d="M52.6225 55H17.3776C15.9549 55 14.7974 53.8385 14.7974 52.4112V17.5796C14.7974 16.1572 15.9549 15 17.3776 15H52.6225C54.0452 15 55.2024 16.1572 55.2024 17.5796V52.4112C55.2024 53.8385 54.0452 55 52.6225 55ZM17.3776 16.2627C16.651 16.2627 16.06 16.8533 16.06 17.5796V52.4112C16.06 53.1424 16.651 53.7373 17.3776 53.7373H52.6225C53.3488 53.7373 53.9398 53.1424 53.9398 52.4112V17.5796C53.9398 16.8533 53.3488 16.2627 52.6225 16.2627H17.3776Z" fill="#2639ED"/>
<path d="M54.5711 24.1455H15.4287C15.08 24.1455 14.7974 23.8631 14.7974 23.5141C14.7974 23.1652 15.08 22.8828 15.4287 22.8828H54.5711C54.9197 22.8828 55.2024 23.1652 55.2024 23.5141C55.2024 23.8631 54.9197 24.1455 54.5711 24.1455Z" fill="#2639ED"/>
<path d="M20.0377 20.588C19.6891 20.588 19.3635 20.2631 19.3635 19.9141C19.3635 19.5651 19.6891 19.2402 20.0377 19.2402C20.3864 19.2402 20.7116 19.5651 20.7116 19.9141C20.7116 20.2631 20.3864 20.588 20.0377 20.588Z" fill="#2639ED"/>
<path d="M23.7154 20.588C24.0875 20.588 24.3892 20.2863 24.3892 19.9141C24.3892 19.5419 24.0875 19.2402 23.7154 19.2402C23.3432 19.2402 23.0415 19.5419 23.0415 19.9141C23.0415 20.2863 23.3432 20.588 23.7154 20.588Z" fill="#2639ED"/>
<path d="M27.3931 20.588C27.7653 20.588 28.067 20.2863 28.067 19.9141C28.067 19.5419 27.7653 19.2402 27.3931 19.2402C27.0209 19.2402 26.7192 19.5419 26.7192 19.9141C26.7192 20.2863 27.0209 20.588 27.3931 20.588Z" fill="#2639ED"/>
<path d="M50.0049 20.5888H40.7612C40.4126 20.5888 40.1299 20.3065 40.1299 19.9575C40.1299 19.6085 40.4126 19.3262 40.7612 19.3262H50.0049C50.3535 19.3262 50.6362 19.6085 50.6362 19.9575C50.6362 20.3065 50.3535 20.5888 50.0049 20.5888Z" fill="#2639ED"/>
<path d="M28.7907 29.6767H19.3911C19.0424 29.6767 18.7598 29.3943 18.7598 29.0454C18.7598 28.6964 19.0424 28.4141 19.3911 28.4141H28.7907C29.1394 28.4141 29.4221 28.6964 29.4221 29.0454C29.4221 29.3943 29.1394 29.6767 28.7907 29.6767Z" fill="#2639ED"/>
<path d="M28.7907 34.1709H19.3911C19.0424 34.1709 18.7598 33.8885 18.7598 33.5395C18.7598 33.1906 19.0424 32.9082 19.3911 32.9082H28.7907C29.1394 32.9082 29.4221 33.1906 29.4221 33.5395C29.4221 33.8885 29.1394 34.1709 28.7907 34.1709Z" fill="#2639ED"/>
<path d="M28.7907 38.667H19.3911C19.0424 38.667 18.7598 38.3846 18.7598 38.0356C18.7598 37.6867 19.0424 37.4043 19.3911 37.4043H28.7907C29.1394 37.4043 29.4221 37.6867 29.4221 38.0356C29.4221 38.3846 29.1394 38.667 28.7907 38.667Z" fill="#2639ED"/>
<path d="M28.7907 43.163H19.3911C19.0424 43.163 18.7598 42.8807 18.7598 42.5317C18.7598 42.1828 19.0424 41.9004 19.3911 41.9004H28.7907C29.1394 41.9004 29.4221 42.1828 29.4221 42.5317C29.4221 42.8807 29.1394 43.163 28.7907 43.163Z" fill="#2639ED"/>
</svg>
