<svg width="70" height="70" viewBox="0 0 70 70" fill="none" xmlns="http://www.w3.org/2000/svg">
<rect width="70" height="70" rx="5.25" fill="#DFEEFF"/>
<path d="M42.8981 25.6436C43.924 26.8803 43.924 28.8982 42.8981 30.1349C44.0309 29.701 45.014 28.8982 45.7834 27.8893C45.0247 26.8912 44.0415 26.0775 42.8981 25.6436ZM39.1579 30.1349C38.132 28.8982 38.132 26.8803 39.1579 25.6436C38.0251 26.0775 37.042 26.8803 36.2725 27.8893C37.042 28.8982 38.0251 29.701 39.1579 30.1349ZM41.6264 26.7935C40.9852 25.9582 40.109 26.761 40.109 27.8893C40.109 29.0067 40.9852 29.8095 41.6264 28.985C42.0753 28.3991 42.0753 27.3794 41.6264 26.7935ZM41.0387 23.5715C43.7316 23.5715 46.0613 25.1554 47.5574 27.4119C47.7604 27.7157 47.739 28.1062 47.5467 28.3883C46.7666 29.5708 45.7834 30.5255 44.6614 31.1981C42.3638 32.565 39.7029 32.565 37.416 31.1981C36.2939 30.5255 35.3108 29.5599 34.5307 28.3774C34.3276 28.0737 34.3383 27.6831 34.5413 27.4011C35.3214 26.2186 36.3046 25.2639 37.4267 24.5913C38.506 23.9295 39.7349 23.5715 41.0387 23.5715ZM48.5085 22.0093C48.5512 22.0527 48.5833 22.0961 48.6153 22.1503C50.1542 24.2441 50.7312 26.7827 50.4106 29.1911C49.7053 34.4418 44.9285 38.1304 39.7563 37.4144C34.5841 36.6984 30.9507 31.849 31.656 26.5983C32.3613 21.3475 37.1381 17.659 42.3104 18.375C44.6827 18.7005 46.9376 19.9372 48.5085 22.0093ZM48.7222 28.9633C49.2993 24.6564 46.3391 20.6858 42.0859 20.0891C37.8328 19.5033 33.9322 22.5192 33.3445 26.8261C32.7674 31.133 35.7275 35.1036 39.9807 35.7003C44.2339 36.2861 48.1451 33.2702 48.7222 28.9633ZM49.9511 37.4035L50.4106 36.937L49.6092 36.1234C49.2779 35.7871 49.2779 35.2555 49.5878 34.9192L49.8015 34.648C53.4776 29.7335 52.5265 22.7362 47.6963 19.0042C42.866 15.2723 35.9626 16.227 32.2865 21.1414C31.2713 22.4975 30.6087 24.0163 30.2882 25.5785C30.2775 25.6219 30.2775 25.6653 30.2561 25.7087C30.0744 26.6308 30.0103 27.5638 30.0637 28.4859L30.1492 29.4081C30.908 35.0168 35.6634 39.161 41.231 39.0634C41.9363 39.0525 42.6416 38.9657 43.3256 38.8247C43.379 38.8138 43.4324 38.7921 43.4859 38.7921C44.5866 38.5318 45.6552 38.1087 46.649 37.512C46.6918 37.4795 46.7345 37.4578 46.7773 37.4361C47.2047 37.1757 47.6215 36.8719 48.0062 36.5465C48.3482 36.2644 48.8504 36.2861 49.1496 36.6007L49.9511 37.4035ZM51.7144 35.8196C52.409 35.5267 53.2318 35.6677 53.7875 36.2319L59.3445 41.8731C60.0818 42.6217 60.0818 43.8476 59.3445 44.5962L57.4957 46.473C56.7584 47.2215 55.5508 47.2215 54.8134 46.473L49.2565 40.8317C48.7008 40.2676 48.5619 39.4431 48.8397 38.727L48.4657 38.3473C48.3054 38.4558 48.1558 38.5752 47.9955 38.6728V46.9069H49.0855C49.5557 46.9069 49.9404 47.2975 49.9404 47.7748V51.0186C49.9404 53.134 48.3695 55 46.3071 55H13.7349C11.6725 55 10.1016 53.134 10.1016 51.0186V47.7748C10.1016 47.2975 10.4863 46.9069 10.9565 46.9069H12.0465V28.5293C12.0465 26.5115 13.425 24.6021 15.402 24.6021H28.7493C30.0637 19.5358 34.2635 15.8147 39.3182 15.1204C46.2643 14.1549 52.6762 19.1019 53.6166 26.1535C54.044 29.3213 53.3173 32.6518 51.3297 35.4291L51.7144 35.8196ZM52.3128 37.4578L50.4641 39.3454C50.3893 39.4214 50.3893 39.5407 50.4641 39.6166L56.021 45.2579C56.0958 45.3339 56.2133 45.3339 56.2882 45.2579L58.1369 43.3811C58.2117 43.3052 58.2117 43.1858 58.1369 43.1099L52.58 37.4686C52.5052 37.3927 52.3876 37.3927 52.3128 37.4578ZM46.275 39.6383C45.6766 39.9204 45.0568 40.1374 44.4263 40.3218V44.8023C44.4263 45.2796 44.0415 45.6702 43.5713 45.6702H16.46C15.9898 45.6702 15.6051 45.2796 15.6051 44.8023V28.5944C15.6051 28.1171 15.9898 27.7265 16.46 27.7265H28.3326C28.3432 27.26 28.3646 26.7935 28.4287 26.3379H15.402C14.4189 26.3379 13.7563 27.477 13.7563 28.5293V46.9178H21.6001C21.8993 46.9178 22.1558 47.0696 22.3161 47.2975L23.342 48.6752H36.6572L37.5442 47.3083C37.7045 47.0588 37.9824 46.9178 38.2602 46.9178H46.275V39.6383ZM42.7271 40.669C35.7275 41.6236 29.2943 36.5899 28.4287 29.4515H17.3149V43.9127H42.7271V40.669ZM26.206 34.4418C26.206 33.9645 26.5907 33.5739 27.0609 33.5739C27.5311 33.5739 27.9158 33.9645 27.9158 34.4418V41.6562C27.9158 42.1335 27.5311 42.5241 27.0609 42.5241C26.5907 42.5241 26.206 42.1335 26.206 41.6562V34.4418ZM22.5085 35.5159C22.5085 35.0385 22.8932 34.648 23.3634 34.648C23.8336 34.648 24.2183 35.0385 24.2183 35.5159V41.6562C24.2183 42.1335 23.8336 42.5241 23.3634 42.5241C22.8932 42.5241 22.5085 42.1335 22.5085 41.6562V35.5159ZM18.811 38.1412C18.811 37.6639 19.1957 37.2733 19.6659 37.2733C20.1361 37.2733 20.5208 37.6639 20.5208 38.1412V41.6562C20.5208 42.1335 20.1361 42.5241 19.6659 42.5241C19.1957 42.5241 18.811 42.1335 18.811 41.6562V38.1412ZM11.8114 48.6535V51.0294C11.8114 52.1902 12.6129 53.2751 13.7349 53.2751H46.2964C47.4184 53.2751 48.2199 52.1902 48.2199 51.0294V48.6535C45.0461 48.6535 41.8829 48.6535 38.709 48.6535L37.8648 49.9554C37.7152 50.2266 37.4374 50.4219 37.1061 50.4219H22.9252C22.6688 50.4219 22.4123 50.3025 22.2413 50.0747L21.1834 48.6535C18.0522 48.6535 14.9318 48.6535 11.8114 48.6535Z" fill="#2639ED"/>
</svg>
