<svg width="70" height="70" viewBox="0 0 70 70" fill="none" xmlns="http://www.w3.org/2000/svg">
<rect width="70" height="70" rx="5.25" fill="#DFEEFF"/>
<path d="M18.7477 52.2536C18.9054 52.3291 19.0694 52.3669 19.2398 52.3669C19.4795 52.3669 19.7193 52.2851 19.9212 52.1339L21.6625 50.7858C21.9338 50.5717 22.0915 50.2567 22.0915 49.9102C22.0915 49.5638 21.9338 49.2425 21.6625 49.0347L19.9212 47.6866C19.5805 47.4221 19.1325 47.378 18.7477 47.5669C18.3628 47.7559 18.123 48.1339 18.123 48.5622V51.2583C18.123 51.6866 18.3628 52.0646 18.7477 52.2536ZM19.0694 48.5622C19.0694 48.474 19.1262 48.4299 19.1641 48.411C19.183 48.4047 19.2082 48.3921 19.2398 48.3921C19.2713 48.3921 19.3029 48.3984 19.3407 48.4299L21.082 49.778C21.1388 49.8221 21.1451 49.8788 21.1451 49.9102C21.1451 49.9417 21.1388 49.9984 21.082 50.0425L19.3407 51.3906C19.2713 51.4473 19.2019 51.4221 19.1641 51.4095C19.1325 51.3906 19.0694 51.3528 19.0694 51.2646V48.5622Z" fill="#2639ED"/>
<path d="M25.4354 51.8828H33.3976H45.4102C46.1925 51.8828 46.8298 51.2465 46.8298 50.4654V49.3568C46.8298 48.5757 46.1925 47.9395 45.4102 47.9395H33.3976H25.4354C24.6531 47.9395 24.0159 48.5757 24.0159 49.3568V50.4654C24.0159 51.2465 24.6531 51.8828 25.4354 51.8828ZM45.8834 49.3568V50.4654C45.8834 50.7237 45.6689 50.9379 45.4102 50.9379H33.8708V48.8843H45.4102C45.6689 48.8843 45.8834 49.0985 45.8834 49.3568ZM24.9622 49.3568C24.9622 49.0985 25.1768 48.8843 25.4354 48.8843H32.9244V50.9379H25.4354C25.1768 50.9379 24.9622 50.7237 24.9622 50.4654V49.3568Z" fill="#2639ED"/>
<path d="M32.4764 25.9727C28.6531 25.9727 25.5364 29.0845 25.5364 32.9018C25.5364 36.7191 28.6468 39.8309 32.4764 39.8309C36.3061 39.8309 39.4165 36.7254 39.4165 32.9018C39.4165 29.0845 36.2998 25.9727 32.4764 25.9727ZM32.4764 38.886C29.1704 38.886 26.4827 36.2026 26.4827 32.9018C26.4827 29.601 29.1704 26.9175 32.4764 26.9175C35.7824 26.9175 38.4701 29.601 38.4701 32.9018C38.4701 36.2026 35.7824 38.886 32.4764 38.886Z" fill="#2639ED"/>
<path d="M35.1009 31.7808L32.5268 29.7839C32.0978 29.4501 31.5236 29.3934 31.0315 29.6328C30.5394 29.8721 30.2366 30.3572 30.2366 30.9052V34.8926C30.2366 35.4406 30.5394 35.9257 31.0315 36.165C31.2334 36.2658 31.4479 36.3099 31.6561 36.3099C31.9653 36.3099 32.2681 36.2091 32.5268 36.0139L35.1009 34.017C35.4479 33.7461 35.6498 33.3367 35.6498 32.8957C35.6498 32.4611 35.4479 32.0516 35.1009 31.7808ZM34.5205 33.2737L31.9464 35.2705C31.8012 35.3839 31.6183 35.4028 31.4479 35.3209C31.2839 35.239 31.1829 35.0816 31.1829 34.8989V30.9052C31.1829 30.7225 31.2839 30.565 31.4479 30.4831C31.5173 30.4516 31.5867 30.4328 31.6561 30.4328C31.7571 30.4328 31.858 30.4642 31.9464 30.5335L34.5205 32.5304C34.634 32.6186 34.7034 32.7572 34.7034 32.902C34.7034 33.0469 34.634 33.1855 34.5205 33.2737Z" fill="#2639ED"/>
<path d="M53.2209 15H41.5174C40.5206 15 39.7067 15.8126 39.7067 16.8079V20.0394H17.9654C16.3124 20.0394 14.9685 21.3811 14.9685 23.0315V45.2929V52.0079C14.9685 53.6583 16.3124 55 17.9654 55H46.9874C48.6404 55 49.9843 53.6583 49.9843 52.0079V45.2929V29.7402C49.9843 29.4819 49.7698 29.2677 49.5111 29.2677C49.2524 29.2677 49.0379 29.4819 49.0379 29.7402V44.8205H15.9149V23.0315C15.9149 21.9039 16.836 20.9843 17.9654 20.9843H39.7067V25.885C39.7067 26.8803 40.5206 27.6929 41.5174 27.6929H41.7004V29.8031C41.7004 30.2 41.9464 30.5339 42.3187 30.6535C42.4133 30.685 42.5016 30.6976 42.5963 30.6976C42.8802 30.6976 43.1515 30.5654 43.3218 30.326L45.2398 27.6929H46.5142V42.1433C46.5142 42.2315 46.4448 42.3008 46.3565 42.3008H18.5963C18.5079 42.3008 18.4385 42.2315 18.4385 42.1433V23.6614C18.4385 23.5732 18.5079 23.5039 18.5963 23.5039H37.6562C37.9149 23.5039 38.1294 23.2898 38.1294 23.0315C38.1294 22.7732 37.9149 22.5591 37.6562 22.5591H18.5963C17.9906 22.5591 17.4922 23.0567 17.4922 23.6614V42.1433C17.4922 42.748 17.9906 43.2457 18.5963 43.2457H46.3565C46.9622 43.2457 47.4606 42.748 47.4606 42.1433V27.6929H53.2209C54.2177 27.6929 55.0316 26.8803 55.0316 25.885V16.8079C55.0316 15.8126 54.2177 15 53.2209 15ZM49.0379 45.7654V52.0079C49.0379 53.1354 48.1168 54.0551 46.9874 54.0551H17.9654C16.836 54.0551 15.9149 53.1354 15.9149 52.0079V45.7654H49.0379ZM54.0852 25.885C54.0852 26.3638 53.7004 26.748 53.2209 26.748H45.0001C44.8486 26.748 44.7035 26.8236 44.6152 26.9433L42.6404 29.652V27.2205C42.6404 26.9622 42.4259 26.748 42.1672 26.748H41.5111C41.0316 26.748 40.6467 26.3638 40.6467 25.885V16.8079C40.6467 16.3291 41.0316 15.9449 41.5111 15.9449H53.2146C53.6941 15.9449 54.0789 16.3291 54.0789 16.8079V25.885H54.0852Z" fill="#2639ED"/>
<path d="M50.4827 20.3615C51.4607 20.3615 52.2493 19.5678 52.2493 18.5978C52.2493 17.6277 51.4544 16.834 50.4827 16.834C49.5111 16.834 48.7162 17.6277 48.7162 18.5978C48.7162 18.686 48.7288 18.7678 48.7414 18.8497L45.6184 20.2293C45.2966 19.8387 44.8108 19.5804 44.2619 19.5804C43.284 19.5804 42.4954 20.3741 42.4954 21.3442C42.4954 22.3143 43.2903 23.108 44.2619 23.108C44.8108 23.108 45.2966 22.8497 45.6184 22.4592L48.7414 23.8387C48.7288 23.9206 48.7162 24.0025 48.7162 24.0907C48.7162 25.0671 49.5111 25.8545 50.4827 25.8545C51.4607 25.8545 52.2493 25.0608 52.2493 24.0907C52.2493 23.1143 51.4544 22.3269 50.4827 22.3269C49.9338 22.3269 49.448 22.5852 49.1263 22.9757L46.0032 21.5962C46.0159 21.5143 46.0285 21.4324 46.0285 21.3442C46.0285 21.256 46.0159 21.1741 46.0032 21.0923L49.1263 19.7127C49.448 20.1033 49.9338 20.3615 50.4827 20.3615ZM50.4827 23.2781C50.937 23.2781 51.3029 23.6434 51.3029 24.097C51.3029 24.5505 50.937 24.9159 50.4827 24.9159C50.0285 24.9159 49.6626 24.5505 49.6626 24.097C49.6626 23.6497 50.0285 23.2781 50.4827 23.2781ZM44.2556 22.1694C43.8014 22.1694 43.4354 21.8041 43.4354 21.3505C43.4354 20.897 43.8014 20.5316 44.2556 20.5316C44.7099 20.5316 45.0758 20.897 45.0758 21.3505C45.0758 21.8041 44.7099 22.1694 44.2556 22.1694ZM50.4827 17.7789C50.937 17.7789 51.3029 18.1442 51.3029 18.5978C51.3029 19.0513 50.937 19.4167 50.4827 19.4167C50.0285 19.4167 49.6626 19.0513 49.6626 18.5978C49.6626 18.1442 50.0285 17.7789 50.4827 17.7789Z" fill="#2639ED"/>
</svg>
