<svg width="70" height="70" viewBox="0 0 70 70" fill="none" xmlns="http://www.w3.org/2000/svg">
<rect width="70" height="70" rx="5.25" fill="#DFEEFF"/>
<path d="M38.5111 34.8589C38.3707 34.9994 38.2777 35.1798 38.2451 35.376L36.8984 43.4573C36.777 44.0782 37.3745 44.6756 37.994 44.5529C37.994 44.5529 46.0753 43.2053 46.0753 43.2053C46.2715 43.1727 46.452 43.0797 46.5924 42.9393L59.3872 30.1445C59.982 29.5496 60.249 28.7565 60.2087 27.9763L62.755 25.4304C63.8692 24.3162 63.8692 22.5035 62.755 21.3898L60.0615 18.6968C58.9836 17.6175 57.1002 17.6161 56.0204 18.6963L53.4512 21.2655C52.6696 21.2335 51.8763 21.4937 51.3069 22.0631L38.5111 34.8589ZM38.9966 42.4547L39.2292 41.0585C39.6741 41.3841 40.0666 41.7774 40.3924 42.222L38.9966 42.4547ZM42.4508 41.8788C41.7614 40.6865 40.7657 39.69 39.5721 39.0006L39.9946 36.4649C42.449 36.982 44.4819 39.0025 44.9877 41.4558L42.4508 41.8788ZM57.3671 20.0431C57.7289 19.6827 58.3539 19.6841 58.7139 20.0431L61.4082 22.7365C61.7793 23.1081 61.7793 23.7122 61.4082 24.0837L59.3875 26.104C59.3872 26.1038 55.3473 22.0629 55.3473 22.0629L57.3671 20.0431ZM54 23.4097L58.0412 27.4516C58.4114 27.8233 58.4114 28.4269 58.0405 28.7977L46.6257 40.2126C46.4099 39.5709 46.1202 38.9571 45.7609 38.3838L54.0003 30.1445C54.3723 29.7724 54.3723 29.1697 54.0003 28.7977C53.6283 28.4257 53.0256 28.4257 52.6536 28.7977L44.5723 36.879C43.6346 35.9413 42.4862 35.2441 41.2385 34.825L52.6536 23.4099C53.0116 23.0515 53.64 23.0505 54 23.4097Z" fill="#2639ED"/>
<path d="M10.2187 44.5238H14.0282V50.2381C14.0282 52.8637 16.1646 55 18.7901 55H49.2663C51.8919 55 54.0282 52.8637 54.0282 50.2381V39.1527C53.999 37.8993 52.1495 37.8994 52.1235 39.1527V50.2381C52.1235 51.8136 50.8418 53.0952 49.2663 53.0952H18.7901C17.2146 53.0952 15.933 51.8136 15.933 50.2381V24.5238C15.9216 23.2851 14.0464 23.263 14.0282 24.5239V42.619H10.2187C9.16867 42.619 8.31394 41.7643 8.31394 40.7143V25.4762C8.31394 20.7501 12.1588 16.9048 16.8854 16.9048H43.552C46.2948 16.9048 48.8069 18.1734 50.4438 20.3855C50.7563 20.8078 51.3524 20.898 51.7756 20.5845C52.1988 20.2716 52.2881 19.6754 51.9747 19.2527C50.0048 16.5899 46.8556 15 43.552 15H16.8854C11.1088 15 6.40918 19.6996 6.40918 25.4762V40.7143C6.40918 42.8153 8.1177 44.5238 10.2187 44.5238Z" fill="#2639ED"/>
<path d="M50.108 42.7842C49.5787 41.4539 47.8486 42.1665 48.3138 43.5719V48.3339C48.3138 48.8594 47.8869 49.2863 47.3615 49.2863H20.6948C20.1693 49.2863 19.7424 48.8594 19.7424 48.3339V43.572C19.7424 43.0465 20.1693 42.6196 20.6948 42.6196H35.266C36.5173 42.6005 36.5179 40.7345 35.266 40.7148H20.6948C19.1193 40.7148 17.8376 41.9965 17.8376 43.572V48.3339C17.8376 49.9094 19.1193 51.191 20.6948 51.191H47.3615C48.937 51.191 50.2186 49.9094 50.2186 48.3339C50.1995 47.7615 50.3097 43.2264 50.108 42.7842Z" fill="#2639ED"/>
<path d="M20.6948 22.6211C19.1193 22.6211 17.8376 23.9027 17.8376 25.4782V35.9544C17.8376 37.53 19.1193 38.8116 20.6948 38.8116H33.0757C34.6513 38.8116 35.9329 37.53 35.9329 35.9544V25.4782C35.9329 23.9027 34.6513 22.6211 33.0757 22.6211H20.6948ZM34.0281 25.4782V35.9544C34.0281 36.4799 33.6012 36.9068 33.0757 36.9068H20.6948C20.1693 36.9068 19.7424 36.4799 19.7424 35.9544V25.4782C19.7424 24.9532 20.1693 24.5259 20.6948 24.5259H33.0757C33.6012 24.5259 34.0281 24.9532 34.0281 25.4782Z" fill="#2639ED"/>
<path d="M40.695 22.6211C39.1195 22.6211 37.8379 23.9027 37.8379 25.4782V31.8882C37.8588 33.1382 39.7213 33.1419 39.7427 31.8882C39.7427 31.8882 39.7427 25.4782 39.7427 25.4782C39.7427 24.9532 40.1695 24.5259 40.695 24.5259H47.105C48.3531 24.5072 48.3595 22.6415 47.105 22.6211H40.695Z" fill="#2639ED"/>
<path d="M46.4092 18.8086H14.0283C12.7874 18.8263 12.7673 20.6914 14.0283 20.7134H46.4092C47.65 20.6956 47.6701 18.8305 46.4092 18.8086Z" fill="#2639ED"/>
</svg>
