<svg width="70" height="70" viewBox="0 0 70 70" fill="none" xmlns="http://www.w3.org/2000/svg">
<rect width="70" height="70" rx="5.25" fill="#DFEEFF"/>
<path d="M35.321 35.6438C36.7397 35.6438 37.894 34.518 37.894 33.1341V32.7405C37.894 32.5622 37.7499 32.418 37.5724 32.418H33.0697C32.8921 32.418 32.748 32.5622 32.748 32.7405V33.1341C32.748 34.518 33.9023 35.6438 35.321 35.6438ZM33.3913 33.0631H37.2507V33.1341C37.2507 34.1625 36.3853 34.9986 35.321 34.9986C34.2568 34.9986 33.3913 34.1622 33.3913 33.1341V33.0631Z" fill="#2639ED"/>
<path d="M38.4525 29.8385H38.6217C39.107 29.8385 39.502 29.4423 39.502 28.9559V28.1407C39.502 27.6539 39.107 27.2578 38.6217 27.2578H38.4525C37.9672 27.2578 37.5723 27.6539 37.5723 28.1404V28.9556C37.5723 29.4423 37.9672 29.8385 38.4525 29.8385ZM38.2155 28.1404C38.2155 28.0094 38.322 27.903 38.4525 27.903H38.6217C38.7523 27.903 38.8587 28.0094 38.8587 28.1404V28.9556C38.8587 29.0868 38.7523 29.1933 38.6217 29.1933H38.4525C38.322 29.1933 38.2155 29.0868 38.2155 28.9559V28.1404Z" fill="#2639ED"/>
<path d="M53.6077 20.1613H45.153C44.8642 19.8226 44.5194 19.5716 44.1479 19.4458C41.5434 15.939 37.3833 15 35.321 15C33.2646 15 29.1099 15.9439 26.4974 19.4677C26.1474 19.5997 25.8194 19.8403 25.5396 20.1613H16.3911C15.4793 20.1613 14.7373 20.9013 14.7373 21.811V45.6087C14.7373 46.5184 15.4793 47.2581 16.3911 47.2581H23.9453C24.0916 47.3848 24.1987 47.5223 24.2692 47.6735C23.6208 49.1655 23.2535 50.7077 23.0467 51.9668C23.029 52.0068 23.0184 52.0503 23.0184 52.0968C23.0184 52.1035 23.0219 52.1094 23.0223 52.1161C22.7907 53.5913 22.7778 54.6403 22.7778 54.6765C22.7778 54.7623 22.8113 54.8445 22.8717 54.9052C22.9319 54.9661 23.0139 55 23.0994 55H39.1805C39.2123 55 39.2409 54.9903 39.2699 54.9819C39.3291 54.9887 39.387 55 39.4481 55H53.7078C54.5645 55 55.2618 54.3006 55.2618 53.4413V43.17V43.0103V21.811C55.2615 20.9013 54.5195 20.1613 53.6077 20.1613ZM50.6228 41.4516L52.6885 39.3797V41.4516H50.6228ZM27.6131 54.3548C27.3963 53.8384 27.2805 53.2977 27.2805 52.7419C27.2805 52.1371 27.4059 51.5539 27.6536 51.0077L27.6829 50.9442C27.7588 50.7832 27.6899 50.591 27.5294 50.5148C27.3693 50.439 27.1773 50.5081 27.101 50.669L27.0676 50.7416C26.9164 51.0745 26.8077 51.4203 26.736 51.7745H23.7285C24.2049 49.1006 25.4196 45.3042 28.5081 43.6135L31.1766 48.699C31.2326 48.8045 31.3423 48.871 31.4616 48.871H37.894V53.4413C37.894 53.7835 38.0078 54.0974 38.195 54.3548H27.6131ZM32.4264 28.1406V28.9558C32.4264 29.0871 32.32 29.1935 32.1894 29.1935H32.0202C31.8897 29.1935 31.7832 29.0871 31.7832 28.9561V28.141C31.7832 28.0097 31.8897 27.9032 32.0202 27.9032H32.1894C32.32 27.9032 32.4264 28.0097 32.4264 28.1406ZM32.0202 29.8387H32.1894C32.6747 29.8387 33.0697 29.4426 33.0697 28.9561V28.141C33.0697 27.8242 32.9011 27.5484 32.6506 27.3926C34.224 27.2739 35.8913 27.0335 37.326 26.5758C37.3871 26.6494 37.4775 26.6923 37.5724 26.6923C37.611 26.6923 37.6499 26.6855 37.6878 26.671C38.1609 26.4884 38.9505 26.4871 39.3773 26.6671C39.5407 26.7358 39.7295 26.6594 39.7986 26.4952C39.8678 26.331 39.7909 26.1416 39.6272 26.0723C39.43 25.989 39.1843 25.9361 38.9235 25.9097C39.3506 25.6777 39.7327 25.4142 40.0508 25.1126C40.4094 24.7726 40.6776 24.3977 40.8548 23.9906C41.2247 25.0019 41.6544 25.8255 42.1587 26.4903C42.1587 26.4903 42.3877 26.7774 42.4639 26.8616C42.8032 27.2984 43.3705 28.1826 43.3615 29.1903C43.3558 29.8058 43.0328 30.3571 42.1693 31.2232C41.2659 32.129 40.7886 33.1 40.7886 34.0319C40.7886 34.5032 40.895 34.9261 41.0472 35.2948C39.3345 37.4403 37.0558 38.871 35.321 38.871C33.5856 38.871 31.3033 37.4403 29.5939 35.2974C29.7467 34.9281 29.8535 34.5045 29.8535 34.0323C29.8535 33.1003 29.3762 32.1294 28.4728 31.2235C27.6092 30.3574 27.2863 29.8061 27.2805 29.1906C27.2744 28.5123 27.5327 27.8919 27.7848 27.4497C28.5988 27.4884 29.9403 27.5252 31.4648 27.4616C31.2683 27.6235 31.14 27.8661 31.14 28.1406V28.9558C31.14 29.4426 31.5349 29.8387 32.0202 29.8387ZM42.1873 36.8581C42.1957 36.8652 43.0396 37.6045 43.0396 38.871C43.0396 39.2813 42.9431 39.7619 42.2262 40.21C41.627 40.5848 41.3501 41.0561 41.2218 41.4516H39.4481C39.2149 41.4516 38.9959 41.5071 38.7971 41.5997L38.554 38.4294C39.5394 37.8116 40.5113 36.9532 41.372 35.9184C41.7441 36.4977 42.1609 36.8371 42.1873 36.8581ZM29.2684 35.9197C30.1288 36.9545 31.1014 37.8129 32.0881 38.4306L31.8067 42.1013C30.9595 42.1268 30.1931 42.2613 29.4974 42.4823C29.5206 42.349 29.5351 42.2174 29.5319 42.089C29.5232 41.7284 29.3965 40.8239 28.4158 40.2103C27.6986 39.7619 27.6021 39.2816 27.6021 38.871C27.6021 37.6171 28.4454 36.8655 28.4454 36.8655C28.4766 36.8406 28.8957 36.4997 29.2684 35.9197ZM32.1048 42.7419C32.2727 42.7419 32.4126 42.6123 32.4255 42.4442L32.7062 38.7819C33.61 39.2529 34.507 39.5161 35.321 39.5161C36.135 39.5161 37.032 39.2526 37.9358 38.781L38.1905 42.1023C38.0059 42.3587 37.894 42.6706 37.894 43.0103V48.2258H31.6558L29.0883 43.3329C29.9554 42.9606 30.9521 42.7419 32.1048 42.7419ZM38.5372 53.4413V43.0103C38.5372 42.5068 38.9457 42.0968 39.4481 42.0968H46.3922L45.7489 42.7419H39.5021C39.3246 42.7419 39.1805 42.8861 39.1805 43.0645V53.3871C39.1805 53.5655 39.3246 53.7097 39.5021 53.7097H49.1507C49.3282 53.7097 49.4723 53.5655 49.4723 53.3871V43.0645C49.4723 42.94 49.4 42.8352 49.2967 42.7813L49.9795 42.0968H50.4372V54.3548H39.4481C38.9457 54.3548 38.5372 53.9448 38.5372 53.4413ZM47.0837 36.3487C47.0689 36.3384 45.6061 35.2929 45.6126 34.0339C45.6155 33.4765 46.0165 32.7929 46.8048 32.0023C47.6571 31.1474 48.173 30.099 48.1855 29.1981C48.1945 28.5335 48.0308 27.8403 47.6983 27.1348C48.0131 26.4913 48.1054 25.6832 47.9495 24.8877C47.7716 23.9803 47.2962 23.21 46.6819 22.7423H52.6885V35.7819L47.0351 41.4516H46.231C46.4263 41.2187 46.7106 40.9819 47.0692 40.7577C47.8202 40.2877 48.1855 39.5652 48.1855 38.5484C48.1855 37.1626 47.1322 36.3839 47.0837 36.3487ZM52.7831 38.3726L52.7828 38.3729L49.6193 41.5458L46.8048 44.3687L45.4784 44.8123L45.9207 43.4819L46.1091 43.2929L46.1104 43.2916L47.3956 42.0026C47.3956 42.0026 47.3963 42.0019 47.3969 42.0013L53.2311 36.1497C53.4749 35.9055 53.8715 35.9048 54.1152 36.1497C54.359 36.3942 54.359 36.7919 54.1152 37.0365L52.7831 38.3726ZM48.8291 43.3871V53.0645H39.8237V43.3871H45.2739L44.6647 45.2206C44.6262 45.3365 44.6564 45.4645 44.7426 45.5506C44.8034 45.6119 44.8857 45.6452 44.9696 45.6452C45.0037 45.6452 45.0381 45.6397 45.0713 45.6284L47.0798 44.9568C47.1271 44.941 47.1702 44.9142 47.2056 44.879L48.693 43.3871H48.8291ZM53.3318 38.7345L54.5697 37.4929C54.5883 37.4742 54.6012 37.4526 54.6183 37.4332V41.7532C54.3616 41.5655 54.0487 41.4516 53.7074 41.4516H53.3318V38.7345ZM53.6077 20.8065C54.1648 20.8065 54.6183 21.2571 54.6183 21.811V35.7535C54.6012 35.7342 54.588 35.7123 54.5697 35.6939C54.2346 35.3577 53.7586 35.2552 53.3318 35.3745V22.4194C53.3318 22.241 53.1877 22.0968 53.0102 22.0968H45.9245C45.904 21.7365 45.8216 21.3668 45.6759 21.0171C45.6457 20.9445 45.6113 20.8755 45.5769 20.8065H53.6077ZM24.749 22.8139C24.1248 23.2574 23.661 24.0245 23.4909 24.9106C23.4066 25.3484 23.3998 25.7974 23.4703 26.2184C23.0506 26.8294 22.4388 27.9384 22.4562 29.1981C22.4687 30.099 22.9846 31.1474 23.8369 32.0023C24.6252 32.7929 25.0263 33.4765 25.0292 34.0339C25.0359 35.2926 23.5729 36.3384 23.5545 36.3516C23.5095 36.3839 22.4562 37.1626 22.4562 38.5484C22.4562 39.5648 22.8212 40.2877 23.5725 40.7577C24.282 41.2016 24.7063 41.7026 24.7075 42.0977C24.7098 42.7529 23.8723 43.5303 23.5314 43.789C23.5092 43.8084 23.1248 44.1532 22.9142 44.6774H17.3103V22.7419H24.7394C24.7432 22.7658 24.7449 22.7903 24.749 22.8139ZM15.3805 45.609V21.811C15.3805 21.2571 15.834 20.8065 16.3911 20.8065H25.1035C25.0919 20.8287 25.0787 20.8497 25.0674 20.8726C24.87 21.2703 24.7519 21.69 24.7178 22.0968H16.9886C16.8111 22.0968 16.667 22.241 16.667 22.4194V45C16.667 45.1784 16.8111 45.3226 16.9886 45.3226H22.7781C22.774 45.7148 22.9769 46.1913 23.2995 46.6129H16.3911C15.834 46.6129 15.3805 46.1626 15.3805 45.609ZM24.2605 46.68C23.7356 46.2742 23.4159 45.6623 23.4211 45.3277C23.4297 44.7539 23.9379 44.29 23.9363 44.29C24.0826 44.18 25.3546 43.1897 25.3511 42.0958C25.3492 41.4584 24.8384 40.7887 23.9131 40.21C23.358 39.8629 23.0994 39.3348 23.0994 38.5484C23.0994 37.4994 23.898 36.8987 23.927 36.8771C23.9987 36.8271 25.6808 35.6294 25.6724 34.0306C25.6685 33.2868 25.2167 32.4742 24.2917 31.5461C23.5661 30.8184 23.1094 29.9152 23.0994 29.189C23.0837 28.0316 23.7025 26.9958 24.0727 26.481C24.1257 26.4071 24.1454 26.3142 24.1264 26.2252C24.0463 25.8481 24.0453 25.4358 24.1225 25.0326C24.274 24.2432 24.6966 23.5787 25.253 23.2548C25.3212 23.2152 25.3865 23.1074 25.4112 23.0326C25.4312 22.9719 25.4328 22.9065 25.4158 22.8448C25.2791 22.3523 25.364 21.7223 25.6431 21.16C25.9204 20.6019 26.3501 20.1858 26.7926 20.0477C26.8585 20.0271 26.9161 19.9858 26.957 19.9297C30.0333 15.6939 35.1065 15.6452 35.321 15.6452C35.5362 15.6452 40.6268 15.6935 43.6922 19.9132C43.7356 19.9729 43.798 20.0158 43.8691 20.0348C44.3547 20.1648 44.8198 20.6368 45.0825 21.2658C45.2601 21.6913 45.3266 22.1494 45.2704 22.5555C45.2459 22.7316 45.3681 22.8942 45.5437 22.9194C46.3571 23.0352 47.1036 23.9155 47.3181 25.0113C47.4574 25.7219 47.3625 26.4348 47.0582 26.9677C47.0045 27.0619 47.0016 27.1768 47.0502 27.2735C47.385 27.9377 47.5503 28.5819 47.542 29.1887C47.532 29.9148 47.0753 30.8181 46.3497 31.5458C45.4247 32.4739 44.9729 33.2865 44.969 34.0303C44.9606 35.629 46.643 36.8268 46.7093 36.8732C46.7434 36.8981 47.542 37.4987 47.542 38.5477C47.542 39.3342 47.2834 39.8623 46.7286 40.2094C46.114 40.5939 45.6817 41.019 45.4604 41.451H41.913C42.0284 41.219 42.2269 40.9694 42.5662 40.7571C43.3278 40.2806 43.6825 39.6813 43.6825 38.8703C43.6825 37.3103 42.6492 36.4048 42.5964 36.36C42.589 36.3539 42.0989 35.951 41.7567 35.2923C41.7502 35.221 41.7174 35.1552 41.6656 35.1013C41.5286 34.7884 41.4312 34.429 41.4312 34.0319C41.4312 33.2748 41.8435 32.4616 42.6234 31.6794C43.4696 30.8306 43.9958 30.1194 44.0041 29.1961C44.0151 27.9932 43.3612 26.969 42.9566 26.4484C42.8736 26.3555 42.6652 26.0935 42.6652 26.0935C42.0345 25.261 41.5215 24.1355 41.0973 22.6526C41.0533 22.4981 40.9005 22.3977 40.7439 22.4219C40.5853 22.4439 40.467 22.5797 40.4666 22.7403C40.4641 23.4755 40.1836 24.0981 39.6082 24.6432C37.556 26.5894 32.0723 27.0306 27.6246 26.7945C27.5085 26.7897 27.3969 26.8465 27.3349 26.9458C26.8717 27.6894 26.6302 28.4674 26.6369 29.1958C26.6453 30.119 27.1715 30.8303 28.0177 31.679C28.7979 32.4619 29.2102 33.2752 29.2102 34.0323C29.2102 35.409 28.0566 36.351 28.0363 36.3677C27.9923 36.4055 26.9589 37.311 26.9589 38.871C26.9589 39.6819 27.3136 40.2813 28.0752 40.7577C28.7648 41.189 28.8809 41.7868 28.8889 42.1052C28.8941 42.3119 28.8433 42.5358 28.7439 42.771C28.6706 42.8032 28.6001 42.839 28.5287 42.8735C28.5159 42.8784 28.5023 42.8784 28.4898 42.8848C28.4814 42.8894 28.4766 42.8968 28.4689 42.9019C26.663 43.7916 25.4293 45.3213 24.5882 46.9942C24.4937 46.8835 24.3875 46.7781 24.2605 46.68ZM23.6246 52.4194H26.654C26.6469 52.5268 26.6373 52.6335 26.6373 52.7419C26.6373 53.2948 26.7331 53.8352 26.9187 54.3548H23.4317C23.4494 53.9742 23.4986 53.2806 23.6246 52.4194ZM54.6183 53.4413C54.6183 53.9452 54.2098 54.3548 53.7074 54.3548H51.0804V42.0968H53.7074C54.2098 42.0968 54.6183 42.5068 54.6183 43.0103V43.17V53.4413Z" fill="#2639ED"/>
<path d="M53.0101 46.9336C52.3006 46.9336 51.7236 47.5123 51.7236 48.2239C51.7236 48.9355 52.3006 49.5142 53.0101 49.5142C53.7196 49.5142 54.2966 48.9355 54.2966 48.2239C54.2966 47.5123 53.7196 46.9336 53.0101 46.9336ZM53.0101 48.8691C52.6554 48.8691 52.3669 48.5797 52.3669 48.2239C52.3669 47.8681 52.6554 47.5788 53.0101 47.5788C53.3649 47.5788 53.6534 47.8681 53.6534 48.2239C53.6534 48.5797 53.3649 48.8691 53.0101 48.8691Z" fill="#2639ED"/>
<path d="M53.975 50.8047H52.0453C51.8677 50.8047 51.7236 50.9489 51.7236 51.1273V52.4176C51.7236 52.596 51.8677 52.7402 52.0453 52.7402H53.975C54.1525 52.7402 54.2966 52.596 54.2966 52.4176V51.1273C54.2966 50.9489 54.1525 50.8047 53.975 50.8047ZM53.6534 52.095H52.3669V51.4498H53.6534V52.095Z" fill="#2639ED"/>
<path d="M53.975 43.7109H52.0453C51.8677 43.7109 51.7236 43.8551 51.7236 44.0335V45.3238C51.7236 45.5022 51.8677 45.6464 52.0453 45.6464H53.975C54.1525 45.6464 54.2966 45.5022 54.2966 45.3238V44.0335C54.2966 43.8551 54.1525 43.7109 53.975 43.7109ZM53.6534 45.0013H52.3669V44.3561H53.6534V45.0013Z" fill="#2639ED"/>
</svg>
