<svg width="70" height="70" viewBox="0 0 70 70" fill="none" xmlns="http://www.w3.org/2000/svg">
<rect width="70" height="70" rx="5.25" fill="#DFEEFF"/>
<path d="M50.8879 23.2158H46.7V19.0053L50.7046 15V19.2105H54.8925L50.8879 23.2158ZM47.8097 22.1211H50.4272L52.2751 20.2632H49.6943L49.6577 19.6842V17.6316L47.8307 19.4684L47.8097 22.1211Z" fill="#2639ED"/>
<path d="M46.8773 22.2807L32.478 36.7578L33.248 37.5319L47.6473 23.0548L46.8773 22.2807Z" fill="#2639ED"/>
<path d="M32.8641 50.9785C30.1419 50.9785 27.4808 50.1668 25.2175 48.6462C22.9541 47.1255 21.1902 44.9642 20.1487 42.4355C19.1072 39.9068 18.8349 37.1244 19.3664 34.4402C19.8978 31.756 21.2091 29.2905 23.1344 27.3556C25.0596 25.4207 27.5123 24.1032 30.1823 23.5699C32.8524 23.0366 35.6197 23.3114 38.1344 24.3595C40.649 25.4076 42.7981 27.1819 44.3097 29.458C45.8213 31.7342 46.6276 34.4099 46.6266 37.1468C46.6224 40.8148 45.1709 44.3313 42.5907 46.9245C40.0105 49.5177 36.5123 50.9757 32.8641 50.9785ZM32.8641 24.4047C30.3575 24.4047 27.9071 25.152 25.823 26.5521C23.7388 27.9523 22.1144 29.9423 21.1551 32.2706C20.1959 34.599 19.9449 37.161 20.4339 39.6327C20.923 42.1044 22.13 44.3749 23.9024 46.1569C25.6749 47.9389 27.9331 49.1525 30.3916 49.6442C32.85 50.1358 35.3982 49.8835 37.7141 48.9191C40.0299 47.9546 42.0092 46.3214 43.4018 44.226C44.7944 42.1306 45.5377 39.667 45.5377 37.1468C45.5335 33.7687 44.197 30.5301 41.8211 28.1414C39.4452 25.7527 36.224 24.4089 32.8641 24.4047Z" fill="#2639ED"/>
<path d="M32.8643 45.0512C31.3112 45.0512 29.7931 44.5882 28.5018 43.7207C27.2105 42.8533 26.204 41.6203 25.6097 40.1777C25.0154 38.7351 24.8599 37.1477 25.1628 35.6163C25.4658 34.0849 26.2137 32.6781 27.3119 31.574C28.41 30.4699 29.8092 29.718 31.3324 29.4134C32.8556 29.1088 34.4344 29.2651 35.8692 29.8627C37.3041 30.4602 38.5304 31.4721 39.3932 32.7704C40.2561 34.0687 40.7166 35.595 40.7166 37.1565C40.7166 38.1932 40.5135 39.2198 40.1189 40.1777C39.7243 41.1355 39.1459 42.0058 38.4167 42.7389C37.6876 43.472 36.8219 44.0535 35.8692 44.4503C34.9165 44.847 33.8955 45.0512 32.8643 45.0512ZM32.8643 30.3144C31.5242 30.3144 30.2141 30.7137 29.0996 31.4619C27.9851 32.2102 27.1162 33.2737 26.6027 34.5182C26.0891 35.7627 25.9539 37.1324 26.2142 38.4541C26.4746 39.7758 27.1187 40.9903 28.0652 41.9441C29.0117 42.8979 30.2181 43.5483 31.5321 43.8131C32.8461 44.0779 34.2087 43.9451 35.4477 43.4317C36.6867 42.9182 37.7465 42.0471 38.4933 40.9283C39.2401 39.8095 39.6403 38.4933 39.6435 37.146C39.6366 35.3404 38.9201 33.6108 37.6503 32.3341C36.3804 31.0574 34.6601 30.3371 32.8643 30.3301V30.3144Z" fill="#2639ED"/>
<path d="M33.4087 19.2891H32.3198V31.8259H33.4087V19.2891Z" fill="#2639ED"/>
<path d="M27.5769 36.6016H15.1074V37.6963H27.5769V36.6016Z" fill="#2639ED"/>
<path d="M33.4087 42.4648H32.3198V55.0017H33.4087V42.4648Z" fill="#2639ED"/>
<path d="M50.6208 36.6016H38.1514V37.6963H50.6208V36.6016Z" fill="#2639ED"/>
<path d="M32.8642 39.7364C32.3536 39.7364 31.8544 39.5841 31.4299 39.2987C31.0054 39.0134 30.6746 38.6078 30.4794 38.1334C30.2842 37.6589 30.2334 37.1369 30.3334 36.6335C30.4334 36.13 30.6797 35.6677 31.0412 35.305C31.4027 34.9423 31.863 34.6956 32.364 34.5961C32.8649 34.4966 33.384 34.5487 33.8555 34.7459C34.327 34.9431 34.7297 35.2765 35.0126 35.7039C35.2956 36.1313 35.4461 36.6335 35.445 37.1469C35.4436 37.8341 35.1711 38.4928 34.6873 38.9782C34.2034 39.4637 33.5478 39.7364 32.8642 39.7364ZM32.8642 35.6469C32.5692 35.6469 32.2807 35.7349 32.0354 35.8997C31.79 36.0645 31.5988 36.2988 31.4859 36.5729C31.3729 36.8469 31.3434 37.1485 31.401 37.4395C31.4585 37.7305 31.6006 37.9978 31.8093 38.2075C32.0179 38.4173 32.2838 38.5602 32.5732 38.6181C32.8626 38.6759 33.1626 38.6462 33.4352 38.5327C33.7078 38.4192 33.9408 38.2269 34.1047 37.9802C34.2687 37.7336 34.3562 37.4436 34.3562 37.1469C34.3562 36.7491 34.199 36.3675 33.9192 36.0862C33.6394 35.8049 33.2599 35.6469 32.8642 35.6469Z" fill="#2639ED"/>
</svg>
