<svg width="70" height="70" viewBox="0 0 70 70" fill="none" xmlns="http://www.w3.org/2000/svg">
<rect width="70" height="70" rx="5.25" fill="#DFEEFF"/>
<path d="M49.858 16.1722C48.6459 16.2113 47.4561 16.5128 46.3682 17.0567C43.0101 18.7352 40.2695 21.4613 38.5477 24.8357C38.462 25.0041 38.4458 25.1999 38.5025 25.3805C38.5591 25.561 38.6841 25.7114 38.85 25.7983C39.0158 25.8853 39.2088 25.9017 39.3866 25.8441C39.5644 25.7866 39.7124 25.6597 39.798 25.4914C41.2992 22.5507 43.6439 20.1417 46.5221 18.5829L47.2366 19.2747L24.5773 43.4015L23.1787 47.4278C23.1511 47.5058 23.1463 47.5903 23.1651 47.671C23.1838 47.7517 23.2252 47.8253 23.2842 47.8826C23.3433 47.9399 23.4174 47.9784 23.4977 47.9938C23.5779 48.0091 23.6608 48.0006 23.7364 47.9691L27.6302 46.3591L54.7081 17.5281C53.2628 16.5903 51.5723 16.1177 49.858 16.1722ZM50.2647 17.598C50.9768 17.6126 51.6826 17.7357 52.3586 17.9635L45.9422 24.7939L44.9227 23.8088L49.226 19.2274L47.9153 17.9579C48.673 17.7048 49.4672 17.5833 50.2647 17.598ZM43.9528 24.8413L44.9694 25.8262L28.7156 43.1364L27.6962 42.1487L43.9528 24.8413ZM26.7261 43.1838L27.7429 44.1689L26.8223 45.1509L25.234 45.8066L25.8029 44.1661L26.7261 43.1838Z" fill="#2639ED"/>
<path d="M26.5469 32.1434H33.5815V30.7148H26.5469V32.1434Z" fill="#2639ED"/>
<path d="M21.8036 48.0974L21.1829 48.7275L19.776 47.2991C19.6441 47.1652 19.4651 47.0898 19.2786 47.0898C19.092 47.0899 18.9131 47.1652 18.7812 47.2991C18.6493 47.433 18.5752 47.6147 18.5752 47.8041C18.5752 47.9936 18.6493 48.1752 18.7811 48.3092L20.6855 50.2428C20.7508 50.3091 20.8283 50.3618 20.9137 50.3977C20.999 50.4336 21.0905 50.4521 21.1829 50.4521C21.2753 50.4521 21.3667 50.4336 21.4521 50.3977C21.5374 50.3618 21.615 50.3091 21.6803 50.2428L22.7984 49.1075C22.9302 48.9735 23.0042 48.7918 23.0042 48.6025C23.0041 48.4131 22.93 48.2315 22.7981 48.0976C22.6663 47.9637 22.4874 47.8886 22.3009 47.8885C22.1144 47.8885 21.9355 47.9636 21.8036 48.0974Z" fill="#2639ED"/>
<path d="M26.5469 23.5731V22.1445H34.9884V23.5731H26.5469Z" fill="#2639ED"/>
<path d="M18.781 22.594L20.6853 24.5276C20.7507 24.594 20.8282 24.6466 20.9136 24.6825C20.9989 24.7184 21.0904 24.7369 21.1828 24.7369C21.2752 24.7369 21.3666 24.7184 21.452 24.6825C21.5373 24.6466 21.6149 24.594 21.6802 24.5276L24.9915 21.1654C25.122 21.0312 25.195 20.85 25.1944 20.6614C25.1938 20.4727 25.1198 20.2919 24.9884 20.1585C24.857 20.0251 24.679 19.9498 24.4932 19.9492C24.3074 19.9486 24.1289 20.0228 23.9967 20.1554L21.1828 23.0125L19.7759 21.584C19.6437 21.4514 19.4652 21.3772 19.2794 21.3778C19.0936 21.3784 18.9156 21.4537 18.7842 21.5871C18.6528 21.7205 18.5787 21.9013 18.5781 22.09C18.5775 22.2786 18.6505 22.4598 18.781 22.594Z" fill="#2639ED"/>
<path d="M18.7812 31.1682L20.6855 33.1019C20.7508 33.1682 20.8284 33.2207 20.9137 33.2566C20.9991 33.2925 21.0906 33.311 21.1829 33.311C21.2753 33.311 21.3668 33.2925 21.4521 33.2566C21.5375 33.2207 21.615 33.1682 21.6804 33.1019L24.9916 29.7396C25.1222 29.6054 25.1951 29.4241 25.1946 29.2354C25.194 29.0468 25.1199 28.8659 24.9885 28.7325C24.8572 28.5991 24.6791 28.524 24.4933 28.5234C24.3075 28.5228 24.129 28.5969 23.9968 28.7294L21.183 31.5866L19.776 30.158C19.6441 30.0242 19.4652 29.949 19.2787 29.9491C19.0922 29.9491 18.9134 30.0244 18.7815 30.1583C18.6496 30.2922 18.5755 30.4738 18.5754 30.6632C18.5754 30.8526 18.6494 31.0343 18.7812 31.1682Z" fill="#2639ED"/>
<path d="M18.781 39.7385L20.6853 41.6722C20.7507 41.7385 20.8282 41.791 20.9136 41.8269C20.9989 41.8628 21.0904 41.8813 21.1828 41.8813C21.2752 41.8813 21.3666 41.8628 21.452 41.8269C21.5373 41.791 21.6149 41.7385 21.6802 41.6722L24.9915 38.31C25.122 38.1757 25.195 37.9944 25.1944 37.8057C25.1938 37.6171 25.1198 37.4364 24.9884 37.303C24.857 37.1696 24.679 37.0944 24.4932 37.0938C24.3074 37.0932 24.1289 37.1672 23.9967 37.2997L21.1828 40.1569L19.7759 38.7283C19.6437 38.5957 19.4652 38.5218 19.2794 38.5223C19.0936 38.5229 18.9156 38.598 18.7842 38.7314C18.6528 38.8648 18.5787 39.0457 18.5781 39.2343C18.5775 39.423 18.6505 39.6043 18.781 39.7385Z" fill="#2639ED"/>
<path d="M15.292 15V55H34.5768L43.4305 46.0101V31.6071L42.0236 33.1054V45H33.5821V53.5714H16.6989V16.4284H42.0236V18.2255C42.4759 17.8445 42.9454 17.485 43.4305 17.1483V15H15.292ZM34.989 46.4286H41.0289L34.989 52.5613V46.4286Z" fill="#2639ED"/>
</svg>
