<svg width="70" height="70" viewBox="0 0 70 70" fill="none" xmlns="http://www.w3.org/2000/svg">
<rect width="70" height="70" rx="5.25" fill="#DFEEFF"/>
<path d="M31.4228 54.9979H21.7836C21.386 54.9979 21.0693 54.6813 21.0693 54.2836V44.6518C21.0693 44.2541 21.386 43.9375 21.7836 43.9375H31.4155C31.8131 43.9375 32.1298 44.2541 32.1298 44.6518V54.2836C32.1371 54.6813 31.8131 54.9979 31.4228 54.9979ZM22.4979 53.5694H30.7012V45.3661H22.4979V53.5694Z" fill="#2639ED"/>
<path d="M25.3325 47.7078C25.1852 47.7078 25.0453 47.6636 24.9201 47.5752C24.7286 47.4427 24.6182 47.2218 24.6182 46.9935V44.6518C24.6182 44.2541 24.9348 43.9375 25.3325 43.9375C25.7301 43.9375 26.0467 44.2541 26.0467 44.6518V46.0877C26.4886 46.0215 26.9304 46.0215 27.3722 46.0877V44.6518C27.3722 44.2541 27.6889 43.9375 28.0865 43.9375C28.4842 43.9375 28.8008 44.2541 28.8008 44.6518V46.9935C28.8008 47.2218 28.6903 47.4427 28.4989 47.5752C28.3074 47.7078 28.0644 47.7446 27.8509 47.6636C27.085 47.3985 26.3339 47.3985 25.5681 47.6636C25.4871 47.693 25.4061 47.7078 25.3325 47.7078Z" fill="#2639ED"/>
<path d="M21.7836 54.9979H12.1518C11.7541 54.9979 11.4375 54.6813 11.4375 54.2836V44.6518C11.4375 44.2541 11.7541 43.9375 12.1518 43.9375H21.7836C22.1813 43.9375 22.4979 44.2541 22.4979 44.6518C22.4979 45.0494 22.1813 45.3661 21.7836 45.3661H12.8661V53.5694H21.7836C22.1813 53.5694 22.4979 53.886 22.4979 54.2836C22.4979 54.6813 22.1813 54.9979 21.7836 54.9979Z" fill="#2639ED"/>
<path d="M18.4469 47.7078C18.3659 47.7078 18.2849 47.693 18.2112 47.6636C17.4454 47.3985 16.7016 47.3985 15.9284 47.6636C15.7075 47.7372 15.4645 47.7078 15.2804 47.5752C15.089 47.4427 14.9785 47.2218 14.9785 46.9935V44.6518C14.9785 44.2541 15.2952 43.9375 15.6928 43.9375C16.0904 43.9375 16.4071 44.2541 16.4071 44.6518V46.0877C16.8489 46.0215 17.2907 46.0215 17.7326 46.0877V44.6518C17.7326 44.2541 18.0492 43.9375 18.4469 43.9375C18.8445 43.9375 19.1612 44.2541 19.1612 44.6518V46.9935C19.1612 47.2218 19.0507 47.4427 18.8592 47.5752C18.7414 47.6562 18.5941 47.7078 18.4469 47.7078Z" fill="#2639ED"/>
<path d="M26.5981 45.3686C26.2004 45.3686 25.8838 45.0519 25.8838 44.6543V35.7294H17.6805V44.6469C17.6805 45.0446 17.3639 45.3612 16.9662 45.3612C16.5686 45.3612 16.252 45.0446 16.252 44.6469V35.0151C16.252 34.6174 16.5686 34.3008 16.9662 34.3008H26.5981C26.9957 34.3008 27.3124 34.6174 27.3124 35.0151V44.6469C27.3124 45.0446 26.9957 45.3686 26.5981 45.3686Z" fill="#2639ED"/>
<path d="M20.5092 38.071C20.3619 38.071 20.222 38.0269 20.0968 37.9385C19.9054 37.806 19.7949 37.585 19.7949 37.3568V35.0151C19.7949 34.6174 20.1116 34.3008 20.5092 34.3008C20.9069 34.3008 21.2235 34.6174 21.2235 35.0151V36.451C21.6653 36.3847 22.1072 36.3847 22.549 36.451V35.0151C22.549 34.6174 22.8656 34.3008 23.2633 34.3008C23.6609 34.3008 23.9776 34.6174 23.9776 35.0151V37.3568C23.9776 37.585 23.8671 37.806 23.6756 37.9385C23.4842 38.071 23.2412 38.1079 23.0276 38.0269C22.2618 37.7618 21.5181 37.7544 20.7449 38.0269C20.6712 38.0563 20.5902 38.071 20.5092 38.071Z" fill="#2639ED"/>
<path d="M41.7323 38.5922C41.0106 38.5922 40.2816 38.5112 39.5526 38.3565C36.8942 37.7822 34.6188 36.1989 33.1461 33.9088C30.1048 29.1812 31.4745 22.8631 36.202 19.8218C40.9296 16.7806 47.2477 18.1503 50.289 22.8778C51.7617 25.168 52.2551 27.8926 51.6807 30.5509C51.1064 33.2092 49.5232 35.4846 47.233 36.9574C45.5614 38.0399 43.6689 38.5922 41.7323 38.5922ZM41.6954 19.6377C40.0754 19.6377 38.4333 20.0869 36.9679 21.0295C32.9031 23.6437 31.7248 29.0781 34.339 33.143C35.6056 35.1091 37.5643 36.4714 39.8545 36.9648C42.1446 37.4581 44.4863 37.0384 46.4524 35.7718C48.4186 34.5053 49.7809 32.5465 50.2743 30.2637C50.7676 27.9736 50.3479 25.6319 49.0813 23.6657C47.4097 21.059 44.582 19.6377 41.6954 19.6377Z" fill="#2639ED"/>
<path d="M41.7318 41.7893C37.3208 41.7893 33.0057 39.617 30.4431 35.6479C26.4445 29.4402 28.2486 21.1339 34.4563 17.1353C37.4608 15.1987 41.0469 14.5506 44.5447 15.3091C48.0425 16.0676 51.0322 18.1442 52.9689 21.1486C54.9056 24.1604 55.5536 27.7392 54.7951 31.237C54.0367 34.7348 51.9601 37.7245 48.9557 39.6612C46.7244 41.1045 44.2134 41.7893 41.7318 41.7893ZM41.6876 16.4284C39.4195 16.4284 37.1883 17.0764 35.2369 18.3356C32.5491 20.0661 30.6934 22.7392 30.016 25.8614C29.3385 28.9837 29.9202 32.1869 31.6507 34.8747C33.3812 37.5625 36.0543 39.4182 39.1765 40.0957C42.2988 40.7731 45.502 40.1914 48.1898 38.4609C50.8776 36.7304 52.7333 34.0574 53.4107 30.9351C54.0882 27.8128 53.5065 24.6096 51.776 21.9218C50.0455 19.234 47.3724 17.3783 44.2502 16.7009C43.396 16.5241 42.5344 16.4284 41.6876 16.4284Z" fill="#2639ED"/>
<path d="M54.883 52.5467C54.5737 52.5467 54.2644 52.5099 53.9551 52.4289C52.961 52.1711 52.1068 51.5084 51.6208 50.6026L46.1348 40.367C45.9507 40.0209 46.0832 39.5864 46.4293 39.4023C46.7754 39.2182 47.2099 39.3508 47.394 39.6968L52.88 49.9325C53.1819 50.4922 53.69 50.8898 54.3086 51.0518C54.9271 51.2138 55.5604 51.1107 56.098 50.7646C56.6282 50.4185 56.9816 49.8883 57.0921 49.2551C57.2026 48.6218 57.0553 47.9959 56.665 47.4877L49.6326 38.2388C49.3969 37.9222 49.4558 37.473 49.7651 37.2373C50.0818 36.9943 50.531 37.0606 50.7666 37.3699L57.8138 46.6188C58.4323 47.4362 58.6827 48.4892 58.5059 49.4981C58.3292 50.5069 57.7327 51.4053 56.8785 51.9576C56.2821 52.3479 55.5825 52.5467 54.883 52.5467Z" fill="#2639ED"/>
<path d="M44.5156 32.9243C44.4052 32.9243 44.2874 32.8948 44.1843 32.8433L41.71 31.5472L39.2358 32.8433C39.0002 32.9684 38.7056 32.9463 38.4847 32.7917C38.2638 32.6297 38.1533 32.3646 38.1975 32.0921L38.6688 29.3381L36.6658 27.3867C36.4744 27.1952 36.4007 26.9154 36.4817 26.6577C36.5627 26.3999 36.791 26.2085 37.0561 26.1716L39.8175 25.7666L41.0547 23.2629C41.2977 22.7769 42.093 22.7769 42.336 23.2629L43.5731 25.7666L46.3345 26.1716C46.607 26.2085 46.8279 26.3999 46.9089 26.6577C46.9899 26.9154 46.9236 27.2026 46.7248 27.3867L44.7218 29.3381L45.1931 32.0921C45.2373 32.3572 45.1268 32.6297 44.9059 32.7917C44.8102 32.8801 44.6629 32.9243 44.5156 32.9243ZM41.71 30.0229C41.8279 30.0229 41.9383 30.0524 42.0414 30.1039L43.5657 30.9066L43.2785 29.2129C43.2417 28.9846 43.3153 28.7416 43.4847 28.5796L44.7145 27.3793L43.0134 27.1289C42.7778 27.0921 42.579 26.9522 42.4759 26.7387L41.7174 25.1996L40.9589 26.7387C40.8558 26.9522 40.657 27.0921 40.4214 27.1289L38.7203 27.3793L39.9501 28.5796C40.1195 28.7416 40.1931 28.9773 40.1563 29.2129L39.8691 30.9066L41.3934 30.1039C41.4818 30.0524 41.5996 30.0229 41.71 30.0229Z" fill="#2639ED"/>
</svg>
