<svg width="70" height="70" viewBox="0 0 70 70" fill="none" xmlns="http://www.w3.org/2000/svg">
<rect width="70" height="70" rx="5.25" fill="#DFEEFF"/>
<path d="M50.9738 23.2158H46.7632V19.0053L50.7896 15V19.2106H55.0001L50.9738 23.2158ZM47.879 22.1211H50.5106L52.3685 20.2632H49.7738L49.7369 19.6842V17.6316L47.9001 19.4684L47.879 22.1211Z" fill="#2639ED"/>
<path d="M46.9414 22.2787L32.4642 36.7559L33.2383 37.53L47.7155 23.0528L46.9414 22.2787Z" fill="#2639ED"/>
<path d="M32.8526 50.9786C30.1157 50.9786 27.4402 50.1669 25.1646 48.6462C22.889 47.1256 21.1155 44.9642 20.0684 42.4356C19.0213 39.9069 18.7476 37.1245 19.2819 34.4402C19.8162 31.756 21.1346 29.2905 23.0702 27.3556C25.0059 25.4207 27.4719 24.1032 30.1563 23.5699C32.8408 23.0366 35.6231 23.3114 38.1514 24.3595C40.6797 25.4076 42.8403 27.1819 44.3601 29.4581C45.8799 31.7342 46.6905 34.41 46.6895 37.1469C46.6853 40.8149 45.226 44.3314 42.6318 46.9246C40.0376 49.5178 36.5206 50.9758 32.8526 50.9786ZM32.8526 24.4047C30.3324 24.4047 27.8688 25.152 25.7734 26.5521C23.6779 27.9523 22.0447 29.9423 21.0803 32.2707C20.1159 34.599 19.8636 37.161 20.3552 39.6328C20.8469 42.1045 22.0604 44.375 23.8425 46.157C25.6245 47.939 27.8949 49.1526 30.3667 49.6442C32.8384 50.1359 35.4005 49.8836 37.7288 48.9191C40.0571 47.9547 42.0472 46.3215 43.4473 44.2261C44.8474 42.1306 45.5947 39.6671 45.5947 37.1469C45.5906 33.7687 44.2468 30.5301 41.858 28.1414C39.4693 25.7527 36.2307 24.4089 32.8526 24.4047Z" fill="#2639ED"/>
<path d="M32.8526 45.0533C31.2911 45.0533 29.7647 44.5902 28.4664 43.7227C27.1682 42.8552 26.1563 41.6223 25.5587 40.1797C24.9612 38.7371 24.8048 37.1497 25.1095 35.6183C25.4141 34.0868 26.166 32.6801 27.2701 31.576C28.3742 30.4719 29.7809 29.72 31.3124 29.4154C32.8438 29.1107 34.4312 29.2671 35.8738 29.8646C37.3163 30.4622 38.5493 31.4741 39.4168 32.7724C40.2843 34.0706 40.7473 35.597 40.7473 37.1585C40.7473 38.1952 40.5431 39.2218 40.1464 40.1797C39.7496 41.1375 39.1681 42.0078 38.435 42.7409C37.7019 43.474 36.8316 44.0555 35.8738 44.4523C34.9159 44.849 33.8893 45.0533 32.8526 45.0533ZM32.8526 30.3163C31.5052 30.3163 30.188 30.7157 29.0675 31.4639C27.947 32.2121 27.0734 33.2757 26.5571 34.5202C26.0407 35.7647 25.9048 37.1343 26.1666 38.4561C26.4283 39.7778 27.0758 40.9923 28.0275 41.9461C28.9791 42.8999 30.1921 43.5503 31.5132 43.8151C32.8343 44.0799 34.2042 43.9471 35.4499 43.4337C36.6956 42.9202 37.7612 42.0491 38.512 40.9303C39.2629 39.8115 39.6653 38.4953 39.6684 37.1479C39.6615 35.3424 38.9411 33.6128 37.6644 32.3361C36.3877 31.0594 34.6581 30.339 32.8526 30.3321V30.3163Z" fill="#2639ED"/>
<path d="M33.3999 19.2891H32.3052V31.826H33.3999V19.2891Z" fill="#2639ED"/>
<path d="M27.5367 36.5996H14.9998V37.6944H27.5367V36.5996Z" fill="#2639ED"/>
<path d="M33.3999 42.4629H32.3052V54.9998H33.3999V42.4629Z" fill="#2639ED"/>
<path d="M50.7053 36.5996H38.1684V37.6944H50.7053V36.5996Z" fill="#2639ED"/>
<path d="M32.8526 39.7383C32.3391 39.7383 31.8373 39.586 31.4104 39.3007C30.9836 39.0153 30.6511 38.6098 30.4548 38.1353C30.2586 37.6609 30.2075 37.1389 30.3081 36.6354C30.4086 36.132 30.6563 35.6696 31.0197 35.307C31.3831 34.9443 31.8459 34.6976 32.3496 34.598C32.8533 34.4985 33.3751 34.5507 33.8492 34.7479C34.3232 34.9451 34.7281 35.2784 35.0126 35.7058C35.2971 36.1332 35.4484 36.6354 35.4473 37.1488C35.4459 37.8361 35.1719 38.4947 34.6855 38.9802C34.199 39.4657 33.5398 39.7383 32.8526 39.7383ZM32.8526 35.6488C32.5559 35.6488 32.2659 35.7368 32.0192 35.9016C31.7725 36.0665 31.5803 36.3007 31.4667 36.5748C31.3532 36.8489 31.3235 37.1505 31.3814 37.4415C31.4393 37.7325 31.5821 37.9997 31.7919 38.2095C32.0017 38.4193 32.269 38.5622 32.5599 38.62C32.8509 38.6779 33.1525 38.6482 33.4266 38.5347C33.7007 38.4211 33.935 38.2289 34.0998 37.9822C34.2646 37.7355 34.3526 37.4455 34.3526 37.1488C34.3526 36.751 34.1945 36.3695 33.9132 36.0882C33.6319 35.8069 33.2504 35.6488 32.8526 35.6488Z" fill="#2639ED"/>
</svg>
