<svg width="70" height="70" viewBox="0 0 70 70" fill="none" xmlns="http://www.w3.org/2000/svg">
<rect width="70" height="70" rx="5.25" fill="#DFEEFF"/>
<path d="M47.6926 24.3333H43.6844V17.6667C43.6836 16.9596 43.4019 16.2818 42.9009 15.7818C42.3999 15.2819 41.7207 15.0007 41.0122 15H22.3069C21.5985 15.0007 20.9192 15.2819 20.4182 15.7818C19.9172 16.2818 19.6355 16.9596 19.6348 17.6667V52.3333C19.6355 53.0404 19.9172 53.7182 20.4182 54.2182C20.9192 54.7181 21.5985 54.9993 22.3069 55H41.0122C41.7207 54.9993 42.3999 54.7181 42.9009 54.2182C43.4019 53.7182 43.6836 53.0404 43.6844 52.3333V47H47.6926C48.4011 46.9993 49.0804 46.7181 49.5814 46.2182C50.0823 45.7182 50.3641 45.0404 50.3648 44.3333V27C50.3641 26.293 50.0823 25.6151 49.5814 25.1152C49.0804 24.6152 48.4011 24.334 47.6926 24.3333ZM34.9998 16.3333V17C34.9997 17.1768 34.9292 17.3463 34.804 17.4713C34.6787 17.5963 34.5089 17.6665 34.3317 17.6667H28.9874C28.8102 17.6665 28.6404 17.5963 28.5151 17.4713C28.3899 17.3463 28.3195 17.1768 28.3193 17V16.3333H34.9998ZM42.3483 52.3333C42.3478 52.6868 42.2069 53.0257 41.9564 53.2756C41.706 53.5256 41.3664 53.6662 41.0122 53.6667H22.3069C21.9527 53.6662 21.6132 53.5256 21.3627 53.2756C21.1122 53.0257 20.9713 52.6868 20.9709 52.3333V17.6667C20.9713 17.3132 21.1122 16.9743 21.3627 16.7244C21.6132 16.4744 21.9527 16.3338 22.3069 16.3333H26.9833V17C26.9838 17.5303 27.1952 18.0386 27.5709 18.4136C27.9466 18.7885 28.456 18.9994 28.9874 19H34.3317C34.8631 18.9994 35.3725 18.7885 35.7482 18.4136C36.124 18.0386 36.3353 17.5303 36.3359 17V16.3333H41.0122C41.3664 16.3338 41.706 16.4744 41.9564 16.7244C42.2069 16.9743 42.3478 17.3132 42.3483 17.6667V24.3333H24.9791C24.2706 24.334 23.5914 24.6152 23.0904 25.1152C22.5894 25.6151 22.3076 26.293 22.3069 27V44.3333C22.3076 45.0404 22.5894 45.7182 23.0904 46.2182C23.5914 46.7181 24.2706 46.9993 24.9791 47H42.3483V52.3333ZM49.0287 44.3333C49.0282 44.6868 48.8873 45.0257 48.6369 45.2756C48.3864 45.5256 48.0468 45.6662 47.6926 45.6667H24.9791C24.6249 45.6662 24.2853 45.5256 24.0349 45.2756C23.7844 45.0257 23.6435 44.6868 23.643 44.3333V27C23.6435 26.6465 23.7844 26.3076 24.0349 26.0577C24.2853 25.8077 24.6249 25.6671 24.9791 25.6667H47.6926C48.0468 25.6671 48.3864 25.8077 48.6369 26.0577C48.8873 26.3076 49.0282 26.6465 49.0287 27V44.3333Z" fill="#2639ED"/>
<path d="M31.8553 36.1391C31.9814 36.2601 32.15 36.3269 32.3249 36.3251C32.4998 36.3234 32.667 36.2533 32.7907 36.1299C32.9144 36.0065 32.9846 35.8396 32.9863 35.665C32.9881 35.4905 32.9211 35.3222 32.7999 35.1964L29.932 32.3345L32.8 29.4725C32.9212 29.3466 32.9881 29.1784 32.9863 29.0039C32.9846 28.8293 32.9144 28.6624 32.7907 28.539C32.667 28.4156 32.4997 28.3455 32.3249 28.3438C32.15 28.3421 31.9814 28.4089 31.8553 28.5298L28.5151 31.8631C28.453 31.925 28.4038 31.9985 28.3702 32.0794C28.3366 32.1603 28.3193 32.247 28.3193 32.3345C28.3193 32.422 28.3366 32.5087 28.3702 32.5896C28.4038 32.6705 28.453 32.744 28.5151 32.8059L31.8553 36.1391Z" fill="#2639ED"/>
<path d="M40.8161 28.5298C40.69 28.4088 40.5214 28.3421 40.3465 28.3438C40.1716 28.3455 40.0044 28.4156 39.8807 28.539C39.7571 28.6625 39.6868 28.8294 39.6851 29.0039C39.6834 29.1784 39.7503 29.3467 39.8715 29.4725L42.7394 32.3344L39.8715 35.1964C39.8088 35.2582 39.759 35.3317 39.7249 35.4128C39.6908 35.4938 39.6731 35.5808 39.6729 35.6687C39.6726 35.7566 39.6897 35.8436 39.7233 35.9249C39.7569 36.0061 39.8062 36.08 39.8685 36.1421C39.9308 36.2043 40.0048 36.2535 40.0862 36.287C40.1676 36.3205 40.2549 36.3376 40.3429 36.3373C40.431 36.3371 40.5182 36.3194 40.5994 36.2854C40.6806 36.2514 40.7542 36.2017 40.8161 36.1391L44.1563 32.8058C44.2184 32.7439 44.2676 32.6704 44.3012 32.5895C44.3348 32.5087 44.3521 32.422 44.3521 32.3344C44.3521 32.2469 44.3348 32.1602 44.3012 32.0793C44.2676 31.9984 44.2184 31.925 44.1563 31.8631L40.8161 28.5298Z" fill="#2639ED"/>
<path d="M38.6031 27.0539C38.5225 27.0194 38.4358 27.0011 38.3481 27C38.2604 26.999 38.1733 27.0152 38.0919 27.0477C38.0105 27.0802 37.9363 27.1285 37.8735 27.1896C37.8108 27.2508 37.7607 27.3237 37.7263 27.4042L33.718 36.7375C33.6835 36.818 33.6652 36.9044 33.6641 36.9919C33.6631 37.0795 33.6793 37.1663 33.7119 37.2476C33.7445 37.3288 33.7928 37.4029 33.8541 37.4655C33.9153 37.5281 33.9884 37.5781 34.069 37.6125C34.1496 37.647 34.2362 37.6653 34.3239 37.6663C34.4116 37.6673 34.4987 37.6511 34.5801 37.6186C34.6615 37.5861 34.7357 37.5379 34.7984 37.4767C34.8612 37.4156 34.9113 37.3427 34.9458 37.2623L38.954 27.9289C38.9886 27.8485 39.0069 27.762 39.008 27.6745C39.009 27.587 38.9928 27.5001 38.9602 27.4189C38.9276 27.3376 38.8793 27.2636 38.818 27.2009C38.7567 27.1383 38.6837 27.0884 38.6031 27.0539Z" fill="#2639ED"/>
<path d="M34.332 39.668H26.3155C26.1383 39.668 25.9684 39.7382 25.8431 39.8632C25.7178 39.9883 25.6475 40.1578 25.6475 40.3346C25.6475 40.5114 25.7178 40.681 25.8431 40.806C25.9684 40.9311 26.1383 41.0013 26.3155 41.0013H34.332C34.5076 40.9988 34.6751 40.9275 34.7983 40.8027C34.9216 40.678 34.9907 40.5098 34.9907 40.3346C34.9907 40.1594 34.9216 39.9913 34.7983 39.8665C34.6751 39.7418 34.5076 39.6704 34.332 39.668Z" fill="#2639ED"/>
<path d="M31.6593 42.332H26.3149C26.1394 42.3345 25.9719 42.4058 25.8486 42.5306C25.7254 42.6553 25.6562 42.8235 25.6562 42.9987C25.6562 43.1739 25.7254 43.342 25.8486 43.4668C25.9719 43.5916 26.1394 43.6629 26.3149 43.6654H31.6593C31.8348 43.6629 32.0023 43.5916 32.1256 43.4668C32.2488 43.342 32.3179 43.1739 32.3179 42.9987C32.3179 42.8235 32.2488 42.6553 32.1256 42.5306C32.0023 42.4058 31.8348 42.3345 31.6593 42.332Z" fill="#2639ED"/>
<path d="M28.9878 52.3333H34.3321C34.5077 52.3309 34.6752 52.2595 34.7984 52.1348C34.9217 52.01 34.9908 51.8419 34.9908 51.6667C34.9908 51.4915 34.9217 51.3233 34.7984 51.1986C34.6752 51.0738 34.5077 51.0025 34.3321 51H28.9878C28.8122 51.0025 28.6447 51.0738 28.5215 51.1986C28.3982 51.3233 28.3291 51.4915 28.3291 51.6667C28.3291 51.8419 28.3982 52.01 28.5215 52.1348C28.6447 52.2595 28.8122 52.3309 28.9878 52.3333Z" fill="#2639ED"/>
</svg>
