<svg width="70" height="70" viewBox="0 0 70 70" fill="none" xmlns="http://www.w3.org/2000/svg">
<rect width="70" height="70" rx="5.25" fill="#DFEEFF"/>
<path d="M55.4931 15H14.5071C13.9867 15.0005 13.4878 15.2075 13.1199 15.5754C12.7519 15.9434 12.545 16.4423 12.5444 16.9626V53.0374C12.545 53.5577 12.7519 54.0566 13.1199 54.4246C13.4878 54.7925 13.9867 54.9995 14.5071 55H55.4931C56.0135 54.9995 56.5124 54.7925 56.8803 54.4246C57.2483 54.0566 57.4552 53.5577 57.4557 53.0374V16.9626C57.4552 16.4423 57.2483 15.9434 56.8803 15.5754C56.5124 15.2075 56.0135 15.0005 55.4931 15ZM14.5071 16.1976H55.4931C55.6966 16.1979 55.8916 16.2788 56.0355 16.4227C56.1794 16.5666 56.2603 16.7617 56.2606 16.9651V23.4229H13.7421V16.9626C13.7423 16.7596 13.8229 16.5649 13.9663 16.4211C14.1096 16.2773 14.304 16.1961 14.5071 16.1951V16.1976ZM13.7421 53.0374V24.616H44.8895V53.8049H14.5071C14.304 53.8039 14.1096 53.7227 13.9663 53.5789C13.8229 53.4351 13.7423 53.2404 13.7421 53.0374ZM55.4956 53.8049H46.0852V24.616H56.2606V53.0374C56.2603 53.2408 56.1794 53.4359 56.0355 53.5798C55.8916 53.7237 55.6966 53.8046 55.4931 53.8049H55.4956ZM17.2891 19.8539C17.2891 19.6951 17.3522 19.5428 17.4645 19.4305C17.5768 19.3182 17.7291 19.2551 17.8879 19.2551H17.9138C18.0656 19.2649 18.208 19.3321 18.3121 19.4431C18.4161 19.5541 18.474 19.7005 18.474 19.8527C18.474 20.0048 18.4161 20.1512 18.3121 20.2622C18.208 20.3732 18.0656 20.4404 17.9138 20.4502H17.8879C17.7295 20.4502 17.5776 20.3875 17.4653 20.2757C17.3531 20.164 17.2897 20.0123 17.2891 19.8539ZM20.7387 19.8539C20.7387 19.6951 20.8018 19.5428 20.9141 19.4305C21.0264 19.3182 21.1788 19.2551 21.3376 19.2551H21.363C21.4447 19.2498 21.5267 19.2613 21.6038 19.289C21.6808 19.3166 21.7514 19.3598 21.8112 19.4158C21.8709 19.4718 21.9186 19.5395 21.9511 19.6146C21.9837 19.6898 22.0005 19.7708 22.0005 19.8527C22.0005 19.9346 21.9837 20.0156 21.9511 20.0907C21.9186 20.1659 21.8709 20.2335 21.8112 20.2895C21.7514 20.3455 21.6808 20.3887 21.6038 20.4163C21.5267 20.444 21.4447 20.4555 21.363 20.4502H21.3376C21.1792 20.4502 21.0272 20.3875 20.915 20.2757C20.8028 20.164 20.7394 20.0123 20.7387 19.8539ZM24.1884 19.8539C24.1884 19.6951 24.2515 19.5428 24.3638 19.4305C24.4761 19.3182 24.6284 19.2551 24.7873 19.2551H24.8127C24.8944 19.2498 24.9764 19.2613 25.0534 19.289C25.1305 19.3166 25.2011 19.3598 25.2609 19.4158C25.3206 19.4718 25.3682 19.5395 25.4008 19.6146C25.4334 19.6898 25.4502 19.7708 25.4502 19.8527C25.4502 19.9346 25.4334 20.0156 25.4008 20.0907C25.3682 20.1659 25.3206 20.2335 25.2609 20.2895C25.2011 20.3455 25.1305 20.3887 25.0534 20.4163C24.9764 20.444 24.8944 20.4555 24.8127 20.4502H24.7873C24.6289 20.4502 24.4769 20.3875 24.3647 20.2757C24.2525 20.164 24.1891 20.0123 24.1884 19.8539ZM31.0683 19.8539C31.0683 19.6951 31.1314 19.5428 31.2437 19.4305C31.356 19.3182 31.5083 19.2551 31.6672 19.2551H52.1163C52.2681 19.2649 52.4105 19.3321 52.5145 19.4431C52.6186 19.5541 52.6765 19.7005 52.6765 19.8527C52.6765 20.0048 52.6186 20.1512 52.5145 20.2622C52.4105 20.3732 52.2681 20.4404 52.1163 20.4502H31.6662C31.508 20.45 31.3563 20.3871 31.2443 20.2754C31.1322 20.1636 31.069 20.0121 31.0683 19.8539ZM41.4533 48.6925C41.4533 48.8513 41.3902 49.0036 41.2779 49.1159C41.1656 49.2282 41.0133 49.2913 40.8545 49.2913H17.9133C17.7545 49.2913 17.6022 49.2282 17.4899 49.1159C17.3776 49.0036 17.3145 48.8513 17.3145 48.6925C17.3145 48.5336 17.3776 48.3813 17.4899 48.269C17.6022 48.1567 17.7545 48.0936 17.9133 48.0936H40.8555C41.0142 48.0939 41.1662 48.1571 41.2783 48.2694C41.3904 48.3817 41.4533 48.5338 41.4533 48.6925ZM41.4533 44.0327C41.4533 44.1915 41.3902 44.3438 41.2779 44.4561C41.1656 44.5684 41.0133 44.6315 40.8545 44.6315H17.9133C17.7545 44.6315 17.6022 44.5684 17.4899 44.4561C17.3776 44.3438 17.3145 44.1915 17.3145 44.0327C17.3145 43.8738 17.3776 43.7215 17.4899 43.6092C17.6022 43.4969 17.7545 43.4338 17.9133 43.4338H40.8555C41.0141 43.4341 41.1661 43.4972 41.2781 43.6094C41.3902 43.7216 41.4532 43.8741 41.4533 44.0327ZM41.4533 39.3729C41.4533 39.5317 41.3902 39.684 41.2779 39.7963C41.1656 39.9086 41.0133 39.9717 40.8545 39.9717H32.9566C32.878 39.9717 32.8001 39.9562 32.7275 39.9261C32.6548 39.896 32.5888 39.8519 32.5332 39.7963C32.4776 39.7407 32.4335 39.6747 32.4034 39.602C32.3733 39.5294 32.3578 39.4515 32.3578 39.3729C32.3578 39.2942 32.3733 39.2164 32.4034 39.1437C32.4335 39.0711 32.4776 39.005 32.5332 38.9494C32.5888 38.8938 32.6548 38.8497 32.7275 38.8196C32.8001 38.7895 32.878 38.774 32.9566 38.774H40.8555C41.0142 38.7743 41.1662 38.8375 41.2783 38.9498C41.3904 39.0621 41.4533 39.2142 41.4533 39.3729ZM41.4533 34.7131C41.4533 34.8719 41.3902 35.0242 41.2779 35.1365C41.1656 35.2488 41.0133 35.3119 40.8545 35.3119H32.9566C32.7978 35.3119 32.6455 35.2488 32.5332 35.1365C32.4209 35.0242 32.3578 34.8719 32.3578 34.7131C32.3578 34.5542 32.4209 34.4019 32.5332 34.2896C32.6455 34.1773 32.7978 34.1142 32.9566 34.1142H40.8555C41.0142 34.1145 41.1662 34.1777 41.2783 34.29C41.3904 34.4023 41.4533 34.5544 41.4533 34.7131ZM32.3588 30.0528C32.3588 29.894 32.4219 29.7416 32.5342 29.6293C32.6465 29.517 32.7988 29.454 32.9576 29.454H40.8555C40.9372 29.4487 41.0192 29.4602 41.0963 29.4878C41.1733 29.5155 41.2439 29.5586 41.3037 29.6146C41.3634 29.6707 41.4111 29.7383 41.4436 29.8135C41.4762 29.8886 41.493 29.9696 41.493 30.0515C41.493 30.1334 41.4762 30.2144 41.4436 30.2896C41.4111 30.3647 41.3634 30.4324 41.3037 30.4884C41.2439 30.5444 41.1733 30.5876 41.0963 30.6152C41.0192 30.6428 40.9372 30.6544 40.8555 30.6491H32.9566C32.7984 30.6488 32.6467 30.586 32.5347 30.4742C32.4227 30.3625 32.3595 30.211 32.3588 30.0528ZM17.9133 39.9707H29.461C29.5397 39.9707 29.6175 39.9552 29.6902 39.9251C29.7628 39.895 29.8288 39.8509 29.8844 39.7953C29.9401 39.7397 29.9842 39.6737 30.0143 39.601C30.0443 39.5284 30.0598 39.4505 30.0598 39.3719V30.0528C30.0598 29.9741 30.0443 29.8963 30.0143 29.8236C29.9842 29.751 29.9401 29.6849 29.8844 29.6293C29.8288 29.5737 29.7628 29.5296 29.6902 29.4995C29.6175 29.4694 29.5397 29.454 29.461 29.454H17.9133C17.7545 29.454 17.6022 29.517 17.4899 29.6293C17.3776 29.7416 17.3145 29.894 17.3145 30.0528V39.3729C17.3148 39.5315 17.378 39.6836 17.4903 39.7956C17.6025 39.9077 17.7547 39.9707 17.9133 39.9707ZM18.5121 38.773V37.0959L21.6994 34.8004L22.9594 35.9481L22.9629 35.9506L24.0457 36.9372C24.1026 36.9958 24.171 37.0422 24.2465 37.0734C24.3221 37.1047 24.4032 37.1201 24.4849 37.1188C24.5666 37.1175 24.6472 37.0995 24.7217 37.0659C24.7962 37.0323 24.8631 36.9837 24.9181 36.9233C24.9732 36.8629 25.0152 36.7918 25.0418 36.7145C25.0683 36.6372 25.0787 36.5553 25.0724 36.4738C25.0661 36.3923 25.0432 36.3129 25.005 36.2406C24.9669 36.1684 24.9143 36.1046 24.8506 36.0534L24.385 35.6293L26.2174 34.5958L28.8622 36.0285V38.773H18.5121ZM28.8622 30.6506V34.6692L26.4984 33.3877C26.4095 33.3396 26.3099 33.3148 26.2089 33.3156C26.1078 33.3164 26.0086 33.3427 25.9205 33.3922L23.4529 34.7799L22.145 33.5888C22.0436 33.4967 21.9136 33.4421 21.7769 33.4342C21.6401 33.4263 21.5048 33.4656 21.3935 33.5454L18.5111 35.6203V30.6506H28.8622ZM53.6632 32.5084H48.4874C48.3286 32.5084 48.1763 32.5715 48.064 32.6838C47.9517 32.7961 47.8886 32.9484 47.8886 33.1072V39.3729C47.8886 39.5317 47.9517 39.684 48.064 39.7963C48.1763 39.9086 48.3286 39.9717 48.4874 39.9717H53.6632C53.822 39.9717 53.9743 39.9086 54.0866 39.7963C54.1989 39.684 54.262 39.5317 54.262 39.3729V33.1062C54.2618 32.9476 54.1986 32.7955 54.0863 32.6835C53.974 32.5714 53.8219 32.5084 53.6632 32.5084ZM53.0644 38.775H49.0853V33.7026H53.0644V38.775ZM54.262 30.0528C54.262 30.2116 54.1989 30.3639 54.0866 30.4762C53.9743 30.5885 53.822 30.6516 53.6632 30.6516H48.4874C48.4057 30.6569 48.3238 30.6453 48.2467 30.6177C48.1696 30.5901 48.099 30.5469 48.0393 30.4909C47.9795 30.4349 47.9319 30.3672 47.8993 30.2921C47.8668 30.2169 47.85 30.1359 47.85 30.054C47.85 29.9721 47.8668 29.8911 47.8993 29.816C47.9319 29.7408 47.9795 29.6732 48.0393 29.6171C48.099 29.5611 48.1696 29.518 48.2467 29.4903C48.3238 29.4627 48.4057 29.4512 48.4874 29.4564H53.6632C53.8216 29.4564 53.9735 29.5192 54.0858 29.631C54.198 29.7427 54.2614 29.8944 54.262 30.0528ZM54.262 44.0327C54.262 44.1915 54.1989 44.3438 54.0866 44.4561C53.9743 44.5684 53.822 44.6315 53.6632 44.6315H48.4874C48.3286 44.6315 48.1763 44.5684 48.064 44.4561C47.9517 44.3438 47.8886 44.1915 47.8886 44.0327C47.8886 43.8738 47.9517 43.7215 48.064 43.6092C48.1763 43.4969 48.3286 43.4338 48.4874 43.4338H53.6632C53.822 43.4338 53.9742 43.4969 54.0865 43.6091C54.1988 43.7212 54.2619 43.8739 54.262 44.0327ZM54.262 48.6925C54.262 48.8513 54.1989 49.0036 54.0866 49.1159C53.9743 49.2282 53.822 49.2913 53.6632 49.2913H48.4874C48.3286 49.2913 48.1763 49.2282 48.064 49.1159C47.9517 49.0036 47.8886 48.8513 47.8886 48.6925C47.8886 48.5336 47.9517 48.3813 48.064 48.269C48.1763 48.1567 48.3286 48.0936 48.4874 48.0936H53.6632C53.822 48.0936 53.9743 48.1567 54.0866 48.269C54.1989 48.3813 54.262 48.5336 54.262 48.6925Z" fill="#2639ED"/>
</svg>
