<svg width="70" height="70" viewBox="0 0 70 70" fill="none" xmlns="http://www.w3.org/2000/svg">
<rect width="70" height="70" rx="5.25" fill="#DFEEFF"/>
<path d="M42.1212 55.0013H27.8308C27.6399 55.0013 27.457 54.9256 27.322 54.7906C27.1871 54.6557 27.1113 54.4727 27.1113 54.2819C27.1113 54.0911 27.1871 53.9081 27.322 53.7732C27.457 53.6383 27.6399 53.5625 27.8308 53.5625H42.1212C42.312 53.5625 42.495 53.6383 42.6299 53.7732C42.7648 53.9081 42.8406 54.0911 42.8406 54.2819C42.8406 54.4727 42.7648 54.6557 42.6299 54.7906C42.495 54.9256 42.312 55.0013 42.1212 55.0013Z" fill="#2639ED"/>
<path d="M53.0755 45.6068H16.9245C16.7337 45.6068 16.5507 45.531 16.4158 45.3961C16.2809 45.2612 16.2051 45.0782 16.2051 44.8874C16.2051 44.6966 16.2809 44.5136 16.4158 44.3787C16.5507 44.2438 16.7337 44.168 16.9245 44.168H53.0755C53.2663 44.168 53.4493 44.2438 53.5842 44.3787C53.7191 44.5136 53.7949 44.6966 53.7949 44.8874C53.7949 45.0782 53.7191 45.2612 53.5842 45.3961C53.4493 45.531 53.2663 45.6068 53.0755 45.6068Z" fill="#2639ED"/>
<path d="M42.3184 47.7513H41.3049C41.1141 47.7513 40.9311 47.6756 40.7962 47.5406C40.6612 47.4057 40.5854 47.2227 40.5854 47.0319C40.5854 46.8411 40.6612 46.6581 40.7962 46.5232C40.9311 46.3883 41.1141 46.3125 41.3049 46.3125H42.3184C42.5092 46.3125 42.6922 46.3883 42.8271 46.5232C42.962 46.6581 43.0378 46.8411 43.0378 47.0319C43.0378 47.2227 42.962 47.4057 42.8271 47.5406C42.6922 47.6756 42.5092 47.7513 42.3184 47.7513Z" fill="#2639ED"/>
<path d="M45.9965 47.7513H44.9821C44.7913 47.7513 44.6083 47.6756 44.4734 47.5406C44.3385 47.4057 44.2627 47.2227 44.2627 47.0319C44.2627 46.8411 44.3385 46.6581 44.4734 46.5232C44.6083 46.3883 44.7913 46.3125 44.9821 46.3125H45.9956C46.1864 46.3125 46.3694 46.3883 46.5043 46.5232C46.6392 46.6581 46.715 46.8411 46.715 47.0319C46.715 47.2227 46.6392 47.4057 46.5043 47.5406C46.3694 47.6756 46.1864 47.7513 45.9956 47.7513H45.9965Z" fill="#2639ED"/>
<path d="M49.6746 47.7513H48.59C48.3992 47.7513 48.2162 47.6756 48.0813 47.5406C47.9464 47.4057 47.8706 47.2227 47.8706 47.0319C47.8706 46.8411 47.9464 46.6581 48.0813 46.5232C48.2162 46.3883 48.3992 46.3125 48.59 46.3125H49.6746C49.8654 46.3125 50.0484 46.3883 50.1833 46.5232C50.3182 46.6581 50.394 46.8411 50.394 47.0319C50.394 47.2227 50.3182 47.4057 50.1833 47.5406C50.0484 47.6756 49.8654 47.7513 49.6746 47.7513Z" fill="#2639ED"/>
<path d="M30.7871 55.001C30.6784 55.0011 30.571 54.9766 30.4731 54.9292C30.3752 54.8818 30.2892 54.8129 30.2218 54.7276C30.1544 54.6422 30.1072 54.5427 30.0838 54.4365C30.0603 54.3302 30.0613 54.2201 30.0866 54.1143L31.3078 49.0127C31.3299 48.9208 31.3698 48.8342 31.4253 48.7577C31.4808 48.6813 31.5508 48.6165 31.6313 48.5671C31.7119 48.5177 31.8014 48.4846 31.8947 48.4698C31.988 48.455 32.0833 48.4587 32.1752 48.4808C32.2671 48.5028 32.3537 48.5427 32.4302 48.5982C32.5066 48.6537 32.5714 48.7237 32.6208 48.8043C32.6702 48.8848 32.7032 48.9743 32.718 49.0676C32.7328 49.1609 32.7291 49.2562 32.7071 49.3481L31.4859 54.4488C31.4483 54.6059 31.359 54.7459 31.2322 54.846C31.1055 54.9462 30.9487 55.0008 30.7871 55.001Z" fill="#2639ED"/>
<path d="M39.2131 55.001C39.0471 55.0012 38.8862 54.9441 38.7575 54.8392C38.6288 54.7343 38.5404 54.5881 38.5072 54.4255L37.4685 49.3239C37.4497 49.2313 37.4493 49.1359 37.4673 49.0431C37.4853 48.9504 37.5215 48.8621 37.5736 48.7833C37.6789 48.6242 37.8432 48.5134 38.0301 48.4754C38.2171 48.4373 38.4116 48.4751 38.5707 48.5805C38.7298 48.6858 38.8406 48.85 38.8786 49.037L39.9191 54.1377C39.9404 54.2423 39.9382 54.3504 39.9126 54.454C39.8871 54.5577 39.8387 54.6543 39.7711 54.737C39.7035 54.8196 39.6184 54.8862 39.5219 54.9319C39.4254 54.9775 39.3199 55.0012 39.2131 55.001Z" fill="#2639ED"/>
<path d="M51.8165 49.9006H18.1835C17.9218 49.9057 17.6617 49.8579 17.4189 49.7599C17.1761 49.6619 16.9556 49.5158 16.7708 49.3304C16.586 49.145 16.4406 48.924 16.3434 48.681C16.2461 48.4379 16.1991 48.1776 16.2051 47.9159V27.335C16.2051 26.2001 17.0756 25.3125 18.188 25.3125H22.134C22.3248 25.3125 22.5078 25.3883 22.6428 25.5232C22.7777 25.6581 22.8535 25.8411 22.8535 26.0319C22.8535 26.2227 22.7777 26.4057 22.6428 26.5406C22.5078 26.6756 22.3248 26.7513 22.134 26.7513H18.1835C17.7537 26.7513 17.6394 27.1183 17.6394 27.335V47.9159C17.6394 48.0795 17.6925 48.4617 18.1835 48.4617H51.8165C51.8888 48.4641 51.9608 48.4516 52.028 48.425C52.0952 48.3984 52.1562 48.3583 52.2072 48.3071C52.2583 48.2559 52.2982 48.1947 52.3246 48.1274C52.351 48.0601 52.3632 47.9881 52.3606 47.9159V27.335C52.3606 27.0526 52.1421 26.7513 51.8165 26.7513H47.8696C47.6788 26.7513 47.4958 26.6756 47.3609 26.5406C47.226 26.4057 47.1502 26.2227 47.1502 26.0319C47.1502 25.8411 47.226 25.6581 47.3609 25.5232C47.4958 25.3883 47.6788 25.3125 47.8696 25.3125H51.8165C52.3468 25.3194 52.8527 25.5361 53.2235 25.9151C53.5943 26.2942 53.7998 26.8047 53.795 27.335V47.9159C53.7978 48.1768 53.7487 48.4356 53.6503 48.6773C53.552 48.919 53.4065 49.1387 53.2223 49.3235C53.0381 49.5082 52.8189 49.6545 52.5775 49.7536C52.3362 49.8527 52.0775 49.9026 51.8165 49.9006Z" fill="#2639ED"/>
<path d="M45.7285 40.2547H24.2717C23.5131 40.2535 22.7859 39.9515 22.2497 39.4149C21.7134 38.8783 21.4118 38.1509 21.4111 37.3923V21.1882C21.4111 20.9974 21.4869 20.8144 21.6218 20.6795C21.7568 20.5445 21.9398 20.4688 22.1306 20.4688H47.8697C48.0605 20.4688 48.2435 20.5445 48.3784 20.6795C48.5133 20.8144 48.5891 20.9974 48.5891 21.1882V37.3923C48.5884 38.1509 48.2869 38.8783 47.7506 39.4149C47.2143 39.9515 46.4872 40.2535 45.7285 40.2547ZM22.85 21.9094V37.3923C22.8502 37.7694 23 38.1311 23.2666 38.398C23.5331 38.6649 23.8946 38.8151 24.2717 38.8158H45.7285C46.1057 38.8151 46.4672 38.6649 46.7337 38.398C47.0002 38.1311 47.1501 37.7694 47.1503 37.3923V21.9076L22.85 21.9094Z" fill="#2639ED"/>
<path d="M47.8697 21.9065C47.6789 21.9065 47.4959 21.8307 47.361 21.6957C47.2261 21.5608 47.1503 21.3778 47.1503 21.187V17.8597C47.1493 17.483 46.9992 17.122 46.7328 16.8557C46.4663 16.5895 46.1052 16.4396 45.7285 16.4388H24.2717C23.8946 16.4396 23.5331 16.5898 23.2666 16.8567C23 17.1236 22.8502 17.4852 22.85 17.8624V21.1897C22.85 21.3805 22.7742 21.5635 22.6393 21.6984C22.5043 21.8334 22.3214 21.9092 22.1306 21.9092C21.9398 21.9092 21.7568 21.8334 21.6218 21.6984C21.4869 21.5635 21.4111 21.3805 21.4111 21.1897V17.8624C21.4118 17.1038 21.7134 16.3764 22.2497 15.8398C22.7859 15.3032 23.5131 15.0012 24.2717 15H45.7285C46.4872 15.0012 47.2143 15.3032 47.7506 15.8398C48.2869 16.3764 48.5884 17.1038 48.5891 17.8624V21.1897C48.5884 21.3801 48.5123 21.5624 48.3775 21.6967C48.2426 21.831 48.0601 21.9065 47.8697 21.9065Z" fill="#2639ED"/>
<path d="M45.3318 19.1732H43.509C43.3182 19.1732 43.1352 19.0974 43.0003 18.9625C42.8653 18.8276 42.7896 18.6446 42.7896 18.4538C42.7896 18.263 42.8653 18.08 43.0003 17.9451C43.1352 17.8102 43.3182 17.7344 43.509 17.7344H45.3318C45.5226 17.7344 45.7056 17.8102 45.8405 17.9451C45.9754 18.08 46.0512 18.263 46.0512 18.4538C46.0512 18.6446 45.9754 18.8276 45.8405 18.9625C45.7056 19.0974 45.5226 19.1732 45.3318 19.1732Z" fill="#2639ED"/>
<path d="M41.2435 19.1732H39.4216C39.2308 19.1732 39.0478 19.0974 38.9129 18.9625C38.7779 18.8276 38.7021 18.6446 38.7021 18.4538C38.7021 18.263 38.7779 18.08 38.9129 17.9451C39.0478 17.8102 39.2308 17.7344 39.4216 17.7344H41.2435C41.4343 17.7344 41.6173 17.8102 41.7522 17.9451C41.8871 18.08 41.9629 18.263 41.9629 18.4538C41.9629 18.6446 41.8871 18.8276 41.7522 18.9625C41.6173 19.0974 41.4343 19.1732 41.2435 19.1732Z" fill="#2639ED"/>
<path d="M35.8894 19.1732H24.6682C24.4774 19.1732 24.2944 19.0974 24.1594 18.9625C24.0245 18.8276 23.9487 18.6446 23.9487 18.4538C23.9487 18.263 24.0245 18.08 24.1594 17.9451C24.2944 17.8102 24.4774 17.7344 24.6682 17.7344H35.8894C36.0802 17.7344 36.2631 17.8102 36.3981 17.9451C36.533 18.08 36.6088 18.263 36.6088 18.4538C36.6088 18.6446 36.533 18.8276 36.3981 18.9625C36.2631 19.0974 36.0802 19.1732 35.8894 19.1732Z" fill="#2639ED"/>
<path d="M45.2664 37.2936H24.7341C24.5433 37.2936 24.3603 37.2178 24.2254 37.0829C24.0904 36.9479 24.0146 36.765 24.0146 36.5742V32.0202C24.0146 31.8294 24.0904 31.6464 24.2254 31.5115C24.3603 31.3766 24.5433 31.3008 24.7341 31.3008H45.2664C45.4572 31.3008 45.6402 31.3766 45.7751 31.5115C45.91 31.6464 45.9858 31.8294 45.9858 32.0202V36.5742C45.9858 36.765 45.91 36.9479 45.7751 37.0829C45.6402 37.2178 45.4572 37.2936 45.2664 37.2936ZM25.4535 35.8547H44.547V32.7396H25.4535V35.8547Z" fill="#2639ED"/>
<path d="M32.001 30.4058C31.1135 30.4043 30.2628 30.051 29.6355 29.4231C29.0082 28.7953 28.6555 27.9443 28.6548 27.0568V24.0515C28.6548 23.8607 28.7306 23.6777 28.8655 23.5427C29.0004 23.4078 29.1834 23.332 29.3742 23.332C29.565 23.332 29.748 23.4078 29.8829 23.5427C30.0178 23.6777 30.0936 23.8607 30.0936 24.0515V27.0568C30.0881 27.3107 30.1334 27.5632 30.2267 27.7994C30.3201 28.0356 30.4597 28.2507 30.6373 28.4322C30.8149 28.6138 31.027 28.758 31.2611 28.8565C31.4952 28.9549 31.7466 29.0056 32.0006 29.0056C32.2545 29.0056 32.5059 28.9549 32.74 28.8565C32.9741 28.758 33.1862 28.6138 33.3638 28.4322C33.5415 28.2507 33.681 28.0356 33.7744 27.7994C33.8677 27.5632 33.913 27.3107 33.9075 27.0568V24.0515C33.9075 23.8607 33.9833 23.6777 34.1182 23.5427C34.2531 23.4078 34.4361 23.332 34.6269 23.332C34.8177 23.332 35.0007 23.4078 35.1356 23.5427C35.2705 23.6777 35.3463 23.8607 35.3463 24.0515V27.0568C35.3456 27.9442 34.993 28.795 34.3659 29.4228C33.7388 30.0506 32.8883 30.4041 32.001 30.4058Z" fill="#2639ED"/>
<path d="M40.6258 24.7709H37.3381C37.1473 24.7709 36.9643 24.6951 36.8294 24.5602C36.6944 24.4252 36.6187 24.2423 36.6187 24.0515C36.6187 23.8607 36.6944 23.6777 36.8294 23.5427C36.9643 23.4078 37.1473 23.332 37.3381 23.332H40.6231C40.8139 23.332 40.9969 23.4078 41.1319 23.5427C41.2668 23.6777 41.3426 23.8607 41.3426 24.0515C41.3426 24.2423 41.2668 24.4252 41.1319 24.5602C40.9969 24.6951 40.8139 24.7709 40.6231 24.7709H40.6258Z" fill="#2639ED"/>
<path d="M40.6258 30.4037H37.3381C37.1473 30.4037 36.9643 30.3279 36.8294 30.193C36.6944 30.0581 36.6187 29.8751 36.6187 29.6843C36.6187 29.4935 36.6944 29.3105 36.8294 29.1756C36.9643 29.0406 37.1473 28.9648 37.3381 28.9648H40.6231C40.8139 28.9648 40.9969 29.0406 41.1319 29.1756C41.2668 29.3105 41.3426 29.4935 41.3426 29.6843C41.3426 29.8751 41.2668 30.0581 41.1319 30.193C40.9969 30.3279 40.8139 30.4037 40.6231 30.4037H40.6258Z" fill="#2639ED"/>
<path d="M38.9831 30.4058C38.7923 30.4058 38.6093 30.33 38.4744 30.195C38.3395 30.0601 38.2637 29.8771 38.2637 29.6863V24.0515C38.2637 23.8607 38.3395 23.6777 38.4744 23.5427C38.6093 23.4078 38.7923 23.332 38.9831 23.332C39.1739 23.332 39.3569 23.4078 39.4918 23.5427C39.6267 23.6777 39.7025 23.8607 39.7025 24.0515V29.6863C39.7025 29.8771 39.6267 30.0601 39.4918 30.195C39.3569 30.33 39.1739 30.4058 38.9831 30.4058Z" fill="#2639ED"/>
</svg>
