<svg width="70" height="70" viewBox="0 0 70 70" fill="none" xmlns="http://www.w3.org/2000/svg">
<rect width="70" height="70" rx="5.25" fill="#FFF5DB"/>
<path d="M16.48 54.7019V50.0079C16.48 49.7125 16.4345 49.4759 16.3427 49.3104C16.2596 49.1606 16.1309 49.0531 15.9041 49.014C15.9037 49.0139 15.9034 49.0138 15.9031 49.0138L15.9538 48.7181C15.9172 48.7121 15.9121 48.7076 15.9087 48.7044C15.9049 48.701 15.9029 48.6992 15.862 48.6992C15.3131 48.6992 14.8763 48.7956 14.6882 49.3246L16.48 54.7019ZM16.48 54.7019H13.5849M16.48 54.7019H13.5849M13.5849 54.7019C13.6041 54.6172 13.6264 54.5197 13.6513 54.4112C13.7442 54.0072 13.874 53.4517 14.0219 52.8455C14.3191 51.6278 14.6853 50.2235 14.9707 49.4256L14.9709 49.425C15.0385 49.2349 15.1386 49.1428 15.2625 49.0873C15.3994 49.0259 15.5855 49.0008 15.8379 48.9993L13.5849 54.7019ZM15.7073 48.9268L15.7094 48.9287L15.7073 48.9268L15.7073 48.9268ZM15.8751 48.9993C15.8756 48.9994 15.8756 48.9994 15.875 48.9993L15.8751 48.9993Z" fill="#FF9900" stroke="#FFF5DB" stroke-width="0.6"/>
<path d="M31.6461 48.166L31.6461 48.166L31.647 48.1658C31.9436 48.1076 32.1227 48.1144 32.2416 48.1618C32.3432 48.2023 32.4486 48.2923 32.5462 48.5346L32.5465 48.5352C32.8998 49.4065 33.3073 51.0268 33.6295 52.4509C33.7896 53.1584 33.927 53.8103 34.0245 54.2853C34.0573 54.4453 34.0856 54.5852 34.1087 54.7003H31.2993V49.1561C31.2993 49.1329 31.2992 49.1102 31.2992 49.088C31.299 48.7862 31.2988 48.5728 31.3484 48.4113C31.3717 48.3353 31.402 48.2884 31.4376 48.256C31.473 48.2236 31.5334 48.1877 31.6461 48.166Z" fill="#FF9900" stroke="#FFF5DB" stroke-width="0.6"/>
<path d="M29.0714 36.4253L29.4633 36.101C31.4094 34.4906 32.6498 32.0685 32.6498 29.3638C32.6498 24.5363 28.6996 20.6047 23.844 20.6047C18.9839 20.6047 15.0344 24.5364 15.0344 29.3638C15.0344 32.0686 16.2743 34.4912 18.2208 36.101L18.613 36.4253L18.1394 36.6114C11.9008 39.0627 7.62724 45.6415 6.83932 54.7008H9.39293C10.2147 46.019 14.5973 39.853 20.9712 38.4224L21.1605 38.38L21.2769 38.5352L22.821 40.5939L22.8965 40.6945L22.8776 40.8189L21.2696 51.4192L29.0714 36.4253ZM29.0714 36.4253L29.5448 36.6114C35.7828 39.0627 40.0569 45.6415 40.8449 54.7002M29.0714 36.4253L40.8449 54.7002M40.8449 54.7002H38.2913C37.4757 46.0782 33.1464 39.9319 26.8421 38.4471L26.6572 38.4035L26.5388 38.552L24.8833 40.6277L24.8014 40.7303L24.8212 40.8601L26.4258 51.3677C26.4259 51.368 26.4259 51.3683 26.426 51.3687C26.4598 51.6021 26.3997 51.8414 26.2598 52.0293L26.2591 52.0303L24.5985 54.2791C24.4261 54.5125 24.1535 54.653 23.8617 54.653C23.5591 54.653 23.2591 54.5125 23.094 54.2887L23.0934 54.2878L21.4328 52.0535C21.4328 52.0535 21.4328 52.0535 21.4328 52.0534C21.2904 51.8618 21.2352 51.649 21.2695 51.4196L40.8449 54.7002ZM24.1378 35.5516L24.1274 35.5514C24.0751 35.5504 24.0233 35.5465 23.9804 35.5434C23.976 35.543 23.9717 35.5427 23.9675 35.5424C23.9192 35.5388 23.8805 35.5364 23.8434 35.5364C23.8058 35.5364 23.7671 35.5389 23.7184 35.5424L23.7065 35.5433C23.6629 35.5465 23.6101 35.5504 23.556 35.5514L23.5457 35.5516L23.5354 35.5511C20.2385 35.3872 17.5935 32.6913 17.5935 29.3632C17.5935 25.9337 20.3986 23.1478 23.8427 23.1478C27.2837 23.1478 30.0887 25.9337 30.0888 29.3631L24.1378 35.5516ZM24.1378 35.5516L24.1482 35.5511M24.1378 35.5516L24.1482 35.5511M24.1482 35.5511C27.445 35.3872 30.09 32.6913 30.0888 29.3632L24.1482 35.5511Z" fill="#FF9900" stroke="#FFF5DB" stroke-width="0.6"/>
<path d="M54.3571 42.861L54.3573 42.861C54.655 42.8031 54.8344 42.8097 54.9535 42.8571C55.0551 42.8975 55.1604 42.9872 55.2581 43.2301L55.2581 43.2301L55.2584 43.2309C55.6114 44.1022 56.0187 45.7225 56.3409 47.1466C56.5009 47.8542 56.6384 48.506 56.7358 48.9811C56.7686 49.1411 56.7969 49.2809 56.82 49.3961H54.0112V43.8513C54.0112 43.8272 54.0112 43.8036 54.0112 43.7806C54.0109 43.4804 54.0107 43.2678 54.06 43.1066C54.0833 43.0306 54.1135 42.9837 54.149 42.9512C54.1844 42.9188 54.2446 42.8829 54.3571 42.861Z" fill="#FF9900" stroke="#FFF5DB" stroke-width="0.6"/>
<path d="M51.3878 31.1192L51.7799 30.795C53.7266 29.1852 54.967 26.7632 54.967 24.0585C54.967 19.2317 51.0168 15.3 46.1599 15.3C41.3005 15.3 37.3503 19.2317 37.3503 24.0585C37.3503 26.7632 38.5908 29.1858 40.5374 30.795L40.9295 31.1192L40.456 31.3054C38.2016 32.192 36.206 33.6155 34.5384 35.4973C35.2711 35.9288 35.9771 36.4401 36.6512 37.0314C38.4739 35.0533 40.7177 33.6938 43.2877 33.1165L43.477 33.074L43.5935 33.2292L45.1376 35.2886L45.213 35.3892L45.1942 35.5135L43.5869 46.1135C43.5868 46.1137 43.5868 46.1139 43.5868 46.1141C43.5529 46.3427 43.6079 46.5569 43.7493 46.7481L51.3878 31.1192ZM51.3878 31.1192L51.8614 31.3054C58.1 33.758 62.3736 40.335 63.1615 49.3955H60.6079C59.7929 40.7729 55.4636 34.6272 49.1587 33.1424L48.9738 33.0988L48.8553 33.2474L47.2004 35.3231L47.1186 35.4257L47.1384 35.5554L48.7424 46.0625C48.7425 46.0628 48.7425 46.0631 48.7426 46.0633C48.7764 46.2956 48.7162 46.5357 48.5765 46.7218L48.575 46.7238L46.9162 48.9732C46.9161 48.9733 46.9161 48.9733 46.9161 48.9734C46.7427 49.2069 46.4696 49.3476 46.1783 49.3476C45.8754 49.3476 45.5751 49.207 45.4108 48.9837L45.4099 48.9825L43.7497 46.7486L51.3878 31.1192ZM46.4559 30.2463L46.4466 30.2461C46.3918 30.2454 46.3378 30.2413 46.2939 30.238L46.284 30.2373C46.235 30.2336 46.1967 30.231 46.1599 30.231C46.1235 30.231 46.0854 30.2336 46.0359 30.2373L46.0273 30.2379C45.9824 30.2413 45.9274 30.2454 45.8706 30.2461L45.8613 30.2462L45.852 30.2458C42.5557 30.0832 39.9108 27.3865 39.9108 24.0585C39.9108 20.6297 42.7151 17.8431 46.1593 17.8431C49.6009 17.8431 52.4066 20.6297 52.4066 24.0584L46.4559 30.2463ZM46.4559 30.2463L46.4653 30.2458M46.4559 30.2463L46.4653 30.2458M46.4653 30.2458C49.7616 30.0832 52.4072 27.3859 52.4066 24.0585L46.4653 30.2458Z" fill="#FF9900" stroke="#FFF5DB" stroke-width="0.6"/>
</svg>
