<svg width="70" height="70" viewBox="0 0 70 70" fill="none" xmlns="http://www.w3.org/2000/svg">
<rect width="70" height="70" rx="5.25" fill="#FFF5DB"/>
<path d="M39.2512 26.2C36.4535 26.2 35.2181 28.5273 35.2181 30.9636C35.2181 33.9455 37.1075 35.4364 37.1075 36.4545C37.1075 36.8909 36.7442 37.4 36.0538 37.8L31.9117 39.9818C30.7127 40.6364 31.185 43.8 31.185 43.8H47.3174C47.3174 43.8 47.9351 40.7091 46.5907 39.9818L42.485 37.8C41.7219 37.3636 41.3586 36.9273 41.3586 36.5273C41.3586 35.6182 43.2843 34.1636 43.2843 30.9273C43.2843 28.0545 41.8309 26.2 39.2512 26.2ZM29.8407 29.1455C27.5153 29.1455 26.4616 31.0364 26.4616 33.1091C26.4616 35.6182 28.0239 36.8182 28.0239 37.6909C28.0239 38.0182 27.8059 38.6 27.1519 38.9273L23.7002 40.6C22.5011 41.2182 23.0825 43.8 23.0825 43.8H28.3873C29.1503 43.8 27.7333 41.2909 29.4773 39.3273C30.5673 38.1273 33.1834 36.8909 33.1834 33.2182C33.1834 30.6727 31.948 29.1455 29.8407 29.1455ZM12.4729 55H57.5273C59.4894 55 60.4341 54.0545 60.4341 52.0909V17.9091C60.4341 15.9455 59.4894 15 57.5273 15H12.4729C10.5109 15 9.56616 15.9455 9.56616 17.9091V52.0909C9.56616 54.0545 10.5109 55 12.4729 55ZM13.1996 51.3636V47.7273H16.833V51.3636H13.1996ZM13.1996 44.0909V40.4545H16.833V44.0909H13.1996ZM13.1996 36.8182V33.1818H16.833V36.8182H13.1996ZM13.1996 29.5455V25.9091H16.833V29.5455H13.1996ZM13.1996 22.2727V18.6364H16.833V22.2727H13.1996ZM20.4664 51.3636V18.6364H49.5338V51.3636H20.4664ZM53.1672 51.3636V47.7273H56.8006V51.3636H53.1672ZM53.1672 44.0909V40.4545H56.8006V44.0909H53.1672ZM53.1672 36.8182V33.1818H56.8006V36.8182H53.1672ZM53.1672 29.5455V25.9091H56.8006V29.5455H53.1672ZM53.1672 22.2727V18.6364H56.8006V22.2727H53.1672Z" fill="#FF9900"/>
</svg>
