<svg width="70" height="70" viewBox="0 0 70 70" fill="none" xmlns="http://www.w3.org/2000/svg">
<rect width="70" height="70" rx="5.25" fill="#FFF5DB"/>
<path d="M23.1186 51.5886C21.7368 51.5886 20.6125 50.4644 20.6125 49.0823C20.6125 47.6951 21.7368 46.5664 23.1186 46.5664C24.5058 46.5664 25.6344 47.6951 25.6344 49.0823C25.6344 50.4644 24.5058 51.5886 23.1186 51.5886ZM23.1186 47.8672C22.4539 47.8672 21.9134 48.4122 21.9134 49.0823C21.9134 49.7473 22.4539 50.2878 23.1186 50.2878C23.7887 50.2878 24.3336 49.7473 24.3336 49.0823C24.3336 48.4122 23.7887 47.8672 23.1186 47.8672Z" fill="#FF9900"/>
<path d="M23.1151 54.8204C19.952 54.8204 17.3787 52.2435 17.3787 49.076C17.3787 47.0111 18.5019 45.0955 20.2731 44.0843V38.5457C20.2731 38.1043 20.4401 37.6838 20.7431 37.3624L21.2503 36.8244C21.4046 36.6605 21.4043 36.4039 21.2496 36.2413L21.1499 36.1353C20.5211 35.4728 20.5195 34.4311 21.1474 33.7655L21.25 33.6569C21.4046 33.493 21.404 33.2364 21.2493 33.0732L21.1191 32.936C20.5081 32.2913 20.4836 31.2979 21.0616 30.6246L21.8327 29.7265C22.1586 29.3473 22.6321 29.1282 23.1316 29.125C23.1351 29.125 23.1386 29.125 23.1421 29.125C23.6378 29.125 24.1091 29.3378 24.4369 29.71L25.5513 30.9752C25.8288 31.2909 25.9816 31.6955 25.9816 32.1153V44.1021C27.7476 45.1132 28.8677 47.0225 28.8677 49.076C28.8677 52.2435 26.2871 54.8204 23.1151 54.8204ZM23.1421 30.4258C23.0662 30.4334 22.9309 30.4442 22.8198 30.5738L22.0487 31.4719C21.9064 31.6377 21.9124 31.8822 22.063 32.041L22.1932 32.1782C22.8226 32.8426 22.8239 33.8836 22.1967 34.5486L22.0941 34.6579C21.9394 34.8217 21.9397 35.0777 22.0944 35.241L22.1941 35.3464C22.8229 36.0095 22.8242 37.0505 22.1967 37.7162L21.6895 38.2541C21.6149 38.3335 21.5739 38.4371 21.5739 38.5457V44.4781C21.5739 44.729 21.4297 44.9576 21.203 45.0656C19.67 45.7948 18.6795 47.3693 18.6795 49.076C18.6795 51.5264 20.6694 53.5196 23.1151 53.5196C25.57 53.5196 27.5669 51.5264 27.5669 49.076C27.5669 47.3801 26.5793 45.8125 25.0504 45.0815C24.8246 44.9735 24.6808 44.7448 24.6808 44.4946V32.1153C24.6808 32.0118 24.6433 31.9127 24.575 31.8352L23.4606 30.57C23.3508 30.4449 23.2148 30.4258 23.1421 30.4258Z" fill="#FF9900"/>
<path d="M50.3861 41.0454H49.1243C48.7651 41.0454 48.4739 40.7545 48.4739 40.395C48.4739 40.0355 48.7651 39.7445 49.1243 39.7445H50.3861C51.3915 39.7445 52.2093 38.9233 52.2093 37.9134V18.1244C52.2093 17.1189 51.3915 16.3008 50.3861 16.3008H17.3203C16.3104 16.3008 15.4888 17.1189 15.4888 18.1244V37.9134C15.4888 38.9233 16.3104 39.7445 17.3203 39.7445H20.5021C20.8613 39.7445 21.1525 40.0355 21.1525 40.395C21.1525 40.7545 20.8613 41.0454 20.5021 41.0454H17.3203C15.5933 41.0454 14.188 39.6404 14.188 37.9134V18.1244C14.188 16.4018 15.5933 15 17.3203 15H50.3861C52.1086 15 53.5101 16.4018 53.5101 18.1244V37.9134C53.5101 39.6404 52.1086 41.0454 50.3861 41.0454Z" fill="#FF9900"/>
<path d="M32.2694 41.0469H25.5364C25.1772 41.0469 24.886 40.756 24.886 40.3965C24.886 40.037 25.1772 39.7461 25.5364 39.7461H32.2694C32.6286 39.7461 32.9198 40.037 32.9198 40.3965C32.9198 40.756 32.6286 41.0469 32.2694 41.0469Z" fill="#FF9900"/>
<path d="M52.8683 22.2617H14.8384C14.4792 22.2617 14.188 21.9708 14.188 21.6113C14.188 21.2518 14.4792 20.9609 14.8384 20.9609H52.8683C53.2274 20.9609 53.5187 21.2518 53.5187 21.6113C53.5187 21.9708 53.2274 22.2617 52.8683 22.2617Z" fill="#FF9900"/>
<path d="M40.5832 48.7294C38.1864 48.7294 35.9338 47.797 34.2408 46.1037C30.7477 42.6103 30.7509 36.9237 34.2478 33.4265C35.9408 31.7332 38.1908 30.8008 40.5828 30.8008C42.9752 30.8008 45.2249 31.7332 46.9179 33.4265C50.4148 36.9237 50.4183 42.6103 46.9252 46.1037C45.2322 47.797 42.9796 48.7294 40.5832 48.7294ZM40.5828 32.1016C38.5383 32.1016 36.615 32.8987 35.1675 34.3462C32.1781 37.3359 32.1749 42.1981 35.1605 45.184C38.1508 48.1737 43.0158 48.1737 46.0055 45.184C48.9911 42.1981 48.9879 37.3359 45.9982 34.3462C44.5507 32.8987 42.6277 32.1016 40.5828 32.1016Z" fill="#FF9900"/>
<path d="M40.5829 45.2277C39.1227 45.2277 37.7511 44.6599 36.7205 43.629C34.5946 41.5031 34.5978 38.0409 36.7275 35.9112C37.7577 34.8803 39.1268 34.3125 40.5829 34.3125C42.0387 34.3125 43.4078 34.8803 44.4383 35.9106C45.4686 36.9408 46.037 38.3121 46.0386 39.7711C46.0402 41.23 45.4746 42.6007 44.4457 43.629C43.4145 44.6599 42.0425 45.2277 40.5829 45.2277ZM40.5829 35.6133C39.4746 35.6133 38.432 36.0459 37.6475 36.8309C36.0247 38.4531 36.0218 41.0903 37.6402 42.7093C38.4253 43.4944 39.4701 43.9269 40.5829 43.9269C41.6951 43.9269 42.7406 43.4944 43.5259 42.7093C44.3085 41.9268 44.7391 40.8839 44.7378 39.7723C44.7366 38.6602 44.3037 37.6153 43.5186 36.8303C42.7339 36.0452 41.6913 35.6133 40.5829 35.6133Z" fill="#FF9900"/>
<path d="M47.2699 49.6734C47.1035 49.6734 46.9371 49.6099 46.8101 49.4829L44.5772 47.2503C44.4374 47.1105 44.3688 46.9149 44.3907 46.7186C44.4123 46.5224 44.5225 46.3464 44.6896 46.2404C45.1621 45.9418 45.5918 45.5963 46.0031 45.1847C46.4118 44.7763 46.7646 44.3368 47.0521 43.8788C47.1575 43.7112 47.3334 43.6 47.53 43.5778C47.7275 43.5575 47.9232 43.6248 48.0629 43.7645L50.2958 45.9971C50.4178 46.1191 50.4864 46.2842 50.4864 46.457C50.4864 46.6297 50.4178 46.7949 50.2958 46.9168L47.7298 49.4829C47.6027 49.6099 47.4363 49.6734 47.2699 49.6734ZM46.0447 46.8781L47.2699 48.1033L48.9162 46.457L47.6913 45.2324C47.4582 45.5347 47.2016 45.8262 46.9231 46.1044C46.6446 46.3833 46.3508 46.6418 46.0447 46.8781Z" fill="#FF9900"/>
<path d="M52.5084 54.9999C51.662 54.9999 50.8157 54.6779 50.1713 54.0332L46.8024 50.6643C46.2267 50.0889 46.2267 49.1514 46.8024 48.5759L49.3882 45.9902C49.9643 45.4147 50.9014 45.4147 51.4769 45.9902L54.8455 49.3584C56.1339 50.6472 56.1339 52.7445 54.8455 54.0332C54.2011 54.6773 53.3547 54.9999 52.5084 54.9999ZM50.4327 46.8584C50.3873 46.8584 50.3422 46.8756 50.3076 46.9099L47.7221 49.4956C47.6535 49.5642 47.6535 49.676 47.7221 49.7446L51.091 53.1135C51.8729 53.8947 53.1439 53.8947 53.9257 53.1135C54.707 52.3316 54.707 51.06 53.9257 50.2781L50.5572 46.9099C50.5229 46.8756 50.4778 46.8584 50.4327 46.8584Z" fill="#FF9900"/>
<path d="M18.9988 19.2149H18.6716C18.3125 19.2149 18.0212 18.924 18.0212 18.5645C18.0212 18.205 18.3125 17.9141 18.6716 17.9141H18.9988C19.3579 17.9141 19.6492 18.205 19.6492 18.5645C19.6492 18.924 19.3579 19.2149 18.9988 19.2149Z" fill="#FF9900"/>
<path d="M22.2317 19.2149H21.9046C21.5454 19.2149 21.2542 18.924 21.2542 18.5645C21.2542 18.205 21.5454 17.9141 21.9046 17.9141H22.2317C22.5908 17.9141 22.8821 18.205 22.8821 18.5645C22.8821 18.924 22.5908 19.2149 22.2317 19.2149Z" fill="#FF9900"/>
<path d="M25.4643 19.2149H25.1372C24.778 19.2149 24.4868 18.924 24.4868 18.5645C24.4868 18.205 24.778 17.9141 25.1372 17.9141H25.4643C25.8235 17.9141 26.1147 18.205 26.1147 18.5645C26.1147 18.924 25.8235 19.2149 25.4643 19.2149Z" fill="#FF9900"/>
<path d="M48.6915 19.2188H38.6013C38.2421 19.2188 37.9509 18.9279 37.9509 18.5684C37.9509 18.2089 38.2421 17.918 38.6013 17.918H48.6915C49.0507 17.918 49.3419 18.2089 49.3419 18.5684C49.3419 18.9279 49.0507 19.2188 48.6915 19.2188Z" fill="#FF9900"/>
<path d="M49.836 25.1758H18.0288C17.6696 25.1758 17.3784 24.8849 17.3784 24.5254C17.3784 24.1659 17.6696 23.875 18.0288 23.875H49.836C50.1952 23.875 50.4864 24.1659 50.4864 24.5254C50.4864 24.8849 50.1952 25.1758 49.836 25.1758Z" fill="#FF9900"/>
<path d="M49.836 27.9102H18.0288C17.6696 27.9102 17.3784 27.6193 17.3784 27.2598C17.3784 26.9003 17.6696 26.6094 18.0288 26.6094H49.836C50.1952 26.6094 50.4864 26.9003 50.4864 27.2598C50.4864 27.6193 50.1952 27.9102 49.836 27.9102Z" fill="#FF9900"/>
</svg>
