<svg width="70" height="70" viewBox="0 0 70 70" fill="none" xmlns="http://www.w3.org/2000/svg">
<rect width="70" height="70" rx="5.25" fill="#FFF5DB"/>
<path d="M34.3772 21.4204H42.01C42.9783 21.4204 43.7642 20.6345 43.7642 19.6663C43.7642 18.698 42.9783 17.9121 42.01 17.9121H34.3772C33.409 17.9121 32.623 18.698 32.623 19.6663C32.623 20.6345 33.409 21.4204 34.3772 21.4204ZM34.3772 19.1193H42.01C42.3118 19.1193 42.557 19.3645 42.557 19.6663C42.557 19.9681 42.3118 20.2133 42.01 20.2133H34.3772C34.0754 20.2133 33.8302 19.9681 33.8302 19.6663C33.8302 19.3645 34.0754 19.1193 34.3772 19.1193Z" fill="#FF9900"/>
<path d="M20.8849 21.671C21.9852 21.671 22.8842 20.772 22.8842 19.6654C22.8842 18.5651 21.9852 17.666 20.8849 17.666C19.7846 17.666 18.8855 18.5651 18.8855 19.6654C18.8855 20.772 19.7846 21.671 20.8849 21.671ZM20.8849 18.8669C21.325 18.8669 21.6834 19.2253 21.6834 19.6654C21.6834 20.1055 21.325 20.4639 20.8849 20.4639C20.4448 20.4639 20.0927 20.1055 20.0927 19.6654C20.0927 19.2253 20.451 18.8669 20.8849 18.8669Z" fill="#FF9900"/>
<path d="M26.1913 21.671C27.2915 21.671 28.1906 20.772 28.1906 19.6654C28.1906 18.5651 27.2915 17.666 26.1913 17.666C25.091 17.666 24.1919 18.5651 24.1919 19.6654C24.1919 20.772 25.091 21.671 26.1913 21.671ZM26.1913 18.8669C26.6314 18.8669 26.9898 19.2253 26.9898 19.6654C26.9898 20.1055 26.6314 20.4639 26.1913 20.4639C25.7512 20.4639 25.3928 20.1055 25.3928 19.6654C25.3991 19.2253 25.7574 18.8669 26.1913 18.8669Z" fill="#FF9900"/>
<path d="M20.212 33.1574H33.2205C33.8178 33.1574 34.3019 32.6733 34.3019 32.076V27.392C34.3019 26.7947 33.8178 26.3105 33.2205 26.3105H20.212C19.6147 26.3105 19.1306 26.7947 19.1306 27.392V32.0697C19.1306 32.6733 19.6147 33.1574 20.212 33.1574ZM20.3315 27.5114H33.1011V31.9503H20.3315V27.5114Z" fill="#FF9900"/>
<path d="M38.5205 34.9688H25.3863C25.0531 34.9688 24.7827 35.2391 24.7827 35.5723C24.7827 35.9056 25.0531 36.1759 25.3863 36.1759H38.5205C38.8538 36.1759 39.1241 35.9056 39.1241 35.5723C39.1241 35.2391 38.8538 34.9688 38.5205 34.9688Z" fill="#FF9900"/>
<path d="M38.5207 37.6855H19.7342C19.401 37.6855 19.1306 37.9559 19.1306 38.2891C19.1306 38.6224 19.401 38.8927 19.7342 38.8927H38.5207C38.854 38.8927 39.1243 38.6224 39.1243 38.2891C39.1243 37.9559 38.854 37.6855 38.5207 37.6855Z" fill="#FF9900"/>
<path d="M35.2386 41.7326C35.5718 41.7326 35.8422 41.4622 35.8422 41.129C35.8422 40.7957 35.5718 40.5254 35.2386 40.5254H31.9566C31.6234 40.5254 31.353 40.7957 31.353 41.129C31.353 41.4622 31.6234 41.7326 31.9566 41.7326H35.2386Z" fill="#FF9900"/>
<path d="M19.7342 41.7326H26.7194C27.0527 41.7326 27.323 41.4622 27.323 41.129C27.323 40.7957 27.0527 40.5254 26.7194 40.5254H19.7342C19.401 40.5254 19.1306 40.7957 19.1306 41.129C19.1306 41.4622 19.401 41.7326 19.7342 41.7326Z" fill="#FF9900"/>
<path d="M38.5207 43.248H19.7342C19.401 43.248 19.1306 43.5184 19.1306 43.8516C19.1306 44.1849 19.401 44.4552 19.7342 44.4552H38.5207C38.854 44.4552 39.1243 44.1849 39.1243 43.8516C39.1243 43.5184 38.854 43.248 38.5207 43.248Z" fill="#FF9900"/>
<path d="M38.5208 46.0977H23.3997C23.0665 46.0977 22.7961 46.368 22.7961 46.7012C22.7961 47.0345 23.0665 47.3048 23.3997 47.3048H38.5208C38.854 47.3048 39.1243 47.0345 39.1243 46.7012C39.1243 46.368 38.854 46.0977 38.5208 46.0977Z" fill="#FF9900"/>
<path d="M26.5308 48.8145H19.7342C19.401 48.8145 19.1306 49.0848 19.1306 49.418C19.1306 49.7513 19.401 50.0216 19.7342 50.0216H26.5371C26.8703 50.0216 27.1407 49.7513 27.1407 49.418C27.1344 49.0848 26.864 48.8145 26.5308 48.8145Z" fill="#FF9900"/>
<path d="M37.7977 29.297H44.4371C44.7703 29.297 45.0407 29.0267 45.0407 28.6934C45.0407 28.3602 44.7703 28.0898 44.4371 28.0898H37.7977C37.4644 28.0898 37.1941 28.3602 37.1941 28.6934C37.2004 29.0267 37.4644 29.297 37.7977 29.297Z" fill="#FF9900"/>
<path d="M37.7977 31.5665H44.4371C44.7703 31.5665 45.0407 31.2962 45.0407 30.963C45.0407 30.6297 44.7703 30.3594 44.4371 30.3594H37.7977C37.4644 30.3594 37.1941 30.6297 37.1941 30.963C37.2004 31.3025 37.4644 31.5665 37.7977 31.5665Z" fill="#FF9900"/>
<path d="M54.8992 32.3027C54.7797 31.7746 54.4653 31.3282 54.0064 31.039L51.8246 29.6683C51.3657 29.3791 50.825 29.2848 50.2968 29.4043C49.7687 29.5237 49.3223 29.8381 49.0331 30.2971L48.7501 30.7435V18.0116C48.7501 16.3518 47.3984 15 45.7385 15H18.0617C16.4018 15 15.05 16.3518 15.05 18.0116V51.9884C15.05 53.6482 16.4018 55 18.0617 55H45.7448C47.4047 55 48.7564 53.6482 48.7564 51.9884V43.2364L53.2644 36.0185L54.6414 33.8306C54.9243 33.3716 55.0186 32.8309 54.8992 32.3027ZM18.0617 16.2072H45.7448C46.7382 16.2072 47.5493 17.0182 47.5493 18.0116V23.1295H16.2572V18.0116C16.2572 17.0182 17.062 16.2072 18.0617 16.2072ZM47.5493 51.9884C47.5493 52.9818 46.7382 53.7928 45.7448 53.7928H18.0617C17.0683 53.7928 16.2572 52.9818 16.2572 51.9884V24.3304H47.5493V32.6548L41.5071 42.3373C41.482 42.375 41.4631 42.4128 41.4443 42.4505C41.4443 42.4505 41.4443 42.4505 41.438 42.4568C41.4317 42.4631 41.4317 42.4693 41.4317 42.4756C41.4128 42.5071 41.394 42.5385 41.3751 42.5699C41.3688 42.5825 41.3688 42.5951 41.3625 42.6077C41.0356 43.2238 40.8595 43.9029 40.8721 44.6008L40.9161 47.5747C40.9224 47.9833 41.1362 48.3606 41.482 48.5806C41.6769 48.7064 41.9032 48.7693 42.1296 48.7693C42.2993 48.7693 42.4754 48.7315 42.6326 48.6561L45.3361 47.4175C45.9649 47.1283 46.5056 46.6756 46.9205 46.116C46.9268 46.1034 46.9457 46.0971 46.952 46.0846C46.9708 46.0531 46.996 46.0217 47.0148 45.9903C47.0148 45.984 47.0211 45.984 47.0274 45.9777C47.0274 45.9777 47.0274 45.9777 47.0274 45.9714C47.0526 45.9337 47.0777 45.9022 47.1029 45.8582L47.543 45.154V51.9884H47.5493ZM42.2176 43.6388L45.6316 45.7891C45.399 46.0091 45.1349 46.1914 44.8394 46.3235L42.1233 47.5558L42.073 44.5819C42.0667 44.2612 42.117 43.9469 42.2176 43.6388ZM46.3421 44.8208L42.7772 42.5762L48.3478 33.6482L51.9127 35.8928L46.3421 44.8208ZM53.6165 33.1892L52.554 34.868L48.9891 32.6234L50.0516 30.9447C50.1711 30.7623 50.3471 30.6303 50.5609 30.58C50.7747 30.5297 50.9947 30.5674 51.1771 30.6869L53.3588 32.0575C53.5411 32.177 53.6731 32.353 53.7234 32.5668C53.7737 32.7869 53.736 33.0006 53.6165 33.1892Z" fill="#FF9900"/>
</svg>
