<svg width="70" height="70" viewBox="0 0 70 70" fill="none" xmlns="http://www.w3.org/2000/svg">
<rect width="70" height="70" rx="5.25" fill="#DFEEFF"/>
<path d="M20.4244 27.1539L21.4175 26.1669L20.4244 25.1794C20.3249 25.0769 20.2698 24.9397 20.2711 24.7972C20.2724 24.6548 20.3299 24.5185 20.4313 24.4178C20.5327 24.3171 20.6698 24.26 20.8131 24.2588C20.9564 24.2576 21.0945 24.3124 21.1975 24.4114L22.1906 25.3984L23.1836 24.4114C23.2867 24.3124 23.4248 24.2576 23.5681 24.2588C23.7114 24.26 23.8485 24.3171 23.9499 24.4178C24.0512 24.5185 24.1088 24.6548 24.1101 24.7972C24.1113 24.9397 24.0563 25.0769 23.9567 25.1794L22.9637 26.1669L23.9567 27.1539C24.0089 27.204 24.0506 27.264 24.0792 27.3303C24.1078 27.3966 24.1229 27.4679 24.1235 27.54C24.1241 27.6121 24.1102 27.6837 24.0827 27.7504C24.0552 27.8172 24.0146 27.8778 23.9633 27.9288C23.912 27.9798 23.8509 28.0202 23.7837 28.0475C23.7166 28.0748 23.6446 28.0885 23.572 28.0878C23.4994 28.0872 23.4277 28.0722 23.361 28.0437C23.2943 28.0152 23.234 27.9738 23.1836 27.9219L22.1906 26.9349L21.1975 27.9219C21.1471 27.9738 21.0868 28.0152 21.0201 28.0437C20.9535 28.0722 20.8817 28.0872 20.8092 28.0878C20.7366 28.0885 20.6646 28.0748 20.5974 28.0475C20.5302 28.0202 20.4692 27.9798 20.4179 27.9288C20.3665 27.8778 20.3259 27.8172 20.2984 27.7504C20.2709 27.6837 20.2571 27.6121 20.2577 27.54C20.2583 27.4679 20.2734 27.3966 20.302 27.3303C20.3306 27.264 20.3722 27.204 20.4244 27.1539ZM22.4836 35.8004V39.9189C22.9269 40.0495 23.3082 40.3344 23.5575 40.7215C23.8068 41.1086 23.9074 41.5721 23.8411 42.0269C23.7747 42.4818 23.5457 42.8977 23.196 43.1985C22.8464 43.4993 22.3994 43.6648 21.937 43.6648C21.4745 43.6648 21.0276 43.4993 20.6779 43.1985C20.3282 42.8977 20.0992 42.4818 20.0329 42.0269C19.9665 41.5721 20.0672 41.1086 20.3165 40.7215C20.5658 40.3344 20.947 40.0495 21.3904 39.9189V35.8004C21.3904 34.2422 22.9646 32.9914 24.976 32.9527L30.8089 32.8992C32.2418 32.8992 33.5917 32.0691 33.5917 31.1911V28.1831H32.4277C32.3317 28.1831 32.2375 28.1579 32.1545 28.1102C32.0714 28.0625 32.0024 27.9939 31.9545 27.9114C31.9065 27.8288 31.8813 27.7351 31.8813 27.6398C31.8813 27.5444 31.9066 27.4507 31.9545 27.3682L33.6656 24.4218C33.7175 24.3442 33.7879 24.2805 33.8705 24.2365C33.9531 24.1924 34.0454 24.1694 34.1392 24.1694C34.2329 24.1694 34.3252 24.1924 34.4079 24.2365C34.4905 24.2805 34.5609 24.3442 34.6127 24.4218L36.3238 27.3682C36.3718 27.4507 36.397 27.5444 36.397 27.6398C36.3971 27.7351 36.3718 27.8288 36.3239 27.9114C36.2759 27.9939 36.207 28.0625 36.1239 28.1102C36.0408 28.1579 35.9466 28.1831 35.8507 28.1831H34.6858V31.1911C34.6858 32.8627 32.6844 33.9858 30.815 33.9858L24.9927 34.0393C23.6117 34.0658 22.4836 34.8555 22.4836 35.8004ZM33.3744 27.0965H34.9048L34.1401 25.78L33.3744 27.0965ZM21.9365 40.9177C21.7717 40.9178 21.6107 40.9666 21.4737 41.0578C21.3368 41.149 21.2302 41.2785 21.1673 41.4299C21.1045 41.5813 21.0882 41.7479 21.1207 41.9085C21.1531 42.0691 21.2327 42.2165 21.3495 42.3322C21.4662 42.4478 21.6148 42.5264 21.7766 42.558C21.9383 42.5896 22.1058 42.5729 22.2579 42.5099C22.41 42.4468 22.5399 42.3404 22.6311 42.2039C22.7224 42.0675 22.7708 41.9073 22.7704 41.7435C22.7697 41.5241 22.6816 41.3139 22.5252 41.1591C22.3689 41.0042 22.1572 40.9177 21.9365 40.9177ZM54.518 53.6644C54.5173 54.002 54.3872 54.3267 54.1542 54.5723C54.1542 54.5745 54.1516 54.578 54.1494 54.5806C54.1472 54.5832 54.1455 54.5806 54.1437 54.5849C54.019 54.7158 53.8689 54.82 53.7023 54.8914C53.5358 54.9628 53.3565 54.9997 53.1752 55H29.9453C29.7639 54.9998 29.5844 54.9629 29.4178 54.8915C29.2512 54.8202 29.101 54.7158 28.9762 54.5849C28.9762 54.5849 28.9719 54.5823 28.9701 54.5806C28.9684 54.5788 28.9675 54.5745 28.9653 54.5719C28.7325 54.3263 28.6025 54.0018 28.6019 53.6644V49.2955H16.028C15.9562 49.2956 15.8851 49.2816 15.8188 49.2543C15.7525 49.227 15.6922 49.187 15.6414 49.1365C15.5906 49.0861 15.5504 49.0262 15.5229 48.9602C15.4955 48.8943 15.4814 48.8236 15.4814 48.7522V15.5433C15.4814 15.3992 15.539 15.261 15.6415 15.1591C15.744 15.0572 15.8831 15 16.028 15H36.4427C36.5146 15 36.5857 15.0141 36.652 15.0415C36.7183 15.0689 36.7786 15.109 36.8293 15.1595L42.2607 20.5589C42.3631 20.6609 42.4206 20.799 42.4208 20.9431V37.6036H53.1752C53.3563 37.6038 53.5356 37.6406 53.702 37.7119C53.8685 37.7831 54.0186 37.8872 54.1433 38.0178C54.1433 38.0178 54.1477 38.0209 54.1494 38.023C54.1512 38.0252 54.152 38.0287 54.1542 38.0313C54.3872 38.2768 54.5173 38.6013 54.518 38.9388V53.6644ZM30.5929 38.6902L41.5589 48.0386L52.5262 38.6941L30.5929 38.6902ZM29.6951 53.2472L37.8447 46.3001L29.6951 39.3556V53.2472ZM30.5929 53.913H52.5271L44.4375 47.0168L41.9175 49.1647C41.8184 49.2491 41.6922 49.2955 41.5617 49.2955C41.4313 49.2955 41.3051 49.2491 41.206 49.1647L38.686 47.0168L30.5929 53.913ZM53.4248 53.2472V39.3556L45.2757 46.3001L53.4248 53.2472ZM36.9071 20.4833H40.6362L36.9071 16.7741V20.4833ZM28.6019 48.2124V38.9388C28.6025 38.6014 28.7325 38.2769 28.9653 38.0313C28.9653 38.0287 28.9679 38.0252 28.9701 38.023C28.9723 38.0209 28.9749 38.02 28.9767 38.0178C29.1014 37.8871 29.2516 37.783 29.4181 37.7118C29.5847 37.6406 29.764 37.6038 29.9453 37.6036H41.3276V21.5698H36.3605C36.2156 21.5698 36.0765 21.5126 35.974 21.4107C35.8715 21.3088 35.8139 21.1706 35.8139 21.0265V16.0866H16.5738V48.209L28.6019 48.2124Z" fill="#2639ED"/>
</svg>
