<svg width="70" height="70" viewBox="0 0 70 70" fill="none" xmlns="http://www.w3.org/2000/svg">
<rect width="70" height="70" rx="5.25" fill="#FFF5DB"/>
<path d="M23.0696 51.5887C21.6821 51.5887 20.5533 50.4644 20.5533 49.0823C20.5533 47.6951 21.6821 46.5664 23.0696 46.5664C24.4625 46.5664 25.5958 47.6951 25.5958 49.0823C25.5958 50.4644 24.4625 51.5887 23.0696 51.5887ZM23.0696 47.8672C22.4022 47.8672 21.8594 48.4122 21.8594 49.0823C21.8594 49.7473 22.4022 50.2878 23.0696 50.2878C23.7424 50.2878 24.2897 49.7473 24.2897 49.0823C24.2897 48.4122 23.7424 47.8672 23.0696 47.8672Z" fill="#FF9900"/>
<path d="M23.066 54.8226C19.8899 54.8226 17.306 52.2457 17.306 49.0781C17.306 47.0132 18.4339 45.0975 20.2123 44.0864V38.5477C20.2123 38.1063 20.38 37.6858 20.6842 37.3644L21.1935 36.8264C21.3485 36.6626 21.3481 36.4059 21.1928 36.2433L21.0927 36.1373C20.4613 35.4748 20.4597 34.4331 21.0902 33.7675L21.1932 33.6589C21.3485 33.495 21.3478 33.2384 21.1925 33.0751L21.0618 32.9379C20.4483 32.2933 20.4237 31.2999 21.0041 30.6266L21.7783 29.7285C22.1055 29.3493 22.581 29.1301 23.0826 29.127C23.0861 29.127 23.0896 29.127 23.0931 29.127C23.5909 29.127 24.0641 29.3397 24.3932 29.7119L25.5121 30.9772C25.7908 31.2929 25.9442 31.6975 25.9442 32.1173V44.1042C27.7175 45.1153 28.8422 47.0246 28.8422 49.0781C28.8422 52.2457 26.251 54.8226 23.066 54.8226ZM23.0931 30.4278C23.0169 30.4354 22.881 30.4462 22.7694 30.5758L21.9952 31.4739C21.8523 31.6397 21.8584 31.8842 22.0095 32.043L22.1403 32.1802C22.7723 32.8446 22.7736 33.8856 22.1438 34.5506L22.0408 34.6599C21.8855 34.8238 21.8858 35.0797 22.0411 35.243L22.1412 35.3484C22.7726 36.0115 22.7739 37.0525 22.1438 37.7182L21.6345 38.2562C21.5596 38.3356 21.5184 38.4391 21.5184 38.5477V44.4802C21.5184 44.7311 21.3737 44.9597 21.146 45.0677C19.6067 45.7969 18.6121 47.3714 18.6121 49.0781C18.6121 51.5286 20.6102 53.5217 23.066 53.5217C25.5309 53.5217 27.5361 51.5286 27.5361 49.0781C27.5361 47.3822 26.5444 45.8147 25.0093 45.0836C24.7825 44.9756 24.6381 44.7469 24.6381 44.4967V32.1173C24.6381 32.0138 24.6004 31.9147 24.5319 31.8372L23.4129 30.572C23.3026 30.4468 23.1661 30.4278 23.0931 30.4278Z" fill="#FF9900"/>
<path d="M50.4493 41.0456H49.1824C48.8218 41.0456 48.5293 40.7547 48.5293 40.3952C48.5293 40.0357 48.8218 39.7448 49.1824 39.7448H50.4493C51.4589 39.7448 52.2801 38.9235 52.2801 37.9136V18.1244C52.2801 17.1189 51.4589 16.3008 50.4493 16.3008H17.2478C16.2337 16.3008 15.4087 17.1189 15.4087 18.1244V37.9136C15.4087 38.9235 16.2337 39.7448 17.2478 39.7448H20.4427C20.8033 39.7448 21.0957 40.0357 21.0957 40.3952C21.0957 40.7547 20.8033 41.0456 20.4427 41.0456H17.2478C15.5137 41.0456 14.1026 39.6406 14.1026 37.9136V18.1244C14.1026 16.4018 15.5137 15 17.2478 15H50.4493C52.179 15 53.5862 16.4018 53.5862 18.1244V37.9136C53.5862 39.6406 52.179 41.0456 50.4493 41.0456Z" fill="#FF9900"/>
<path d="M32.2583 41.045H25.4976C25.137 41.045 24.8445 40.7541 24.8445 40.3945C24.8445 40.035 25.137 39.7441 25.4976 39.7441H32.2583C32.6189 39.7441 32.9114 40.035 32.9114 40.3945C32.9114 40.7541 32.6189 41.045 32.2583 41.045Z" fill="#FF9900"/>
<path d="M52.9417 22.2578H14.7557C14.395 22.2578 14.1026 21.9669 14.1026 21.6074C14.1026 21.2479 14.395 20.957 14.7557 20.957H52.9417C53.3024 20.957 53.5948 21.2479 53.5948 21.6074C53.5948 21.9669 53.3024 22.2578 52.9417 22.2578Z" fill="#FF9900"/>
<path d="M40.6064 48.7315C38.1997 48.7315 35.9379 47.7991 34.2379 46.1058C30.7305 42.6124 30.7337 36.9257 34.2449 33.4285C35.9449 31.7352 38.2042 30.8027 40.606 30.8027C43.0082 30.8027 45.2672 31.7352 46.9671 33.4285C50.4784 36.9257 50.4819 42.6124 46.9745 46.1058C45.2745 47.7991 43.0127 48.7315 40.6064 48.7315ZM40.606 32.1036C38.5531 32.1036 36.6219 32.9007 35.1684 34.3482C32.1668 37.3379 32.1636 42.2001 35.1614 45.1861C38.164 48.1758 43.049 48.1758 46.051 45.1861C49.0488 42.2001 49.0456 37.3379 46.0437 34.3482C44.5902 32.9007 42.6593 32.1036 40.606 32.1036Z" fill="#FF9900"/>
<path d="M40.606 45.2259C39.1398 45.2259 37.7625 44.658 36.7277 43.6272C34.5931 41.5013 34.5963 38.039 36.7347 35.9093C37.7692 34.8784 39.1439 34.3105 40.606 34.3105C42.0678 34.3105 43.4425 34.8784 44.4773 35.9086C45.5117 36.9389 46.0825 38.3102 46.0841 39.7692C46.0857 41.2281 45.5178 42.5988 44.4846 43.6272C43.4492 44.658 42.0716 45.2259 40.606 45.2259ZM40.606 35.6114C39.4931 35.6114 38.4462 36.0439 37.6586 36.829C36.0291 38.4512 36.0262 41.0884 37.6512 42.7074C38.4395 43.4925 39.4886 43.925 40.606 43.925C41.7227 43.925 42.7725 43.4925 43.5611 42.7074C44.3468 41.9249 44.7792 40.882 44.778 39.7704C44.7767 38.6583 44.342 37.6134 43.5538 36.8283C42.7658 36.0433 41.7189 35.6114 40.606 35.6114Z" fill="#FF9900"/>
<path d="M47.3204 49.6735C47.1534 49.6735 46.9863 49.6099 46.8587 49.4829L44.6166 47.2503C44.4763 47.1106 44.4074 46.9149 44.4294 46.7187C44.4511 46.5224 44.5618 46.3465 44.7295 46.2404C45.204 45.9419 45.6355 45.5963 46.0484 45.1847C46.4588 44.7763 46.8131 44.3368 47.1017 43.8788C47.2076 43.7112 47.3842 43.6 47.5816 43.5778C47.78 43.5575 47.9764 43.6248 48.1167 43.7645L50.3588 45.9971C50.4812 46.1191 50.5501 46.2842 50.5501 46.457C50.5501 46.6297 50.4812 46.7949 50.3588 46.9168L47.7822 49.4829C47.6546 49.6099 47.4875 49.6735 47.3204 49.6735ZM46.0902 46.8781L47.3204 48.1033L48.9735 46.457L47.7436 45.2324C47.5095 45.5347 47.2519 45.8263 46.9722 46.1045C46.6926 46.3833 46.3976 46.6418 46.0902 46.8781Z" fill="#FF9900"/>
<path d="M52.5805 55C51.7306 55 50.8808 54.678 50.2338 54.0333L46.8511 50.6644C46.2729 50.0889 46.2729 49.1514 46.8511 48.5759L49.4474 45.9902C50.0259 45.4147 50.9669 45.4147 51.5447 45.9902L54.9271 49.3585C56.2209 50.6472 56.2209 52.7445 54.9271 54.0333C54.2801 54.6773 53.4303 55 52.5805 55ZM50.4962 46.8585C50.4506 46.8585 50.4054 46.8756 50.3706 46.9099L47.7746 49.4957C47.7057 49.5643 47.7057 49.6761 47.7746 49.7447L51.1573 53.1136C51.9424 53.8948 53.2186 53.8948 54.0037 53.1136C54.7881 52.3317 54.7881 51.0601 54.0037 50.2782L50.6213 46.9099C50.5868 46.8756 50.5415 46.8585 50.4962 46.8585Z" fill="#FF9900"/>
<path d="M18.933 19.2168H18.6046C18.2439 19.2168 17.9515 18.9259 17.9515 18.5664C17.9515 18.2069 18.2439 17.916 18.6046 17.916H18.933C19.2937 17.916 19.5861 18.2069 19.5861 18.5664C19.5861 18.9259 19.2937 19.2168 18.933 19.2168Z" fill="#FF9900"/>
<path d="M22.1793 19.2168H21.8508C21.4902 19.2168 21.1978 18.9259 21.1978 18.5664C21.1978 18.2069 21.4902 17.916 21.8508 17.916H22.1793C22.5399 17.916 22.8324 18.2069 22.8324 18.5664C22.8324 18.9259 22.5399 19.2168 22.1793 19.2168Z" fill="#FF9900"/>
<path d="M25.4253 19.2168H25.0968C24.7361 19.2168 24.4437 18.9259 24.4437 18.5664C24.4437 18.2069 24.7361 17.916 25.0968 17.916H25.4253C25.7859 17.916 26.0783 18.2069 26.0783 18.5664C26.0783 18.9259 25.7859 19.2168 25.4253 19.2168Z" fill="#FF9900"/>
<path d="M48.7477 19.2168H38.6161C38.2554 19.2168 37.963 18.9259 37.963 18.5664C37.963 18.2069 38.2554 17.916 38.6161 17.916H48.7477C49.1083 17.916 49.4008 18.2069 49.4008 18.5664C49.4008 18.9259 49.1083 19.2168 48.7477 19.2168Z" fill="#FF9900"/>
<path d="M49.8969 25.1778H17.9591C17.5984 25.1778 17.306 24.8869 17.306 24.5274C17.306 24.1679 17.5984 23.877 17.9591 23.877H49.8969C50.2576 23.877 50.55 24.1679 50.55 24.5274C50.55 24.8869 50.2576 25.1778 49.8969 25.1778Z" fill="#FF9900"/>
<path d="M49.897 27.9102H17.9592C17.5985 27.9102 17.3061 27.6193 17.3061 27.2598C17.3061 26.9003 17.5985 26.6094 17.9592 26.6094H49.897C50.2577 26.6094 50.5501 26.9003 50.5501 27.2598C50.5501 27.6193 50.2577 27.9102 49.897 27.9102Z" fill="#FF9900"/>
</svg>
