<svg width="70" height="70" viewBox="0 0 70 70" fill="none" xmlns="http://www.w3.org/2000/svg">
<rect width="70" height="70" rx="5.25" fill="#FFF5DB"/>
<path d="M23.1186 51.5866C21.7368 51.5866 20.6125 50.4624 20.6125 49.0803C20.6125 47.6931 21.7368 46.5645 23.1186 46.5645C24.5057 46.5645 25.6344 47.6931 25.6344 49.0803C25.6344 50.4624 24.5057 51.5866 23.1186 51.5866ZM23.1186 47.8653C22.4539 47.8653 21.9133 48.4102 21.9133 49.0803C21.9133 49.7453 22.4539 50.2858 23.1186 50.2858C23.7886 50.2858 24.3336 49.7453 24.3336 49.0803C24.3336 48.4102 23.7886 47.8653 23.1186 47.8653Z" fill="#FF9900"/>
<path d="M23.1151 54.8202C19.952 54.8202 17.3787 52.2434 17.3787 49.0759C17.3787 47.011 18.5019 45.0953 20.2731 44.0842V38.5456C20.2731 38.1042 20.4401 37.6837 20.7431 37.3623L21.2503 36.8244C21.4046 36.6605 21.4043 36.4039 21.2496 36.2413L21.1499 36.1352C20.5211 35.4727 20.5195 34.4311 21.1474 33.7654L21.2499 33.6568C21.4046 33.493 21.404 33.2364 21.2493 33.0731L21.1191 32.9359C20.5081 32.2912 20.4836 31.2979 21.0616 30.6246L21.8327 29.7265C22.1585 29.3473 22.632 29.1282 23.1316 29.125C23.1351 29.125 23.1386 29.125 23.1421 29.125C23.6378 29.125 24.1091 29.3378 24.4368 29.71L25.5512 30.9752C25.8288 31.2909 25.9815 31.6955 25.9815 32.1153V44.102C27.7476 45.1131 28.8677 47.0224 28.8677 49.0759C28.8677 52.2434 26.287 54.8202 23.1151 54.8202ZM23.1421 30.4258C23.0662 30.4334 22.9309 30.4442 22.8197 30.5738L22.0486 31.4719C21.9064 31.6377 21.9124 31.8822 22.0629 32.041L22.1931 32.1782C22.8226 32.8426 22.8239 33.8836 22.1966 34.5486L22.0941 34.6578C21.9394 34.8217 21.9397 35.0777 22.0944 35.2409L22.1941 35.3463C22.8229 36.0095 22.8242 37.0505 22.1966 37.7161L21.6895 38.2541C21.6148 38.3335 21.5739 38.437 21.5739 38.5456V44.478C21.5739 44.7289 21.4297 44.9575 21.2029 45.0655C19.67 45.7947 18.6795 47.3692 18.6795 49.0759C18.6795 51.5263 20.6694 53.5194 23.1151 53.5194C25.5699 53.5194 27.5669 51.5263 27.5669 49.0759C27.5669 47.38 26.5792 45.8124 25.0504 45.0814C24.8246 44.9734 24.6807 44.7447 24.6807 44.4945V32.1153C24.6807 32.0118 24.6433 31.9127 24.575 31.8352L23.4606 30.57C23.3507 30.4449 23.2148 30.4258 23.1421 30.4258Z" fill="#FF9900"/>
<path d="M50.3861 41.0452H49.1243C48.7651 41.0452 48.4739 40.7543 48.4739 40.3948C48.4739 40.0353 48.7651 39.7444 49.1243 39.7444H50.3861C51.3915 39.7444 52.2093 38.9231 52.2093 37.9132V18.1243C52.2093 17.1189 51.3915 16.3008 50.3861 16.3008H17.3205C16.3106 16.3008 15.489 17.1189 15.489 18.1243V37.9132C15.489 38.9231 16.3106 39.7444 17.3205 39.7444H20.5023C20.8615 39.7444 21.1527 40.0353 21.1527 40.3948C21.1527 40.7543 20.8615 41.0452 20.5023 41.0452H17.3205C15.5935 41.0452 14.1882 39.6402 14.1882 37.9132V18.1243C14.1882 16.4018 15.5935 15 17.3205 15H50.3861C52.1086 15 53.5101 16.4018 53.5101 18.1243V37.9132C53.5101 39.6402 52.1086 41.0452 50.3861 41.0452Z" fill="#FF9900"/>
<path d="M32.2694 41.0449H25.5364C25.1772 41.0449 24.886 40.754 24.886 40.3945C24.886 40.035 25.1772 39.7441 25.5364 39.7441H32.2694C32.6285 39.7441 32.9198 40.035 32.9198 40.3945C32.9198 40.754 32.6285 41.0449 32.2694 41.0449Z" fill="#FF9900"/>
<path d="M52.8682 22.2598H14.8386C14.4795 22.2598 14.1882 21.9689 14.1882 21.6094C14.1882 21.2499 14.4795 20.959 14.8386 20.959H52.8682C53.2274 20.959 53.5186 21.2499 53.5186 21.6094C53.5186 21.9689 53.2274 22.2598 52.8682 22.2598Z" fill="#FF9900"/>
<path d="M40.5834 48.7313C38.1866 48.7313 35.934 47.7989 34.241 46.1055C30.748 42.6122 30.7511 36.9256 34.248 33.4285C35.941 31.7351 38.191 30.8027 40.583 30.8027C42.9753 30.8027 45.2251 31.7351 46.9181 33.4285C50.4149 36.9256 50.4184 42.6122 46.9254 46.1055C45.2324 47.7989 42.9798 48.7313 40.5834 48.7313ZM40.583 32.1035C38.5385 32.1035 36.6152 32.9007 35.1677 34.3482C32.1783 37.3378 32.1752 42.2 35.1607 45.1858C38.151 48.1755 43.016 48.1755 46.0057 45.1858C48.9912 42.2 48.988 37.3378 45.9984 34.3482C44.5508 32.9007 42.6279 32.1035 40.583 32.1035Z" fill="#FF9900"/>
<path d="M40.5831 45.2237C39.1229 45.2237 37.7513 44.6559 36.7208 43.6251C34.5949 41.4992 34.5981 38.037 36.7277 35.9073C37.758 34.8764 39.127 34.3086 40.5831 34.3086C42.0389 34.3086 43.408 34.8764 44.4385 35.9066C45.4688 36.9369 46.0372 38.3082 46.0388 39.7671C46.0404 41.2261 45.4748 42.5967 44.4458 43.6251C43.4147 44.6559 42.0427 45.2237 40.5831 45.2237ZM40.5831 35.6094C39.4748 35.6094 38.4322 36.0419 37.6478 36.827C36.0249 38.4492 36.0221 41.0863 37.6405 42.7053C38.4255 43.4904 39.4703 43.9229 40.5831 43.9229C41.6953 43.9229 42.7408 43.4904 43.5261 42.7053C44.3086 41.9228 44.7393 40.8799 44.738 39.7684C44.7367 38.6562 44.3039 37.6114 43.5188 36.8263C42.7341 36.0413 41.6915 35.6094 40.5831 35.6094Z" fill="#FF9900"/>
<path d="M47.2701 49.6734C47.1037 49.6734 46.9373 49.6098 46.8103 49.4828L44.5774 47.2502C44.4377 47.1105 44.3691 46.9149 44.391 46.7186C44.4126 46.5224 44.5228 46.3464 44.6898 46.2403C45.1624 45.9418 45.5921 45.5963 46.0033 45.1847C46.412 44.7763 46.7649 44.3368 47.0523 43.8788C47.1577 43.7112 47.3337 43.6 47.5302 43.5778C47.7278 43.5575 47.9234 43.6248 48.0631 43.7645L50.296 45.9971C50.418 46.119 50.4866 46.2842 50.4866 46.4569C50.4866 46.6297 50.418 46.7948 50.296 46.9168L47.73 49.4828C47.603 49.6098 47.4365 49.6734 47.2701 49.6734ZM46.0449 46.878L47.2701 48.1033L48.9165 46.4569L47.6916 45.2324C47.4585 45.5347 47.2019 45.8262 46.9233 46.1044C46.6448 46.3833 46.3511 46.6418 46.0449 46.878Z" fill="#FF9900"/>
<path d="M52.5084 54.9999C51.662 54.9999 50.8157 54.6778 50.1713 54.0332L46.8024 50.6643C46.2267 50.0888 46.2267 49.1514 46.8024 48.5759L49.3881 45.9902C49.9642 45.4147 50.9014 45.4147 51.4769 45.9902L54.8454 49.3584C56.1338 50.6471 56.1338 52.7444 54.8454 54.0332C54.201 54.6772 53.3547 54.9999 52.5084 54.9999ZM50.4327 46.8584C50.3872 46.8584 50.3422 46.8756 50.3075 46.9099L47.7221 49.4956C47.6535 49.5642 47.6535 49.676 47.7221 49.7446L51.091 53.1135C51.8729 53.8947 53.1438 53.8947 53.9257 53.1135C54.7069 52.3316 54.7069 51.06 53.9257 50.2781L50.5572 46.9099C50.5229 46.8756 50.4778 46.8584 50.4327 46.8584Z" fill="#FF9900"/>
<path d="M18.9987 19.2188H18.6716C18.3125 19.2188 18.0212 18.9279 18.0212 18.5684C18.0212 18.2089 18.3125 17.918 18.6716 17.918H18.9987C19.3579 17.918 19.6491 18.2089 19.6491 18.5684C19.6491 18.9279 19.3579 19.2188 18.9987 19.2188Z" fill="#FF9900"/>
<path d="M22.2317 19.2188H21.9045C21.5454 19.2188 21.2542 18.9279 21.2542 18.5684C21.2542 18.2089 21.5454 17.918 21.9045 17.918H22.2317C22.5908 17.918 22.8821 18.2089 22.8821 18.5684C22.8821 18.9279 22.5908 19.2188 22.2317 19.2188Z" fill="#FF9900"/>
<path d="M25.4643 19.2188H25.1372C24.778 19.2188 24.4868 18.9279 24.4868 18.5684C24.4868 18.2089 24.778 17.918 25.1372 17.918H25.4643C25.8235 17.918 26.1147 18.2089 26.1147 18.5684C26.1147 18.9279 25.8235 19.2188 25.4643 19.2188Z" fill="#FF9900"/>
<path d="M48.6914 19.2188H38.6013C38.2421 19.2188 37.9509 18.9279 37.9509 18.5684C37.9509 18.2089 38.2421 17.918 38.6013 17.918H48.6914C49.0506 17.918 49.3418 18.2089 49.3418 18.5684C49.3418 18.9279 49.0506 19.2188 48.6914 19.2188Z" fill="#FF9900"/>
<path d="M49.8361 25.1778H18.0291C17.6699 25.1778 17.3787 24.8869 17.3787 24.5274C17.3787 24.1679 17.6699 23.877 18.0291 23.877H49.8361C50.1952 23.877 50.4865 24.1679 50.4865 24.5274C50.4865 24.8869 50.1952 25.1778 49.8361 25.1778Z" fill="#FF9900"/>
<path d="M49.8361 27.9102H18.0291C17.6699 27.9102 17.3787 27.6193 17.3787 27.2598C17.3787 26.9003 17.6699 26.6094 18.0291 26.6094H49.8361C50.1952 26.6094 50.4865 26.9003 50.4865 27.2598C50.4865 27.6193 50.1952 27.9102 49.8361 27.9102Z" fill="#FF9900"/>
</svg>
