<svg width="70" height="70" viewBox="0 0 70 70" fill="none" xmlns="http://www.w3.org/2000/svg">
<rect width="70" height="70" rx="5.25" fill="#FFF5DB"/>
<path d="M21.6572 20.1685C21.6572 19.6854 22.0449 19.2978 22.528 19.2978H46.5224C47.0055 19.2978 47.3932 19.6854 47.3932 20.1685C47.3932 20.6517 47.0055 21.0393 46.5224 21.0393H22.528C22.0449 21.0337 21.6572 20.6461 21.6572 20.1685ZM18.8257 21.0337H19.3819C19.8651 21.0337 20.2527 20.6461 20.2527 20.1629C20.2527 19.6798 19.8651 19.2921 19.3819 19.2921H18.8257C18.3426 19.2921 17.955 19.6798 17.955 20.1629C17.955 20.6461 18.3426 21.0337 18.8257 21.0337ZM15.0561 21.0337H15.6123C16.0954 21.0337 16.4831 20.6461 16.4831 20.1629C16.4831 19.6798 16.0954 19.2921 15.6123 19.2921H15.0561C14.5729 19.2921 14.1853 19.6798 14.1853 20.1629C14.1853 20.6461 14.5729 21.0337 15.0561 21.0337ZM36.6572 38.5955C36.6572 39.0843 36.4381 39.5337 36.0505 39.8371L27.455 46.4944C27.1741 46.7135 26.837 46.8258 26.4943 46.8258C26.2583 46.8258 26.0224 46.7697 25.7977 46.6629C25.2583 46.3933 24.9213 45.8539 24.9213 45.2528V31.9326C24.9213 31.3258 25.2583 30.7865 25.8033 30.5225C26.3426 30.2528 26.9774 30.3202 27.4606 30.6966L36.0505 37.3483C36.4437 37.6629 36.6572 38.1011 36.6572 38.5955ZM34.8089 38.5955L26.6628 32.2865V44.9045L34.8089 38.5955ZM62.8089 35.1854V51.4607C62.8089 53.4101 61.219 55 59.2696 55H12.719C9.66845 55 7.19092 52.5225 7.19092 49.4719V20.5337C7.19092 17.4831 9.66845 15 12.719 15H48.8538C51.9044 15 54.3819 17.4831 54.3819 20.5337V24.3989C54.3819 24.4213 54.3876 24.4382 54.3876 24.4607C54.3876 24.4831 54.3876 24.5 54.3819 24.5225V31.6517H59.2696C61.219 31.6461 62.8089 33.236 62.8089 35.1854ZM51.955 37.882L52.9156 38.618V33.3876H49.3538V38.618L50.3145 37.882C50.7977 37.5056 51.4718 37.5056 51.955 37.882ZM8.93249 20.5337V23.5899H52.646V20.5337C52.646 18.4438 50.9437 16.7416 48.8595 16.7416H12.719C10.6291 16.7416 8.93249 18.4438 8.93249 20.5337ZM12.719 53.2584H39.9493C39.6347 52.7303 39.455 52.118 39.455 51.4607V35.1854C39.455 33.236 41.0449 31.6461 42.9999 31.6461H52.646V25.3258H8.93249V49.4663C8.93249 51.5618 10.6291 53.2584 12.719 53.2584ZM61.0673 35.1854C61.0673 34.191 60.2583 33.3876 59.2696 33.3876H54.6572V39.4101C54.6572 39.9326 54.3651 40.3933 53.8988 40.618C53.7078 40.7135 53.5055 40.7584 53.3033 40.7584C53.0111 40.7584 52.7246 40.6629 52.4831 40.4775L51.1291 39.4438L49.7752 40.4775C49.3651 40.7921 48.8258 40.8483 48.3595 40.618C47.8988 40.3989 47.6067 39.9326 47.6067 39.4101V33.3876H42.9943C41.9999 33.3876 41.1909 34.1966 41.1909 35.1854V51.4607C41.1909 52.4551 41.9999 53.2584 42.9943 53.2584H59.2696C60.264 53.2584 61.0673 52.4494 61.0673 51.4607V35.1854Z" fill="#FF9900"/>
</svg>
