<svg width="70" height="70" viewBox="0 0 70 70" fill="none" xmlns="http://www.w3.org/2000/svg">
<rect width="70" height="70" rx="5.25" fill="#FFF5DB"/>
<path d="M54.8267 21.8867L48.8267 15.22C48.7643 15.1509 48.6882 15.0957 48.6033 15.0578C48.5183 15.0199 48.4264 15.0002 48.3333 15H25C24.1159 15 23.2681 15.3512 22.643 15.9763C22.0179 16.6014 21.6667 17.4493 21.6667 18.3333V40.3333C21.6667 40.1565 21.5964 39.987 21.4714 39.8619C21.3464 39.7369 21.1768 39.6667 21 39.6667H15.6667C15.4899 39.6667 15.3203 39.7369 15.1953 39.8619C15.0702 39.987 15 40.1565 15 40.3333V49.6667C15 49.8435 15.0702 50.013 15.1953 50.1381C15.3203 50.2631 15.4899 50.3333 15.6667 50.3333H21C21.1768 50.3333 21.3464 50.2631 21.4714 50.1381C21.5964 50.013 21.6667 49.8435 21.6667 49.6667V51.6667C21.6667 52.5507 22.0179 53.3986 22.643 54.0237C23.2681 54.6488 24.1159 55 25 55H51.6667C52.5507 55 53.3986 54.6488 54.0237 54.0237C54.6488 53.3986 55 52.5507 55 51.6667V22.3333C55.0015 22.1678 54.9394 22.0079 54.8267 21.8867ZM20.3333 49H16.3333V41H20.3333V49ZM49 17.4067L52.8333 21.6667H49.6667C49.4899 21.6667 49.3203 21.5964 49.1953 21.4714C49.0702 21.3464 49 21.1768 49 21V17.4067ZM21.6667 48.3333V41.6667H23C23.1034 41.666 23.2052 41.6415 23.2977 41.5953C23.3901 41.5491 23.4707 41.4823 23.5333 41.4L25.5333 38.7333C25.6206 38.6183 25.6675 38.4777 25.6667 38.3333V36.3333C25.6667 36.1565 25.7369 35.987 25.8619 35.8619C25.987 35.7369 26.1565 35.6667 26.3333 35.6667C26.5101 35.6667 26.6797 35.7369 26.8047 35.8619C26.9298 35.987 27 36.1565 27 36.3333V39.6667C27 39.8435 27.0702 40.013 27.1953 40.1381C27.3203 40.2631 27.4899 40.3333 27.6667 40.3333H33C33.1768 40.3333 33.3464 40.4036 33.4714 40.5286C33.5964 40.6536 33.6667 40.8232 33.6667 41C33.6667 41.1768 33.5964 41.3464 33.4714 41.4714C33.3464 41.5964 33.1768 41.6667 33 41.6667H31C30.8232 41.6667 30.6536 41.7369 30.5286 41.8619C30.4036 41.987 30.3333 42.1565 30.3333 42.3333C30.3333 42.5101 30.4036 42.6797 30.5286 42.8047C30.6536 42.9298 30.8232 43 31 43H33C33.1768 43 33.3464 43.0702 33.4714 43.1953C33.5964 43.3203 33.6667 43.4899 33.6667 43.6667C33.6667 43.8435 33.5964 44.013 33.4714 44.1381C33.3464 44.2631 33.1768 44.3333 33 44.3333H31C30.8232 44.3333 30.6536 44.4036 30.5286 44.5286C30.4036 44.6536 30.3333 44.8232 30.3333 45C30.3333 45.1768 30.4036 45.3464 30.5286 45.4714C30.6536 45.5964 30.8232 45.6667 31 45.6667H32.3333C32.5101 45.6667 32.6797 45.7369 32.8047 45.8619C32.9298 45.987 33 46.1565 33 46.3333C33 46.5101 32.9298 46.6797 32.8047 46.8047C32.6797 46.9298 32.5101 47 32.3333 47H31C30.8232 47 30.6536 47.0702 30.5286 47.1953C30.4036 47.3203 30.3333 47.4899 30.3333 47.6667C30.3333 47.8435 30.4036 48.013 30.5286 48.1381C30.6536 48.2631 30.8232 48.3333 31 48.3333H31.6667C31.8435 48.3333 32.013 48.4036 32.1381 48.5286C32.2631 48.6536 32.3333 48.8232 32.3333 49C32.3333 49.1768 32.2631 49.3464 32.1381 49.4714C32.013 49.5964 31.8435 49.6667 31.6667 49.6667H25.8267L23.3 48.4067C23.2071 48.3591 23.1044 48.334 23 48.3333H21.6667ZM53.6667 51.6667C53.6651 52.1966 53.4539 52.7044 53.0791 53.0791C52.7044 53.4539 52.1966 53.6651 51.6667 53.6667H25C24.4701 53.6651 23.9623 53.4539 23.5875 53.0791C23.2128 52.7044 23.0016 52.1966 23 51.6667V49.7467L25.3667 50.9267C25.4595 50.9743 25.5623 50.9994 25.6667 51H31.6667C32.1966 50.9984 32.7044 50.7872 33.0791 50.4125C33.4539 50.0377 33.6651 49.5299 33.6667 49C33.6676 48.6562 33.578 48.3181 33.4067 48.02C33.6905 47.8395 33.9242 47.5903 34.0862 47.2955C34.2482 47.0006 34.3332 46.6697 34.3333 46.3333C34.3343 45.9895 34.2446 45.6515 34.0733 45.3533C34.3572 45.1728 34.5909 44.9236 34.7529 44.6288C34.9148 44.334 34.9998 44.0031 35 43.6667C35.0011 43.1738 34.818 42.6982 34.4867 42.3333C34.818 41.9684 35.0011 41.4929 35 41C34.9984 40.4701 34.7872 39.9623 34.4125 39.5875C34.0377 39.2128 33.5299 39.0016 33 39H28.3333V36.3333C28.3333 35.8029 28.1226 35.2942 27.7475 34.9191C27.3725 34.544 26.8638 34.3333 26.3333 34.3333C25.8029 34.3333 25.2942 34.544 24.9191 34.9191C24.544 35.2942 24.3333 35.8029 24.3333 36.3333V38.1133L23 39.8867V18.3333C23.0016 17.8034 23.2128 17.2956 23.5875 16.9209C23.9623 16.5461 24.4701 16.3349 25 16.3333H47.6667V21C47.6683 21.5299 47.8795 22.0377 48.2542 22.4125C48.6289 22.7872 49.1367 22.9984 49.6667 23H53.6667V51.6667Z" fill="#FF9900"/>
<path d="M38.3331 33.472L38.8178 33.8233C39.0443 33.9919 39.3191 34.0829 39.6014 34.0829C39.8838 34.0829 40.1586 33.9919 40.3851 33.8233C40.6147 33.6596 40.7856 33.4263 40.8722 33.158C40.9589 32.8896 40.9569 32.6005 40.8664 32.3333L40.6818 31.764L41.1658 31.4113C41.3931 31.2459 41.5622 31.0128 41.6491 30.7455C41.736 30.4781 41.7362 30.1901 41.6496 29.9227C41.563 29.6552 41.3941 29.4219 41.167 29.2562C40.9399 29.0905 40.6662 29.0008 40.3851 29H39.7851L39.5998 28.4307C39.5121 28.1639 39.3424 27.9316 39.115 27.767C38.8875 27.6023 38.6139 27.5137 38.3331 27.5137C38.0523 27.5137 37.7787 27.6023 37.5512 27.767C37.3238 27.9316 37.1541 28.1639 37.0664 28.4307L36.8798 29H36.2798C35.9984 29.0003 35.7243 29.0896 35.4968 29.2551C35.2693 29.4206 35.0999 29.6538 35.013 29.9214C34.9261 30.189 34.926 30.4772 35.0128 30.7448C35.0997 31.0125 35.2689 31.2458 35.4964 31.4113L35.9804 31.764L35.7998 32.3333C35.7131 32.601 35.7133 32.8892 35.8004 33.1568C35.8876 33.4243 36.0571 33.6574 36.2847 33.8228C36.5123 33.9881 36.7864 34.0772 37.0678 34.0773C37.3492 34.0774 37.6233 33.9885 37.8511 33.8233L38.3331 33.472ZM37.1578 30.97L36.2811 30.3333H37.3644C37.5052 30.3333 37.6424 30.2888 37.7563 30.206C37.8702 30.1232 37.9549 30.0066 37.9984 29.8727L38.3318 28.8347L38.3351 28.8427L38.6684 29.8727C38.7119 30.0066 38.7967 30.1232 38.9106 30.206C39.0245 30.2888 39.1616 30.3333 39.3024 30.3333H40.3858L39.5091 30.97C39.3954 31.0527 39.3107 31.1693 39.2673 31.3031C39.2238 31.4368 39.2237 31.5809 39.2671 31.7147L39.6004 32.7453L38.7244 32.1087C38.6105 32.0259 38.4733 31.9812 38.3324 31.9812C38.1916 31.9812 38.0544 32.0259 37.9404 32.1087L37.0644 32.7447L37.3978 31.7147C37.4413 31.5811 37.4416 31.4372 37.3985 31.3034C37.3554 31.1697 37.2711 31.053 37.1578 30.97Z" fill="#FF9900"/>
<path d="M43.4978 31.4113L43.9818 31.764L43.7998 32.3333C43.7131 32.601 43.7133 32.8892 43.8004 33.1568C43.8876 33.4243 44.0571 33.6574 44.2847 33.8228C44.5123 33.9881 44.7864 34.0772 45.0678 34.0773C45.3492 34.0774 45.6233 33.9885 45.8511 33.8233L46.3331 33.472L46.8178 33.8233C47.0443 33.9919 47.3191 34.0829 47.6014 34.0829C47.8838 34.0829 48.1586 33.9919 48.3851 33.8233C48.6147 33.6596 48.7856 33.4263 48.8722 33.158C48.9589 32.8896 48.9569 32.6005 48.8664 32.3333L48.6818 31.764L49.1658 31.4113C49.3931 31.2459 49.5622 31.0128 49.6491 30.7455C49.736 30.4781 49.7362 30.1901 49.6496 29.9227C49.563 29.6552 49.3941 29.4219 49.167 29.2562C48.9399 29.0905 48.6662 29.0008 48.3851 29H47.7851L47.5998 28.4307C47.5121 28.1639 47.3424 27.9316 47.115 27.767C46.8875 27.6023 46.6139 27.5137 46.3331 27.5137C46.0523 27.5137 45.7787 27.6023 45.5512 27.767C45.3238 27.9316 45.1541 28.1639 45.0664 28.4307L44.8798 29H44.2798C43.9984 29.0003 43.7243 29.0896 43.4968 29.2551C43.2693 29.4206 43.0999 29.6538 43.013 29.9214C42.9261 30.189 42.926 30.4772 43.0128 30.7448C43.0997 31.0125 43.2689 31.2458 43.4964 31.4113H43.4978ZM45.3644 30.3333C45.5052 30.3333 45.6424 30.2888 45.7563 30.206C45.8702 30.1232 45.9549 30.0066 45.9984 29.8727L46.3318 28.8347L46.3351 28.8427L46.6684 29.8727C46.7119 30.0066 46.7967 30.1232 46.9106 30.206C47.0245 30.2888 47.1616 30.3333 47.3024 30.3333H48.3858L47.5091 30.97C47.3954 31.0527 47.3107 31.1693 47.2673 31.3031C47.2238 31.4368 47.2237 31.5809 47.2671 31.7147L47.6004 32.7453L46.7244 32.1087C46.6105 32.0259 46.4733 31.9812 46.3324 31.9812C46.1916 31.9812 46.0544 32.0259 45.9404 32.1087L45.0644 32.7447L45.3978 31.7147C45.4411 31.5809 45.4411 31.4368 45.3976 31.3031C45.3541 31.1693 45.2695 31.0527 45.1558 30.97L44.2811 30.3333H45.3644Z" fill="#FF9900"/>
<path d="M32.3851 29H31.7851L31.5998 28.4307C31.5121 28.1639 31.3424 27.9316 31.115 27.767C30.8875 27.6023 30.6139 27.5137 30.3331 27.5137C30.0523 27.5137 29.7787 27.6023 29.5512 27.767C29.3238 27.9316 29.1541 28.1639 29.0664 28.4307L28.8798 29H28.2798C27.9984 29.0003 27.7243 29.0896 27.4968 29.2551C27.2693 29.4206 27.0999 29.6538 27.013 29.9214C26.9261 30.189 26.926 30.4772 27.0128 30.7448C27.0997 31.0125 27.2689 31.2458 27.4964 31.4113L27.9804 31.764L27.7998 32.3333C27.7131 32.601 27.7133 32.8892 27.8004 33.1568C27.8876 33.4243 28.0571 33.6574 28.2847 33.8228C28.5123 33.9881 28.7864 34.0772 29.0678 34.0773C29.3492 34.0774 29.6233 33.9885 29.8511 33.8233L30.3331 33.472L30.8178 33.8233C31.0443 33.9919 31.3191 34.0829 31.6014 34.0829C31.8838 34.0829 32.1586 33.9919 32.3851 33.8233C32.6147 33.6596 32.7856 33.4263 32.8722 33.158C32.9589 32.8896 32.9569 32.6005 32.8664 32.3333L32.6818 31.764L33.1658 31.4113C33.3931 31.2459 33.5622 31.0128 33.6491 30.7455C33.736 30.4781 33.7362 30.1901 33.6496 29.9227C33.563 29.6552 33.3941 29.4219 33.167 29.2562C32.9399 29.0905 32.6662 29.0008 32.3851 29ZM31.5084 30.97C31.3947 31.0527 31.31 31.1693 31.2666 31.3031C31.2231 31.4368 31.2231 31.5809 31.2664 31.7147L31.5998 32.7453L30.7238 32.1087C30.6098 32.0259 30.4726 31.9812 30.3318 31.9812C30.1909 31.9812 30.0537 32.0259 29.9398 32.1087L29.0638 32.7447L29.3971 31.7147C29.4405 31.5809 29.4404 31.4368 29.3969 31.3031C29.3535 31.1693 29.2688 31.0527 29.1551 30.97L28.2811 30.3333H29.3644C29.5052 30.3333 29.6424 30.2888 29.7563 30.206C29.8702 30.1232 29.9549 30.0066 29.9984 29.8727L30.3318 28.8347V28.8427L30.6651 29.8727C30.7086 30.0066 30.7934 30.1232 30.9073 30.206C31.0211 30.2888 31.1583 30.3333 31.2991 30.3333H32.3824L31.5084 30.97Z" fill="#FF9900"/>
<path d="M27.6668 19H26.3335V20.3333H27.6668V19Z" fill="#FF9900"/>
<path d="M41 19H29V20.3333H41V19Z" fill="#FF9900"/>
<path d="M41.0002 21.666H26.3335V22.9993H41.0002V21.666Z" fill="#FF9900"/>
<path d="M50.9998 49.666H49.6665V50.9993H50.9998V49.666Z" fill="#FF9900"/>
<path d="M48.3332 49.666H37.6665V50.9993H48.3332V49.666Z" fill="#FF9900"/>
<path d="M50.9998 47H37.6665V48.3333H50.9998V47Z" fill="#FF9900"/>
<path d="M50.9998 44.334H37.6665V45.6673H50.9998V44.334Z" fill="#FF9900"/>
<path d="M50.9998 41.666H37.6665V42.9993H50.9998V41.666Z" fill="#FF9900"/>
<path d="M38.9998 39H37.6665V40.3333H38.9998V39Z" fill="#FF9900"/>
<path d="M51.0002 39H40.3335V40.3333H51.0002V39Z" fill="#FF9900"/>
</svg>
