<svg width="70" height="70" viewBox="0 0 70 70" fill="none" xmlns="http://www.w3.org/2000/svg">
<rect width="70" height="70" rx="5.25" fill="#FFF5DB"/>
<path d="M43.2809 15.0012C42.1851 15.0278 41.0654 15.3773 40.1836 16.018C39.3017 16.6586 38.656 17.6181 38.5254 18.8024C38.3679 20.2305 38.5041 21.6912 39.2137 23.1042H22.6323C22.6063 23.1017 22.5801 23.1017 22.5541 23.1042C22.3848 23.1402 22.2531 23.3066 22.2569 23.4796V28.626H21.1306C19.1191 28.626 17.4858 30.254 17.4858 32.2551V47.5071V50.3696H14.8578H14.8109C14.6305 50.3922 14.481 50.5632 14.4824 50.7451V51.3865C14.4824 53.3866 16.1124 54.9005 18.096 54.9999C18.1012 55 18.1064 55 18.1116 54.9999H28.9835H39.7768H50.6487C52.6575 54.9999 54.3091 53.3889 54.3091 51.3865V50.7451C54.3091 50.5485 54.1303 50.3697 53.9337 50.3696H51.3057V47.5071V45.3483V33.4127H52.9638C53.1604 33.4127 53.3392 33.2338 53.3393 33.0373V25.2474C53.5917 25.0084 53.8318 24.7452 54.0432 24.4809C54.6741 23.6791 54.9549 22.8503 55.2007 21.9624C55.2061 21.9574 55.2113 21.9522 55.2164 21.9468C55.2179 21.9418 55.2149 21.936 55.2164 21.9312C55.2217 21.9262 55.2269 21.921 55.232 21.9156C55.249 21.8783 55.2505 21.8279 55.2633 21.7905C55.2817 21.7213 55.3077 21.6572 55.3258 21.5871C55.3276 21.5663 55.3276 21.5454 55.3258 21.5245C55.3286 21.4985 55.3286 21.4723 55.3258 21.4463C55.3354 21.3856 55.3626 21.3443 55.3727 21.2743C55.4101 21.016 55.4421 20.7106 55.4666 20.3983C55.5155 19.7736 55.5377 19.1637 55.4979 18.8027C55.0598 14.8312 48.9719 13.6683 47.0192 16.9099C46.2237 15.5962 44.7667 14.9651 43.2809 15.0012ZM43.2965 15.7521C44.7698 15.7162 46.13 16.3329 46.6597 17.7543C46.6864 17.8262 46.7344 17.8881 46.7973 17.9318C46.8603 17.9756 46.935 17.999 47.0117 17.999C47.0883 17.999 47.1631 17.9756 47.226 17.9318C47.2889 17.8881 47.3369 17.8262 47.3636 17.7543C48.5745 14.505 54.3871 15.4738 54.7626 18.8806C54.7852 19.0863 54.7626 19.7357 54.7157 20.3354C54.6921 20.6353 54.6713 20.9303 54.6374 21.1644C54.6242 21.2558 54.6214 21.2656 54.6062 21.3365C54.5992 21.3569 54.5939 21.3778 54.5905 21.3991C54.588 21.4104 54.5772 21.4206 54.5749 21.4304C54.3152 22.4278 54.0638 23.2252 53.4486 24.0114C52.0515 25.7579 49.3034 26.9981 47.0038 28.1098C43.5326 26.6979 41.518 25.1805 40.4183 23.6517C39.3019 22.1001 39.0793 20.5254 39.2607 18.8806C39.3664 17.9224 39.8943 17.1679 40.6373 16.628C41.3803 16.0882 42.3493 15.775 43.2965 15.7521ZM23.0078 23.8553H39.6518C39.7043 23.9344 39.7516 24.0113 39.8083 24.09C41.042 25.8046 43.2325 27.3993 46.8788 28.861C46.9258 28.8812 46.9763 28.8916 47.0274 28.8916C47.0785 28.8916 47.1291 28.8812 47.176 28.861C48.8969 28.0253 50.9716 27.1362 52.5882 25.8889V32.6621H34.02C33.8235 32.6621 33.6446 32.841 33.6446 33.0375L33.5351 38.9973L28.3732 32.8028C28.3023 32.7142 28.1895 32.6607 28.076 32.662H23.0077L23.0078 23.8553ZM24.4939 26.0766L24.1811 26.233L24.1342 26.5772L24.3845 26.8118L24.494 26.8274H30.5008L30.798 26.671L30.8449 26.3269L30.5946 26.0922L30.5008 26.0766H24.4939ZM32.0025 26.0766L31.6896 26.233L31.6427 26.5772L31.893 26.8118L32.0025 26.8274H32.7534L33.0506 26.671L33.0975 26.3269L32.8472 26.0922L32.7534 26.0766H32.0025ZM34.2551 26.0766L33.9422 26.233L33.8953 26.5772L34.1456 26.8118L34.2551 26.8274H40.2619L40.5592 26.671L40.6061 26.3269L40.3558 26.0922L40.2619 26.0766H34.2551ZM21.1306 29.3772H22.2569V31.2388H20.3797C20.3693 31.2383 20.3589 31.2383 20.3484 31.2388C20.338 31.2383 20.3276 31.2383 20.3172 31.2388C20.1423 31.2684 20.0018 31.4368 20.0043 31.6142V48.1331C20.0043 48.3297 20.1832 48.5085 20.3797 48.5085H48.3962C48.5928 48.5085 48.7716 48.3297 48.7716 48.1331V33.4133H50.5549V45.3489V47.5076V50.3702H40.4654H39.7302H32.0023H29.0145H18.2367V47.5076V32.2557C18.2367 30.6612 19.5212 29.3772 21.1306 29.3772ZM24.572 29.5493L24.2592 29.7057L24.2123 30.0499L24.4625 30.2845L24.572 30.3002H30.5789L30.8761 30.1437L30.923 29.7996L30.6727 29.565L30.5789 29.5493H24.572ZM32.0806 29.5493L31.7677 29.7057L31.7208 30.0499L31.9711 30.2845L32.0806 30.3002H32.8315L33.1287 30.1437L33.1756 29.7996L32.9253 29.565L32.8314 29.5493H32.0806ZM34.3332 29.5493L34.0203 29.7057L33.9734 30.0499L34.2237 30.2845L34.3332 30.3002H40.34L40.6372 30.1437L40.6842 29.7996L40.4339 29.565L40.34 29.5493H34.3332ZM20.7552 31.9896H22.2569V33.0377C22.2569 33.2343 22.4357 33.4131 22.6323 33.4131H27.9193L33.6133 40.2489C33.8068 40.4701 34.2483 40.3229 34.2703 40.0299L34.3955 33.4129H48.0205V47.7572H20.7549L20.7552 31.9896ZM37.1018 39.9832C36.3853 39.9832 35.7878 40.554 35.7878 41.266V42.3766L33.8168 42.5017C33.5145 42.5218 33.373 42.9901 33.6135 43.1744L35.913 44.8795L35.9286 44.895C36.0878 45.4345 36.5079 45.8649 37.1018 45.8649H44.7981C45.5146 45.8649 46.1277 45.2941 46.1277 44.5821V41.2658C46.1277 40.5538 45.5146 39.9831 44.7981 39.9831L37.1018 39.9832ZM37.1018 40.7341H44.7981C45.1276 40.7341 45.3769 40.9736 45.3769 41.266V44.5822C45.3769 44.8746 45.1276 45.1141 44.7981 45.1141H37.1018C36.7723 45.1141 36.5387 44.8746 36.5387 44.5822C36.5362 44.4662 36.4765 44.3527 36.3822 44.285L34.9118 43.19L36.1789 43.1118C36.3702 43.1038 36.5388 42.9279 36.5386 42.7364V41.266C36.5386 40.9736 36.7723 40.7341 37.1018 40.7341ZM37.7275 41.5632C37.531 41.5917 37.386 41.789 37.4147 41.9855C37.4434 42.1821 37.6405 42.3427 37.837 42.314H43.8749C44.0733 42.319 44.2503 42.1369 44.2503 41.9386C44.2503 41.7402 44.0733 41.5604 43.8749 41.5632H37.837H37.7588C37.7484 41.5627 37.7379 41.5627 37.7275 41.5632ZM37.8527 43.1744C37.6561 43.1949 37.5037 43.3845 37.5242 43.5811C37.5446 43.7777 37.7343 43.9457 37.9309 43.9252H42.6394C42.8377 43.9303 43.0148 43.7482 43.0148 43.5498C43.0148 43.3514 42.8377 43.1716 42.6394 43.1744H37.9309H37.884C37.8736 43.1739 37.8631 43.1739 37.8527 43.1744ZM15.2329 51.1209H17.767H28.6855C28.7424 52.024 29.4921 52.7027 30.3905 52.7478C30.4009 52.7482 30.4114 52.7482 30.4218 52.7478H33.1749H35.0051H38.3527C39.2742 52.7478 40.0316 52.0291 40.0891 51.1209H40.4645H51.0075H53.5573V51.3869C53.5573 52.9801 52.2597 54.2495 50.6478 54.2495H39.7759H28.9826H18.1262C18.1208 54.2492 18.1158 54.2498 18.1105 54.2495C16.4855 54.1607 15.2323 52.9772 15.2323 51.3869V51.1209H15.2329ZM29.4681 51.1209H32.0022H39.3076C39.2457 51.6086 38.8705 51.9969 38.3534 51.9969H35.0058H33.1756H30.4381C30.4328 51.9967 30.4277 51.9973 30.4225 51.9969C29.8938 51.9639 29.529 51.6004 29.4681 51.1209Z" fill="#FF9900"/>
</svg>
