<svg width="70" height="70" viewBox="0 0 70 70" fill="none" xmlns="http://www.w3.org/2000/svg">
<rect width="70" height="70" rx="5.25" fill="#FFF5DB"/>
<path d="M54.9633 39.9831L50.0381 29.7463C50.5854 26.9544 50.2907 19.594 50.3749 16.633C50.3749 16.2523 50.0381 15.9562 49.6592 15.9985L46.3758 16.5061C43.0081 16.9714 39.5142 16.633 36.2307 15.4062C35.8519 15.2793 35.0942 14.8986 34.7995 15.0255C31.2634 16.5061 27.4327 17.056 23.6441 16.5061L20.3607 16.0408C19.9818 15.9985 19.6451 16.2946 19.6451 16.6753C19.6871 19.4671 19.4346 26.8275 19.9397 29.4925L15.0566 39.6447C14.6357 40.4484 15.0145 41.506 15.8143 41.8444L18.5506 43.1557C19.3504 43.5787 20.4028 43.198 20.7395 42.3943L21.0342 41.8021L22.1287 42.3097C22.5076 42.4789 22.7601 42.8173 22.8022 43.2403L22.8864 44.2132L22.0445 45.6938C21.0763 47.2589 22.3813 49.5008 24.2335 49.3316C23.6862 51.4467 26.1699 53.181 27.9379 51.912C28.4009 53.0541 29.8743 53.6886 31.0109 53.181C31.4739 55.2538 34.4206 55.6768 35.473 53.8155L36.0624 52.758L37.7883 53.7732C39.2195 54.6616 41.198 53.4771 41.1559 51.7851C42.5872 52.0812 44.0184 50.7276 43.808 49.247C45.155 49.2893 46.3337 47.8088 45.9548 46.4975C47.3861 46.3283 48.2701 44.5939 47.5966 43.3249L49.1541 42.6481C49.4909 43.4941 50.5854 43.8748 51.3852 43.4941L54.1214 42.1828C55.0054 41.8444 55.3422 40.7868 54.9633 39.9831ZM20.9079 17.3944L23.4758 17.7751C27.3906 18.325 31.3476 17.8174 35.01 16.3369C38.6723 17.8174 42.6714 18.325 46.5442 17.7751L49.1541 17.3944C49.112 19.2133 49.2383 26.2776 49.0278 27.9696C48.5648 27.5889 47.9754 27.462 47.3861 27.6312C47.5124 26.2353 47.4703 21.4976 47.4703 20.0171C47.4703 19.6363 47.1335 19.3402 46.7546 19.3825C42.8398 19.9325 38.9249 19.5094 35.2204 18.1558C35.0942 18.1135 34.9258 18.1135 34.7995 18.1558C31.0951 19.5094 27.1381 19.9325 23.2653 19.3825C22.8864 19.3402 22.5496 19.6363 22.5496 20.0171C22.5496 21.2861 22.5076 26.0661 22.5917 27.2505C22.0445 27.0813 21.4131 27.2082 20.95 27.6312C20.8237 26.2353 20.9079 18.9172 20.9079 17.3944ZM44.3131 32.4958C43.808 32.7497 43.2607 33.0881 42.6714 32.8766L39.43 32.0305C37.9146 31.6075 36.4412 32.1574 35.2204 33.0881C34.5469 32.792 33.284 32.0305 32.5263 31.9459C31.6844 31.6921 28.9903 32.3689 28.0642 32.4958C27.8537 32.5381 27.6011 32.4958 27.3906 32.4112L25.9594 31.6921L26.2962 31.0153C26.7592 30.1693 26.4645 29.0695 25.5805 28.6465L23.8967 27.8427C23.6862 26.2776 23.8125 22.3013 23.7704 20.6939C27.559 21.1169 31.3897 20.6516 34.9679 19.3825C38.5881 20.6939 42.3767 21.1169 46.1653 20.6939C46.1232 22.5551 46.2495 26.4045 45.9969 28.2234L44.3973 29.0272C43.9763 29.2387 43.6817 29.5771 43.5554 30.0001C43.2607 30.7615 44.0184 31.819 44.3131 32.4958ZM20.6132 39.8985L19.6871 41.8444C19.603 42.0559 19.3504 42.1405 19.1399 42.0559L16.4037 40.7445C16.1932 40.6599 16.109 40.4061 16.1932 40.1946C16.53 39.4332 21.5394 29.0695 21.7077 28.6465C21.7919 28.435 22.0445 28.3504 22.255 28.435L24.9912 29.7463C25.2017 29.8309 25.2859 30.0847 25.2017 30.2962C24.8649 31.0576 21.0763 38.9679 20.6132 39.8985ZM23.602 47.978C23.0548 47.6819 22.8443 46.9205 23.1811 46.3706L24.1493 44.6362L24.907 43.3249C25.0754 43.0288 25.328 42.8173 25.6647 42.775C26.6329 42.5212 27.4748 43.6633 26.9276 44.5093C26.7592 44.7631 26.4645 45.313 26.3383 45.5669L25.2017 47.555C24.8649 48.1049 24.1493 48.2741 23.602 47.978ZM28.0642 49.7547C27.98 49.9239 27.7274 50.3892 27.6432 50.5584C26.8434 51.912 24.8649 50.7276 25.5805 49.3739C26.2541 48.2741 27.2223 46.4129 27.9379 45.3554C28.7377 44.5516 30.169 45.313 29.9164 46.4552C29.8322 46.7513 29.4112 47.3858 29.285 47.6396C29.285 47.5973 28.0642 49.7547 28.0642 49.7547ZM31.1793 51.5313C30.4215 52.758 28.5693 51.8697 29.0745 50.5161L30.3794 48.2318C30.5478 47.978 30.8846 47.1743 31.1372 47.0051C31.8949 46.3706 33.0736 46.9205 33.0736 47.9357C33.0736 48.2741 32.8631 48.6125 32.6947 48.8663C32.4 49.4585 31.5581 50.9391 31.1793 51.5313ZM36.1465 50.22L34.4206 53.2233C33.8313 54.2809 32.1896 53.8155 32.2316 52.6311C32.2316 52.4196 32.2737 52.2081 32.4 52.0389C32.4421 51.9966 34.3364 48.6125 34.2943 48.7817C35.2204 47.8088 36.8201 48.9932 36.1465 50.22ZM39.8089 52.3773C39.5142 52.8426 38.9249 53.0118 38.4618 52.758L36.6938 51.7005C36.9885 51.1929 37.4936 50.4738 37.4936 49.8816C37.5357 49.9239 38.6302 50.5161 38.6302 50.5584L39.3879 51.0237C39.8931 51.2775 40.0614 51.8697 39.8089 52.3773ZM46.46 44.8477C46.2074 45.313 45.576 45.4823 45.1129 45.2284C44.1026 44.6785 40.7771 42.6904 39.7247 42.0136C39.009 41.5906 38.3776 42.6481 39.0932 43.0711L43.0923 45.4823L44.3131 46.2014C45.4076 46.8782 44.4815 48.5702 43.3028 47.9357C43.1344 47.8511 38.1671 44.7631 37.8725 44.5516C37.1568 44.1286 36.5254 45.1438 37.1989 45.6092L42.082 48.6548C43.2607 49.3316 42.2083 51.1083 41.0717 50.4738L39.3037 49.4162L37.1147 48.1472C36.5254 47.2589 35.2625 46.8782 34.2943 47.3012C33.9576 45.9476 32.4842 45.1438 31.1793 45.6092C30.9267 44.3824 29.6217 43.4941 28.3588 43.7479C28.1905 41.4637 25.2859 40.6176 23.9388 42.4789C23.7283 41.8867 23.2653 41.3791 22.6759 41.1252L21.6235 40.6599C22.5076 38.7987 24.486 34.6532 25.4122 32.7497C26.212 33.1304 27.3486 33.9341 28.2747 33.6803L31.516 33.1304C32.0212 33.0458 32.5684 33.1304 33.0315 33.3419L34.0418 33.8495L29.4112 36.9798C28.9482 37.2759 28.6956 37.7835 28.6535 38.3334C28.6114 38.8833 28.864 39.3909 29.285 39.7293L29.8743 40.1946C30.632 40.8291 31.6844 41.0406 32.6526 40.7868L38.0408 39.3063C38.4618 39.1794 38.8828 39.264 39.2195 39.4755L46.0811 43.3672C46.1232 43.4518 46.1653 43.4941 46.2495 43.5787C46.6284 43.8748 46.7126 44.4247 46.46 44.8477ZM46.8809 42.3943L39.851 38.418C39.43 38.2065 38.967 38.0373 38.5039 38.0373C38.125 37.9104 32.821 39.5178 32.3579 39.6024C31.7686 39.7716 31.1372 39.6447 30.6741 39.264L30.0848 38.7987C29.8743 38.6295 29.8743 38.2488 30.1269 38.0796C30.8004 37.6143 36.1044 34.061 36.6096 33.7226C37.3673 33.215 38.2934 33.0458 39.1353 33.2996L42.3767 34.1456C43.2186 34.3994 44.1026 34.1033 44.8603 33.6803L48.691 41.6329L46.8809 42.3943ZM53.8688 40.8291C53.8267 40.956 53.7425 41.0406 53.6583 41.083L50.9221 42.3943C50.417 42.6058 50.2486 41.929 50.0802 41.5906C49.9539 41.4214 45.1129 31.3114 44.8182 30.6769C44.7341 30.4654 44.8182 30.2116 45.0287 30.127L47.7649 28.8157C47.9333 28.7311 48.1017 28.7734 48.228 28.9003C48.3122 28.9003 48.8173 30.0847 48.8594 30.1693L53.8688 40.5753C53.8688 40.6176 53.8688 40.7445 53.8688 40.8291Z" fill="#FF9900"/>
</svg>
