<svg width="70" height="70" viewBox="0 0 70 70" fill="none" xmlns="http://www.w3.org/2000/svg">
<rect width="70" height="70" rx="5.25" fill="#FFF5DB"/>
<path d="M59 26.5H11C10.1707 26.5 9.5 25.8293 9.5 25C9.5 24.1707 10.1707 23.5 11 23.5H59C59.8293 23.5 60.5 24.1707 60.5 25C60.5 25.8293 59.8293 26.5 59 26.5Z" fill="#FF9900" stroke="#FFF5DB"/>
<path d="M18.5255 39.3537L18.879 39.0002L18.5255 38.6466L13.9395 34.0606C13.3535 33.4747 13.3535 32.5257 13.9395 31.9395C14.5253 31.3535 15.4744 31.3535 16.0606 31.9396L22.0605 37.9395C22.6464 38.5254 22.6465 39.4744 22.0605 40.0606C22.0605 40.0606 22.0605 40.0607 22.0605 40.0607L16.0605 46.0606C15.7674 46.3538 15.3845 46.5002 15.0001 46.5002C14.6157 46.5002 14.2328 46.3538 13.9397 46.0606C13.3538 45.4747 13.3537 44.5257 13.9397 43.9395C13.9397 43.9395 13.9397 43.9395 13.9397 43.9395L18.5255 39.3537Z" fill="#FF9900" stroke="#FFF5DB"/>
<path d="M52.5255 39.3537L52.879 39.0002L52.5255 38.6466L47.9395 34.0606C47.3535 33.4747 47.3535 32.5257 47.9395 31.9395C48.5253 31.3535 49.4744 31.3535 50.0606 31.9396L56.0605 37.9395C56.6464 38.5254 56.6465 39.4744 56.0605 40.0606C56.0605 40.0606 56.0605 40.0607 56.0605 40.0607L50.0605 46.0606C49.7674 46.3538 49.3845 46.5002 49.0001 46.5002C48.6157 46.5002 48.2328 46.3538 47.9397 46.0606C47.3538 45.4747 47.3537 44.5257 47.9397 43.9395C47.9397 43.9395 47.9397 43.9395 47.9397 43.9395L52.5255 39.3537Z" fill="#FF9900" stroke="#FFF5DB"/>
<path d="M39.121 39.0001L39.4745 38.6465L44.0605 34.0606C44.0605 34.0606 44.0605 34.0606 44.0605 34.0605C44.6466 33.4743 44.6466 32.5253 44.0606 31.9395C43.4744 31.3535 42.5254 31.3535 41.9395 31.9395L35.9395 37.9394C35.9395 37.9394 35.9395 37.9394 35.9395 37.9395C35.3535 38.5256 35.3536 39.4747 35.9395 40.0605L41.9395 46.0605C42.2326 46.3537 42.6155 46.5001 42.9999 46.5001C43.3843 46.5001 43.7672 46.3538 44.0607 46.0606C44.0607 46.0606 44.0607 46.0606 44.0607 46.0606M39.121 39.0001L44.4141 43.5861C45.1953 44.3673 45.1953 45.6329 44.4141 46.4143L44.0607 46.0606M39.121 39.0001L39.4745 39.3537L44.0605 43.9397C44.6464 44.5255 44.6465 45.4744 44.0607 46.0606M39.121 39.0001L44.0607 46.0606" fill="#FF9900" stroke="#FFF5DB"/>
<path d="M35 46.5H23C22.1707 46.5 21.5 45.8293 21.5 45C21.5 44.1707 22.1707 43.5 23 43.5H35C35.8293 43.5 36.5 44.1707 36.5 45C36.5 45.8293 35.8293 46.5 35 46.5Z" fill="#FF9900" stroke="#FFF5DB"/>
<path d="M10.5 51V51.5H11H59H59.5V51V19V18.5H59H11H10.5V19V51ZM61 54.5H9C8.17074 54.5 7.5 53.8293 7.5 53V17C7.5 16.1707 8.17074 15.5 9 15.5H61C61.8293 15.5 62.5 16.1707 62.5 17V53C62.5 53.8293 61.8293 54.5 61 54.5Z" fill="#FF9900" stroke="#FFF5DB"/>
</svg>
