<svg width="70" height="70" viewBox="0 0 70 70" fill="none" xmlns="http://www.w3.org/2000/svg">
<rect width="70" height="70" rx="5.25" fill="#DFEEFF"/>
<path d="M20.9151 47.9727C19.6568 47.9727 18.6328 48.9292 18.6328 50.1046C18.6328 51.2799 19.6568 52.2365 20.9151 52.2365C22.1733 52.2365 23.1973 51.2799 23.1973 50.1046C23.1973 48.9292 22.1733 47.9727 20.9151 47.9727ZM20.9151 51.3112C20.1989 51.3112 19.6167 50.7673 19.6167 50.0983C19.6167 49.4294 20.1989 48.8854 20.9151 48.8854C21.6312 48.8854 22.2135 49.4294 22.2135 50.0983C22.2135 50.7673 21.6312 51.3112 20.9151 51.3112Z" fill="#2639ED"/>
<path d="M27.3008 47.9727C26.0426 47.9727 25.0186 48.9292 25.0186 50.1046C25.0186 51.2799 26.0426 52.2365 27.3008 52.2365C28.5591 52.2365 29.5831 51.2799 29.5831 50.1046C29.5831 48.9292 28.5591 47.9727 27.3008 47.9727ZM27.3008 51.3112C26.5847 51.3112 26.0024 50.7673 26.0024 50.0983C26.0024 49.4294 26.5847 48.8854 27.3008 48.8854C28.017 48.8854 28.5992 49.4294 28.5992 50.0983C28.5992 50.7673 28.017 51.3112 27.3008 51.3112Z" fill="#2639ED"/>
<path d="M32.6408 47.7656C32.3664 47.7656 32.1455 47.9719 32.1455 48.2283V51.9794C32.1455 52.2358 32.3664 52.4421 32.6408 52.4421C32.9152 52.4421 33.136 52.2358 33.136 51.9794V48.2283C33.136 47.9719 32.9152 47.7656 32.6408 47.7656Z" fill="#2639ED"/>
<path d="M35.4923 47.7656C35.2179 47.7656 34.9971 47.9719 34.9971 48.2283V51.9794C34.9971 52.2358 35.2179 52.4421 35.4923 52.4421C35.7667 52.4421 35.9876 52.2358 35.9876 51.9794V48.2283C35.9809 47.9719 35.7601 47.7656 35.4923 47.7656Z" fill="#2639ED"/>
<path d="M38.3439 47.7656C38.0695 47.7656 37.8486 47.9719 37.8486 48.2283V51.9794C37.8486 52.2358 38.0695 52.4421 38.3439 52.4421C38.6183 52.4421 38.8392 52.2358 38.8392 51.9794V48.2283C38.8325 47.9719 38.6116 47.7656 38.3439 47.7656Z" fill="#2639ED"/>
<path d="M20.9151 35.6621C19.6568 35.6621 18.6328 36.6187 18.6328 37.794C18.6328 38.9694 19.6568 39.9259 20.9151 39.9259C22.1733 39.9259 23.1973 38.9694 23.1973 37.794C23.1973 36.6187 22.1733 35.6621 20.9151 35.6621ZM20.9151 39.0007C20.1989 39.0007 19.6167 38.4567 19.6167 37.7878C19.6167 37.1188 20.1989 36.5749 20.9151 36.5749C21.6312 36.5749 22.2135 37.1188 22.2135 37.7878C22.2068 38.4567 21.6312 39.0007 20.9151 39.0007Z" fill="#2639ED"/>
<path d="M27.3008 35.6621C26.0426 35.6621 25.0186 36.6187 25.0186 37.794C25.0186 38.9694 26.0426 39.9259 27.3008 39.9259C28.5591 39.9259 29.5831 38.9694 29.5831 37.794C29.5831 36.6187 28.5591 35.6621 27.3008 35.6621ZM27.3008 39.0007C26.5847 39.0007 26.0024 38.4567 26.0024 37.7878C26.0024 37.1188 26.5847 36.5749 27.3008 36.5749C28.017 36.5749 28.5992 37.1188 28.5992 37.7878C28.5992 38.4567 28.017 39.0007 27.3008 39.0007Z" fill="#2639ED"/>
<path d="M32.6408 35.457C32.3664 35.457 32.1455 35.6633 32.1455 35.9197V39.6708C32.1455 39.9272 32.3664 40.1335 32.6408 40.1335C32.9152 40.1335 33.136 39.9272 33.136 39.6708V35.9197C33.136 35.6633 32.9152 35.457 32.6408 35.457Z" fill="#2639ED"/>
<path d="M35.4923 35.457C35.2179 35.457 34.9971 35.6633 34.9971 35.9197V39.6708C34.9971 39.9272 35.2179 40.1335 35.4923 40.1335C35.7667 40.1335 35.9876 39.9272 35.9876 39.6708V35.9197C35.9809 35.6633 35.7601 35.457 35.4923 35.457Z" fill="#2639ED"/>
<path d="M38.3439 35.457C38.0695 35.457 37.8486 35.6633 37.8486 35.9197V39.6708C37.8486 39.9272 38.0695 40.1335 38.3439 40.1335C38.6183 40.1335 38.8392 39.9272 38.8392 39.6708V35.9197C38.8325 35.6633 38.6116 35.457 38.3439 35.457Z" fill="#2639ED"/>
<path d="M51.2741 40.4267H49.4202C48.9651 40.4267 48.5903 40.0766 48.5903 39.6515V37.2945C51.9033 36.8631 54.4599 34.206 54.4599 30.9987C54.4599 27.4914 51.4013 24.6343 47.6466 24.6343C47.3923 24.6343 47.1447 24.6468 46.9037 24.6718C46.7632 21.6521 44.0927 19.2388 40.8333 19.2388C39.9632 19.2388 39.1132 19.4076 38.3369 19.739C36.8979 16.8443 33.8259 15 30.3657 15C25.5067 15 21.5579 18.6887 21.5579 23.2276C21.5579 24.2842 21.7788 25.3407 22.1937 26.3035C20.3398 26.96 18.9209 28.4229 18.4256 30.236C18.3587 30.4798 18.5193 30.7299 18.7804 30.7924C19.0481 30.855 19.3091 30.7049 19.376 30.4611C19.8311 28.7981 21.2166 27.4789 22.9902 27.0225C23.1307 26.985 23.2445 26.8912 23.3047 26.7724C23.365 26.6474 23.365 26.5036 23.298 26.3848C22.8028 25.4158 22.535 24.3279 22.535 23.2276C22.535 19.1951 26.0421 15.919 30.359 15.919C33.5849 15.919 36.4428 17.7321 37.6274 20.533C37.681 20.658 37.788 20.7518 37.9219 20.7956C38.0558 20.8393 38.203 20.8268 38.3302 20.7643C39.0798 20.3642 39.9498 20.1516 40.8333 20.1516C43.6376 20.1516 45.9199 22.2898 45.9199 24.9093C45.9199 24.9844 45.9199 25.0594 45.9132 25.1344C45.8864 25.2845 45.9466 25.4345 46.0604 25.5408C46.1809 25.6471 46.3415 25.6846 46.5021 25.6533C46.8502 25.5846 47.2384 25.547 47.6466 25.547C50.8592 25.547 53.4761 27.9916 53.4761 30.9925C53.4761 33.9934 50.8592 36.438 47.6466 36.438H44.5545C44.2801 36.438 44.0592 36.6443 44.0592 36.9006C44.0592 37.1569 44.2801 37.3632 44.5545 37.3632H47.6065V39.6515C47.6065 40.583 48.423 41.3457 49.4202 41.3457H51.2741C52.1442 41.3457 52.8536 42.0084 52.8536 42.8212V43.1275C52.8536 43.9403 52.1442 44.603 51.2741 44.603H48.858C47.4458 44.603 46.2947 45.6783 46.2947 46.9975C46.2947 48.3167 47.4458 49.392 48.858 49.392H51.2741C52.1442 49.392 52.8536 50.0547 52.8536 50.8675V50.9988C52.8536 51.8115 52.1442 52.4742 51.2741 52.4742H41.9175V46.3786C41.9175 45.7346 41.3553 45.2032 40.6593 45.2032H38.6046V42.6899H40.6593C41.3486 42.6899 41.9175 42.1647 41.9175 41.5145V34.0685C41.9175 33.4245 41.3553 32.8931 40.6593 32.8931H16.7993C16.1099 32.8931 15.541 33.4183 15.541 34.0685V41.5145C15.541 42.1585 16.1032 42.6899 16.7993 42.6899H18.6465V45.2032H16.7993C16.1099 45.2032 15.541 45.7284 15.541 46.3786V53.8246C15.541 54.4686 16.1032 55 16.7993 55H40.6593C41.3486 55 41.9175 54.4748 41.9175 53.8246V53.3932H51.2741C52.6863 53.3932 53.8375 52.3179 53.8375 50.9988V50.8675C53.8375 49.5483 52.6863 48.473 51.2741 48.473H48.858C47.9879 48.473 47.2785 47.8103 47.2785 46.9975C47.2785 46.1847 47.9879 45.522 48.858 45.522H51.2741C52.6863 45.522 53.8375 44.4467 53.8375 43.1275V42.8212C53.8375 41.502 52.6863 40.4267 51.2741 40.4267ZM16.5316 41.5145V34.0685C16.5316 33.9309 16.652 33.8121 16.7993 33.8121H40.6593C40.8065 33.8121 40.9337 33.9247 40.9337 34.0685V41.5145C40.9337 41.6521 40.8132 41.7709 40.6593 41.7709H16.7993C16.652 41.7709 16.5316 41.6583 16.5316 41.5145ZM19.637 42.6899H37.6274V45.2032H19.637V42.6899ZM40.9337 53.8246C40.9337 53.9622 40.8132 54.081 40.6593 54.081H16.7993C16.652 54.081 16.5316 53.9684 16.5316 53.8246V46.3786C16.5316 46.241 16.652 46.1285 16.7993 46.1285H40.6593C40.8065 46.1285 40.9337 46.241 40.9337 46.3786V53.8246Z" fill="#2639ED"/>
<path d="M38.8389 25.9838C38.9661 25.9838 39.0933 25.9401 39.187 25.8463C39.3811 25.665 39.3811 25.3774 39.187 25.1961C37.4401 23.5643 35.1177 22.6641 32.6414 22.6641C32.6414 22.6641 32.6414 22.6641 32.6347 22.6641C30.1583 22.6641 27.8359 23.5643 26.0958 25.1899C25.9017 25.3712 25.9017 25.6587 26.0958 25.8401C26.2899 26.0214 26.5977 26.0214 26.7918 25.8401C30.0178 22.8266 35.265 22.8329 38.4909 25.8463C38.5913 25.9401 38.7118 25.9838 38.8389 25.9838Z" fill="#2639ED"/>
<path d="M36.6503 28.0344C36.7775 28.0344 36.9046 27.9906 36.9983 27.8968C37.1924 27.7155 37.1924 27.4279 36.9983 27.2466C35.8338 26.1588 34.2877 25.5648 32.6413 25.5586C32.6413 25.5586 32.6413 25.5586 32.6346 25.5586C30.9882 25.5586 29.4421 26.1525 28.2842 27.2404C28.0901 27.4217 28.0901 27.7093 28.2842 27.8906C28.4783 28.0719 28.7862 28.0719 28.9803 27.8906C29.9575 26.9778 31.2559 26.4776 32.6346 26.4776C32.6346 26.4776 32.6346 26.4776 32.6413 26.4776C34.0267 26.4776 35.3251 26.984 36.3023 27.8968C36.396 27.9844 36.5231 28.0344 36.6503 28.0344Z" fill="#2639ED"/>
<path d="M30.4796 29.285C30.2855 29.4663 30.2855 29.7539 30.4796 29.9352C30.6736 30.1165 30.9815 30.1165 31.1756 29.9352C31.9854 29.1787 33.3039 29.185 34.1205 29.9415C34.2142 30.029 34.3413 30.079 34.4685 30.079C34.5957 30.079 34.7228 30.0353 34.8165 29.9415C35.0106 29.7602 35.0106 29.4726 34.8165 29.2913C33.6118 28.1722 31.6709 28.1722 30.4796 29.285Z" fill="#2639ED"/>
</svg>
