<svg width="70" height="70" viewBox="0 0 70 70" fill="none" xmlns="http://www.w3.org/2000/svg">
<rect width="70" height="70" rx="5.25" fill="#FFF5DB"/>
<path d="M34.9839 49.8555C34.8232 49.8555 34.663 49.853 34.5034 49.8475C34.1567 49.8365 33.8842 49.5462 33.8959 49.1995C33.9063 48.8521 34.2211 48.5772 34.5439 48.5919C34.69 48.5962 34.8367 48.5987 34.9839 48.5987L35.1324 48.5975C35.1429 48.5968 35.1533 48.5968 35.1625 48.5968C35.5098 48.5968 35.7909 48.8779 35.7909 49.2252C35.7909 49.5664 35.5191 49.8444 35.1797 49.8536C35.1711 49.8536 35.1625 49.8543 35.1545 49.8543L34.9839 49.8555ZM37.7019 49.5965C37.4067 49.5965 37.1434 49.3879 37.0851 49.0866C37.0201 48.746 37.2428 48.4164 37.584 48.3508C37.7847 48.3121 37.9835 48.2698 38.1811 48.2219C38.5174 48.1433 38.858 48.3483 38.939 48.6864C39.02 49.024 38.812 49.3627 38.4745 49.4443C38.2585 49.4959 38.0412 49.5431 37.8209 49.5855C37.781 49.5928 37.7411 49.5965 37.7019 49.5965ZM31.9899 49.5401C31.9463 49.5401 31.9021 49.5358 31.8579 49.5259C31.6388 49.4793 31.4222 49.4278 31.2074 49.3713C30.8718 49.2835 30.6711 48.9399 30.7595 48.6042C30.8472 48.2685 31.1921 48.0679 31.5265 48.1562C31.7229 48.2078 31.9211 48.2544 32.1206 48.2974C32.4599 48.3698 32.6765 48.7036 32.6035 49.043C32.5403 49.3382 32.2801 49.5401 31.9899 49.5401ZM40.7475 48.6441C40.5063 48.6441 40.2768 48.5054 40.1725 48.271C40.032 47.9537 40.1743 47.5825 40.4916 47.4413C40.6782 47.3585 40.8622 47.2719 41.0445 47.1817C41.3575 47.0265 41.733 47.1541 41.8871 47.4646C42.0417 47.7758 41.9147 48.1526 41.6042 48.3072C41.406 48.406 41.2047 48.4999 41.0022 48.5901C40.9193 48.6269 40.8328 48.6441 40.7475 48.6441ZM28.9639 48.5244C28.8755 48.5244 28.7853 48.5054 28.6994 48.4655C28.4962 48.371 28.295 48.2722 28.0974 48.1679C27.7905 48.0059 27.6727 47.6254 27.8347 47.3186C27.9973 47.0117 28.376 46.8945 28.684 47.0559C28.8632 47.1504 29.0449 47.2406 29.2296 47.3266C29.5444 47.4726 29.6806 47.8463 29.534 48.1611C29.4278 48.39 29.2007 48.5244 28.9639 48.5244ZM43.5004 47.0357C43.3083 47.0357 43.1187 46.9479 42.9954 46.7816C42.7885 46.503 42.8468 46.1097 43.1255 45.9029C43.2881 45.782 43.4476 45.6568 43.6041 45.5285C43.8741 45.307 44.2693 45.3475 44.4884 45.615C44.7087 45.8832 44.6701 46.2796 44.4019 46.4993C44.2294 46.6411 44.0539 46.7786 43.8741 46.9117C43.7618 46.9952 43.6305 47.0357 43.5004 47.0357ZM26.2429 46.8583C26.1085 46.8583 25.9722 46.8154 25.8581 46.7258C25.682 46.5895 25.5095 46.449 25.3402 46.3042C25.0757 46.079 25.0444 45.6825 25.2696 45.4187C25.4942 45.1542 25.8925 45.1223 26.1551 45.3481C26.311 45.4806 26.4687 45.6089 26.6289 45.7341C26.9032 45.947 26.9529 46.3416 26.7393 46.6153C26.616 46.7749 26.4306 46.8583 26.2429 46.8583ZM45.828 44.8553C45.6838 44.8553 45.539 44.8062 45.4206 44.705C45.1561 44.4804 45.1248 44.0833 45.35 43.8195C45.4819 43.6642 45.6114 43.5059 45.7372 43.3451C45.9508 43.0708 46.3454 43.0217 46.6191 43.2365C46.8928 43.45 46.9412 43.8452 46.7277 44.1183C46.5908 44.2938 46.4503 44.4656 46.3061 44.6344C46.1821 44.7805 46.0054 44.8553 45.828 44.8553ZM23.9594 44.6313C23.7778 44.6313 23.5973 44.5528 23.4734 44.4018C23.3316 44.2294 23.1948 44.0545 23.061 43.8753C22.8536 43.5973 22.9113 43.2033 23.1893 42.9959C23.4679 42.7879 23.8612 42.8456 24.0686 43.1242C24.1901 43.2874 24.3159 43.4476 24.4442 43.6041C24.6645 43.8722 24.6259 44.2687 24.3577 44.4883C24.2405 44.5847 24.0993 44.6313 23.9594 44.6313ZM47.6157 42.2129C47.5175 42.2129 47.4174 42.1896 47.3242 42.1411C47.0173 41.9797 46.8983 41.5998 47.0597 41.2924C47.1542 41.1126 47.2456 40.9291 47.3321 40.7444C47.4806 40.4296 47.855 40.2945 48.168 40.4424C48.4822 40.5903 48.6172 40.9647 48.4699 41.2783C48.3748 41.4802 48.276 41.6796 48.1729 41.8766C48.0606 42.0908 47.8421 42.2129 47.6157 42.2129ZM22.2264 41.9545C21.9951 41.9545 21.7729 41.8269 21.6631 41.606C21.5643 41.4077 21.4698 41.2065 21.3796 41.0039C21.239 40.6867 21.3814 40.3154 21.6987 40.1743C22.0172 40.0344 22.3872 40.1761 22.5283 40.4934C22.6112 40.6799 22.6983 40.864 22.7885 41.0463C22.9432 41.3574 22.8161 41.7342 22.5056 41.8889C22.4154 41.9337 22.3203 41.9545 22.2264 41.9545ZM48.7718 39.2384C48.719 39.2384 48.665 39.2317 48.6116 39.2176C48.276 39.1298 48.0753 38.7862 48.1637 38.4505C48.2152 38.2541 48.2625 38.0559 48.3054 37.8565C48.3784 37.5177 48.7135 37.2999 49.0516 37.3741C49.391 37.4471 49.607 37.781 49.534 38.1203C49.4873 38.3382 49.4352 38.5548 49.3787 38.7696C49.3051 39.0519 49.0504 39.2384 48.7718 39.2384ZM21.1329 38.9598C20.8493 38.9598 20.5922 38.7665 20.5229 38.4787C20.4707 38.2633 20.4228 38.0455 20.3805 37.8252C20.3155 37.4846 20.5382 37.155 20.8794 37.0894C21.2182 37.0243 21.5489 37.2471 21.6152 37.5883C21.6539 37.7889 21.6968 37.9872 21.7441 38.1841C21.8257 38.5217 21.6183 38.861 21.2808 38.942C21.231 38.9543 21.182 38.9598 21.1329 38.9598ZM49.2314 36.083C49.2241 36.083 49.2161 36.083 49.2087 36.0823C48.862 36.0707 48.5908 35.7792 48.603 35.4325C48.608 35.2821 48.6104 35.1305 48.6104 34.9784L48.6092 34.8225C48.6055 34.4776 48.8792 34.1634 49.2241 34.1567C49.564 34.1321 49.8543 34.3911 49.8647 34.7353C49.8647 34.7384 49.8654 34.7722 49.8654 34.7752L49.8672 34.9784C49.8672 35.1453 49.8647 35.3116 49.8586 35.4767C49.8469 35.816 49.5683 36.083 49.2314 36.083ZM20.7377 35.1667L20.1093 35.16L20.1074 34.9722C20.1074 34.817 20.1099 34.6623 20.1142 34.5089C20.1246 34.1683 20.4038 33.8989 20.742 33.8989C20.7487 33.8989 20.7548 33.8989 20.761 33.8989C21.1077 33.9093 21.3808 34.199 21.371 34.5457C21.3667 34.6869 21.3642 34.8292 21.3642 34.9722L21.3654 35.1281L20.7377 35.1667ZM48.9712 32.844C48.6767 32.844 48.4134 32.636 48.3551 32.3359C48.3158 32.1352 48.2717 31.9364 48.2238 31.74C48.1416 31.4025 48.3484 31.0625 48.6853 30.9803C49.021 30.8981 49.3628 31.1043 49.445 31.4418C49.4978 31.6578 49.5456 31.875 49.5886 32.0953C49.6549 32.4359 49.4327 32.7661 49.0921 32.8324C49.0516 32.8403 49.0111 32.844 48.9712 32.844ZM21.0494 32.6206C21.0058 32.6206 20.9616 32.6163 20.9175 32.6065C20.5781 32.5341 20.3615 32.2003 20.4345 31.8609C20.4811 31.6425 20.5321 31.4264 20.5879 31.2123C20.6757 30.876 21.0212 30.6735 21.3538 30.7618C21.6901 30.849 21.8914 31.192 21.8042 31.5277C21.7533 31.7247 21.706 31.9235 21.6631 32.1236C21.5999 32.4187 21.3397 32.6206 21.0494 32.6206ZM48.009 29.8033C47.7685 29.8033 47.5389 29.6646 47.4346 29.4314C47.3512 29.2449 47.2646 29.0608 47.1738 28.8797C47.0179 28.5698 47.1431 28.1918 47.4536 28.0366C47.7648 27.8807 48.1422 28.0071 48.2968 28.3164C48.3962 28.5146 48.4914 28.7147 48.5822 28.9184C48.7239 29.2357 48.5816 29.6069 48.2649 29.7487C48.1815 29.7861 48.0943 29.8033 48.009 29.8033ZM22.0601 29.5953C21.9717 29.5953 21.8815 29.5762 21.7956 29.5364C21.4808 29.3903 21.3446 29.0166 21.4912 28.7018C21.5851 28.4986 21.6845 28.2986 21.7876 28.101C21.949 27.7942 22.3277 27.6757 22.6363 27.8365C22.9432 27.9979 23.0622 28.3778 22.9008 28.6852C22.8063 28.8644 22.7167 29.0473 22.6302 29.232C22.524 29.4609 22.297 29.5953 22.0601 29.5953ZM46.392 27.0553C46.2012 27.0553 46.0121 26.9688 45.8888 26.8043C45.7667 26.6417 45.6403 26.4809 45.5114 26.3238C45.2911 26.0556 45.3297 25.6592 45.5979 25.4395C45.8673 25.218 46.2625 25.2585 46.4822 25.526C46.6234 25.6979 46.7608 25.8721 46.894 26.0495C47.102 26.3269 47.0462 26.7209 46.7688 26.9295C46.6559 27.0142 46.5233 27.0553 46.392 27.0553ZM23.7231 26.8718C23.5888 26.8718 23.4537 26.8289 23.339 26.7405C23.0647 26.5275 23.0144 26.133 23.2267 25.8586C23.3635 25.6819 23.5041 25.5089 23.6489 25.3395C23.8735 25.0744 24.2699 25.0431 24.5344 25.2689C24.7989 25.4935 24.8302 25.8906 24.605 26.1544C24.4737 26.3091 24.3454 26.4674 24.2208 26.6282C24.0969 26.7884 23.9109 26.8718 23.7231 26.8718ZM44.2037 24.7338C44.0601 24.7338 43.9159 24.6847 43.7974 24.5847C43.6428 24.4534 43.4844 24.3245 43.3231 24.1999C43.0487 23.987 42.9984 23.5924 43.2108 23.3181C43.4237 23.0431 43.8183 22.9947 44.0926 23.2058C44.2687 23.3426 44.4418 23.4825 44.6111 23.6261C44.8756 23.8507 44.9082 24.2472 44.6836 24.5123C44.559 24.6583 44.3822 24.7338 44.2037 24.7338ZM25.9489 24.5853C25.7673 24.5853 25.5869 24.5067 25.4629 24.3558C25.2426 24.0876 25.2812 23.6912 25.5494 23.4715C25.7212 23.3303 25.8961 23.1929 26.0747 23.0597C26.3533 22.8511 26.7461 22.9094 26.9541 23.1867C27.1621 23.4641 27.1051 23.8581 26.8271 24.0661C26.6645 24.1882 26.5043 24.3134 26.3472 24.4423C26.23 24.5387 26.0888 24.5853 25.9489 24.5853ZM41.5563 22.9542C41.4593 22.9542 41.3605 22.9315 41.2679 22.8836C41.0862 22.7897 40.9028 22.6989 40.7168 22.6124C40.402 22.4663 40.2658 22.0926 40.4124 21.7778C40.5585 21.463 40.9304 21.3267 41.247 21.4734C41.4489 21.5673 41.6484 21.6655 41.846 21.7679C42.154 21.9275 42.2743 22.3067 42.1147 22.6148C42.0031 22.8308 41.784 22.9542 41.5563 22.9542ZM28.6233 22.8492C28.3932 22.8492 28.171 22.7222 28.0612 22.5025C27.9053 22.1926 28.0305 21.8146 28.341 21.6593C28.5392 21.5593 28.7405 21.4648 28.9448 21.374C29.2633 21.2316 29.6334 21.377 29.7739 21.6937C29.9144 22.011 29.7714 22.3822 29.4542 22.5228C29.2682 22.605 29.0854 22.6921 28.9043 22.7823C28.8141 22.8277 28.7178 22.8492 28.6233 22.8492ZM38.5788 21.8084C38.526 21.8084 38.4732 21.8023 38.4205 21.7882C38.2241 21.7373 38.0259 21.6906 37.8258 21.6483C37.4865 21.5765 37.2692 21.2433 37.341 20.9033C37.4128 20.5639 37.7436 20.3467 38.086 20.4185C38.3045 20.4645 38.5211 20.5161 38.7359 20.5719C39.0722 20.659 39.2735 21.0021 39.1863 21.3378C39.1127 21.6207 38.858 21.8084 38.5788 21.8084ZM31.6161 21.7538C31.3332 21.7538 31.0761 21.5618 31.0061 21.2746C30.9239 20.937 31.1307 20.5971 31.4676 20.5148C31.6836 20.4621 31.9009 20.4148 32.1212 20.3719C32.4599 20.3037 32.7919 20.5277 32.8582 20.8683C32.9245 21.2089 32.7023 21.539 32.3617 21.6053C32.1611 21.6446 31.9622 21.6882 31.7659 21.736C31.7155 21.7483 31.6658 21.7538 31.6161 21.7538ZM35.4215 21.3586C35.4147 21.3586 35.4086 21.3586 35.4018 21.3586C35.265 21.3543 35.1281 21.3525 34.9901 21.3525L34.8342 21.3537L34.7814 20.7259L34.8017 20.0975L34.9901 20.0957C35.1404 20.0957 35.2908 20.0975 35.4399 20.1018C35.7866 20.1123 36.0597 20.4019 36.0493 20.7493C36.0388 21.0898 35.7596 21.3586 35.4215 21.3586Z" fill="#FF9900"/>
<path d="M34.8271 21.3542C34.4798 21.3542 34.1987 21.0731 34.1987 20.7258V20.4116C34.1987 20.0643 34.4798 19.7832 34.8271 19.7832C35.1745 19.7832 35.4555 20.0643 35.4555 20.4116V20.7258C35.4555 21.0731 35.1745 21.3542 34.8271 21.3542Z" fill="#FF9900"/>
<path d="M33.8766 19.0368C33.7839 19.0368 33.6901 19.0165 33.6011 18.9729C33.49 18.9183 33.3703 18.8846 33.2458 18.8717C32.9003 18.8355 32.6493 18.5268 32.6849 18.1819C32.7211 17.8364 33.0224 17.5928 33.3746 17.621C33.6471 17.6493 33.9091 17.7241 34.1534 17.8438C34.4651 17.9966 34.594 18.3728 34.4418 18.6845C34.3326 18.9073 34.1092 19.0368 33.8766 19.0368ZM30.9408 18.8662H30.348C30.0007 18.8662 29.7196 18.5851 29.7196 18.2378C29.7196 17.8904 30.0007 17.6094 30.348 17.6094H30.9408C31.2882 17.6094 31.5692 17.8904 31.5692 18.2378C31.5692 18.5851 31.2882 18.8662 30.9408 18.8662ZM27.978 18.8662H27.3852C27.0379 18.8662 26.7568 18.5851 26.7568 18.2378C26.7568 17.8904 27.0379 17.6094 27.3852 17.6094H27.978C28.3254 17.6094 28.6064 17.8904 28.6064 18.2378C28.6064 18.5851 28.3254 18.8662 27.978 18.8662ZM25.0153 18.8662H24.4231C24.0757 18.8662 23.7947 18.5851 23.7947 18.2378C23.7947 17.8904 24.0757 17.6094 24.4231 17.6094H25.0153C25.3626 17.6094 25.6437 17.8904 25.6437 18.2378C25.6437 18.5851 25.3626 18.8662 25.0153 18.8662Z" fill="#FF9900"/>
<path d="M22.0506 18.8662H21.7364C21.3891 18.8662 21.108 18.5851 21.108 18.2378C21.108 17.8904 21.3891 17.6094 21.7364 17.6094H22.0506C22.398 17.6094 22.679 17.8904 22.679 18.2378C22.679 18.5851 22.398 18.8662 22.0506 18.8662Z" fill="#FF9900"/>
<path d="M19.115 21.4987C17.3231 21.4987 15.8656 20.0413 15.8656 18.2494C15.8656 16.4575 17.3231 15 19.115 15C20.9069 15 22.3643 16.4575 22.3643 18.2494C22.3643 20.0413 20.9069 21.4987 19.115 21.4987ZM19.115 16.2568C18.0165 16.2568 17.1224 17.1509 17.1224 18.2494C17.1224 19.3478 18.0165 20.2419 19.115 20.2419C20.2134 20.2419 21.1075 19.3478 21.1075 18.2494C21.1075 17.1509 20.2134 16.2568 19.115 16.2568Z" fill="#FF9900"/>
<path d="M49.6989 35.6025H49.3847C49.0374 35.6025 48.7563 35.3214 48.7563 34.9741C48.7563 34.6268 49.0374 34.3457 49.3847 34.3457H49.6989C50.0463 34.3457 50.3273 34.6268 50.3273 34.9741C50.3273 35.3214 50.0463 35.6025 49.6989 35.6025Z" fill="#FF9900"/>
<path d="M51.7014 34.6523C51.6087 34.6523 51.5148 34.6321 51.4258 34.5885C51.1141 34.4357 50.9852 34.0595 51.1374 33.7478C51.192 33.6367 51.2258 33.5171 51.2386 33.3925C51.2742 33.047 51.5798 32.8046 51.9284 32.8316C52.2739 32.8678 52.5249 33.1765 52.4893 33.5214C52.4611 33.7938 52.3862 34.0559 52.2665 34.3001C52.1573 34.5229 51.9339 34.6523 51.7014 34.6523ZM51.8726 31.716C51.5252 31.716 51.2442 31.4349 51.2442 31.0876V30.4948C51.2442 30.1474 51.5252 29.8664 51.8726 29.8664C52.2199 29.8664 52.501 30.1474 52.501 30.4948V31.0876C52.501 31.4349 52.2199 31.716 51.8726 31.716ZM51.8726 28.7532C51.5252 28.7532 51.2442 28.4721 51.2442 28.1248V27.532C51.2442 27.1846 51.5252 26.9036 51.8726 26.9036C52.2199 26.9036 52.501 27.1846 52.501 27.532V28.1248C52.501 28.4721 52.2199 28.7532 51.8726 28.7532ZM51.8726 25.7904C51.5252 25.7904 51.2442 25.5093 51.2442 25.162V24.5698C51.2442 24.2225 51.5252 23.9414 51.8726 23.9414C52.2199 23.9414 52.501 24.2225 52.501 24.5698V25.162C52.501 25.5093 52.2199 25.7904 51.8726 25.7904Z" fill="#FF9900"/>
<path d="M51.8725 22.8249C51.5252 22.8249 51.2441 22.5438 51.2441 22.1965V21.8823C51.2441 21.535 51.5252 21.2539 51.8725 21.2539C52.2199 21.2539 52.5009 21.535 52.5009 21.8823V22.1965C52.5009 22.5438 52.2199 22.8249 51.8725 22.8249Z" fill="#FF9900"/>
<path d="M51.8592 22.5124C50.0673 22.5124 48.6099 21.0549 48.6099 19.263C48.6099 17.4711 50.0673 16.0137 51.8592 16.0137C53.6511 16.0137 55.1086 17.4711 55.1086 19.263C55.1086 21.0549 53.6511 22.5124 51.8592 22.5124ZM51.8592 17.2705C50.7608 17.2705 49.8667 18.1646 49.8667 19.263C49.8667 20.3615 50.7608 21.2556 51.8592 21.2556C52.9577 21.2556 53.8518 20.3615 53.8518 19.263C53.8518 18.1646 52.9577 17.2705 51.8592 17.2705Z" fill="#FF9900"/>
<path d="M35.1731 50.2194C34.8257 50.2194 34.5447 49.9384 34.5447 49.591V49.2768C34.5447 48.9295 34.8257 48.6484 35.1731 48.6484C35.5204 48.6484 35.8015 48.9295 35.8015 49.2768V49.591C35.8015 49.9384 35.5204 50.2194 35.1731 50.2194Z" fill="#FF9900"/>
<path d="M45.5784 52.3933H44.9856C44.6382 52.3933 44.3572 52.1122 44.3572 51.7649C44.3572 51.4176 44.6382 51.1365 44.9856 51.1365H45.5784C45.9257 51.1365 46.2068 51.4176 46.2068 51.7649C46.2068 52.1122 45.9257 52.3933 45.5784 52.3933ZM42.6156 52.3933H42.0228C41.6754 52.3933 41.3944 52.1122 41.3944 51.7649C41.3944 51.4176 41.6754 51.1365 42.0228 51.1365H42.6156C42.9629 51.1365 43.244 51.4176 43.244 51.7649C43.244 52.1122 42.9629 52.3933 42.6156 52.3933ZM39.6528 52.3933H39.0606C38.7133 52.3933 38.4322 52.1122 38.4322 51.7649C38.4322 51.4176 38.7133 51.1365 39.0606 51.1365H39.6528C40.0001 51.1365 40.2812 51.4176 40.2812 51.7649C40.2812 52.1122 40.0001 52.3933 39.6528 52.3933ZM36.6912 52.3847C36.6704 52.3847 36.6495 52.3835 36.628 52.3816C36.3556 52.354 36.0929 52.2798 35.8474 52.1595C35.5357 52.0067 35.4068 51.6305 35.559 51.3188C35.7118 51.0076 36.0874 50.8788 36.3997 51.0303C36.5108 51.0849 36.6299 51.1187 36.7532 51.131C37.0987 51.166 37.3503 51.4734 37.316 51.8189C37.2834 52.1429 37.0103 52.3847 36.6912 52.3847Z" fill="#FF9900"/>
<path d="M48.2644 52.3916H47.9502C47.6028 52.3916 47.3218 52.1105 47.3218 51.7632C47.3218 51.4158 47.6028 51.1348 47.9502 51.1348H48.2644C48.6117 51.1348 48.8928 51.4158 48.8928 51.7632C48.8928 52.1105 48.6117 52.3916 48.2644 52.3916Z" fill="#FF9900"/>
<path d="M50.8854 54.9987C49.0934 54.9987 47.636 53.5413 47.636 51.7494C47.636 49.9575 49.0934 48.5 50.8854 48.5C52.6773 48.5 54.1347 49.9575 54.1347 51.7494C54.1347 53.5413 52.6773 54.9987 50.8854 54.9987ZM50.8854 49.7568C49.7869 49.7568 48.8928 50.6509 48.8928 51.7494C48.8928 52.8478 49.7869 53.7419 50.8854 53.7419C51.9838 53.7419 52.8779 52.8478 52.8779 51.7494C52.8779 50.6509 51.9838 49.7568 50.8854 49.7568Z" fill="#FF9900"/>
<path d="M20.6154 35.6552H20.3012C19.9539 35.6552 19.6729 35.3742 19.6729 35.0268C19.6729 34.6795 19.9539 34.3984 20.3012 34.3984H20.6154C20.9628 34.3984 21.2438 34.6795 21.2438 35.0268C21.2438 35.3742 20.9628 35.6552 20.6154 35.6552Z" fill="#FF9900"/>
<path d="M18.1278 46.0588C17.7804 46.0588 17.4994 45.7778 17.4994 45.4305V44.8383C17.4994 44.4909 17.7804 44.2099 18.1278 44.2099C18.4751 44.2099 18.7562 44.4909 18.7562 44.8383V45.4305C18.7562 45.7778 18.4751 46.0588 18.1278 46.0588ZM18.1278 43.0967C17.7804 43.0967 17.4994 42.8156 17.4994 42.4683V41.8755C17.4994 41.5281 17.7804 41.2471 18.1278 41.2471C18.4751 41.2471 18.7562 41.5281 18.7562 41.8755V42.4683C18.7562 42.8156 18.4751 43.0967 18.1278 43.0967ZM18.1278 40.1339C17.7804 40.1339 17.4994 39.8528 17.4994 39.5055V38.9127C17.4994 38.5654 17.7804 38.2843 18.1278 38.2843C18.4751 38.2843 18.7562 38.5654 18.7562 38.9127V39.5055C18.7562 39.8528 18.4751 40.1339 18.1278 40.1339ZM18.137 37.1717C18.1155 37.1717 18.094 37.1705 18.0719 37.1687C17.7264 37.1324 17.4755 36.8238 17.511 36.4789C17.5393 36.2064 17.6141 35.9444 17.7338 35.7001C17.8866 35.389 18.2628 35.2589 18.5745 35.4117C18.8863 35.5645 19.0151 35.9407 18.863 36.2524C18.8083 36.3635 18.7746 36.4832 18.7617 36.6078C18.728 36.9312 18.4549 37.1717 18.137 37.1717Z" fill="#FF9900"/>
<path d="M18.1278 48.7468C17.7804 48.7468 17.4994 48.4657 17.4994 48.1184V47.8042C17.4994 47.4568 17.7804 47.1758 18.1278 47.1758C18.4751 47.1758 18.7562 47.4568 18.7562 47.8042V48.1184C18.7562 48.4657 18.4751 48.7468 18.1278 48.7468Z" fill="#FF9900"/>
<path d="M18.1407 53.9864C16.3488 53.9864 14.8914 52.5289 14.8914 50.7376C14.8914 48.9457 16.3488 47.4883 18.1407 47.4883C19.9326 47.4883 21.3901 48.9457 21.3901 50.7376C21.3901 52.5289 19.9326 53.9864 18.1407 53.9864ZM18.1407 48.7451C17.0423 48.7451 16.1481 49.6392 16.1481 50.7376C16.1481 51.8361 17.0423 52.7296 18.1407 52.7296C19.2392 52.7296 20.1333 51.8361 20.1333 50.7376C20.1333 49.6392 19.2392 48.7451 18.1407 48.7451Z" fill="#FF9900"/>
<path d="M33.8904 45.459C33.7002 45.459 33.5087 45.432 33.3203 45.3773C32.7987 45.2258 32.3673 44.8797 32.1059 44.4041L30.2072 40.9522C30.1268 40.8061 30.1078 40.6337 30.1544 40.4735C30.2005 40.314 30.3091 40.179 30.4551 40.0986L32.9184 38.7442C33.2209 38.5767 33.6045 38.6871 33.7714 38.9915L35.6701 42.4434C36.2101 43.4271 35.8499 44.6661 34.868 45.2061C34.563 45.3737 34.2286 45.459 33.8904 45.459ZM31.6113 40.897L33.2068 43.7978L33.2074 43.7984C33.3068 43.98 33.4719 44.1126 33.6714 44.1703C33.8702 44.2279 34.0801 44.2052 34.2623 44.1052C34.6373 43.8984 34.7753 43.4246 34.5685 43.0491L32.973 40.1483L31.6113 40.897Z" fill="#FF9900"/>
<path d="M30.247 41.4701C29.8009 41.4701 29.3676 41.2339 29.1381 40.8159L26.5589 36.1257C26.2232 35.5151 26.4472 34.7456 27.0572 34.4105L29.9347 32.8285C30.5428 32.4922 31.3136 32.7155 31.6499 33.3261L34.2291 38.017C34.5648 38.627 34.3414 39.3959 33.7308 39.7316L30.8533 41.3142C30.6612 41.4204 30.4526 41.4701 30.247 41.4701ZM27.6622 35.5114C27.6598 35.5133 27.658 35.5169 27.6604 35.5206L30.239 40.2109L33.1257 38.6307L30.5489 33.9318L27.6622 35.5114Z" fill="#FF9900"/>
<path d="M33.6014 38.8071C33.3781 38.8071 33.1639 38.688 33.0504 38.4812L30.627 34.0739C30.4699 33.7885 30.557 33.4301 30.8283 33.2491C33.3652 31.5542 34.7692 29.6929 35.5234 27.0247C35.5928 26.7798 35.8033 26.6006 36.0567 26.5718C36.312 26.5374 36.5556 26.67 36.6784 26.8934L42.3554 37.2177C42.4787 37.4411 42.4542 37.7166 42.294 37.9148C42.1332 38.1136 41.8694 38.1953 41.6251 38.1222C38.9704 37.33 36.6464 37.5178 33.8549 38.7531C33.7726 38.7899 33.6861 38.8071 33.6014 38.8071ZM32.0016 33.9659L33.8782 37.3791C36.215 36.4334 38.3445 36.1757 40.569 36.577L36.2623 28.7442C35.4105 30.8392 34.0512 32.4986 32.0016 33.9659Z" fill="#FF9900"/>
<path d="M42.9027 38.8673C42.7836 38.8673 42.6652 38.8569 42.5486 38.8366C42.03 38.7446 41.5974 38.4457 41.3617 38.0168L35.4669 27.2972C35.2312 26.8689 35.2103 26.3436 35.411 25.8563C35.5945 25.4084 35.9461 25.0242 36.4002 24.7751C37.3821 24.2338 38.5622 24.4872 39.0304 25.3378L44.9247 36.0579C45.1603 36.4863 45.1812 37.0116 44.9805 37.4988C44.797 37.9468 44.4454 38.331 43.9913 38.5801C43.6483 38.7691 43.2715 38.8673 42.9027 38.8673ZM37.4889 25.7447C37.341 25.7447 37.1728 25.7845 37.0053 25.876C36.8046 25.9864 36.6475 26.1534 36.5733 26.3332C36.5408 26.4123 36.4972 26.5633 36.5678 26.6922L42.4627 37.4117C42.5332 37.5399 42.6848 37.5841 42.7689 37.5989C42.9585 37.6344 43.1849 37.5896 43.3856 37.4792C43.5863 37.3687 43.744 37.2018 43.8182 37.022C43.8508 36.9428 43.8943 36.7919 43.8238 36.663L37.9295 25.9435C37.8626 25.822 37.6957 25.7447 37.4889 25.7447Z" fill="#FF9900"/>
<path d="M27.0717 41.2285C26.8539 41.2285 26.6342 41.1978 26.4194 41.1353C25.8223 40.9622 25.3283 40.5664 25.0289 40.0214C24.4103 38.8972 24.822 37.479 25.9469 36.8604L27.2773 36.129C27.5811 35.9614 27.9634 36.0719 28.1303 36.3769L29.7682 39.355C29.8486 39.5011 29.8676 39.6729 29.821 39.8331C29.775 39.9926 29.6663 40.1276 29.5203 40.208L28.1899 40.9395C27.8419 41.1316 27.459 41.2285 27.0717 41.2285ZM27.3319 37.533L26.552 37.9614C26.0347 38.2461 25.845 38.8984 26.1298 39.4164C26.4151 39.9343 27.0668 40.1215 27.5848 39.8386L28.3641 39.4096L27.3319 37.533Z" fill="#FF9900"/>
<path d="M42.9609 34.4083C42.7387 34.4083 42.5239 34.2905 42.4098 34.0824L39.3488 28.5146C39.2684 28.3686 39.2494 28.1967 39.296 28.0366C39.3421 27.8764 39.4507 27.7414 39.5967 27.6616C41.4353 26.6503 43.7537 27.3247 44.7638 29.1627C45.7714 31.0043 45.0976 33.3221 43.2628 34.3303C43.167 34.3831 43.0633 34.4083 42.9609 34.4083ZM40.7903 28.5287L43.1701 32.8575C43.9986 32.0813 44.2324 30.8097 43.6623 29.7665C43.0903 28.7263 41.89 28.244 40.7903 28.5287Z" fill="#FF9900"/>
</svg>
