<svg width="70" height="70" viewBox="0 0 70 70" fill="none" xmlns="http://www.w3.org/2000/svg">
<rect width="70" height="70" rx="5.25" fill="#FFF5DB"/>
<path d="M55.4006 17.6692C55.4006 16.1975 54.2035 15 52.7318 15H18.0237C16.1357 15 14.5996 16.5361 14.5996 18.4241V41.1812C14.5996 43.0692 16.1357 44.6053 18.0237 44.6053H29.2852C29.2626 46.8186 28.7253 49.0581 28.1259 50.3784H25.7336C24.4598 50.3784 23.4228 51.4149 23.4228 52.6892C23.4228 53.9631 24.4593 55 25.7336 55H44.267C45.5409 55 46.5773 53.9635 46.5773 52.6892C46.5773 51.4153 45.5409 50.3784 44.267 50.3784H41.8683C41.2413 49.0346 40.6694 46.7873 40.6271 44.6053H50.4054L52.4586 46.6585C52.695 46.8954 53.0106 47.0256 53.3469 47.0256C53.6832 47.0256 53.9983 46.8954 54.2353 46.6585L55.033 45.8603C55.2699 45.6234 55.4001 45.3082 55.4001 44.9719C55.4001 44.6361 55.2694 44.3205 55.033 44.0841L54.4717 43.5228C55.061 42.8935 55.4001 42.0566 55.4001 41.1807L55.4006 17.6692ZM18.0237 16.1561H52.7318C53.5659 16.1561 54.2445 16.8347 54.2445 17.6692V37.7883H50.3138C50.5784 36.8052 50.5825 35.766 50.312 34.7566C49.4752 31.6339 46.2539 29.7739 43.1311 30.6107C41.6185 31.016 40.3539 31.9862 39.5709 33.3425C38.7883 34.6978 38.5804 36.2766 38.9843 37.7883H15.7557V18.4241C15.7557 17.1737 16.7729 16.1561 18.0237 16.1561ZM49.304 40.7032L49.0772 40.93L48.6807 40.5334C48.758 40.4598 48.8334 40.3839 48.9066 40.3057L49.304 40.7032ZM43.4297 31.7277C43.8364 31.6187 44.2445 31.5667 44.647 31.5667C46.725 31.5667 48.6319 32.9556 49.1945 35.0557C49.5198 36.2702 49.3528 37.5385 48.7244 38.6275C48.096 39.7164 47.0806 40.4952 45.8666 40.8205C45.4599 40.9295 45.0518 40.9815 44.6493 40.9815C42.5713 40.9815 40.6644 39.5926 40.1017 37.4925C39.7765 36.278 39.9435 35.0097 40.5719 33.9207C41.2003 32.8318 42.2157 32.053 43.4297 31.7277ZM45.4208 52.6892C45.4208 53.3254 44.9032 53.8434 44.2665 53.8434H25.7336C25.0974 53.8434 24.5794 53.3254 24.5794 52.6892C24.5794 52.053 25.0974 51.5349 25.7336 51.5349H44.267C44.9032 51.5349 45.4208 52.053 45.4208 52.6892ZM40.6064 50.3788H29.3818C30.0153 48.7673 30.4206 46.5821 30.4413 44.6057H39.471C39.5078 46.5577 39.9417 48.7443 40.6064 50.3788ZM18.0237 43.4496C16.7733 43.4496 15.7557 42.4325 15.7557 41.1816V38.9444H39.4278C40.4298 40.9042 42.4632 42.1376 44.6493 42.1376C45.1503 42.1376 45.6591 42.0727 46.1656 41.937C46.7361 41.7843 47.2716 41.5506 47.7587 41.2465L48.4382 41.926C48.3849 42.3037 48.5017 42.7016 48.7915 42.9914L49.2493 43.4492L18.0237 43.4496ZM54.2155 45.0432L53.4173 45.8414C53.3938 45.8649 53.3658 45.8699 53.3469 45.8699C53.328 45.8699 53.3 45.8649 53.2765 45.8414L49.609 42.1739C49.5713 42.1362 49.5713 42.0704 49.609 42.0327L50.4072 41.2345C50.4307 41.2111 50.4587 41.206 50.4776 41.206C50.4965 41.206 50.5245 41.2111 50.548 41.2345L54.2155 44.902C54.2389 44.9255 54.244 44.9531 54.244 44.9724C54.244 44.9922 54.2389 45.0198 54.2155 45.0432ZM51.366 40.4175C51.129 40.1806 50.8139 40.0504 50.4776 40.0504C50.4178 40.0504 50.3585 40.0559 50.3 40.0642L49.6178 39.3819C49.6541 39.3235 49.6909 39.2655 49.7254 39.2057C49.7751 39.1197 49.8225 39.0328 49.8676 38.9449H54.244V41.1821C54.244 41.7498 54.0287 42.2922 53.6538 42.7062L51.366 40.4175ZM37.1427 41.1968C37.1427 41.5161 36.8837 41.7751 36.5645 41.7751H33.4352C33.116 41.7751 32.857 41.5161 32.857 41.1968C32.857 40.8775 33.116 40.6185 33.4352 40.6185H36.5645C36.8837 40.619 37.1427 40.8775 37.1427 41.1968ZM42.5455 23.4239L44.1409 22.9965C44.4492 22.9137 44.7661 23.0968 44.849 23.4055C44.9318 23.7137 44.7487 24.0311 44.44 24.1135L42.8445 24.5409C42.7944 24.5542 42.7442 24.5607 42.6946 24.5607C42.4392 24.5607 42.2055 24.3904 42.1365 24.1319C42.0537 23.8237 42.2368 23.5067 42.5455 23.4239ZM40.582 22.2563C40.3562 22.0304 40.3562 21.6642 40.582 21.4388L41.814 20.2068C42.0399 19.9809 42.4061 19.9809 42.6315 20.2068C42.8574 20.4327 42.8574 20.7989 42.6315 21.0243L41.3995 22.2563C41.2868 22.369 41.1387 22.4256 40.9906 22.4256C40.8429 22.4256 40.6952 22.369 40.582 22.2563ZM44.5278 27.2837C44.4588 27.5417 44.2251 27.7124 43.9698 27.7124C43.9201 27.7124 43.87 27.706 43.8198 27.6926L42.137 27.2418C41.8288 27.159 41.6457 26.842 41.728 26.5338C41.8108 26.2256 42.1278 26.042 42.436 26.1248L44.1189 26.5757C44.4276 26.6585 44.6107 26.9754 44.5278 27.2837ZM26.6569 30.5095C27.1289 30.7818 27.6515 30.9212 28.1801 30.9212C28.4198 30.9212 28.6609 30.8909 28.8987 30.8334L30.5646 35.0037C30.675 35.2797 30.8981 35.4982 31.1773 35.6027C31.2983 35.6477 31.4248 35.6703 31.5518 35.6703C31.7206 35.6703 31.889 35.6307 32.0422 35.5521L32.7484 35.1886C33.2388 34.9361 33.4546 34.3569 33.2503 33.8411L31.6972 29.9206C33.9601 29.6317 36.0911 29.7417 37.7942 30.2395C38.0173 30.9838 38.7028 31.4733 39.4503 31.4733C39.598 31.4733 39.7484 31.454 39.8975 31.4139C40.3424 31.2948 40.715 31.0082 40.9469 30.607C41.1783 30.2059 41.2404 29.7403 41.1208 29.295L40.3874 26.5573C41.2385 26.1851 41.7147 25.2346 41.4672 24.3109C41.2197 23.3871 40.3318 22.8019 39.4089 22.9054L38.6756 20.1681C38.4286 19.2467 37.4781 18.6978 36.5571 18.9449C36.1118 19.064 35.7391 19.3506 35.5077 19.7518C35.2846 20.1378 35.2211 20.584 35.3228 21.0142C34.0595 22.335 32.1986 23.5283 30.0111 24.419C30.0042 24.4144 29.9973 24.4098 29.99 24.4052C29.857 24.3283 29.6992 24.3076 29.5511 24.3472L27.3907 24.9259C26.6068 25.1362 25.9498 25.6413 25.5418 26.3484C25.1337 27.0555 25.0247 27.8767 25.2345 28.6606C25.4452 29.445 25.9503 30.1014 26.6569 30.5095ZM31.6001 34.4788L30.0245 30.5343L30.6322 30.3715L32.1476 34.1972L31.6001 34.4788ZM40.3506 24.6108C40.4321 24.9149 40.3152 25.2263 40.0792 25.4067L39.7176 24.0569C40.012 24.0956 40.2687 24.3063 40.3506 24.6108ZM36.5088 20.3296C36.5856 20.1962 36.7089 20.101 36.8557 20.0619C36.9054 20.0485 36.955 20.0421 37.0038 20.0421C37.2573 20.0421 37.4896 20.2114 37.5582 20.4672L40.0038 29.5945C40.0433 29.7412 40.0222 29.8953 39.9453 30.0292C39.8685 30.1626 39.7448 30.2579 39.5985 30.297C39.2921 30.3788 38.9779 30.1967 38.896 29.8912L36.4504 20.7639C36.4113 20.6176 36.432 20.463 36.5088 20.3296ZM35.6646 22.2991L37.4487 28.9568C35.6683 28.5529 33.5535 28.4959 31.3434 28.7995L30.4555 25.4863C32.5207 24.6444 34.325 23.5384 35.6646 22.2991ZM26.5433 26.9267C26.7972 26.4869 27.2044 26.1736 27.6902 26.0434L29.2921 25.6142L30.272 29.2711L28.6701 29.7003C28.1847 29.8305 27.6746 29.7624 27.2352 29.5084C26.7954 29.2545 26.4817 28.8474 26.3519 28.3615C26.2217 27.8757 26.2898 27.366 26.5433 26.9267Z" fill="#FF9900"/>
</svg>
