<svg width="70" height="70" viewBox="0 0 70 70" fill="none" xmlns="http://www.w3.org/2000/svg">
<rect width="70" height="70" rx="5.25" fill="#FFF5DB"/>
<path d="M55.4005 17.6692C55.4005 16.1975 54.2034 15 52.7318 15H18.0237C16.1356 15 14.5995 16.5361 14.5995 18.4241V41.1812C14.5995 43.0692 16.1356 44.6053 18.0237 44.6053H29.2851C29.2626 46.8186 28.7252 49.0581 28.1258 50.3784H25.7336C24.4597 50.3784 23.4228 51.4149 23.4228 52.6892C23.4228 53.9631 24.4592 55 25.7336 55H44.2669C45.5408 55 46.5773 53.9635 46.5773 52.6892C46.5773 51.4153 45.5408 50.3784 44.2669 50.3784H41.8683C41.2412 49.0346 40.6694 46.7873 40.6271 44.6053H50.4053L52.4585 46.6585C52.695 46.8954 53.0106 47.0256 53.3468 47.0256C53.6831 47.0256 53.9983 46.8954 54.2352 46.6585L55.0329 45.8603C55.2698 45.6234 55.4 45.3082 55.4 44.9719C55.4 44.6361 55.2694 44.3205 55.0329 44.0841L54.4717 43.5228C55.061 42.8935 55.4 42.0566 55.4 41.1807L55.4005 17.6692ZM18.0237 16.1561H52.7318C53.5658 16.1561 54.2444 16.8347 54.2444 17.6692V37.7883H50.3138C50.5783 36.8052 50.5824 35.766 50.3119 34.7566C49.4751 31.6339 46.2539 29.7739 43.1311 30.6107C41.6185 31.016 40.3538 31.9862 39.5708 33.3425C38.7883 34.6978 38.5803 36.2766 38.9842 37.7883H15.7556V18.4241C15.7556 17.1737 16.7728 16.1561 18.0237 16.1561ZM49.304 40.7032L49.0772 40.93L48.6806 40.5334C48.7579 40.4598 48.8333 40.3839 48.9065 40.3057L49.304 40.7032ZM43.4297 31.7277C43.8363 31.6187 44.2444 31.5667 44.6469 31.5667C46.725 31.5667 48.6318 32.9556 49.1945 35.0557C49.5197 36.2702 49.3527 37.5385 48.7243 38.6275C48.0959 39.7164 47.0806 40.4952 45.8665 40.8205C45.4598 40.9295 45.0518 40.9815 44.6492 40.9815C42.5712 40.9815 40.6643 39.5926 40.1017 37.4925C39.7764 36.278 39.9434 35.0097 40.5719 33.9207C41.2003 32.8318 42.2156 32.053 43.4297 31.7277ZM45.4207 52.6892C45.4207 53.3254 44.9032 53.8434 44.2665 53.8434H25.7336C25.0973 53.8434 24.5793 53.3254 24.5793 52.6892C24.5793 52.053 25.0973 51.5349 25.7336 51.5349H44.2669C44.9032 51.5349 45.4207 52.053 45.4207 52.6892ZM40.6064 50.3788H29.3817C30.0152 48.7673 30.4205 46.5821 30.4412 44.6057H39.471C39.5078 46.5577 39.9416 48.7443 40.6064 50.3788ZM18.0237 43.4496C16.7733 43.4496 15.7556 42.4325 15.7556 41.1816V38.9444H39.4277C40.4297 40.9042 42.4631 42.1376 44.6492 42.1376C45.1502 42.1376 45.659 42.0727 46.1655 41.937C46.736 41.7843 47.2715 41.5506 47.7587 41.2465L48.4382 41.926C48.3848 42.3037 48.5017 42.7016 48.7915 42.9914L49.2492 43.4492L18.0237 43.4496ZM54.2154 45.0432L53.4172 45.8414C53.3938 45.8649 53.3657 45.8699 53.3468 45.8699C53.328 45.8699 53.2999 45.8649 53.2765 45.8414L49.609 42.1739C49.5713 42.1362 49.5713 42.0704 49.609 42.0327L50.4072 41.2345C50.4306 41.2111 50.4587 41.206 50.4775 41.206C50.4964 41.206 50.5245 41.2111 50.5479 41.2345L54.2154 44.902C54.2389 44.9255 54.2439 44.9531 54.2439 44.9724C54.2439 44.9922 54.2389 45.0198 54.2154 45.0432ZM51.3659 40.4175C51.129 40.1806 50.8138 40.0504 50.4775 40.0504C50.4177 40.0504 50.3584 40.0559 50.3 40.0642L49.6177 39.3819C49.6541 39.3235 49.6909 39.2655 49.7254 39.2057C49.7751 39.1197 49.8224 39.0328 49.8675 38.9449H54.2439V41.1821C54.2439 41.7498 54.0286 42.2922 53.6537 42.7062L51.3659 40.4175ZM37.1427 41.1968C37.1427 41.5161 36.8837 41.7751 36.5644 41.7751H33.4352C33.1159 41.7751 32.8569 41.5161 32.8569 41.1968C32.8569 40.8775 33.1159 40.6185 33.4352 40.6185H36.5644C36.8837 40.619 37.1427 40.8775 37.1427 41.1968ZM42.5454 23.4239L44.1409 22.9965C44.4491 22.9137 44.7661 23.0968 44.8489 23.4055C44.9317 23.7137 44.7486 24.0311 44.4399 24.1135L42.8445 24.5409C42.7943 24.5542 42.7442 24.5607 42.6945 24.5607C42.4392 24.5607 42.2055 24.3904 42.1365 24.1319C42.0537 23.8237 42.2368 23.5067 42.5454 23.4239ZM40.582 22.2563C40.3561 22.0304 40.3561 21.6642 40.582 21.4388L41.814 20.2068C42.0399 19.9809 42.4061 19.9809 42.6315 20.2068C42.8574 20.4327 42.8574 20.7989 42.6315 21.0243L41.3995 22.2563C41.2868 22.369 41.1386 22.4256 40.9905 22.4256C40.8428 22.4256 40.6951 22.369 40.582 22.2563ZM44.5278 27.2837C44.4588 27.5417 44.2251 27.7124 43.9697 27.7124C43.9201 27.7124 43.8699 27.706 43.8198 27.6926L42.1369 27.2418C41.8287 27.159 41.6456 26.842 41.7279 26.5338C41.8108 26.2256 42.1277 26.042 42.436 26.1248L44.1188 26.5757C44.4275 26.6585 44.6106 26.9754 44.5278 27.2837ZM26.6569 30.5095C27.1289 30.7818 27.6515 30.9212 28.1801 30.9212C28.4198 30.9212 28.6608 30.8909 28.8987 30.8334L30.5645 35.0037C30.6749 35.2797 30.898 35.4982 31.1773 35.6027C31.2983 35.6477 31.4248 35.6703 31.5518 35.6703C31.7206 35.6703 31.889 35.6307 32.0422 35.5521L32.7483 35.1886C33.2387 34.9361 33.4545 34.3569 33.2502 33.8411L31.6971 29.9206C33.9601 29.6317 36.091 29.7417 37.7941 30.2395C38.0172 30.9838 38.7027 31.4733 39.4503 31.4733C39.5979 31.4733 39.7484 31.454 39.8974 31.4139C40.3423 31.2948 40.7149 31.0082 40.9468 30.607C41.1782 30.2059 41.2403 29.7403 41.1207 29.295L40.3874 26.5573C41.2385 26.1851 41.7146 25.2346 41.4671 24.3109C41.2196 23.3871 40.3317 22.8019 39.4089 22.9054L38.6756 20.1681C38.4285 19.2467 37.4781 18.6978 36.557 18.9449C36.1117 19.064 35.7391 19.3506 35.5077 19.7518C35.2846 20.1378 35.2211 20.584 35.3227 21.0142C34.0595 22.335 32.1986 23.5283 30.0111 24.419C30.0042 24.4144 29.9973 24.4098 29.9899 24.4052C29.8569 24.3283 29.6991 24.3076 29.551 24.3472L27.3906 24.9259C26.6067 25.1362 25.9498 25.6413 25.5417 26.3484C25.1337 27.0555 25.0246 27.8767 25.2344 28.6606C25.4451 29.445 25.9502 30.1014 26.6569 30.5095ZM31.6001 34.4788L30.0244 30.5343L30.6321 30.3715L32.1475 34.1972L31.6001 34.4788ZM40.3506 24.6108C40.432 24.9149 40.3152 25.2263 40.0791 25.4067L39.7176 24.0569C40.012 24.0956 40.2687 24.3063 40.3506 24.6108ZM36.5087 20.3296C36.5856 20.1962 36.7089 20.101 36.8556 20.0619C36.9053 20.0485 36.955 20.0421 37.0037 20.0421C37.2572 20.0421 37.4896 20.2114 37.5581 20.4672L40.0037 29.5945C40.0433 29.7412 40.0221 29.8953 39.9453 30.0292C39.8684 30.1626 39.7447 30.2579 39.5984 30.297C39.292 30.3788 38.9778 30.1967 38.8959 29.8912L36.4503 20.7639C36.4112 20.6176 36.4319 20.463 36.5087 20.3296ZM35.6646 22.2991L37.4486 28.9568C35.6682 28.5529 33.5534 28.4959 31.3433 28.7995L30.4555 25.4863C32.5206 24.6444 34.3249 23.5384 35.6646 22.2991ZM26.5432 26.9267C26.7972 26.4869 27.2043 26.1736 27.6901 26.0434L29.292 25.6142L30.2719 29.2711L28.67 29.7003C28.1847 29.8305 27.6745 29.7624 27.2351 29.5084C26.7953 29.2545 26.4816 28.8474 26.3519 28.3615C26.2217 27.8757 26.2898 27.366 26.5432 26.9267Z" fill="#FF9900"/>
</svg>
