<svg width="70" height="70" viewBox="0 0 70 70" fill="none" xmlns="http://www.w3.org/2000/svg">
<rect width="70" height="70" rx="5.25" fill="#FFF5DB"/>
<path d="M34.3777 21.4204H42.0105C42.9788 21.4204 43.7647 20.6345 43.7647 19.6663C43.7647 18.698 42.9788 17.9121 42.0105 17.9121H34.3777C33.4095 17.9121 32.6235 18.698 32.6235 19.6663C32.6235 20.6345 33.4095 21.4204 34.3777 21.4204ZM34.3777 19.1193H42.0105C42.3123 19.1193 42.5575 19.3645 42.5575 19.6663C42.5575 19.9681 42.3123 20.2133 42.0105 20.2133H34.3777C34.0759 20.2133 33.8307 19.9681 33.8307 19.6663C33.8307 19.3645 34.0759 19.1193 34.3777 19.1193Z" fill="#FF9900"/>
<path d="M20.8851 21.671C21.9854 21.671 22.8845 20.772 22.8845 19.6654C22.8845 18.5651 21.9854 17.666 20.8851 17.666C19.7848 17.666 18.8857 18.5651 18.8857 19.6654C18.8857 20.772 19.7848 21.671 20.8851 21.671ZM20.8851 18.8669C21.3252 18.8669 21.6836 19.2253 21.6836 19.6654C21.6836 20.1055 21.3252 20.4639 20.8851 20.4639C20.445 20.4639 20.0929 20.1055 20.0929 19.6654C20.0929 19.2253 20.4513 18.8669 20.8851 18.8669Z" fill="#FF9900"/>
<path d="M26.1913 21.671C27.2915 21.671 28.1906 20.772 28.1906 19.6654C28.1906 18.5651 27.2915 17.666 26.1913 17.666C25.091 17.666 24.1919 18.5651 24.1919 19.6654C24.1919 20.772 25.091 21.671 26.1913 21.671ZM26.1913 18.8669C26.6314 18.8669 26.9898 19.2253 26.9898 19.6654C26.9898 20.1055 26.6314 20.4639 26.1913 20.4639C25.7512 20.4639 25.3928 20.1055 25.3928 19.6654C25.3991 19.2253 25.7574 18.8669 26.1913 18.8669Z" fill="#FF9900"/>
<path d="M20.2123 33.1574H33.2208C33.8181 33.1574 34.3022 32.6733 34.3022 32.076V27.392C34.3022 26.7947 33.8181 26.3105 33.2208 26.3105H20.2123C19.615 26.3105 19.1309 26.7947 19.1309 27.392V32.0697C19.1309 32.6733 19.615 33.1574 20.2123 33.1574ZM20.3317 27.5114H33.1013V31.9503H20.3317V27.5114Z" fill="#FF9900"/>
<path d="M38.521 34.9688H25.3868C25.0536 34.9688 24.7832 35.2391 24.7832 35.5723C24.7832 35.9056 25.0536 36.1759 25.3868 36.1759H38.521C38.8542 36.1759 39.1246 35.9056 39.1246 35.5723C39.1246 35.2391 38.8542 34.9688 38.521 34.9688Z" fill="#FF9900"/>
<path d="M38.521 37.6855H19.7344C19.4012 37.6855 19.1309 37.9559 19.1309 38.2891C19.1309 38.6224 19.4012 38.8927 19.7344 38.8927H38.521C38.8542 38.8927 39.1246 38.6224 39.1246 38.2891C39.1246 37.9559 38.8542 37.6855 38.521 37.6855Z" fill="#FF9900"/>
<path d="M35.2391 41.7326C35.5723 41.7326 35.8427 41.4622 35.8427 41.129C35.8427 40.7957 35.5723 40.5254 35.2391 40.5254H31.9571C31.6239 40.5254 31.3535 40.7957 31.3535 41.129C31.3535 41.4622 31.6239 41.7326 31.9571 41.7326H35.2391Z" fill="#FF9900"/>
<path d="M19.7344 41.7326H26.7197C27.0529 41.7326 27.3233 41.4622 27.3233 41.129C27.3233 40.7957 27.0529 40.5254 26.7197 40.5254H19.7344C19.4012 40.5254 19.1309 40.7957 19.1309 41.129C19.1309 41.4622 19.4012 41.7326 19.7344 41.7326Z" fill="#FF9900"/>
<path d="M38.521 43.248H19.7344C19.4012 43.248 19.1309 43.5184 19.1309 43.8516C19.1309 44.1849 19.4012 44.4552 19.7344 44.4552H38.521C38.8542 44.4552 39.1246 44.1849 39.1246 43.8516C39.1246 43.5184 38.8542 43.248 38.521 43.248Z" fill="#FF9900"/>
<path d="M38.521 46.0977H23.4C23.0667 46.0977 22.7964 46.368 22.7964 46.7012C22.7964 47.0345 23.0667 47.3048 23.4 47.3048H38.521C38.8542 47.3048 39.1246 47.0345 39.1246 46.7012C39.1246 46.368 38.8542 46.0977 38.521 46.0977Z" fill="#FF9900"/>
<path d="M26.531 48.8145H19.7344C19.4012 48.8145 19.1309 49.0848 19.1309 49.418C19.1309 49.7513 19.4012 50.0216 19.7344 50.0216H26.5373C26.8706 50.0216 27.1409 49.7513 27.1409 49.418C27.1346 49.0848 26.8643 48.8145 26.531 48.8145Z" fill="#FF9900"/>
<path d="M37.7979 29.297H44.4373C44.7706 29.297 45.0409 29.0267 45.0409 28.6934C45.0409 28.3602 44.7706 28.0898 44.4373 28.0898H37.7979C37.4647 28.0898 37.1943 28.3602 37.1943 28.6934C37.2006 29.0267 37.4647 29.297 37.7979 29.297Z" fill="#FF9900"/>
<path d="M37.7979 31.5665H44.4373C44.7706 31.5665 45.0409 31.2962 45.0409 30.963C45.0409 30.6297 44.7706 30.3594 44.4373 30.3594H37.7979C37.4647 30.3594 37.1943 30.6297 37.1943 30.963C37.2006 31.3025 37.4647 31.5665 37.7979 31.5665Z" fill="#FF9900"/>
<path d="M54.8994 32.3027C54.7799 31.7746 54.4656 31.3282 54.0066 31.039L51.8249 29.6683C51.3659 29.3791 50.8252 29.2848 50.2971 29.4043C49.7689 29.5237 49.3225 29.8381 49.0333 30.2971L48.7504 30.7435V18.0116C48.7504 16.3518 47.3986 15 45.7388 15H18.0619C16.4021 15 15.0503 16.3518 15.0503 18.0116V51.9884C15.0503 53.6482 16.4021 55 18.0619 55H45.745C47.4049 55 48.7567 53.6482 48.7567 51.9884V43.2364L53.2647 36.0185L54.6416 33.8306C54.9245 33.3716 55.0189 32.8309 54.8994 32.3027ZM18.0619 16.2072H45.745C46.7384 16.2072 47.5495 17.0182 47.5495 18.0116V23.1295H16.2575V18.0116C16.2575 17.0182 17.0622 16.2072 18.0619 16.2072ZM47.5495 51.9884C47.5495 52.9818 46.7384 53.7928 45.745 53.7928H18.0619C17.0685 53.7928 16.2575 52.9818 16.2575 51.9884V24.3304H47.5495V32.6548L41.5074 42.3373C41.4822 42.375 41.4634 42.4128 41.4445 42.4505C41.4445 42.4505 41.4445 42.4505 41.4382 42.4568C41.4319 42.4631 41.4319 42.4693 41.4319 42.4756C41.4131 42.5071 41.3942 42.5385 41.3753 42.5699C41.3691 42.5825 41.3691 42.5951 41.3628 42.6077C41.0358 43.2238 40.8598 43.9029 40.8724 44.6008L40.9164 47.5747C40.9227 47.9833 41.1364 48.3606 41.4822 48.5806C41.6771 48.7064 41.9035 48.7693 42.1298 48.7693C42.2996 48.7693 42.4756 48.7315 42.6328 48.6561L45.3364 47.4175C45.9651 47.1283 46.5058 46.6756 46.9208 46.116C46.9271 46.1034 46.9459 46.0971 46.9522 46.0846C46.9711 46.0531 46.9962 46.0217 47.0151 45.9903C47.0151 45.984 47.0214 45.984 47.0277 45.9777C47.0277 45.9777 47.0277 45.9777 47.0277 45.9714C47.0528 45.9337 47.078 45.9022 47.1031 45.8582L47.5432 45.154V51.9884H47.5495ZM42.2178 43.6388L45.6319 45.7891C45.3992 46.0091 45.1352 46.1914 44.8397 46.3235L42.1235 47.5558L42.0732 44.5819C42.067 44.2612 42.1173 43.9469 42.2178 43.6388ZM46.3423 44.8208L42.7774 42.5762L48.348 33.6482L51.9129 35.8928L46.3423 44.8208ZM53.6168 33.1892L52.5542 34.868L48.9893 32.6234L50.0519 30.9447C50.1713 30.7623 50.3474 30.6303 50.5611 30.58C50.7749 30.5297 50.995 30.5674 51.1773 30.6869L53.359 32.0575C53.5413 32.177 53.6734 32.353 53.7237 32.5668C53.774 32.7869 53.7362 33.0006 53.6168 33.1892Z" fill="#FF9900"/>
</svg>
