<svg width="70" height="70" viewBox="0 0 70 70" fill="none" xmlns="http://www.w3.org/2000/svg">
<rect width="70" height="70" rx="5.25" fill="#FFF5DB"/>
<path d="M22.2322 40.332H24.1964V42.332C24.197 42.8623 24.4042 43.3706 24.7724 43.7456C25.1407 44.1205 25.6399 44.3314 26.1607 44.332H31.3988C31.9196 44.3314 32.4189 44.1205 32.7871 43.7456C33.1554 43.3706 33.3625 42.8623 33.3631 42.332V41.3555L36.8351 38.9987H37.9464V39.6654C37.9464 39.7529 37.9634 39.8396 37.9963 39.9205C38.0292 40.0014 38.0774 40.0749 38.1382 40.1368C38.199 40.1987 38.2712 40.2478 38.3506 40.2813C38.4301 40.3148 38.5152 40.332 38.6012 40.332H40.5655V45.9138C40.5193 45.894 40.4734 45.8732 40.4282 45.8501L40.2035 45.7358C39.7056 45.4838 39.1572 45.3526 38.6012 45.3526C38.0452 45.3526 37.4967 45.4838 36.9989 45.7358C36.8901 45.7911 36.7986 45.8762 36.7347 45.9815C36.6708 46.0869 36.6369 46.2082 36.6369 46.332V47.6654H35.2445C35.0986 47.0933 34.7705 46.5867 34.3116 46.2247C33.8527 45.8628 33.2888 45.6661 32.7083 45.6654H30.0893C29.3947 45.6654 28.7285 45.9463 28.2373 46.4464C27.7462 46.9465 27.4702 47.6248 27.4702 48.332C27.4702 49.0393 27.7462 49.7175 28.2373 50.2176C28.7285 50.7177 29.3947 50.9987 30.0893 50.9987H32.7083C33.2888 50.9979 33.8527 50.8012 34.3116 50.4393C34.7705 50.0774 35.0986 49.5708 35.2445 48.9987H36.6369V50.332C36.6369 50.4196 36.6538 50.5063 36.6867 50.5872C36.7196 50.668 36.7679 50.7415 36.8287 50.8034C36.8895 50.8653 36.9617 50.9144 37.0411 50.948C37.1205 50.9815 37.2057 50.9987 37.2917 50.9987H43.1845C43.2705 50.9987 43.3557 50.9815 43.4351 50.948C43.5145 50.9144 43.5867 50.8653 43.6475 50.8034C43.7083 50.7415 43.7565 50.668 43.7894 50.5872C43.8224 50.5063 43.8393 50.4196 43.8393 50.332V46.332C43.8393 46.2264 43.8146 46.1223 43.7674 46.0282C43.7201 45.9342 43.6515 45.853 43.5674 45.7912C43.4832 45.7294 43.3858 45.6889 43.2833 45.673C43.1807 45.6571 43.0759 45.6662 42.9775 45.6996L42.1638 45.9757C42.0693 46.0076 41.9728 46.0332 41.875 46.0524V40.332H43.1845C43.2705 40.332 43.3557 40.3148 43.4351 40.2813C43.5145 40.2478 43.5867 40.1987 43.6475 40.1368C43.7083 40.0749 43.7565 40.0014 43.7894 39.9205C43.8224 39.8396 43.8393 39.7529 43.8393 39.6654V36.332C43.8393 36.2445 43.8224 36.1578 43.7894 36.0769C43.7565 35.996 43.7083 35.9225 43.6475 35.8606C43.5867 35.7987 43.5145 35.7496 43.4351 35.7161C43.3557 35.6826 43.2705 35.6654 43.1845 35.6654H38.6012C38.5152 35.6654 38.4301 35.6826 38.3506 35.7161C38.2712 35.7496 38.199 35.7987 38.1382 35.8606C38.0774 35.9225 38.0292 35.996 37.9963 36.0769C37.9634 36.1578 37.9464 36.2445 37.9464 36.332V37.6654H36.8351L33.0715 35.1107C32.964 35.0376 32.8376 34.9987 32.7083 34.9987C32.5791 34.9987 32.4527 35.0376 32.3451 35.1107L28.5815 37.6654H27.8761L28.1123 36.4628C28.1313 36.366 28.129 36.2662 28.1055 36.1706C28.082 36.0749 28.038 35.9857 27.9766 35.9094C27.9152 35.8331 27.8379 35.7717 27.7503 35.7295C27.6628 35.6873 27.5671 35.6654 27.4702 35.6654H25.506V32.332C25.5062 32.1553 25.5752 31.9858 25.698 31.8608C25.8207 31.7359 25.9871 31.6656 26.1607 31.6654H28.8626C29.0085 32.2374 29.3366 32.7441 29.7956 33.106C30.2545 33.4679 30.8183 33.6646 31.3988 33.6654H34.0179C34.7125 33.6654 35.3786 33.3844 35.8698 32.8843C36.361 32.3842 36.6369 31.7059 36.6369 30.9987C36.6369 30.2915 36.361 29.6132 35.8698 29.1131C35.3786 28.613 34.7125 28.332 34.0179 28.332H31.3988C30.8183 28.3328 30.2545 28.5295 29.7956 28.8914C29.3366 29.2533 29.0085 29.76 28.8626 30.332H26.1607C25.6399 30.3326 25.1407 30.5435 24.7724 30.9185C24.4042 31.2934 24.197 31.8018 24.1964 32.332V35.6654H22.8869C22.7355 35.6654 22.5889 35.7188 22.4718 35.8165C22.3547 35.9142 22.2745 36.0502 22.2449 36.2013L21.5901 39.5346C21.5711 39.6313 21.5734 39.7311 21.5969 39.8268C21.6204 39.9225 21.6644 40.0117 21.7258 40.088C21.7872 40.1643 21.8645 40.2257 21.9521 40.2679C22.0396 40.3101 22.1353 40.332 22.2322 40.332ZM32.7083 49.6654H30.0893C29.742 49.6654 29.4089 49.5249 29.1633 49.2748C28.9177 49.0248 28.7798 48.6856 28.7798 48.332C28.7798 47.9784 28.9177 47.6393 29.1633 47.3892C29.4089 47.1392 29.742 46.9987 30.0893 46.9987H32.7083C33.0556 46.9987 33.3887 47.1392 33.6343 47.3892C33.8799 47.6393 34.0179 47.9784 34.0179 48.332C34.0179 48.6856 33.8799 49.0248 33.6343 49.2748C33.3887 49.5249 33.0556 49.6654 32.7083 49.6654ZM42.5298 47.2566V49.6654H37.9464V46.7825C38.5016 46.6137 39.099 46.6658 39.6179 46.9283L39.8425 47.0427C40.6761 47.47 41.6411 47.5468 42.5298 47.2566ZM39.256 36.9987H42.5298V38.9987H39.256V36.9987ZM31.3988 29.6654H34.0179C34.3652 29.6654 34.6983 29.8058 34.9438 30.0559C35.1894 30.3059 35.3274 30.6451 35.3274 30.9987C35.3274 31.3523 35.1894 31.6915 34.9438 31.9415C34.6983 32.1916 34.3652 32.332 34.0179 32.332H31.3988C31.0515 32.332 30.7184 32.1916 30.4728 31.9415C30.2273 31.6915 30.0893 31.3523 30.0893 30.9987C30.0893 30.6451 30.2273 30.3059 30.4728 30.0559C30.7184 29.8058 31.0515 29.6654 31.3988 29.6654ZM32.7083 36.4666L35.4565 38.332L32.7083 40.1975L29.9602 38.332L32.7083 36.4666ZM27.4575 39.7961L27.6142 38.9987H28.5815L32.0536 41.3555V42.332C32.0534 42.5088 31.9843 42.6782 31.8616 42.8032C31.7388 42.9282 31.5724 42.9985 31.3988 42.9987H26.1607C25.9871 42.9985 25.8207 42.9282 25.698 42.8032C25.5752 42.6782 25.5062 42.5088 25.506 42.332V40.332H26.8155C26.9668 40.332 27.1135 40.2786 27.2306 40.1809C27.3477 40.0832 27.4278 39.9472 27.4575 39.7961ZM23.4237 36.9987H26.6716L26.2787 38.9987H23.0308L23.4237 36.9987Z" fill="#FF9900"/>
<path d="M21.5773 55H43.8392C44.7071 54.999 45.5393 54.6475 46.153 54.0226C46.7668 53.3977 47.112 52.5504 47.113 51.6667V49H48.4225C49.2905 48.999 50.1226 48.6475 50.7364 48.0226C51.3501 47.3977 51.6953 46.5504 51.6963 45.6667V23.4379C51.6975 23 51.6134 22.5662 51.4488 22.1616C51.2842 21.757 51.0424 21.3897 50.7374 21.0809L45.724 15.9763C45.4207 15.6658 45.06 15.4197 44.6626 15.2521C44.2652 15.0845 43.8392 14.9988 43.4091 15H28.1249C27.2569 15.001 26.4248 15.3525 25.811 15.9774C25.1973 16.6023 24.8521 17.4496 24.8511 18.3333V19.6667H21.5773C20.7093 19.6677 19.8772 20.0192 19.2634 20.6441C18.6497 21.269 18.3044 22.1163 18.3035 23V51.6667C18.3044 52.5504 18.6497 53.3977 19.2634 54.0226C19.8772 54.6475 20.7093 54.999 21.5773 55ZM26.1606 18.3333C26.1612 17.8031 26.3683 17.2947 26.7366 16.9198C27.1048 16.5448 27.6041 16.3339 28.1249 16.3333H43.4091C43.5538 16.3334 43.698 16.3497 43.8392 16.3818V19.6667C43.8402 20.5504 44.1854 21.3977 44.7991 22.0226C45.4129 22.6475 46.245 22.999 47.113 23H47.7677V21.6667H47.113C46.5922 21.6661 46.0929 21.4552 45.7247 21.0802C45.3564 20.7053 45.1493 20.1969 45.1487 19.6667V17.2761L49.8115 22.0237C49.9944 22.209 50.1395 22.4294 50.2383 22.6721C50.337 22.9149 50.3875 23.1752 50.3868 23.4379V45.6667C50.3862 46.1969 50.1791 46.7053 49.8108 47.0802C49.4426 47.4552 48.9433 47.6661 48.4225 47.6667H47.113V29.5009C47.1124 29.0408 47.0186 28.5858 46.8374 28.1643C46.6561 27.7429 46.3914 27.364 46.0597 27.0516L39.1429 20.5507C38.5386 19.9815 37.7455 19.6658 36.9223 19.6667H26.1606V18.3333ZM19.613 23C19.6136 22.4698 19.8207 21.9614 20.189 21.5865C20.5572 21.2115 21.0565 21.0006 21.5773 21H36.9223C37.0462 21 37.1698 21.0119 37.2916 21.0356V25.6667C37.2925 26.5504 37.6378 27.3977 38.2515 28.0226C38.8653 28.6475 39.6974 28.999 40.5654 29H42.5297V27.6667H40.5654C40.0446 27.6661 39.5453 27.4552 39.177 27.0802C38.8088 26.7053 38.6017 26.1969 38.6011 25.6667V21.856L45.1715 28.0313C45.3705 28.2188 45.5294 28.4461 45.6381 28.699C45.7468 28.9518 45.8031 29.2249 45.8035 29.5009V51.6667C45.8029 52.1969 45.5957 52.7053 45.2275 53.0802C44.8592 53.4552 44.36 53.6661 43.8392 53.6667H21.5773C21.0565 53.6661 20.5572 53.4552 20.189 53.0802C19.8207 52.7053 19.6136 52.1969 19.613 51.6667V23Z" fill="#FF9900"/>
<path d="M34.6724 24.332H30.0891V25.6654H34.6724V24.332Z" fill="#FF9900"/>
<path d="M28.7797 24.332H25.5059V25.6654H28.7797V24.332Z" fill="#FF9900"/>
<path d="M24.1962 24.332H22.8867V25.6654H24.1962V24.332Z" fill="#FF9900"/>
</svg>
