<svg width="70" height="70" viewBox="0 0 70 70" fill="none" xmlns="http://www.w3.org/2000/svg">
<rect width="70" height="70" rx="5.25" fill="#FFF5DB"/>
<path d="M16.6667 21C17.1729 21 17.5833 20.5523 17.5833 20C17.5833 19.4477 17.1729 19 16.6667 19C16.1604 19 15.75 19.4477 15.75 20C15.75 20.5523 16.1604 21 16.6667 21Z" fill="#FF9900"/>
<path d="M20.3337 21C20.8399 21 21.2503 20.5523 21.2503 20C21.2503 19.4477 20.8399 19 20.3337 19C19.8274 19 19.417 19.4477 19.417 20C19.417 20.5523 19.8274 21 20.3337 21Z" fill="#FF9900"/>
<path d="M23.9997 21C24.5059 21 24.9163 20.5523 24.9163 20C24.9163 19.4477 24.5059 19 23.9997 19C23.4934 19 23.083 19.4477 23.083 20C23.083 20.5523 23.4934 21 23.9997 21Z" fill="#FF9900"/>
<path d="M54.9267 16H15.9906C14.7127 16.005 13.4885 16.5631 12.5849 17.5526C11.6812 18.5421 11.1716 19.8827 11.167 21.282V48.718C11.1716 50.1173 11.6812 51.4579 12.5849 52.4474C13.4885 53.4369 14.7127 53.995 15.9906 54H54.9267C56.2046 53.995 57.4288 53.4369 58.3325 52.4474C59.2361 51.4579 59.7458 50.1173 59.7503 48.718V21.282C59.7458 19.8827 59.2361 18.5421 58.3325 17.5526C57.4288 16.5631 56.2046 16.005 54.9267 16ZM58.0152 48.718C58.0152 49.615 57.6898 50.4752 57.1106 51.1094C56.5314 51.7437 55.7458 52.1 54.9267 52.1H15.9906C15.1715 52.1 14.3859 51.7437 13.8067 51.1094C13.2275 50.4752 12.9021 49.615 12.9021 48.718V25.5H58.0152V48.718ZM58.0152 23.6H12.9021V21.282C12.9021 20.385 13.2275 19.5248 13.8067 18.8906C14.3859 18.2563 15.1715 17.9 15.9906 17.9H54.9267C55.7458 17.9 56.5314 18.2563 57.1106 18.8906C57.6898 19.5248 58.0152 20.385 58.0152 21.282V23.6Z" fill="#FF9900"/>
<path d="M17.5618 49H21.1412C21.3785 49 21.6061 48.8987 21.7739 48.7185C21.9418 48.5383 22.036 48.2938 22.036 48.039C22.036 47.7841 21.9418 47.5396 21.7739 47.3594C21.6061 47.1792 21.3785 47.0779 21.1412 47.0779H18.4746C18.6482 43.5214 19.7935 40.0986 21.7676 37.2369L22.5014 37.9289C22.6632 38.0869 22.8733 38.1758 23.092 38.1787C23.2202 38.1775 23.3467 38.1479 23.4638 38.0917C23.5808 38.0354 23.6857 37.9538 23.772 37.852C23.936 37.6723 24.0278 37.4308 24.0278 37.1793C24.0278 36.9277 23.936 36.6862 23.772 36.5065L22.9309 35.7569C25.9297 32.2102 30.1095 30.0762 34.5638 29.8177V30.9518C34.5638 31.2066 34.6581 31.4511 34.8259 31.6313C34.9937 31.8115 35.2213 31.9128 35.4587 31.9128C35.696 31.9128 35.9236 31.8115 36.0914 31.6313C36.2592 31.4511 36.3535 31.2066 36.3535 30.9518V29.8177C40.751 30.0637 44.8886 32.1305 47.897 35.5839L47.0558 36.5258C46.9702 36.612 46.902 36.7163 46.8553 36.832C46.8087 36.9477 46.7846 37.0724 46.7846 37.1985C46.7846 37.3246 46.8087 37.4493 46.8553 37.565C46.902 37.6807 46.9702 37.7849 47.0558 37.8712C47.133 37.9621 47.227 38.0347 47.3317 38.0843C47.4365 38.1339 47.5498 38.1596 47.6643 38.1595C47.7858 38.1601 47.9061 38.133 48.0172 38.08C48.1282 38.027 48.2276 37.9493 48.3086 37.852L49.0424 37.0639C51.0659 39.9554 52.2432 43.4277 52.4248 47.0395H49.7761C49.5388 47.0395 49.3112 47.1407 49.1434 47.321C48.9756 47.5012 48.8813 47.7456 48.8813 48.0005C48.8859 48.2539 48.9816 48.4955 49.1484 48.6746C49.3153 48.8538 49.5402 48.9566 49.7761 48.9616H53.3555C53.5928 48.9616 53.8204 48.8603 53.9882 48.6801C54.156 48.4998 54.2503 48.2554 54.2503 48.0005C54.2346 43.2379 52.6496 38.6349 49.7761 35.0073C47.9986 32.7881 45.792 31.0115 43.3101 29.8015C40.8281 28.5914 38.1304 27.9769 35.4047 28.0007C32.6791 28.0244 29.991 28.686 27.5276 29.9392C25.0643 31.1924 22.8849 33.0072 21.1412 35.2572C18.3109 38.8292 16.7287 43.3492 16.667 48.039C16.667 48.2938 16.7613 48.5383 16.9291 48.7185C17.0969 48.8987 17.3245 49 17.5618 49Z" fill="#FF9900"/>
<path d="M41.857 35.1189C41.7542 35.0563 41.6414 35.0174 41.5252 35.0047C41.4091 34.9919 41.2918 35.0055 41.1803 35.0446C41.0688 35.0837 40.9653 35.1476 40.8757 35.2326C40.7861 35.3175 40.7122 35.4219 40.6584 35.5395L36.0754 45.2724H35.6876C35.1891 45.2724 34.7018 45.4404 34.2872 45.755C33.8727 46.0697 33.5496 46.517 33.3589 47.0403C33.1681 47.5636 33.1182 48.1394 33.2154 48.6949C33.3127 49.2504 33.5528 49.7607 33.9053 50.1612C34.2578 50.5617 34.7069 50.8345 35.1959 50.945C35.6848 51.0555 36.1916 50.9988 36.6522 50.782C37.1128 50.5653 37.5065 50.1982 37.7835 49.7272C38.0604 49.2563 38.2083 48.7026 38.2083 48.1362C38.2095 47.4663 37.9965 46.8187 37.609 46.3138L42.2096 36.5208C42.2711 36.4035 42.3108 36.2731 42.3263 36.1377C42.3418 36.0023 42.3328 35.8647 42.2997 35.7334C42.2667 35.6021 42.2104 35.4798 42.1343 35.3742C42.0581 35.2685 41.9638 35.1816 41.857 35.1189ZM35.6876 48.9573C35.4866 48.9573 35.2938 48.8666 35.1517 48.7051C35.0095 48.5436 34.9297 48.3245 34.9297 48.0962C34.9297 47.8678 35.0095 47.6487 35.1517 47.4872C35.2938 47.3257 35.4866 47.235 35.6876 47.235C35.8887 47.235 36.0814 47.3257 36.2236 47.4872C36.3657 47.6487 36.4456 47.8678 36.4456 48.0962C36.4456 48.3245 36.3657 48.5436 36.2236 48.7051C36.0814 48.8666 35.8887 48.9573 35.6876 48.9573Z" fill="#FF9900"/>
</svg>
