<svg width="70" height="70" viewBox="0 0 70 70" fill="none" xmlns="http://www.w3.org/2000/svg">
<rect width="70" height="70" rx="5.25" fill="#FFF5DB"/>
<path d="M20.9334 55.1949H49.0668C50.5094 55.1949 51.6831 54.0409 51.6831 52.6225C51.675 19.8181 51.6929 22.8579 51.6748 22.5908C51.6622 22.3999 51.6019 22.3407 51.4775 22.1683L43.5803 14.9729C43.4645 14.8666 43.2751 14.8047 43.144 14.8047H20.9334C19.4908 14.8047 18.3174 15.9584 18.3174 17.3768V52.6225C18.3174 54.0409 19.4908 55.1949 20.9334 55.1949ZM43.7859 16.881L49.4043 22.0001H44.4603C44.0883 22.0001 43.7859 21.7024 43.7859 21.3369V16.881ZM19.6011 17.3768C19.6011 16.6542 20.1988 16.0669 20.9334 16.0669H42.5022V21.3369C42.5022 22.3985 43.3807 23.2623 44.4603 23.2623H50.3994V52.6225C50.3994 53.3448 49.8017 53.9327 49.0668 53.9327H20.9334C20.1988 53.9327 19.6011 53.3448 19.6011 52.6225V17.3768Z" fill="#FF9900"/>
<path d="M23.3108 51.1665H46.6892C47.0437 51.1665 47.3311 50.8836 47.3311 50.5354C47.3311 50.1866 47.0437 49.9043 46.6892 49.9043H23.3108C22.9563 49.9043 22.6689 50.1866 22.6689 50.5354C22.6689 50.8836 22.9563 51.1665 23.3108 51.1665Z" fill="#FF9900"/>
<path d="M33.3945 46.1799C33.3945 46.5284 33.6819 46.811 34.0364 46.811H46.6888C47.0433 46.811 47.3307 46.5284 47.3307 46.1799C47.3307 45.8314 47.0433 45.5488 46.6888 45.5488H34.0364C33.6819 45.5488 33.3945 45.8314 33.3945 46.1799Z" fill="#FF9900"/>
<path d="M28.7218 39.1675L30.2643 41.6972C30.8456 42.6322 32.0963 42.9292 33.0477 42.3575C34.0094 41.7795 34.2981 40.5522 33.7221 39.6254L32.2585 37.2252L32.65 36.9898C32.655 36.9867 32.6573 36.9818 32.6622 36.9787C35.8232 36.0521 39.0144 35.597 42.4025 35.5939C43.1399 36.348 44.276 36.4856 45.1623 35.9532C46.2193 35.3172 46.538 33.9662 45.9007 32.9419L43.8174 29.592C44.953 28.5147 45.2125 26.793 44.3619 25.4254C43.5113 24.0576 41.8341 23.5004 40.3419 24.003L38.2583 20.6528C37.9446 20.148 37.4526 19.7976 36.8866 19.6698C36.3181 19.5286 35.7022 19.6223 35.1961 19.9268C34.2877 20.4731 33.9205 21.5609 34.2562 22.5125C32.7105 25.4723 30.8477 28.0574 28.571 30.399C28.566 30.4021 28.5604 30.4018 28.5553 30.4046L25.6548 32.1487C23.8044 33.2603 23.2162 35.6302 24.3498 37.4533C25.2581 38.9149 27.0332 39.6186 28.7218 39.1675ZM43.2669 26.0837C43.7448 26.8525 43.6624 27.8022 43.1233 28.4755L41.0361 25.1191C41.8923 24.9543 42.7886 25.3151 43.2669 26.0837ZM32.3782 41.2805C32.024 41.4932 31.564 41.3683 31.3628 41.0439L29.8992 38.644L31.1635 37.8841L32.624 40.279C32.8369 40.6217 32.7299 41.0693 32.3782 41.2805ZM35.8661 21.0034C36.0895 20.8691 36.3439 20.8365 36.5854 20.8968C36.8258 20.9511 37.0307 21.0984 37.1633 21.311L44.8057 33.6007C45.077 34.0366 44.9372 34.6095 44.4926 34.8762C44.0501 35.1427 43.4679 35.0053 43.196 34.5693L35.5519 22.2767C35.2826 21.8407 35.4227 21.27 35.8661 21.0034ZM35.009 23.8234C37.2964 27.5019 39.2619 30.6627 41.5494 34.3412C38.4542 34.4112 35.5076 34.8525 32.5889 35.6814L29.7118 31.0548C31.7925 28.8783 33.5347 26.5003 35.009 23.8234ZM26.3242 33.2254L28.6773 31.811L31.4327 36.2422L29.08 37.6567C27.8348 38.4055 26.2101 38.0258 25.4448 36.7951C25.0787 36.2065 25.0789 33.9741 26.3242 33.2254Z" fill="#FF9900"/>
<path d="M24.0253 47.1606C23.9388 47.2136 23.8479 47.2592 23.7533 47.2968C23.4242 47.4268 23.2653 47.7948 23.3976 48.118C23.5312 48.4441 23.9073 48.5968 24.2328 48.4675C24.748 48.2632 25.1928 47.926 25.5312 47.507C26.2079 47.4891 26.8478 47.2512 27.3249 46.8333C27.3737 46.7908 27.4214 46.7458 27.4693 46.7008C27.5433 46.6309 27.6555 46.5252 27.6984 46.5048C27.4396 46.7079 27.3806 47.0715 27.5621 47.3439C27.7442 47.6167 28.1071 47.7079 28.3995 47.5556C29.2206 47.1276 30.2477 47.115 31.0798 47.5224C31.3975 47.6777 31.7821 47.5501 31.9401 47.2383C32.098 46.9264 31.9689 46.5474 31.6514 46.3921C30.8049 45.9779 29.8186 45.8657 28.8944 46.0543C28.6635 45.4517 27.9601 45.1159 27.3305 45.3031C26.9895 45.4044 26.7629 45.618 26.5808 45.7899L26.4708 45.891C26.3865 45.965 26.2909 46.0284 26.1872 46.0802C26.3197 45.3335 26.1745 44.5263 25.6582 43.9641C25.1567 43.4184 24.3566 43.2181 23.7119 43.4782C23.1208 43.7161 22.7128 44.3022 22.6724 44.9709C22.6404 45.5003 22.8338 46.0469 23.2174 46.5104C23.4368 46.7754 23.7125 46.9954 24.0253 47.1606ZM24.1983 44.6461C24.2315 44.6325 24.2692 44.6263 24.3093 44.6263C24.4422 44.6263 24.6007 44.696 24.7054 44.81C24.8693 44.9884 24.958 45.2784 24.9492 45.605C24.9439 45.7887 24.9088 45.9702 24.8477 46.1437C24.5923 46.0531 24.3716 45.9055 24.2131 45.7138C24.0354 45.4993 23.941 45.2559 23.9536 45.0461C23.9642 44.8698 24.0695 44.6978 24.1983 44.6461Z" fill="#FF9900"/>
</svg>
