<svg width="70" height="70" viewBox="0 0 70 70" fill="none" xmlns="http://www.w3.org/2000/svg">
<rect width="70" height="70" rx="5.25" fill="#FFF5DB"/>
<path d="M54.4197 15H15.58C14.5074 15.0013 13.479 15.4231 12.7206 16.173C11.9621 16.9228 11.5355 17.9395 11.5342 19V51C11.5355 52.0605 11.9621 53.0772 12.7206 53.827C13.479 54.5769 14.5074 54.9987 15.58 55H54.4197C55.4923 54.9987 56.5206 54.5769 57.2791 53.827C58.0375 53.0772 58.4642 52.0605 58.4655 51V19C58.4642 17.9395 58.0375 16.9228 57.2791 16.173C56.5206 15.4231 55.4923 15.0013 54.4197 15ZM15.58 16.6H54.4197C55.0635 16.6 55.6809 16.8529 56.1362 17.3029C56.5914 17.753 56.8472 18.3635 56.8472 19V21.4H13.1525V19C13.1525 18.3635 13.4083 17.753 13.8635 17.3029C14.3187 16.8529 14.9362 16.6 15.58 16.6ZM54.4197 53.4H15.58C14.9362 53.4 14.3187 53.1471 13.8635 52.6971C13.4083 52.247 13.1525 51.6365 13.1525 51V23H56.8472V51C56.8472 51.6365 56.5914 52.247 56.1362 52.6971C55.6809 53.1471 55.0635 53.4 54.4197 53.4Z" fill="#FF9900"/>
<path d="M15.5842 19.8033C16.0333 19.8033 16.3974 19.4433 16.3974 18.9993C16.3974 18.5553 16.0333 18.1953 15.5842 18.1953C15.1351 18.1953 14.771 18.5553 14.771 18.9993C14.771 19.4433 15.1351 19.8033 15.5842 19.8033Z" fill="#FF9900"/>
<path d="M18.8166 19.8092C19.2657 19.8092 19.6298 19.4492 19.6298 19.0052C19.6298 18.5611 19.2657 18.2012 18.8166 18.2012C18.3675 18.2012 18.0034 18.5611 18.0034 19.0052C18.0034 19.4492 18.3675 19.8092 18.8166 19.8092Z" fill="#FF9900"/>
<path d="M22.0613 19.8092C22.5104 19.8092 22.8745 19.4492 22.8745 19.0052C22.8745 18.5611 22.5104 18.2012 22.0613 18.2012C21.6121 18.2012 21.248 18.5611 21.248 19.0052C21.248 19.4492 21.6121 19.8092 22.0613 19.8092Z" fill="#FF9900"/>
<path d="M54.4196 26.2012H48.7554C48.5408 26.2012 48.335 26.2855 48.1833 26.4355C48.0315 26.5855 47.9463 26.789 47.9463 27.0012C47.9463 27.2133 48.0315 27.4168 48.1833 27.5669C48.335 27.7169 48.5408 27.8012 48.7554 27.8012H54.4196C54.6342 27.8012 54.84 27.7169 54.9917 27.5669C55.1435 27.4168 55.2287 27.2133 55.2287 27.0012C55.2287 26.789 55.1435 26.5855 54.9917 26.4355C54.84 26.2855 54.6342 26.2012 54.4196 26.2012Z" fill="#FF9900"/>
<path d="M38.2364 27.8012H45.5188C45.7335 27.8012 45.9393 27.7169 46.091 27.5669C46.2428 27.4168 46.328 27.2133 46.328 27.0012C46.328 26.789 46.2428 26.5855 46.091 26.4355C45.9393 26.2855 45.7335 26.2012 45.5188 26.2012H38.2364C38.0218 26.2012 37.816 26.2855 37.6642 26.4355C37.5125 26.5855 37.4272 26.789 37.4272 27.0012C37.4272 27.2133 37.5125 27.4168 37.6642 27.5669C37.816 27.7169 38.0218 27.8012 38.2364 27.8012Z" fill="#FF9900"/>
<path d="M38.2364 31.0004H43.0914C43.306 31.0004 43.5118 30.9161 43.6635 30.7661C43.8153 30.616 43.9005 30.4126 43.9005 30.2004C43.9005 29.9882 43.8153 29.7847 43.6635 29.6347C43.5118 29.4847 43.306 29.4004 43.0914 29.4004H38.2364C38.0218 29.4004 37.816 29.4847 37.6642 29.6347C37.5125 29.7847 37.4272 29.9882 37.4272 30.2004C37.4272 30.4126 37.5125 30.616 37.6642 30.7661C37.816 30.9161 38.0218 31.0004 38.2364 31.0004Z" fill="#FF9900"/>
<path d="M54.4198 29.4004H46.3282C46.1136 29.4004 45.9078 29.4847 45.756 29.6347C45.6043 29.7847 45.519 29.9882 45.519 30.2004C45.519 30.4126 45.6043 30.616 45.756 30.7661C45.9078 30.9161 46.1136 31.0004 46.3282 31.0004H54.4198C54.6344 31.0004 54.8402 30.9161 54.992 30.7661C55.1437 30.616 55.229 30.4126 55.229 30.2004C55.229 29.9882 55.1437 29.7847 54.992 29.6347C54.8402 29.4847 54.6344 29.4004 54.4198 29.4004Z" fill="#FF9900"/>
<path d="M54.4196 45.4004H48.7554C48.5408 45.4004 48.335 45.4847 48.1833 45.6347C48.0315 45.7847 47.9463 45.9882 47.9463 46.2004C47.9463 46.4126 48.0315 46.616 48.1833 46.7661C48.335 46.9161 48.5408 47.0004 48.7554 47.0004H54.4196C54.6342 47.0004 54.84 46.9161 54.9917 46.7661C55.1435 46.616 55.2287 46.4126 55.2287 46.2004C55.2287 45.9882 55.1435 45.7847 54.9917 45.6347C54.84 45.4847 54.6342 45.4004 54.4196 45.4004Z" fill="#FF9900"/>
<path d="M38.2364 47.0004H45.5188C45.7335 47.0004 45.9393 46.9161 46.091 46.7661C46.2428 46.616 46.328 46.4126 46.328 46.2004C46.328 45.9882 46.2428 45.7847 46.091 45.6347C45.9393 45.4847 45.7335 45.4004 45.5188 45.4004H38.2364C38.0218 45.4004 37.816 45.4847 37.6642 45.6347C37.5125 45.7847 37.4272 45.9882 37.4272 46.2004C37.4272 46.4126 37.5125 46.616 37.6642 46.7661C37.816 46.9161 38.0218 47.0004 38.2364 47.0004Z" fill="#FF9900"/>
<path d="M38.2364 40.6H43.0914C43.306 40.6 43.5118 40.5157 43.6635 40.3657C43.8153 40.2157 43.9005 40.0122 43.9005 39.8C43.9005 39.5878 43.8153 39.3843 43.6635 39.2343C43.5118 39.0843 43.306 39 43.0914 39H38.2364C38.0218 39 37.816 39.0843 37.6642 39.2343C37.5125 39.3843 37.4272 39.5878 37.4272 39.8C37.4272 40.0122 37.5125 40.2157 37.6642 40.3657C37.816 40.5157 38.0218 40.6 38.2364 40.6Z" fill="#FF9900"/>
<path d="M54.4198 39H46.3282C46.1136 39 45.9078 39.0843 45.756 39.2343C45.6043 39.3843 45.519 39.5878 45.519 39.8C45.519 40.0122 45.6043 40.2157 45.756 40.3657C45.9078 40.5157 46.1136 40.6 46.3282 40.6H54.4198C54.6344 40.6 54.8402 40.5157 54.992 40.3657C55.1437 40.2157 55.229 40.0122 55.229 39.8C55.229 39.5878 55.1437 39.3843 54.992 39.2343C54.8402 39.0843 54.6344 39 54.4198 39Z" fill="#FF9900"/>
<path d="M54.4196 35.7988H38.2364C38.0218 35.7988 37.816 35.8831 37.6642 36.0331C37.5125 36.1832 37.4272 36.3867 37.4272 36.5988C37.4272 36.811 37.5125 37.0145 37.6642 37.1645C37.816 37.3145 38.0218 37.3988 38.2364 37.3988H54.4196C54.6342 37.3988 54.84 37.3145 54.9918 37.1645C55.1435 37.0145 55.2288 36.811 55.2288 36.5988C55.2288 36.3867 55.1435 36.1832 54.9918 36.0331C54.84 35.8831 54.6342 35.7988 54.4196 35.7988Z" fill="#FF9900"/>
<path d="M54.4196 48.5996H38.2364C38.0218 48.5996 37.816 48.6839 37.6642 48.8339C37.5125 48.984 37.4272 49.1874 37.4272 49.3996C37.4272 49.6118 37.5125 49.8153 37.6642 49.9653C37.816 50.1153 38.0218 50.1996 38.2364 50.1996H54.4196C54.6342 50.1996 54.84 50.1153 54.9918 49.9653C55.1435 49.8153 55.2288 49.6118 55.2288 49.3996C55.2288 49.1874 55.1435 48.984 54.9918 48.8339C54.84 48.6839 54.6342 48.5996 54.4196 48.5996Z" fill="#FF9900"/>
<path d="M34.1908 24.5996H16.3893C15.9601 24.5996 15.5485 24.7682 15.245 25.0682C14.9415 25.3683 14.771 25.7753 14.771 26.1996V50.1996C14.771 50.624 14.9415 51.0309 15.245 51.331C15.5485 51.631 15.9601 51.7996 16.3893 51.7996H34.1908C34.62 51.7996 35.0317 51.631 35.3352 51.331C35.6387 51.0309 35.8092 50.624 35.8092 50.1996V26.1996C35.8092 25.7753 35.6387 25.3683 35.3352 25.0682C35.0317 24.7682 34.62 24.5996 34.1908 24.5996ZM34.1908 50.1996H16.3893V26.1996H34.1908V50.1996Z" fill="#FF9900"/>
</svg>
