<svg width="70" height="70" viewBox="0 0 70 70" fill="none" xmlns="http://www.w3.org/2000/svg">
<rect width="70" height="70" rx="5.25" fill="#FFF5DB"/>
<path d="M56.0479 41.5395H42.4837V32.7354C42.4837 32.476 42.2745 32.2654 42.0159 32.2654H27.9843C27.7261 32.2654 27.5165 32.4756 27.5165 32.7354V47.0114H13.9527C13.6945 47.0114 13.4849 47.2215 13.4849 47.4814V54.53C13.4849 54.7894 13.694 55 13.9527 55H27.9843H42.0159H56.0475C56.3056 55 56.5153 54.7899 56.5153 54.53V42.0095C56.5153 41.7501 56.3061 41.5395 56.0479 41.5395ZM14.4205 47.9513H27.5165V54.0601H14.4205V47.9513ZM41.5485 54.0601H28.4521V33.2054H41.5481L41.5485 54.0601ZM55.5801 54.0601H42.4837V42.4794H55.5797L55.5801 54.0601ZM30.8314 21.2227C31.292 22.267 31.8718 23.1454 32.537 23.7567C33.0452 24.2235 33.3029 24.8106 33.3029 25.5021V25.8376H32.5951C32.3369 25.8376 32.1273 26.0477 32.1273 26.3076V29.25C32.1273 29.5094 32.3364 29.72 32.5951 29.72H37.4064C37.6646 29.72 37.8742 29.5099 37.8742 29.25V26.3071C37.8742 26.0477 37.665 25.8372 37.4064 25.8372H36.6986V25.5017C36.6986 24.8101 36.9563 24.223 37.464 23.7562C38.1292 23.145 38.7091 22.2666 39.1696 21.2222C41.3031 20.0945 42.5231 18.0081 42.5231 15.47C42.5231 15.2106 42.314 15 42.0553 15H39.8534H30.1481H27.9461C27.688 15 27.4784 15.2101 27.4784 15.47C27.4784 18.0085 28.698 20.0954 30.8314 21.2227ZM36.9382 28.7796H33.0624V26.7771H36.9382V28.7796ZM39.7127 19.7316C40.0603 18.556 40.2713 17.2587 40.3121 15.9404H41.5703C41.4609 17.4857 40.8076 18.8054 39.7127 19.7316ZM39.377 15.9399C39.2776 18.8724 38.2594 21.7524 36.8324 23.0629C36.1328 23.7061 35.7626 24.5494 35.7626 25.5017V25.8376H34.238V25.5021C34.238 24.5494 33.8682 23.7061 33.1681 23.0634C31.7416 21.7528 30.723 18.8728 30.6236 15.9404H39.377V15.9399ZM29.6885 15.9399C29.7293 17.2582 29.9403 18.5556 30.2878 19.7312C29.193 18.8049 28.5396 17.4852 28.4298 15.9399H29.6885ZM43.8467 29.3485C43.8616 29.3918 43.8616 29.421 43.8467 29.4643L43.5817 30.2223C43.4292 30.659 43.5563 31.1358 43.9061 31.4376L44.5127 31.9609C44.5477 31.991 44.5622 32.0161 44.5704 32.0612L44.7178 32.8507C44.8027 33.3056 45.1507 33.6548 45.6035 33.7405L46.0727 33.8289L45.1157 37.4169C45.0708 37.586 45.123 37.766 45.251 37.8846C45.3789 38.0031 45.5622 38.04 45.7265 37.9803L46.8585 37.5691L47.6344 38.4936C47.7242 38.6007 47.8558 38.6604 47.9919 38.6604C48.0255 38.6604 48.06 38.6568 48.0936 38.649C48.2637 38.6107 48.3985 38.4813 48.4434 38.3121L49.0319 36.1063L49.6204 38.3121C49.6653 38.4813 49.8005 38.6112 49.9702 38.649C50.0042 38.6568 50.0383 38.6604 50.0718 38.6604C50.208 38.6604 50.3395 38.6007 50.4294 38.4936L51.2053 37.5691L52.3373 37.9803C52.5011 38.0395 52.6844 38.0031 52.8128 37.8846C52.9412 37.766 52.9934 37.586 52.948 37.4169L51.9911 33.8289L52.4603 33.7405C52.9131 33.6553 53.2611 33.3056 53.346 32.8507L53.4934 32.0612C53.502 32.0161 53.5166 31.9905 53.551 31.9605L54.1577 31.4372C54.5075 31.1358 54.6345 30.6586 54.4816 30.2219L54.2167 29.4638C54.2017 29.4205 54.2017 29.3913 54.2167 29.348L54.4816 28.59C54.6345 28.1533 54.5075 27.676 54.1577 27.3747L53.551 26.8514C53.5161 26.8213 53.5016 26.7962 53.4934 26.7511L53.346 25.9616C53.2611 25.5067 52.9136 25.1575 52.4603 25.0718L51.6744 24.9236C51.6295 24.915 51.6045 24.9004 51.5746 24.8658L51.0537 24.2563C50.7538 23.9048 50.2783 23.7772 49.8441 23.9308L49.0895 24.197C49.0464 24.2121 49.0174 24.2125 48.9743 24.197L48.2202 23.9308C47.7855 23.7772 47.3109 23.9048 47.0105 24.2563L46.4896 24.8658C46.4597 24.9009 46.4347 24.9154 46.3898 24.9236L45.604 25.0718C45.1511 25.1575 44.8036 25.5067 44.7183 25.9616L44.5708 26.7511C44.5622 26.7962 44.5477 26.8213 44.5132 26.8514L43.9061 27.3747C43.5563 27.6765 43.4292 28.1533 43.5821 28.59L43.8467 29.3485ZM47.7719 37.2003L47.3635 36.7135C47.2374 36.5631 47.0314 36.5075 46.8467 36.5745L46.2505 36.791L46.8853 34.4111L47.0096 34.5565C47.2256 34.809 47.5314 34.9462 47.8481 34.9462C47.972 34.9462 48.0972 34.9252 48.2193 34.8819L48.4076 34.8154L47.7719 37.2003ZM51.2166 36.5745C51.0324 36.5075 50.8264 36.5631 50.6998 36.7135L50.2914 37.2003L49.6558 34.8154L49.8441 34.8819C50.2787 35.0356 50.7533 34.9079 51.0537 34.5565L51.178 34.4111L51.8128 36.791L51.2166 36.5745ZM44.7292 29.0372L44.4642 28.2791C44.4388 28.2066 44.4569 28.1387 44.515 28.0885L45.1221 27.5652C45.3186 27.3961 45.442 27.1805 45.4901 26.9252L45.6375 26.1357C45.6516 26.0601 45.7011 26.0104 45.7764 25.9962L46.5622 25.8481C46.8163 25.8002 47.0305 25.6758 47.1993 25.4784L47.7202 24.8689C47.7555 24.8279 47.7991 24.8065 47.8472 24.8065C47.8672 24.8065 47.8885 24.8101 47.9098 24.8179L48.6644 25.0841C48.9085 25.1703 49.1562 25.1703 49.3999 25.0841L50.1544 24.8179C50.227 24.7924 50.2942 24.8106 50.3441 24.8689L50.865 25.4789C51.0333 25.6758 51.2479 25.8002 51.502 25.8481L52.2879 25.9962C52.3632 26.0104 52.4126 26.0601 52.4267 26.1357L52.5742 26.9252C52.6218 27.1805 52.7457 27.3961 52.9421 27.5652L53.5488 28.0885C53.6068 28.1387 53.625 28.2066 53.5996 28.2791L53.3346 29.0372C53.2489 29.2824 53.2489 29.5308 53.3346 29.7761L53.5996 30.5341C53.625 30.6066 53.6068 30.6745 53.5488 30.7247L52.9417 31.248C52.7457 31.4171 52.6218 31.6323 52.5737 31.888L52.4262 32.6775C52.4122 32.7532 52.3627 32.8028 52.2874 32.817L51.5015 32.9651C51.247 33.013 51.0328 33.1374 50.8645 33.3348L50.3436 33.9443C50.2937 34.0026 50.2266 34.0209 50.154 33.9953L49.3994 33.7287C49.1558 33.6425 48.908 33.6425 48.6639 33.7287L47.9094 33.9949C47.8368 34.0204 47.7696 34.0022 47.7197 33.9438L47.1988 33.3339C47.0305 33.137 46.8159 33.0125 46.5618 32.9647L45.7759 32.8165C45.7006 32.8024 45.6511 32.7527 45.6371 32.677L45.4896 31.8875C45.442 31.6323 45.3181 31.4171 45.1216 31.2475L44.515 30.7242C44.4569 30.6741 44.4388 30.6062 44.4642 30.5337L44.7292 29.7756C44.8149 29.5308 44.8149 29.2824 44.7292 29.0372ZM49.0319 32.4632C50.7093 32.4632 52.0742 31.0921 52.0742 29.4068C52.0742 27.7216 50.7093 26.3504 49.0319 26.3504C47.3545 26.3504 45.9896 27.7216 45.9896 29.4068C45.9896 31.0921 47.3545 32.4632 49.0319 32.4632ZM49.0319 27.2899C50.1939 27.2899 51.139 28.2394 51.139 29.4068C51.139 30.5742 50.1939 31.5238 49.0319 31.5238C47.8699 31.5238 46.9248 30.5742 46.9248 29.4068C46.9248 28.2394 47.8699 27.2899 49.0319 27.2899ZM18.2413 41.2961L17.7281 44.1674C17.6964 44.3447 17.7685 44.5248 17.9137 44.6305C18.0589 44.7363 18.2513 44.75 18.4096 44.6647L20.9691 43.2867L23.5286 44.6647C23.5981 44.7021 23.6738 44.7203 23.7496 44.7203C23.8467 44.7203 23.9429 44.6903 24.0246 44.6305C24.1698 44.5248 24.2419 44.3447 24.2101 44.1674L23.697 41.2961L25.7923 39.2762C25.9216 39.1513 25.9688 38.9635 25.9134 38.7921C25.8581 38.6207 25.7102 38.4963 25.5323 38.4717L22.6552 38.0746L21.3907 35.4485C21.3126 35.2863 21.1488 35.1832 20.9696 35.1832C20.7904 35.1832 20.6266 35.2863 20.5485 35.4485L19.284 38.0746L16.4069 38.4717C16.229 38.4963 16.0811 38.6207 16.0258 38.7921C15.9704 38.9635 16.0171 39.1518 16.1469 39.2762L18.2413 41.2961ZM19.6583 38.9713C19.8135 38.9499 19.9473 38.8519 20.0159 38.7105L20.9687 36.7317L21.9215 38.7105C21.9896 38.8519 22.1239 38.9499 22.2791 38.9713L24.4465 39.2703L22.868 40.7924C22.755 40.9013 22.7038 41.0595 22.7314 41.2145L23.118 43.3779L21.1897 42.3399C21.1207 42.3026 21.0445 42.2843 20.9687 42.2843C20.8929 42.2843 20.8167 42.303 20.7477 42.3399L18.8194 43.3779L19.2059 41.2145C19.2336 41.0595 19.1824 40.9013 19.0694 40.7924L17.4908 39.2703L19.6583 38.9713Z" fill="#FF9900"/>
</svg>
