<svg width="70" height="70" viewBox="0 0 70 70" fill="none" xmlns="http://www.w3.org/2000/svg">
<rect width="70" height="70" rx="5.25" fill="#FFF5DB"/>
<path d="M27.2651 15.9091C26.26 15.9091 25.4451 16.7231 25.4451 17.7273V52.2727C25.4451 53.2769 26.26 54.0909 27.2651 54.0909H42.7347C43.7399 54.0909 44.5547 53.2769 44.5547 52.2727V17.7273C44.5547 16.7231 43.7399 15.9091 42.7347 15.9091H27.2651ZM27.2651 15H42.7347C44.2424 15 45.4647 16.221 45.4647 17.7273V52.2727C45.4647 53.779 44.2424 55 42.7347 55H27.2651C25.7574 55 24.5352 53.779 24.5352 52.2727V17.7273C24.5352 16.221 25.7574 15 27.2651 15ZM29.7432 15.8731C33.804 15.8731 36.4083 15.8731 40.4267 15.8731C40.3041 15.9333 40.0821 15.9584 39.9902 16.4578C39.9016 16.9393 39.4815 17.2889 38.9914 17.2889L31.4426 17.2889C30.9159 17.2889 30.4472 16.9552 30.2754 16.4578C30.2191 16.2948 30.1209 15.8731 29.7432 15.8731Z" fill="#FF9900"/>
<path d="M29.9948 40.9091C29.9948 40.407 29.5874 40 29.0848 40C28.5822 40 28.1748 40.407 28.1748 40.9091V45.9091C28.1748 46.4112 28.5822 46.8182 29.0848 46.8182C29.5874 46.8182 29.9948 46.4112 29.9948 45.9091V40.9091Z" fill="#FF9900"/>
<path d="M34.0895 38.1825C34.0895 37.6805 33.6821 37.2734 33.1795 37.2734C32.6769 37.2734 32.2695 37.6805 32.2695 38.1825V45.9098C32.2695 46.4119 32.6769 46.8189 33.1795 46.8189C33.6821 46.8189 34.0895 46.4119 34.0895 45.9098V38.1825Z" fill="#FF9900"/>
<path d="M37.7301 41.8192C37.7301 41.3172 37.3227 40.9102 36.8201 40.9102C36.3176 40.9102 35.9102 41.3172 35.9102 41.8192V45.9102C35.9102 46.4122 36.3176 46.8192 36.8201 46.8192C37.3227 46.8192 37.7301 46.4122 37.7301 45.9102V41.8192Z" fill="#FF9900"/>
<path d="M41.8248 34.5458C41.8248 34.0437 41.4174 33.6367 40.9149 33.6367C40.4123 33.6367 40.0049 34.0437 40.0049 34.5458V45.9094C40.0049 46.4115 40.4123 46.8185 40.9149 46.8185C41.4174 46.8185 41.8248 46.4115 41.8248 45.9094V34.5458Z" fill="#FF9900"/>
<path d="M32.2695 23.6367H27.7196C27.4684 23.6367 27.2646 23.8402 27.2646 24.0913C27.2646 24.3423 27.4684 24.5458 27.7196 24.5458H32.2695C32.5208 24.5458 32.7245 24.3423 32.7245 24.0913C32.7245 23.8402 32.5208 23.6367 32.2695 23.6367Z" fill="#FF9900"/>
<path d="M35.9094 21.8164H27.7196C27.4684 21.8164 27.2646 22.0199 27.2646 22.271C27.2646 22.522 27.4684 22.7255 27.7196 22.7255H35.9094C36.1607 22.7255 36.3644 22.522 36.3644 22.271C36.3644 22.0199 36.1607 21.8164 35.9094 21.8164Z" fill="#FF9900"/>
<path d="M39.095 51.3633H30.9052C30.6539 51.3633 30.4502 51.5668 30.4502 51.8178C30.4502 52.0689 30.6539 52.2724 30.9052 52.2724H39.095C39.3463 52.2724 39.55 52.0689 39.55 51.8178C39.55 51.5668 39.3463 51.3633 39.095 51.3633Z" fill="#FF9900"/>
<path d="M30.4496 25.4531H27.7196C27.4684 25.4531 27.2646 25.6566 27.2646 25.9077C27.2646 26.1587 27.4684 26.3622 27.7196 26.3622H30.4496C30.7009 26.3622 30.9046 26.1587 30.9046 25.9077C30.9046 25.6566 30.7009 25.4531 30.4496 25.4531Z" fill="#FF9900"/>
<path d="M32.2703 25.9077C32.2703 25.6566 32.0666 25.4531 31.8153 25.4531C31.5641 25.4531 31.3604 25.6566 31.3604 25.9077C31.3604 26.1587 31.5641 26.3622 31.8153 26.3622C32.0666 26.3622 32.2703 26.1587 32.2703 25.9077Z" fill="#FF9900"/>
</svg>
