<svg width="70" height="70" viewBox="0 0 70 70" fill="none" xmlns="http://www.w3.org/2000/svg">
<rect width="70" height="70" rx="5.25" fill="#FFF5DB"/>
<path d="M50.7174 15H27.977C26.133 15 24.6328 16.4953 24.6328 18.3333V42.3333H25.9705V18.3333C25.9705 17.2307 26.8707 16.3333 27.977 16.3333H50.7174C51.8237 16.3333 52.7239 17.2307 52.7239 18.3333V51.6667C52.7239 52.7693 51.8237 53.6667 50.7174 53.6667H27.977C26.8707 53.6667 25.9705 52.7693 25.9705 51.6667V46.3333H24.6328V51.6667C24.6328 53.5047 26.133 55 27.977 55H50.7174C52.5614 55 54.0616 53.5047 54.0616 51.6667V18.3333C54.0616 16.4953 52.5614 15 50.7174 15Z" fill="#FF9900"/>
<path d="M27.3081 49.0013C27.3081 49.37 27.6077 49.668 27.9769 49.668H50.7174C51.0866 49.668 51.3862 49.37 51.3862 49.0013V18.3346C51.3862 17.966 51.0866 17.668 50.7174 17.668H27.9769C27.6077 17.668 27.3081 17.966 27.3081 18.3346V42.3346H28.6458V19.0013H50.0485V48.3346H28.6458V46.3346H27.3081V49.0013Z" fill="#FF9900"/>
<path d="M42.6913 51H36.0029V52.3333H42.6913V51Z" fill="#FF9900"/>
<path d="M18.5431 19.3702C18.3164 18.9183 17.5733 18.9183 17.3466 19.3702L16.0089 22.0369C15.9621 22.1289 15.938 22.2316 15.938 22.3349V25.0016H17.2757V22.4922L17.9445 21.1589L18.6133 22.4922V49.0016H17.2757V26.3349H15.938V53.0016C15.938 54.1042 16.8382 55.0016 17.9445 55.0016C19.0508 55.0016 19.951 54.1042 19.951 53.0016V22.3349C19.951 22.2316 19.9269 22.1289 19.8808 22.0369L18.5431 19.3702ZM17.9445 53.6682C17.576 53.6682 17.2757 53.3696 17.2757 53.0016V50.3349H18.6133V53.0016C18.6133 53.3696 18.313 53.6682 17.9445 53.6682Z" fill="#FF9900"/>
<path d="M18.6136 15H17.9447C17.5755 15 17.2759 15.298 17.2759 15.6667V16.3333H18.6136V15Z" fill="#FF9900"/>
<path d="M23.2952 30.0391H21.9575V31.3424H23.2952V30.0391Z" fill="#FF9900"/>
<path d="M23.2952 22.2188H21.9575V23.5221H23.2952V22.2188Z" fill="#FF9900"/>
<path d="M23.2952 24.8242H21.9575V26.1276H23.2952V24.8242Z" fill="#FF9900"/>
<path d="M23.2952 19.6133H21.9575V20.9159H23.2952V19.6133Z" fill="#FF9900"/>
<path d="M23.2952 27.4297H21.9575V28.733H23.2952V27.4297Z" fill="#FF9900"/>
<path d="M23.2952 40.9989V40.4609H21.9575V40.9989C21.9575 41.3063 21.9923 41.6123 22.0619 41.9083L23.3648 41.6063C23.3186 41.4089 23.2952 41.2049 23.2952 40.9989Z" fill="#FF9900"/>
<path d="M19.792 16.3803C20.1364 16.4463 20.4595 16.5776 20.7518 16.7703L21.4902 15.6583C21.0501 15.3676 20.5638 15.171 20.0448 15.0703L19.792 16.3803Z" fill="#FF9900"/>
<path d="M22.5991 16.7461L21.4941 17.4974C21.6921 17.7874 21.8292 18.1074 21.9015 18.4494L23.211 18.1761C23.1027 17.6621 22.8967 17.1808 22.5991 16.7461Z" fill="#FF9900"/>
<path d="M23.7928 42.5508L22.7046 43.3268C23.0109 43.7541 23.3928 44.1121 23.8383 44.3908L24.5492 43.2621C24.2523 43.0754 23.9975 42.8361 23.7928 42.5508Z" fill="#FF9900"/>
<path d="M23.2952 35.25H21.9575V36.5527H23.2952V35.25Z" fill="#FF9900"/>
<path d="M23.2952 32.6445H21.9575V33.9479H23.2952V32.6445Z" fill="#FF9900"/>
<path d="M23.2952 37.8555H21.9575V39.1581H23.2952V37.8555Z" fill="#FF9900"/>
<path d="M29.3276 43.668H28.02V45.0013H29.3276V43.668Z" fill="#FF9900"/>
<path d="M26.7121 45.0002V43.6669H25.9704C25.8199 43.6669 25.6681 43.6542 25.5183 43.6289L25.2969 44.9442C25.5196 44.9816 25.7463 45.0002 25.9704 45.0002H26.7121Z" fill="#FF9900"/>
<path d="M31.99 43.668H30.6523V45.0013H31.99V43.668Z" fill="#FF9900"/>
<path d="M41.3538 21.668H36.672C35.5657 21.668 34.6655 22.5653 34.6655 23.668V26.0586L31.5179 29.196C31.3962 29.3166 31.3213 29.4833 31.3213 29.668V41.668C31.3213 42.0366 31.6209 42.3346 31.9901 42.3346H44.0292C44.1797 42.3346 44.3121 42.276 44.4238 42.192L44.4305 42.2013L47.1058 40.2013C47.2744 40.076 47.3734 39.878 47.3734 39.668V31.668H46.0357V39.3346L44.698 40.3346V29.668C44.698 29.5806 44.6786 29.498 44.6478 29.4213L44.6499 29.4206L44.6452 29.4086L43.9656 27.7153L46.0357 28.7466V30.3346H47.3734V28.3346C47.3734 28.082 47.2302 27.8513 47.0035 27.738L43.3603 25.9226V23.668C43.3603 22.5653 42.4601 21.668 41.3538 21.668ZM35.8072 26.806C35.9329 26.6813 36.0031 26.512 36.0031 26.3346V23.668C36.0031 23.3 36.3034 23.0013 36.672 23.0013H41.3538C41.7224 23.0013 42.0227 23.3 42.0227 23.668V26.3346C42.0227 26.4193 42.0387 26.5033 42.0701 26.582L43.0413 29.0013H33.6047L35.8072 26.806ZM43.3603 35.0013H32.659V30.3346H43.3603V35.0013ZM32.659 41.0013V36.3346H43.3603V41.0013H32.659Z" fill="#FF9900"/>
<path d="M40.685 24.332H37.3408V25.6654H40.685V24.332Z" fill="#FF9900"/>
<path d="M48.7109 20.9987C48.7109 20.63 48.4112 20.332 48.042 20.332H45.3667V21.6654H47.3732V23.6654H48.7109V20.9987Z" fill="#FF9900"/>
<path d="M29.9834 20.9987V23.6654H31.3211V21.6654H33.3276V20.332H30.6522C30.283 20.332 29.9834 20.63 29.9834 20.9987Z" fill="#FF9900"/>
<path d="M47.3732 43.668H45.3667V45.0013H48.042C48.4112 45.0013 48.7109 44.7033 48.7109 44.3346V41.668H47.3732V43.668Z" fill="#FF9900"/>
</svg>
