<svg width="70" height="70" viewBox="0 0 70 70" fill="none" xmlns="http://www.w3.org/2000/svg">
<rect width="70" height="70" rx="5.25" fill="#DEFFEE"/>
<path d="M38.246 28.1979C38.246 23.4521 34.2976 19.5957 29.4386 19.5957C24.573 19.5957 20.6182 23.4521 20.6182 28.1979C20.6182 30.1547 21.2751 31.9971 22.511 33.5345C23.5193 34.7798 24.2218 35.6819 24.6381 36.7048C24.2153 36.7874 23.825 36.9907 23.5128 37.2956C23.09 37.7086 22.8623 38.255 22.8623 38.8331C22.8623 39.4112 23.0965 39.9576 23.5128 40.3706C23.9356 40.7835 24.495 41.0059 25.0869 41.0059H25.8675C26.0951 42.7339 27.6042 44.0808 29.4386 44.0808C31.2729 44.0808 32.782 42.7403 33.0097 41.0122H33.7902C35.0196 41.0122 36.0149 40.0402 36.0149 38.8394C36.0149 37.7912 35.2538 36.9144 34.2456 36.7111C34.6489 35.7073 35.3254 34.8242 36.3726 33.5345C37.589 31.9971 38.246 30.1483 38.246 28.1979ZM29.4321 42.8102C28.3198 42.8102 27.3896 42.0351 27.1749 41.0122H31.6892C31.4746 42.0351 30.5444 42.8102 29.4321 42.8102ZM30.5444 36.6603H28.5539H28.3198V31.6413C28.3198 31.3236 28.5865 31.0632 28.9117 31.0632H29.9524C30.2777 31.0632 30.5444 31.3236 30.5444 31.6413V36.6603ZM34.7074 38.8394C34.7074 39.335 34.2911 39.7416 33.7837 39.7416H25.0869C24.8397 39.7416 24.6056 39.6463 24.4364 39.4748C24.2608 39.3032 24.1632 39.0745 24.1632 38.8331C24.1632 38.5917 24.2608 38.363 24.4364 38.1978C24.6121 38.0262 24.8462 37.9309 25.0869 37.9309H29.4386H33.3609C33.3674 37.9309 33.3739 37.9309 33.3739 37.9309H33.7837C34.2911 37.9309 34.7074 38.3375 34.7074 38.8394ZM32.8666 36.6603H31.8453V31.6413C31.8453 30.6184 30.9932 29.7925 29.9524 29.7925H28.9117C27.8644 29.7925 27.0188 30.6248 27.0188 31.6413V36.6603H26.0106C25.5227 35.1927 24.5926 34.0492 23.5323 32.7468C22.4785 31.438 21.9191 29.8688 21.9191 28.1979C21.9191 24.1573 25.2951 20.8663 29.4386 20.8663C33.5756 20.8663 36.945 24.1573 36.945 28.1979C36.945 29.8624 36.3921 31.438 35.3384 32.7468C34.2326 34.1127 33.3349 35.2245 32.8666 36.6603Z" fill="#00DA71"/>
<path d="M29.4382 22.1367C26.0103 22.1367 23.2197 24.8559 23.2197 28.1976C23.2197 28.5471 23.5124 28.833 23.8702 28.833C24.228 28.833 24.5207 28.5471 24.5207 28.1976C24.5207 25.5547 26.7258 23.4074 29.4382 23.4074C29.796 23.4074 30.0887 23.1215 30.0887 22.772C30.0822 22.4226 29.796 22.1367 29.4382 22.1367Z" fill="#00DA71"/>
<path d="M55.1263 32.2759L53.0708 30.2683C52.1926 29.4106 50.664 29.4106 49.7859 30.2683L48.3939 31.6278L36.7504 43C36.6984 43.0508 36.6528 43.1207 36.6268 43.1842C36.6203 43.2033 36.6138 43.216 36.6073 43.2351C36.6008 43.2478 36.5943 43.2668 36.5878 43.2795L35.2933 47.9555C35.1632 48.4383 35.2933 48.9339 35.6576 49.2833C35.9243 49.5438 36.2821 49.6899 36.6463 49.6899C36.7699 49.6899 36.8935 49.6708 37.0171 49.6391L41.8046 48.3748C41.8241 48.3684 41.8371 48.3621 41.8501 48.3557C41.8696 48.3494 41.8826 48.343 41.9021 48.3367C41.9737 48.3049 42.0387 48.2668 42.0908 48.216L55.1263 35.4842C56.0369 34.6011 56.0369 33.1589 55.1263 32.2759ZM41.6354 46.8691L38.1294 43.4511L48.8557 32.9747L52.3617 36.3991L41.6354 46.8691ZM36.6788 48.4129C36.6658 48.4193 36.6203 48.4256 36.5748 48.3875C36.5292 48.343 36.5422 48.3049 36.5488 48.2858L37.5505 44.6709L40.3865 47.4345L36.6788 48.4129ZM54.2091 34.5884L53.2789 35.4969L49.7729 32.0726L50.703 31.1641C51.0868 30.7892 51.7633 30.7892 52.1536 31.1641L54.2091 33.1717C54.6059 33.5656 54.6059 34.1945 54.2091 34.5884Z" fill="#00DA71"/>
<path d="M24.4819 48.8453C24.1697 48.8008 23.838 48.5467 23.5452 48.318C23.2655 48.102 22.8557 48.1465 22.6346 48.426C22.4134 48.6992 22.459 49.0994 22.7452 49.3154C23.1224 49.6077 23.6428 50.0016 24.2933 50.0969C24.3974 50.1096 24.5014 50.1159 24.599 50.1159C25.2365 50.1159 25.8089 49.8428 26.2577 49.5886C26.4464 49.4806 26.648 49.3599 26.8366 49.2265C27.305 49.4044 27.7733 49.4489 28.1961 49.3536C28.5864 49.271 28.9051 49.0804 29.1848 48.9152C29.3149 48.839 29.4385 48.7627 29.5751 48.6992C30.063 48.4768 30.7265 48.4895 31.3899 48.7373C32.0599 48.9851 32.6779 49.4171 33.2828 49.8428C33.5755 50.0461 33.9788 49.9825 34.1935 49.6966C34.4016 49.4107 34.3366 49.0168 34.0439 48.8072C33.4064 48.3561 32.6779 47.8479 31.8518 47.5493C30.8501 47.1808 29.8483 47.1808 29.0287 47.5493C28.8466 47.6318 28.6775 47.7335 28.5018 47.8352C28.2807 47.9686 28.092 48.0766 27.9099 48.121C27.8709 48.1274 27.8319 48.1338 27.7863 48.1338C28.2482 47.1236 27.8709 45.8212 26.9147 45.2113C26.583 45.0016 26.2447 44.9063 25.913 44.9318C25.2365 44.9826 24.6641 45.5544 24.5795 46.2659C24.521 46.7488 24.6641 47.257 25.0088 47.7653C25.1844 48.0257 25.3926 48.2672 25.6268 48.4768C25.6203 48.4832 25.6137 48.4832 25.6072 48.4895C25.2755 48.6865 24.8397 48.8961 24.4819 48.8453ZM26.017 46.2024C26.0496 46.2024 26.1146 46.2214 26.2122 46.2786C26.635 46.5518 26.8106 47.1808 26.6025 47.6255C26.4138 47.4667 26.2447 47.2761 26.1016 47.0728C25.9845 46.8949 25.8479 46.6408 25.8739 46.412C25.8935 46.2913 25.991 46.2024 26.017 46.2024Z" fill="#00DA71"/>
<path d="M44.0156 48.4011C43.6578 48.4011 43.3651 48.687 43.3651 49.0365V50.0212C43.3651 51.5079 42.1227 52.7213 40.6006 52.7213H18.2634C16.7348 52.7213 15.4924 51.5079 15.4924 50.0212V19.9771C15.4924 18.4841 16.7348 17.2706 18.2634 17.2706H40.5941C42.1162 17.2706 43.3586 18.4841 43.3586 19.9771V33.2107C43.3586 33.5602 43.6513 33.846 44.0091 33.846C44.3668 33.846 44.6595 33.5602 44.6595 33.2107V19.9771C44.6595 17.7852 42.8382 16 40.5941 16H18.2634C16.0192 16 14.1914 17.7852 14.1914 19.9771V50.0276C14.1914 52.2194 16.0192 53.9983 18.2634 53.9983H40.5941C42.8382 53.9983 44.6595 52.2194 44.6595 50.0276V49.0365C44.6661 48.687 44.3733 48.4011 44.0156 48.4011Z" fill="#00DA71"/>
</svg>
