<svg width="70" height="70" viewBox="0 0 70 70" fill="none" xmlns="http://www.w3.org/2000/svg">
<rect width="70" height="70" rx="5.25" fill="#DEFFEE"/>
<path d="M35.5379 54.9985C31.1439 54.9985 26.5869 54.0551 21.8669 52.1681C21.6135 52.0666 21.4473 51.8211 21.4473 51.5481V43.4898C21.4473 41.3734 22.2882 39.3438 23.7849 37.8475C25.2817 36.3512 27.3116 35.511 29.428 35.5117C29.7114 35.5123 29.9639 35.691 30.0588 35.9581L35.0033 49.9524L39.9585 35.9581C40.0534 35.691 40.3059 35.5123 40.5893 35.5117C42.7059 35.5103 44.7363 36.3503 46.2332 37.8467C47.7301 39.3431 48.5708 41.3732 48.5701 43.4898V51.5481C48.5701 51.8064 48.4213 52.0415 48.1879 52.1521C44.2358 54.0313 39.9139 55.0038 35.5379 54.9985ZM22.7729 51.0937C31.5395 54.5014 39.7661 54.5121 47.2337 51.1204V43.4898C47.2361 40.4882 45.2243 37.8583 42.3266 37.0753C41.9118 36.9604 41.4864 36.8879 41.057 36.8588L35.6341 52.1761C35.5404 52.4443 35.2874 52.6239 35.0033 52.6239C34.7193 52.6239 34.4663 52.4443 34.3726 52.1761L28.9496 36.8641C28.5728 36.8903 28.199 36.9493 27.8324 37.0405C24.8572 37.7613 22.7648 40.4286 22.7729 43.4898V51.0937Z" fill="#00DA71"/>
<path d="M35.0034 33.8176C31.2852 33.8132 28.2734 30.7978 28.2734 27.0797V22.4906C28.2764 19.6385 30.5877 17.3272 33.4398 17.3242H36.5669C39.419 17.3272 41.7303 19.6385 41.7333 22.4906V27.0797C41.7333 30.7978 38.7215 33.8132 35.0034 33.8176ZM33.4398 18.6606C31.3258 18.6635 29.6127 20.3766 29.6098 22.4906V27.0797C29.6098 30.0584 32.0246 32.4732 35.0034 32.4732C37.9821 32.4732 40.3969 30.0584 40.3969 27.0797V22.4906C40.394 20.3766 38.6809 18.6635 36.5669 18.6606H33.4398Z" fill="#00DA71"/>
<path d="M36.5189 38.1966H33.488C33.1708 38.1956 32.8976 37.9726 32.8332 37.662L32.2639 34.9893C32.2248 34.7928 32.2755 34.5892 32.4022 34.434C32.529 34.2788 32.7184 34.1884 32.9187 34.1875H37.0882C37.2885 34.1884 37.4779 34.2788 37.6046 34.434C37.7313 34.5892 37.7821 34.7928 37.743 34.9893L37.1737 37.662C37.1092 37.9726 36.8361 38.1956 36.5189 38.1966ZM34.0279 36.8602H35.979L36.2623 35.5239H33.7446L34.0279 36.8602Z" fill="#00DA71"/>
<path d="M35.0035 52.6231C34.72 52.6225 34.4676 52.4438 34.3727 52.1768L31.6439 44.4686C31.6058 44.3597 31.5966 44.2427 31.6171 44.1292L32.8305 37.41C32.8875 37.0914 33.1645 36.8595 33.488 36.8594H36.5189C36.8425 36.8595 37.1194 37.0914 37.1764 37.41L38.3898 44.1292C38.4104 44.2427 38.4012 44.3597 38.3631 44.4686L35.6342 52.1768C35.5394 52.4438 35.2869 52.6225 35.0035 52.6231ZM32.9642 44.1853L35.0035 49.953L37.0428 44.1853L35.9737 38.1904H34.06L32.9642 44.1853Z" fill="#00DA71"/>
<path d="M37.7351 44.2595L37.7324 44.2461L37.7351 44.2595Z" fill="#00DA71"/>
<path d="M37.7304 44.924C37.4141 44.9236 37.1421 44.6997 37.0809 44.3894V44.3761C37.0164 44.0162 37.253 43.6714 37.6119 43.6021C37.9709 43.5328 38.3188 43.7648 38.3929 44.1227C38.467 44.4807 38.2397 44.8318 37.8827 44.9106C37.8327 44.9213 37.7815 44.9258 37.7304 44.924Z" fill="#00DA71"/>
<path d="M32.2751 44.2461L32.2725 44.2595L32.2751 44.2461Z" fill="#00DA71"/>
<path d="M32.2717 44.9279C32.2268 44.9273 32.1821 44.9228 32.138 44.9145C31.7749 44.8407 31.5404 44.4865 31.6142 44.1234C31.688 43.7602 32.0422 43.5257 32.4053 43.5995C32.5783 43.633 32.7308 43.7344 32.8287 43.881C32.9266 44.0276 32.9618 44.2072 32.9265 44.3799V44.3933C32.862 44.7039 32.5888 44.9269 32.2717 44.9279Z" fill="#00DA71"/>
<path d="M35.0042 52.621C34.7256 52.6229 34.4753 52.4512 34.3769 52.1906C34.2785 51.93 34.3528 51.6356 34.5632 51.453L40.7479 46.0033L39.6333 44.0228C39.5394 43.8555 39.522 43.656 39.5854 43.4749C39.6488 43.2939 39.787 43.1488 39.9647 43.0767L44.2705 41.3234L43.5221 37.2341C43.4557 36.871 43.6962 36.5228 44.0594 36.4563C44.4225 36.3899 44.7707 36.6304 44.8371 36.9936L45.6951 41.6147C45.7514 41.9264 45.582 42.2351 45.2888 42.355L41.1808 44.0282L42.1884 45.8189C42.3443 46.0931 42.2863 46.4391 42.0495 46.6474L35.4559 52.4553C35.3316 52.5656 35.1703 52.6248 35.0042 52.621Z" fill="#00DA71"/>
<path d="M34.9151 52.6209C34.752 52.6216 34.5942 52.5627 34.4715 52.4552L27.8805 46.6473C27.6428 46.4397 27.5836 46.0936 27.7389 45.8188L28.7492 44.0281L24.6385 42.3549C24.3456 42.2349 24.1771 41.9258 24.2349 41.6146L25.0795 36.9934C25.1225 36.7586 25.2875 36.5644 25.5124 36.4842C25.7373 36.4039 25.988 36.4498 26.1699 36.6045C26.3519 36.7591 26.4375 36.9991 26.3945 37.234L25.6488 41.3233L29.9572 43.0766C30.1343 43.1498 30.2721 43.2945 30.3368 43.4748C30.3957 43.6522 30.3772 43.8462 30.286 44.0093L29.1715 45.9898L35.3588 51.4395C35.4918 51.5568 35.5727 51.7221 35.5837 51.8991C35.5947 52.076 35.535 52.2501 35.4176 52.383C35.2933 52.5324 35.1095 52.6194 34.9151 52.6209Z" fill="#00DA71"/>
<path d="M16.4974 31.1726C12.8541 31.1697 9.90139 28.217 9.89844 24.5737V20.0782C9.89844 17.2736 12.172 15 14.9766 15H18.0262C20.8308 15 23.1044 17.2736 23.1044 20.0782V24.5737C23.0999 28.2195 20.1432 31.1727 16.4974 31.1726ZM14.9579 16.3444C12.8914 16.3444 11.2161 18.0196 11.2161 20.0862V24.5737C11.2161 27.4801 13.5722 29.8363 16.4787 29.8363C19.3851 29.8363 21.7413 27.4801 21.7413 24.5737V20.0782C21.7413 18.0116 20.066 16.3364 17.9995 16.3364L14.9579 16.3444Z" fill="#00DA71"/>
<path d="M16.0434 48.7307C12.1261 48.7357 8.25705 47.8655 4.71911 46.1836C4.48567 46.073 4.33686 45.8378 4.33691 45.5796V38.3979C4.33986 34.4324 7.55302 31.2181 11.5185 31.2137C11.6722 31.2143 11.821 31.2671 11.9408 31.3633C12.6736 31.978 13.5098 32.4577 14.4104 32.7799C15.7656 33.2404 17.2394 33.2101 18.5745 32.6944C19.4694 32.359 20.3138 31.9021 21.0842 31.3366C21.1978 31.2547 21.3344 31.2108 21.4744 31.211C24.5981 31.1986 27.3693 33.2127 28.3219 36.1876C28.3784 36.3645 28.359 36.557 28.2683 36.7191C28.1776 36.8811 28.0238 36.9984 27.8435 37.0429C24.8641 37.7595 22.7664 40.4278 22.7734 43.4922V47.3943C22.7732 47.7113 22.5496 47.9841 22.2388 48.0465C20.2039 48.494 18.127 48.7233 16.0434 48.7307ZM5.67328 45.1492C10.5938 47.373 15.8911 47.9449 21.4423 46.8491V43.4922C21.4329 40.097 23.5802 37.0704 26.7878 35.9578C25.8697 33.9452 23.8911 32.6261 21.6802 32.5527C20.8618 33.134 19.9704 33.6049 19.0289 33.9532C17.4064 34.5724 15.6184 34.6045 13.9748 34.0441C13.0075 33.6994 12.1043 33.1963 11.302 32.5554C8.16781 32.6843 5.69239 35.2611 5.68931 38.3979L5.67328 45.1492Z" fill="#00DA71"/>
<path d="M18.0752 36.8328H14.9C14.5947 36.8335 14.328 36.6264 14.2532 36.3304L13.5476 33.5774C13.4844 33.3385 13.5583 33.0842 13.7396 32.9163C13.921 32.7483 14.1802 32.6943 14.4136 32.7756C15.7677 33.2357 17.2403 33.2064 18.575 32.6928C18.8094 32.6073 19.0718 32.6595 19.2556 32.8282C19.4394 32.9968 19.514 33.2538 19.449 33.4946L18.722 36.3357C18.6452 36.6296 18.379 36.8342 18.0752 36.8328ZM15.4185 35.4965H17.5567L17.8668 34.2964C16.9636 34.4884 16.0322 34.5074 15.1219 34.3525L15.4185 35.4965Z" fill="#00DA71"/>
<path d="M16.5218 47.1613C16.3114 47.1617 16.1132 47.0626 15.9873 46.894L13.4989 43.5986C13.3944 43.4603 13.3475 43.2869 13.368 43.1148L14.2313 36.1123C14.2313 36.0855 14.2313 36.0561 14.2313 36.0267C14.2936 35.716 14.5665 35.4924 14.8834 35.4922H18.072C18.4108 35.4911 18.6968 35.7438 18.7375 36.0802L19.6034 43.1175C19.6241 43.2859 19.5802 43.4559 19.4805 43.5932L17.0617 46.8914C16.9344 47.0583 16.7371 47.157 16.5271 47.1586L16.5218 47.1613ZM14.7284 43.0079L16.5138 45.3732L18.2457 43.0132L17.4813 36.8339H15.4928L14.7284 43.0079Z" fill="#00DA71"/>
<path d="M53.5101 31.1726C49.8674 31.1682 46.9156 28.2164 46.9111 24.5737V20.0782C46.9111 17.2736 49.1847 15 51.9893 15H55.0496C57.8542 15 60.1277 17.2736 60.1277 20.0782V24.5737C60.1263 26.3267 59.4281 28.0071 58.1868 29.2449C56.9455 30.4827 55.263 31.1762 53.5101 31.1726ZM51.9813 16.3444C49.9147 16.3444 48.2395 18.0196 48.2395 20.0862V24.5737C48.2395 27.4801 50.5956 29.8363 53.5021 29.8363C56.4085 29.8363 58.7647 27.4801 58.7647 24.5737V20.0782C58.7647 18.0116 57.0894 16.3364 55.0228 16.3364L51.9813 16.3444Z" fill="#00DA71"/>
<path d="M53.9641 48.728C51.8779 48.7221 49.7984 48.4936 47.7607 48.0464C47.45 47.9841 47.2263 47.7112 47.2261 47.3943V43.4894C47.2346 40.429 45.1434 37.762 42.1693 37.0402C41.989 36.9957 41.8352 36.8784 41.7446 36.7163C41.6539 36.5543 41.6345 36.3618 41.6909 36.1849C42.643 33.2157 45.407 31.204 48.5251 31.211C48.6651 31.2107 48.8017 31.2547 48.9153 31.3366C49.6857 31.9021 50.5301 32.3589 51.425 32.6943C52.7591 33.2101 54.2322 33.2404 55.5864 32.7798C56.4877 32.4562 57.3247 31.9757 58.0587 31.3606C58.1785 31.2644 58.3273 31.2116 58.481 31.211C62.4465 31.2154 65.6596 34.4297 65.6626 38.3952V45.5742C65.6626 45.8325 65.5138 46.0677 65.2804 46.1782C61.7447 47.8587 57.8788 48.7297 53.9641 48.728ZM48.5705 46.8571C54.1164 47.9529 59.4138 47.3916 64.3396 45.1572V38.3952C64.3365 35.2584 61.8611 32.6816 58.7269 32.5527C57.9202 33.195 57.0125 33.699 56.0408 34.044C54.3973 34.6009 52.6111 34.5679 50.9893 33.9505C50.0478 33.6022 49.1564 33.1313 48.338 32.55C46.1271 32.6234 44.1485 33.9425 43.2304 35.955C46.4381 37.0677 48.5853 40.0943 48.5759 43.4894L48.5705 46.8571Z" fill="#00DA71"/>
<path d="M55.1082 36.8328H51.933C51.6277 36.8335 51.361 36.6264 51.2862 36.3304L50.5592 33.4946C50.4942 33.2538 50.5688 32.9968 50.7526 32.8282C50.9364 32.6595 51.1989 32.6073 51.4332 32.6928C52.7676 33.2072 54.2402 33.2375 55.5946 32.7783C55.828 32.6969 56.0873 32.751 56.2686 32.9189C56.45 33.0869 56.5238 33.3412 56.4606 33.5801L55.755 36.333C55.6792 36.628 55.4128 36.8339 55.1082 36.8328ZM52.4515 35.4965H54.5897L54.8864 34.3392C53.9761 34.4941 53.0447 34.475 52.1415 34.283L52.4515 35.4965Z" fill="#00DA71"/>
<path d="M53.4859 47.1623C53.276 47.1607 53.0786 47.062 52.9514 46.8951L50.5459 43.5969C50.4462 43.4596 50.4023 43.2896 50.423 43.1212L51.2889 36.0919C51.3167 35.8694 51.4542 35.6757 51.6551 35.5761C51.7475 35.5281 51.8503 35.5033 51.9544 35.5039H55.1296C55.4466 35.5041 55.7194 35.7277 55.7818 36.0385C55.7901 36.0708 55.7946 36.104 55.7951 36.1374L56.6531 43.1185C56.6736 43.2906 56.6266 43.464 56.5221 43.6023L54.0311 46.8977C53.9024 47.0684 53.6996 47.1668 53.4859 47.1623ZM51.762 43.0143L53.4939 45.3743L55.2793 43.0089L54.5149 36.8349H52.5237L51.762 43.0143Z" fill="#00DA71"/>
</svg>
