<svg width="70" height="70" viewBox="0 0 70 70" fill="none" xmlns="http://www.w3.org/2000/svg">
<rect width="70" height="70" rx="5.25" fill="#FFF5DB"/>
<path d="M47.2734 21.4439V21.4452C47.2734 21.5976 47.2734 21.758 47.2734 21.9244L44.4232 21.9231C43.0891 21.9231 42.0052 20.8527 41.9846 19.5239L41.9833 16.6487L42.4665 16.6493L47.2734 21.4439ZM25.5635 21.3674V21.3687C25.5631 21.3648 25.5627 21.3648 25.5623 21.3648C25.1089 21.3648 24.7419 21.7331 24.7418 22.1869C24.7418 22.6421 25.1108 23.0111 25.5659 23.0111L38.3099 23.0113C38.765 23.0113 39.1339 22.6423 39.134 22.1872C39.134 21.7321 38.765 21.3631 38.3099 21.3631L25.5635 21.3674ZM25.5688 25.1405L25.5635 25.1404C25.1095 25.1378 24.7418 25.5063 24.7418 25.9606C24.7418 26.4157 25.1107 26.7847 25.5659 26.7847L44.4341 26.7853C44.8892 26.7853 45.2581 26.4163 45.2582 25.9613C45.2582 25.5061 44.8892 25.1371 44.4341 25.1371L25.5688 25.1405ZM25.5639 28.9114C25.1099 28.9114 24.7418 29.2799 24.7418 29.7342C24.7418 30.1893 25.1107 30.5583 25.5658 30.5583L44.4341 30.5589C44.8892 30.5589 45.2581 30.19 45.2581 29.7349C45.2582 29.2798 44.8892 28.9107 44.4341 28.9107L25.5639 28.9114ZM25.5639 32.6851C25.1099 32.6851 24.7418 33.0535 24.7418 33.5078C24.7418 33.9629 25.1107 34.3319 25.5659 34.3319L44.4341 34.3326C44.8892 34.3326 45.2581 33.9636 45.2582 33.5085C45.2582 33.0534 44.8892 32.6844 44.4341 32.6844L25.5639 32.6851ZM40.3345 19.4856C40.3345 21.7341 42.1547 23.5614 44.4043 23.571L47.2734 23.5723C47.2734 24.0633 47.2733 36.5345 47.2733 36.5345L35.0005 43.6211L22.726 36.5345L22.7273 19.048C22.7478 17.7192 23.8317 16.6488 25.1658 16.6488L40.3246 16.6487L40.3345 19.4856ZM42.2705 43.1968C42.0604 43.1949 41.8508 43.2773 41.6905 43.4376C41.3686 43.7595 41.3686 44.2814 41.6905 44.6033L48.507 51.4198C48.668 51.5808 48.8789 51.6613 49.0899 51.6613C49.3008 51.6613 49.5118 51.5808 49.6728 51.4198C49.9947 51.0979 49.9947 50.5761 49.6728 50.2541L42.8562 43.4376C42.6959 43.2773 42.486 43.1968 42.2759 43.1968H42.2705ZM27.7238 43.1969C27.5137 43.195 27.3041 43.2774 27.1438 43.4377L20.3273 50.2543C20.0054 50.5762 20.0054 51.0981 20.3273 51.42C20.4882 51.581 20.6992 51.6614 20.9101 51.6614C21.1211 51.6614 21.3321 51.5809 21.493 51.4199L28.3096 44.6034C28.6315 44.2815 28.6315 43.7596 28.3096 43.4377C28.1493 43.2774 27.9393 43.1969 27.7292 43.1969H27.7238ZM34.5874 45.2851V45.2864C34.709 45.3558 34.8503 45.3963 35.0011 45.3963C35.1549 45.3963 35.2989 45.3542 35.4221 45.2815L51.5751 35.9546V50.9106C51.5751 52.2447 50.5046 53.3286 49.1758 53.3505C49.1747 53.3505 20.8241 53.3505 20.8241 53.3505C19.4953 53.3287 18.4248 52.2447 18.4248 50.9113V35.9551L34.5874 45.2851ZM25.1506 15.0022H25.1469C22.8973 15.0105 21.0771 16.8372 21.0771 19.0889L21.0775 35.5834L18.4248 34.0512V29.1617C18.4248 28.369 18.8028 27.6646 19.3883 27.2196C19.6114 27.0708 19.7572 26.8183 19.7572 26.5308C19.7572 26.0755 19.3866 25.7082 18.9314 25.7084C18.9231 25.7084 18.9222 25.7085 18.9222 25.7085C18.7251 25.7085 18.5438 25.7797 18.4032 25.8974L18.4019 25.8985C17.4191 26.6407 16.7824 27.8172 16.7764 29.1428V50.9296C16.7866 53.1791 18.6133 54.9994 20.8651 55L49.1348 55C51.3866 54.9993 53.2133 53.1791 53.2235 50.9295V29.1427C53.2174 27.7967 52.5617 26.6043 51.5535 25.8638C51.4174 25.7638 51.2483 25.7059 51.0669 25.7059C50.6117 25.7059 50.2426 26.0749 50.2426 26.5301C50.2426 26.8233 50.3923 27.0815 50.6229 27.2277L50.6237 27.2282C51.2024 27.6737 51.5751 28.374 51.5751 29.1617V34.0506L48.9228 35.5821L48.9203 21.1502C48.9334 20.9199 48.8531 20.6886 48.6794 20.5153L43.3883 15.2405C43.2274 15.0801 43.0171 15 42.8066 15L25.1506 15.0022Z" fill="#FF9900"/>
</svg>
