<svg width="70" height="70" viewBox="0 0 70 70" fill="none" xmlns="http://www.w3.org/2000/svg">
<rect x="0.000488281" width="70" height="70" rx="5.25" fill="#DEFFEE"/>
<path d="M49.4929 23.4538H45.4493V18.963C45.4493 18.8741 45.4291 18.7864 45.3902 18.7064C45.3513 18.6265 45.2948 18.5564 45.2249 18.5015L40.932 15.1266C40.8286 15.0451 40.7009 15.0006 40.5692 15H28.2355C27.9158 15.0004 27.6093 15.1277 27.3833 15.354C27.1574 15.5802 27.0304 15.8868 27.0303 16.2065V17.6362H25.7571C25.4373 17.6367 25.1307 17.764 24.9047 17.9903C24.6787 18.2166 24.5518 18.5234 24.5518 18.8432V23.4538H20.5091C19.8684 23.4543 19.254 23.709 18.8009 24.1619C18.3477 24.6149 18.0927 25.2291 18.0918 25.8698V45.2908C18.0926 45.9316 18.3475 46.546 18.8007 46.9992C19.2538 47.4523 19.8682 47.7073 20.5091 47.7081H29.8504L28.1419 50.7113H26.3232C25.7547 50.7119 25.2096 50.938 24.8076 51.34C24.4055 51.742 24.1794 52.2871 24.1789 52.8557V54.4132C24.1789 54.5688 24.2407 54.7181 24.3508 54.8281C24.4608 54.9382 24.6101 55 24.7657 55H45.235C45.3907 55 45.54 54.9382 45.6501 54.8282C45.7602 54.7181 45.8222 54.5689 45.8223 54.4132V52.8557C45.8217 52.2871 45.5956 51.742 45.1936 51.34C44.7916 50.938 44.2465 50.7119 43.6779 50.7113H41.8593L40.1507 47.7081H49.4929C50.1337 47.7072 50.7479 47.4522 51.2009 46.999C51.6539 46.5459 51.9087 45.9315 51.9094 45.2908V25.8698C51.9086 25.2292 51.6537 24.615 51.2007 24.1621C50.7477 23.7092 50.1335 23.4544 49.4929 23.4538ZM41.1564 16.7967L43.1789 18.3867H41.1564V16.7967ZM28.2052 16.2061C28.2058 16.198 28.2092 16.1904 28.215 16.1847C28.2207 16.179 28.2283 16.1755 28.2364 16.1749H39.9824V18.974C39.9825 19.1295 40.0444 19.2787 40.1544 19.3886C40.2644 19.4986 40.4136 19.5604 40.5692 19.5604H44.2749V36.4147C44.2743 36.4227 44.2708 36.4302 44.2652 36.4359C44.2595 36.4415 44.252 36.4449 44.2441 36.4455H28.2355C28.2275 36.445 28.2199 36.4416 28.2142 36.436C28.2084 36.4303 28.2049 36.4228 28.2043 36.4147L28.2052 16.2061ZM25.7263 18.8432C25.7268 18.8352 25.7302 18.8276 25.7359 18.822C25.7415 18.8163 25.7491 18.8129 25.7571 18.8124H27.0303V36.4147C27.0307 36.7342 27.1579 37.0405 27.3838 37.2663C27.6098 37.4922 27.9161 37.6192 28.2355 37.6196H41.7977V39.0505C41.797 39.0587 41.7933 39.0663 41.7874 39.072C41.7815 39.0776 41.7738 39.081 41.7656 39.0813H25.7571C25.7491 39.0808 25.7415 39.0774 25.7359 39.0718C25.7302 39.0661 25.7268 39.0585 25.7263 39.0505V18.8432ZM20.5091 24.6278H24.5518V39.0505C24.5523 39.3701 24.6794 39.6764 24.9053 39.9023C25.1313 40.1282 25.4376 40.2554 25.7571 40.2558H41.7656C42.0856 40.2561 42.3927 40.1294 42.6193 39.9033C42.8459 39.6773 42.9734 39.3706 42.9738 39.0505V37.6204H44.2462C44.5657 37.6201 44.872 37.493 45.0979 37.2672C45.3239 37.0413 45.451 36.7351 45.4515 36.4156V24.6278H49.495C49.8242 24.6284 50.1397 24.7594 50.3723 24.9922C50.605 25.2251 50.7358 25.5406 50.7362 25.8698V42.0631H19.265V25.8698C19.2655 25.5402 19.3967 25.2242 19.63 24.9913C19.8633 24.7584 20.1795 24.6277 20.5091 24.6278ZM43.6779 51.8854C43.9353 51.8854 44.1821 51.9876 44.364 52.1696C44.546 52.3515 44.6482 52.5983 44.6482 52.8557V53.826H25.3529V52.8557C25.3529 52.5983 25.4552 52.3515 25.6371 52.1696C25.8191 51.9876 26.0659 51.8854 26.3232 51.8854H43.6779ZM40.508 50.7113H29.4935L31.2017 47.7081H38.7995L40.508 50.7113ZM49.4938 46.5349H20.5116C20.348 46.5352 20.186 46.5033 20.0347 46.4409C19.8835 46.3785 19.7461 46.2869 19.6303 46.1714C19.5145 46.0558 19.4226 45.9186 19.3599 45.7674C19.2973 45.6163 19.265 45.4544 19.265 45.2908V43.2371H50.7362V45.2908C50.7359 45.6204 50.6049 45.9364 50.3717 46.1695C50.1386 46.4025 49.8225 46.5335 49.4929 46.5336L49.4938 46.5349ZM30.1069 33.2166C30.1071 33.0609 30.169 32.9116 30.2791 32.8016C30.3892 32.6916 30.5385 32.6298 30.6942 32.6298H41.7892C41.8676 32.6276 41.9457 32.6413 42.0187 32.6698C42.0918 32.6984 42.1584 32.7413 42.2146 32.796C42.2708 32.8507 42.3155 32.9162 42.346 32.9884C42.3765 33.0607 42.3922 33.1383 42.3922 33.2168C42.3922 33.2952 42.3765 33.3729 42.346 33.4451C42.3155 33.5174 42.2708 33.5828 42.2146 33.6375C42.1584 33.6923 42.0918 33.7352 42.0187 33.7637C41.9457 33.7923 41.8676 33.8059 41.7892 33.8038H30.6942C30.6171 33.8038 30.5407 33.7886 30.4695 33.7591C30.3982 33.7296 30.3335 33.6863 30.2789 33.6318C30.2244 33.5773 30.1812 33.5125 30.1516 33.4413C30.1221 33.37 30.1069 33.2937 30.1069 33.2166ZM30.1069 30.3677C30.1069 30.2906 30.1221 30.2142 30.1516 30.143C30.1812 30.0717 30.2244 30.007 30.2789 29.9525C30.3335 29.8979 30.3982 29.8547 30.4695 29.8252C30.5407 29.7957 30.6171 29.7805 30.6942 29.7805H41.7892C41.945 29.7805 42.0943 29.8423 42.2045 29.9525C42.3146 30.0626 42.3765 30.212 42.3765 30.3677C42.3765 30.5235 42.3146 30.6728 42.2045 30.7829C42.0943 30.8931 41.945 30.9549 41.7892 30.9549H30.6942C30.6171 30.9549 30.5407 30.9398 30.4695 30.9102C30.3982 30.8807 30.3335 30.8375 30.2789 30.7829C30.2244 30.7284 30.1812 30.6637 30.1516 30.5924C30.1221 30.5212 30.1069 30.4448 30.1069 30.3677ZM30.1069 27.5193C30.1071 27.3636 30.169 27.2143 30.2791 27.1043C30.3892 26.9943 30.5385 26.9325 30.6942 26.9325H41.7892C41.8676 26.9304 41.9457 26.944 42.0187 26.9725C42.0918 27.0011 42.1584 27.044 42.2146 27.0987C42.2708 27.1534 42.3155 27.2189 42.346 27.2911C42.3765 27.3634 42.3922 27.441 42.3922 27.5195C42.3922 27.5979 42.3765 27.6756 42.346 27.7478C42.3155 27.8201 42.2708 27.8855 42.2146 27.9403C42.1584 27.995 42.0918 28.0379 42.0187 28.0664C41.9457 28.095 41.8676 28.1086 41.7892 28.1065H30.6942C30.6171 28.1065 30.5407 28.0913 30.4695 28.0618C30.3982 28.0323 30.3335 27.989 30.2789 27.9345C30.2244 27.88 30.1812 27.8152 30.1516 27.744C30.1221 27.6728 30.1069 27.5964 30.1069 27.5193ZM31.0051 25.2176H41.4758C41.6315 25.2176 41.7809 25.1557 41.891 25.0456C42.0012 24.9355 42.063 24.7861 42.063 24.6303V20.7019C42.0629 20.5463 42.001 20.397 41.8909 20.287C41.7808 20.1769 41.6315 20.1151 41.4758 20.1151H31.0038C30.8482 20.1151 30.6989 20.1769 30.5887 20.287C30.4786 20.397 30.4167 20.5463 30.4166 20.7019V24.6303C30.4166 24.7861 30.4785 24.9355 30.5886 25.0456C30.6987 25.1557 30.8481 25.2176 31.0038 25.2176H31.0051ZM31.5906 21.29H40.889V24.0439H31.5906V21.29Z" fill="#00DA71"/>
</svg>
