<svg width="70" height="70" viewBox="0 0 70 70" fill="none" xmlns="http://www.w3.org/2000/svg">
<rect width="70" height="70" rx="5.25" fill="#DEFFEE"/>
<path d="M42.5276 24.1582H27.3135C26.7222 24.1582 26.1477 24.3661 25.6951 24.7441L20.198 29.3298C19.622 29.8125 19.2922 30.5198 19.2922 31.269V43.3142C19.2922 44.7079 20.4253 45.8407 21.8184 45.8407H42.5276C43.9207 45.8407 45.0537 44.7079 45.0537 43.3142V40.1166L47.5388 41.9972C48.1405 42.4534 48.9347 42.5245 49.6117 42.1897C50.288 41.8535 50.7078 41.1741 50.7078 40.4194V29.5795C50.7078 28.8248 50.288 28.1454 49.6117 27.8091C48.9347 27.4729 48.1405 27.5455 47.5388 28.0017L45.0537 29.8823V26.6847C45.0537 25.291 43.9207 24.1582 42.5276 24.1582ZM47.8518 31.3471V38.6518L44.4869 36.1057C44.0553 35.7793 43.4752 35.7263 42.9899 35.9662C42.5046 36.2076 42.1978 36.7028 42.1978 37.2455V42.9835H22.1482V31.4224L27.4313 27.0153H42.1978V32.7533C42.1978 33.296 42.5046 33.7913 42.9899 34.0326C43.4738 34.274 44.0539 34.2196 44.4869 33.8931L47.8518 31.3471Z" fill="#00DA71"/>
<path d="M53.5637 15H47.5122C46.7236 15 46.0842 15.639 46.0842 16.4286C46.0842 17.2182 46.7236 17.8571 47.5122 17.8571H52.1357V22.454C52.1357 23.2436 52.7751 23.8825 53.5637 23.8825C54.3523 23.8825 54.9917 23.2436 54.9917 22.454V16.4286C54.9917 15.639 54.3523 15 53.5637 15Z" fill="#00DA71"/>
<path d="M22.4299 15H16.4363C15.6477 15 15.0083 15.639 15.0083 16.4286V22.454C15.0083 23.2436 15.6477 23.8825 16.4363 23.8825C17.2249 23.8825 17.8643 23.2436 17.8643 22.454V17.8571H22.4299C23.2185 17.8571 23.8579 17.2182 23.8579 16.4286C23.8579 15.639 23.2185 15 22.4299 15Z" fill="#00DA71"/>
<path d="M53.5637 46.1172C52.7751 46.1172 52.1357 46.7561 52.1357 47.5458V52.1426H47.5122C46.7236 52.1426 46.0842 52.7815 46.0842 53.5711C46.0842 54.3608 46.7236 54.9997 47.5122 54.9997H53.5637C54.3523 54.9997 54.9917 54.3608 54.9917 53.5711V47.5458C54.9917 46.7561 54.3523 46.1172 53.5637 46.1172Z" fill="#00DA71"/>
<path d="M16.4363 46.1172C15.6477 46.1172 15.0083 46.7561 15.0083 47.5458V53.5711C15.0083 54.3608 15.6477 54.9997 16.4363 54.9997H22.4299C23.2185 54.9997 23.8579 54.3608 23.8579 53.5711C23.8579 52.7815 23.2185 52.1426 22.4299 52.1426H17.8643V47.5458C17.8643 46.7561 17.2249 46.1172 16.4363 46.1172Z" fill="#00DA71"/>
</svg>
