<svg width="70" height="70" viewBox="0 0 70 70" fill="none" xmlns="http://www.w3.org/2000/svg">
<rect width="70" height="70" rx="5.25" fill="#DFEEFF"/>
<path d="M57.9179 51.6379C57.6477 52.1592 57.4516 52.7404 57.0905 53.1923C56.5106 53.9098 55.664 54.1166 54.7589 54.113C53.2379 54.1047 51.7158 54.113 50.1949 54.113C38.6196 54.113 27.0436 54.113 15.4668 54.113C15.0795 54.1255 14.692 54.0938 14.3118 54.0186C13.6734 53.8712 13.1047 53.5099 12.7001 52.9946C12.2955 52.4793 12.0795 51.841 12.0878 51.186C12.077 49.769 12.0878 48.3509 12.0878 46.934C12.0878 37.653 12.0878 28.3727 12.0878 19.0933C12.0878 17.0713 13.2608 15.8888 15.2708 15.8864C16.9113 15.8864 18.5522 15.8864 20.1935 15.8864C20.3422 15.8809 20.4911 15.8893 20.6383 15.9115C20.7811 15.9299 20.9123 15.9998 21.0072 16.1081C21.1022 16.2165 21.1542 16.3558 21.1536 16.4998C21.1775 16.837 21.0257 17.0869 20.6945 17.1778C20.5054 17.2194 20.3116 17.2359 20.1181 17.2268C18.4776 17.2268 16.8371 17.2268 15.1954 17.2268C14.0368 17.2268 13.4318 17.8366 13.4306 18.994C13.4306 20.723 13.4306 22.4532 13.4306 24.2157H56.5273C56.5475 24.1823 56.5613 24.1453 56.568 24.1069C56.568 22.3133 56.5847 20.5269 56.568 18.7369C56.5596 17.9059 55.9223 17.2866 55.0889 17.2316C54.9107 17.2208 54.7302 17.2316 54.552 17.2316H24.1202C23.9114 17.239 23.7024 17.2266 23.496 17.1945C23.1373 17.1227 22.9663 16.8728 22.9842 16.5141C22.9819 16.3625 23.0373 16.2156 23.1392 16.1033C23.2411 15.9909 23.3819 15.9215 23.5331 15.9091C23.6961 15.8901 23.8604 15.8837 24.0245 15.89C34.2422 15.89 44.4603 15.89 54.6787 15.89C56.4101 15.89 57.3093 16.5392 57.8581 18.1941C57.8665 18.2192 57.8976 18.2359 57.9179 18.2563V30.419C57.8223 30.5075 57.7386 30.645 57.6274 30.6725C57.4097 30.7275 57.1036 30.8171 56.9661 30.7155C56.8613 30.6317 56.7743 30.5278 56.71 30.41C56.6458 30.2921 56.6056 30.1627 56.5919 30.0292C56.5572 28.7318 56.5751 27.4333 56.5751 26.1348V25.6158H13.427V26.0941C13.427 34.3756 13.427 42.6566 13.427 50.9372C13.427 52.1497 14.0248 52.7631 15.2325 52.7643C28.406 52.7643 41.579 52.7643 54.7517 52.7643C55.9868 52.7643 56.5739 52.1557 56.5739 50.9085V33.5374C56.5739 32.869 56.9207 32.5007 57.4265 32.6645C57.6082 32.7243 57.7541 32.8953 57.9167 33.0148L57.9179 51.6379Z" fill="#2639ED"/>
<path d="M51.4896 42.2969C51.6402 42.4918 51.706 42.5815 51.7778 42.6676C52.7343 43.7987 53.0787 45.0901 52.8085 46.5452C52.7283 46.9781 52.5538 47.3464 52.091 47.4791C51.6462 47.607 51.315 47.4061 51.0149 47.0976C50.7363 46.8071 50.4529 46.5189 50.1576 46.2451C49.8096 45.9223 49.3804 45.9223 49.0814 46.226C48.7825 46.5297 48.7873 46.9661 49.1042 47.3093C49.3983 47.6273 49.7176 47.9203 50.0177 48.2312C50.6562 48.8936 50.4218 49.721 49.5262 49.9219C48.0627 50.2507 46.751 49.9135 45.5876 48.9749C45.4848 48.8924 45.3867 48.8039 45.2289 48.6652C45.1921 48.7982 45.1649 48.9337 45.1476 49.0706C45.1356 49.3826 45.1536 49.6971 45.1332 50.0092C45.1156 50.3935 44.9534 50.7571 44.6791 51.0269C44.4049 51.2967 44.0387 51.453 43.6541 51.4644C42.7299 51.4895 41.8044 51.4883 40.8801 51.4644C40.0515 51.4452 39.3257 50.7983 39.401 49.9865C39.4895 49 39.1487 48.4906 38.2053 48.2336C37.8227 48.1295 37.5716 48.0865 37.3193 48.4177C37.1845 48.5785 37.0352 48.7266 36.8733 48.8601C36.1894 49.4855 35.2926 49.4914 34.6206 48.8505C34.0036 48.2623 33.4058 47.6644 32.8175 47.0498C32.1395 46.3467 32.1001 45.3758 32.8378 44.7493C33.4883 44.1945 33.6019 43.7054 33.2061 42.939C32.967 42.4774 32.7744 42.2108 32.2364 42.2909C32.0137 42.3148 31.7887 42.3076 31.568 42.2694C31.1863 42.2276 30.8334 42.0466 30.5768 41.7609C30.3203 41.4752 30.178 41.1049 30.1774 40.721C30.1622 39.8441 30.1622 38.9637 30.1774 38.0796C30.1941 37.1757 30.8709 36.5252 31.7844 36.5061C32.1634 36.4989 32.5425 36.5061 33.0387 36.5061C32.8414 36.267 32.7398 36.1474 32.6405 36.0183C32.2013 35.4971 31.8889 34.8812 31.7277 34.219C31.5665 33.5568 31.5609 32.8663 31.7115 32.2016C31.7916 31.8022 31.9602 31.4555 32.3834 31.3287C32.8067 31.202 33.1666 31.3454 33.468 31.6707C33.731 31.9553 34.0084 32.2279 34.2906 32.4933C34.6649 32.8461 35.1431 32.8628 35.4444 32.5471C35.7458 32.2315 35.7099 31.7998 35.3584 31.4339C35.0786 31.1434 34.7856 30.8672 34.5058 30.5778C33.8578 29.9082 34.0706 29.0999 34.9686 28.8847C36.4297 28.5343 37.7414 28.8691 38.9144 29.8018C39.0458 29.9203 39.2036 30.0056 39.3747 30.0505V29.1908C39.3747 27.8935 39.9666 27.3052 41.2615 27.304C41.9921 27.304 42.7227 27.2968 43.4533 27.304C44.4852 27.3159 45.1847 27.958 45.1273 28.978C45.0854 29.7683 45.2648 30.2191 46.097 30.4642C46.9292 30.7093 46.7104 30.8433 47.3728 30.1856C48.3521 29.2147 49.1663 29.2123 50.1361 30.1856C50.6311 30.6806 51.1297 31.1745 51.6223 31.6731C52.3828 32.4443 52.4151 33.3769 51.6223 34.1075C51.0878 34.5966 50.875 34.9864 51.2636 35.7205C51.7347 36.6137 51.4286 36.4929 52.5789 36.5061C53.5593 36.5157 54.2529 37.0609 54.3342 37.929C54.3519 38.1968 54.3559 38.4654 54.3461 38.7337C54.3461 39.3447 54.3461 39.9569 54.3461 40.5691C54.339 41.6189 53.704 42.2694 52.6542 42.2981C52.2979 42.3053 51.9463 42.2969 51.4896 42.2969ZM36.1248 30.1007C36.4034 30.6364 36.7753 31.1517 36.9403 31.7257C37.0305 32.0383 37.0269 32.3705 36.93 32.681C36.833 32.9916 36.647 33.2668 36.395 33.4726C36.0476 33.7659 35.6346 33.971 35.191 34.0705C34.2894 34.2558 33.5923 33.7907 32.9478 33.035C32.961 33.31 32.9562 33.4547 32.9777 33.5946C33.2742 35.4754 35.0415 36.6364 36.8793 36.1307C37.3265 36.0111 37.6505 36.078 37.9554 36.414C38.3141 36.8086 38.7111 37.1769 39.0901 37.5571C39.5756 38.0426 40.0694 38.5197 40.5393 39.0183C40.6016 39.0782 40.6512 39.15 40.685 39.2296C40.7188 39.3091 40.7363 39.3946 40.7363 39.481C40.7363 39.5674 40.7188 39.653 40.685 39.7325C40.6512 39.812 40.6016 39.8838 40.5393 39.9437C40.2858 40.2056 39.9188 40.2235 39.6127 39.9689C39.4454 39.8208 39.2857 39.6644 39.1344 39.5001C38.625 38.9836 38.1168 38.4659 37.58 37.9242C36.969 39.6532 37.5907 41.8055 39.0363 43.0633C40.3181 44.1873 42.468 44.6476 43.6996 44.0056C43.0898 43.4197 42.4943 42.8577 41.906 42.2825C41.5473 41.9238 41.5091 41.5113 41.7984 41.2232C42.0878 40.935 42.4883 40.9709 42.8578 41.3427C43.6482 42.1331 44.4254 42.939 45.2229 43.7234C45.5242 44.0199 45.5912 44.3212 45.4764 44.729C45.3571 45.1459 45.3262 45.5832 45.3854 46.0128C45.4447 46.4425 45.593 46.855 45.8208 47.2241C46.0485 47.5932 46.3508 47.9107 46.7082 48.1564C47.0656 48.4021 47.4703 48.5705 47.8965 48.6509C48.1079 48.6769 48.3208 48.6885 48.5338 48.6855C47.3955 47.4121 47.2185 46.4029 47.9455 45.4763C48.1529 45.2004 48.4266 44.9813 48.7411 44.8392C49.0556 44.697 49.4009 44.6365 49.7451 44.6632C50.4912 44.6967 51.0113 45.157 51.529 45.7262C51.5876 43.6086 49.6159 42.09 47.6442 42.658C47.1432 42.8027 46.8072 42.7046 46.4485 42.3435C44.0762 39.9521 41.6928 37.5683 39.2982 35.192C38.9395 34.8333 38.8402 34.5045 38.9813 33.9963C39.5493 32.0115 38.0905 30.1139 36.1248 30.0995V30.1007ZM48.3317 41.1012C48.9392 41.2387 49.5083 41.3403 50.0595 41.5065C50.1622 41.5495 50.275 41.5622 50.3847 41.5434C50.4944 41.5246 50.5964 41.4748 50.6789 41.4001C50.9804 41.1946 51.3198 41.0511 51.6773 40.978C51.9607 40.9111 52.2752 40.9565 52.5693 40.9601C52.8635 40.9637 53.0069 40.8465 52.9974 40.532C52.983 40.0406 52.9974 39.548 52.9974 39.0565C52.9974 37.8776 52.9974 37.8776 51.8411 37.8525H51.7514C51.046 37.8094 50.5402 37.4782 50.2652 36.8194C50.093 36.4069 49.9304 35.9908 49.7534 35.5806C49.4605 34.9003 49.5956 34.3 50.0858 33.7679C50.2783 33.5599 50.4804 33.3602 50.6837 33.1701C50.887 32.98 50.8714 32.8245 50.6837 32.6404C50.3094 32.2817 49.9435 31.9038 49.5753 31.5344C48.7694 30.7285 48.7694 30.7285 47.9348 31.5272C47.924 31.538 47.9144 31.5487 47.9037 31.5583C47.3608 32.076 46.745 32.192 46.0515 31.8991C45.6677 31.7364 45.2851 31.5726 44.8965 31.4208C44.1922 31.1458 43.8407 30.6256 43.8036 29.8831C43.7905 29.6153 43.7905 29.3462 43.8036 29.0784C43.8168 28.7711 43.684 28.6491 43.3779 28.6539C42.6773 28.6623 41.9766 28.6754 41.2759 28.6539C40.8562 28.6384 40.678 28.7735 40.7055 29.2099C40.7582 29.9835 40.7307 30.7464 40.0862 31.1792C40.2524 31.9529 40.3994 32.6308 40.5489 33.3219C40.6505 33.2927 40.7546 33.2727 40.8598 33.2622C41.7327 33.2394 42.6079 33.1761 43.4772 33.2239C44.0356 33.255 44.2974 33.9126 43.9256 34.2725C43.7135 34.4424 43.4441 34.5238 43.1735 34.4997C42.3604 34.4208 41.5676 34.4088 40.8466 34.6683L47.0021 40.8214C47.0364 40.7282 47.0656 40.6332 47.0894 40.5368C47.4637 38.7947 47.0655 37.2594 45.8471 35.9489C45.4286 35.4993 45.3807 35.1334 45.7084 34.8249C46.036 34.5165 46.4413 34.5655 46.8192 35.0342C47.2627 35.5538 47.6499 36.1189 47.9742 36.7201C48.6713 38.1083 48.7263 39.5958 48.3317 41.0964V41.1012ZM43.928 45.444C41.631 45.9641 39.5433 45.4775 37.8394 43.7616C36.1356 42.0458 35.7075 39.9449 36.2037 37.6635C35.68 37.5703 35.1957 37.544 34.7509 37.3921C34.3061 37.2403 33.9905 37.1793 33.6162 37.5583C33.4249 37.752 33.0483 37.7843 32.7469 37.8369C32.4951 37.8704 32.2401 37.8728 31.9877 37.8441C31.6445 37.8202 31.4974 37.9469 31.5094 38.3044C31.5297 38.8258 31.5094 39.3495 31.5094 39.8708C31.5225 41.051 31.3324 40.9469 32.5748 40.9553C33.5086 40.9613 33.9701 41.2841 34.3037 42.151C34.3388 42.2649 34.3832 42.3756 34.4365 42.4822C35.1694 43.6995 35.002 44.7433 33.8506 45.6078C33.5983 45.7967 33.6377 45.9928 33.8506 46.2056C34.2093 46.544 34.5489 46.8992 34.8968 47.2471C35.7254 48.0757 35.7338 48.0841 36.5708 47.2758C37.14 46.7306 37.7773 46.6062 38.4995 46.9291C38.6417 47.0102 38.791 47.0782 38.9455 47.1323C40.3026 47.4611 40.8777 48.3173 40.7055 49.6947C40.6601 50.0594 40.8514 50.1539 41.1838 50.1467C41.8702 50.1299 42.5577 50.1192 43.2416 50.1467C43.6781 50.167 43.8263 50.0104 43.7988 49.5835C43.7498 48.823 43.7725 48.0745 44.4086 47.6441C44.24 46.8657 44.0858 46.1746 43.928 45.444Z" fill="#2639ED"/>
<path d="M21.9133 34.7022C23.6434 34.7022 25.3724 34.6903 27.1014 34.7142C27.3609 34.723 27.6081 34.8268 27.7961 35.0059C28.0998 35.3347 27.8918 35.868 27.4446 35.9972C27.2705 36.0364 27.0919 36.0517 26.9137 36.0426C23.5601 36.0426 20.2058 36.0426 16.8506 36.0426C16.7622 36.0426 16.6725 36.0426 16.5828 36.0426C16.132 36.0151 15.8463 35.7508 15.8486 35.3634C15.851 34.976 16.1368 34.707 16.5912 34.7046C18.3656 34.6986 20.14 34.7022 21.9133 34.7022Z" fill="#2639ED"/>
<path d="M21.8827 40.0723C23.6129 40.0723 25.3419 40.0723 27.0708 40.0723C27.3853 40.0723 27.6687 40.1153 27.8385 40.4178C27.8882 40.5016 27.9181 40.5957 27.9261 40.6928C27.9341 40.7899 27.9198 40.8875 27.8844 40.9783C27.8491 41.0691 27.7935 41.1507 27.7219 41.2168C27.6504 41.2829 27.5647 41.3319 27.4714 41.36C27.299 41.4049 27.1208 41.4234 26.9429 41.415C23.5742 41.415 20.2051 41.415 16.8356 41.415C16.7313 41.4204 16.6267 41.4204 16.5223 41.415C16.105 41.3744 15.8372 41.0982 15.848 40.7239C15.8587 40.3497 16.1337 40.0854 16.5654 40.0818C17.9524 40.0723 19.3382 40.0818 20.7252 40.0818L21.8827 40.0723Z" fill="#2639ED"/>
<path d="M24.0801 42.7607C25.0929 42.7607 26.1045 42.7607 27.1172 42.7607C27.6326 42.7607 27.9411 43.0297 27.9291 43.441C27.9171 43.8524 27.6206 44.0975 27.1304 44.0987C25.0905 44.1042 23.0506 44.1042 21.0108 44.0987C20.5157 44.0987 20.2312 43.8392 20.2276 43.4315C20.224 43.0237 20.505 42.7643 20.9976 42.7619C22.0223 42.7535 23.0494 42.7607 24.0801 42.7607Z" fill="#2639ED"/>
<path d="M24.917 37.3863C25.6631 37.3863 26.4092 37.3804 27.1541 37.3863C27.6408 37.3863 27.9373 37.6566 27.9325 38.0571C27.9278 38.4577 27.6288 38.722 27.141 38.7231C25.6639 38.7303 24.1872 38.7303 22.7109 38.7231C22.2099 38.7231 21.9265 38.472 21.9181 38.0643C21.9098 37.6339 22.1932 37.3875 22.7252 37.384C23.4498 37.3804 24.1804 37.3863 24.917 37.3863Z" fill="#2639ED"/>
<path d="M18.1839 38.7289C17.6637 38.7289 17.1436 38.7373 16.6235 38.7289C16.1452 38.7193 15.8463 38.4515 15.8486 38.0509C15.851 37.6504 16.1452 37.3945 16.633 37.3921C17.6876 37.3849 18.7426 37.3849 19.7981 37.3921C20.2608 37.3921 20.5406 37.6492 20.5513 38.0378C20.5621 38.4264 20.2596 38.7193 19.7885 38.7289C19.254 38.7385 18.7183 38.7289 18.1839 38.7289Z" fill="#2639ED"/>
<path d="M17.3724 42.763C17.6546 42.763 17.9392 42.7523 18.2214 42.763C18.61 42.7798 18.8192 43.0129 18.8659 43.38C18.8739 43.4663 18.8643 43.5533 18.8379 43.6358C18.8114 43.7183 18.7684 43.7945 18.7117 43.86C18.6549 43.9255 18.5855 43.9788 18.5076 44.0167C18.4297 44.0546 18.345 44.0764 18.2584 44.0807C17.663 44.1106 17.0664 44.1106 16.4709 44.0807C16.3845 44.0775 16.2996 44.0571 16.2212 44.0206C16.1428 43.9841 16.0726 43.9323 16.0145 43.8682C15.9564 43.8041 15.9118 43.7291 15.8832 43.6475C15.8546 43.5659 15.8426 43.4795 15.8479 43.3932C15.8611 43.0345 16.1289 42.7869 16.5223 42.7559C16.5522 42.7559 16.5821 42.7559 16.612 42.7559H17.3724V42.763Z" fill="#2639ED"/>
<path d="M43.9739 18.8309C46.7037 18.8309 49.4323 18.8226 52.1621 18.8309C53.6077 18.8381 54.5786 20.1139 54.1482 21.4376C53.8911 22.2291 53.3315 22.7014 52.4981 22.8198C52.276 22.8469 52.0523 22.8585 51.8285 22.8545C46.5794 22.8545 41.3298 22.8545 36.0799 22.8545C35.738 22.8652 35.3962 22.8278 35.0648 22.7433C34.6111 22.6039 34.2219 22.3075 33.9669 21.9073C33.712 21.507 33.6079 21.029 33.6734 20.559C33.7389 20.0889 33.9696 19.6576 34.3243 19.3422C34.679 19.0269 35.1343 18.8482 35.6088 18.8381C36.6216 18.8118 37.6415 18.8309 38.6507 18.8309H43.9739ZM43.9488 20.1737H36.0369C35.3266 20.1737 35.0229 20.3662 35.0098 20.8218C34.9966 21.2773 35.335 21.5165 36.0452 21.5165C41.3231 21.5165 46.6009 21.5165 51.8787 21.5165C52.0712 21.5165 52.3188 21.5524 52.4431 21.4519C52.6404 21.2929 52.8795 21.0274 52.8712 20.8158C52.8628 20.6042 52.5997 20.3698 52.3929 20.218C52.2733 20.1295 52.0473 20.1773 51.8692 20.1773C49.2275 20.1733 46.5873 20.1721 43.9488 20.1737Z" fill="#2639ED"/>
<path d="M19.8847 20.872C19.8797 21.3995 19.6656 21.9035 19.2894 22.2733C18.9133 22.6432 18.4058 22.8488 17.8783 22.8449C17.6107 22.8496 17.3449 22.8007 17.0965 22.7011C16.8481 22.6015 16.6221 22.4533 16.4318 22.2651C16.2415 22.0769 16.0908 21.8526 15.9885 21.6053C15.8862 21.358 15.8343 21.0927 15.836 20.8251C15.8377 20.5575 15.8928 20.2929 15.9982 20.0469C16.1036 19.8009 16.2572 19.5785 16.4498 19.3927C16.6424 19.2069 16.8703 19.0615 17.1199 18.965C17.3695 18.8686 17.6359 18.823 17.9034 18.831C18.1683 18.8322 18.4304 18.8862 18.6741 18.99C18.9179 19.0937 19.1385 19.245 19.323 19.4351C19.5075 19.6252 19.6523 19.8502 19.7487 20.097C19.8452 20.3437 19.8914 20.6072 19.8847 20.872ZM17.8723 21.4974C17.9633 21.506 18.0551 21.4957 18.1418 21.467C18.2286 21.4383 18.3085 21.3919 18.3764 21.3308C18.4443 21.2696 18.4987 21.195 18.5363 21.1118C18.5739 21.0285 18.5937 20.9383 18.5947 20.8469C18.5956 20.7555 18.5775 20.665 18.5416 20.581C18.5057 20.4969 18.4527 20.4213 18.3861 20.3588C18.3194 20.2963 18.2405 20.2483 18.1543 20.2179C18.0682 20.1875 17.9766 20.1753 17.8855 20.1821C17.7945 20.1735 17.7028 20.1838 17.616 20.2125C17.5292 20.2412 17.4494 20.2876 17.3815 20.3487C17.3136 20.4099 17.2591 20.4845 17.2215 20.5678C17.184 20.651 17.1641 20.7412 17.1632 20.8326C17.1623 20.924 17.1803 21.0145 17.2162 21.0986C17.2521 21.1826 17.3051 21.2582 17.3718 21.3207C17.4384 21.3832 17.5173 21.4312 17.6035 21.4616C17.6897 21.492 17.7812 21.5042 17.8723 21.4974Z" fill="#2639ED"/>
<path d="M25.2558 20.881C25.2504 21.4083 25.0362 21.912 24.6601 22.2816C24.284 22.6512 23.7767 22.8566 23.2494 22.8528C22.9818 22.8574 22.716 22.8085 22.4676 22.7089C22.2192 22.6093 21.9932 22.4611 21.8029 22.2729C21.6126 22.0847 21.4619 21.8604 21.3596 21.6131C21.2572 21.3658 21.2054 21.1005 21.2071 20.8329C21.2087 20.5653 21.2639 20.3007 21.3693 20.0547C21.4747 19.8087 21.6283 19.5863 21.8209 19.4005C22.0135 19.2147 22.2413 19.0693 22.491 18.9728C22.7406 18.8764 23.007 18.8308 23.2745 18.8388C23.5395 18.84 23.8017 18.8941 24.0455 18.9979C24.2893 19.1017 24.51 19.2531 24.6945 19.4434C24.8791 19.6336 25.0238 19.8587 25.1202 20.1056C25.2165 20.3525 25.2627 20.6161 25.2558 20.881ZM23.9094 20.8583C23.9135 20.7732 23.9004 20.6881 23.8711 20.608C23.8419 20.528 23.7969 20.4545 23.7389 20.3921C23.6809 20.3296 23.611 20.2793 23.5333 20.2442C23.4556 20.2091 23.3717 20.1898 23.2865 20.1875C23.1971 20.1806 23.1072 20.192 23.0224 20.221C22.9376 20.25 22.8596 20.296 22.7931 20.3562C22.7267 20.4164 22.6732 20.4895 22.6361 20.5711C22.5989 20.6527 22.5787 20.741 22.5768 20.8306C22.575 20.9203 22.5914 21.0093 22.6252 21.0924C22.6589 21.1755 22.7092 21.2507 22.7731 21.3137C22.837 21.3766 22.913 21.4258 22.9965 21.4584C23.0801 21.4909 23.1694 21.506 23.259 21.5028C23.3447 21.5039 23.4298 21.4879 23.5092 21.4556C23.5887 21.4233 23.6608 21.3754 23.7214 21.3148C23.7821 21.2542 23.8299 21.182 23.8622 21.1026C23.8945 21.0232 23.9106 20.9381 23.9094 20.8523V20.8583Z" fill="#2639ED"/>
<path d="M30.627 20.8414C30.6285 21.1062 30.5771 21.3687 30.4759 21.6134C30.3747 21.8582 30.2258 22.0803 30.0377 22.2668C29.8497 22.4532 29.6263 22.6004 29.3808 22.6995C29.1352 22.7987 28.8723 22.8478 28.6075 22.8442C28.0837 22.8305 27.586 22.6125 27.2207 22.2369C26.8554 21.8613 26.6514 21.3577 26.6523 20.8337C26.6533 20.3097 26.859 19.8068 27.2257 19.4325C27.5923 19.0582 28.0908 18.842 28.6147 18.8302C28.8796 18.8273 29.1425 18.8774 29.3879 18.9774C29.6332 19.0774 29.8562 19.2255 30.0436 19.4128C30.231 19.6001 30.3792 19.8229 30.4794 20.0682C30.5795 20.3136 30.6297 20.5764 30.627 20.8414ZM29.2807 20.8414C29.284 20.7562 29.2704 20.6712 29.2405 20.5914C29.2106 20.5116 29.1651 20.4386 29.1066 20.3765C29.0482 20.3145 28.978 20.2648 28.9 20.2303C28.8221 20.1957 28.7381 20.177 28.6529 20.1754C28.5646 20.1679 28.4758 20.1783 28.3916 20.2059C28.3074 20.2336 28.2297 20.2779 28.1631 20.3363C28.0964 20.3947 28.0422 20.4659 28.0038 20.5457C27.9653 20.6255 27.9433 20.7122 27.9391 20.8007C27.9349 20.8892 27.9486 20.9776 27.9794 21.0607C28.0102 21.1438 28.0574 21.2198 28.1182 21.2842C28.1791 21.3486 28.2523 21.4001 28.3335 21.4356C28.4147 21.471 28.5022 21.4898 28.5907 21.4906C28.6792 21.4967 28.7679 21.4845 28.8514 21.4548C28.935 21.4251 29.0115 21.3785 29.0762 21.3179C29.1409 21.2573 29.1925 21.1841 29.2276 21.1027C29.2628 21.0213 29.2809 20.9336 29.2807 20.845V20.8414Z" fill="#2639ED"/>
</svg>
