<svg width="70" height="70" viewBox="0 0 70 70" fill="none" xmlns="http://www.w3.org/2000/svg">
<rect x="0.000488281" width="70" height="70" rx="5.25" fill="#DEFFEE"/>
<path d="M43.1823 55H18.5916C16.6116 55 15.0005 53.3889 15.0005 51.4089V18.5911C15.0005 16.6111 16.6116 15 18.5916 15H51.4094C53.3894 15 55.0005 16.6111 55.0005 18.5911V44.12C55.0005 44.3658 54.8018 44.5644 54.556 44.5644C54.3103 44.5644 54.1116 44.3658 54.1116 44.12V18.5911C54.1116 17.1013 52.8992 15.8889 51.4094 15.8889H18.5916C17.1018 15.8889 15.8894 17.1013 15.8894 18.5911V51.4089C15.8894 52.8987 17.1018 54.1111 18.5916 54.1111H43.1823C43.428 54.1111 43.6267 54.3098 43.6267 54.5556C43.6267 54.8013 43.428 55 43.1823 55Z" fill="#00DA71"/>
<path d="M50.1922 54.9987C49.4695 54.9987 48.7469 54.7236 48.1971 54.1738L38.5482 44.5258C37.9602 43.9374 37.5206 43.2054 37.278 42.4103L35.7318 37.3507C35.5913 36.8912 35.7149 36.3947 36.0553 36.0547C36.3953 35.7143 36.894 35.5898 37.3513 35.7312L42.4109 37.2774C43.206 37.5205 43.938 37.9596 44.5264 38.5476L54.1744 48.1961C55.2749 49.2965 55.2749 51.0863 54.1744 52.1867L52.1873 54.1738C51.6375 54.7236 50.9149 54.9987 50.1922 54.9987ZM36.9673 36.5623C36.8233 36.5623 36.7251 36.6423 36.6838 36.6832C36.6318 36.7352 36.5171 36.8792 36.582 37.0912L38.1282 42.1507C38.3291 42.8076 38.6918 43.4112 39.1771 43.8974L48.8255 53.5454C49.5789 54.2987 50.8055 54.2987 51.5589 53.5454L53.546 51.5583C54.2993 50.8049 54.2993 49.5783 53.546 48.8249L43.898 39.1761C43.4118 38.6903 42.8082 38.3281 42.1513 38.1272L37.0918 36.5809C37.0469 36.5676 37.0055 36.5623 36.9673 36.5623Z" fill="#00DA71"/>
<path d="M46.5056 52.2989C46.3918 52.2989 46.278 52.2553 46.1914 52.1687C46.0176 51.9949 46.0176 51.714 46.1914 51.5402L51.5407 46.1909C51.7145 46.0171 51.9954 46.0171 52.1691 46.1909C52.3429 46.3647 52.3429 46.6455 52.1691 46.8193L46.8198 52.1687C46.7327 52.2553 46.6194 52.2989 46.5056 52.2989Z" fill="#00DA71"/>
<path d="M47.3199 24.7776H22.6808C22.4354 24.7776 22.2363 24.5784 22.2363 24.3331C22.2363 24.0878 22.4354 23.8887 22.6808 23.8887H47.3199C47.5657 23.8887 47.7643 24.0878 47.7643 24.3331C47.7643 24.5784 47.5652 24.7776 47.3199 24.7776Z" fill="#00DA71"/>
<path d="M47.3199 31.8889H22.6808C22.4354 31.8889 22.2363 31.6898 22.2363 31.4444C22.2363 31.1991 22.4354 31 22.6808 31H47.3199C47.5657 31 47.7643 31.1991 47.7643 31.4444C47.7643 31.6898 47.5652 31.8889 47.3199 31.8889Z" fill="#00DA71"/>
<path d="M29.5421 39.0002H22.6808C22.4354 39.0002 22.2363 38.8016 22.2363 38.5558C22.2363 38.31 22.4354 38.1113 22.6808 38.1113H29.5421C29.7874 38.1113 29.9866 38.31 29.9866 38.5558C29.9866 38.8016 29.7874 39.0002 29.5421 39.0002Z" fill="#00DA71"/>
<path d="M33.9866 46.1115H22.6808C22.4354 46.1115 22.2363 45.9129 22.2363 45.6671C22.2363 45.4213 22.4354 45.2227 22.6808 45.2227H33.9866C34.2319 45.2227 34.431 45.4213 34.431 45.6671C34.431 45.9129 34.2319 46.1115 33.9866 46.1115Z" fill="#00DA71"/>
</svg>
