<svg width="70" height="70" viewBox="0 0 70 70" fill="none" xmlns="http://www.w3.org/2000/svg">
<rect x="0.000488281" width="70" height="70" rx="5.25" fill="#DEFFEE"/>
<path d="M49.4928 23.4538H45.4492V18.963C45.4492 18.8741 45.429 18.7864 45.3901 18.7064C45.3512 18.6265 45.2947 18.5564 45.2248 18.5015L40.9319 15.1266C40.8284 15.0451 40.7007 15.0006 40.5691 15H28.2354C27.9157 15.0004 27.6092 15.1277 27.3832 15.354C27.1572 15.5802 27.0303 15.8868 27.0302 16.2065V17.6362H25.757C25.4372 17.6367 25.1306 17.764 24.9046 17.9903C24.6786 18.2166 24.5517 18.5234 24.5517 18.8432V23.4538H20.509C19.8682 23.4543 19.2539 23.709 18.8007 24.1619C18.3476 24.6149 18.0926 25.2291 18.0917 25.8698V45.2908C18.0925 45.9316 18.3474 46.546 18.8005 46.9992C19.2537 47.4524 19.8681 47.7073 20.509 47.7081H29.8503L28.1418 50.7113H26.3231C25.7546 50.7119 25.2095 50.938 24.8074 51.34C24.4054 51.742 24.1793 52.2871 24.1788 52.8557V54.4132C24.1788 54.5688 24.2406 54.7181 24.3506 54.8281C24.4607 54.9382 24.61 55 24.7656 55H45.2349C45.3906 55 45.5399 54.9382 45.65 54.8282C45.7601 54.7181 45.822 54.5689 45.8221 54.4132V52.8557C45.8216 52.2871 45.5955 51.742 45.1935 51.34C44.7914 50.938 44.2463 50.7119 43.6778 50.7113H41.8591L40.1506 47.7081H49.4928C50.1335 47.7072 50.7478 47.4522 51.2008 46.999C51.6538 46.5459 51.9086 45.9315 51.9092 45.2908V25.8698C51.9085 25.2292 51.6536 24.615 51.2006 24.1621C50.7476 23.7092 50.1334 23.4544 49.4928 23.4538ZM41.1563 16.7967L43.1787 18.3867H41.1563V16.7967ZM28.2051 16.2061C28.2056 16.198 28.2091 16.1904 28.2148 16.1847C28.2206 16.179 28.2282 16.1755 28.2363 16.1749H39.9823V18.974C39.9824 19.1295 40.0443 19.2787 40.1543 19.3886C40.2643 19.4986 40.4135 19.5604 40.5691 19.5604H44.2747V36.4147C44.2742 36.4227 44.2707 36.4302 44.2651 36.4359C44.2594 36.4415 44.2519 36.4449 44.2439 36.4455H28.2354C28.2274 36.445 28.2198 36.4416 28.214 36.436C28.2083 36.4303 28.2048 36.4228 28.2042 36.4147V16.2065L28.2051 16.2061ZM25.7262 18.8432C25.7267 18.8352 25.7301 18.8276 25.7357 18.822C25.7414 18.8163 25.749 18.8129 25.757 18.8124H27.0302V36.4147C27.0306 36.7342 27.1577 37.0405 27.3837 37.2663C27.6096 37.4922 27.9159 37.6192 28.2354 37.6196H41.7976V39.0505C41.7968 39.0587 41.7932 39.0663 41.7873 39.072C41.7814 39.0776 41.7737 39.081 41.7655 39.0813H25.757C25.749 39.0808 25.7414 39.0774 25.7357 39.0718C25.7301 39.0661 25.7267 39.0585 25.7262 39.0505V18.8432ZM20.509 24.6278H24.5517V39.0505C24.5521 39.3701 24.6793 39.6764 24.9052 39.9023C25.1311 40.1282 25.4374 40.2554 25.757 40.2558H41.7655C42.0855 40.2561 42.3926 40.1294 42.6192 39.9033C42.8457 39.6773 42.9733 39.3706 42.9737 39.0505V37.6204H44.2461C44.5655 37.6201 44.8718 37.493 45.0978 37.2672C45.3237 37.0413 45.4509 36.7351 45.4513 36.4156V24.6278H49.4949C49.824 24.6284 50.1395 24.7594 50.3722 24.9922C50.6049 25.2251 50.7357 25.5406 50.736 25.8698V42.0631H19.2649V25.8698C19.2653 25.5402 19.3966 25.2242 19.6299 24.9913C19.8632 24.7584 20.1793 24.6277 20.509 24.6278ZM43.6778 51.8854C43.9351 51.8854 44.1819 51.9876 44.3639 52.1696C44.5459 52.3515 44.6481 52.5983 44.6481 52.8557V53.826H25.3528V52.8557C25.3528 52.5983 25.455 52.3515 25.637 52.1696C25.819 51.9876 26.0658 51.8854 26.3231 51.8854H43.6778ZM40.5079 50.7113H29.4934L31.2016 47.7081H38.7994L40.5079 50.7113ZM49.4936 46.5349H20.5115C20.3479 46.5352 20.1859 46.5033 20.0346 46.4409C19.8834 46.3785 19.746 46.2869 19.6302 46.1714C19.5144 46.0558 19.4225 45.9186 19.3598 45.7674C19.2971 45.6163 19.2649 45.4544 19.2649 45.2908V43.2371H50.736V45.2908C50.7358 45.6204 50.6047 45.9364 50.3716 46.1695C50.1385 46.4025 49.8224 46.5335 49.4928 46.5336L49.4936 46.5349ZM30.1068 33.2166C30.1069 33.0609 30.1688 32.9116 30.279 32.8016C30.3891 32.6916 30.5384 32.6298 30.6941 32.6298H41.7891C41.8675 32.6276 41.9456 32.6413 42.0186 32.6698C42.0917 32.6984 42.1583 32.7413 42.2145 32.796C42.2707 32.8507 42.3154 32.9162 42.3459 32.9884C42.3764 33.0607 42.3921 33.1383 42.3921 33.2168C42.3921 33.2952 42.3764 33.3729 42.3459 33.4451C42.3154 33.5174 42.2707 33.5828 42.2145 33.6375C42.1583 33.6923 42.0917 33.7352 42.0186 33.7637C41.9456 33.7923 41.8675 33.8059 41.7891 33.8038H30.6941C30.6169 33.8038 30.5406 33.7886 30.4693 33.7591C30.3981 33.7296 30.3333 33.6863 30.2788 33.6318C30.2243 33.5773 30.181 33.5125 30.1515 33.4413C30.122 33.37 30.1068 33.2937 30.1068 33.2166ZM30.1068 30.3677C30.1068 30.2906 30.122 30.2142 30.1515 30.143C30.181 30.0717 30.2243 30.007 30.2788 29.9525C30.3333 29.8979 30.3981 29.8547 30.4693 29.8252C30.5406 29.7957 30.6169 29.7805 30.6941 29.7805H41.7891C41.9449 29.7805 42.0942 29.8423 42.2044 29.9525C42.3145 30.0626 42.3764 30.212 42.3764 30.3677C42.3764 30.5235 42.3145 30.6728 42.2044 30.7829C42.0942 30.8931 41.9449 30.9549 41.7891 30.9549H30.6941C30.6169 30.9549 30.5406 30.9398 30.4693 30.9102C30.3981 30.8807 30.3333 30.8375 30.2788 30.7829C30.2243 30.7284 30.181 30.6637 30.1515 30.5924C30.122 30.5212 30.1068 30.4448 30.1068 30.3677ZM30.1068 27.5193C30.1069 27.3636 30.1688 27.2143 30.279 27.1043C30.3891 26.9943 30.5384 26.9325 30.6941 26.9325H41.7891C41.8675 26.9304 41.9456 26.944 42.0186 26.9725C42.0917 27.0011 42.1583 27.044 42.2145 27.0987C42.2707 27.1534 42.3154 27.2189 42.3459 27.2911C42.3764 27.3634 42.3921 27.441 42.3921 27.5195C42.3921 27.5979 42.3764 27.6756 42.3459 27.7478C42.3154 27.8201 42.2707 27.8855 42.2145 27.9403C42.1583 27.995 42.0917 28.0379 42.0186 28.0664C41.9456 28.095 41.8675 28.1086 41.7891 28.1065H30.6941C30.6169 28.1065 30.5406 28.0913 30.4693 28.0618C30.3981 28.0323 30.3333 27.989 30.2788 27.9345C30.2243 27.88 30.181 27.8152 30.1515 27.744C30.122 27.6728 30.1068 27.5964 30.1068 27.5193ZM31.005 25.2176H41.4757C41.6314 25.2176 41.7808 25.1557 41.8909 25.0456C42.001 24.9355 42.0629 24.7861 42.0629 24.6303V20.7019C42.0628 20.5463 42.0009 20.397 41.8908 20.287C41.7806 20.1769 41.6313 20.1151 41.4757 20.1151H31.0037C30.848 20.1151 30.6987 20.1769 30.5886 20.287C30.4785 20.397 30.4166 20.5463 30.4165 20.7019V24.6303C30.4165 24.7861 30.4783 24.9355 30.5885 25.0456C30.6986 25.1557 30.848 25.2176 31.0037 25.2176H31.005ZM31.5905 21.29H40.8889V24.0439H31.5905V21.29Z" fill="#00DA71"/>
</svg>
