<svg width="70" height="70" viewBox="0 0 70 70" fill="none" xmlns="http://www.w3.org/2000/svg">
<rect x="0.000488281" width="70" height="70" rx="5.25" fill="#DEFFEE"/>
<path d="M31.0563 39.3132C32.1211 39.3085 33.1741 39.0909 34.1526 38.6732C35.131 38.2555 36.0149 37.6462 36.7516 36.8818L37.2407 39.3132C37.2718 39.4685 37.3495 39.6108 37.4635 39.7214C37.5776 39.832 37.7226 39.9057 37.8796 39.9328C38.033 39.9552 38.1896 39.9322 38.3299 39.8666C38.4702 39.801 38.5879 39.6958 38.6684 39.5641L39.8201 37.6504L42.9754 40.7877C43.0485 40.8618 43.1356 40.9207 43.2317 40.9611C43.3279 41.0015 43.4311 41.0225 43.5355 41.023C43.6398 41.0225 43.7431 41.0015 43.8392 40.9611C43.9353 40.9207 44.0225 40.8618 44.0955 40.7877L46.32 38.5759C46.3939 38.503 46.4526 38.4162 46.4927 38.3207C46.5327 38.2251 46.5533 38.1226 46.5533 38.019C46.5533 37.9155 46.5327 37.813 46.4927 37.7174C46.4526 37.6218 46.3939 37.5351 46.32 37.4622L43.1647 34.3249L45.0894 33.1798C45.2219 33.0998 45.3277 32.9827 45.3937 32.8432C45.4596 32.7037 45.4827 32.548 45.4602 32.3955C45.433 32.2394 45.3589 32.0952 45.2477 31.9818C45.1364 31.8684 44.9933 31.7912 44.837 31.7602L38.8578 30.5681C38.6826 29.0639 38.0733 27.6423 37.1034 26.4749C36.1335 25.3075 34.8444 24.4442 33.3919 23.9893C31.9393 23.5344 30.3854 23.5072 28.9176 23.9112C27.4499 24.3151 26.1312 25.1328 25.1206 26.2656C24.1101 27.3984 23.4509 28.7978 23.2227 30.2949C22.9945 31.7921 23.2071 33.3228 23.8347 34.7025C24.4624 36.0821 25.4782 37.2516 26.7597 38.0698C28.0412 38.8879 29.5334 39.3198 31.0563 39.3132ZM41.3583 34.7249L44.7029 38.0504L43.5907 39.1563L40.2461 35.8308C40.1724 35.7581 40.085 35.7006 39.9888 35.6616C39.8927 35.6225 39.7898 35.6028 39.686 35.6033H39.5914C39.4723 35.6167 39.3578 35.6568 39.2567 35.7207C39.1556 35.7845 39.0704 35.8705 39.0076 35.972L38.3845 37.0073L37.3669 31.8386L42.5731 32.8739L41.5319 33.4935C41.4285 33.5549 41.3406 33.639 41.275 33.7394C41.2093 33.8398 41.1677 33.9538 41.1532 34.0727C41.1387 34.1916 41.1518 34.3121 41.1915 34.4252C41.2311 34.5382 41.2963 34.6408 41.382 34.7249H41.3583ZM31.0563 25.1955C32.5097 25.197 33.9181 25.6973 35.0434 26.6119C36.1688 27.5264 36.9421 28.7992 37.2328 30.2151L36.4913 30.0739C36.3648 30.0499 36.2344 30.057 36.1114 30.0946C35.9883 30.1322 35.8764 30.1992 35.7854 30.2897C35.6943 30.3802 35.627 30.4915 35.5892 30.6138C35.5513 30.7362 35.5442 30.8659 35.5684 30.9916L36.3572 34.8661C35.7645 35.7816 34.9424 36.528 33.9717 37.032C33.001 37.5359 31.9152 37.78 30.8208 37.7404C29.7265 37.7007 28.6614 37.3785 27.7303 36.8056C26.7991 36.2327 26.0339 35.4287 25.5098 34.4727C24.9858 33.5167 24.721 32.4415 24.7414 31.3529C24.7618 30.2643 25.0668 29.1998 25.6264 28.2639C26.1859 27.3279 26.9808 26.5529 27.9328 26.0149C28.8848 25.477 29.9613 25.1946 31.0563 25.1955Z" fill="#00DA71"/>
<path d="M59.4539 48.7255H57.8763V17.3529C57.8763 16.7289 57.6269 16.1304 57.1832 15.6892C56.7394 15.2479 56.1374 15 55.5098 15H14.4911C13.8635 15 13.2616 15.2479 12.8178 15.6892C12.374 16.1304 12.1246 16.7289 12.1246 17.3529V48.7255H10.547C10.3378 48.7255 10.1372 48.8081 9.98922 48.9552C9.84129 49.1023 9.75818 49.3018 9.75818 49.5098V51.0784C9.75818 52.1185 10.1737 53.116 10.9134 53.8514C11.2796 54.2155 11.7144 54.5044 12.1929 54.7015C12.6715 54.8986 13.1843 55 13.7023 55H56.2986C57.3447 55 58.3479 54.5868 59.0875 53.8514C59.8272 53.116 60.2427 52.1185 60.2427 51.0784V49.5098C60.2427 49.3018 60.1596 49.1023 60.0117 48.9552C59.8638 48.8081 59.6631 48.7255 59.4539 48.7255ZM13.7023 17.3529C13.7023 17.1449 13.7854 16.9454 13.9333 16.7983C14.0813 16.6513 14.2819 16.5686 14.4911 16.5686H55.5098C55.719 16.5686 55.9197 16.6513 56.0676 16.7983C56.2155 16.9454 56.2986 17.1449 56.2986 17.3529V48.7255H38.9446C38.7997 48.7252 38.6576 48.7646 38.5337 48.8393C38.4099 48.914 38.3091 49.0211 38.2425 49.149L37.6667 50.2941H32.3106L31.7663 49.1726C31.7024 49.0391 31.6018 48.9263 31.4762 48.8472C31.3506 48.7681 31.205 48.7259 31.0564 48.7255H13.7023V17.3529ZM58.6651 51.0784C58.6651 51.7025 58.4158 52.3009 57.972 52.7422C57.5282 53.1835 56.9263 53.4314 56.2986 53.4314H13.7023C13.0747 53.4314 12.4727 53.1835 12.0289 52.7422C11.5851 52.3009 11.3358 51.7025 11.3358 51.0784V50.2941H30.5594L31.1037 51.4157C31.1698 51.5541 31.2753 51.6702 31.4071 51.7496C31.5389 51.8291 31.6912 51.8684 31.8452 51.8627H38.1557C38.3006 51.863 38.4427 51.8237 38.5666 51.749C38.6904 51.6743 38.7912 51.5671 38.8578 51.4392L39.4494 50.2941H58.6651V51.0784Z" fill="#00DA71"/>
<path d="M54.7211 46.374V18.923C54.7211 18.715 54.638 18.5155 54.4901 18.3684C54.3421 18.2213 54.1415 18.1387 53.9323 18.1387H16.0689C15.8596 18.1387 15.659 18.2213 15.5111 18.3684C15.3631 18.5155 15.28 18.715 15.28 18.923V46.374C15.28 46.582 15.3631 46.7815 15.5111 46.9286C15.659 47.0756 15.8596 47.1583 16.0689 47.1583H53.9323C54.1415 47.1583 54.3421 47.0756 54.4901 46.9286C54.638 46.7815 54.7211 46.582 54.7211 46.374ZM53.1435 45.5897H16.8577V19.7073H53.1435V45.5897Z" fill="#00DA71"/>
<path d="M30.1648 33.5186C30.0067 33.3016 29.8989 33.0525 29.8493 32.7892L28.4689 32.9382C28.5353 33.5265 28.7929 34.0772 29.2025 34.5068C29.5996 34.9021 30.1253 35.144 30.6855 35.1892V36.1774H31.4743V35.197C32.0899 35.135 32.6632 34.8569 33.0914 34.4127C33.4789 33.9673 33.6844 33.3936 33.6672 32.8048C33.6892 32.2998 33.5267 31.804 33.2097 31.4088C32.7296 30.9526 32.1268 30.6447 31.4743 30.5225V28.4519C31.6451 28.5242 31.794 28.6398 31.9061 28.787C32.0181 28.9342 32.0896 29.108 32.1132 29.2911L33.4227 29.1186C33.3588 28.6398 33.1368 28.1956 32.7916 27.8558C32.4188 27.5255 31.9482 27.3246 31.4506 27.2833V26.7656H30.6618V27.2833C30.107 27.3227 29.5869 27.5659 29.2025 27.9656C28.8489 28.3618 28.6649 28.8796 28.6897 29.4088C28.6731 29.9337 28.8435 30.4476 29.1709 30.8597C29.5725 31.3079 30.1047 31.6205 30.6933 31.7539V33.9578C30.4853 33.8542 30.3043 33.7038 30.1648 33.5186ZM31.4506 31.9499C31.7154 32.0051 31.9556 32.1425 32.1369 32.3421C32.2797 32.5108 32.3555 32.7256 32.3499 32.946C32.3534 33.199 32.2636 33.4445 32.0975 33.6362C31.931 33.828 31.7021 33.9557 31.4506 33.997V31.9499ZM30.1727 29.9029C30.0644 29.7518 30.0064 29.5708 30.0071 29.3852C30.0042 29.1848 30.068 28.9891 30.1885 28.8284C30.3146 28.6636 30.4878 28.5406 30.6855 28.4754V30.295C30.4806 30.2153 30.3028 30.0793 30.1727 29.9029Z" fill="#00DA71"/>
</svg>
