<svg width="70" height="70" viewBox="0 0 70 70" fill="none" xmlns="http://www.w3.org/2000/svg">
<rect x="0.000488281" width="70" height="70" rx="5.25" fill="#DEFFEE"/>
<path d="M39.4501 49.6189C39.4354 49.6189 39.4209 49.6185 39.4061 49.6174C39.2166 49.6049 39.051 49.5123 38.9428 49.3749H30.4642C30.1454 49.3749 29.8753 49.1453 29.8311 48.8366C29.2401 44.7084 27.5309 42.3394 24.7912 38.816C23.061 36.5909 22.1618 33.9327 22.1908 31.1289C22.2252 27.7991 23.5935 24.675 26.0437 22.332C28.4957 19.9872 31.7214 18.7182 35.1329 18.7588C38.5143 18.799 41.6868 20.117 44.066 22.47C46.4472 24.825 47.7585 27.9459 47.7585 31.2578C47.7585 34.0512 46.8368 36.693 45.0932 38.8977C42.4728 42.2109 40.7084 44.7096 40.0826 49.0805C40.0381 49.391 39.7663 49.6189 39.4501 49.6189ZM31.0128 48.1249H38.9435C39.7083 43.9253 41.5724 41.3061 44.0819 38.1332C45.6508 36.1494 46.4801 33.772 46.4801 31.258C46.4801 25.1297 41.3827 20.0833 35.1173 20.0088C32.0492 19.9702 29.1452 21.1147 26.9376 23.2257C24.7319 25.335 23.5001 28.1462 23.4691 31.1416C23.4431 33.6652 24.2522 36.0574 25.809 38.0595C28.5559 41.5922 30.3129 44.021 31.0128 48.1249Z" fill="#00DA71"/>
<path d="M37.0517 55H32.8968C31.2227 55 29.8606 53.6682 29.8606 52.0313V48.75C29.8606 48.4048 30.1468 48.125 30.4998 48.125H39.4487C39.8017 48.125 40.0879 48.4048 40.0879 48.75V52.0313C40.0879 53.6682 38.7259 55 37.0517 55ZM31.139 49.375V52.0313C31.139 52.979 31.9276 53.75 32.8968 53.75H37.0517C38.021 53.75 38.8095 52.979 38.8095 52.0313V49.375H31.139Z" fill="#00DA71"/>
<path d="M42.0317 51.875H30.5259C30.1729 51.875 29.8867 51.5952 29.8867 51.25C29.8867 50.9048 30.1729 50.625 30.5259 50.625H42.0317C42.3847 50.625 42.6709 50.9048 42.6709 51.25C42.6709 51.5952 42.3847 51.875 42.0317 51.875Z" fill="#00DA71"/>
<path d="M30.5262 51.875H27.9693C27.6163 51.875 27.3301 51.5952 27.3301 51.25C27.3301 50.9048 27.6163 50.625 27.9693 50.625H30.5262C30.8792 50.625 31.1654 50.9048 31.1654 51.25C31.1654 51.5952 30.8792 51.875 30.5262 51.875Z" fill="#00DA71"/>
<path d="M34.0704 33.0432C33.9069 33.0432 33.7432 32.9822 33.6184 32.8602L31.8105 31.0924C31.5608 30.8484 31.5608 30.4527 31.8105 30.2086C32.0601 29.9645 32.4648 29.9645 32.7144 30.2086L34.0704 31.5345L37.2343 28.4409C37.4839 28.1968 37.8886 28.1968 38.1383 28.4409C38.3879 28.6849 38.3879 29.0806 38.1383 29.3247L34.5223 32.8602C34.3976 32.9822 34.234 33.0432 34.0704 33.0432Z" fill="#00DA71"/>
<path d="M35.0005 17.5C34.6475 17.5 34.3613 17.2202 34.3613 16.875V15.625C34.3613 15.2798 34.6475 15 35.0005 15C35.3535 15 35.6397 15.2798 35.6397 15.625V16.875C35.6397 17.2202 35.3535 17.5 35.0005 17.5Z" fill="#00DA71"/>
<path d="M20.2987 29.375H19.0203C18.6673 29.375 18.3811 29.0952 18.3811 28.75C18.3811 28.4048 18.6673 28.125 19.0203 28.125H20.2987C20.6517 28.125 20.9379 28.4048 20.9379 28.75C20.9379 29.0952 20.6517 29.375 20.2987 29.375Z" fill="#00DA71"/>
<path d="M50.9807 29.375H49.7023C49.3493 29.375 49.063 29.0952 49.063 28.75C49.063 28.4048 49.3493 28.125 49.7023 28.125H50.9807C51.3337 28.125 51.6199 28.4048 51.6199 28.75C51.6199 29.0952 51.3337 29.375 50.9807 29.375Z" fill="#00DA71"/>
<path d="M24.5784 19.2081C24.4148 19.2081 24.2512 19.147 24.1264 19.025L23.2225 18.1411C22.9728 17.897 22.9729 17.5013 23.2225 17.2573C23.4722 17.0132 23.8769 17.0132 24.1264 17.2573L25.0304 18.1412C25.28 18.3852 25.28 18.7809 25.0304 19.025C24.9056 19.147 24.742 19.2081 24.5784 19.2081Z" fill="#00DA71"/>
<path d="M45.3702 19.2081C45.2065 19.2081 45.043 19.1471 44.9182 19.025C44.6685 18.781 44.6685 18.3853 44.9182 18.1412L45.8221 17.2573C46.0718 17.0132 46.4765 17.0132 46.726 17.2573C46.9757 17.5014 46.9757 17.8971 46.7261 18.1411L45.8222 19.025C45.6974 19.147 45.5338 19.2081 45.3702 19.2081Z" fill="#00DA71"/>
<path d="M34.9743 36.8751C31.4497 36.8751 28.5822 34.0713 28.5822 30.625C28.5822 27.1788 31.4497 24.375 34.9743 24.375C38.4989 24.375 41.3664 27.1788 41.3664 30.625C41.3664 34.0713 38.4989 36.8751 34.9743 36.8751ZM34.9743 25.625C32.1546 25.625 29.8606 27.868 29.8606 30.625C29.8606 33.3821 32.1546 35.6251 34.9743 35.6251C37.794 35.6251 40.088 33.3821 40.088 30.625C40.088 27.868 37.794 25.625 34.9743 25.625Z" fill="#00DA71"/>
</svg>
