<svg width="70" height="70" viewBox="0 0 70 70" fill="none" xmlns="http://www.w3.org/2000/svg">
<rect width="70" height="70" rx="5.25" fill="#DEFFEE"/>
<path d="M26.036 40.2902H21.3001C21.032 40.2902 20.8145 40.0723 20.8145 39.8039V27.002C20.8145 26.7335 21.032 26.5156 21.3001 26.5156H24.2414V27.4883H21.7858V39.318H26.036V40.2902Z" fill="#00DA71"/>
<path d="M48.701 40.2902H45.7598V39.3175H48.2154V27.4883H45.7598V26.5156H48.701C48.9691 26.5156 49.1867 26.7335 49.1867 27.002V39.8044C49.1867 40.0728 48.9691 40.2902 48.701 40.2902Z" fill="#00DA71"/>
<path d="M50.4547 49.5809H19.546C17.952 49.5809 16.6553 48.2824 16.6553 46.6862V25.2775C16.6553 23.6813 17.952 22.3828 19.546 22.3828H23.9035V23.3555H19.546C18.4877 23.3555 17.6266 24.2178 17.6266 25.2775V46.6862C17.6266 47.7459 18.4877 48.6082 19.546 48.6082H50.4547C51.5129 48.6082 52.3741 47.7459 52.3741 46.6862V25.2775C52.3741 24.2178 51.5129 23.3555 50.4547 23.3555H46.0971V22.3828H50.4547C52.0486 22.3828 53.3454 23.6813 53.3454 25.2775V46.6862C53.3454 48.2824 52.0486 49.5809 50.4547 49.5809Z" fill="#00DA71"/>
<path d="M28.8169 22.5334C28.0801 22.1905 27.471 21.6541 27.1869 21.0982C26.8581 20.4553 26.9295 19.6412 27.388 18.8061C27.5604 18.4924 27.7581 18.2108 27.949 17.9385C28.1296 17.6812 28.3001 17.438 28.4453 17.1764C28.71 16.6993 28.9932 16.0952 28.8329 15.6522C28.763 15.4586 28.8222 15.2422 28.9805 15.1109C29.1394 14.9801 29.3628 14.9635 29.5391 15.0691C30.492 15.6415 31.2491 16.2363 31.9208 16.9415C32.5085 17.5582 33.2215 18.559 33.2803 19.8274C33.3342 20.9849 32.8548 21.8525 31.814 22.4804L31.3128 21.6473C32.0491 21.2033 32.3473 20.6727 32.3099 19.8731C32.2647 18.9053 31.6911 18.1102 31.2181 17.6136C30.7897 17.1637 30.3356 16.7727 29.8013 16.3973C29.7086 16.8486 29.4988 17.2805 29.2943 17.6491C29.1243 17.9555 28.931 18.2313 28.744 18.4978C28.5599 18.7604 28.3861 19.0079 28.2394 19.2754C28.1005 19.5288 27.8037 20.1698 28.0519 20.6552C28.235 21.0131 28.6964 21.4046 29.2273 21.6517L28.8169 22.5334Z" fill="#00DA71"/>
<path d="M30.5147 40.2896C30.0465 40.2896 29.5997 40.1272 29.2539 39.8315C28.9144 39.5407 28.7021 39.1443 28.6565 38.7149L28.5987 38.1745L27.6064 28.8217C27.5613 28.3957 27.537 27.9648 27.5346 27.5412C27.5253 26.3526 27.6808 25.1635 27.996 24.008L28.553 21.9648C28.6103 21.7552 28.7993 21.6093 29.0159 21.6069L31.5574 21.5782C31.7741 21.5743 31.9654 21.7168 32.0281 21.924L32.641 23.954C33.1136 25.5214 33.2884 27.1376 33.1607 28.7576L33.1369 29.0596L32.3792 38.6716C32.3068 39.5835 31.5157 40.2799 30.538 40.2906C30.5302 40.2896 30.5225 40.2896 30.5147 40.2896ZM29.3933 22.5747L28.9324 24.2638C28.6405 25.3332 28.4972 26.4338 28.5054 27.5339C28.5079 27.9264 28.5302 28.3247 28.572 28.7186L29.622 38.6118C29.6414 38.7927 29.7347 38.9634 29.8853 39.0923C30.0577 39.2401 30.2859 39.3199 30.5273 39.317C30.9911 39.3116 31.3797 38.994 31.4113 38.5938L32.1927 28.6797C32.3112 27.1804 32.149 25.6849 31.7119 24.2341L31.2048 22.5538L29.3933 22.5747Z" fill="#00DA71"/>
<path d="M32.6173 25.7376L28.0684 25.7891L28.0793 26.7616L32.6282 26.7102L32.6173 25.7376Z" fill="#00DA71"/>
<path d="M41.7276 40.2886H39.1054C38.3944 40.2886 37.8164 39.7094 37.8164 38.9979V19.377C37.8164 19.2607 37.8582 19.1484 37.9339 19.0599L39.9519 16.7084C40.0418 16.6039 40.1715 16.5421 40.3094 16.5392C40.4473 16.5363 40.5794 16.5917 40.6741 16.6919L42.8854 19.0433C42.9704 19.1338 43.0175 19.2529 43.0175 19.377V38.9979C43.0166 39.7099 42.4381 40.2886 41.7276 40.2886ZM38.7878 19.5569V38.9979C38.7878 39.1734 38.9306 39.3159 39.1054 39.3159H41.7276C41.9029 39.3159 42.0452 39.1729 42.0452 38.9979V19.5696L40.3361 17.7521L38.7878 19.5569Z" fill="#00DA71"/>
<path d="M42.532 34.5234H38.3027V35.4961H42.532V34.5234Z" fill="#00DA71"/>
<path d="M40.902 20.668H39.9307V35.0077H40.902V20.668Z" fill="#00DA71"/>
<path d="M38.627 54.9994H31.3724C31.1043 54.9994 30.8867 54.7815 30.8867 54.5131V49.0957C30.8867 48.8273 31.1043 48.6094 31.3724 48.6094H38.627C38.8951 48.6094 39.1127 48.8273 39.1127 49.0957V54.5131C39.1127 54.7815 38.8951 54.9994 38.627 54.9994ZM31.8581 54.0267H38.1413V49.5821H31.8581V54.0267Z" fill="#00DA71"/>
<path d="M52.8594 43.4492H17.1406V44.4219H52.8594V43.4492Z" fill="#00DA71"/>
<path d="M42.1838 54.0273H27.8164V55H42.1838V54.0273Z" fill="#00DA71"/>
</svg>
