<svg width="70" height="70" viewBox="0 0 70 70" fill="none" xmlns="http://www.w3.org/2000/svg">
<rect width="70" height="70" rx="5.25" fill="#DEFFEE"/>
<path d="M11.9955 15V15.0017C10.8379 15.0027 9.89648 15.9416 9.89648 17.0962V31.7985H10.9107V17.0962C10.9107 16.5001 11.398 16.0147 11.9972 16.0147H51.9108C52.5122 16.0147 53.0018 16.5001 53.0018 17.0962V31.7985H54.016V17.0962C54.016 15.9415 53.0724 15.0025 51.9123 15.0016V15H11.9955Z" fill="#00DA71"/>
<path d="M29.6447 19.9492H11.9951V20.9625H29.6447V19.9492Z" fill="#00DA71"/>
<path d="M29.6447 24.8984H11.9951V25.9117H29.6447V24.8984Z" fill="#00DA71"/>
<path d="M29.6447 29.8477H11.9951V30.8609H29.6447V29.8477Z" fill="#00DA71"/>
<path d="M17.5078 48.2945H26.9018V51.1482H25.1717V52.1614C32.18 52.1614 34.7285 52.1614 38.7397 52.1614V51.1482H37.0093V48.2945C39.3513 48.2945 44.6345 48.2945 49.9575 48.2945C50.2376 48.2945 50.4646 48.0679 50.4646 47.7879C50.4646 47.5078 50.2376 47.2812 49.9575 47.2812C43.202 47.2812 25.65 47.2812 17.5078 47.2812L17.5078 48.2945ZM35.9951 51.1482H27.916V48.2945H35.9951V51.1482Z" fill="#00DA71"/>
<path d="M17.5078 43.3843C22.7634 43.3843 45.6402 43.3843 49.9003 43.3843V42.3711C46.2089 42.3711 22.9821 42.3711 17.5078 42.3711V43.3843Z" fill="#00DA71"/>
<path d="M4.04785 35.3445V39.4113L4.2093 52.8075C4.22341 54.0018 5.17202 54.9848 6.35165 54.9987H13.9504C15.2234 54.9987 16.2589 53.9642 16.2589 52.6922V35.8106H29.6451V34.7973H16.1829C15.9067 33.6912 14.947 33.043 13.9504 33.043H6.35164C5.08139 33.043 4.04785 34.0755 4.04785 35.3445ZM15.2447 35.349V52.6922C15.2447 53.4051 14.664 53.9855 13.9504 53.9855H6.33629C5.73038 53.978 5.23119 53.4442 5.22351 52.7956L5.06208 39.4054V35.3445C5.06208 34.6341 5.6405 34.0562 6.35165 34.0562H13.9504C14.6693 34.0562 15.2447 34.6415 15.2447 35.349Z" fill="#00DA71"/>
<path d="M8.67508 35.857H11.6284C11.9084 35.857 12.1355 35.6304 12.1355 35.3504C12.1355 35.0703 11.9084 34.8438 11.6284 34.8438H8.67508C8.39503 34.8438 8.16797 35.0703 8.16797 35.3504C8.16797 35.6304 8.39503 35.857 8.67508 35.857Z" fill="#00DA71"/>
<path d="M9.95802 51.9701C9.89711 51.9953 9.84139 52.0309 9.79584 52.0814C9.69927 52.1729 9.64355 52.3045 9.64355 52.4361C9.64355 52.5732 9.69927 52.6998 9.79584 52.7958C9.88696 52.8923 10.0137 52.9427 10.1507 52.9427C10.2876 52.9427 10.4144 52.8923 10.5107 52.7958C10.607 52.6998 10.6578 52.5732 10.6578 52.4361C10.6578 52.3045 10.6021 52.1729 10.5107 52.0814C10.3688 51.9399 10.1457 51.8939 9.95802 51.9701Z" fill="#00DA71"/>
<path d="M63.6434 54.9987C64.9163 54.9987 65.9519 53.9642 65.9519 52.6922V35.349C65.9519 34.0787 64.9173 33.043 63.6434 33.043H53.4102C52.14 33.043 51.1064 34.0755 51.1064 35.3445V39.4113L51.2676 52.8075C51.2823 54.0018 52.2309 54.9848 53.4102 54.9987H63.6434ZM52.2819 52.7956L52.1207 39.4054V35.3445C52.1207 34.6341 52.6991 34.0562 53.4102 34.0562H63.6434C64.3601 34.0562 64.9376 34.6394 64.9376 35.349V52.6922C64.9376 53.4051 64.357 53.9855 63.6434 53.9855H53.3949C52.789 53.978 52.2898 53.4442 52.2819 52.7956Z" fill="#00DA71"/>
<path d="M60.0053 34.8438H57.052C56.772 34.8438 56.5449 35.0703 56.5449 35.3504C56.5449 35.6304 56.772 35.857 57.052 35.857H60.0053C60.2854 35.857 60.5124 35.6304 60.5124 35.3504C60.5124 35.0703 60.2854 34.8438 60.0053 34.8438Z" fill="#00DA71"/>
<path d="M58.1695 52.0816C57.9766 52.2753 57.9703 52.5975 58.1695 52.796C58.3652 52.992 58.6932 52.9926 58.8895 52.796C59.0892 52.5975 59.0819 52.2743 58.8895 52.0816C58.7089 51.9011 58.394 51.8581 58.1695 52.0816Z" fill="#00DA71"/>
<path d="M48.1142 21.6785C48.1142 21.3985 47.8871 21.1719 47.6071 21.1719H32.1741C31.8941 21.1719 31.667 21.3985 31.667 21.6785V34.2603C31.667 34.6112 31.686 35.0366 32.1741 35.0366H47.6071C48.0978 35.0366 48.1142 34.5943 48.1142 34.2603L48.1142 21.6785ZM47.1 22.1851V33.0246L43.0773 27.7292C42.9814 27.603 42.8321 27.5288 42.6736 27.5288C42.5152 27.5288 42.3656 27.603 42.2695 27.7287L41.0082 29.3876L38.6311 26.2573C38.535 26.1312 38.3857 26.057 38.227 26.057C38.0685 26.057 37.919 26.1312 37.8231 26.2573L32.6812 33.0247V22.1851H47.1ZM33.4007 33.7537L38.227 27.4017L40.6038 30.5314C40.6999 30.6576 40.8492 30.7318 41.0077 30.7318C41.1662 30.7318 41.3157 30.6576 41.4118 30.5319L42.6732 28.873L46.3809 33.7537H33.4007Z" fill="#00DA71"/>
<path d="M41.2929 26.8913C42.4322 26.8913 43.3592 25.9666 43.3592 24.8297C43.3592 23.6918 42.4322 22.7656 41.2929 22.7656C40.1536 22.7656 39.2266 23.6918 39.2266 24.8297C39.2266 25.9666 40.1536 26.8913 41.2929 26.8913ZM41.2929 23.7789C41.8731 23.7789 42.345 24.2503 42.345 24.8297C42.345 25.4076 41.8731 25.8781 41.2929 25.8781C40.7127 25.8781 40.2408 25.4076 40.2408 24.8297C40.2408 24.2504 40.7127 23.7789 41.2929 23.7789Z" fill="#00DA71"/>
</svg>
