<svg width="70" height="70" viewBox="0 0 70 70" fill="none" xmlns="http://www.w3.org/2000/svg">
<rect x="0.000488281" width="70" height="70" rx="5.25" fill="#DEFFEE"/>
<path d="M30.7926 42.5911H27.4036C27.316 42.5911 27.2292 42.6084 27.1482 42.642C27.0673 42.6756 26.9938 42.7249 26.9319 42.787C26.8701 42.8491 26.8211 42.9228 26.7878 43.0039C26.7544 43.085 26.7375 43.1718 26.7378 43.2595V50.3798C26.7378 50.5564 26.808 50.7257 26.9328 50.8506C27.0577 50.9755 27.227 51.0456 27.4036 51.0456H30.7926C30.9692 51.0456 31.1385 50.9755 31.2634 50.8506C31.3883 50.7257 31.4584 50.5564 31.4584 50.3798V43.2595C31.4587 43.1718 31.4418 43.085 31.4085 43.0039C31.3751 42.9228 31.3262 42.8491 31.2643 42.787C31.2024 42.7249 31.1289 42.6756 31.048 42.642C30.967 42.6084 30.8802 42.5911 30.7926 42.5911ZM30.1267 49.7133H28.0695V43.9228H30.1267V49.7133ZM36.8804 38.4042H33.4921C33.3156 38.4042 33.1462 38.4743 33.0213 38.5992C32.8965 38.7241 32.8263 38.8934 32.8263 39.07V50.3791C32.8263 50.5557 32.8965 50.7251 33.0213 50.85C33.1462 50.9748 33.3156 51.045 33.4921 51.045H36.8804C37.057 51.045 37.2264 50.9748 37.3513 50.85C37.4761 50.7251 37.5463 50.5557 37.5463 50.3791V39.0726C37.5463 38.896 37.4761 38.7266 37.3513 38.6017C37.2264 38.4769 37.057 38.4067 36.8804 38.4067V38.4042ZM36.2146 49.7133H34.158V39.7384H36.2146V49.7133ZM42.9696 34.338H39.5807C39.4047 34.338 39.2359 34.4076 39.1112 34.5316C38.9864 34.6557 38.9158 34.8241 38.9148 35V50.3798C38.9148 50.5564 38.985 50.7257 39.1098 50.8506C39.2347 50.9755 39.4041 51.0456 39.5807 51.0456H42.9696C43.1462 51.0456 43.3155 50.9755 43.4404 50.8506C43.5653 50.7257 43.6354 50.5564 43.6354 50.3798V35C43.6352 34.8235 43.565 34.6543 43.4402 34.5296C43.3153 34.4049 43.1461 34.3348 42.9696 34.3348V34.338ZM42.3069 49.7133H40.2465V35.6665H42.3069V49.7133ZM49.0613 38.4042H45.6692C45.4926 38.4042 45.3232 38.4743 45.1983 38.5992C45.0735 38.7241 45.0033 38.8934 45.0033 39.07V50.3791C45.0033 50.5557 45.0735 50.7251 45.1983 50.85C45.3232 50.9748 45.4926 51.045 45.6692 51.045H49.0581C49.2347 51.045 49.404 50.9748 49.5289 50.85C49.6538 50.7251 49.7239 50.5557 49.7239 50.3791V39.0726C49.7239 38.896 49.6538 38.7266 49.5289 38.6017C49.404 38.4769 49.2347 38.4067 49.0581 38.4067L49.0613 38.4042ZM48.3954 49.7133H46.335V39.7384H48.3922L48.3954 49.7133ZM32.0042 19.3026C32.0042 19.2151 32.0214 19.1285 32.0549 19.0477C32.0883 18.967 32.1374 18.8936 32.1992 18.8317C32.261 18.7699 32.3344 18.7209 32.4152 18.6874C32.496 18.6539 32.5826 18.6367 32.67 18.6367H36.1441C36.321 18.6367 36.4907 18.707 36.6158 18.8321C36.7409 18.9572 36.8112 19.1269 36.8112 19.3038C36.8112 19.4808 36.7409 19.6504 36.6158 19.7755C36.4907 19.9006 36.321 19.9709 36.1441 19.9709H32.67C32.5824 19.9709 32.4956 19.9536 32.4146 19.92C32.3337 19.8864 32.2602 19.8371 32.1983 19.775C32.1364 19.7129 32.0874 19.6392 32.0541 19.5581C32.0208 19.4771 32.0038 19.3902 32.0042 19.3026ZM41.4841 22.6743H32.67C32.4931 22.6743 32.3234 22.604 32.1983 22.4789C32.0732 22.3538 32.0029 22.1841 32.0029 22.0072C32.0029 21.8303 32.0732 21.6606 32.1983 21.5355C32.3234 21.4104 32.4931 21.3401 32.67 21.3401H41.4841C41.6611 21.3401 41.8308 21.4104 41.9559 21.5355C42.081 21.6606 42.1513 21.8303 42.1513 22.0072C42.1513 22.1841 42.081 22.3538 41.9559 22.4789C41.8308 22.604 41.6611 22.6743 41.4841 22.6743ZM19.9752 35.1055C21.5296 36.0037 23.3772 36.2476 25.1115 35.7836C25.9703 35.5538 26.7753 35.1571 27.4808 34.6162C28.1862 34.0754 28.7782 33.4008 29.223 32.6311C29.6677 31.8614 29.9565 31.0117 30.0728 30.1304C30.1892 29.2491 30.1308 28.3535 29.901 27.4948C29.6713 26.6361 29.2746 25.831 28.7337 25.1255C28.1928 24.4201 27.5183 23.8281 26.7486 23.3834C25.9789 22.9387 25.1292 22.6499 24.2479 22.5336C23.3666 22.4173 22.4711 22.4757 21.6124 22.7055C20.7537 22.9353 19.9486 23.332 19.2432 23.8729C18.5378 24.4138 17.9459 25.0883 17.5012 25.858C17.0565 26.6277 16.7677 27.4775 16.6514 28.3587C16.5351 29.24 16.5935 30.1356 16.8233 30.9943C17.0531 31.853 17.4498 32.658 17.9907 33.3634C18.5316 34.0688 19.2055 34.6608 19.9752 35.1055ZM18.6581 26.5283C19.0129 25.9088 19.4871 25.3659 20.0532 24.9311C20.6193 24.4963 21.2662 24.1782 21.9562 23.9952C22.6458 23.8088 23.3655 23.7608 24.0738 23.854C24.7821 23.9473 25.4649 24.1799 26.0828 24.5384C27.0158 25.0756 27.7686 25.8776 28.2457 26.8428C28.7228 27.808 28.9028 28.893 28.763 29.9606C28.6232 31.0281 28.1697 32.0302 27.4601 32.8399C26.7505 33.6497 25.8166 34.2307 24.7767 34.5094C23.7367 34.7882 22.6374 34.7521 21.618 34.4058C20.5985 34.0595 19.7047 33.4186 19.0497 32.5641C18.3946 31.7096 18.0079 30.6799 17.9383 29.6055C17.8687 28.5311 18.1188 27.4602 18.6581 26.5283ZM55.2756 23.513C55.1936 23.4914 55.1123 23.4888 55.0303 23.4736V22.2664C55.0307 22.1699 55.0101 22.0744 54.9698 21.9866C54.9295 21.8988 54.8706 21.8208 54.7971 21.7582L47.0625 15.1595C46.942 15.0566 46.7888 15.0001 46.6304 15H24.955C24.0213 15.0015 23.1262 15.3733 22.4662 16.0339C21.8063 16.6945 21.4353 17.5899 21.4346 18.5236V20.1673C19.8781 20.4946 18.4319 21.2166 17.235 22.264C16.038 23.3114 15.1305 24.649 14.5995 26.1483C14.0686 27.6476 13.9321 29.2582 14.2031 30.8254C14.4742 32.3927 15.1436 33.8639 16.1472 35.0978L12.7558 40.9703C12.4667 41.4745 12.3149 42.0456 12.3154 42.6268C12.316 43.208 12.469 43.7788 12.759 44.2824C13.0491 44.786 13.4662 45.2047 13.9686 45.4968C14.4711 45.7889 15.0413 45.9441 15.6225 45.947C15.9144 45.9466 16.2051 45.9081 16.4872 45.8326C16.9096 45.7219 17.3059 45.5284 17.653 45.2632C18 44.9981 18.2909 44.6666 18.5088 44.2881L21.4314 39.2244V51.4764C21.4321 52.4101 21.8031 53.3055 22.4631 53.9661C23.123 54.6267 24.0181 54.9985 24.9518 55H51.5086C52.4424 54.9987 53.3376 54.6269 53.9976 53.9663C54.6576 53.3057 55.0285 52.4102 55.029 51.4764V29.8537C55.7542 29.7184 56.4118 29.3406 56.8941 28.7825C57.3763 28.2243 57.6546 27.5188 57.6832 26.7817C57.7119 26.0447 57.4892 25.3197 57.0518 24.7258C56.6143 24.1318 55.988 23.7042 55.2756 23.513ZM47.2963 17.1093L52.5569 21.5968H47.2963V17.1093ZM16.4681 25.2627C16.991 24.3574 17.6871 23.564 18.5167 22.9278C19.3462 22.2916 20.293 21.8249 21.3029 21.5546C22.3127 21.2842 23.366 21.2154 24.4025 21.3521C25.4389 21.4888 26.4383 21.8283 27.3436 22.3512C28.2489 22.8742 29.0423 23.5703 29.6785 24.3998C30.3148 25.2294 30.7814 26.1761 31.0517 27.186C31.3221 28.1959 31.3909 29.2491 31.2542 30.2856C31.1175 31.3221 30.778 32.3215 30.2551 33.2268C29.199 35.055 27.4599 36.3889 25.4203 36.9349C23.3807 37.4809 21.2078 37.1943 19.3796 36.1382C17.5513 35.0821 16.2174 33.343 15.6714 31.3035C15.1254 29.2639 15.412 27.091 16.4681 25.2627ZM17.3576 43.6242C17.0937 44.0817 16.6589 44.4157 16.1487 44.5527C15.6386 44.6897 15.0949 44.6184 14.6374 44.3545C14.1798 44.0906 13.8458 43.6558 13.7088 43.1456C13.5718 42.6355 13.6431 42.0918 13.907 41.6343L17.099 36.1068C18.0885 37.0143 19.2641 37.6949 20.5438 38.1011L17.3576 43.6242ZM51.5086 53.6677H24.955C24.3744 53.6667 23.8179 53.4354 23.4076 53.0246C22.9972 52.6138 22.7666 52.057 22.7663 51.4764V38.5249C22.9569 38.537 23.1532 38.5439 23.347 38.5439C24.1664 38.5433 24.9822 38.435 25.7733 38.2218C26.9525 37.9091 28.0578 37.3654 29.0251 36.6221C29.9924 35.8788 30.8024 34.9508 31.4082 33.892C32.6379 31.7569 32.9709 29.2214 32.3342 26.8413C31.6975 24.4612 30.1431 22.4306 28.0117 21.1946C26.4226 20.2757 24.5959 19.8508 22.7644 19.9741V18.5236C22.7647 17.943 22.9953 17.3862 23.4056 16.9754C23.816 16.5646 24.3725 16.3333 24.9531 16.3323H45.9646V22.2633C45.9648 22.4397 46.035 22.6089 46.1598 22.7337C46.2847 22.8584 46.4539 22.9285 46.6304 22.9285H53.698V23.5003C53.2176 23.6056 52.7679 23.8198 52.3833 24.1264C51.9987 24.4329 51.6897 24.8236 51.4799 25.2684C51.2701 25.7132 51.1652 26.2002 51.1733 26.6919C51.1813 27.1836 51.3021 27.6669 51.5264 28.1046L48.5485 30.4668C48.3621 30.3415 48.1568 30.2467 47.9405 30.186C47.4497 30.0556 46.9282 30.1092 46.4741 30.3366L45.2212 29.0589C45.3377 28.8665 45.428 28.6595 45.49 28.4432C45.5764 28.122 45.5985 27.7868 45.5552 27.457C45.5118 27.1271 45.4038 26.8091 45.2373 26.5211C45.0708 26.233 44.8491 25.9807 44.5849 25.7785C44.3207 25.5763 44.0192 25.4282 43.6977 25.3428C43.05 25.1728 42.3614 25.2653 41.7816 25.6002C41.2017 25.9351 40.7775 26.4853 40.601 27.1313C40.484 27.573 40.4899 28.0383 40.6182 28.4769L37.7204 30.2349C37.3824 29.9543 36.9627 29.7907 36.524 29.7685C36.0854 29.7464 35.6513 29.8669 35.2868 30.1121C34.9224 30.3572 34.6471 30.7138 34.5022 31.1284C34.3573 31.5431 34.3506 31.9935 34.4831 32.4123C34.6156 32.8311 34.8802 33.1957 35.2372 33.4516C35.5942 33.7074 36.0245 33.8408 36.4636 33.8317C36.9028 33.8226 37.3271 33.6716 37.6733 33.4011C38.0194 33.1307 38.2686 32.7555 38.3837 32.3316C38.4682 32.0204 38.4762 31.6935 38.4072 31.3785L41.3113 29.6186C41.6137 29.9117 41.9852 30.1237 42.3914 30.2349C42.6062 30.2929 42.8278 30.3223 43.0503 30.3226C43.4793 30.3216 43.9008 30.2105 44.2746 29.9998L45.5167 31.2674C45.3065 31.6739 45.234 32.1376 45.31 32.5889C45.3861 33.0401 45.6065 33.4545 45.9383 33.7697C46.27 34.0849 46.6952 34.2839 47.1497 34.3368C47.6043 34.3897 48.0637 34.2935 48.459 34.0629C48.8866 33.813 49.2129 33.421 49.3812 32.9552C49.5494 32.4894 49.5488 31.9793 49.3796 31.5139L52.3504 29.1567C52.7114 29.4612 53.1344 29.6832 53.59 29.8073C53.6256 29.8169 53.6618 29.8207 53.698 29.8289V51.4764C53.6977 52.0571 53.467 52.614 53.0565 53.0248C52.646 53.4356 52.0893 53.6668 51.5086 53.6677ZM46.6349 32.0317C46.6805 31.8642 46.7797 31.7162 46.9174 31.6105C47.0551 31.5049 47.2237 31.4472 47.3973 31.4465C47.4645 31.4467 47.5313 31.4557 47.5962 31.4732C47.6967 31.4994 47.791 31.5455 47.8735 31.6086C47.9559 31.6718 48.025 31.7508 48.0765 31.8411C48.177 32.0209 48.2033 32.2329 48.1499 32.4319C48.0965 32.6309 47.9676 32.8012 47.7906 32.9065C47.6567 32.9846 47.5027 33.0212 47.348 33.0118C47.1933 33.0024 47.0449 32.9474 46.9214 32.8538C46.7979 32.7601 46.7049 32.632 46.6542 32.4856C46.6034 32.3392 46.5971 32.181 46.6362 32.031L46.6349 32.0317ZM43.6411 28.8264C43.436 28.9448 43.2003 28.9997 42.9639 28.9843C42.7275 28.9688 42.501 28.8836 42.313 28.7395C42.125 28.5954 41.984 28.3987 41.9077 28.1744C41.8314 27.9502 41.8233 27.7083 41.8844 27.4794C41.9461 27.2503 42.0743 27.0446 42.2528 26.8883C42.4313 26.7319 42.6521 26.632 42.8874 26.6011C43.1227 26.5701 43.3618 26.6096 43.5747 26.7145C43.7875 26.8194 43.9645 26.985 44.0833 27.1903C44.1621 27.3262 44.2131 27.4764 44.2334 27.6321C44.2537 27.7879 44.2429 27.9461 44.2015 28.0976C44.1606 28.25 44.0901 28.3928 43.9939 28.5178C43.8978 28.6429 43.7779 28.7477 43.6411 28.8264ZM37.0971 31.977C37.0737 32.0659 37.0328 32.1492 36.9768 32.222C36.9209 32.2949 36.8509 32.3559 36.7712 32.4014C36.6931 32.4469 36.6068 32.4764 36.5172 32.4882C36.4277 32.5 36.3367 32.4938 36.2495 32.4701C36.1605 32.4468 36.0769 32.4062 36.0036 32.3505C35.9303 32.2949 35.8687 32.2253 35.8224 32.1458C35.776 32.0663 35.7459 31.9784 35.7336 31.8871C35.7213 31.7959 35.7271 31.7032 35.7508 31.6143C35.7741 31.5258 35.8147 31.4428 35.8703 31.3701C35.9259 31.2975 35.9955 31.2366 36.0748 31.1911C36.1809 31.13 36.3012 31.0976 36.4236 31.0971C36.5474 31.0975 36.6689 31.1303 36.7761 31.1921C36.8833 31.254 36.9725 31.3428 37.0348 31.4497C37.0801 31.5289 37.109 31.6164 37.1197 31.707C37.1304 31.7976 37.1227 31.8895 37.0971 31.977ZM56.2845 27.1567C56.1461 27.643 55.822 28.0555 55.3821 28.305C54.9423 28.5545 54.422 28.621 53.9335 28.4902C53.445 28.3595 53.0276 28.0419 52.7712 27.606C52.5149 27.1701 52.4402 26.6509 52.5633 26.1605C52.7017 25.6741 53.0258 25.2616 53.4656 25.0122C53.9055 24.7627 54.4258 24.6961 54.9143 24.8269C55.4027 24.9577 55.8202 25.2753 56.0765 25.7111C56.3329 26.147 56.4076 26.6662 56.2845 27.1567Z" fill="#00DA71"/>
</svg>
