<svg width="70" height="70" viewBox="0 0 70 70" fill="none" xmlns="http://www.w3.org/2000/svg">
<rect width="70" height="70" rx="5.25" fill="#DEFFEE"/>
<g clip-path="url(#clip0_1396_7678)">
<path d="M53.2922 56H16.7067C15.6953 55.7605 14.8602 55.2672 14.3704 54.3134C14.2305 54.0074 14.1068 53.6941 14 53.375V16.543C14.2279 15.8867 14.7778 15.1667 15.1667 14.7778C15.1667 14.7778 15.9444 14 16.5434 14H53.4566C53.4873 14.0241 53.5147 14.0612 53.5497 14.0711C55.1584 14.5414 55.9989 15.6505 55.9989 17.3097V52.4847C55.9989 52.6356 55.9989 52.7855 55.9989 52.9353C55.9474 53.9678 55.531 54.8253 54.6686 55.3984C54.2554 55.6719 53.7535 55.8042 53.2922 56ZM15.3972 23.8252V52.5547C15.3972 53.9361 16.0711 54.6022 17.4694 54.6022H52.5361C53.93 54.6022 54.605 53.9339 54.605 52.5514V23.8252H15.3972ZM15.3972 22.3727H54.5951V21.9527C54.5951 20.4353 54.5951 18.9179 54.5951 17.4005C54.5951 16.1098 53.8839 15.4011 52.5887 15.4011H17.4059C16.1106 15.4011 15.4027 16.1088 15.4016 17.4016C15.4016 18.919 15.4016 20.4364 15.4016 21.9538L15.3972 22.3727Z" fill="#00DA71"/>
<path d="M35.0007 52.4937H18.5545C17.6701 52.4937 17.5068 52.3297 17.5068 51.4405V41.6383C17.5068 40.7852 17.6953 40.5938 18.5336 40.5938H51.4645C52.293 40.5938 52.4924 40.7873 52.4924 41.5967C52.4924 44.9042 52.4924 48.2124 52.4924 51.5214C52.4924 52.298 52.2984 52.4927 51.527 52.4927L35.0007 52.4937ZM51.0755 42.0222H18.9314V51.0587H51.0744L51.0755 42.0222Z" fill="#00DA71"/>
<path d="M35.6973 32.895C35.6973 33.3511 35.7028 33.7449 35.6973 34.1386C35.6885 34.6855 35.4157 35.0081 34.9806 34.9983C34.5456 34.9885 34.3045 34.68 34.2957 34.1496C34.2892 33.7558 34.2957 33.3621 34.2957 32.8939C33.818 32.8939 33.373 32.906 32.9303 32.8939C32.4306 32.8764 32.1139 32.5046 32.218 32.0605C32.3101 31.6722 32.5928 31.5071 32.9742 31.5005C33.3939 31.4939 33.8147 31.5005 34.2946 31.5005C34.2946 31.063 34.2892 30.655 34.2946 30.2503C34.3045 29.7111 34.5511 29.4213 34.9883 29.418C35.4255 29.4147 35.6842 29.7057 35.6951 30.2383C35.7039 30.643 35.6951 31.0488 35.6951 31.5005C36.1784 31.5005 36.6123 31.4841 37.0441 31.5005C37.6457 31.5289 38.0029 32.1042 37.6742 32.5483C37.5057 32.7324 37.2759 32.849 37.0276 32.8764C36.62 32.9322 36.1948 32.895 35.6973 32.895Z" fill="#00DA71"/>
<path d="M52.489 32.2167C52.489 32.6257 52.501 33.0359 52.489 33.4438C52.4769 33.8518 52.1997 34.1198 51.8227 34.1307C51.7333 34.1369 51.6435 34.1251 51.5588 34.0958C51.4741 34.0665 51.3962 34.0205 51.3298 33.9604C51.2634 33.9004 51.2098 33.8275 51.1723 33.7463C51.1348 33.665 51.1141 33.577 51.1115 33.4876C51.0852 32.6294 51.0852 31.7704 51.1115 30.9107C51.114 30.8205 51.1342 30.7317 51.171 30.6493C51.2079 30.5669 51.2606 30.4925 51.3263 30.4305C51.3919 30.3684 51.4691 30.3199 51.5536 30.2876C51.638 30.2553 51.728 30.24 51.8183 30.2424C51.9087 30.2449 51.9977 30.2651 52.0803 30.3018C52.1628 30.3386 52.2373 30.3913 52.2995 30.4568C52.3617 30.5223 52.4103 30.5994 52.4426 30.6836C52.475 30.7679 52.4903 30.8577 52.4879 30.9479C52.501 31.3701 52.4879 31.7934 52.489 32.2167Z" fill="#00DA71"/>
<path d="M18.9062 32.2052C18.9062 32.5869 18.915 32.9708 18.9062 33.3515C18.892 33.8393 18.6158 34.1335 18.1972 34.1313C17.7786 34.1291 17.5156 33.8327 17.5112 33.3384C17.5046 32.5727 17.5035 31.8071 17.5112 31.0415C17.5112 30.5591 17.8005 30.2485 18.2082 30.254C18.6158 30.2594 18.8931 30.5734 18.9062 31.0557C18.9139 31.4418 18.9062 31.829 18.9062 32.2052Z" fill="#00DA71"/>
<path d="M46.9681 27.293C46.6262 27.293 46.2843 27.304 45.9435 27.293C45.7658 27.288 45.5968 27.215 45.4714 27.0892C45.346 26.9634 45.2738 26.7943 45.2697 26.6168C45.2656 26.4394 45.33 26.2672 45.4495 26.1358C45.5689 26.0043 45.7344 25.9237 45.9117 25.9105C46.6207 25.8887 47.3363 25.8897 48.0409 25.9105C48.1302 25.9126 48.2182 25.9324 48.2997 25.9688C48.3812 26.0051 48.4547 26.0572 48.5159 26.1222C48.5771 26.1871 48.6247 26.2635 48.6561 26.347C48.6874 26.4304 48.7018 26.5193 48.6984 26.6083C48.6984 27.001 48.4168 27.281 47.9883 27.2952C47.6508 27.3029 47.3133 27.293 46.9681 27.293Z" fill="#00DA71"/>
<path d="M23.0107 27.2929C22.6688 27.2929 22.3269 27.3038 21.9861 27.2929C21.8951 27.2935 21.8047 27.2761 21.7204 27.2419C21.636 27.2076 21.5592 27.1571 21.4944 27.0932C21.3635 26.9642 21.2893 26.7885 21.2881 26.6049C21.2869 26.4213 21.3589 26.2447 21.4882 26.1141C21.6174 25.9834 21.7934 25.9094 21.9774 25.9082C22.6736 25.89 23.3698 25.89 24.066 25.9082C24.2461 25.9182 24.4153 25.9976 24.5377 26.1298C24.6601 26.262 24.7263 26.4365 24.7222 26.6164C24.718 26.7964 24.644 26.9677 24.5156 27.0942C24.3872 27.2206 24.2146 27.2923 24.0343 27.294C23.6935 27.3038 23.3516 27.2929 23.0107 27.2929Z" fill="#00DA71"/>
<path d="M23.0342 37.1064C23.3629 37.1064 23.6917 37.0955 24.0204 37.1064C24.4588 37.1239 24.736 37.3974 24.7437 37.7835C24.7475 37.873 24.7334 37.9623 24.7023 38.0463C24.6712 38.1304 24.6237 38.2074 24.5625 38.2729C24.5014 38.3385 24.4278 38.3912 24.346 38.4281C24.2642 38.465 24.1759 38.4853 24.0862 38.4878C23.3772 38.5152 22.6616 38.5152 21.9581 38.4878C21.8649 38.4865 21.773 38.4658 21.6883 38.4271C21.6035 38.3884 21.5278 38.3324 21.466 38.2629C21.4041 38.1933 21.3574 38.1116 21.329 38.023C21.3005 37.9345 21.2908 37.841 21.3006 37.7485C21.3236 37.3766 21.5921 37.1338 22.0129 37.1053C22.0392 37.1053 22.0665 37.1053 22.0939 37.1053H23.0364L23.0342 37.1064Z" fill="#00DA71"/>
<path d="M37.368 27.2944C37.0392 27.2944 36.7105 27.3042 36.3817 27.2944C35.9642 27.2791 35.6661 26.9849 35.665 26.6053C35.6655 26.5128 35.6842 26.4213 35.7202 26.3361C35.7561 26.2509 35.8086 26.1735 35.8746 26.1086C35.9406 26.0437 36.0187 25.9924 36.1046 25.9577C36.1906 25.923 36.2825 25.9056 36.3751 25.9064C37.0578 25.8911 37.7416 25.89 38.4232 25.9064C38.5162 25.9046 38.6086 25.922 38.6945 25.9576C38.7804 25.9932 38.858 26.0461 38.9223 26.1131C38.9867 26.1801 39.0364 26.2597 39.0684 26.3469C39.1004 26.4341 39.1139 26.5269 39.1081 26.6196C39.1005 27.0166 38.8265 27.2758 38.3882 27.2966H37.3647L37.368 27.2944Z" fill="#00DA71"/>
<path d="M32.629 27.2928C32.274 27.2928 31.9189 27.3048 31.5639 27.2928C31.3839 27.2915 31.2115 27.2205 31.0832 27.0946C30.9548 26.9688 30.8806 26.798 30.8762 26.6185C30.8718 26.439 30.9375 26.2648 31.0595 26.1328C31.1816 26.0008 31.3502 25.9214 31.5299 25.9114C32.2389 25.8884 32.9545 25.8895 33.6591 25.9114C33.8395 25.9176 34.0104 25.9937 34.1356 26.1236C34.2608 26.2534 34.3304 26.4268 34.3297 26.607C34.3297 26.9865 34.0295 27.2807 33.612 27.296C33.2865 27.3026 32.9578 27.2928 32.629 27.2928Z" fill="#00DA71"/>
<path d="M46.9921 37.1105C47.334 37.1105 47.6759 37.0974 48.0156 37.1105C48.4287 37.1313 48.6906 37.3993 48.7016 37.7777C48.7078 37.867 48.6959 37.9566 48.6665 38.0412C48.6371 38.1257 48.5908 38.2035 48.5305 38.2697C48.4702 38.3359 48.3971 38.3893 48.3155 38.4265C48.234 38.4638 48.1458 38.4842 48.0561 38.4865C47.3471 38.516 46.6315 38.516 45.928 38.4865C45.8351 38.4842 45.7436 38.4631 45.6591 38.4246C45.5746 38.3861 45.4987 38.3308 45.4362 38.2623C45.3736 38.1937 45.3256 38.1132 45.2951 38.0256C45.2645 37.938 45.2521 37.8451 45.2585 37.7526C45.2815 37.3829 45.5543 37.1215 45.9686 37.104C46.3094 37.0898 46.6513 37.104 46.9921 37.104V37.1105Z" fill="#00DA71"/>
<path d="M27.8222 27.2948C27.4803 27.2948 27.1384 27.3036 26.7976 27.2948C26.3801 27.2806 26.0831 26.9853 26.082 26.6047C26.0823 26.5121 26.101 26.4205 26.137 26.3352C26.173 26.2498 26.2256 26.1725 26.2917 26.1076C26.3578 26.0427 26.4362 25.9915 26.5223 25.9571C26.6084 25.9226 26.7005 25.9055 26.7932 25.9068C27.4759 25.8915 28.1586 25.8893 28.8402 25.9068C28.9332 25.9048 29.0256 25.9221 29.1115 25.9577C29.1975 25.9932 29.275 26.0462 29.3393 26.1132C29.4037 26.1803 29.4533 26.26 29.4851 26.3472C29.5169 26.4345 29.5301 26.5273 29.524 26.62C29.5153 27.0159 29.2413 27.2762 28.8041 27.2948C28.4775 27.3025 28.1488 27.2948 27.8222 27.2948Z" fill="#00DA71"/>
<path d="M42.1746 27.2928C41.8327 27.2928 41.4908 27.3048 41.15 27.2928C40.9703 27.2906 40.7985 27.2188 40.6709 27.0926C40.5433 26.9664 40.4698 26.7956 40.466 26.6163C40.4621 26.4371 40.5282 26.2633 40.6503 26.1318C40.7724 26.0002 40.941 25.9212 41.1204 25.9114C41.8294 25.8884 42.545 25.8895 43.2496 25.9114C43.4301 25.9171 43.6011 25.9933 43.7259 26.1236C43.8507 26.2539 43.9193 26.4278 43.9169 26.6081C43.9169 26.9876 43.6167 27.2807 43.1981 27.2949C42.8573 27.3026 42.5154 27.2928 42.1746 27.2928Z" fill="#00DA71"/>
<path d="M32.6176 37.1112C32.9584 37.1112 33.3003 37.0969 33.64 37.1112C33.8228 37.1065 34 37.1746 34.1325 37.3003C34.2651 37.426 34.3421 37.5992 34.3468 37.7816C34.3514 37.9641 34.2833 38.1409 34.1573 38.2732C34.0313 38.4055 33.8579 38.4825 33.6751 38.4871C32.9671 38.5155 32.2559 38.5155 31.5469 38.4871C31.454 38.4864 31.3622 38.4663 31.2774 38.428C31.1927 38.3898 31.1169 38.3342 31.055 38.265C30.9931 38.1958 30.9464 38.1144 30.9178 38.026C30.8893 37.9377 30.8797 37.8444 30.8894 37.7521C30.9092 37.3737 31.1689 37.1254 31.5952 37.1079C31.936 37.0937 32.2768 37.1079 32.6187 37.1079L32.6176 37.1112Z" fill="#00DA71"/>
<path d="M37.3942 37.1113C37.7361 37.1113 38.078 37.0982 38.4177 37.1113C38.8374 37.1299 39.0971 37.388 39.1114 37.7676C39.1195 37.8602 39.1081 37.9536 39.0778 38.0416C39.0476 38.1296 38.9992 38.2103 38.9358 38.2785C38.8725 38.3467 38.7955 38.4009 38.7098 38.4376C38.6241 38.4743 38.5317 38.4927 38.4385 38.4916C37.7438 38.5179 37.0468 38.5168 36.3564 38.4916C36.2635 38.4908 36.1716 38.4713 36.0864 38.4342C36.0011 38.397 35.9243 38.3431 35.8605 38.2755C35.7967 38.208 35.7473 38.1283 35.7152 38.0411C35.6831 37.954 35.669 37.8613 35.6737 37.7686C35.6913 37.3869 35.9795 37.1299 36.4167 37.1058H37.403L37.3942 37.1113Z" fill="#00DA71"/>
<path d="M42.2076 37.1121C42.5495 37.1121 42.8903 37.0979 43.2311 37.1121C43.4109 37.1127 43.5833 37.1835 43.7113 37.3095C43.8393 37.4354 43.9128 37.6065 43.916 37.7859C43.9233 37.9592 43.8628 38.1286 43.7472 38.2582C43.6317 38.3878 43.4702 38.4675 43.2968 38.4804C42.5615 38.5121 41.824 38.5143 41.0887 38.4804C40.6887 38.4629 40.4531 38.1315 40.4762 37.7487C40.481 37.5762 40.5538 37.4125 40.6787 37.2932C40.8036 37.1738 40.9706 37.1084 41.1435 37.111C41.4975 37.0979 41.8536 37.1121 42.2076 37.1121Z" fill="#00DA71"/>
<path d="M27.8149 38.5064C27.4862 38.5064 27.1574 38.5185 26.8287 38.5064C26.3761 38.4846 26.078 38.1936 26.0791 37.801C26.0802 37.4083 26.3783 37.1217 26.8363 37.1141C27.4938 37.1031 28.1513 37.1021 28.8012 37.1141C29.2395 37.1228 29.5124 37.3886 29.52 37.7857C29.5277 38.1827 29.2647 38.4561 28.834 38.5042C28.807 38.5059 28.7799 38.5059 28.7529 38.5042L27.8149 38.5064Z" fill="#00DA71"/>
<path d="M18.931 27.3106C18.9183 27.4882 18.8934 27.6647 18.8565 27.8389C18.8156 27.995 18.7206 28.1315 18.5884 28.2242C18.4562 28.3169 18.2953 28.3598 18.1343 28.3452C17.9734 28.3306 17.8229 28.2596 17.7095 28.1446C17.5961 28.0297 17.5273 27.8783 17.5152 27.7175C17.4949 27.3353 17.4949 26.9523 17.5152 26.5702C17.5338 26.1709 17.7935 25.9249 18.2045 25.9041C18.5179 25.8888 18.8324 25.8942 19.1469 25.9041C19.6334 25.9139 19.9392 26.1841 19.9414 26.5997C19.9436 27.0153 19.6543 27.2734 19.1557 27.3008L18.931 27.3106Z" fill="#00DA71"/>
<path d="M51.0705 27.3075L50.8262 27.2954C50.3363 27.2681 50.0448 26.9968 50.0591 26.579C50.0733 26.1612 50.3626 25.9107 50.8262 25.8998C51.1549 25.8911 51.4837 25.8845 51.8124 25.8998C51.902 25.8988 51.9908 25.9157 52.0737 25.9496C52.1565 25.9835 52.2317 26.0336 52.2948 26.0971C52.3579 26.1605 52.4075 26.236 52.4408 26.319C52.4741 26.402 52.4903 26.4908 52.4885 26.5801C52.5061 26.9082 52.5017 27.2364 52.4885 27.5645C52.4787 28.0337 52.2212 28.3301 51.8234 28.3454C51.4256 28.3607 51.1385 28.0698 51.0925 27.6192C51.0848 27.5284 51.0804 27.4343 51.0705 27.3075Z" fill="#00DA71"/>
<path d="M18.9314 37.0782C19.0815 37.0924 19.2163 37.0968 19.3489 37.1176C19.508 37.1307 19.6564 37.2029 19.7648 37.32C19.8731 37.437 19.9335 37.5904 19.9341 37.7497C19.9571 38.103 19.7949 38.406 19.441 38.4465C18.9676 38.4988 18.4901 38.5007 18.0164 38.4519C17.7041 38.4213 17.5254 38.1665 17.5134 37.8438C17.4991 37.4894 17.4969 37.134 17.5079 36.7796C17.5222 36.3421 17.783 36.0676 18.1786 36.0588C18.5742 36.0501 18.8448 36.3082 18.8985 36.7424C18.915 36.8507 18.9215 36.9579 18.9314 37.0782Z" fill="#00DA71"/>
<path d="M51.0613 37.0771C51.0721 36.9127 51.0944 36.7494 51.1281 36.5881C51.2278 36.2272 51.4722 36.0413 51.8514 36.0599C52.0174 36.0641 52.1755 36.132 52.2927 36.2495C52.4098 36.3671 52.4771 36.5252 52.4804 36.691C52.5023 37.0442 52.499 37.4008 52.488 37.7552C52.4738 38.2255 52.225 38.4738 51.7451 38.4989C51.4591 38.5142 51.172 38.5088 50.8859 38.4989C50.3654 38.4869 50.0586 38.2211 50.0586 37.7924C50.0586 37.3811 50.3347 37.1361 50.8476 37.0989C50.9144 37.0989 50.9802 37.0891 51.0613 37.0771Z" fill="#00DA71"/>
<path d="M25.8699 16.8028L25.8661 17.0528C26.0321 17.0553 26.144 17.1048 26.2134 17.1705C26.2813 17.2348 26.333 17.3375 26.3366 17.4965L26.3366 17.4966C26.3585 18.4333 26.3585 19.371 26.3366 20.3099C26.3325 20.4708 26.2818 20.5645 26.2178 20.6223C26.15 20.6835 26.0359 20.7322 25.8569 20.7398C25.5541 20.7455 25.252 20.7436 24.9459 20.7417C24.7905 20.7407 24.634 20.7397 24.476 20.7397C24.3214 20.7397 24.169 20.7408 24.0178 20.7419C23.7196 20.7441 23.4259 20.7462 23.1292 20.7397C22.9447 20.7357 22.8349 20.6863 22.7716 20.6267C22.7105 20.5691 22.6608 20.4721 22.657 20.3037L22.657 20.3036C22.6352 19.3654 22.6352 18.4271 22.657 17.4889L22.4071 17.4831M25.8699 16.8028L25.8663 17.0528C24.957 17.0397 24.0462 17.0397 23.1339 17.0528L23.1303 16.8028M25.8699 16.8028C24.9582 16.7897 24.045 16.7897 23.1303 16.8028M25.8699 16.8028C26.2984 16.8094 26.5767 17.0631 26.5866 17.4908C26.6085 18.4314 26.6085 19.3731 26.5866 20.3159C26.5756 20.7469 26.3017 20.9722 25.8644 20.9897L22.4071 17.4831M23.1303 16.8028L23.1341 17.0528C22.9651 17.0554 22.8512 17.1048 22.7809 17.17C22.7125 17.2334 22.661 17.334 22.657 17.4896L22.4071 17.4831M23.1303 16.8028C22.6986 16.8094 22.418 17.0598 22.4071 17.4831M23.8185 17.9561H23.5685V18.2061V19.5612V19.8112H23.8185H25.1598H25.4098V19.5612V18.2061V17.9561H25.1598H23.8185Z" fill="#00DA71" stroke="#00DA71" stroke-width="0.5"/>
<path d="M20.7424 20.2285H20.7424C20.7519 19.3429 20.7519 18.4569 20.7424 17.5706L20.9924 17.5679L20.7424 17.5717C20.7392 17.3635 20.684 17.245 20.6159 17.177C20.548 17.1092 20.4298 17.0545 20.2225 17.0523L20.7424 20.2285ZM20.7424 20.2285V20.2312M20.7424 20.2285V20.2312M20.7424 20.2312C20.7424 20.4569 20.6878 20.5675 20.6254 20.627C20.5597 20.6896 20.436 20.7433 20.1963 20.7468C19.9376 20.7487 19.6841 20.7469 19.4291 20.745C19.2492 20.7437 19.0687 20.7424 18.8851 20.7424C18.7358 20.7424 18.5881 20.7433 18.4413 20.7441M20.7424 20.2312L18.4413 20.7441M18.4413 20.7441C18.1511 20.7458 17.8643 20.7475 17.575 20.7425M18.4413 20.7441L17.575 20.7425M17.575 20.7425C17.3628 20.7377 17.2408 20.6832 17.1712 20.6162C17.1034 20.5508 17.0485 20.438 17.0453 20.236L16.7953 20.2399L17.575 20.7425ZM17.9579 19.5607V19.8107H18.2079H19.5678H19.8178V19.5607V18.2274V17.9774H19.5678H18.2079H17.9579V18.2274V19.5607Z" fill="#00DA71" stroke="#00DA71" stroke-width="0.5"/>
<path d="M32.1983 20.276L31.9484 20.2717C31.9454 20.444 31.8932 20.551 31.8256 20.6166C31.7567 20.6835 31.6427 20.7355 31.464 20.7403C31.1699 20.7482 30.8674 20.7456 30.5577 20.743C30.3996 20.7416 30.2396 20.7402 30.0779 20.7402C29.9238 20.7402 29.7717 20.7413 29.6205 20.7425C29.3222 20.7446 29.0279 20.7468 28.7311 20.7403C28.5496 20.7363 28.4417 20.6856 28.3786 20.6227C28.316 20.5604 28.2644 20.453 28.2622 20.2676L28.2622 20.2671C28.2498 19.355 28.2498 18.4426 28.2622 17.5297L28.2622 17.5297V17.5263C28.2622 17.3514 28.3132 17.2419 28.3793 17.1756C28.4459 17.1088 28.5571 17.0563 28.7343 17.0533L28.73 16.8034M32.1983 20.276L31.9484 20.272C31.9629 19.3589 31.9629 18.4464 31.9484 17.5347L31.9484 17.5344C31.9458 17.366 31.8929 17.2523 31.8215 17.1807C31.7501 17.109 31.6372 17.0562 31.4707 17.0533L31.4751 16.8034M32.1983 20.276C32.2129 19.3602 32.2129 18.4451 32.1983 17.5307C32.1918 17.0888 31.9134 16.811 31.4751 16.8034M32.1983 20.276C32.1907 20.7223 31.9189 20.9782 31.4707 20.9902C31.1724 20.9982 30.862 20.9956 30.5494 20.9929C30.3924 20.9916 30.2348 20.9902 30.0779 20.9902C29.9278 20.9902 29.7776 20.9913 29.6273 20.9924C29.3267 20.9946 29.0259 20.9968 28.7256 20.9902C28.2752 20.9804 28.0177 20.7321 28.0122 20.2705C27.9998 19.3562 27.9998 18.4414 28.0122 17.5263C28.0122 17.0768 28.2796 16.811 28.73 16.8034M31.4751 16.8034L31.4713 17.0533C30.5584 17.0395 29.6459 17.0395 28.7338 17.0533L28.73 16.8034M31.4751 16.8034C30.5597 16.7895 29.6447 16.7895 28.73 16.8034M31.0336 18.2209V17.9709H30.7836H29.4412H29.1912V18.2209V19.5629V19.8129H29.4412H30.7836H31.0336V19.5629V18.2209Z" fill="#00DA71" stroke="#00DA71" stroke-width="0.5"/>
</g>
<defs>
<clipPath id="clip0_1396_7678">
<rect width="42" height="42" fill="white" transform="translate(14 14)"/>
</clipPath>
</defs>
</svg>
