<svg width="70" height="70" viewBox="0 0 70 70" fill="none" xmlns="http://www.w3.org/2000/svg">
<rect x="0.000488281" width="70" height="70" rx="5.25" fill="#DEFFEE"/>
<path fill-rule="evenodd" clip-rule="evenodd" d="M34.5596 20.5569C34.5596 20.0362 34.1435 19.6152 33.6288 19.6152H28.1539C27.6392 19.6152 27.2231 20.0362 27.2231 20.5569V26.0963C27.2231 26.617 27.6392 27.038 28.1539 27.038H33.6288C34.1435 27.038 34.5596 26.617 34.5596 26.0963V20.5569ZM32.6981 21.4986V25.1546H29.0846V21.4986H32.6981Z" fill="#00DA71"/>
<path fill-rule="evenodd" clip-rule="evenodd" d="M34.5596 31.6351C34.5596 31.1144 34.1435 30.6934 33.6288 30.6934H28.1539C27.6392 30.6934 27.2231 31.1144 27.2231 31.6351V37.1744C27.2231 37.6951 27.6392 38.1161 28.1539 38.1161H33.6288C34.1435 38.1161 34.5596 37.6951 34.5596 37.1744V31.6351ZM32.6981 32.5767V36.2327H29.0846V32.5767H32.6981Z" fill="#00DA71"/>
<path fill-rule="evenodd" clip-rule="evenodd" d="M34.5596 42.7171C34.5596 42.1964 34.1435 41.7754 33.6288 41.7754H28.1539C27.6392 41.7754 27.2231 42.1964 27.2231 42.7171V48.2565C27.2231 48.7772 27.6392 49.1981 28.1539 49.1981H33.6288C34.1435 49.1981 34.5596 48.7772 34.5596 48.2565V42.7171ZM32.6981 43.6588V47.3148H29.0846V43.6588H32.6981Z" fill="#00DA71"/>
<path fill-rule="evenodd" clip-rule="evenodd" d="M37.2794 21.4986H46.4043C46.919 21.4986 47.3351 21.0776 47.3351 20.5569C47.3351 20.0362 46.919 19.6152 46.4043 19.6152H37.2794C36.7647 19.6152 36.3486 20.0362 36.3486 20.5569C36.3486 21.0776 36.7647 21.4986 37.2794 21.4986Z" fill="#00DA71"/>
<path fill-rule="evenodd" clip-rule="evenodd" d="M37.2794 32.5767H46.4043C46.919 32.5767 47.3351 32.1558 47.3351 31.6351C47.3351 31.1144 46.919 30.6934 46.4043 30.6934H37.2794C36.7647 30.6934 36.3486 31.1144 36.3486 31.6351C36.3486 32.1558 36.7647 32.5767 37.2794 32.5767Z" fill="#00DA71"/>
<path fill-rule="evenodd" clip-rule="evenodd" d="M37.2794 25.1939H42.7543C43.2679 25.1939 43.6851 24.7729 43.6851 24.2522C43.6851 23.7315 43.2679 23.3105 42.7543 23.3105H37.2794C36.7658 23.3105 36.3486 23.7315 36.3486 24.2522C36.3486 24.7729 36.7658 25.1939 37.2794 25.1939Z" fill="#00DA71"/>
<path fill-rule="evenodd" clip-rule="evenodd" d="M37.2794 36.2721H42.7543C43.2679 36.2721 43.6851 35.8511 43.6851 35.3304C43.6851 34.8097 43.2679 34.3887 42.7543 34.3887H37.2794C36.7658 34.3887 36.3486 34.8097 36.3486 35.3304C36.3486 35.8511 36.7658 36.2721 37.2794 36.2721Z" fill="#00DA71"/>
<path fill-rule="evenodd" clip-rule="evenodd" d="M15.0149 44.5792H20.8548C21.3688 44.5792 21.7857 44.1578 21.7857 43.6382C21.7857 43.1186 21.3688 42.6973 20.8548 42.6973H15.0149C14.501 42.6973 14.084 43.1186 14.084 43.6382C14.084 44.1578 14.501 44.5792 15.0149 44.5792Z" fill="#00DA71"/>
<path fill-rule="evenodd" clip-rule="evenodd" d="M23.5737 20.5396H17.6107C16.8698 20.5396 16.1605 20.8372 15.6355 21.3665C14.6544 22.3611 12.5991 24.4405 11.6161 25.4332C11.093 25.9644 10.7988 26.682 10.7988 27.4317V45.4482C10.7988 47.0078 12.0499 48.2736 13.5914 48.2736H23.5737V50.9878C23.5737 52.5475 24.8248 53.8132 26.3662 53.8132H39.9714C39.9826 53.8208 39.9957 53.8283 40.0087 53.8339C44.1174 56.2355 49.3786 54.8078 51.7503 50.6507C53.9639 46.7705 52.8822 41.8732 49.386 39.287L51.5735 35.4539L54.5038 35.2523C54.8128 35.2316 55.0902 35.0546 55.2447 34.7833L59.0779 28.0665C59.2492 27.7651 59.2436 27.394 59.0612 27.0983C58.8787 26.8026 58.5511 26.633 58.2085 26.6575L55.4067 26.8515L54.1705 24.2974C54.0197 23.9866 53.7107 23.7832 53.3663 23.7719C53.0219 23.7587 52.6998 23.9395 52.5285 24.2409L50.9852 26.9457V17.8254C50.9852 16.2658 49.7341 15 48.1927 15C43.4733 15 31.0856 15 26.3662 15C24.8248 15 23.5737 16.2658 23.5737 17.8254V20.5396ZM46.8374 39.9877C43.7712 38.7276 40.1744 39.9161 38.4747 42.8959C36.6148 46.1527 37.7207 50.3229 40.9395 52.2028C44.1584 54.0845 48.2802 52.9656 50.1381 49.7089C51.8378 46.7309 51.0578 42.9864 48.4496 40.9314L47.4498 42.6812C49.1235 44.1655 49.5852 46.6895 48.4309 48.7125C47.1166 51.0161 44.2012 51.8072 41.9244 50.4774C39.6475 49.1457 38.8656 46.196 40.18 43.8924C41.3361 41.8675 43.7283 41.0124 45.8376 41.7394L46.8374 39.9877ZM49.1235 30.2081V17.8254C49.1235 17.3055 48.7065 16.8836 48.1927 16.8836C43.4733 16.8836 31.0856 16.8836 26.3662 16.8836C25.8524 16.8836 25.4354 17.3055 25.4354 17.8254V50.9878C25.4354 51.5077 25.8524 51.9296 26.3662 51.9296H37.7486C35.468 49.206 34.997 45.2203 36.8624 41.9542C39.0778 38.0721 43.8121 36.5709 47.7738 38.3452L49.9594 34.5159L48.6655 31.843C48.5296 31.5605 48.5408 31.229 48.6953 30.9578L49.1235 30.2081ZM44.877 43.4233C43.6892 43.1841 42.4307 43.7172 41.7922 44.8342C40.9917 46.2374 41.4683 48.0344 42.8552 48.8462C44.2422 49.6561 46.0182 49.1739 46.8187 47.7707C47.4554 46.6537 47.2842 45.2862 46.4874 44.367L45.1153 46.7724C44.8584 47.2225 44.2887 47.377 43.8438 47.1171C43.3988 46.8571 43.2462 46.2808 43.5031 45.8306L44.877 43.4233ZM19.048 22.4232V26.8779C19.048 28.4394 17.7969 29.7033 16.2554 29.7033H12.6605V45.4482C12.6605 45.9681 13.0775 46.39 13.5914 46.39H23.5737V39.0402H15.0155C14.5017 39.0402 14.0847 38.6183 14.0847 38.0984C14.0847 37.5786 14.5017 37.1567 15.0155 37.1567H23.5737V33.5025H15.0155C14.5017 33.5025 14.0847 33.0806 14.0847 32.5607C14.0847 32.0408 14.5017 31.6189 15.0155 31.6189H23.5737V22.4232H19.048ZM53.2676 26.714L54.0086 28.2473C54.1761 28.592 54.5317 28.7992 54.9078 28.7728L56.5926 28.656L53.882 33.4064L51.5735 33.5665L50.557 31.4644L53.2676 26.714ZM17.1863 22.5268C17.1006 22.5701 17.0224 22.6285 16.9517 22.6982C15.9706 23.6928 13.9153 25.7722 12.9323 26.7649C12.7592 26.942 12.6605 27.1812 12.6605 27.4317V27.8197H16.2554C16.7693 27.8197 17.1863 27.3978 17.1863 26.8779V22.5268Z" fill="#00DA71"/>
</svg>
