<svg width="70" height="70" viewBox="0 0 70 70" fill="none" xmlns="http://www.w3.org/2000/svg">
<rect x="0.000488281" width="70" height="70" rx="5.25" fill="#DEFFEE"/>
<path d="M55.2866 39.9831L50.2818 29.7463C50.8379 26.9544 50.5385 19.594 50.624 16.633C50.624 16.2523 50.2818 15.9562 49.8968 15.9985L46.5603 16.5061C43.1382 16.9714 39.5877 16.633 36.2512 15.4062C35.8662 15.2793 35.0962 14.8986 34.7968 15.0255C31.2036 16.5061 27.311 17.056 23.4611 16.5061L20.1245 16.0408C19.7396 15.9985 19.3973 16.2946 19.3973 16.6753C19.4401 19.4671 19.1835 26.8275 19.6968 29.4925L14.7347 39.6447C14.307 40.4484 14.692 41.506 15.5047 41.8444L18.2852 43.1557C19.0979 43.5787 20.1673 43.198 20.5095 42.3943L20.809 41.8021L21.9211 42.3097C22.3061 42.4789 22.5628 42.8173 22.6056 43.2403L22.6911 44.2132L21.8356 45.6938C20.8517 47.2589 22.1778 49.5008 24.06 49.3316C23.5039 51.4467 26.0277 53.181 27.8243 51.912C28.2948 53.0541 29.792 53.6886 30.9469 53.181C31.4175 55.2538 34.4118 55.6768 35.4812 53.8155L36.0801 52.758L37.8339 53.7732C39.2883 54.6616 41.2988 53.4771 41.256 51.7851C42.7104 52.0812 44.1648 50.7276 43.9509 49.247C45.3198 49.2893 46.5175 47.8088 46.1325 46.4975C47.5869 46.3283 48.4852 44.5939 47.8008 43.3249L49.3835 42.6481C49.7257 43.4941 50.8379 43.8748 51.6507 43.4941L54.4311 42.1828C55.3294 41.8444 55.6716 40.7868 55.2866 39.9831ZM20.6806 17.3944L23.29 17.7751C27.2682 18.325 31.2891 17.8174 35.0107 16.3369C38.7322 17.8174 42.796 18.325 46.7314 17.7751L49.3835 17.3944C49.3407 19.2133 49.4691 26.2776 49.2552 27.9696C48.7846 27.5889 48.1858 27.462 47.5869 27.6312C47.7152 26.2353 47.6725 21.4976 47.6725 20.0171C47.6725 19.6363 47.3303 19.3402 46.9453 19.3825C42.9671 19.9325 38.9889 19.5094 35.2246 18.1558C35.0962 18.1135 34.9251 18.1135 34.7968 18.1558C31.0325 19.5094 27.0115 19.9325 23.0761 19.3825C22.6911 19.3402 22.3489 19.6363 22.3489 20.0171C22.3489 21.2861 22.3061 26.0661 22.3917 27.2505C21.8356 27.0813 21.1939 27.2082 20.7234 27.6312C20.5951 26.2353 20.6806 18.9172 20.6806 17.3944ZM44.4642 32.4958C43.9509 32.7497 43.3948 33.0881 42.796 32.8766L39.5022 32.0305C37.9622 31.6075 36.4651 32.1574 35.2246 33.0881C34.5401 32.792 33.2569 32.0305 32.4869 31.9459C31.6314 31.6921 28.8937 32.3689 27.9526 32.4958C27.7387 32.5381 27.4821 32.4958 27.2682 32.4112L25.8138 31.6921L26.156 31.0153C26.6265 30.1693 26.3271 29.0695 25.4288 28.6465L23.7177 27.8427C23.5039 26.2776 23.6322 22.3013 23.5894 20.6939C27.4393 21.1169 31.3319 20.6516 34.9679 19.3825C38.6467 20.6939 42.4965 21.1169 46.3464 20.6939C46.3036 22.5551 46.432 26.4045 46.1753 28.2234L44.5498 29.0272C44.122 29.2387 43.8226 29.5771 43.6943 30.0001C43.3948 30.7615 44.1648 31.819 44.4642 32.4958ZM20.3812 39.8985L19.4401 41.8444C19.3546 42.0559 19.0979 42.1405 18.884 42.0559L16.1036 40.7445C15.8897 40.6599 15.8041 40.4061 15.8897 40.1946C16.2319 39.4332 21.3223 29.0695 21.4934 28.6465C21.5789 28.435 21.8356 28.3504 22.0495 28.435L24.8299 29.7463C25.0438 29.8309 25.1294 30.0847 25.0438 30.2962C24.7016 31.0576 20.8517 38.9679 20.3812 39.8985ZM23.4183 47.978C22.8622 47.6819 22.6483 46.9205 22.9905 46.3706L23.9744 44.6362L24.7444 43.3249C24.9155 43.0288 25.1721 42.8173 25.5143 42.775C26.4982 42.5212 27.3537 43.6633 26.7976 44.5093C26.6265 44.7631 26.3271 45.313 26.1988 45.5669L25.0438 47.555C24.7016 48.1049 23.9744 48.2741 23.4183 47.978ZM27.9526 49.7547C27.867 49.9239 27.6104 50.3892 27.5248 50.5584C26.7121 51.912 24.7016 50.7276 25.4288 49.3739C26.1132 48.2741 27.0971 46.4129 27.8243 45.3554C28.637 44.5516 30.0914 45.313 29.8348 46.4552C29.7492 46.7513 29.3214 47.3858 29.1931 47.6396C29.1931 47.5973 27.9526 49.7547 27.9526 49.7547ZM31.118 51.5313C30.3481 52.758 28.4659 51.8697 28.9792 50.5161L30.3053 48.2318C30.4764 47.978 30.8186 47.1743 31.0753 47.0051C31.8452 46.3706 33.043 46.9205 33.043 47.9357C33.043 48.2741 32.8291 48.6125 32.658 48.8663C32.3586 49.4585 31.503 50.9391 31.118 51.5313ZM36.1656 50.22L34.4118 53.2233C33.8129 54.2809 32.1447 53.8155 32.1875 52.6311C32.1875 52.4196 32.2302 52.2081 32.3586 52.0389C32.4013 51.9966 34.3263 48.6125 34.2835 48.7817C35.2246 47.8088 36.8501 48.9932 36.1656 50.22ZM39.8872 52.3773C39.5877 52.8426 38.9889 53.0118 38.5183 52.758L36.7217 51.7005C37.0212 51.1929 37.5345 50.4738 37.5345 49.8816C37.5773 49.9239 38.6894 50.5161 38.6894 50.5584L39.4594 51.0237C39.9727 51.2775 40.1438 51.8697 39.8872 52.3773ZM46.6458 44.8477C46.3892 45.313 45.7475 45.4823 45.277 45.2284C44.2504 44.6785 40.871 42.6904 39.8016 42.0136C39.0744 41.5906 38.4328 42.6481 39.16 43.0711L43.2237 45.4823L44.4642 46.2014C45.5764 46.8782 44.6353 48.5702 43.4376 47.9357C43.2665 47.8511 38.2189 44.7631 37.9195 44.5516C37.1923 44.1286 36.5506 45.1438 37.2351 45.6092L42.1971 48.6548C43.3948 49.3316 42.3254 51.1083 41.1705 50.4738L39.3739 49.4162L37.1495 48.1472C36.5506 47.2589 35.2673 46.8782 34.2835 47.3012C33.9413 45.9476 32.4441 45.1438 31.118 45.6092C30.8614 44.3824 29.5353 43.4941 28.252 43.7479C28.0809 41.4637 25.1294 40.6176 23.7605 42.4789C23.5466 41.8867 23.0761 41.3791 22.4772 41.1252L21.4078 40.6599C22.3061 38.7987 24.3166 34.6532 25.2577 32.7497C26.0704 33.1304 27.2254 33.9341 28.1665 33.6803L31.4603 33.1304C31.9736 33.0458 32.5297 33.1304 33.0002 33.3419L34.0268 33.8495L29.3214 36.9798C28.8509 37.2759 28.5942 37.7835 28.5515 38.3334C28.5087 38.8833 28.7653 39.3909 29.1931 39.7293L29.792 40.1946C30.562 40.8291 31.6314 41.0406 32.6152 40.7868L38.0906 39.3063C38.5183 39.1794 38.9461 39.264 39.2883 39.4755L46.2608 43.3672C46.3036 43.4518 46.3464 43.4941 46.4319 43.5787C46.8169 43.8748 46.9025 44.4247 46.6458 44.8477ZM47.0736 42.3943L39.93 38.418C39.5022 38.2065 39.0317 38.0373 38.5611 38.0373C38.1761 37.9104 32.7863 39.5178 32.3158 39.6024C31.7169 39.7716 31.0753 39.6447 30.6047 39.264L30.0059 38.7987C29.792 38.6295 29.792 38.2488 30.0486 38.0796C30.7331 37.6143 36.1229 34.061 36.6362 33.7226C37.4062 33.215 38.3472 33.0458 39.2028 33.2996L42.4965 34.1456C43.3521 34.3994 44.2504 34.1033 45.0203 33.6803L48.913 41.6329L47.0736 42.3943ZM54.1745 40.8291C54.1317 40.956 54.0461 41.0406 53.9606 41.083L51.1801 42.3943C50.6668 42.6058 50.4957 41.929 50.3246 41.5906C50.1963 41.4214 45.277 31.3114 44.9776 30.6769C44.892 30.4654 44.9776 30.2116 45.1914 30.127L47.9719 28.8157C48.143 28.7311 48.3141 28.7734 48.4424 28.9003C48.528 28.9003 49.0413 30.0847 49.0841 30.1693L54.1745 40.5753C54.1745 40.6176 54.1745 40.7445 54.1745 40.8291Z" fill="#00DA71"/>
</svg>
