<svg width="70" height="70" viewBox="0 0 70 70" fill="none" xmlns="http://www.w3.org/2000/svg">
<rect x="0.000488281" width="70" height="70" rx="5.25" fill="#DEFFEE"/>
<path d="M57.6091 15H12.3917C11.4326 15 10.6526 15.78 10.6526 16.7391V53.2609C10.6526 54.22 11.4326 55 12.3917 55H57.6091C58.5682 55 59.3482 54.22 59.3482 53.2609V16.7391C59.3482 15.78 58.5682 15 57.6091 15ZM57.6065 53.2609H12.3917V23.6957H57.6091L57.6065 53.2609ZM57.6091 21.9565H12.3917V16.7391H57.6091V21.9565ZM14.1308 19.3478C14.1308 18.8678 14.5204 18.4783 15.0004 18.4783H25.4352C25.9152 18.4783 26.3048 18.8678 26.3048 19.3478C26.3048 19.8278 25.9152 20.2174 25.4352 20.2174H15.0004C14.5204 20.2174 14.1308 19.8278 14.1308 19.3478ZM54.1308 19.3478C54.1308 18.8678 54.5195 18.4783 55.0004 18.4783C55.4813 18.4783 55.87 18.8678 55.87 19.3478C55.87 19.8278 55.4813 20.2174 55.0004 20.2174C54.5195 20.2174 54.1308 19.8278 54.1308 19.3478ZM35.0004 42.8261H53.2613C53.7413 42.8261 54.1308 42.4365 54.1308 41.9565V28.0435C54.1308 27.5635 53.7413 27.1739 53.2613 27.1739H35.0004C34.5204 27.1739 34.1308 27.5635 34.1308 28.0435V41.9565C34.1308 42.4365 34.5204 42.8261 35.0004 42.8261ZM46.0595 41.087L48.9135 37.6626L51.7674 41.087H46.0595ZM35.87 28.913H52.3917V39.12L49.5813 35.7478C49.2508 35.3513 48.5761 35.3513 48.2456 35.7478L45.53 39.0061L40.0021 32.6887C39.8343 32.4974 39.6004 32.3817 39.3369 32.3922C39.083 32.3948 38.8421 32.5096 38.6795 32.7052L35.87 36.0765V28.913ZM35.87 38.793L39.3648 34.6L44.4039 40.3591L43.8978 40.9661C43.8665 41.0026 43.8561 41.0478 43.8317 41.0878H35.87V38.793ZM46.3048 35.4348C47.743 35.4348 48.9135 34.2643 48.9135 32.8261C48.9135 31.3878 47.743 30.2174 46.3048 30.2174C44.8665 30.2174 43.6961 31.3878 43.6961 32.8261C43.6961 34.2643 44.8665 35.4348 46.3048 35.4348ZM46.3048 31.9565C46.7839 31.9565 47.1743 32.347 47.1743 32.8261C47.1743 33.3052 46.7839 33.6957 46.3048 33.6957C45.8256 33.6957 45.4352 33.3052 45.4352 32.8261C45.4352 32.347 45.8256 31.9565 46.3048 31.9565ZM15.0004 37.6087C15.0004 37.1287 15.39 36.7391 15.87 36.7391H29.783C30.263 36.7391 30.6526 37.1287 30.6526 37.6087C30.6526 38.0887 30.263 38.4783 29.783 38.4783H15.87C15.39 38.4783 15.0004 38.0887 15.0004 37.6087ZM15.0004 41.9565C15.0004 41.4765 15.39 41.087 15.87 41.087H29.783C30.263 41.087 30.6526 41.4765 30.6526 41.9565C30.6526 42.4365 30.263 42.8261 29.783 42.8261H15.87C15.39 42.8261 15.0004 42.4365 15.0004 41.9565ZM15.0004 47.1739C15.0004 46.6939 15.39 46.3043 15.87 46.3043H53.2613C53.7413 46.3043 54.1308 46.6939 54.1308 47.1739C54.1308 47.6539 53.7413 48.0435 53.2613 48.0435H15.87C15.39 48.0435 15.0004 47.6539 15.0004 47.1739ZM15.87 34.1304H29.783C30.263 34.1304 30.6526 33.7409 30.6526 33.2609V28.0435C30.6526 27.5635 30.263 27.1739 29.783 27.1739H15.87C15.39 27.1739 15.0004 27.5635 15.0004 28.0435V33.2609C15.0004 33.7409 15.39 34.1304 15.87 34.1304ZM16.7395 28.913H28.9135V32.3913H16.7395V28.913Z" fill="#00DA71"/>
</svg>
