<svg width="70" height="70" viewBox="0 0 70 70" fill="none" xmlns="http://www.w3.org/2000/svg">
<rect x="0.000488281" width="70" height="70" rx="5.25" fill="#DEFFEE"/>
<path d="M50.4269 15H19.574C19.2823 15 19.0449 15.2376 19.0449 15.5295V54.4705C19.0449 54.7624 19.2823 55 19.574 55H41.288C42.2389 55 43.0982 54.6009 43.7098 53.963C43.7124 53.9604 43.7149 53.9578 43.7175 53.9552L50.0102 47.6708C50.6115 47.0729 50.956 46.2424 50.956 45.3927V15.5295C50.956 15.2376 50.7185 15 50.4269 15ZM44.6427 51.5375V47.3672C45.5601 47.5054 47.2543 47.6927 48.7084 47.4771L44.6427 51.5375ZM49.898 45.3926C49.898 45.616 49.8632 45.8368 49.796 46.0487C48.5135 46.8236 45.3562 46.4426 44.2143 46.223C44.0621 46.1945 43.8994 46.2333 43.7769 46.3341C43.6556 46.4348 43.5846 46.5846 43.5846 46.7422V51.6433C43.5846 52.9103 42.555 53.9409 41.288 53.9409H20.1029V16.0591H49.8979L49.898 45.3926Z" fill="#00DA71"/>
<path d="M22.8785 41.4599C22.8785 43.7742 27.8074 45.0244 32.4446 45.0244C37.0818 45.0244 42.0107 43.7742 42.0107 41.4599V38.3861C42.349 37.792 45.2975 34.5718 45.7409 34.1229C46.2712 33.5882 50.8504 28.7852 48.5524 25.1135C47.7318 23.8014 46.6918 23.0472 45.4622 22.8741C44.0936 22.674 42.8199 23.2571 42.0107 23.7601V22.0612C42.1025 21.9011 42.1669 21.7338 42.1669 21.5503C42.1669 19.5007 36.0445 18.9531 32.4279 18.9531C28.8113 18.9531 22.689 19.5007 22.689 21.5503C22.689 21.7552 22.765 21.9411 22.8786 22.1169L22.8785 41.4599ZM42.0107 28.4995C42.0115 28.4972 42.0136 28.4957 42.0145 28.4933C42.0261 28.4623 43.1487 25.4415 44.9472 25.9568C44.955 25.9606 45.7731 26.2694 46.0827 27.0326C46.3033 27.5738 46.2271 28.2415 45.8568 29.0176C45.1214 30.561 43.4117 32.4879 42.1628 33.8956C42.1073 33.958 42.0639 34.0081 42.0106 34.0683V28.4995H42.0107ZM42.0107 35.6857C42.2533 35.39 42.5712 35.0285 42.9526 34.5981C44.2442 33.1439 46.0118 31.1511 46.8118 29.4722C47.3175 28.4106 47.4002 27.4498 47.057 26.6193C46.5615 25.4195 45.3551 24.9792 45.2751 24.9521C43.8057 24.5211 42.7195 25.3938 42.0107 26.3336V25.0461C42.4751 24.6797 43.8612 23.7094 45.319 23.9215C46.2235 24.0519 47.0105 24.6408 47.6569 25.674C49.5549 28.7077 45.177 33.1892 44.9899 33.379C44.9632 33.4058 43.1973 35.2499 42.0107 36.6772V35.6857ZM40.9527 41.4599C40.9527 42.506 37.7166 43.9653 32.4446 43.9653C27.1725 43.9653 23.9365 42.5059 23.9365 41.4599V22.9305C24.0344 22.9765 24.1274 23.0242 24.2344 23.0671C24.2375 23.0685 24.2407 23.0692 24.2437 23.0704C26.2994 23.8912 29.9506 24.1488 32.4277 24.1488C35.0524 24.1488 38.9864 23.857 40.9526 22.915V41.4599H40.9527ZM26.4818 22.5835C28.0991 22.2662 30.2018 22.0798 32.4278 22.0798C34.6537 22.0798 36.7562 22.2663 38.3733 22.5834C36.9171 22.8696 34.9292 23.0897 32.4278 23.0897C29.9271 23.0897 27.9378 22.8698 26.4818 22.5835ZM32.4278 20.0121C37.8225 20.0121 40.9475 21.0207 41.1101 21.5399C41.0685 21.6793 40.8233 21.8497 40.4007 22.0258C38.6467 21.3966 35.6996 21.0207 32.4278 21.0207C29.1552 21.0207 26.2073 21.3968 24.4535 22.0264C24.0403 21.8545 23.8 21.6878 23.7494 21.5503C23.9507 21.0066 27.0693 20.0121 32.4278 20.0121Z" fill="#00DA71"/>
<path d="M28.0486 27.0418C27.2564 27.7522 26.8847 28.7944 27.0731 29.9231C27.2705 31.0002 27.8396 31.9947 28.7182 32.7992C29.3866 33.4113 30.5247 34.3697 32.1517 35.4558C32.2394 35.5152 32.3427 35.5449 32.4445 35.5449C32.5464 35.5449 32.6484 35.5152 32.7374 35.4558C34.3644 34.3696 35.5024 33.4113 36.1708 32.7992C37.0495 31.9959 37.6186 31.0014 37.8327 29.8301C38.0044 28.7943 37.6327 27.7508 36.8405 27.0405C36.0431 26.3276 34.9606 26.0719 33.94 26.3599C33.2574 26.5536 32.7646 26.9269 32.4446 27.2484C32.1259 26.9269 31.6331 26.5536 30.9492 26.3599C29.9298 26.0681 28.8459 26.3277 28.0486 27.0418ZM31.984 28.3501C32.0782 28.5154 32.2536 28.6187 32.4445 28.6187C32.6342 28.6187 32.811 28.5154 32.9039 28.3501C32.9077 28.3424 33.3323 27.6321 34.2277 27.3776C34.8974 27.1904 35.6083 27.3569 36.136 27.8296C36.6573 28.2972 36.9025 28.9803 36.7772 29.7319C36.6211 30.5817 36.1643 31.3721 35.4573 32.0192C34.8574 32.5693 33.8586 33.4114 32.4445 34.3774C31.0304 33.4114 30.033 32.5693 29.4318 32.0192C28.7247 31.3708 28.2679 30.5805 28.0989 29.6571C27.9866 28.9804 28.2318 28.2972 28.7544 27.8296C29.1389 27.4848 29.6241 27.3014 30.1169 27.3014C30.2988 27.3014 30.4821 27.3273 30.6615 27.3776C31.5555 27.6308 31.9826 28.3462 31.984 28.3501Z" fill="#00DA71"/>
<path d="M34.6457 28.8441C34.9631 28.8441 35.2212 29.1011 35.2212 29.4189C35.2212 29.7108 35.4586 29.9484 35.7502 29.9484C36.0418 29.9484 36.2793 29.7108 36.2793 29.4189C36.2793 28.5187 35.5464 27.7852 34.6457 27.7852C34.3541 27.7852 34.1167 28.0228 34.1167 28.3147C34.1167 28.6065 34.3541 28.8441 34.6457 28.8441Z" fill="#00DA71"/>
<path d="M27.384 37.2422C27.0924 37.2422 26.855 37.4798 26.855 37.7717C26.855 38.0636 27.0924 38.3012 27.384 38.3012H37.8482C38.1398 38.3012 38.3772 38.0636 38.3772 37.7717C38.3772 37.4798 38.1398 37.2422 37.8482 37.2422H27.384Z" fill="#00DA71"/>
<path d="M32.616 39.7422H27.384C27.0924 39.7422 26.855 39.9798 26.855 40.2717C26.855 40.5636 27.0924 40.8012 27.384 40.8012H32.616C32.9077 40.8012 33.1451 40.5636 33.1451 40.2717C33.145 39.9798 32.9076 39.7422 32.616 39.7422Z" fill="#00DA71"/>
<path d="M30.0666 46.7031H23.4074C23.1158 46.7031 22.8784 46.9408 22.8784 47.2327V51.5178C22.8784 51.8096 23.1158 52.0473 23.4074 52.0473H30.0666C30.3582 52.0473 30.5956 51.8096 30.5956 51.5178V47.2327C30.5956 46.9408 30.3582 46.7031 30.0666 46.7031ZM29.5376 50.9883H23.9365V47.7622H29.5376V50.9883Z" fill="#00DA71"/>
<path d="M37.1113 45.9963C36.9126 45.7148 36.443 45.7148 36.2442 45.9963L32.9553 50.7051C32.8431 50.8665 32.8289 51.0783 32.9205 51.2526C33.0108 51.4283 33.1914 51.5381 33.3888 51.5381H39.968C40.1654 51.5381 40.346 51.4283 40.4363 51.2526C40.5279 51.0783 40.5137 50.8664 40.4014 50.7051L37.1113 45.9963ZM34.4031 50.4791L36.6778 47.2233L38.9538 50.4791H34.4031Z" fill="#00DA71"/>
</svg>
