<svg width="70" height="70" viewBox="0 0 70 70" fill="none" xmlns="http://www.w3.org/2000/svg">
<rect x="0.000488281" width="70" height="70" rx="5.25" fill="#DEFFEE"/>
<path d="M44.688 30H36.563V28.75H41.563C41.8945 28.75 42.2125 28.6183 42.4469 28.3839C42.6813 28.1495 42.813 27.8315 42.813 27.5V25C42.813 24.6685 42.6813 24.3505 42.4469 24.1161C42.2125 23.8817 41.8945 23.75 41.563 23.75H36.563V21.875C36.563 21.7092 36.4971 21.5503 36.3799 21.4331C36.2627 21.3158 36.1037 21.25 35.938 21.25C35.7722 21.25 35.6133 21.3158 35.496 21.4331C35.3788 21.5503 35.313 21.7092 35.313 21.875V43.125C35.313 43.2908 35.3788 43.4497 35.496 43.5669C35.6133 43.6842 35.7722 43.75 35.938 43.75C36.1037 43.75 36.2627 43.6842 36.3799 43.5669C36.4971 43.4497 36.563 43.2908 36.563 43.125V41.25H41.563C41.8945 41.25 42.2125 41.1183 42.4469 40.8839C42.6813 40.6495 42.813 40.3315 42.813 40V37.5C42.813 37.1685 42.6813 36.8505 42.4469 36.6161C42.2125 36.3817 41.8945 36.25 41.563 36.25H36.563V35H44.688C45.0195 35 45.3375 34.8683 45.5719 34.6339C45.8063 34.3995 45.938 34.0815 45.938 33.75V31.25C45.938 30.9185 45.8063 30.6005 45.5719 30.3661C45.3375 30.1317 45.0195 30 44.688 30ZM36.563 25H41.563V27.5H36.563V25ZM41.563 37.5V40H36.563V37.5H41.563ZM44.688 33.75H36.563V31.25H44.688V33.75Z" fill="#00DA71"/>
<path d="M24.3755 49.0625H31.2505C31.4162 49.0625 31.5752 48.9967 31.6924 48.8794C31.8096 48.7622 31.8755 48.6033 31.8755 48.4375C31.8755 48.2717 31.8096 48.1128 31.6924 47.9956C31.5752 47.8783 31.4162 47.8125 31.2505 47.8125H24.3755C24.2097 47.8125 24.0508 47.8783 23.9335 47.9956C23.8163 48.1128 23.7505 48.2717 23.7505 48.4375C23.7505 48.6033 23.8163 48.7622 23.9335 48.8794C24.0508 48.9967 24.2097 49.0625 24.3755 49.0625Z" fill="#00DA71"/>
<path d="M34.3755 50.3125H24.3755C24.2097 50.3125 24.0508 50.3783 23.9335 50.4956C23.8163 50.6128 23.7505 50.7717 23.7505 50.9375C23.7505 51.1033 23.8163 51.2622 23.9335 51.3794C24.0508 51.4967 24.2097 51.5625 24.3755 51.5625H34.3755C34.5412 51.5625 34.7002 51.4967 34.8174 51.3794C34.9346 51.2622 35.0005 51.1033 35.0005 50.9375C35.0005 50.7717 34.9346 50.6128 34.8174 50.4956C34.7002 50.3783 34.5412 50.3125 34.3755 50.3125Z" fill="#00DA71"/>
<path d="M50.4692 51.875V18.125C50.4683 17.2965 50.1388 16.5022 49.5529 15.9163C48.9671 15.3305 48.1728 15.0009 47.3442 15H26.563C26.2315 15 25.9135 15.1317 25.6791 15.3661L19.8979 21.1474C19.6634 21.3818 19.5317 21.6997 19.5317 22.0312V51.875C19.5327 52.7035 19.8622 53.4978 20.4481 54.0837C21.0339 54.6695 21.8282 54.9991 22.6567 55H47.3442C48.1728 54.9991 48.9671 54.6695 49.5529 54.0837C50.1388 53.4978 50.4683 52.7035 50.4692 51.875ZM26.563 16.25V20.1562C26.5626 20.6534 26.3649 21.1301 26.0134 21.4816C25.6618 21.8332 25.1851 22.0309 24.688 22.0312H20.7817L26.563 16.25ZM49.2192 51.875C49.2188 52.3722 49.0212 52.8488 48.6696 53.2004C48.3181 53.5519 47.8414 53.7496 47.3442 53.75H22.6567C22.1596 53.7496 21.6829 53.5519 21.3313 53.2004C20.9798 52.8488 20.7821 52.3722 20.7817 51.875V23.2812H24.688C25.5165 23.2803 26.3108 22.9508 26.8967 22.3649C27.4825 21.7791 27.8121 20.9848 27.813 20.1562V16.25H47.3442C47.8414 16.2504 48.3181 16.4481 48.6696 16.7996C49.0212 17.1512 49.2188 17.6278 49.2192 18.125V51.875Z" fill="#00DA71"/>
<path d="M34.063 42.9555V41.6848C32.0526 41.2709 30.2331 40.2098 28.8829 38.6639C27.5326 37.118 26.7259 35.1724 26.5862 33.1245H34.063V31.8745H26.5862C26.7043 30.0723 27.3433 28.3431 28.4256 26.8972L34.063 31.7185V30.0738L29.2399 25.9491C30.5481 24.6085 32.2281 23.6907 34.063 23.3141V22.043C31.6675 22.4751 29.4929 23.7165 27.9028 25.5596C27.8904 25.5718 27.8767 25.5821 27.8652 25.5956C27.855 25.6074 27.8481 25.6208 27.839 25.6332C26.63 27.0558 25.8177 28.7722 25.484 30.6091C25.1502 32.446 25.3069 34.3385 25.9382 36.0955C26.5695 37.8525 27.6531 39.4119 29.0796 40.6163C30.5061 41.8208 32.225 42.6276 34.063 42.9555Z" fill="#00DA71"/>
</svg>
