<svg width="70" height="70" viewBox="0 0 70 70" fill="none" xmlns="http://www.w3.org/2000/svg">
<rect width="70" height="70" rx="5.25" fill="#DEFFEE"/>
<path d="M52.0358 52.1163H17.9645C17.0716 52.115 16.2157 51.7596 15.5843 51.1283C14.9529 50.4969 14.5976 49.6409 14.5962 48.748V25.7575C14.6031 24.8682 14.9609 24.0177 15.5916 23.3908C16.2224 22.7639 17.0752 22.4115 17.9645 22.4102H22.8333C22.9725 22.4102 23.1059 22.4654 23.2043 22.5638C23.3027 22.6622 23.358 22.7957 23.358 22.9348C23.358 23.074 23.3027 23.2074 23.2043 23.3058C23.1059 23.4042 22.9725 23.4595 22.8333 23.4595H17.9645C17.3495 23.4595 16.7596 23.7038 16.3247 24.1387C15.8898 24.5736 15.6455 25.1634 15.6455 25.7785V48.748C15.6455 49.3631 15.8898 49.9529 16.3247 50.3878C16.7596 50.8227 17.3495 51.067 17.9645 51.067H52.0358C52.6509 51.067 53.2407 50.8227 53.6756 50.3878C54.1105 49.9529 54.3548 49.3631 54.3548 48.748V25.7575C54.3493 25.1461 54.1025 24.5616 53.6682 24.1313C53.2339 23.7009 52.6473 23.4594 52.0358 23.4595H47.167C47.0279 23.4595 46.8944 23.4042 46.796 23.3058C46.6976 23.2074 46.6424 23.074 46.6424 22.9348C46.6424 22.7957 46.6976 22.6622 46.796 22.5638C46.8944 22.4654 47.0279 22.4102 47.167 22.4102H52.0358C52.9288 22.4115 53.7847 22.7669 54.4161 23.3982C55.0475 24.0296 55.4028 24.8856 55.4042 25.7785V48.748C55.4028 49.6409 55.0475 50.4969 54.4161 51.1283C53.7847 51.7596 52.9288 52.115 52.0358 52.1163Z" fill="#00DA71"/>
<path d="M52.0359 49.9099H17.9645C17.6561 49.9085 17.3606 49.7853 17.1425 49.5672C16.9243 49.3491 16.8012 49.0536 16.7998 48.7451V25.7546C16.7998 25.4457 16.9225 25.1494 17.1409 24.931C17.3594 24.7126 17.6556 24.5898 17.9645 24.5898H22.8334C22.9725 24.5898 23.106 24.6451 23.2044 24.7435C23.3028 24.8419 23.358 24.9754 23.358 25.1145C23.358 25.2537 23.3028 25.3871 23.2044 25.4855C23.106 25.5839 22.9725 25.6392 22.8334 25.6392H17.9645C17.9339 25.6392 17.9046 25.6513 17.8829 25.673C17.8613 25.6946 17.8491 25.724 17.8491 25.7546V48.7451C17.8491 48.7757 17.8613 48.8051 17.8829 48.8268C17.9046 48.8484 17.9339 48.8606 17.9645 48.8606H52.0359C52.0665 48.8606 52.0959 48.8484 52.1175 48.8268C52.1392 48.8051 52.1513 48.7757 52.1513 48.7451V25.7546C52.1513 25.724 52.1392 25.6946 52.1175 25.673C52.0959 25.6513 52.0665 25.6392 52.0359 25.6392H47.1671C47.0279 25.6392 46.8945 25.5839 46.7961 25.4855C46.6977 25.3871 46.6424 25.2537 46.6424 25.1145C46.6424 24.9754 46.6977 24.8419 46.7961 24.7435C46.8945 24.6451 47.0279 24.5898 47.1671 24.5898H52.0359C52.3448 24.5898 52.6411 24.7126 52.8595 24.931C53.0779 25.1494 53.2006 25.4457 53.2006 25.7546V48.7451C53.1993 49.0536 53.0761 49.3491 52.858 49.5672C52.6398 49.7853 52.3444 49.9085 52.0359 49.9099Z" fill="#00DA71"/>
<path d="M55.7293 55H14.2813C13.8334 55.0007 13.3898 54.9132 12.9758 54.7424C12.5618 54.5717 12.1854 54.3211 11.8683 54.0049C11.5511 53.6887 11.2993 53.3131 11.1273 52.8996C10.9553 52.4861 10.8664 52.0428 10.8657 51.595C10.8657 51.4558 10.921 51.3224 11.0194 51.224C11.1178 51.1256 11.2512 51.0703 11.3904 51.0703H58.6097C58.7488 51.0703 58.8823 51.1256 58.9807 51.224C59.0791 51.3224 59.1343 51.4558 59.1343 51.595C59.133 52.4976 58.7738 53.3629 58.1355 54.0012C57.4972 54.6394 56.6319 54.9986 55.7293 55ZM11.9728 52.1196C12.0934 52.6392 12.386 53.1027 12.8031 53.4351C13.2202 53.7674 13.7374 53.9491 14.2708 53.9507H55.7188C56.2522 53.9491 56.7693 53.7674 57.1865 53.4351C57.6036 53.1027 57.8962 52.6392 58.0168 52.1196H11.9728Z" fill="#00DA71"/>
<path d="M47.1669 45.7817H22.8333C22.6941 45.7817 22.5607 45.7265 22.4623 45.6281C22.3639 45.5297 22.3086 45.3962 22.3086 45.2571V15.5247C22.3086 15.3855 22.3639 15.2521 22.4623 15.1537C22.5607 15.0553 22.6941 15 22.8333 15H47.1669C47.3061 15 47.4395 15.0553 47.5379 15.1537C47.6363 15.2521 47.6916 15.3855 47.6916 15.5247V45.2571C47.6916 45.3962 47.6363 45.5297 47.5379 45.6281C47.4395 45.7265 47.3061 45.7817 47.1669 45.7817ZM23.3579 44.7324H46.6423V16.0493H23.3579V44.7324Z" fill="#00DA71"/>
<path d="M43.3948 21.0767H26.6057C26.4666 21.0767 26.3331 21.0214 26.2347 20.923C26.1363 20.8246 26.0811 20.6912 26.0811 20.552C26.0811 20.4129 26.1363 20.2794 26.2347 20.181C26.3331 20.0826 26.4666 20.0273 26.6057 20.0273H43.3948C43.5339 20.0273 43.6674 20.0826 43.7658 20.181C43.8642 20.2794 43.9195 20.4129 43.9195 20.552C43.9195 20.6912 43.8642 20.8246 43.7658 20.923C43.6674 21.0214 43.5339 21.0767 43.3948 21.0767Z" fill="#00DA71"/>
<path d="M43.3948 25.9985H26.6057C26.4666 25.9985 26.3331 25.9433 26.2347 25.8449C26.1363 25.7465 26.0811 25.613 26.0811 25.4739C26.0811 25.3347 26.1363 25.2013 26.2347 25.1029C26.3331 25.0045 26.4666 24.9492 26.6057 24.9492H43.3948C43.5339 24.9492 43.6674 25.0045 43.7658 25.1029C43.8642 25.2013 43.9195 25.3347 43.9195 25.4739C43.9195 25.613 43.8642 25.7465 43.7658 25.8449C43.6674 25.9433 43.5339 25.9985 43.3948 25.9985Z" fill="#00DA71"/>
<path d="M36.2017 30.9165H26.6057C26.4666 30.9165 26.3331 30.8612 26.2347 30.7628C26.1363 30.6644 26.0811 30.531 26.0811 30.3918C26.0811 30.2527 26.1363 30.1192 26.2347 30.0209C26.3331 29.9225 26.4666 29.8672 26.6057 29.8672H36.207C36.3461 29.8672 36.4796 29.9225 36.578 30.0209C36.6764 30.1192 36.7316 30.2527 36.7316 30.3918C36.7316 30.531 36.6764 30.6644 36.578 30.7628C36.4796 30.8612 36.3461 30.9165 36.207 30.9165H36.2017Z" fill="#00DA71"/>
<path d="M31.0706 35.8345H26.6057C26.4666 35.8345 26.3331 35.7792 26.2347 35.6808C26.1363 35.5824 26.0811 35.449 26.0811 35.3098C26.0811 35.1707 26.1363 35.0372 26.2347 34.9388C26.3331 34.8404 26.4666 34.7852 26.6057 34.7852H31.0758C31.215 34.7852 31.3484 34.8404 31.4468 34.9388C31.5452 35.0372 31.6005 35.1707 31.6005 35.3098C31.6005 35.449 31.5452 35.5824 31.4468 35.6808C31.3484 35.7792 31.215 35.8345 31.0758 35.8345H31.0706Z" fill="#00DA71"/>
<path d="M43.3948 40.772H26.6057C26.4666 40.772 26.3331 40.7167 26.2347 40.6183C26.1363 40.5199 26.0811 40.3865 26.0811 40.2473C26.0811 40.1082 26.1363 39.9747 26.2347 39.8763C26.3331 39.7779 26.4666 39.7227 26.6057 39.7227H43.3948C43.5339 39.7227 43.6674 39.7779 43.7658 39.8763C43.8642 39.9747 43.9195 40.1082 43.9195 40.2473C43.9195 40.3865 43.8642 40.5199 43.7658 40.6183C43.6674 40.7167 43.5339 40.772 43.3948 40.772Z" fill="#00DA71"/>
<path d="M29.7112 40.7716C29.632 40.7734 29.5534 40.7572 29.4813 40.7242C29.4092 40.6913 29.3455 40.6424 29.295 40.5813C29.2446 40.5202 29.2086 40.4485 29.1898 40.3715C29.171 40.2945 29.1699 40.2143 29.1865 40.1368L30.1624 35.6037C30.1849 35.505 30.2338 35.4143 30.3041 35.3414L37.1718 28.4684C37.747 27.9206 38.5134 27.6194 39.3076 27.6291C40.1017 27.6388 40.8606 27.9586 41.4222 28.5202C41.9838 29.0818 42.3036 29.8407 42.3133 30.6348C42.323 31.429 42.0218 32.1954 41.474 32.7706L34.6168 39.6279C34.5463 39.6986 34.4571 39.7477 34.3597 39.7695L29.8214 40.7716H29.7112ZM31.1697 35.971L30.3932 39.5649L33.9872 38.7936L40.729 32.0308C41.1023 31.657 41.3119 31.1503 41.3119 30.6221C41.3119 30.0938 41.1023 29.5872 40.729 29.2134C40.35 28.8501 39.8453 28.6472 39.3203 28.6472C38.7953 28.6472 38.2906 28.8501 37.9116 29.2134L31.1697 35.971Z" fill="#00DA71"/>
<path d="M39.4856 34.5444C39.4162 34.5441 39.3475 34.5301 39.2836 34.5031C39.2196 34.476 39.1617 34.4366 39.1131 34.387L35.5559 30.8298C35.4582 30.7315 35.4033 30.5986 35.4033 30.46C35.4033 30.3213 35.4582 30.1884 35.5559 30.0901C35.6542 29.9923 35.7872 29.9375 35.9258 29.9375C36.0644 29.9375 36.1974 29.9923 36.2957 30.0901L39.8581 33.6473C39.9558 33.7456 40.0107 33.8785 40.0107 34.0171C40.0107 34.1557 39.9558 34.2887 39.8581 34.387C39.8095 34.4366 39.7516 34.476 39.6876 34.5031C39.6237 34.5301 39.555 34.5441 39.4856 34.5444Z" fill="#00DA71"/>
<path d="M34.2496 39.7776C34.1806 39.778 34.1121 39.7648 34.0482 39.7387C33.9843 39.7126 33.9261 39.6741 33.8771 39.6255L30.3147 36.0473C30.217 35.949 30.1621 35.816 30.1621 35.6774C30.1621 35.5388 30.217 35.4058 30.3147 35.3075C30.3634 35.2584 30.4215 35.2193 30.4854 35.1927C30.5493 35.1661 30.6179 35.1523 30.6872 35.1523C30.7564 35.1523 30.825 35.1661 30.889 35.1927C30.9529 35.2193 31.0109 35.2584 31.0597 35.3075L34.6169 38.8647C34.6906 38.9378 34.7409 39.0311 34.7616 39.1328C34.7822 39.2344 34.7723 39.34 34.733 39.436C34.6937 39.532 34.6268 39.6142 34.5407 39.6723C34.4547 39.7303 34.3534 39.7615 34.2496 39.7619V39.7776Z" fill="#00DA71"/>
</svg>
