<svg width="70" height="70" viewBox="0 0 70 70" fill="none" xmlns="http://www.w3.org/2000/svg">
<rect width="70" height="70" rx="5.25" fill="#DEFFEE"/>
<path d="M50.4033 15H27.1675C26.349 15.0009 25.5642 15.3264 24.9853 15.9052C24.4065 16.484 24.0808 17.2687 24.0798 18.0873V19.9811H22.9829C22.1643 19.9823 21.3796 20.3083 20.8011 20.8874C20.2225 21.4665 19.8973 22.2515 19.8969 23.0701V31.128C18.8833 31.6093 18.0271 32.3681 17.4275 33.3165C16.828 34.2649 16.5098 35.3639 16.5098 36.4859C16.5098 37.6079 16.828 38.7068 17.4275 39.6552C18.0271 40.6036 18.8833 41.3625 19.8969 41.8437V51.9127C19.8978 52.7311 20.2233 53.5158 20.802 54.0946C21.3807 54.6734 22.1653 54.999 22.9838 55H46.2187C47.0373 54.9991 47.8221 54.6736 48.4009 54.0948C48.9798 53.516 49.3055 52.7313 49.3065 51.9127V50.0189H50.4033L50.8708 49.983C50.998 49.9629 51.1239 49.9347 51.2475 49.8986C51.752 49.7523 52.2114 49.4808 52.5829 49.1094C52.9545 48.7381 53.2263 48.2789 53.3729 47.7745C53.4079 47.652 53.4351 47.5274 53.4544 47.4015L53.4818 47.1674L53.4902 18.0873C53.4893 17.2689 53.1638 16.4842 52.5851 15.9054C52.0064 15.3266 51.2218 15.001 50.4033 15ZM17.6841 36.4846C17.6854 35.2995 18.1272 34.1571 18.9236 33.2795C19.72 32.4019 20.8142 31.8516 21.9936 31.7355V37.3406C21.9936 37.4963 22.0555 37.6457 22.1656 37.7558C22.2757 37.866 22.4251 37.9278 22.5809 37.9278H27.0038C26.659 39.0131 25.9375 39.9393 24.9695 40.5391C24.0016 41.139 22.851 41.3729 21.7257 41.1986C20.6004 41.0243 19.5745 40.4534 18.8333 39.5889C18.0921 38.7244 17.6845 37.6233 17.6841 36.4846ZM46.2187 53.8259H22.9829C22.4757 53.8252 21.9895 53.6234 21.631 53.2648C21.2724 52.9061 21.0707 52.4199 21.0701 51.9127V42.2588C21.8654 42.4531 22.6923 42.4804 23.4986 42.3389C24.3049 42.1975 25.0731 41.8903 25.7547 41.4369C26.4363 40.9834 27.0164 40.3936 27.4585 39.7046C27.9006 39.0156 28.195 38.2424 28.3231 37.4338C28.3365 37.35 28.3316 37.2642 28.3086 37.1824C28.2857 37.1007 28.2453 37.0249 28.1902 36.9602C28.1352 36.8956 28.0668 36.8436 27.9897 36.808C27.9126 36.7723 27.8287 36.7538 27.7438 36.7538H23.1677V31.1288C23.1677 30.977 23.1089 30.8311 23.0037 30.7217C22.8984 30.6123 22.7549 30.5479 22.6032 30.542C22.5534 30.542 22.5041 30.5391 22.4547 30.5391C21.9881 30.5406 21.5234 30.5972 21.0701 30.7078V23.0701C21.0706 22.5629 21.2722 22.0765 21.6308 21.7178C21.9894 21.359 22.4757 21.1571 22.9829 21.1565H41.3705V26.3456C41.3705 26.5013 41.4323 26.6506 41.5423 26.7607C41.6524 26.8708 41.8017 26.9327 41.9573 26.9328H48.1324V51.9127C48.1317 52.42 47.9299 52.9063 47.5711 53.2649C47.2124 53.6236 46.726 53.8254 46.2187 53.8259ZM42.5442 21.8429L47.1279 25.7566H42.5442V21.8429ZM52.3161 46.9299V47.0143L52.3123 47.0767L52.3077 47.1269L52.2963 47.2193C52.2843 47.2978 52.2674 47.3754 52.2457 47.4517C52.1546 47.7652 51.9858 48.0505 51.755 48.2812C51.5241 48.5119 51.2387 48.6805 50.9252 48.7714C50.8381 48.7956 50.7494 48.814 50.6598 48.8267L50.5755 48.8364L50.5961 49.4236L50.516 48.841H49.3081V26.3439C49.3081 26.259 49.2896 26.1752 49.2541 26.0982C49.2186 26.0211 49.1668 25.9527 49.1023 25.8975L42.3383 20.1229C42.2323 20.0326 42.0978 19.9828 41.9586 19.9824H25.2547V18.0873C25.2554 17.58 25.4572 17.0937 25.816 16.735C26.1747 16.3764 26.6611 16.1746 27.1684 16.1741H50.4033C50.9105 16.1748 51.3967 16.3766 51.7553 16.7352C52.1139 17.0939 52.3156 17.5801 52.3161 18.0873V46.9299ZM27.6953 45.4039H24.605C24.4494 45.4041 24.3001 45.466 24.1901 45.5761C24.08 45.6862 24.0182 45.8355 24.0182 45.9912V51.4225C24.0182 51.5781 24.08 51.7275 24.1901 51.8376C24.3001 51.9477 24.4494 52.0096 24.605 52.0097H27.6953C27.851 52.0096 28.0002 51.9477 28.1103 51.8376C28.2203 51.7275 28.2821 51.5781 28.2821 51.4225V45.9912C28.2821 45.8355 28.2203 45.6862 28.1103 45.5761C28.0002 45.466 27.851 45.4041 27.6953 45.4039ZM27.108 50.8356H25.1923V46.578H27.108V50.8356ZM33.246 42.2141H30.1561C30.0004 42.2141 29.851 42.276 29.7409 42.3861C29.6307 42.4963 29.5689 42.6456 29.5689 42.8014V51.4225C29.5689 51.5782 29.6307 51.7276 29.7409 51.8377C29.851 51.9479 30.0004 52.0097 30.1561 52.0097H33.246C33.4016 52.0096 33.5509 51.9477 33.6609 51.8376C33.771 51.7275 33.8328 51.5781 33.8328 51.4225V42.8005C33.8326 42.645 33.7707 42.4959 33.6606 42.386C33.5506 42.276 33.4015 42.2142 33.246 42.2141ZM32.6587 50.8356H30.7429V43.3874H32.6587V50.8356ZM38.797 39.1083H35.7064C35.6292 39.1083 35.5529 39.1234 35.4816 39.153C35.4104 39.1825 35.3456 39.2257 35.2911 39.2803C35.2366 39.3348 35.1933 39.3995 35.1638 39.4708C35.1343 39.542 35.1191 39.6184 35.1191 39.6955V51.4237C35.1191 51.5795 35.181 51.7289 35.2911 51.839C35.4012 51.9491 35.5506 52.011 35.7064 52.011H38.797C38.9528 52.011 39.1022 51.9491 39.2123 51.839C39.3224 51.7289 39.3843 51.5795 39.3843 51.4237V39.6955C39.3843 39.5398 39.3224 39.3904 39.2123 39.2803C39.1022 39.1701 38.9528 39.1083 38.797 39.1083ZM38.2098 50.8365H36.2932V40.2823H38.2089L38.2098 50.8365ZM44.346 35.3628H41.2562C41.1005 35.3629 40.9512 35.4249 40.8412 35.535C40.7311 35.6451 40.6693 35.7944 40.6693 35.9501V51.4225C40.6693 51.5781 40.7311 51.7275 40.8412 51.8376C40.9512 51.9477 41.1005 52.0096 41.2562 52.0097H44.346C44.5018 52.0097 44.6511 51.9479 44.7613 51.8377C44.8714 51.7276 44.9333 51.5782 44.9333 51.4225V35.9501C44.9333 35.7943 44.8714 35.645 44.7613 35.5348C44.6511 35.4247 44.5018 35.3628 44.346 35.3628ZM43.7592 50.8356H41.8434V36.5373H43.7592V50.8356ZM24.4532 30.2087C24.3752 30.2066 24.2977 30.2203 24.2252 30.2489C24.1527 30.2776 24.0867 30.3206 24.0313 30.3754C23.9751 30.4303 23.9305 30.4959 23.9002 30.5684C23.8698 30.6409 23.8543 30.7187 23.8545 30.7972V35.5746C23.8546 35.7303 23.9165 35.8795 24.0267 35.9896C24.1368 36.0996 24.2861 36.1614 24.4418 36.1614H28.4142C28.5536 36.1613 28.6884 36.1117 28.7946 36.0214C28.9008 35.931 28.9714 35.8059 28.9938 35.6683C29.1008 35.0041 29.0642 34.3247 28.8867 33.6758C28.7091 33.0269 28.3947 32.4236 27.9645 31.9063C27.5343 31.3891 26.9984 30.97 26.3927 30.6772C25.7871 30.3844 25.1257 30.2246 24.4532 30.2087ZM27.878 34.9873H25.0278V31.4486C25.8287 31.6115 26.5493 32.045 27.0684 32.6763C27.5876 33.3076 27.8737 34.0983 27.8788 34.9156C27.8788 34.9397 27.8784 34.9637 27.878 34.9873ZM24.5502 23.7755C24.5501 23.6983 24.5652 23.6219 24.5947 23.5505C24.6241 23.4792 24.6674 23.4143 24.7219 23.3597C24.7764 23.3051 24.8412 23.2617 24.9125 23.2322C24.9838 23.2026 25.0603 23.1874 25.1374 23.1874H32.8021C32.8806 23.1853 32.9586 23.1989 33.0317 23.2275C33.1047 23.256 33.1713 23.2989 33.2275 23.3537C33.2837 23.4084 33.3284 23.4738 33.3589 23.5461C33.3894 23.6183 33.4051 23.696 33.4051 23.7744C33.4051 23.8529 33.3894 23.9305 33.3589 24.0028C33.3284 24.0751 33.2837 24.1405 33.2275 24.1952C33.1713 24.2499 33.1047 24.2928 33.0317 24.3214C32.9586 24.35 32.8806 24.3636 32.8021 24.3615H25.1374C24.9819 24.3615 24.8327 24.2998 24.7226 24.1899C24.6125 24.0801 24.5505 23.931 24.5502 23.7755ZM24.5502 26.6924C24.5502 26.5366 24.6121 26.3872 24.7222 26.2771C24.8323 26.167 24.9817 26.1051 25.1374 26.1051H38.2908C38.4438 26.1092 38.5891 26.1729 38.6958 26.2825C38.8026 26.3922 38.8623 26.5391 38.8623 26.6922C38.8623 26.8452 38.8026 26.9922 38.6958 27.1018C38.5891 27.2114 38.4438 27.2751 38.2908 27.2792H25.1374C24.9818 27.2792 24.8325 27.2174 24.7223 27.1073C24.6122 26.9973 24.5503 26.848 24.5502 26.6924ZM38.4646 31.5018C38.4646 31.5789 38.4494 31.6553 38.4199 31.7265C38.3904 31.7978 38.3471 31.8625 38.2926 31.917C38.2381 31.9716 38.1733 32.0148 38.1021 32.0443C38.0308 32.0738 37.9545 32.089 37.8773 32.089H31.3462C31.1905 32.089 31.0411 32.0272 30.931 31.917C30.8209 31.8069 30.759 31.6575 30.759 31.5018C30.759 31.346 30.8209 31.1967 30.931 31.0865C31.0411 30.9764 31.1905 30.9145 31.3462 30.9145H37.8773C38.0329 30.9145 38.1821 30.9762 38.2921 31.0861C38.4022 31.1959 38.4643 31.345 38.4646 31.5005V31.5018ZM38.4646 34.6659C38.4645 34.8216 38.4026 34.9708 38.2924 35.0809C38.1823 35.1909 38.033 35.2527 37.8773 35.2527H31.3462C31.2678 35.2548 31.1898 35.2412 31.1167 35.2126C31.0437 35.1841 30.9771 35.1412 30.9208 35.0864C30.8646 35.0317 30.82 34.9663 30.7895 34.894C30.759 34.8218 30.7432 34.7441 30.7432 34.6657C30.7432 34.5872 30.759 34.5096 30.7895 34.4373C30.82 34.365 30.8646 34.2996 30.9208 34.2449C30.9771 34.1902 31.0437 34.1473 31.1167 34.1187C31.1898 34.0901 31.2678 34.0765 31.3462 34.0786H37.8773C38.0325 34.0786 38.1814 34.14 38.2914 34.2494C38.4014 34.3588 38.4637 34.5073 38.4646 34.6625V34.6659Z" fill="#00DA71"/>
</svg>
