<svg width="71" height="70" viewBox="0 0 71 70" fill="none" xmlns="http://www.w3.org/2000/svg">
<rect x="0.5" width="70" height="70" rx="5.25" fill="#FFF2F8"/>
<path d="M37.0127 27.1992H29.7539V28.3992H37.0127V27.1992Z" fill="#FF007A"/>
<path d="M40.642 30.8008H29.7539V32.0007H40.642V30.8008Z" fill="#FF007A"/>
<path d="M40.642 34.3984H29.7539V35.5984H40.642V34.3984Z" fill="#FF007A"/>
<path d="M40.642 37.998H29.7539V39.198H40.642V37.998Z" fill="#FF007A"/>
<path d="M39.4322 41.5996H29.7539V42.7996H39.4322V41.5996Z" fill="#FF007A"/>
<path d="M52.1348 33.1994C51.3484 33.1994 50.683 33.6794 50.4411 34.3994H43.0613V28.7596L41.4886 27.1996L48.3239 20.4199C48.5659 20.5399 48.8078 20.5999 49.1103 20.5999C50.1386 20.5999 50.925 19.8199 50.925 18.7999C50.925 17.78 50.1386 17 49.1103 17C48.082 17 47.2956 17.78 47.2956 18.7999C47.2956 19.0999 47.3561 19.3399 47.4771 19.5799L40.6417 26.3597L39.069 24.7997H35.8026V20.4799C36.5284 20.2399 37.0124 19.5799 37.0124 18.7999C37.0124 17.78 36.226 17 35.1977 17C34.1693 17 33.383 17.78 33.383 18.7999C33.383 19.5799 33.8669 20.2399 34.5928 20.4799V24.7997H28.1809L22.9183 19.5799C23.0393 19.3399 23.0997 19.0999 23.0997 18.7999C23.0997 17.78 22.3134 17 21.2851 17C20.2567 17 19.4704 17.78 19.4704 18.7999C19.4704 19.8199 20.2567 20.5999 21.2851 20.5999C21.5875 20.5999 21.8295 20.5399 22.0714 20.4199L27.334 25.6397V34.3994H20.5592C20.3172 33.6794 19.6518 33.1994 18.8655 33.1994C17.8371 33.1994 17.0508 33.9794 17.0508 34.9993C17.0508 36.0193 17.8371 36.7993 18.8655 36.7993C19.6518 36.7993 20.3172 36.3193 20.5592 35.5993H27.334V44.359L22.0714 49.5788C21.8295 49.4588 21.5875 49.3988 21.2851 49.3988C20.2567 49.3988 19.4704 50.1788 19.4704 51.1988C19.4704 52.2187 20.2567 52.9987 21.2851 52.9987C22.3134 52.9987 23.0997 52.2187 23.0997 51.1988C23.0997 50.8988 23.0393 50.6588 22.9183 50.4188L28.1809 45.199H34.5928V49.5188C33.8669 49.7588 33.383 50.4188 33.383 51.1988C33.383 52.2187 34.1693 52.9987 35.1977 52.9987C36.226 52.9987 37.0124 52.2187 37.0124 51.1988C37.0124 50.4188 36.5284 49.7588 35.8026 49.5188V45.199H42.2145L47.4771 50.4188C47.3561 50.6588 47.2956 50.8988 47.2956 51.1988C47.2956 52.2187 48.082 52.9987 49.1103 52.9987C50.1386 52.9987 50.925 52.2187 50.925 51.1988C50.925 50.1788 50.1386 49.3988 49.1103 49.3988C48.8078 49.3988 48.5659 49.4588 48.3239 49.5788L43.0613 44.359V35.5993H50.4411C50.683 36.3193 51.3484 36.7993 52.1348 36.7993C53.1631 36.7993 53.9494 36.0193 53.9494 34.9993C53.9494 33.9794 53.1631 33.1994 52.1348 33.1994ZM49.1103 18.2C49.4732 18.2 49.7152 18.4399 49.7152 18.7999C49.7152 19.1599 49.4732 19.3999 49.1103 19.3999C48.7473 19.3999 48.5054 19.1599 48.5054 18.7999C48.5054 18.4399 48.7473 18.2 49.1103 18.2ZM35.1977 18.2C35.5606 18.2 35.8026 18.4399 35.8026 18.7999C35.8026 19.1599 35.5606 19.3999 35.1977 19.3999C34.8347 19.3999 34.5928 19.1599 34.5928 18.7999C34.5928 18.4399 34.8347 18.2 35.1977 18.2ZM18.8655 35.5993C18.5025 35.5993 18.2606 35.3593 18.2606 34.9993C18.2606 34.6394 18.5025 34.3994 18.8655 34.3994C19.2284 34.3994 19.4704 34.6394 19.4704 34.9993C19.4704 35.3593 19.2284 35.5993 18.8655 35.5993ZM35.1977 51.7987C34.8347 51.7987 34.5928 51.5588 34.5928 51.1988C34.5928 50.8388 34.8347 50.5988 35.1977 50.5988C35.5606 50.5988 35.8026 50.8388 35.8026 51.1988C35.8026 51.5588 35.5606 51.7987 35.1977 51.7987ZM39.4319 26.8396L41.0047 28.3996H39.4319V26.8396ZM20.6802 18.7999C20.6802 18.4399 20.9221 18.2 21.2851 18.2C21.648 18.2 21.89 18.4399 21.89 18.7999C21.89 19.1599 21.648 19.3999 21.2851 19.3999C20.9221 19.3999 20.6802 19.1599 20.6802 18.7999ZM21.2851 51.7987C20.9221 51.7987 20.6802 51.5588 20.6802 51.1988C20.6802 50.8388 20.9221 50.5988 21.2851 50.5988C21.648 50.5988 21.89 50.8388 21.89 51.1988C21.89 51.5588 21.648 51.7987 21.2851 51.7987ZM28.5438 43.999V25.9997H38.2221V29.5995H41.8515V43.999H28.5438ZM49.7152 51.1988C49.7152 51.5588 49.4732 51.7987 49.1103 51.7987C48.7473 51.7987 48.5054 51.5588 48.5054 51.1988C48.5054 50.8388 48.7473 50.5988 49.1103 50.5988C49.4732 50.5988 49.7152 50.8388 49.7152 51.1988ZM52.1348 35.5993C51.7718 35.5993 51.5299 35.3593 51.5299 34.9993C51.5299 34.6394 51.7718 34.3994 52.1348 34.3994C52.4977 34.3994 52.7397 34.6394 52.7397 34.9993C52.7397 35.3593 52.4977 35.5993 52.1348 35.5993Z" fill="#FF007A"/>
</svg>
