<svg width="71" height="70" viewBox="0 0 71 70" fill="none" xmlns="http://www.w3.org/2000/svg">
<rect x="0.5" width="70" height="70" rx="5.25" fill="#FFF2F8"/>
<path d="M21.5134 19.4022C21.9964 19.4022 22.388 19.0113 22.388 18.5292C22.388 18.0472 21.9964 17.6562 21.5134 17.6562C21.0303 17.6562 20.6387 18.0472 20.6387 18.5292C20.6387 19.0116 21.0303 19.4022 21.5134 19.4022Z" fill="#FF007A"/>
<path d="M18.4714 19.4022C18.9544 19.4022 19.346 19.0113 19.346 18.5292C19.346 18.0472 18.9544 17.6562 18.4714 17.6562C17.9883 17.6562 17.5967 18.0472 17.5967 18.5292C17.5967 19.0116 17.9883 19.4022 18.4714 19.4022Z" fill="#FF007A"/>
<path d="M15.4294 19.4022C15.9125 19.4022 16.304 19.0113 16.304 18.5292C16.304 18.0472 15.9125 17.6562 15.4294 17.6562C14.9463 17.6562 14.5547 18.0472 14.5547 18.5292C14.5547 19.0116 14.9463 19.4022 15.4294 19.4022Z" fill="#FF007A"/>
<path d="M38.9369 30.6166C45.3462 32.0755 50.2983 37.5236 51.1169 44.2627C50.7962 44.3804 50.567 44.6884 50.567 45.0505V47.4226C50.567 47.8859 50.9428 48.2616 51.4061 48.2616H53.7795C54.2424 48.2616 54.6185 47.8865 54.6185 47.4226V45.0505C54.6185 44.6056 54.2718 44.2413 53.8339 44.2133C53.2027 38.2861 49.8356 33.1803 45.0397 30.2276H50.8732C51.272 30.7353 51.8897 31.0685 52.5931 31.0685C53.8052 31.0685 54.7882 30.0862 54.7882 28.8741C54.7882 27.6619 53.8052 26.6797 52.5931 26.6797C51.8898 26.6797 51.2723 27.0128 50.8738 27.5206H37.8789H37.03L37.4416 28.263L38.6106 30.3715L38.719 30.567L38.9369 30.6166Z" fill="#FF007A" stroke="#FFF2F8"/>
<path d="M32.0622 30.6166L32.2801 30.567L32.3885 30.3716L33.5581 28.2631L33.9701 27.5206H33.1209H20.1252C19.7266 27.0129 19.1092 26.6797 18.406 26.6797C17.1939 26.6797 16.2109 27.662 16.2109 28.8741C16.2109 30.0862 17.1939 31.0685 18.406 31.0685C19.1095 31.0685 19.7269 30.7353 20.1256 30.2276H25.9591C21.1632 33.1803 17.7961 38.2861 17.1649 44.2133C16.7273 44.2413 16.3803 44.6049 16.3803 45.0505V47.4226C16.3803 47.8855 16.7554 48.2616 17.2193 48.2616H19.5927C20.0556 48.2616 20.4318 47.8865 20.4318 47.4226V45.0505C20.4318 44.6891 20.203 44.3805 19.8819 44.2626C20.7002 37.5236 25.6526 32.0755 32.0622 30.6166Z" fill="#FF007A" stroke="#FFF2F8"/>
<path d="M36.2247 27.9135L36.2309 27.9206L36.2379 27.9269C36.2633 27.9494 36.2856 27.9717 36.3081 27.9967C36.3282 28.0222 36.3469 28.0512 36.3699 28.0874C36.3815 28.107 36.3944 28.1237 36.4017 28.1332L36.403 28.1349L36.4126 28.1476L36.4149 28.1509C36.4151 28.1513 36.4153 28.1516 36.4154 28.1518C36.4154 28.1518 36.4154 28.1518 36.4154 28.1518C36.4155 28.152 36.4156 28.152 36.4156 28.152L41.7201 37.7196L41.7201 37.7196L41.7215 37.722C42.1397 38.4441 42.2806 39.3141 42.1041 40.1519C42.104 40.1521 42.104 40.1523 42.1039 40.1526L40.1002 49.2531L40.095 49.2767L40.0975 49.3008L40.403 52.265H38.1675H38.0175V52.2661H32.9848V52.265H32.8348H30.5992L30.9048 49.3008L30.9073 49.2767L30.9021 49.2531L28.8984 40.1702C28.8984 40.1699 28.8983 40.1696 28.8982 40.1692C28.7216 39.3141 28.8626 38.4438 29.2879 37.7046L29.2879 37.7046L29.289 37.7026L34.5867 28.152C34.5868 28.1519 34.5869 28.1517 34.587 28.1515C34.5885 28.149 34.5909 28.1455 34.5986 28.1352L34.5997 28.1338C34.6065 28.1247 34.618 28.1094 34.629 28.0908C34.6526 28.0536 34.6717 28.0241 34.6954 27.9951L34.6955 27.9951L34.6977 27.9922C34.7089 27.9779 34.7205 27.9666 34.7383 27.9493C34.7464 27.9415 34.7558 27.9324 34.767 27.9212C34.7796 27.9087 34.7891 27.8989 34.797 27.8908C34.8121 27.8753 34.8213 27.8659 34.8353 27.855L34.8353 27.855L34.8382 27.8527C34.8641 27.8315 34.8893 27.8147 34.9237 27.7919C34.9297 27.7879 34.9359 27.7838 34.9425 27.7794L34.9902 27.7476C34.9948 27.7458 34.9997 27.7436 35.0049 27.741L35.0049 27.7411L35.0089 27.7389C35.0429 27.7206 35.0778 27.7069 35.1219 27.6899C35.1418 27.6831 35.1596 27.6757 35.1735 27.6698C35.1767 27.6685 35.1796 27.6672 35.1823 27.6661C35.1899 27.6628 35.1959 27.6603 35.2014 27.6581C35.2329 27.6506 35.2655 27.6451 35.3039 27.6387L35.3039 27.6387L35.3061 27.6383C35.3237 27.6351 35.3417 27.6311 35.3555 27.628C35.3592 27.6272 35.3626 27.6264 35.3656 27.6257C35.3813 27.6223 35.3911 27.6205 35.3989 27.6196C35.4178 27.6181 35.4307 27.6186 35.4494 27.6192C35.4631 27.6197 35.4799 27.6203 35.5045 27.6203C35.5295 27.6203 35.5452 27.6196 35.5574 27.6192C35.5733 27.6185 35.5834 27.6181 35.6002 27.6197C35.6173 27.6212 35.6291 27.6238 35.6467 27.6276C35.6597 27.6305 35.6758 27.634 35.6996 27.6383L35.7264 27.4909L35.6996 27.6383C35.7051 27.6393 35.7104 27.6403 35.7155 27.6412C35.7476 27.647 35.7743 27.6518 35.7989 27.6582C35.8074 27.6612 35.8166 27.665 35.8298 27.6704L35.8312 27.671C35.8441 27.6763 35.8614 27.6834 35.8804 27.6899C35.9217 27.7058 35.955 27.7189 35.987 27.7355C35.995 27.7405 36.0023 27.744 36.0078 27.7464C36.0094 27.7471 36.011 27.7478 36.0126 27.7484C36.0156 27.7506 36.0188 27.7529 36.0223 27.7555L36.0231 27.756C36.0321 27.7625 36.0436 27.7709 36.0564 27.7794C36.0727 27.7904 36.0866 27.7993 36.099 27.8072C36.1242 27.8235 36.1428 27.8354 36.1626 27.8514C36.1838 27.8699 36.2056 27.8917 36.2247 27.9135ZM40.062 39.7177L40.062 39.7177L40.0625 39.7151C40.1277 39.3927 40.0741 39.0456 39.9027 38.7478L36.4858 32.5865L36.2046 32.0795V32.6593V37.7838V37.8801L36.2923 37.9202C36.9573 38.2242 37.42 38.899 37.42 39.6854C37.42 40.7545 36.5571 41.6248 35.5011 41.6248C34.4415 41.6248 33.5788 40.7544 33.5788 39.6854C33.5788 38.8994 34.0446 38.2244 34.71 37.9202L34.7976 37.8801V37.7838V32.6593V32.0799L34.5165 32.5865L31.1065 38.7307C31.1064 38.7309 31.1062 38.731 31.1061 38.7312C30.929 39.0443 30.8705 39.3921 30.9436 39.7307L30.9437 39.7313L32.8521 48.3962L32.8781 48.5139H32.9986H38.0002H38.1207L38.1467 48.3962L40.062 39.7177Z" fill="#FF007A" stroke="#FFF2F8" stroke-width="0.3"/>
<path d="M57.1983 14H13.8016C11.6473 14 9.89453 15.7521 9.89453 17.906V52.0943C9.89453 54.2483 11.6473 56 13.8016 56H57.1979C59.3525 56 61.105 54.2479 61.105 52.0943V17.906C61.1053 15.7521 59.3525 14 57.1983 14ZM13.8016 16.3898H57.1979C58.0344 16.3898 58.7151 17.0699 58.7151 17.9057V20.6885H12.2844V17.906C12.2844 17.0699 12.9651 16.3898 13.8016 16.3898ZM57.1983 53.6105H13.8016C12.9651 53.6105 12.2844 52.9304 12.2844 52.0947V22.3958H58.7155V52.0943C58.7155 52.9304 58.0347 53.6105 57.1983 53.6105Z" fill="#FF007A"/>
</svg>
