<svg width="71" height="70" viewBox="0 0 71 70" fill="none" xmlns="http://www.w3.org/2000/svg">
<rect x="0.5" width="70" height="70" rx="5.25" fill="#FFF2F8"/>
<path d="M42.8435 15H28.1571C27.2722 15.0011 26.4239 15.3526 25.7981 15.9775C25.1724 16.6024 24.8204 17.4496 24.8193 18.3333V51.6667C24.8204 52.5504 25.1724 53.3976 25.7981 54.0225C26.4239 54.6474 27.2722 54.9989 28.1571 55H42.8435C43.7284 54.9989 44.5768 54.6474 45.2025 54.0225C45.8283 53.3976 46.1803 52.5504 46.1813 51.6667V18.3333C46.1803 17.4496 45.8283 16.6024 45.2025 15.9775C44.5768 15.3526 43.7284 15.0011 42.8435 15ZM37.503 51.6667C37.503 52.0622 37.3856 52.4489 37.1655 52.7778C36.9455 53.1067 36.6327 53.3631 36.2667 53.5144C35.9008 53.6658 35.4981 53.7054 35.1096 53.6282C34.7212 53.5511 34.3643 53.3606 34.0842 53.0809C33.8041 52.8012 33.6134 52.4448 33.5361 52.0568C33.4589 51.6689 33.4985 51.2668 33.6501 50.9013C33.8017 50.5359 34.0584 50.2235 34.3877 50.0037C34.717 49.784 35.1042 49.6667 35.5003 49.6667C36.0315 49.6667 36.5409 49.8774 36.9165 50.2525C37.292 50.6275 37.503 51.1362 37.503 51.6667ZM26.1545 48.3333V22.3333H44.8462V48.3333H26.1545ZM26.1545 51.6667V49.6667H32.8474C32.4036 50.2391 32.1627 50.9426 32.1627 51.6667C32.1627 52.3907 32.4036 53.0942 32.8474 53.6667H28.1571C27.626 53.6667 27.1166 53.456 26.741 53.0809C26.3655 52.7058 26.1545 52.1971 26.1545 51.6667ZM44.8462 51.6667C44.8462 52.1971 44.6352 52.7058 44.2596 53.0809C43.8841 53.456 43.3747 53.6667 42.8435 53.6667H38.1532C38.5971 53.0942 38.838 52.3907 38.838 51.6667C38.838 50.9426 38.5971 50.2391 38.1532 49.6667H44.8462V51.6667ZM26.1545 21V18.3333C26.1545 17.8029 26.3655 17.2942 26.741 16.9191C27.1166 16.544 27.626 16.3333 28.1571 16.3333H42.8435C43.3747 16.3333 43.8841 16.544 44.2596 16.9191C44.6352 17.2942 44.8462 17.8029 44.8462 18.3333V21H26.1545Z" fill="#FF007A"/>
<path d="M37.5028 18.332H30.8271V19.6654H37.5028V18.332Z" fill="#FF007A"/>
<path d="M32.8302 28.332H30.1599C29.6288 28.332 29.1194 28.5427 28.7438 28.9178C28.3682 29.2929 28.1572 29.8016 28.1572 30.332V32.9987C28.1572 33.5291 28.3682 34.0378 28.7438 34.4129C29.1194 34.788 29.6288 34.9987 30.1599 34.9987H32.8302C33.3613 34.9987 33.8707 34.788 34.2463 34.4129C34.6219 34.0378 34.8329 33.5291 34.8329 32.9987V30.332C34.8329 29.8016 34.6219 29.2929 34.2463 28.9178C33.8707 28.5427 33.3613 28.332 32.8302 28.332ZM33.4977 32.9987C33.4977 33.1755 33.4274 33.3451 33.3022 33.4701C33.177 33.5951 33.0072 33.6654 32.8302 33.6654H30.1599C29.9829 33.6654 29.8131 33.5951 29.6879 33.4701C29.5627 33.3451 29.4924 33.1755 29.4924 32.9987V30.332C29.4924 30.1552 29.5627 29.9857 29.6879 29.8606C29.8131 29.7356 29.9829 29.6654 30.1599 29.6654H32.8302C33.0072 29.6654 33.177 29.7356 33.3022 29.8606C33.4274 29.9857 33.4977 30.1552 33.4977 30.332V32.9987Z" fill="#FF007A"/>
<path d="M40.8409 28.332H38.1707C37.6395 28.332 37.1301 28.5427 36.7545 28.9178C36.379 29.2929 36.168 29.8016 36.168 30.332V32.9987C36.168 33.5291 36.379 34.0378 36.7545 34.4129C37.1301 34.788 37.6395 34.9987 38.1707 34.9987H40.8409C41.3721 34.9987 41.8814 34.788 42.257 34.4129C42.6326 34.0378 42.8436 33.5291 42.8436 32.9987V30.332C42.8436 29.8016 42.6326 29.2929 42.257 28.9178C41.8814 28.5427 41.3721 28.332 40.8409 28.332ZM41.5085 32.9987C41.5085 33.1755 41.4381 33.3451 41.3129 33.4701C41.1878 33.5951 41.018 33.6654 40.8409 33.6654H38.1707C37.9936 33.6654 37.8238 33.5951 37.6986 33.4701C37.5734 33.3451 37.5031 33.1755 37.5031 32.9987V30.332C37.5031 30.1552 37.5734 29.9857 37.6986 29.8606C37.8238 29.7356 37.9936 29.6654 38.1707 29.6654H40.8409C41.018 29.6654 41.1878 29.7356 41.3129 29.8606C41.4381 29.9857 41.5085 30.1552 41.5085 30.332V32.9987Z" fill="#FF007A"/>
<path d="M32.8302 36.332H30.1599C29.6288 36.332 29.1194 36.5427 28.7438 36.9178C28.3682 37.2929 28.1572 37.8016 28.1572 38.332V40.9987C28.1572 41.5291 28.3682 42.0378 28.7438 42.4129C29.1194 42.788 29.6288 42.9987 30.1599 42.9987H32.8302C33.3613 42.9987 33.8707 42.788 34.2463 42.4129C34.6219 42.0378 34.8329 41.5291 34.8329 40.9987V38.332C34.8329 37.8016 34.6219 37.2929 34.2463 36.9178C33.8707 36.5427 33.3613 36.332 32.8302 36.332ZM33.4977 40.9987C33.4977 41.1755 33.4274 41.3451 33.3022 41.4701C33.177 41.5951 33.0072 41.6654 32.8302 41.6654H30.1599C29.9829 41.6654 29.8131 41.5951 29.6879 41.4701C29.5627 41.3451 29.4924 41.1755 29.4924 40.9987V38.332C29.4924 38.1552 29.5627 37.9857 29.6879 37.8606C29.8131 37.7356 29.9829 37.6654 30.1599 37.6654H32.8302C33.0072 37.6654 33.177 37.7356 33.3022 37.8606C33.4274 37.9857 33.4977 38.1552 33.4977 38.332V40.9987Z" fill="#FF007A"/>
<path d="M40.8409 36.332H38.1707C37.6395 36.332 37.1301 36.5427 36.7545 36.9178C36.379 37.2929 36.168 37.8016 36.168 38.332V40.9987C36.168 41.5291 36.379 42.0378 36.7545 42.4129C37.1301 42.788 37.6395 42.9987 38.1707 42.9987H40.8409C41.3721 42.9987 41.8814 42.788 42.257 42.4129C42.6326 42.0378 42.8436 41.5291 42.8436 40.9987V38.332C42.8436 37.8016 42.6326 37.2929 42.257 36.9178C41.8814 36.5427 41.3721 36.332 40.8409 36.332ZM41.5085 40.9987C41.5085 41.1755 41.4381 41.3451 41.3129 41.4701C41.1878 41.5951 41.018 41.6654 40.8409 41.6654H38.1707C37.9936 41.6654 37.8238 41.5951 37.6986 41.4701C37.5734 41.3451 37.5031 41.1755 37.5031 40.9987V38.332C37.5031 38.1552 37.5734 37.9857 37.6986 37.8606C37.8238 37.7356 37.9936 37.6654 38.1707 37.6654H40.8409C41.018 37.6654 41.1878 37.7356 41.3129 37.8606C41.4381 37.9857 41.5085 38.1552 41.5085 38.332V40.9987Z" fill="#FF007A"/>
<path d="M28.8244 26.3346V25.0013H30.1595C30.3366 25.0013 30.5064 24.9311 30.6315 24.806C30.7567 24.681 30.8271 24.5114 30.8271 24.3346C30.8271 24.1578 30.7567 23.9883 30.6315 23.8632C30.5064 23.7382 30.3366 23.668 30.1595 23.668H28.1568C27.9798 23.668 27.81 23.7382 27.6848 23.8632C27.5596 23.9883 27.4893 24.1578 27.4893 24.3346V26.3346C27.4893 26.5114 27.5596 26.681 27.6848 26.806C27.81 26.9311 27.9798 27.0013 28.1568 27.0013C28.3339 27.0013 28.5037 26.9311 28.6289 26.806C28.7541 26.681 28.8244 26.5114 28.8244 26.3346Z" fill="#FF007A"/>
<path d="M34.1648 23.668H32.8297C32.6526 23.668 32.4828 23.7382 32.3576 23.8632C32.2324 23.9883 32.1621 24.1578 32.1621 24.3346C32.1621 24.5114 32.2324 24.681 32.3576 24.806C32.4828 24.9311 32.6526 25.0013 32.8297 25.0013H34.1648C34.3418 25.0013 34.5116 24.9311 34.6368 24.806C34.762 24.681 34.8324 24.5114 34.8324 24.3346C34.8324 24.1578 34.762 23.9883 34.6368 23.8632C34.5116 23.7382 34.3418 23.668 34.1648 23.668Z" fill="#FF007A"/>
<path d="M40.173 18.332H38.8379V19.6654H40.173V18.332Z" fill="#FF007A"/>
</svg>
