<svg width="71" height="70" viewBox="0 0 71 70" fill="none" xmlns="http://www.w3.org/2000/svg">
<rect x="0.5" width="70" height="70" rx="5.25" fill="#FFF2F8"/>
<path d="M36.1668 45.666H34.8335V46.9993H36.1668V45.666Z" fill="#FF007A"/>
<path d="M33.4998 45.666H32.1665V46.9993H33.4998V45.666Z" fill="#FF007A"/>
<path d="M30.8333 45.666H29.5V46.9993H30.8333V45.666Z" fill="#FF007A"/>
<path d="M41.4998 45.666H40.1665V46.9993H41.4998V45.666Z" fill="#FF007A"/>
<path d="M38.8333 45.666H37.5V46.9993H38.8333V45.666Z" fill="#FF007A"/>
<path d="M36.1668 48.334H34.8335V49.6673H36.1668V48.334Z" fill="#FF007A"/>
<path d="M33.4998 48.334H32.1665V49.6673H33.4998V48.334Z" fill="#FF007A"/>
<path d="M38.8333 48.334H37.5V49.6673H38.8333V48.334Z" fill="#FF007A"/>
<path d="M38.8332 51H32.1665V52.3333H38.8332V51Z" fill="#FF007A"/>
<path d="M53.5 45.6667C53.0055 45.6647 52.5287 45.8511 52.1667 46.188C51.8026 45.8543 51.3272 45.6684 50.8333 45.6667C50.3388 45.6647 49.8621 45.8511 49.5 46.188C49.1359 45.8543 48.6605 45.6684 48.1667 45.6667C47.9394 45.6677 47.714 45.7074 47.5 45.784V43.6667C47.5 43.4899 47.4298 43.3203 47.3047 43.1953C47.1797 43.0702 47.0101 43 46.8333 43H17.8333C17.5681 43 17.3138 42.8946 17.1262 42.7071C16.9387 42.5196 16.8333 42.2652 16.8333 42C16.8333 41.7348 16.9387 41.4804 17.1262 41.2929C17.3138 41.1054 17.5681 41 17.8333 41H24.5C25.1188 41 25.7123 40.7542 26.1499 40.3166C26.5875 39.879 26.8333 39.2855 26.8333 38.6667V37.6667H31.9087L31.02 40.3333H29.5V41.6667H41.5V40.3333H39.98L39.0913 37.6667H48.8333C49.5406 37.6667 50.2189 37.3857 50.719 36.8856C51.219 36.3855 51.5 35.7072 51.5 35V17.6667C51.5 16.9594 51.219 16.2811 50.719 15.781C50.2189 15.281 49.5406 15 48.8333 15H22.1667C21.4594 15 20.7811 15.281 20.281 15.781C19.781 16.2811 19.5 16.9594 19.5 17.6667V35C19.5 35.7072 19.781 36.3855 20.281 36.8856C20.7811 37.3857 21.4594 37.6667 22.1667 37.6667H25.5V38.6667C25.5 38.9319 25.3946 39.1862 25.2071 39.3738C25.0196 39.5613 24.7652 39.6667 24.5 39.6667H17.8333C17.2145 39.6667 16.621 39.9125 16.1834 40.3501C15.7458 40.7877 15.5 41.3812 15.5 42C15.5 42.6188 15.7458 43.2123 16.1834 43.6499C16.621 44.0875 17.2145 44.3333 17.8333 44.3333H23.5V45.784C23.1616 45.6618 22.796 45.6348 22.4433 45.7062C22.0906 45.7776 21.7643 45.9445 21.5 46.1887C21.1374 45.8525 20.6611 45.666 20.1667 45.6667C19.6728 45.6687 19.1973 45.8548 18.8333 46.1887C18.4708 45.8525 17.9944 45.666 17.5 45.6667C16.9696 45.6667 16.4609 45.8774 16.0858 46.2525C15.7107 46.6275 15.5 47.1362 15.5 47.6667V55H16.8333V47.6667C16.8333 47.4899 16.9036 47.3203 17.0286 47.1953C17.1536 47.0702 17.3232 47 17.5 47C17.589 46.9998 17.6771 47.0179 17.7589 47.0531C17.8406 47.0883 17.9143 47.1399 17.9753 47.2047C18.0366 47.2649 18.0852 47.3368 18.118 47.4162C18.1509 47.4956 18.1675 47.5808 18.1667 47.6667V50.3333H19.5V47.6667C19.5 47.4899 19.5702 47.3203 19.6953 47.1953C19.8203 47.0702 19.9899 47 20.1667 47C20.2557 46.9998 20.3438 47.0179 20.4255 47.0531C20.5073 47.0883 20.581 47.1399 20.642 47.2047C20.7033 47.2649 20.7518 47.3368 20.7847 47.4162C20.8176 47.4956 20.8341 47.5808 20.8333 47.6667V50.3333H22.1667V47.6667C22.1667 47.4899 22.2369 47.3203 22.3619 47.1953C22.487 47.0702 22.6565 47 22.8333 47C22.9223 46.9998 23.0104 47.0179 23.0922 47.0531C23.174 47.0883 23.2476 47.1399 23.3087 47.2047C23.37 47.2649 23.4185 47.3368 23.4514 47.4162C23.4842 47.4956 23.5008 47.5808 23.5 47.6667V50.3333H24.8333V47.6667C24.8333 47.4899 24.9036 47.3203 25.0286 47.1953C25.1536 47.0702 25.3232 47 25.5 47C25.589 46.9998 25.6771 47.0179 25.7589 47.0531C25.8406 47.0883 25.9143 47.1399 25.9753 47.2047C26.0366 47.2649 26.0852 47.3368 26.118 47.4162C26.1509 47.4956 26.1675 47.5808 26.1667 47.6667V51.6667C26.1667 51.7847 26.198 51.9005 26.2575 52.0025C26.3169 52.1044 26.4024 52.1887 26.5051 52.2468C26.6078 52.3049 26.7241 52.3347 26.8421 52.3332C26.9601 52.3316 27.0755 52.2988 27.1767 52.238L29.5033 50.8453C29.6281 50.7696 29.7773 50.7449 29.9198 50.7763C30.0623 50.8077 30.1873 50.8928 30.2687 51.014C30.3091 51.0759 30.3369 51.1452 30.3504 51.2179C30.3639 51.2906 30.363 51.3652 30.3475 51.4375C30.3321 51.5099 30.3025 51.5784 30.2605 51.6392C30.2185 51.7001 30.1648 51.752 30.1027 51.792L27.1293 53.7793C27.0105 53.8589 26.9204 53.9745 26.8724 54.1091C26.8243 54.2437 26.8207 54.3902 26.8623 54.527C26.9038 54.6638 26.9882 54.7836 27.1031 54.8688C27.2179 54.954 27.357 55 27.5 55H43.5C43.643 55 43.7821 54.954 43.8969 54.8688C44.0118 54.7836 44.0962 54.6638 44.1377 54.527C44.1793 54.3902 44.1757 54.2437 44.1276 54.1091C44.0796 53.9745 43.9895 53.8589 43.8707 53.7793L40.8887 51.7867C40.7655 51.7044 40.6799 51.5767 40.6508 51.4315C40.6217 51.2862 40.6514 51.1354 40.7333 51.012C40.8147 50.8904 40.9401 50.8051 41.0831 50.7741C41.2262 50.7432 41.3756 50.7689 41.5 50.846L43.826 52.238C43.9271 52.2981 44.0423 52.3304 44.1599 52.3316C44.2775 52.3328 44.3933 52.3029 44.4956 52.2448C44.5979 52.1868 44.683 52.1028 44.7423 52.0012C44.8016 51.8997 44.833 51.7843 44.8333 51.6667V47.6667C44.8332 47.5777 44.8512 47.4896 44.8864 47.4078C44.9216 47.326 44.9732 47.2524 45.038 47.1913C45.0982 47.13 45.1701 47.0815 45.2495 47.0486C45.3289 47.0158 45.4141 46.9992 45.5 47C45.6768 47 45.8464 47.0702 45.9714 47.1953C46.0964 47.3203 46.1667 47.4899 46.1667 47.6667V50.3333H47.5V47.6667C47.4998 47.5777 47.5179 47.4896 47.5531 47.4078C47.5883 47.326 47.6399 47.2524 47.7047 47.1913C47.7649 47.13 47.8368 47.0815 47.9162 47.0486C47.9956 47.0158 48.0808 46.9992 48.1667 47C48.3435 47 48.513 47.0702 48.6381 47.1953C48.7631 47.3203 48.8333 47.4899 48.8333 47.6667V50.3333H50.1667V47.6667C50.1665 47.5777 50.1846 47.4896 50.2198 47.4078C50.255 47.326 50.3066 47.2524 50.3713 47.1913C50.4315 47.13 50.5035 47.0815 50.5829 47.0486C50.6622 47.0158 50.7474 46.9992 50.8333 47C51.0101 47 51.1797 47.0702 51.3047 47.1953C51.4298 47.3203 51.5 47.4899 51.5 47.6667V50.3333H52.8333V47.6667C52.8332 47.5777 52.8512 47.4896 52.8864 47.4078C52.9216 47.326 52.9732 47.2524 53.038 47.1913C53.0982 47.13 53.1701 47.0815 53.2495 47.0486C53.3289 47.0158 53.4141 46.9992 53.5 47C53.6768 47 53.8464 47.0702 53.9714 47.1953C54.0964 47.3203 54.1667 47.4899 54.1667 47.6667V55H55.5V47.6667C55.5 47.1362 55.2893 46.6275 54.9142 46.2525C54.5391 45.8774 54.0304 45.6667 53.5 45.6667ZM38.5747 40.3333H32.4253L33.314 37.6667H37.686L38.5747 40.3333ZM20.8333 35V17.6667C20.8333 17.313 20.9738 16.9739 21.2239 16.7239C21.4739 16.4738 21.813 16.3333 22.1667 16.3333H48.8333C49.187 16.3333 49.5261 16.4738 49.7761 16.7239C50.0262 16.9739 50.1667 17.313 50.1667 17.6667V35C50.1667 35.3536 50.0262 35.6928 49.7761 35.9428C49.5261 36.1929 49.187 36.3333 48.8333 36.3333H22.1667C21.813 36.3333 21.4739 36.1929 21.2239 35.9428C20.9738 35.6928 20.8333 35.3536 20.8333 35ZM45.5 45.6667C45.0054 45.6652 44.5288 45.8518 44.1667 46.1887V45.6667H42.8333V47H43.6213C43.5432 47.2137 43.5021 47.4392 43.5 47.6667V48.3333H42.8333V49.6667H43.5V50.49L42.1827 49.702C41.9732 49.576 41.7414 49.4915 41.5 49.4533V48.3333H40.1667V49.6667H40.3C40.0127 49.8214 39.7706 50.048 39.5971 50.3244C39.4237 50.6007 39.3251 50.9174 39.3107 51.2433C39.2964 51.5693 39.367 51.8934 39.5155 52.1839C39.664 52.4744 39.8854 52.7214 40.158 52.9007L41.3 53.6667H29.7L30.8333 52.906C31.11 52.7295 31.3354 52.4834 31.4872 52.1925C31.639 51.9016 31.7118 51.5759 31.6983 51.248C31.6848 50.9201 31.5855 50.6015 31.4103 50.324C31.2351 50.0465 30.9902 49.8199 30.7 49.6667H30.8333V48.3333H29.5V49.4533C29.2589 49.4915 29.0273 49.5757 28.818 49.7013L27.5 50.49V49.6667H28.1667V48.3333H27.5V47.6667C27.4982 47.4392 27.4573 47.2137 27.3793 47H28.1667V45.6667H26.8333V46.1907C26.4712 45.8536 25.9947 45.6664 25.5 45.6667C25.2726 45.6681 25.0471 45.7085 24.8333 45.786V44.3333H46.1667V45.786C45.953 45.7081 45.7274 45.6678 45.5 45.6667Z" fill="#FF007A"/>
<path d="M30.0521 28.9994L38.9001 32.1601C39.0066 32.5916 39.2552 32.9748 39.6059 33.248C39.9566 33.5211 40.3889 33.6684 40.8334 33.6661H40.8754C41.3976 33.6521 41.8938 33.4356 42.2592 33.0623C42.6246 32.6891 42.8305 32.1884 42.8334 31.6661V19.6661C42.8368 19.1774 42.6608 18.7045 42.3388 18.3369C42.0168 17.9694 41.5711 17.7327 41.0862 17.6718C40.6013 17.6109 40.111 17.73 39.7081 18.0065C39.3051 18.283 39.0177 18.6978 38.9001 19.1721L30.0521 22.3327H26.1668C25.3401 22.3319 24.5427 22.6383 23.9292 23.1923C23.3157 23.7464 22.93 24.5086 22.847 25.3311C22.7639 26.1535 22.9894 26.9775 23.4796 27.6431C23.9699 28.3086 24.69 28.7682 25.5001 28.9327V33.6661C25.5001 33.8429 25.5703 34.0125 25.6954 34.1375C25.8204 34.2625 25.99 34.3327 26.1668 34.3327H28.8334C29.0102 34.3327 29.1798 34.2625 29.3048 34.1375C29.4299 34.0125 29.5001 33.8429 29.5001 33.6661V28.9994H30.0521ZM40.8334 18.9994C41.0102 18.9994 41.1798 19.0696 41.3048 19.1947C41.4299 19.3197 41.5001 19.4893 41.5001 19.6661V31.6661C41.4991 31.8402 41.4305 32.0071 41.3087 32.1315C41.1869 32.2559 41.0215 32.3281 40.8474 32.3327C40.6701 32.3262 40.5004 32.2589 40.3668 32.1421C40.3032 32.0803 40.2527 32.0062 40.2183 31.9244C40.1839 31.8427 40.1664 31.7548 40.1668 31.6661V19.6661C40.1668 19.4893 40.237 19.3197 40.362 19.1947C40.4871 19.0696 40.6566 18.9994 40.8334 18.9994ZM38.8334 30.7201L30.8334 27.8661V23.4727L38.8334 20.6154V30.7201ZM24.1668 25.6661C24.1668 25.1356 24.3775 24.6269 24.7526 24.2519C25.1276 23.8768 25.6363 23.6661 26.1668 23.6661H29.5001V27.6661H26.1668C25.6363 27.6661 25.1276 27.4554 24.7526 27.0803C24.3775 26.7052 24.1668 26.1965 24.1668 25.6661ZM28.1668 32.9994H26.8334V28.9994H28.1668V32.9994Z" fill="#FF007A"/>
<path d="M47.4998 24.334H44.1665V25.6673H47.4998V24.334Z" fill="#FF007A"/>
<path d="M47.2602 17.7092L43.9272 18.9922L44.4065 20.2371L47.7394 18.9541L47.2602 17.7092Z" fill="#FF007A"/>
<path d="M44.4061 29.7608L43.9272 31.0059L47.2606 32.2877L47.7394 31.0426L44.4061 29.7608Z" fill="#FF007A"/>
<path d="M23.4998 17.666H22.1665V18.9993H23.4998V17.666Z" fill="#FF007A"/>
<path d="M26.1668 17.666H24.8335V18.9993H26.1668V17.666Z" fill="#FF007A"/>
<path d="M28.8333 17.666H27.5V18.9993H28.8333V17.666Z" fill="#FF007A"/>
</svg>
