<svg width="71" height="70" viewBox="0 0 71 70" fill="none" xmlns="http://www.w3.org/2000/svg">
<rect x="0.5" width="70" height="70" rx="5.25" fill="#FFF2F8"/>
<path fill-rule="evenodd" clip-rule="evenodd" d="M41.6206 38.1832V17.1992C41.618 17.0329 41.5803 16.869 41.5098 16.7183C41.4393 16.5676 41.3377 16.4335 41.2117 16.325C40.921 16.0713 40.5472 15.9335 40.1614 15.9378H27.1612V20.8037C27.1585 21.1017 27.0926 21.3957 26.9678 21.6663C26.8431 21.9369 26.6624 22.1779 26.4376 22.3735C25.9763 22.7818 25.3807 23.0058 24.7647 23.0029H18.9188V47.942C18.9213 48.1083 18.959 48.2721 19.0295 48.4228C19.1 48.5734 19.2016 48.7073 19.3277 48.8158C19.6182 49.0697 19.9921 49.2077 20.3779 49.2034H38.8996C38.412 48.3398 37.9873 47.4422 37.6289 46.5175H22.7006C22.6379 46.5195 22.5754 46.5088 22.5168 46.4861C22.4583 46.4634 22.4049 46.4292 22.3598 46.3855C22.3147 46.3418 22.2789 46.2895 22.2544 46.2316C22.2299 46.1738 22.2173 46.1117 22.2173 46.0489C22.2173 45.9861 22.2299 45.9239 22.2544 45.8661C22.2789 45.8083 22.3147 45.7559 22.3598 45.7122C22.4049 45.6685 22.4583 45.6343 22.5168 45.6116C22.5754 45.5889 22.6379 45.5783 22.7006 45.5802H37.2836C37.2 45.3387 37.119 45.0929 37.0405 44.8428C37.0265 44.7978 37.0193 44.7509 37.0191 44.7037V41.3668H22.7006C22.5763 41.3668 22.457 41.3174 22.3691 41.2294C22.2812 41.1415 22.2318 41.0222 22.2318 40.8979C22.2318 40.7735 22.2812 40.6542 22.3691 40.5663C22.457 40.4784 22.5763 40.429 22.7006 40.429H37.0187V39.2921C37.0185 39.2304 37.0305 39.1694 37.054 39.1124C37.0774 39.0554 37.1119 39.0036 37.1554 38.96C37.199 38.9163 37.2507 38.8817 37.3076 38.8581C37.3645 38.8344 37.4255 38.8223 37.4872 38.8223C37.4965 38.8223 37.5054 38.8223 37.5143 38.8223C38.9044 38.7805 40.2839 38.565 41.6206 38.1809V38.1832ZM47.7016 43.7148C47.7903 43.6306 47.9083 43.5844 48.0306 43.5861C48.1528 43.5877 48.2696 43.637 48.356 43.7235C48.4425 43.81 48.4917 43.9268 48.4932 44.049C48.4948 44.1713 48.4485 44.2893 48.3643 44.3779L44.4908 48.2518C44.4028 48.3395 44.2836 48.3888 44.1593 48.3888C44.035 48.3888 43.9158 48.3395 43.8277 48.2518L41.6743 46.0984C41.6308 46.0549 41.5963 46.0032 41.5727 45.9463C41.5491 45.8894 41.537 45.8284 41.537 45.7669C41.537 45.7053 41.5491 45.6443 41.5727 45.5874C41.5963 45.5305 41.6308 45.4788 41.6743 45.4353C41.7179 45.3918 41.7696 45.3572 41.8265 45.3336C41.8834 45.3101 41.9443 45.298 42.0059 45.298C42.0675 45.298 42.1285 45.3101 42.1853 45.3336C42.2422 45.3572 42.2939 45.3918 42.3375 45.4353L44.1597 47.2576L47.702 43.7148H47.7016ZM45.0193 39.661C45.9365 40.0346 46.873 40.359 47.8247 40.633C48.6992 40.8822 49.5904 41.0688 50.4914 41.1912V44.3864C49.9911 45.9879 49.2704 47.512 48.35 48.9149C47.4821 50.226 46.3471 51.3391 45.0193 52.1812C43.6917 51.3389 42.5569 50.2259 41.689 48.9149C40.7675 47.5123 40.046 45.9882 39.5454 44.3864V41.1912C40.4465 41.0688 41.3376 40.8823 42.2121 40.633C43.1639 40.3591 44.1003 40.0346 45.0175 39.661H45.0193ZM41.9615 39.7321C42.9402 39.449 43.9024 39.1117 44.8437 38.7218C44.9565 38.6765 45.0825 38.6765 45.1953 38.7218C46.137 39.1118 47.0997 39.4491 48.0789 39.7321C49.0307 40.0039 50.0031 40.1972 50.9865 40.3099C51.1065 40.316 51.2195 40.368 51.3022 40.4551C51.3849 40.5422 51.431 40.6578 51.431 40.7779V44.4566C51.431 44.5052 51.4235 44.5534 51.4088 44.5997C50.8783 46.3119 50.1096 47.941 49.1252 49.4389C48.1314 50.9413 46.8126 52.2011 45.2664 53.1252C45.1943 53.1697 45.1114 53.1937 45.0266 53.1945C44.9419 53.1954 44.8585 53.1731 44.7855 53.1301C43.236 52.2063 41.9144 50.9455 40.9188 49.4411C39.9412 47.9551 39.1769 46.3394 38.6481 44.6411C38.6239 44.5837 38.6115 44.522 38.6116 44.4597V40.7779C38.6117 40.6627 38.6542 40.5515 38.731 40.4657C38.8078 40.3798 38.9136 40.3253 39.0281 40.3125C40.0202 40.2016 41.0014 40.0083 41.9615 39.7347V39.7321ZM39.4725 50.1407H21.8491V51.159C21.8516 51.3253 21.8894 51.4892 21.9599 51.6399C22.0303 51.7906 22.1319 51.9246 22.258 52.0332C22.5486 52.2868 22.9225 52.4246 23.3082 52.4203H41.3055C40.8969 52.0059 40.5141 51.5668 40.1592 51.1056C39.9222 50.7975 39.693 50.4758 39.4725 50.1407ZM42.3335 53.3581H23.3082C22.6917 53.3616 22.0955 53.1375 21.634 52.7288C21.4093 52.5331 21.2286 52.292 21.1039 52.0214C20.9792 51.7508 20.9132 51.4569 20.9104 51.159V50.1407H20.377C19.7614 50.1436 19.1662 49.9197 18.705 49.5118C18.4803 49.3162 18.2997 49.0751 18.1749 48.8045C18.0502 48.5339 17.9843 48.2399 17.9814 47.942V22.534C17.9813 22.4664 17.9958 22.3996 18.0241 22.3382C18.0523 22.2768 18.0936 22.2223 18.145 22.1784L26.3625 15.136C26.4501 15.0489 26.5687 15 26.6923 15H40.1592C40.776 14.9965 41.3725 15.2205 41.8343 15.6294C42.0591 15.825 42.2398 16.0661 42.3645 16.3367C42.4892 16.6073 42.5552 16.9013 42.5579 17.1992V18.2174H43.0913C43.7072 18.2144 44.3028 18.4383 44.7642 18.8463C44.9889 19.042 45.1695 19.2831 45.2943 19.5537C45.419 19.8243 45.4849 20.1182 45.4878 20.4161V37.1276C46.4108 37.5258 47.3567 37.869 48.3203 38.1556C49.6996 38.5609 51.1255 38.7862 52.5626 38.8258C52.6844 38.8287 52.8003 38.8792 52.8855 38.9664C52.9707 39.0536 53.0185 39.1706 53.0186 39.2925V44.7037C53.0187 44.7616 53.008 44.8191 52.987 44.8731C52.3241 47.1172 51.271 49.227 49.8758 51.1056C48.6449 52.7305 47.0532 54.047 45.2264 54.9515C45.1621 54.9834 45.0913 55 45.0195 55C44.9477 55 44.8769 54.9834 44.8126 54.9515C43.9281 54.5169 43.096 53.9823 42.3335 53.3581ZM44.5504 37.1254V20.4161C44.5478 20.2499 44.51 20.0861 44.4395 19.9355C44.369 19.7849 44.2675 19.6509 44.1415 19.5424C43.851 19.2884 43.4771 19.1504 43.0913 19.1548H42.5579V37.8916C43.3042 37.64 43.9686 37.3694 44.5504 37.1254ZM40.8988 50.5345C39.5807 48.7546 38.5846 46.7576 37.9556 44.6339V39.7414C39.3186 39.6674 40.6684 39.4363 41.9784 39.0525C43.0133 38.7435 44.0286 38.3725 45.0189 37.9414C46.0093 38.3725 47.0248 38.7435 48.0598 39.0525C49.3697 39.4363 50.7196 39.6675 52.0825 39.7414V44.6339C51.4535 46.7576 50.4574 48.7546 49.1394 50.5345C48.0407 51.9839 46.6331 53.1705 45.0189 54.0083C43.4048 53.1704 41.9974 51.9838 40.8988 50.5345ZM22.7006 36.2156C22.5763 36.2156 22.457 36.1662 22.3691 36.0782C22.2812 35.9903 22.2318 35.871 22.2318 35.7467C22.2318 35.6223 22.2812 35.503 22.3691 35.4151C22.457 35.3272 22.5763 35.2778 22.7006 35.2778H37.8374C37.9617 35.2778 38.081 35.3272 38.1689 35.4151C38.2569 35.503 38.3063 35.6223 38.3063 35.7467C38.3063 35.871 38.2569 35.9903 38.1689 36.0782C38.081 36.1662 37.9617 36.2156 37.8374 36.2156H22.7006ZM22.7006 31.0644C22.5763 31.0644 22.457 31.015 22.3691 30.927C22.2812 30.8391 22.2318 30.7198 22.2318 30.5955C22.2318 30.4711 22.2812 30.3518 22.3691 30.2639C22.457 30.176 22.5763 30.1266 22.7006 30.1266H37.8374C37.9617 30.1266 38.081 30.176 38.1689 30.2639C38.2569 30.3518 38.3063 30.4711 38.3063 30.5955C38.3063 30.7198 38.2569 30.8391 38.1689 30.927C38.081 31.015 37.9617 31.0644 37.8374 31.0644H22.7006ZM27.5052 25.9131C27.4424 25.9151 27.3799 25.9044 27.3214 25.8817C27.2628 25.859 27.2094 25.8248 27.1643 25.7811C27.1193 25.7374 27.0834 25.6851 27.0589 25.6272C27.0345 25.5694 27.0219 25.5073 27.0219 25.4445C27.0219 25.3817 27.0345 25.3195 27.0589 25.2617C27.0834 25.2039 27.1193 25.1516 27.1643 25.1078C27.2094 25.0641 27.2628 25.0299 27.3214 25.0072C27.3799 24.9845 27.4424 24.9739 27.5052 24.9758H37.8374C37.9001 24.9739 37.9627 24.9845 38.0212 25.0072C38.0798 25.0299 38.1332 25.0641 38.1782 25.1078C38.2233 25.1516 38.2592 25.2039 38.2836 25.2617C38.3081 25.3195 38.3207 25.3817 38.3207 25.4445C38.3207 25.5073 38.3081 25.5694 38.2836 25.6272C38.2592 25.6851 38.2233 25.7374 38.1782 25.7811C38.1332 25.8248 38.0798 25.859 38.0212 25.8817C37.9627 25.9044 37.9001 25.9151 37.8374 25.9131H27.5052ZM26.2238 16.4867V20.8037C26.2214 20.97 26.1837 21.1339 26.1132 21.2845C26.0427 21.4351 25.941 21.5691 25.8149 21.6775C25.5244 21.9314 25.1505 22.0694 24.7647 22.0651H19.7153L26.2238 16.4867Z" fill="#FF007A"/>
</svg>
