<svg width="71" height="70" viewBox="0 0 71 70" fill="none" xmlns="http://www.w3.org/2000/svg">
<rect x="0.5" width="70" height="70" rx="5.25" fill="#FFF2F8"/>
<path d="M35.5 45.0001C29.9512 45.0001 25.437 40.5141 25.437 35.0001C25.437 29.486 29.9512 25 35.5 25C41.0487 25 45.5629 29.486 45.5629 35.0001C45.5629 40.5141 41.0487 45.0001 35.5 45.0001ZM35.5 26.25C30.6448 26.25 26.6949 30.1753 26.6949 35.0001C26.6949 39.8249 30.6448 43.7501 35.5 43.7501C40.3551 43.7501 44.3051 39.8249 44.3051 35.0001C44.3051 30.1753 40.3551 26.25 35.5 26.25Z" fill="#FF007A"/>
<path d="M40.5312 43.5938C40.1839 43.5938 39.9023 43.314 39.9023 42.9688V40C39.9023 38.8309 39.4445 37.7321 38.6132 36.906C37.7819 36.0799 36.6763 35.625 35.4998 35.625C33.0722 35.625 31.0972 37.5876 31.0972 40V42.9688C31.0972 43.314 30.8156 43.5938 30.4683 43.5938C30.121 43.5938 29.8394 43.314 29.8394 42.9688V40C29.8394 36.8984 32.3786 34.375 35.4998 34.375C37.0122 34.375 38.4337 34.96 39.5027 36.0221C40.5716 37.0844 41.1602 38.4971 41.1602 40V42.9688C41.1602 43.314 40.8786 43.5938 40.5312 43.5938Z" fill="#FF007A"/>
<path d="M35.4999 35.625C33.7659 35.625 32.3552 34.2232 32.3552 32.5C32.3552 30.7769 33.7659 29.375 35.4999 29.375C37.2339 29.375 38.6446 30.7769 38.6446 32.5C38.6446 34.2232 37.2339 35.625 35.4999 35.625ZM35.4999 30.625C34.4596 30.625 33.6131 31.4662 33.6131 32.5C33.6131 33.5339 34.4596 34.375 35.4999 34.375C36.5402 34.375 37.3867 33.5339 37.3867 32.5C37.3867 31.4662 36.5402 30.625 35.4999 30.625Z" fill="#FF007A"/>
<path d="M49.3366 55.0001C45.8686 55.0001 43.0472 52.1963 43.0472 48.75C43.0472 45.3038 45.8686 42.5 49.3366 42.5C52.8045 42.5 55.6259 45.3038 55.6259 48.75C55.6259 52.1963 52.8045 55.0001 49.3366 55.0001ZM49.3366 43.75C46.5622 43.75 44.3051 45.993 44.3051 48.75C44.3051 51.5071 46.5622 53.7501 49.3366 53.7501C52.111 53.7501 54.3681 51.5071 54.3681 48.75C54.3681 45.993 52.111 43.75 49.3366 43.75Z" fill="#FF007A"/>
<path d="M52.3239 54.1407C51.9766 54.1407 51.695 53.8608 51.695 53.5157V51.75C51.695 51.1003 51.4548 50.5037 51.0187 50.0704C50.561 49.6155 49.9847 49.375 49.3522 49.375C48.0431 49.375 46.978 50.4405 46.978 51.75V53.5157C46.978 53.8608 46.6964 54.1407 46.349 54.1407C46.0017 54.1407 45.7201 53.8608 45.7201 53.5157V51.75C45.7201 49.7512 47.3495 48.125 49.3522 48.125C50.3117 48.125 51.2195 48.502 51.9083 49.1866C52.5819 49.8559 52.9528 50.7664 52.9528 51.75V53.5157C52.9528 53.8608 52.6712 54.1407 52.3239 54.1407Z" fill="#FF007A"/>
<path d="M49.3366 49.375C48.1575 49.375 47.1982 48.4217 47.1982 47.25C47.1982 46.0783 48.1575 45.125 49.3366 45.125C50.5157 45.125 51.475 46.0783 51.475 47.25C51.475 48.4217 50.5157 49.375 49.3366 49.375ZM49.3366 46.375C48.8511 46.375 48.4561 46.7675 48.4561 47.25C48.4561 47.7325 48.8511 48.125 49.3366 48.125C49.8222 48.125 50.2171 47.7325 50.2171 47.25C50.2171 46.7675 49.8222 46.375 49.3366 46.375Z" fill="#FF007A"/>
<path d="M21.6635 55.0001C18.1955 55.0001 15.3741 52.1963 15.3741 48.75C15.3741 45.3038 18.1955 42.5 21.6635 42.5C25.1314 42.5 27.9528 45.3038 27.9528 48.75C27.9528 52.1963 25.1314 55.0001 21.6635 55.0001ZM21.6635 43.75C18.8891 43.75 16.632 45.993 16.632 48.75C16.632 51.5071 18.8891 53.7501 21.6635 53.7501C24.4379 53.7501 26.695 51.5071 26.695 48.75C26.695 45.993 24.4379 43.75 21.6635 43.75Z" fill="#FF007A"/>
<path d="M24.6509 54.1407C24.3036 54.1407 24.022 53.8608 24.022 53.5157V51.75C24.022 51.1003 23.7818 50.5037 23.3458 50.0703C22.888 49.6155 22.3118 49.375 21.6792 49.375C20.3701 49.375 19.305 50.4405 19.305 51.75V53.5157C19.305 53.8608 19.0234 54.1407 18.6761 54.1407C18.3287 54.1407 18.0471 53.8608 18.0471 53.5157V51.75C18.0471 49.7512 19.6765 48.125 21.6792 48.125C22.6387 48.125 23.5464 48.502 24.2353 49.1865C24.9089 49.8559 25.2799 50.7664 25.2799 51.75V53.5157C25.2799 53.8608 24.9983 54.1407 24.6509 54.1407Z" fill="#FF007A"/>
<path d="M21.6636 49.375C20.4846 49.375 19.5253 48.4217 19.5253 47.25C19.5253 46.0783 20.4846 45.125 21.6636 45.125C22.8427 45.125 23.802 46.0783 23.802 47.25C23.802 48.4217 22.8427 49.375 21.6636 49.375ZM21.6636 46.375C21.1781 46.375 20.7831 46.7675 20.7831 47.25C20.7831 47.7325 21.1781 48.125 21.6636 48.125C22.1492 48.125 22.5442 47.7325 22.5442 47.25C22.5442 46.7675 22.1492 46.375 21.6636 46.375Z" fill="#FF007A"/>
<path d="M49.3366 27.5001C45.8686 27.5001 43.0472 24.6963 43.0472 21.25C43.0472 17.8038 45.8686 15 49.3366 15C52.8045 15 55.6259 17.8038 55.6259 21.25C55.6259 24.6963 52.8045 27.5001 49.3366 27.5001ZM49.3366 16.25C46.5622 16.25 44.3051 18.493 44.3051 21.25C44.3051 24.0071 46.5622 26.2501 49.3366 26.2501C52.111 26.2501 54.3681 24.0071 54.3681 21.25C54.3681 18.493 52.111 16.25 49.3366 16.25Z" fill="#FF007A"/>
<path d="M52.3239 26.6407C51.9766 26.6407 51.695 26.3608 51.695 26.0157V24.25C51.695 23.6003 51.4548 23.0037 51.0188 22.5704C50.561 22.1155 49.9847 21.875 49.3522 21.875C48.0431 21.875 46.978 22.9404 46.978 24.25V26.0157C46.978 26.3608 46.6964 26.6407 46.349 26.6407C46.0017 26.6407 45.7201 26.3608 45.7201 26.0157V24.25C45.7201 22.2512 47.3495 20.625 49.3522 20.625C50.3117 20.625 51.2195 21.002 51.9083 21.6866C52.5819 22.3559 52.9528 23.2663 52.9528 24.25V26.0157C52.9528 26.3608 52.6712 26.6407 52.3239 26.6407Z" fill="#FF007A"/>
<path d="M49.3366 21.875C48.1575 21.875 47.1982 20.9217 47.1982 19.75C47.1982 18.5783 48.1575 17.625 49.3366 17.625C50.5157 17.625 51.475 18.5783 51.475 19.75C51.475 20.9217 50.5157 21.875 49.3366 21.875ZM49.3366 18.875C48.8511 18.875 48.4561 19.2675 48.4561 19.75C48.4561 20.2325 48.8511 20.625 49.3366 20.625C49.8222 20.625 50.2171 20.2325 50.2171 19.75C50.2171 19.2675 49.8222 18.875 49.3366 18.875Z" fill="#FF007A"/>
<path d="M21.6635 27.5001C18.1955 27.5001 15.3741 24.6963 15.3741 21.25C15.3741 17.8038 18.1955 15 21.6635 15C25.1314 15 27.9528 17.8038 27.9528 21.25C27.9528 24.6963 25.1314 27.5001 21.6635 27.5001ZM21.6635 16.25C18.8891 16.25 16.632 18.493 16.632 21.25C16.632 24.0071 18.8891 26.2501 21.6635 26.2501C24.4379 26.2501 26.695 24.0071 26.695 21.25C26.695 18.493 24.4379 16.25 21.6635 16.25Z" fill="#FF007A"/>
<path d="M24.6508 26.6407C24.3035 26.6407 24.0219 26.3608 24.0219 26.0157V24.25C24.0219 23.6003 23.7818 23.0037 23.3457 22.5704C22.8879 22.1155 22.3116 21.875 21.6791 21.875C20.37 21.875 19.3049 22.9404 19.3049 24.25V26.0157C19.3049 26.3608 19.0233 26.6407 18.6759 26.6407C18.3286 26.6407 18.047 26.3608 18.047 26.0157V24.25C18.047 22.2512 19.6763 20.625 21.6791 20.625C22.6385 20.625 23.5463 21.002 24.2352 21.6865C24.9088 22.3559 25.2797 23.2663 25.2797 24.25V26.0157C25.2797 26.3608 24.9981 26.6407 24.6508 26.6407Z" fill="#FF007A"/>
<path d="M21.6635 21.875C20.4844 21.875 19.5251 20.9217 19.5251 19.75C19.5251 18.5783 20.4844 17.625 21.6635 17.625C22.8426 17.625 23.8019 18.5783 23.8019 19.75C23.8019 20.9217 22.8426 21.875 21.6635 21.875ZM21.6635 18.875C21.178 18.875 20.783 19.2675 20.783 19.75C20.783 20.2325 21.178 20.625 21.6635 20.625C22.1491 20.625 22.544 20.2325 22.544 19.75C22.544 19.2675 22.1491 18.875 21.6635 18.875Z" fill="#FF007A"/>
<path d="M42.1707 28.9972C42.0097 28.9972 41.8487 28.9362 41.7259 28.8142C41.4803 28.5701 41.4803 28.1744 41.7259 27.9303L44.8895 24.7866C45.1352 24.5425 45.5334 24.5425 45.779 24.7866C46.0246 25.0306 46.0246 25.4263 45.779 25.6704L42.6154 28.8142C42.4925 28.9362 42.3315 28.9972 42.1707 28.9972Z" fill="#FF007A"/>
<path d="M25.6659 45.3976C25.5049 45.3976 25.3439 45.3366 25.2211 45.2146C24.9754 44.9704 24.9754 44.5748 25.2211 44.3307L28.3847 41.1869C28.6303 40.9429 29.0285 40.9429 29.2741 41.1869C29.5197 41.431 29.5197 41.8267 29.2741 42.0708L26.1105 45.2146C25.9878 45.3366 25.8269 45.3976 25.6659 45.3976Z" fill="#FF007A"/>
<path d="M45.3342 45.3976C45.1732 45.3976 45.0123 45.3366 44.8895 45.2146L41.7259 42.0708C41.4803 41.8267 41.4803 41.431 41.7259 41.1869C41.9716 40.9429 42.3697 40.9429 42.6154 41.1869L45.779 44.3307C46.0246 44.5748 46.0246 44.9704 45.779 45.2146C45.6562 45.3366 45.4952 45.3976 45.3342 45.3976Z" fill="#FF007A"/>
<path d="M28.8294 28.9972C28.6685 28.9972 28.5075 28.9362 28.3847 28.8142L25.2211 25.6704C24.9754 25.4263 24.9754 25.0306 25.2211 24.7866C25.4667 24.5425 25.8649 24.5425 26.1105 24.7866L29.2741 27.9303C29.5197 28.1744 29.5197 28.5701 29.2741 28.8142C29.1513 28.9362 28.9903 28.9972 28.8294 28.9972Z" fill="#FF007A"/>
</svg>
