<svg width="70" height="70" viewBox="0 0 70 70" fill="none" xmlns="http://www.w3.org/2000/svg">
<rect width="70" height="70" rx="5.25" fill="#DEFFEE"/>
<path d="M56.9323 30.1681L55.4422 25.9481C55.9333 25.5505 56.2892 25.0105 56.461 24.4024C56.6328 23.7943 56.6122 23.148 56.4018 22.5521C56.1915 21.9562 55.8019 21.4401 55.2864 21.0746C54.7709 20.7091 54.1549 20.5122 53.523 20.5109L52.0334 16.291C51.8614 15.8069 51.5044 15.4108 51.0408 15.1895C50.5773 14.9681 50.0448 14.9395 49.5602 15.11C49.2492 15.22 48.9715 15.4076 48.7532 15.655C48.535 15.9024 48.3835 16.2014 48.3131 16.5237C47.2281 18.5535 44.2102 21.5244 40.9655 23.0493L35.7218 24.8994C35.5628 24.9552 35.4165 25.042 35.2913 25.1548C35.1661 25.2675 35.0645 25.404 34.9924 25.5563C34.9539 25.637 34.9238 25.7216 34.9028 25.8085L34.0774 26.0995C33.7563 26.2127 33.4655 26.3982 33.2275 26.6418H14.2987C13.9429 26.6423 13.6019 26.7839 13.3504 27.0355C13.0989 27.2871 12.9574 27.6282 12.957 27.9839V50.1124C12.957 50.4684 13.0983 50.8099 13.3499 51.0618C13.6014 51.3137 13.9427 51.4555 14.2987 51.456H37.2197C37.2075 51.5354 37.2145 51.6165 37.24 51.6926C37.2656 51.7687 37.309 51.8376 37.3667 51.8934L39.2589 53.7392C39.3423 53.8205 39.4513 53.8705 39.5674 53.8806C39.6834 53.8908 39.7994 53.8606 39.8957 53.795L40.9058 53.1092C41.113 53.2078 41.3256 53.2948 41.5426 53.3698L41.808 54.6013C41.8322 54.7142 41.8943 54.8154 41.9841 54.8879C42.0739 54.9605 42.1859 55.0001 42.3013 55H42.3077L44.9528 54.9667C45.0693 54.9652 45.1817 54.9236 45.2709 54.8488C45.3602 54.774 45.4209 54.6706 45.4427 54.5562L45.6704 53.3556C45.8865 53.2791 46.0981 53.1906 46.3043 53.0906L47.3628 53.7734C47.4608 53.837 47.5779 53.8647 47.694 53.8516C47.8101 53.8386 47.9181 53.7857 47.9996 53.7019L49.8453 51.8097C49.9267 51.7263 49.9768 51.6173 49.987 51.5013C49.9971 51.3852 49.9668 51.2692 49.9012 51.1729L49.2051 50.1594C49.3041 49.9523 49.3913 49.7396 49.4662 49.5226L50.6976 49.2571C50.8116 49.2327 50.9135 49.1696 50.9862 49.0785C51.0589 48.9874 51.0978 48.874 51.0964 48.7575L51.0665 46.1168C51.0652 46.0003 51.0236 45.8878 50.9488 45.7985C50.874 45.7092 50.7705 45.6486 50.656 45.6269L49.4554 45.3987C49.3788 45.1828 49.2903 44.9714 49.1904 44.7653L49.8732 43.7063C49.9368 43.6082 49.9645 43.4912 49.9514 43.3751C49.9384 43.259 49.8855 43.151 49.8017 43.0695L48.224 41.5309V31.5446C50.1952 31.4941 52.158 31.8181 54.0085 32.4993C54.072 32.5273 54.1408 32.5419 54.2103 32.5419C54.2176 32.5419 54.2245 32.5419 54.2318 32.5419C54.503 32.6789 54.8024 32.7505 55.1062 32.751C55.3253 32.7511 55.5429 32.7137 55.7493 32.6403C56.2337 32.4688 56.6302 32.1123 56.852 31.6488C57.0737 31.1853 57.1026 30.6528 56.9323 30.1681ZM55.4491 22.8886C55.5676 23.2278 55.5953 23.5922 55.5293 23.9454C55.4633 24.2986 55.3059 24.6284 55.0729 24.9019L53.8924 21.5577C54.2455 21.6243 54.575 21.7822 54.8481 22.0157C55.1212 22.2492 55.3284 22.5502 55.4491 22.8886ZM35.9045 25.9917C35.9356 25.9265 35.9913 25.8761 36.0593 25.8517L40.8538 24.1588L43.3447 31.2124L42.2871 31.5862L38.5511 32.9053C38.4827 32.9285 38.4079 32.924 38.3427 32.8928C38.2775 32.8616 38.2272 32.8062 38.2023 32.7383L35.8913 26.2004C35.8794 26.1666 35.8743 26.1307 35.8763 26.0949C35.8784 26.0591 35.8874 26.024 35.903 25.9917H35.9045ZM37.2707 43.7925L37.9564 44.8025C37.8578 45.0098 37.7706 45.2224 37.6954 45.4393L36.4639 45.7048C36.3501 45.7293 36.2482 45.7925 36.1756 45.8836C36.103 45.9746 36.0642 46.088 36.0657 46.2045L36.0985 48.8496C36.1 48.966 36.1417 49.0784 36.2165 49.1676C36.2913 49.2569 36.3946 49.3175 36.509 49.3394L37.7096 49.5672C37.7865 49.783 37.8751 49.9944 37.9751 50.2006L37.8154 50.4455H14.5735L26.7509 39.8199L28.4041 41.2723C29.0109 41.7901 29.7847 42.0707 30.5824 42.0619C31.3909 42.0694 32.1747 41.7841 32.7891 41.2586L34.461 39.789L37.7737 42.6952L37.325 43.1557C37.2437 43.2391 37.1937 43.3481 37.1836 43.4641C37.1734 43.5802 37.2036 43.6962 37.2692 43.7925H37.2707ZM25.9867 39.1473L13.9666 49.6353V28.5889L25.9867 39.1473ZM32.1234 40.4993C31.6945 40.8537 31.1562 41.0487 30.5998 41.0512C30.0434 41.0537 29.5033 40.8635 29.0713 40.513L14.429 27.6499H32.6579C32.5458 28.079 32.5655 28.532 32.7142 28.9499L34.0064 32.6104C34.1039 32.8874 34.2551 33.1423 34.4513 33.3608C34.6474 33.5792 34.8847 33.7569 35.1496 33.8835C35.4145 34.0102 35.7017 34.0834 35.9949 34.0989C36.2881 34.1145 36.5814 34.0721 36.8582 33.9742L37.6959 33.6803C37.9167 33.8438 38.1842 33.9324 38.459 33.933C38.6042 33.933 38.7484 33.9081 38.8852 33.8595L39.928 33.4917L39.9687 33.6078L32.1234 40.4993ZM40.8778 33.1551L42.1431 32.7079L43.7419 37.2365C43.7876 37.3394 43.8036 37.453 43.7881 37.5645C43.7726 37.6759 43.7262 37.7809 43.6542 37.8674C43.5659 37.9657 43.4543 38.0402 43.3297 38.0842C43.2051 38.1282 43.0715 38.1402 42.941 38.1192C42.8306 38.0971 42.7286 38.0446 42.6465 37.9676C42.5645 37.8905 42.5056 37.792 42.4767 37.6832L40.8778 33.1551ZM34.412 27.0518L35.0404 26.8299L37.1467 32.8015L36.5178 33.0234C36.2113 33.1304 35.8749 33.1118 35.582 32.9718C35.2891 32.8318 35.0634 32.5816 34.9542 32.2759L33.662 28.6153C33.5553 28.3085 33.5743 27.9719 33.7148 27.679C33.8553 27.3861 34.1059 27.1606 34.412 27.0518ZM48.1608 44.9799C48.3353 45.2992 48.476 45.6359 48.5806 45.9845C48.6073 46.0734 48.6581 46.1532 48.7272 46.2151C48.7963 46.2771 48.8812 46.3188 48.9724 46.3357L50.0604 46.542L50.0829 48.3597L48.97 48.5998C48.8811 48.6189 48.7991 48.6617 48.7325 48.7236C48.6659 48.7855 48.6173 48.8642 48.5918 48.9515C48.489 49.3003 48.3498 49.6374 48.1764 49.9571C48.1326 50.0386 48.1119 50.1305 48.1166 50.2229C48.1214 50.3153 48.1514 50.4047 48.2034 50.4812L48.8269 51.3967L47.5578 52.6982L46.6001 52.0801C46.5237 52.0309 46.4353 52.0033 46.3445 52.0001C46.2536 51.9969 46.1636 52.0183 46.0838 52.0619C45.7646 52.2366 45.4278 52.3773 45.0792 52.4817C44.9903 52.5085 44.9105 52.5592 44.8486 52.6284C44.7866 52.6975 44.7449 52.7823 44.728 52.8736L44.5222 53.9591L42.7045 53.9816L42.4644 52.8687C42.4453 52.7798 42.4025 52.6978 42.3406 52.6312C42.2787 52.5647 42.2 52.5161 42.1127 52.4906C41.7635 52.388 41.4259 52.2491 41.1056 52.0762C41.0242 52.0321 40.9322 52.0114 40.8398 52.0161C40.7473 52.0209 40.658 52.051 40.5815 52.1031L39.666 52.7267L38.365 51.456L38.9827 50.4984C39.0319 50.422 39.0596 50.3338 39.0628 50.243C39.0661 50.1523 39.0448 50.0623 39.0013 49.9826C38.8266 49.6632 38.6857 49.3265 38.581 48.9779C38.5544 48.8889 38.5037 48.809 38.4346 48.7469C38.3654 48.6848 38.2805 48.6431 38.1891 48.6262L37.1061 48.4215L37.0836 46.6037L38.197 46.3637C38.2857 46.3445 38.3677 46.3016 38.4342 46.2397C38.5006 46.1778 38.5492 46.0991 38.5746 46.0119C38.6773 45.6627 38.8162 45.3252 38.989 45.0048C39.033 44.9234 39.0537 44.8314 39.049 44.739C39.0442 44.6466 39.0142 44.5572 38.9621 44.4807L38.3385 43.5652L39.6043 42.2642L40.5619 42.8814C40.6382 42.9307 40.7264 42.9585 40.8172 42.9618C40.908 42.9651 40.998 42.9437 41.0777 42.9C41.3972 42.7254 41.7341 42.5847 42.0828 42.4802C42.1718 42.4535 42.2516 42.4028 42.3136 42.3337C42.3756 42.2646 42.4172 42.1796 42.4341 42.0883L42.6413 41.0029L44.4591 40.9803L44.6991 42.0937C44.7183 42.1825 44.7611 42.2645 44.823 42.3309C44.8849 42.3974 44.9636 42.4459 45.0508 42.4714C45.4 42.574 45.7376 42.7129 46.0579 42.8858C46.1393 42.9298 46.2313 42.9506 46.3237 42.9458C46.4162 42.9411 46.5055 42.911 46.582 42.8589L47.4975 42.2353L48.799 43.5045L48.1813 44.4621C48.132 44.5385 48.1042 44.6268 48.1009 44.7177C48.0977 44.8086 48.119 44.8986 48.1627 44.9784L48.1608 44.9799ZM47.21 41.2081L46.2602 41.8552C46.053 41.7562 45.8404 41.669 45.6234 41.5941L45.3579 40.3626C45.3337 40.2498 45.2715 40.1487 45.1817 40.0763C45.0919 40.0038 44.98 39.9643 44.8646 39.9644H44.8583L42.2131 39.9972C42.0966 39.9985 41.9842 40.0401 41.8949 40.1149C41.8055 40.1897 41.7449 40.2932 41.7233 40.4077L41.4985 41.6103C41.2825 41.6869 41.0709 41.7753 40.8646 41.8753L39.8061 41.1924C39.708 41.1288 39.591 41.1012 39.4749 41.1143C39.3588 41.1273 39.2508 41.1802 39.1693 41.2639L38.4786 41.9722L35.2266 39.117L40.3312 34.633L41.5264 38.0197C41.6145 38.2957 41.7754 38.5428 41.9921 38.7351C42.2088 38.9273 42.4733 39.0575 42.7578 39.1121C42.8606 39.131 42.9649 39.1406 43.0694 39.1405C43.3259 39.1403 43.5794 39.0852 43.8128 38.9789C44.0462 38.8726 44.2542 38.7176 44.4228 38.5243C44.6102 38.3033 44.7345 38.0359 44.7826 37.7502C44.8307 37.4645 44.8008 37.1711 44.6961 36.9009L43.0973 32.3719L44.1299 32.0075C45.1416 31.7674 46.1733 31.6216 47.2119 31.572L47.21 41.2081ZM44.3136 30.9318L41.7865 23.7708C44.4414 22.3978 46.751 20.4416 48.5424 18.049L53.165 31.1434C50.2682 30.406 47.2422 30.3337 44.3136 30.9318ZM55.4133 31.6905C55.181 31.7712 54.9262 31.7569 54.7043 31.6508C54.4825 31.5446 54.3114 31.3553 54.2284 31.1238L49.33 17.2476C49.2791 17.1033 49.2648 16.9487 49.2884 16.7975L49.2923 16.7769C49.321 16.6151 49.3921 16.4638 49.4983 16.3383C49.6044 16.2129 49.7419 16.1178 49.8968 16.0627C50.1289 15.9814 50.3838 15.9952 50.6057 16.1012C50.8276 16.2072 50.9986 16.3968 51.0812 16.6285L52.6977 21.2065L54.3631 25.9217V25.9251L55.9796 30.5027C56.0615 30.7351 56.0479 30.9905 55.9417 31.2129C55.8356 31.4353 55.6455 31.6066 55.4133 31.6891V31.6905ZM43.5822 44.3774H43.5431C42.7255 44.3913 41.9465 44.7272 41.3751 45.312C40.8038 45.8969 40.4861 46.6835 40.4911 47.5011C40.4962 48.3187 40.8235 49.1013 41.402 49.6791C41.9806 50.2569 42.7636 50.5831 43.5813 50.587H43.6205C44.438 50.5731 45.217 50.2372 45.7884 49.6524C46.3597 49.0675 46.6774 48.2809 46.6724 47.4633C46.6673 46.6457 46.34 45.8631 45.7615 45.2853C45.1829 44.7075 44.3999 44.3813 43.5822 44.3774ZM43.5558 45.3874H43.5822C43.9176 45.3875 44.2479 45.468 44.5457 45.6222C44.8434 45.7764 45.0998 45.9998 45.2933 46.2736C45.4868 46.5475 45.6118 46.8637 45.6577 47.1959C45.7036 47.528 45.6692 47.8663 45.5573 48.1824L42.631 45.6152C42.9174 45.4683 43.234 45.3899 43.5558 45.3859V45.3874ZM43.6077 49.578H43.5813C43.0303 49.5773 42.5017 49.3598 42.1098 48.9725C41.7179 48.5853 41.494 48.0593 41.4867 47.5084C41.4801 47.0707 41.6119 46.6421 41.8634 46.2838L44.9925 49.0284C44.614 49.3751 44.121 49.5703 43.6077 49.5765V49.578Z" fill="#00DA71"/>
</svg>
