<svg width="71" height="70" viewBox="0 0 71 70" fill="none" xmlns="http://www.w3.org/2000/svg">
<rect x="0.5" width="70" height="70" rx="5.25" fill="#FFF2F8"/>
<path d="M55.358 21.8006L48.7191 15.1717C48.609 15.0618 48.4598 15 48.3041 15C48.1484 15 47.9992 15.0618 47.8891 15.1717L46.2291 16.8292C45.7235 17.334 45.6975 18.1384 46.1499 18.6752L41.5925 20.4253C41.4341 20.486 41.3098 20.6122 41.2518 20.7715L39.4486 25.7034H17.6212C16.4348 25.7034 15.4697 26.667 15.4697 27.8516V52.8517C15.4697 54.0364 16.4348 55 17.6212 55H42.659C43.8454 55 44.8105 54.0364 44.8105 52.8517V31.0572L49.7498 29.2567C49.9093 29.1987 50.0352 29.0747 50.0965 28.9165L51.8492 24.366C52.1031 24.5794 52.4161 24.6866 52.7297 24.6866C53.0801 24.6866 53.4311 24.5534 53.698 24.2869L55.358 22.6294C55.4681 22.5194 55.53 22.3705 55.53 22.215C55.53 22.0596 55.4681 21.9106 55.358 21.8006ZM38.2665 29.9999C38.3338 30.1613 38.432 30.3113 38.56 30.4392L40.0676 31.9445C40.1956 32.0723 40.3459 32.1703 40.5075 32.238V50.7029H19.7732V29.9999H38.2665ZM43.6371 52.8517C43.6371 53.3902 43.1982 53.8284 42.659 53.8284H17.6212C17.082 53.8284 16.6431 53.3902 16.6431 52.8517V27.8516C16.6431 27.3132 17.082 26.875 17.6212 26.875H39.02L38.3061 28.8282H19.1863C18.8624 28.8282 18.5993 29.0904 18.5993 29.4143V51.2896C18.5993 51.613 18.8619 51.8757 19.1863 51.8757H41.0945C41.4183 51.8757 41.6814 51.6135 41.6814 51.2896V32.198L43.6371 31.4851V52.8517ZM49.0972 28.247L41.1026 31.1612C41.0316 31.1872 40.9507 31.1693 40.897 31.1157L40.5585 30.7777L44.6277 26.7147C44.9526 26.8956 45.3139 26.9866 45.6763 26.9866C46.2275 26.9866 46.7781 26.7769 47.198 26.3582C48.0366 25.5208 48.0366 24.1574 47.198 23.32C46.3593 22.4821 44.9939 22.4821 44.1552 23.32C43.4603 24.0139 43.3414 25.0685 43.7982 25.8859L39.729 29.9489L39.3905 29.6109C39.3368 29.5573 39.3189 29.4772 39.345 29.4057L42.2635 21.4231L47.0526 19.5836L50.9395 23.4646L49.0972 28.247ZM44.9846 24.1488C45.175 23.9586 45.4257 23.8633 45.6763 23.8633C45.9269 23.8633 46.177 23.9586 46.368 24.1488C46.7493 24.5296 46.7493 25.1492 46.368 25.53C45.9866 25.9108 45.366 25.9108 44.9846 25.53C44.6033 25.1487 44.6033 24.5296 44.9846 24.1488ZM52.8685 23.4581C52.7921 23.5345 52.6684 23.5345 52.5919 23.4581L47.0591 17.9337C46.9826 17.8573 46.9826 17.7338 47.0591 17.6574L48.3041 16.4143L54.1135 22.215L52.8685 23.4581Z" fill="#FF007A"/>
<path d="M24.8803 42.0713C24.9508 42.3248 25.1819 42.5003 25.4456 42.5003H34.8349C35.0985 42.5003 35.3296 42.3248 35.4001 42.0713L36.9652 36.446C37.026 36.2272 36.9549 35.9932 36.7824 35.8448C36.6099 35.6969 36.3674 35.6617 36.1596 35.7543L32.7116 37.2981L30.6458 33.8038C30.54 33.625 30.348 33.5156 30.1408 33.5156C29.933 33.5156 29.7409 33.625 29.6357 33.8038L27.5699 37.2981L24.1219 35.7543C23.9141 35.6612 23.6716 35.6964 23.4991 35.8448C23.3266 35.9927 23.2556 36.2272 23.3163 36.446L24.8803 42.0713ZM27.5678 38.5818C27.8406 38.7037 28.1612 38.6019 28.3131 38.3451L30.1408 35.2544L31.9678 38.3451C32.1197 38.6019 32.4409 38.7037 32.7132 38.5818L35.5 37.3344L34.3889 41.3286H25.892L24.781 37.3344L27.5678 38.5818Z" fill="#FF007A"/>
<path d="M34.8347 43.6719H25.4454C25.1215 43.6719 24.8584 43.934 24.8584 44.258V45.8207C24.8584 46.5747 25.4725 47.1878 26.2276 47.1878H34.0519C34.807 47.1878 35.4211 46.5747 35.4211 45.8207V44.258C35.4216 43.934 35.1585 43.6719 34.8347 43.6719ZM34.2477 45.8201C34.2477 45.9279 34.1598 46.0157 34.0519 46.0157H26.2282C26.1202 46.0157 26.0323 45.9279 26.0323 45.8201V44.8435H34.2477V45.8201Z" fill="#FF007A"/>
</svg>
