<svg width="101" height="101" viewBox="0 0 101 101" fill="none" xmlns="http://www.w3.org/2000/svg">
<rect width="100.338" height="100.338" rx="16.6715" fill="#FFF7E3"/>
<g clip-path="url(#clip0_1341_1649)">
<mask id="path-2-outside-1_1341_1649" maskUnits="userSpaceOnUse" x="19" y="20" width="62" height="61" fill="black">
<rect fill="white" x="19" y="20" width="62" height="61"/>
<path fill-rule="evenodd" clip-rule="evenodd" d="M62.7589 41.683C62.9519 41.6031 63.1685 41.6013 63.3627 41.6781C63.5569 41.7549 63.7133 41.9041 63.7985 42.094C63.8837 42.2838 63.891 42.4993 63.8188 42.6944C63.7466 42.8895 63.6006 43.0489 63.412 43.1384C63.2463 43.2118 63.0762 43.2945 62.9016 43.3863C62.7271 43.4782 62.563 43.571 62.4094 43.6649C62.2288 43.7729 62.0128 43.8057 61.808 43.7562C61.6033 43.7067 61.4265 43.5789 61.3158 43.4006C61.2051 43.2222 61.1695 43.0076 61.2168 42.8034C61.2641 42.5991 61.3904 42.4216 61.5683 42.3093C61.7698 42.1858 61.9652 42.0743 62.1542 41.9748C62.3433 41.8753 62.5449 41.7781 62.7589 41.683ZM54.8312 72.1209C55.0444 72.1209 55.2488 72.2051 55.3995 72.3551C55.5502 72.505 55.6349 72.7084 55.6349 72.9205C55.6349 73.1326 55.5502 73.3359 55.3995 73.4859C55.2488 73.6359 55.0444 73.7201 54.8312 73.7201L54.702 73.7201C54.4888 73.7201 54.2844 73.6359 54.1337 73.4859C53.983 73.3359 53.8983 73.1326 53.8983 72.9205C53.8983 72.7084 53.983 72.505 54.1337 72.3551C54.2844 72.2051 54.4888 72.1209 54.702 72.1209L54.8312 72.1209ZM52.3519 72.1209C52.565 72.1209 52.7695 72.2051 52.9202 72.3551C53.0709 72.505 53.1556 72.7084 53.1556 72.9205C53.1556 73.1326 53.0709 73.3359 52.9202 73.4859C52.7695 73.6359 52.565 73.7201 52.3519 73.7201L51.4613 73.7207C51.2482 73.7207 50.9937 73.6359 50.843 73.4859C50.6923 73.3359 50.6076 73.1326 50.6076 72.9205C50.6076 72.7084 50.6923 72.505 50.843 72.3551C50.9937 72.2051 51.2482 72.1215 51.4613 72.1215L52.3519 72.1209ZM35.2991 53.5154L33.2165 57.6603H34.4955V67.6523C34.5025 69.2634 35.1504 70.8063 36.2975 71.9434C37.4446 73.0806 38.9976 73.7196 40.6169 73.7207H49.0762C49.2893 73.7207 49.4938 73.6365 49.6445 73.4865C49.7952 73.3365 49.8799 73.1332 49.8799 72.9211C49.8799 72.709 49.7952 72.5056 49.6445 72.3557C49.4938 72.2057 49.2893 72.1215 49.0762 72.1215H40.6169C39.9519 72.1214 39.2951 71.9752 38.6934 71.6933C38.0917 71.4115 37.56 71.0009 37.1362 70.4909C36.4678 69.6948 36.1018 68.6903 36.1022 67.6529V57.6603H37.3817L35.2991 53.5154ZM37.8389 41.0121C38.8404 40.5385 39.6464 39.7346 40.1198 38.7368C40.5933 37.7391 40.7051 36.6091 40.4363 35.5387C40.1675 34.4682 39.5346 33.5233 38.6451 32.8645C37.7556 32.2056 36.6643 31.8733 35.5566 31.9241C34.4488 31.9749 33.3929 32.4055 32.568 33.143C31.7432 33.8804 31.2003 34.8792 31.0315 35.9697C30.8627 37.0602 31.0784 38.1752 31.6421 39.1254C32.2057 40.0756 33.0825 40.8024 34.1236 41.1824C34.7229 41.4023 35.3604 41.5006 35.9986 41.4713C36.6367 41.4421 37.2624 41.286 37.8389 41.0121ZM38.4648 42.4826C37.1204 43.1004 35.6023 43.2353 34.1691 42.8644C32.7359 42.4935 31.4763 41.6398 30.6047 40.4486C29.7332 39.2573 29.3036 37.8023 29.3892 36.3314C29.4749 34.8604 30.0704 33.4645 31.0743 32.3813C32.0782 31.2982 33.4285 30.5948 34.8951 30.391C36.3618 30.1872 37.854 30.4956 39.1178 31.2637C40.3816 32.0317 41.3386 33.2119 41.826 34.6033C42.3134 35.9946 42.3009 37.511 41.7907 38.8943C41.5016 39.6811 41.0589 40.4032 40.4881 41.0191C39.9173 41.6349 39.2296 42.1323 38.4648 42.4826ZM38.6583 52.3987L32.8192 52.3837C32.6069 52.3837 32.4032 52.2998 32.2531 52.1504C32.1029 52.001 32.0186 51.7984 32.0186 51.5871L32.0252 48.8693C31.6261 48.749 31.2355 48.6086 30.8533 48.4482C30.4711 48.2877 30.0946 48.1094 29.7237 47.9133L27.7886 49.8296C27.7142 49.9037 27.6259 49.9624 27.5287 50.0025C27.4315 50.0425 27.3273 50.0632 27.222 50.0632C27.1168 50.0632 27.0126 50.0425 26.9154 50.0025C26.8182 49.9624 26.7298 49.9037 26.6554 49.8296L22.538 45.7082C22.4638 45.6339 22.405 45.5458 22.3651 45.449C22.3251 45.3521 22.3047 45.2484 22.305 45.1437C22.3054 45.039 22.3264 44.9353 22.367 44.8387C22.4076 44.7421 22.4669 44.6544 22.5416 44.5806L24.4767 42.6631C24.2844 42.2993 24.1076 41.9249 23.9463 41.5398C23.7851 41.1547 23.646 40.7647 23.5291 40.3696L20.8018 40.3623C20.6966 40.3626 20.5924 40.3422 20.4951 40.3023C20.3979 40.2624 20.3094 40.2038 20.235 40.1298C20.1605 40.0559 20.1014 39.9681 20.0611 39.8714C20.0208 39.7747 20 39.671 20 39.5663L20.0157 33.7566C20.0156 33.652 20.0363 33.5484 20.0764 33.4518C20.1166 33.3552 20.1755 33.2673 20.2498 33.1933C20.3241 33.1194 20.4124 33.0607 20.5095 33.0206C20.6066 32.9806 20.7106 32.96 20.8158 32.96L23.5478 32.9666C23.6688 32.5695 23.8099 32.1808 23.9711 31.8006C24.1324 31.4203 24.3114 31.0457 24.5081 30.6767L22.5821 28.7513C22.5079 28.677 22.4492 28.589 22.4092 28.4921C22.3692 28.3952 22.3489 28.2915 22.3492 28.1868C22.3495 28.0821 22.3706 27.9785 22.4112 27.8819C22.4518 27.7853 22.5111 27.6976 22.5857 27.6238L26.725 23.5264C26.7994 23.4524 26.8877 23.3936 26.9849 23.3536C27.0821 23.3135 27.1863 23.2929 27.2916 23.2929C27.3968 23.2929 27.501 23.3135 27.5982 23.3536C27.6954 23.3936 27.7838 23.4524 27.8582 23.5264L29.7848 25.4518C30.1512 25.2586 30.528 25.0817 30.9144 24.9241C31.3008 24.7665 31.6908 24.6275 32.0905 24.5077L32.0966 21.7966C32.0966 21.5855 32.1808 21.3831 32.3307 21.2337C32.4805 21.0844 32.6839 21.0003 32.896 21L38.7351 21.015C38.8402 21.015 38.9443 21.0355 39.0414 21.0755C39.1386 21.1154 39.2268 21.1741 39.3012 21.248C39.3755 21.3219 39.4345 21.4097 39.4748 21.5063C39.515 21.6029 39.5357 21.7065 39.5357 21.8111L39.5297 24.5294C39.9296 24.6497 40.3204 24.7901 40.7022 24.9506C41.084 25.111 41.4603 25.2893 41.8312 25.4854L43.7663 23.5685C43.8409 23.4947 43.9294 23.4363 44.0268 23.3965C44.1241 23.3567 44.2284 23.3364 44.3336 23.3368C44.4389 23.3371 44.543 23.3581 44.6401 23.3985C44.7372 23.4388 44.8253 23.4979 44.8995 23.5721L49.0175 27.6906C49.092 27.7646 49.151 27.8525 49.1913 27.9492C49.2315 28.046 49.2523 28.1496 49.2523 28.2543C49.2523 28.359 49.2315 28.4627 49.1913 28.5594C49.151 28.6562 49.092 28.7441 49.0175 28.8181L47.0825 30.735C47.2772 31.0996 47.4542 31.4743 47.6134 31.8589C47.7726 32.2436 47.9121 32.6337 48.0319 33.0292L50.7603 33.0358C50.9716 33.0368 51.174 33.1208 51.3233 33.2695C51.4725 33.4183 51.5567 33.6198 51.5573 33.83L51.5422 39.6397C51.5422 39.851 51.4578 40.0536 51.3077 40.203C51.1576 40.3524 50.9539 40.4363 50.7416 40.4363L48.0101 40.4291C47.8892 40.827 47.7481 41.2159 47.5868 41.5958C47.4255 41.9756 47.2464 42.3501 47.0492 42.7191L48.9752 44.6444C49.0494 44.7186 49.1082 44.8067 49.1482 44.9035C49.1883 45.0004 49.2087 45.1041 49.2084 45.2088C49.2081 45.3135 49.1871 45.4171 49.1466 45.5138C49.1061 45.6104 49.0468 45.6981 48.9722 45.7719L44.833 49.8693C44.7584 49.9432 44.6699 50.0017 44.5725 50.0415C44.4752 50.0813 44.371 50.1016 44.2657 50.1014C44.1605 50.1011 44.0563 50.0802 43.9592 50.0399C43.8621 49.9995 43.7739 49.9406 43.6997 49.8663L41.7725 47.941C41.4065 48.1347 41.0299 48.3108 40.6429 48.4692C40.2559 48.6277 39.8641 48.7665 39.4674 48.8856L39.4601 51.6003C39.4602 51.7049 39.4396 51.8085 39.3994 51.9051C39.3592 52.0018 39.3003 52.0896 39.226 52.1636C39.1517 52.2376 39.0635 52.2962 38.9664 52.3363C38.8693 52.3763 38.7652 52.3969 38.6601 52.3969L38.6583 52.3987ZM33.6217 50.7929L33.6277 48.2659C33.6277 48.0885 33.5683 47.9162 33.4587 47.7762C33.3492 47.6363 33.1959 47.5367 33.023 47.4933C31.9613 47.2244 30.9452 46.8015 30.0073 46.2382C29.847 46.142 29.6579 46.1046 29.4728 46.1325C29.2877 46.1604 29.1183 46.2519 28.9938 46.3911L27.2269 48.1395L24.2396 45.1486L26.0404 43.3665C26.1698 43.2382 26.2514 43.0699 26.2716 42.8893C26.2918 42.7086 26.2495 42.5266 26.1517 42.3731C25.5956 41.4424 25.1804 40.4352 24.9193 39.384C24.8745 39.2036 24.7679 39.0443 24.6178 38.9337C24.4676 38.8231 24.2834 38.7681 24.0969 38.7781L21.6031 38.7715L21.614 34.555L24.1537 34.561C24.3321 34.5612 24.5054 34.5021 24.6462 34.3931C24.787 34.2841 24.8871 34.1314 24.9308 33.9594C25.2011 32.903 25.6261 31.892 26.1922 30.9588C26.2888 30.7993 26.3264 30.6112 26.2983 30.4271C26.2703 30.2429 26.1784 30.0743 26.0386 29.9504L24.2832 28.1918L27.2867 25.2183L29.0779 27.0101C29.2068 27.1388 29.376 27.22 29.5575 27.2401C29.739 27.2602 29.922 27.2181 30.0763 27.1208C31.0108 26.5679 32.022 26.1547 33.0774 25.8946C33.259 25.8503 33.4192 25.7442 33.5305 25.5948C33.6418 25.4454 33.6972 25.262 33.687 25.0763L33.693 22.595L37.9314 22.6059L37.9248 25.1329C37.9247 25.3103 37.9841 25.4827 38.0937 25.6228C38.2032 25.7628 38.3566 25.8625 38.5295 25.906C39.5909 26.1751 40.6068 26.598 41.5446 27.1611C41.7049 27.2574 41.8941 27.2948 42.0793 27.2669C42.2646 27.239 42.4341 27.1475 42.5587 27.0083L44.325 25.2598L47.3135 28.2483L45.5127 30.0305C45.3832 30.1587 45.3015 30.327 45.2813 30.5077C45.2611 30.6883 45.3034 30.8704 45.4014 31.0238C45.9575 31.9546 46.3727 32.9617 46.6338 34.0129C46.6783 34.1935 46.7849 34.3529 46.9351 34.4635C47.0853 34.5741 47.2696 34.6291 47.4562 34.6188L49.95 34.6248L49.9391 38.8419L47.3993 38.8353C47.2211 38.8353 47.0479 38.8944 46.9072 39.0034C46.7666 39.1124 46.6665 39.265 46.6229 39.437C46.3525 40.4933 45.9272 41.5044 45.3609 42.4375C45.2644 42.597 45.2269 42.7851 45.2549 42.9692C45.283 43.1534 45.3748 43.322 45.5145 43.4459L47.2724 45.2034L44.2706 48.1804L42.4788 46.3887C42.3501 46.2599 42.181 46.1787 41.9995 46.1585C41.8181 46.1384 41.6352 46.1805 41.4811 46.278C40.5455 46.831 39.5333 47.2441 38.4769 47.5042C38.2954 47.5485 38.1352 47.6545 38.024 47.804C37.9128 47.9534 37.8576 48.1368 37.8679 48.3224L37.8613 50.8037L33.6217 50.7929ZM61.893 50.8446C61.7423 50.6945 61.6578 50.4909 61.6579 50.2787C61.6581 50.0665 61.743 49.8631 61.8939 49.7132C62.0448 49.5633 62.2494 49.4791 62.4627 49.4793C62.6759 49.4795 62.8804 49.5639 63.0311 49.7141L66.9266 53.5894L70.8215 49.7141C70.8961 49.6397 70.9847 49.5807 71.0823 49.5403C71.1798 49.5 71.2844 49.4792 71.39 49.4791C71.4956 49.479 71.6002 49.4996 71.6979 49.5397C71.7955 49.5798 71.8842 49.6387 71.959 49.7129C72.0337 49.7871 72.0931 49.8753 72.1336 49.9723C72.1741 50.0694 72.195 50.1734 72.1952 50.2785C72.1953 50.3836 72.1746 50.4877 72.1343 50.5848C72.0939 50.682 72.0348 50.7702 71.9602 50.8446L67.7272 55.0509V64.8996H72.9882V64.4093C72.9882 61.372 74.2877 60.0279 75.7094 58.5592C77.1685 57.0502 78.7759 55.3872 78.7759 50.9656C78.787 49.4094 78.4886 47.8664 77.8978 46.4255C77.307 44.9846 76.4355 43.6742 75.3335 42.5699C74.2315 41.4656 72.9208 40.5891 71.4769 39.991C70.0329 39.3929 68.4843 39.085 66.9202 39.085C65.3562 39.085 63.8076 39.3929 62.3636 39.991C60.9197 40.5891 59.609 41.4656 58.507 42.5699C57.405 43.6742 56.5335 44.9846 55.9427 46.4255C55.3519 47.8664 55.0535 49.4094 55.0646 50.9656C55.0646 55.3939 56.6877 57.0707 58.1523 58.5839C59.5637 60.0424 60.8499 61.3714 60.8499 64.3347V64.8996H66.1247V55.0509L61.8966 50.8446H61.893ZM74.3252 71.0607H75.2558C75.469 71.0607 75.6734 70.9765 75.8241 70.8265C75.9748 70.6766 76.0595 70.4732 76.0595 70.2611V65.6993C76.0595 65.4872 75.9748 65.2838 75.8241 65.1338C75.6734 64.9839 75.469 64.8996 75.2558 64.8996H74.5961V64.4093C74.5961 62.0098 75.6791 60.8895 76.8626 59.6651C78.537 57.9335 80.3814 56.025 80.3814 50.9656C80.3575 47.4285 78.9286 44.0443 76.4064 41.5515C73.8842 39.0588 70.4735 37.6598 66.9184 37.6598C63.3634 37.6598 59.9526 39.0588 57.4304 41.5515C54.9082 44.0443 53.4793 47.4285 53.4555 50.9656C53.4555 56.0328 55.3162 57.9546 56.9955 59.6898C58.1704 60.9039 59.2414 62.0104 59.2414 64.3347V64.8996H58.5961C58.383 64.8996 58.1786 64.9839 58.0279 65.1338C57.8771 65.2838 57.7925 65.4872 57.7925 65.6993V70.2587C57.7925 70.4708 57.8771 70.6742 58.0279 70.8241C58.1786 70.9741 58.383 71.0583 58.5961 71.0583H59.525V74.468C59.525 74.573 59.5458 74.6769 59.5861 74.7739C59.6265 74.8709 59.6857 74.959 59.7604 75.0332C59.835 75.1074 59.9236 75.1662 60.0211 75.2064C60.1186 75.2465 60.2231 75.2671 60.3286 75.267H63.6073C63.6025 75.6406 63.5856 76.1846 63.5856 76.4703C63.586 76.9008 63.6723 77.3268 63.8395 77.7238C64.0066 78.1208 64.2512 78.4809 64.5592 78.7832C65.0234 79.2489 65.6159 79.5674 66.2619 79.6985C66.9079 79.8296 67.5784 79.7675 68.1889 79.5199C68.7994 79.2723 69.3226 78.8504 69.6924 78.3074C70.0623 77.7643 70.2622 77.1245 70.267 76.4685L70.2489 75.2652H73.5264C73.6319 75.2653 73.7364 75.2447 73.8339 75.2045C73.9314 75.1644 74.02 75.1056 74.0946 75.0314C74.1692 74.9572 74.2285 74.8691 74.2689 74.7721C74.3092 74.6751 74.33 74.5712 74.33 74.4662V71.0583L74.3252 71.0607ZM68.6409 75.2724C68.6464 75.6424 68.6555 76.2219 68.6555 76.4758C68.6555 76.6957 68.6117 76.9135 68.5264 77.1165C68.4412 77.3194 68.3163 77.5035 68.159 77.658C67.8304 77.983 67.386 78.1654 66.9227 78.1654C66.4594 78.1654 66.0149 77.983 65.6863 77.658C65.3881 77.3328 65.2115 76.9153 65.1862 76.4758L65.2044 75.2724H68.6409ZM61.1292 71.0607H72.7197V73.6708H61.1359V71.0583L61.1292 71.0607ZM74.4522 66.5007V69.4609H59.4004V66.5007H74.4522ZM59.0315 44.5108C59.1681 44.3535 59.3611 44.2555 59.5693 44.2377C59.7776 44.22 59.9845 44.284 60.1459 44.4161C60.3074 44.5481 60.4105 44.7377 60.4333 44.9444C60.4562 45.1511 60.3969 45.3585 60.2681 45.5223C58.9963 47.0533 58.3037 48.9793 58.3107 50.9656C58.3136 51.0724 58.295 51.1787 58.256 51.2782C58.2169 51.3778 58.1582 51.4685 58.0834 51.5451C58.0085 51.6217 57.9189 51.6826 57.82 51.7241C57.721 51.7657 57.6147 51.7871 57.5073 51.7871C57.4 51.7871 57.2936 51.7657 57.1947 51.7241C57.0958 51.6826 57.0062 51.6217 56.9313 51.5451C56.8564 51.4685 56.7977 51.3778 56.7587 51.2782C56.7196 51.1787 56.701 51.0724 56.704 50.9656C56.7036 48.6105 57.5265 46.3286 59.0315 44.5108Z"/>
</mask>
<path fill-rule="evenodd" clip-rule="evenodd" d="M62.7589 41.683C62.9519 41.6031 63.1685 41.6013 63.3627 41.6781C63.5569 41.7549 63.7133 41.9041 63.7985 42.094C63.8837 42.2838 63.891 42.4993 63.8188 42.6944C63.7466 42.8895 63.6006 43.0489 63.412 43.1384C63.2463 43.2118 63.0762 43.2945 62.9016 43.3863C62.7271 43.4782 62.563 43.571 62.4094 43.6649C62.2288 43.7729 62.0128 43.8057 61.808 43.7562C61.6033 43.7067 61.4265 43.5789 61.3158 43.4006C61.2051 43.2222 61.1695 43.0076 61.2168 42.8034C61.2641 42.5991 61.3904 42.4216 61.5683 42.3093C61.7698 42.1858 61.9652 42.0743 62.1542 41.9748C62.3433 41.8753 62.5449 41.7781 62.7589 41.683ZM54.8312 72.1209C55.0444 72.1209 55.2488 72.2051 55.3995 72.3551C55.5502 72.505 55.6349 72.7084 55.6349 72.9205C55.6349 73.1326 55.5502 73.3359 55.3995 73.4859C55.2488 73.6359 55.0444 73.7201 54.8312 73.7201L54.702 73.7201C54.4888 73.7201 54.2844 73.6359 54.1337 73.4859C53.983 73.3359 53.8983 73.1326 53.8983 72.9205C53.8983 72.7084 53.983 72.505 54.1337 72.3551C54.2844 72.2051 54.4888 72.1209 54.702 72.1209L54.8312 72.1209ZM52.3519 72.1209C52.565 72.1209 52.7695 72.2051 52.9202 72.3551C53.0709 72.505 53.1556 72.7084 53.1556 72.9205C53.1556 73.1326 53.0709 73.3359 52.9202 73.4859C52.7695 73.6359 52.565 73.7201 52.3519 73.7201L51.4613 73.7207C51.2482 73.7207 50.9937 73.6359 50.843 73.4859C50.6923 73.3359 50.6076 73.1326 50.6076 72.9205C50.6076 72.7084 50.6923 72.505 50.843 72.3551C50.9937 72.2051 51.2482 72.1215 51.4613 72.1215L52.3519 72.1209ZM35.2991 53.5154L33.2165 57.6603H34.4955V67.6523C34.5025 69.2634 35.1504 70.8063 36.2975 71.9434C37.4446 73.0806 38.9976 73.7196 40.6169 73.7207H49.0762C49.2893 73.7207 49.4938 73.6365 49.6445 73.4865C49.7952 73.3365 49.8799 73.1332 49.8799 72.9211C49.8799 72.709 49.7952 72.5056 49.6445 72.3557C49.4938 72.2057 49.2893 72.1215 49.0762 72.1215H40.6169C39.9519 72.1214 39.2951 71.9752 38.6934 71.6933C38.0917 71.4115 37.56 71.0009 37.1362 70.4909C36.4678 69.6948 36.1018 68.6903 36.1022 67.6529V57.6603H37.3817L35.2991 53.5154ZM37.8389 41.0121C38.8404 40.5385 39.6464 39.7346 40.1198 38.7368C40.5933 37.7391 40.7051 36.6091 40.4363 35.5387C40.1675 34.4682 39.5346 33.5233 38.6451 32.8645C37.7556 32.2056 36.6643 31.8733 35.5566 31.9241C34.4488 31.9749 33.3929 32.4055 32.568 33.143C31.7432 33.8804 31.2003 34.8792 31.0315 35.9697C30.8627 37.0602 31.0784 38.1752 31.6421 39.1254C32.2057 40.0756 33.0825 40.8024 34.1236 41.1824C34.7229 41.4023 35.3604 41.5006 35.9986 41.4713C36.6367 41.4421 37.2624 41.286 37.8389 41.0121ZM38.4648 42.4826C37.1204 43.1004 35.6023 43.2353 34.1691 42.8644C32.7359 42.4935 31.4763 41.6398 30.6047 40.4486C29.7332 39.2573 29.3036 37.8023 29.3892 36.3314C29.4749 34.8604 30.0704 33.4645 31.0743 32.3813C32.0782 31.2982 33.4285 30.5948 34.8951 30.391C36.3618 30.1872 37.854 30.4956 39.1178 31.2637C40.3816 32.0317 41.3386 33.2119 41.826 34.6033C42.3134 35.9946 42.3009 37.511 41.7907 38.8943C41.5016 39.6811 41.0589 40.4032 40.4881 41.0191C39.9173 41.6349 39.2296 42.1323 38.4648 42.4826ZM38.6583 52.3987L32.8192 52.3837C32.6069 52.3837 32.4032 52.2998 32.2531 52.1504C32.1029 52.001 32.0186 51.7984 32.0186 51.5871L32.0252 48.8693C31.6261 48.749 31.2355 48.6086 30.8533 48.4482C30.4711 48.2877 30.0946 48.1094 29.7237 47.9133L27.7886 49.8296C27.7142 49.9037 27.6259 49.9624 27.5287 50.0025C27.4315 50.0425 27.3273 50.0632 27.222 50.0632C27.1168 50.0632 27.0126 50.0425 26.9154 50.0025C26.8182 49.9624 26.7298 49.9037 26.6554 49.8296L22.538 45.7082C22.4638 45.6339 22.405 45.5458 22.3651 45.449C22.3251 45.3521 22.3047 45.2484 22.305 45.1437C22.3054 45.039 22.3264 44.9353 22.367 44.8387C22.4076 44.7421 22.4669 44.6544 22.5416 44.5806L24.4767 42.6631C24.2844 42.2993 24.1076 41.9249 23.9463 41.5398C23.7851 41.1547 23.646 40.7647 23.5291 40.3696L20.8018 40.3623C20.6966 40.3626 20.5924 40.3422 20.4951 40.3023C20.3979 40.2624 20.3094 40.2038 20.235 40.1298C20.1605 40.0559 20.1014 39.9681 20.0611 39.8714C20.0208 39.7747 20 39.671 20 39.5663L20.0157 33.7566C20.0156 33.652 20.0363 33.5484 20.0764 33.4518C20.1166 33.3552 20.1755 33.2673 20.2498 33.1933C20.3241 33.1194 20.4124 33.0607 20.5095 33.0206C20.6066 32.9806 20.7106 32.96 20.8158 32.96L23.5478 32.9666C23.6688 32.5695 23.8099 32.1808 23.9711 31.8006C24.1324 31.4203 24.3114 31.0457 24.5081 30.6767L22.5821 28.7513C22.5079 28.677 22.4492 28.589 22.4092 28.4921C22.3692 28.3952 22.3489 28.2915 22.3492 28.1868C22.3495 28.0821 22.3706 27.9785 22.4112 27.8819C22.4518 27.7853 22.5111 27.6976 22.5857 27.6238L26.725 23.5264C26.7994 23.4524 26.8877 23.3936 26.9849 23.3536C27.0821 23.3135 27.1863 23.2929 27.2916 23.2929C27.3968 23.2929 27.501 23.3135 27.5982 23.3536C27.6954 23.3936 27.7838 23.4524 27.8582 23.5264L29.7848 25.4518C30.1512 25.2586 30.528 25.0817 30.9144 24.9241C31.3008 24.7665 31.6908 24.6275 32.0905 24.5077L32.0966 21.7966C32.0966 21.5855 32.1808 21.3831 32.3307 21.2337C32.4805 21.0844 32.6839 21.0003 32.896 21L38.7351 21.015C38.8402 21.015 38.9443 21.0355 39.0414 21.0755C39.1386 21.1154 39.2268 21.1741 39.3012 21.248C39.3755 21.3219 39.4345 21.4097 39.4748 21.5063C39.515 21.6029 39.5357 21.7065 39.5357 21.8111L39.5297 24.5294C39.9296 24.6497 40.3204 24.7901 40.7022 24.9506C41.084 25.111 41.4603 25.2893 41.8312 25.4854L43.7663 23.5685C43.8409 23.4947 43.9294 23.4363 44.0268 23.3965C44.1241 23.3567 44.2284 23.3364 44.3336 23.3368C44.4389 23.3371 44.543 23.3581 44.6401 23.3985C44.7372 23.4388 44.8253 23.4979 44.8995 23.5721L49.0175 27.6906C49.092 27.7646 49.151 27.8525 49.1913 27.9492C49.2315 28.046 49.2523 28.1496 49.2523 28.2543C49.2523 28.359 49.2315 28.4627 49.1913 28.5594C49.151 28.6562 49.092 28.7441 49.0175 28.8181L47.0825 30.735C47.2772 31.0996 47.4542 31.4743 47.6134 31.8589C47.7726 32.2436 47.9121 32.6337 48.0319 33.0292L50.7603 33.0358C50.9716 33.0368 51.174 33.1208 51.3233 33.2695C51.4725 33.4183 51.5567 33.6198 51.5573 33.83L51.5422 39.6397C51.5422 39.851 51.4578 40.0536 51.3077 40.203C51.1576 40.3524 50.9539 40.4363 50.7416 40.4363L48.0101 40.4291C47.8892 40.827 47.7481 41.2159 47.5868 41.5958C47.4255 41.9756 47.2464 42.3501 47.0492 42.7191L48.9752 44.6444C49.0494 44.7186 49.1082 44.8067 49.1482 44.9035C49.1883 45.0004 49.2087 45.1041 49.2084 45.2088C49.2081 45.3135 49.1871 45.4171 49.1466 45.5138C49.1061 45.6104 49.0468 45.6981 48.9722 45.7719L44.833 49.8693C44.7584 49.9432 44.6699 50.0017 44.5725 50.0415C44.4752 50.0813 44.371 50.1016 44.2657 50.1014C44.1605 50.1011 44.0563 50.0802 43.9592 50.0399C43.8621 49.9995 43.7739 49.9406 43.6997 49.8663L41.7725 47.941C41.4065 48.1347 41.0299 48.3108 40.6429 48.4692C40.2559 48.6277 39.8641 48.7665 39.4674 48.8856L39.4601 51.6003C39.4602 51.7049 39.4396 51.8085 39.3994 51.9051C39.3592 52.0018 39.3003 52.0896 39.226 52.1636C39.1517 52.2376 39.0635 52.2962 38.9664 52.3363C38.8693 52.3763 38.7652 52.3969 38.6601 52.3969L38.6583 52.3987ZM33.6217 50.7929L33.6277 48.2659C33.6277 48.0885 33.5683 47.9162 33.4587 47.7762C33.3492 47.6363 33.1959 47.5367 33.023 47.4933C31.9613 47.2244 30.9452 46.8015 30.0073 46.2382C29.847 46.142 29.6579 46.1046 29.4728 46.1325C29.2877 46.1604 29.1183 46.2519 28.9938 46.3911L27.2269 48.1395L24.2396 45.1486L26.0404 43.3665C26.1698 43.2382 26.2514 43.0699 26.2716 42.8893C26.2918 42.7086 26.2495 42.5266 26.1517 42.3731C25.5956 41.4424 25.1804 40.4352 24.9193 39.384C24.8745 39.2036 24.7679 39.0443 24.6178 38.9337C24.4676 38.8231 24.2834 38.7681 24.0969 38.7781L21.6031 38.7715L21.614 34.555L24.1537 34.561C24.3321 34.5612 24.5054 34.5021 24.6462 34.3931C24.787 34.2841 24.8871 34.1314 24.9308 33.9594C25.2011 32.903 25.6261 31.892 26.1922 30.9588C26.2888 30.7993 26.3264 30.6112 26.2983 30.4271C26.2703 30.2429 26.1784 30.0743 26.0386 29.9504L24.2832 28.1918L27.2867 25.2183L29.0779 27.0101C29.2068 27.1388 29.376 27.22 29.5575 27.2401C29.739 27.2602 29.922 27.2181 30.0763 27.1208C31.0108 26.5679 32.022 26.1547 33.0774 25.8946C33.259 25.8503 33.4192 25.7442 33.5305 25.5948C33.6418 25.4454 33.6972 25.262 33.687 25.0763L33.693 22.595L37.9314 22.6059L37.9248 25.1329C37.9247 25.3103 37.9841 25.4827 38.0937 25.6228C38.2032 25.7628 38.3566 25.8625 38.5295 25.906C39.5909 26.1751 40.6068 26.598 41.5446 27.1611C41.7049 27.2574 41.8941 27.2948 42.0793 27.2669C42.2646 27.239 42.4341 27.1475 42.5587 27.0083L44.325 25.2598L47.3135 28.2483L45.5127 30.0305C45.3832 30.1587 45.3015 30.327 45.2813 30.5077C45.2611 30.6883 45.3034 30.8704 45.4014 31.0238C45.9575 31.9546 46.3727 32.9617 46.6338 34.0129C46.6783 34.1935 46.7849 34.3529 46.9351 34.4635C47.0853 34.5741 47.2696 34.6291 47.4562 34.6188L49.95 34.6248L49.9391 38.8419L47.3993 38.8353C47.2211 38.8353 47.0479 38.8944 46.9072 39.0034C46.7666 39.1124 46.6665 39.265 46.6229 39.437C46.3525 40.4933 45.9272 41.5044 45.3609 42.4375C45.2644 42.597 45.2269 42.7851 45.2549 42.9692C45.283 43.1534 45.3748 43.322 45.5145 43.4459L47.2724 45.2034L44.2706 48.1804L42.4788 46.3887C42.3501 46.2599 42.181 46.1787 41.9995 46.1585C41.8181 46.1384 41.6352 46.1805 41.4811 46.278C40.5455 46.831 39.5333 47.2441 38.4769 47.5042C38.2954 47.5485 38.1352 47.6545 38.024 47.804C37.9128 47.9534 37.8576 48.1368 37.8679 48.3224L37.8613 50.8037L33.6217 50.7929ZM61.893 50.8446C61.7423 50.6945 61.6578 50.4909 61.6579 50.2787C61.6581 50.0665 61.743 49.8631 61.8939 49.7132C62.0448 49.5633 62.2494 49.4791 62.4627 49.4793C62.6759 49.4795 62.8804 49.5639 63.0311 49.7141L66.9266 53.5894L70.8215 49.7141C70.8961 49.6397 70.9847 49.5807 71.0823 49.5403C71.1798 49.5 71.2844 49.4792 71.39 49.4791C71.4956 49.479 71.6002 49.4996 71.6979 49.5397C71.7955 49.5798 71.8842 49.6387 71.959 49.7129C72.0337 49.7871 72.0931 49.8753 72.1336 49.9723C72.1741 50.0694 72.195 50.1734 72.1952 50.2785C72.1953 50.3836 72.1746 50.4877 72.1343 50.5848C72.0939 50.682 72.0348 50.7702 71.9602 50.8446L67.7272 55.0509V64.8996H72.9882V64.4093C72.9882 61.372 74.2877 60.0279 75.7094 58.5592C77.1685 57.0502 78.7759 55.3872 78.7759 50.9656C78.787 49.4094 78.4886 47.8664 77.8978 46.4255C77.307 44.9846 76.4355 43.6742 75.3335 42.5699C74.2315 41.4656 72.9208 40.5891 71.4769 39.991C70.0329 39.3929 68.4843 39.085 66.9202 39.085C65.3562 39.085 63.8076 39.3929 62.3636 39.991C60.9197 40.5891 59.609 41.4656 58.507 42.5699C57.405 43.6742 56.5335 44.9846 55.9427 46.4255C55.3519 47.8664 55.0535 49.4094 55.0646 50.9656C55.0646 55.3939 56.6877 57.0707 58.1523 58.5839C59.5637 60.0424 60.8499 61.3714 60.8499 64.3347V64.8996H66.1247V55.0509L61.8966 50.8446H61.893ZM74.3252 71.0607H75.2558C75.469 71.0607 75.6734 70.9765 75.8241 70.8265C75.9748 70.6766 76.0595 70.4732 76.0595 70.2611V65.6993C76.0595 65.4872 75.9748 65.2838 75.8241 65.1338C75.6734 64.9839 75.469 64.8996 75.2558 64.8996H74.5961V64.4093C74.5961 62.0098 75.6791 60.8895 76.8626 59.6651C78.537 57.9335 80.3814 56.025 80.3814 50.9656C80.3575 47.4285 78.9286 44.0443 76.4064 41.5515C73.8842 39.0588 70.4735 37.6598 66.9184 37.6598C63.3634 37.6598 59.9526 39.0588 57.4304 41.5515C54.9082 44.0443 53.4793 47.4285 53.4555 50.9656C53.4555 56.0328 55.3162 57.9546 56.9955 59.6898C58.1704 60.9039 59.2414 62.0104 59.2414 64.3347V64.8996H58.5961C58.383 64.8996 58.1786 64.9839 58.0279 65.1338C57.8771 65.2838 57.7925 65.4872 57.7925 65.6993V70.2587C57.7925 70.4708 57.8771 70.6742 58.0279 70.8241C58.1786 70.9741 58.383 71.0583 58.5961 71.0583H59.525V74.468C59.525 74.573 59.5458 74.6769 59.5861 74.7739C59.6265 74.8709 59.6857 74.959 59.7604 75.0332C59.835 75.1074 59.9236 75.1662 60.0211 75.2064C60.1186 75.2465 60.2231 75.2671 60.3286 75.267H63.6073C63.6025 75.6406 63.5856 76.1846 63.5856 76.4703C63.586 76.9008 63.6723 77.3268 63.8395 77.7238C64.0066 78.1208 64.2512 78.4809 64.5592 78.7832C65.0234 79.2489 65.6159 79.5674 66.2619 79.6985C66.9079 79.8296 67.5784 79.7675 68.1889 79.5199C68.7994 79.2723 69.3226 78.8504 69.6924 78.3074C70.0623 77.7643 70.2622 77.1245 70.267 76.4685L70.2489 75.2652H73.5264C73.6319 75.2653 73.7364 75.2447 73.8339 75.2045C73.9314 75.1644 74.02 75.1056 74.0946 75.0314C74.1692 74.9572 74.2285 74.8691 74.2689 74.7721C74.3092 74.6751 74.33 74.5712 74.33 74.4662V71.0583L74.3252 71.0607ZM68.6409 75.2724C68.6464 75.6424 68.6555 76.2219 68.6555 76.4758C68.6555 76.6957 68.6117 76.9135 68.5264 77.1165C68.4412 77.3194 68.3163 77.5035 68.159 77.658C67.8304 77.983 67.386 78.1654 66.9227 78.1654C66.4594 78.1654 66.0149 77.983 65.6863 77.658C65.3881 77.3328 65.2115 76.9153 65.1862 76.4758L65.2044 75.2724H68.6409ZM61.1292 71.0607H72.7197V73.6708H61.1359V71.0583L61.1292 71.0607ZM74.4522 66.5007V69.4609H59.4004V66.5007H74.4522ZM59.0315 44.5108C59.1681 44.3535 59.3611 44.2555 59.5693 44.2377C59.7776 44.22 59.9845 44.284 60.1459 44.4161C60.3074 44.5481 60.4105 44.7377 60.4333 44.9444C60.4562 45.1511 60.3969 45.3585 60.2681 45.5223C58.9963 47.0533 58.3037 48.9793 58.3107 50.9656C58.3136 51.0724 58.295 51.1787 58.256 51.2782C58.2169 51.3778 58.1582 51.4685 58.0834 51.5451C58.0085 51.6217 57.9189 51.6826 57.82 51.7241C57.721 51.7657 57.6147 51.7871 57.5073 51.7871C57.4 51.7871 57.2936 51.7657 57.1947 51.7241C57.0958 51.6826 57.0062 51.6217 56.9313 51.5451C56.8564 51.4685 56.7977 51.3778 56.7587 51.2782C56.7196 51.1787 56.701 51.0724 56.704 50.9656C56.7036 48.6105 57.5265 46.3286 59.0315 44.5108Z" fill="#FF9900"/>
<path fill-rule="evenodd" clip-rule="evenodd" d="M62.7589 41.683C62.9519 41.6031 63.1685 41.6013 63.3627 41.6781C63.5569 41.7549 63.7133 41.9041 63.7985 42.094C63.8837 42.2838 63.891 42.4993 63.8188 42.6944C63.7466 42.8895 63.6006 43.0489 63.412 43.1384C63.2463 43.2118 63.0762 43.2945 62.9016 43.3863C62.7271 43.4782 62.563 43.571 62.4094 43.6649C62.2288 43.7729 62.0128 43.8057 61.808 43.7562C61.6033 43.7067 61.4265 43.5789 61.3158 43.4006C61.2051 43.2222 61.1695 43.0076 61.2168 42.8034C61.2641 42.5991 61.3904 42.4216 61.5683 42.3093C61.7698 42.1858 61.9652 42.0743 62.1542 41.9748C62.3433 41.8753 62.5449 41.7781 62.7589 41.683ZM54.8312 72.1209C55.0444 72.1209 55.2488 72.2051 55.3995 72.3551C55.5502 72.505 55.6349 72.7084 55.6349 72.9205C55.6349 73.1326 55.5502 73.3359 55.3995 73.4859C55.2488 73.6359 55.0444 73.7201 54.8312 73.7201L54.702 73.7201C54.4888 73.7201 54.2844 73.6359 54.1337 73.4859C53.983 73.3359 53.8983 73.1326 53.8983 72.9205C53.8983 72.7084 53.983 72.505 54.1337 72.3551C54.2844 72.2051 54.4888 72.1209 54.702 72.1209L54.8312 72.1209ZM52.3519 72.1209C52.565 72.1209 52.7695 72.2051 52.9202 72.3551C53.0709 72.505 53.1556 72.7084 53.1556 72.9205C53.1556 73.1326 53.0709 73.3359 52.9202 73.4859C52.7695 73.6359 52.565 73.7201 52.3519 73.7201L51.4613 73.7207C51.2482 73.7207 50.9937 73.6359 50.843 73.4859C50.6923 73.3359 50.6076 73.1326 50.6076 72.9205C50.6076 72.7084 50.6923 72.505 50.843 72.3551C50.9937 72.2051 51.2482 72.1215 51.4613 72.1215L52.3519 72.1209ZM35.2991 53.5154L33.2165 57.6603H34.4955V67.6523C34.5025 69.2634 35.1504 70.8063 36.2975 71.9434C37.4446 73.0806 38.9976 73.7196 40.6169 73.7207H49.0762C49.2893 73.7207 49.4938 73.6365 49.6445 73.4865C49.7952 73.3365 49.8799 73.1332 49.8799 72.9211C49.8799 72.709 49.7952 72.5056 49.6445 72.3557C49.4938 72.2057 49.2893 72.1215 49.0762 72.1215H40.6169C39.9519 72.1214 39.2951 71.9752 38.6934 71.6933C38.0917 71.4115 37.56 71.0009 37.1362 70.4909C36.4678 69.6948 36.1018 68.6903 36.1022 67.6529V57.6603H37.3817L35.2991 53.5154ZM37.8389 41.0121C38.8404 40.5385 39.6464 39.7346 40.1198 38.7368C40.5933 37.7391 40.7051 36.6091 40.4363 35.5387C40.1675 34.4682 39.5346 33.5233 38.6451 32.8645C37.7556 32.2056 36.6643 31.8733 35.5566 31.9241C34.4488 31.9749 33.3929 32.4055 32.568 33.143C31.7432 33.8804 31.2003 34.8792 31.0315 35.9697C30.8627 37.0602 31.0784 38.1752 31.6421 39.1254C32.2057 40.0756 33.0825 40.8024 34.1236 41.1824C34.7229 41.4023 35.3604 41.5006 35.9986 41.4713C36.6367 41.4421 37.2624 41.286 37.8389 41.0121ZM38.4648 42.4826C37.1204 43.1004 35.6023 43.2353 34.1691 42.8644C32.7359 42.4935 31.4763 41.6398 30.6047 40.4486C29.7332 39.2573 29.3036 37.8023 29.3892 36.3314C29.4749 34.8604 30.0704 33.4645 31.0743 32.3813C32.0782 31.2982 33.4285 30.5948 34.8951 30.391C36.3618 30.1872 37.854 30.4956 39.1178 31.2637C40.3816 32.0317 41.3386 33.2119 41.826 34.6033C42.3134 35.9946 42.3009 37.511 41.7907 38.8943C41.5016 39.6811 41.0589 40.4032 40.4881 41.0191C39.9173 41.6349 39.2296 42.1323 38.4648 42.4826ZM38.6583 52.3987L32.8192 52.3837C32.6069 52.3837 32.4032 52.2998 32.2531 52.1504C32.1029 52.001 32.0186 51.7984 32.0186 51.5871L32.0252 48.8693C31.6261 48.749 31.2355 48.6086 30.8533 48.4482C30.4711 48.2877 30.0946 48.1094 29.7237 47.9133L27.7886 49.8296C27.7142 49.9037 27.6259 49.9624 27.5287 50.0025C27.4315 50.0425 27.3273 50.0632 27.222 50.0632C27.1168 50.0632 27.0126 50.0425 26.9154 50.0025C26.8182 49.9624 26.7298 49.9037 26.6554 49.8296L22.538 45.7082C22.4638 45.6339 22.405 45.5458 22.3651 45.449C22.3251 45.3521 22.3047 45.2484 22.305 45.1437C22.3054 45.039 22.3264 44.9353 22.367 44.8387C22.4076 44.7421 22.4669 44.6544 22.5416 44.5806L24.4767 42.6631C24.2844 42.2993 24.1076 41.9249 23.9463 41.5398C23.7851 41.1547 23.646 40.7647 23.5291 40.3696L20.8018 40.3623C20.6966 40.3626 20.5924 40.3422 20.4951 40.3023C20.3979 40.2624 20.3094 40.2038 20.235 40.1298C20.1605 40.0559 20.1014 39.9681 20.0611 39.8714C20.0208 39.7747 20 39.671 20 39.5663L20.0157 33.7566C20.0156 33.652 20.0363 33.5484 20.0764 33.4518C20.1166 33.3552 20.1755 33.2673 20.2498 33.1933C20.3241 33.1194 20.4124 33.0607 20.5095 33.0206C20.6066 32.9806 20.7106 32.96 20.8158 32.96L23.5478 32.9666C23.6688 32.5695 23.8099 32.1808 23.9711 31.8006C24.1324 31.4203 24.3114 31.0457 24.5081 30.6767L22.5821 28.7513C22.5079 28.677 22.4492 28.589 22.4092 28.4921C22.3692 28.3952 22.3489 28.2915 22.3492 28.1868C22.3495 28.0821 22.3706 27.9785 22.4112 27.8819C22.4518 27.7853 22.5111 27.6976 22.5857 27.6238L26.725 23.5264C26.7994 23.4524 26.8877 23.3936 26.9849 23.3536C27.0821 23.3135 27.1863 23.2929 27.2916 23.2929C27.3968 23.2929 27.501 23.3135 27.5982 23.3536C27.6954 23.3936 27.7838 23.4524 27.8582 23.5264L29.7848 25.4518C30.1512 25.2586 30.528 25.0817 30.9144 24.9241C31.3008 24.7665 31.6908 24.6275 32.0905 24.5077L32.0966 21.7966C32.0966 21.5855 32.1808 21.3831 32.3307 21.2337C32.4805 21.0844 32.6839 21.0003 32.896 21L38.7351 21.015C38.8402 21.015 38.9443 21.0355 39.0414 21.0755C39.1386 21.1154 39.2268 21.1741 39.3012 21.248C39.3755 21.3219 39.4345 21.4097 39.4748 21.5063C39.515 21.6029 39.5357 21.7065 39.5357 21.8111L39.5297 24.5294C39.9296 24.6497 40.3204 24.7901 40.7022 24.9506C41.084 25.111 41.4603 25.2893 41.8312 25.4854L43.7663 23.5685C43.8409 23.4947 43.9294 23.4363 44.0268 23.3965C44.1241 23.3567 44.2284 23.3364 44.3336 23.3368C44.4389 23.3371 44.543 23.3581 44.6401 23.3985C44.7372 23.4388 44.8253 23.4979 44.8995 23.5721L49.0175 27.6906C49.092 27.7646 49.151 27.8525 49.1913 27.9492C49.2315 28.046 49.2523 28.1496 49.2523 28.2543C49.2523 28.359 49.2315 28.4627 49.1913 28.5594C49.151 28.6562 49.092 28.7441 49.0175 28.8181L47.0825 30.735C47.2772 31.0996 47.4542 31.4743 47.6134 31.8589C47.7726 32.2436 47.9121 32.6337 48.0319 33.0292L50.7603 33.0358C50.9716 33.0368 51.174 33.1208 51.3233 33.2695C51.4725 33.4183 51.5567 33.6198 51.5573 33.83L51.5422 39.6397C51.5422 39.851 51.4578 40.0536 51.3077 40.203C51.1576 40.3524 50.9539 40.4363 50.7416 40.4363L48.0101 40.4291C47.8892 40.827 47.7481 41.2159 47.5868 41.5958C47.4255 41.9756 47.2464 42.3501 47.0492 42.7191L48.9752 44.6444C49.0494 44.7186 49.1082 44.8067 49.1482 44.9035C49.1883 45.0004 49.2087 45.1041 49.2084 45.2088C49.2081 45.3135 49.1871 45.4171 49.1466 45.5138C49.1061 45.6104 49.0468 45.6981 48.9722 45.7719L44.833 49.8693C44.7584 49.9432 44.6699 50.0017 44.5725 50.0415C44.4752 50.0813 44.371 50.1016 44.2657 50.1014C44.1605 50.1011 44.0563 50.0802 43.9592 50.0399C43.8621 49.9995 43.7739 49.9406 43.6997 49.8663L41.7725 47.941C41.4065 48.1347 41.0299 48.3108 40.6429 48.4692C40.2559 48.6277 39.8641 48.7665 39.4674 48.8856L39.4601 51.6003C39.4602 51.7049 39.4396 51.8085 39.3994 51.9051C39.3592 52.0018 39.3003 52.0896 39.226 52.1636C39.1517 52.2376 39.0635 52.2962 38.9664 52.3363C38.8693 52.3763 38.7652 52.3969 38.6601 52.3969L38.6583 52.3987ZM33.6217 50.7929L33.6277 48.2659C33.6277 48.0885 33.5683 47.9162 33.4587 47.7762C33.3492 47.6363 33.1959 47.5367 33.023 47.4933C31.9613 47.2244 30.9452 46.8015 30.0073 46.2382C29.847 46.142 29.6579 46.1046 29.4728 46.1325C29.2877 46.1604 29.1183 46.2519 28.9938 46.3911L27.2269 48.1395L24.2396 45.1486L26.0404 43.3665C26.1698 43.2382 26.2514 43.0699 26.2716 42.8893C26.2918 42.7086 26.2495 42.5266 26.1517 42.3731C25.5956 41.4424 25.1804 40.4352 24.9193 39.384C24.8745 39.2036 24.7679 39.0443 24.6178 38.9337C24.4676 38.8231 24.2834 38.7681 24.0969 38.7781L21.6031 38.7715L21.614 34.555L24.1537 34.561C24.3321 34.5612 24.5054 34.5021 24.6462 34.3931C24.787 34.2841 24.8871 34.1314 24.9308 33.9594C25.2011 32.903 25.6261 31.892 26.1922 30.9588C26.2888 30.7993 26.3264 30.6112 26.2983 30.4271C26.2703 30.2429 26.1784 30.0743 26.0386 29.9504L24.2832 28.1918L27.2867 25.2183L29.0779 27.0101C29.2068 27.1388 29.376 27.22 29.5575 27.2401C29.739 27.2602 29.922 27.2181 30.0763 27.1208C31.0108 26.5679 32.022 26.1547 33.0774 25.8946C33.259 25.8503 33.4192 25.7442 33.5305 25.5948C33.6418 25.4454 33.6972 25.262 33.687 25.0763L33.693 22.595L37.9314 22.6059L37.9248 25.1329C37.9247 25.3103 37.9841 25.4827 38.0937 25.6228C38.2032 25.7628 38.3566 25.8625 38.5295 25.906C39.5909 26.1751 40.6068 26.598 41.5446 27.1611C41.7049 27.2574 41.8941 27.2948 42.0793 27.2669C42.2646 27.239 42.4341 27.1475 42.5587 27.0083L44.325 25.2598L47.3135 28.2483L45.5127 30.0305C45.3832 30.1587 45.3015 30.327 45.2813 30.5077C45.2611 30.6883 45.3034 30.8704 45.4014 31.0238C45.9575 31.9546 46.3727 32.9617 46.6338 34.0129C46.6783 34.1935 46.7849 34.3529 46.9351 34.4635C47.0853 34.5741 47.2696 34.6291 47.4562 34.6188L49.95 34.6248L49.9391 38.8419L47.3993 38.8353C47.2211 38.8353 47.0479 38.8944 46.9072 39.0034C46.7666 39.1124 46.6665 39.265 46.6229 39.437C46.3525 40.4933 45.9272 41.5044 45.3609 42.4375C45.2644 42.597 45.2269 42.7851 45.2549 42.9692C45.283 43.1534 45.3748 43.322 45.5145 43.4459L47.2724 45.2034L44.2706 48.1804L42.4788 46.3887C42.3501 46.2599 42.181 46.1787 41.9995 46.1585C41.8181 46.1384 41.6352 46.1805 41.4811 46.278C40.5455 46.831 39.5333 47.2441 38.4769 47.5042C38.2954 47.5485 38.1352 47.6545 38.024 47.804C37.9128 47.9534 37.8576 48.1368 37.8679 48.3224L37.8613 50.8037L33.6217 50.7929ZM61.893 50.8446C61.7423 50.6945 61.6578 50.4909 61.6579 50.2787C61.6581 50.0665 61.743 49.8631 61.8939 49.7132C62.0448 49.5633 62.2494 49.4791 62.4627 49.4793C62.6759 49.4795 62.8804 49.5639 63.0311 49.7141L66.9266 53.5894L70.8215 49.7141C70.8961 49.6397 70.9847 49.5807 71.0823 49.5403C71.1798 49.5 71.2844 49.4792 71.39 49.4791C71.4956 49.479 71.6002 49.4996 71.6979 49.5397C71.7955 49.5798 71.8842 49.6387 71.959 49.7129C72.0337 49.7871 72.0931 49.8753 72.1336 49.9723C72.1741 50.0694 72.195 50.1734 72.1952 50.2785C72.1953 50.3836 72.1746 50.4877 72.1343 50.5848C72.0939 50.682 72.0348 50.7702 71.9602 50.8446L67.7272 55.0509V64.8996H72.9882V64.4093C72.9882 61.372 74.2877 60.0279 75.7094 58.5592C77.1685 57.0502 78.7759 55.3872 78.7759 50.9656C78.787 49.4094 78.4886 47.8664 77.8978 46.4255C77.307 44.9846 76.4355 43.6742 75.3335 42.5699C74.2315 41.4656 72.9208 40.5891 71.4769 39.991C70.0329 39.3929 68.4843 39.085 66.9202 39.085C65.3562 39.085 63.8076 39.3929 62.3636 39.991C60.9197 40.5891 59.609 41.4656 58.507 42.5699C57.405 43.6742 56.5335 44.9846 55.9427 46.4255C55.3519 47.8664 55.0535 49.4094 55.0646 50.9656C55.0646 55.3939 56.6877 57.0707 58.1523 58.5839C59.5637 60.0424 60.8499 61.3714 60.8499 64.3347V64.8996H66.1247V55.0509L61.8966 50.8446H61.893ZM74.3252 71.0607H75.2558C75.469 71.0607 75.6734 70.9765 75.8241 70.8265C75.9748 70.6766 76.0595 70.4732 76.0595 70.2611V65.6993C76.0595 65.4872 75.9748 65.2838 75.8241 65.1338C75.6734 64.9839 75.469 64.8996 75.2558 64.8996H74.5961V64.4093C74.5961 62.0098 75.6791 60.8895 76.8626 59.6651C78.537 57.9335 80.3814 56.025 80.3814 50.9656C80.3575 47.4285 78.9286 44.0443 76.4064 41.5515C73.8842 39.0588 70.4735 37.6598 66.9184 37.6598C63.3634 37.6598 59.9526 39.0588 57.4304 41.5515C54.9082 44.0443 53.4793 47.4285 53.4555 50.9656C53.4555 56.0328 55.3162 57.9546 56.9955 59.6898C58.1704 60.9039 59.2414 62.0104 59.2414 64.3347V64.8996H58.5961C58.383 64.8996 58.1786 64.9839 58.0279 65.1338C57.8771 65.2838 57.7925 65.4872 57.7925 65.6993V70.2587C57.7925 70.4708 57.8771 70.6742 58.0279 70.8241C58.1786 70.9741 58.383 71.0583 58.5961 71.0583H59.525V74.468C59.525 74.573 59.5458 74.6769 59.5861 74.7739C59.6265 74.8709 59.6857 74.959 59.7604 75.0332C59.835 75.1074 59.9236 75.1662 60.0211 75.2064C60.1186 75.2465 60.2231 75.2671 60.3286 75.267H63.6073C63.6025 75.6406 63.5856 76.1846 63.5856 76.4703C63.586 76.9008 63.6723 77.3268 63.8395 77.7238C64.0066 78.1208 64.2512 78.4809 64.5592 78.7832C65.0234 79.2489 65.6159 79.5674 66.2619 79.6985C66.9079 79.8296 67.5784 79.7675 68.1889 79.5199C68.7994 79.2723 69.3226 78.8504 69.6924 78.3074C70.0623 77.7643 70.2622 77.1245 70.267 76.4685L70.2489 75.2652H73.5264C73.6319 75.2653 73.7364 75.2447 73.8339 75.2045C73.9314 75.1644 74.02 75.1056 74.0946 75.0314C74.1692 74.9572 74.2285 74.8691 74.2689 74.7721C74.3092 74.6751 74.33 74.5712 74.33 74.4662V71.0583L74.3252 71.0607ZM68.6409 75.2724C68.6464 75.6424 68.6555 76.2219 68.6555 76.4758C68.6555 76.6957 68.6117 76.9135 68.5264 77.1165C68.4412 77.3194 68.3163 77.5035 68.159 77.658C67.8304 77.983 67.386 78.1654 66.9227 78.1654C66.4594 78.1654 66.0149 77.983 65.6863 77.658C65.3881 77.3328 65.2115 76.9153 65.1862 76.4758L65.2044 75.2724H68.6409ZM61.1292 71.0607H72.7197V73.6708H61.1359V71.0583L61.1292 71.0607ZM74.4522 66.5007V69.4609H59.4004V66.5007H74.4522ZM59.0315 44.5108C59.1681 44.3535 59.3611 44.2555 59.5693 44.2377C59.7776 44.22 59.9845 44.284 60.1459 44.4161C60.3074 44.5481 60.4105 44.7377 60.4333 44.9444C60.4562 45.1511 60.3969 45.3585 60.2681 45.5223C58.9963 47.0533 58.3037 48.9793 58.3107 50.9656C58.3136 51.0724 58.295 51.1787 58.256 51.2782C58.2169 51.3778 58.1582 51.4685 58.0834 51.5451C58.0085 51.6217 57.9189 51.6826 57.82 51.7241C57.721 51.7657 57.6147 51.7871 57.5073 51.7871C57.4 51.7871 57.2936 51.7657 57.1947 51.7241C57.0958 51.6826 57.0062 51.6217 56.9313 51.5451C56.8564 51.4685 56.7977 51.3778 56.7587 51.2782C56.7196 51.1787 56.701 51.0724 56.704 50.9656C56.7036 48.6105 57.5265 46.3286 59.0315 44.5108Z" stroke="#FF9900" stroke-width="0.6" mask="url(#path-2-outside-1_1341_1649)"/>
</g>
<defs>
<clipPath id="clip0_1341_1649">
<rect width="65" height="60" fill="white" transform="translate(17 20)"/>
</clipPath>
</defs>
</svg>
