<svg width="101" height="101" viewBox="0 0 101 101" fill="none" xmlns="http://www.w3.org/2000/svg">
<rect width="100.338" height="100.338" rx="16.6715" fill="#DEFFEE"/>
<path d="M43.9517 19.0048C44.4549 19.0046 44.9529 19.1061 45.4149 19.3032C45.8769 19.5002 46.2933 19.7887 46.6382 20.1507C47.9277 21.4401 49.2002 22.743 50.5358 23.9885C50.9542 24.3783 51.5247 24.6163 52.0439 24.888C52.1583 24.9487 52.3667 24.888 52.5101 24.8272C53.5725 24.4003 54.6365 23.9834 55.6835 23.5176C55.9022 23.417 56.0794 23.2455 56.1856 23.0316C56.4794 22.3768 56.7185 21.7 56.9781 21.0317C57.0521 20.7982 57.2036 20.5962 57.4082 20.4584C57.6127 20.3206 57.8584 20.255 58.1053 20.2722C59.6596 20.2801 61.2149 20.2801 62.7714 20.2722C63.018 20.2561 63.2628 20.3239 63.465 20.4642C63.6673 20.6045 63.8149 20.8089 63.8833 21.0435C64.1293 21.6949 64.3581 22.3548 64.6553 22.9826C64.7882 23.2266 64.9981 23.421 65.2531 23.5362C66.2232 23.9632 67.224 24.3192 68.1873 24.7597C68.331 24.841 68.4931 24.8849 68.6586 24.8872C68.8241 24.8896 68.9876 24.8504 69.1335 24.7732C69.7245 24.4846 70.3393 24.2433 70.9354 23.9665C71.4614 23.7218 71.9175 23.7843 72.3325 24.1977C73.429 25.2891 74.5283 26.3782 75.6305 27.465C75.8167 27.627 75.9417 27.8467 75.9848 28.088C76.028 28.3294 75.9867 28.5781 75.8679 28.7932C75.5741 29.4244 75.2633 30.0505 75.0242 30.702C74.9447 30.9658 74.9555 31.2482 75.0549 31.5053C75.4398 32.5078 75.8525 33.4984 76.2932 34.4772C76.4126 34.7281 76.6134 34.9324 76.8636 35.0578C77.499 35.3498 78.1651 35.5759 78.8209 35.8223C79.0572 35.8953 79.2614 36.0455 79.4001 36.2481C79.5388 36.4508 79.6038 36.694 79.5844 36.9379C79.5776 38.477 79.5776 40.0167 79.5844 41.557C79.6009 41.7907 79.5384 42.0233 79.4067 42.2181C79.275 42.413 79.0816 42.5591 78.8568 42.6337C78.2044 42.8902 77.5314 43.0995 76.9012 43.4016C76.6243 43.5547 76.4041 43.7912 76.2727 44.0766C75.8389 45.0133 75.4409 45.9668 75.0771 46.9288C74.9719 47.2044 74.9593 47.5062 75.0413 47.7895C75.2684 48.424 75.5724 49.0299 75.8611 49.6459C75.9868 49.8691 76.0307 50.1282 75.9856 50.3797C75.9405 50.6311 75.8091 50.8595 75.6134 51.0264C74.5238 52.0953 73.4421 53.1692 72.3683 54.2481C71.9584 54.6582 71.5144 54.7544 70.9781 54.5148C69.2326 53.7334 69.0993 53.644 68.7578 53.6203C68.5135 53.6018 68.534 53.6592 67.0498 54.2313C65.5656 54.8034 65.5127 54.7561 65.265 54.9654C64.7103 55.4592 64.3108 56.1 64.1139 56.8117C63.692 58.2057 63.5725 58.2091 62.1019 58.2091C60.8671 58.2091 59.6305 58.2091 58.3957 58.2091C57.4649 58.2091 57.1762 58.0774 56.9303 57.2134C56.8876 57.0632 56.4503 55.6573 55.54 54.9114C55.5144 54.8911 55.002 54.6566 53.9756 54.1874C53.0943 53.784 52.8791 53.6811 52.5289 53.6659C52.0378 53.6283 51.5463 53.7333 51.1148 53.968C48.9269 54.9992 49.2531 54.9586 47.6084 53.3402C46.8381 52.5824 46.0712 51.8129 45.3009 51.0618C44.8637 50.6382 44.7749 50.1809 45.0379 49.6307C45.3368 49.0029 45.6306 48.3683 45.8765 47.7203C45.9477 47.4914 45.9399 47.2456 45.8543 47.0216C45.4467 45.9831 45.0163 44.9542 44.5631 43.9349C44.4624 43.7156 44.2889 43.5369 44.0712 43.4286C43.4307 43.1451 42.7698 42.9071 42.1105 42.6691C41.8621 42.5982 41.6457 42.4456 41.4969 42.2367C41.3482 42.0277 41.276 41.7748 41.2924 41.5198C41.2924 40.0009 41.2924 38.4821 41.2924 36.9632C41.2924 36.3607 41.5537 35.9202 42.1464 35.7919C43.7997 35.4409 44.9013 34.5768 45.2002 32.8453C45.2617 32.4841 45.499 32.15 45.6733 31.8124C46.1156 30.9534 46.0917 30.7745 45.3744 30.064C43.9448 28.6464 42.5204 27.222 41.0789 25.8162C39.9175 24.6838 39.5076 23.3674 40.1156 21.8451C40.5716 20.684 42.3445 18.8951 43.9517 19.0048ZM47.5896 32.2715C47.1472 33.4984 46.7236 34.5954 46.3616 35.7126C46.2044 36.1987 45.9448 36.5244 45.4649 36.6915C45.1848 36.7893 44.9064 36.8957 44.628 37.0003C43.3197 37.4948 43.3146 37.4965 43.3214 38.8837C43.3214 39.5588 43.1114 40.3857 43.4307 40.8566C43.7501 41.3274 44.6041 41.4236 45.2258 41.6835C45.3025 41.7203 45.3812 41.753 45.4615 41.7814C45.9534 41.9333 46.1822 42.2793 46.3633 42.7518C46.8586 44.0463 47.3983 45.3255 47.9704 46.5879C48.1788 47.0469 48.254 47.4503 48.0302 47.911C47.7552 48.4797 47.4854 49.0552 47.2651 49.6459C47.2371 49.7439 47.232 49.8469 47.25 49.9471C47.2681 50.0474 47.3088 50.1423 47.3692 50.2248C47.9926 50.888 48.6399 51.5327 49.3146 52.1453C49.4053 52.2098 49.5094 52.2533 49.6194 52.2726C49.7294 52.2918 49.8424 52.2864 49.9499 52.2567C50.5494 52.0424 51.1028 51.693 51.7108 51.5259C52.1264 51.4211 52.5642 51.4417 52.9679 51.585C54.2966 52.0767 55.6061 52.6156 56.8961 53.2018C57.2828 53.3865 57.6055 53.6801 57.8235 54.0456C58.1259 54.5688 58.3001 55.1679 58.5067 55.7451C58.5369 55.8879 58.6215 56.0137 58.7429 56.0966C58.8643 56.1795 59.0133 56.2132 59.1591 56.1906C60.0131 56.1653 60.8671 56.1653 61.7211 56.1906C62.0831 56.2008 62.2522 56.0725 62.3632 55.74C62.5327 55.1523 62.7616 54.583 63.0464 54.0406C63.2669 53.6751 63.5912 53.3817 63.9789 53.1967C65.2701 52.6128 66.6023 52.1217 67.9072 51.5513C68.3479 51.3572 68.739 51.2863 69.183 51.4956C69.7398 51.7572 70.3154 51.9799 70.8688 52.2466C71.1779 52.3968 71.3812 52.3883 71.6408 52.1183C72.218 51.499 72.8192 50.8981 73.4461 50.3277C73.745 50.0577 73.7415 49.8214 73.5776 49.5041C73.3316 49.0147 73.1455 48.4916 72.8944 48.0089C72.6092 47.4621 72.7048 46.9963 72.9798 46.4596C73.4717 45.5078 74.0233 44.5441 74.2744 43.5197C74.5562 42.3687 75.1284 41.7004 76.2676 41.449C76.3086 41.4388 76.3478 41.422 76.3871 41.4085C77.5571 40.9646 77.5605 40.9646 77.5554 39.7596C77.5554 39.0221 77.8013 38.1108 77.4546 37.5977C77.1079 37.0847 76.1685 36.9665 75.4751 36.7151C74.9456 36.5227 74.6877 36.1649 74.4964 35.6485C74.0336 34.4097 73.5349 33.1794 72.9712 31.9829C72.7134 31.4395 72.6023 30.9703 72.9063 30.437C73.0413 30.199 73.1301 29.9307 73.2479 29.686C73.7859 28.4793 73.7894 28.4759 72.8449 27.5477C72.3479 27.0583 71.8969 26.2938 71.318 26.179C70.739 26.0643 70.0421 26.6128 69.3965 26.871C69.3572 26.8879 69.3197 26.9064 69.2821 26.9267C68.7851 27.19 68.3427 27.0954 67.8338 26.8642C66.6024 26.3022 65.3453 25.7926 64.0763 25.3251C63.5639 25.1344 63.1728 24.888 63.0054 24.3547C62.9234 24.0931 62.8158 23.84 62.7168 23.5851C62.2146 22.2941 62.2146 22.289 60.8193 22.2974C60.1207 22.2974 59.2633 22.0932 58.7697 22.4173C58.3035 22.7193 58.189 23.5851 57.9772 24.2231C57.7655 24.861 57.3334 25.1715 56.6775 25.369C55.552 25.7065 54.4572 26.1723 53.2001 26.6448C54.1071 27.5309 54.8774 28.2498 55.6015 29.0076C55.8987 29.3215 56.1293 29.3451 56.5289 29.1881C63.6305 26.4727 71.2445 31.5795 71.3368 39.1082C71.4341 47.003 63.1796 52.3141 55.9294 49.0198C53.4627 47.8963 51.5077 45.9056 50.4452 43.4356C49.3828 40.9656 49.289 38.1932 50.1822 35.6586C50.2676 35.4122 50.3411 35.0089 50.2095 34.8671C49.3931 34.0199 48.5477 33.2199 47.5896 32.2715ZM57.6169 30.9973C57.7877 31.1745 57.9397 31.345 58.1019 31.5036C60.0592 33.4427 62.0302 35.3717 63.9636 37.3277C64.2568 37.6254 64.4735 37.9883 64.5955 38.3859C65.0806 40.0431 65.511 41.7156 65.9619 43.3847C66.2898 44.6116 65.7074 45.1922 64.476 44.8715C62.7902 44.431 61.1011 44.0041 59.4256 43.5214C59.0235 43.4002 58.6564 43.1862 58.3547 42.897C56.4094 41.0085 54.4914 39.0913 52.5631 37.1843C52.3923 37.0155 52.2215 36.8737 52.0507 36.7066C51.0072 39.2229 51.6101 43.6851 55.2394 46.306C56.9196 47.5097 58.9745 48.0915 61.0448 47.9496C63.1151 47.8077 65.0691 46.9512 66.565 45.5298C68.0608 44.1084 69.0034 42.2126 69.2279 40.174C69.4523 38.1354 68.9443 36.0837 67.7928 34.3777C65.2223 30.5906 60.6331 29.8126 57.6169 30.9973ZM61.9294 38.3622L47.8287 24.4036L45.2412 26.9621L59.3402 40.9308L61.9294 38.3622ZM43.5178 25.4128L46.3086 22.6451C45.9209 22.2789 45.4991 21.8654 45.0601 21.4637C44.4145 20.8798 43.6528 20.8798 43.0021 21.4637C42.7627 21.677 42.5347 21.9023 42.3189 22.1388C41.7108 22.8139 41.7194 23.5564 42.3445 24.2231C42.7407 24.6332 43.1472 25.0331 43.5178 25.4128ZM60.7855 42.3143L64.476 43.1105C64.2539 42.319 63.8745 40.0295 63.6986 39.4L60.7855 42.3143Z" fill="#00DA71"/>
<path d="M28.0438 63.387C30.3768 62.052 32.6262 60.7289 34.9097 59.4699C35.9273 58.9032 36.9863 58.4124 38.0779 58.0016C39.4989 57.4751 40.9507 57.5662 42.3973 58.0438C45.1608 58.9535 47.9345 59.8294 50.7081 60.707C51.0572 60.8014 51.4113 60.8769 51.7688 60.9331C54.2504 61.4394 55.5536 63.6486 54.7867 66.0467C54.7628 66.1243 54.744 66.2037 54.6791 66.445C55.2069 66.1885 55.6441 66.0096 56.0455 65.7699C59.212 63.9529 62.3756 62.1297 65.5365 60.3002C66.8499 59.5425 68.2094 58.8894 69.7329 58.6784C71.3725 58.4523 72.8669 58.7695 73.8951 60.1602C74.884 61.5002 74.966 63.0005 74.2128 64.462C73.9041 65.0595 73.4439 65.5676 72.8772 65.937C66.9336 69.606 60.974 73.2468 54.9985 76.8595C53.0378 78.051 50.9387 78.2586 48.7303 77.6645C44.9951 76.6621 41.2376 75.7322 37.5229 74.6571C36.4247 74.3382 35.6441 74.593 34.8346 75.2714C35.0668 75.6849 35.3094 76.1001 35.5365 76.5237C36.2197 77.8097 35.8644 79.1649 34.6057 79.9159C33.7859 80.4053 32.9456 80.861 32.1087 81.32C30.534 82.1841 29.2154 81.8263 28.3324 80.2855C25.8457 75.9414 23.3623 71.5952 20.8824 67.2466C20.6826 66.899 20.4691 66.5581 20.288 66.2003C19.6903 65.0189 20.0404 63.6806 21.1762 62.9937C22.136 62.4098 23.1198 61.8596 24.1189 61.3432C25.2974 60.7323 26.6364 61.1154 27.364 62.2292C27.5912 62.5853 27.7961 62.9566 28.0438 63.387ZM33.7893 73.4572C34.2013 73.2564 34.6006 73.0309 34.9849 72.7821C35.668 72.2758 36.341 72.2657 37.1437 72.4851C41.2427 73.6074 45.3572 74.6791 49.4665 75.7676C50.2056 75.9819 50.9822 76.039 51.7453 75.9352C52.5084 75.8313 53.2405 75.5689 53.8935 75.1651C59.8633 71.54 65.824 67.9003 71.7756 64.246C72.1357 63.9935 72.4002 63.6294 72.5271 63.2115C73.0207 61.5407 71.7978 60.2985 69.9652 60.7272C68.8116 61.0101 67.7026 61.4473 66.6688 62.0267C63.4562 63.8072 60.2829 65.6585 57.1163 67.52C55.5348 68.4499 53.8337 68.9545 52.0455 68.5934C49.2786 68.0365 46.5493 67.2956 43.8081 66.6155C43.3452 66.5007 43.0327 66.1345 43.1249 65.6805C43.2142 65.3117 43.4334 64.9863 43.7432 64.7624C43.9515 64.6206 44.3649 64.7 44.662 64.7776C45.8969 65.0949 47.1163 65.4678 48.3512 65.7902C49.2471 66.0465 50.1603 66.24 51.0839 66.369C52.1274 66.4804 52.8175 65.8914 52.9524 64.9666C53.0145 64.5213 52.9038 64.0693 52.6424 63.7014C52.381 63.3335 51.9883 63.0771 51.5433 62.9836C48.3307 62.3727 45.2701 61.274 42.2282 60.1348C41.4368 59.8183 40.5828 59.6842 39.7311 59.7426C38.8793 59.8011 38.0523 60.0507 37.3128 60.4724C35.7039 61.3348 34.1275 62.2562 32.5305 63.1574C31.3709 63.8173 30.2146 64.4856 29.0122 65.1826L33.7893 73.4572ZM25.3367 63.0326C25.0993 63.1406 24.961 63.2013 24.8243 63.2654C24.0455 63.6992 23.2752 64.1498 22.4879 64.5649C22.0182 64.813 21.9755 65.0915 22.2334 65.532C22.9166 66.6762 23.5605 67.839 24.2197 68.9934C26.1702 72.4024 28.1275 75.8064 30.0609 79.2239C30.3546 79.7437 30.6347 79.8754 31.1676 79.5378C31.8508 79.1092 32.5715 78.7463 33.2735 78.3565C33.9225 77.9903 33.9567 77.8822 33.5707 77.2156C32.9239 76.0781 32.2755 74.9412 31.6253 73.8049C29.6965 70.4296 27.7671 67.0576 25.8371 63.689C25.687 63.4583 25.5197 63.2389 25.3367 63.0326Z" fill="#00DA71"/>
<path d="M23.7055 64.8614C23.8991 64.8607 24.0884 64.917 24.2495 65.023C24.4106 65.129 24.5361 65.28 24.6101 65.4567C24.684 65.6334 24.7031 65.8279 24.6649 66.0153C24.6267 66.2028 24.5329 66.3748 24.3954 66.5094C24.258 66.6441 24.0831 66.7352 23.893 66.7713C23.703 66.8075 23.5064 66.7869 23.3282 66.7122C23.15 66.6376 22.9983 66.5122 22.8925 66.3521C22.7866 66.192 22.7313 66.0044 22.7337 65.8132C22.7335 65.6874 22.7585 65.5629 22.8074 65.4467C22.8562 65.3306 22.928 65.2252 23.0184 65.1367C23.1088 65.0481 23.2161 64.9782 23.334 64.9309C23.452 64.8837 23.5783 64.86 23.7055 64.8614Z" fill="#00DA71"/>
</svg>
