<svg id="Layer_1" data-name="Layer 1" xmlns="http://www.w3.org/2000/svg" viewBox="0 0 72.83 99.99"><defs><style>.cls-1{fill:#ffc24a;}.cls-2{fill:#f4bd62;}.cls-3{fill:#f6820c;}.cls-4{fill:#fde068;}.cls-5{fill:#fcca3f;}.cls-6{fill:#eeab37;}</style></defs><path class="cls-1" d="M13.57,80.71l.61-.85L42.81,25.53l.06-.58L30.25,1.24A2.34,2.34,0,0,0,25.87,2Z" transform="translate(-13.57 0)"/><path class="cls-2" d="M52.07,42.89l9.4-9.63-9.4-17.95a2.43,2.43,0,0,0-4.27,0l-5,9.58v.82l9.29,17.18Z" transform="translate(-13.57 0)"/><path class="cls-3" d="M13.57,80.71l.28-.28,1-.41,36.64-36.5L52,42.26,42.81,24.84Z" transform="translate(-13.57 0)"/><path class="cls-4" d="M53.25,99.12l33.16-18.5L76.94,22.3a2.27,2.27,0,0,0-3.84-1.23L13.57,80.71l33,18.4a6.88,6.88,0,0,0,6.71,0" transform="translate(-13.57 0)"/><path class="cls-5" d="M86.11,80.47l-9.4-57.88a2,2,0,0,0-3.45-1.26L13.94,80.59,46.55,98.82a6.84,6.84,0,0,0,6.65,0L86.11,80.47Z" transform="translate(-13.57 0)"/><path class="cls-6" d="M53.25,98.57a6.9,6.9,0,0,1-6.71,0L13.84,80.43l-.27.28,33,18.4a6.88,6.88,0,0,0,6.71,0l33.16-18.5-.08-.5L53.25,98.57Z" transform="translate(-13.57 0)"/></svg>