<svg id="Layer_1" data-name="Layer 1" xmlns="http://www.w3.org/2000/svg" xmlns:xlink="http://www.w3.org/1999/xlink" viewBox="0 0 100 52.58"><defs><style>.cls-1{fill:url(#radial-gradient);}.cls-2{fill:#6181b6;}.cls-3{fill:#fff;}.cls-4{fill:#000004;}</style><radialGradient id="radial-gradient" cx="11033.89" cy="-10982.23" r="1595.47" gradientTransform="matrix(0.04, 0, 0, -0.04, -424.09, -442.73)" gradientUnits="userSpaceOnUse"><stop offset="0" stop-color="#fff"/><stop offset="0.5" stop-color="#4c6b97"/><stop offset="1" stop-color="#231f20"/></radialGradient></defs><ellipse class="cls-1" cx="50" cy="26.29" rx="50" ry="26.29"/><ellipse class="cls-2" cx="50" cy="26.29" rx="48.05" ry="24.34"/><path class="cls-3" d="M59.73,57.87l2.38-12.26c.55-2.78.08-4.85-1.33-6.14s-3.71-1.87-7.15-1.87H49.49l1.17-6.09a.85.85,0,0,0-.15-.67.72.72,0,0,0-.59-.27h-5.7a.8.8,0,0,0-.78.62l-2.54,13a7,7,0,0,0-1.72-3.75c-1.68-1.91-4.3-2.89-7.85-2.89h-11a.79.79,0,0,0-.78.63l-5.12,26.4a.81.81,0,0,0,.16.67.72.72,0,0,0,.59.27h5.74a.79.79,0,0,0,.78-.63L23,58.54h4.26a18.62,18.62,0,0,0,5.58-.71,10.81,10.81,0,0,0,4.1-2.46,12.76,12.76,0,0,0,2.43-3l-1,5.27a.79.79,0,0,0,.16.66.68.68,0,0,0,.58.28h5.71a.8.8,0,0,0,.78-.63L48.36,43.5h3.91c1.68,0,2.14.31,2.3.47s.35.58.08,2L52.38,57.68a.79.79,0,0,0,.16.66.7.7,0,0,0,.58.28H59A1.11,1.11,0,0,0,59.73,57.87ZM33.32,47.72a6.22,6.22,0,0,1-2,3.9,7.83,7.83,0,0,1-4.69,1.14H24.1l1.84-9.46h3.28c2.42,0,3.4.51,3.79.94C33.52,44.87,33.63,46.08,33.32,47.72ZM84.1,40.45c-1.68-1.91-4.3-2.89-7.85-2.89h-11a.8.8,0,0,0-.79.63L59.3,64.55a.85.85,0,0,0,.15.67.72.72,0,0,0,.59.27h5.74a.8.8,0,0,0,.78-.62l1.25-6.37h4.26a18.69,18.69,0,0,0,5.59-.71,10.89,10.89,0,0,0,4.1-2.46,12.71,12.71,0,0,0,2.5-3.12,13,13,0,0,0,1.36-3.75C86.29,45.06,85.78,42.4,84.1,40.45Zm-6,7.27a6.17,6.17,0,0,1-2,3.9,7.8,7.8,0,0,1-4.68,1.14H68.91l1.83-9.46H74c2.43,0,3.4.51,3.79.94C78.36,44.87,78.48,46.08,78.12,47.72Z" transform="translate(0 -23.69)"/><path class="cls-4" d="M29.22,42.52c2.19,0,3.63.39,4.37,1.21s.9,2.19.51,4.14a7,7,0,0,1-2.3,4.38,8.51,8.51,0,0,1-5.16,1.29H23.16l2.15-11Zm-14,22.19H21l1.36-7h4.93A17.06,17.06,0,0,0,32.62,57a10.43,10.43,0,0,0,3.83-2.3,12.07,12.07,0,0,0,2.34-2.93A11.51,11.51,0,0,0,40,48.26c.62-3.12.16-5.54-1.37-7.3s-3.94-2.62-7.26-2.62H20.35Zm29-33.36H50l-1.37,7h5.08c3.2,0,5.39.55,6.6,1.68s1.57,2.93,1.1,5.43L59,57.72H53.2L55.47,46c.27-1.33.15-2.23-.27-2.7a4,4,0,0,0-2.86-.74H47.77L44.84,57.72h-5.7ZM74,42.52c2.19,0,3.64.39,4.38,1.21s.9,2.19.51,4.14a7,7,0,0,1-2.31,4.38,8.47,8.47,0,0,1-5.15,1.29H68l2.15-11ZM60,64.71h5.74l1.37-7h4.92A17,17,0,0,0,77.42,57a10.28,10.28,0,0,0,3.83-2.3,11.61,11.61,0,0,0,2.34-2.93,11.25,11.25,0,0,0,1.25-3.52c.63-3.12.16-5.54-1.36-7.3s-4-2.62-7.27-2.62h-11Z" transform="translate(0 -23.69)"/></svg>