<svg id="Layer_1" data-name="Layer 1" xmlns="http://www.w3.org/2000/svg" viewBox="0 0 87.94 100"><defs><style>.cls-1{fill:#95bf46;}.cls-2{fill:#5e8e3e;}.cls-3{fill:#fff;}</style></defs><path class="cls-1" d="M83,19.47a1,1,0,0,0-.87-.81l-8-.6-5.93-5.89A2.44,2.44,0,0,0,66,11.9l-3,.92C61.25,7.69,58.1,3,52.57,3L52.1,3a6.73,6.73,0,0,0-5.21-3C34,0,27.83,16.12,25.9,24.32l-9,2.8c-2.8.87-2.88,1-3.25,3.6-.28,2-7.6,58.6-7.6,58.6l57,10.68L94,93.32S83.11,20,83,19.47ZM59.88,13.79l-4.83,1.5c0-.34,0-.68,0-1a23.72,23.72,0,0,0-1.16-7.8C56.76,6.81,58.66,10.06,59.88,13.79Zm-9.51-6.7a24,24,0,0,1,1.3,8.68v.56l-10,3.09C43.62,12,47.22,8.44,50.37,7.09ZM46.53,3.46A2.93,2.93,0,0,1,48.19,4C44.05,6,39.62,10.86,37.75,20.64l-7.88,2.44c2.2-7.46,7.4-19.62,16.66-19.62Z" transform="translate(-6.02)"/><path class="cls-2" d="M82.17,18.66l-8-.6-5.93-5.89a1.42,1.42,0,0,0-.82-.38L63.06,100,94,93.32S83.11,20,83,19.47a1,1,0,0,0-.87-.81" transform="translate(-6.02)"/><path class="cls-3" d="M52.57,35.73,48.75,47.07a17.49,17.49,0,0,0-7.43-1.78c-6,0-6.3,3.76-6.3,4.71,0,5.18,13.5,7.16,13.5,19.29C48.52,78.83,42.47,85,34.31,85c-9.79,0-14.8-6.09-14.8-6.09l2.62-8.66s5.15,4.41,9.49,4.41a3.82,3.82,0,0,0,4-3.86c0-6.75-11.07-7.06-11.07-18.15,0-9.34,6.71-18.38,20.24-18.38,5.21,0,7.79,1.49,7.79,1.49" transform="translate(-6.02)"/></svg>