<svg id="Layer_1" data-name="Layer 1" xmlns="http://www.w3.org/2000/svg" xmlns:xlink="http://www.w3.org/1999/xlink" viewBox="0 0 100.04 100"><defs><style>.cls-1{fill:url(#linear-gradient);}.cls-2{fill:url(#linear-gradient-2);}.cls-3{fill:#fff;}</style><linearGradient id="linear-gradient" x1="-12990.25" y1="8807.06" x2="-12587.3" y2="11092.32" gradientTransform="matrix(-0.05, 0, 0, 0.05, -549.42, -416.4)" gradientUnits="userSpaceOnUse"><stop offset="0" stop-color="#faae42"/><stop offset="1" stop-color="#ef3e31"/></linearGradient><linearGradient id="linear-gradient-2" x1="10217.85" y1="-9062.24" x2="9922.75" y2="-10735.81" gradientTransform="matrix(0.05, 0, 0, -0.05, -427.95, -423.17)" gradientUnits="userSpaceOnUse"><stop offset="0" stop-color="#e39f3a"/><stop offset="1" stop-color="#d33929"/></linearGradient></defs><path class="cls-1" d="M22.21,0H77.6a23.29,23.29,0,0,1,7.85,1.33,22.21,22.21,0,0,1,14.3,17.42,27.5,27.5,0,0,1,.27,4.34v54a25.45,25.45,0,0,1-.43,5.16A22.17,22.17,0,0,1,84.55,99a23.24,23.24,0,0,1-7,1c-1,0-55.51,0-56.33,0A22.22,22.22,0,0,1,10,96.25,22.49,22.49,0,0,1,2.37,87.5,22,22,0,0,1,.14,77.77V22.23a20.63,20.63,0,0,1,2.07-9.57A22.12,22.12,0,0,1,9.75,3.87,21.77,21.77,0,0,1,21,.08,6.36,6.36,0,0,1,22.21,0Z" transform="translate(0.02)"/><path class="cls-2" d="M84.36,81.8a13.94,13.94,0,0,0-1.17-1.6,16.48,16.48,0,0,0-3.36-3,10.29,10.29,0,0,0-5.28-1.8,9.47,9.47,0,0,0-3.9.63A25.44,25.44,0,0,0,67,77.66c-1.36.7-2.73,1.4-4.18,2a31.27,31.27,0,0,1-5.35,1.64,35.42,35.42,0,0,1-6.95.55A47.09,47.09,0,0,1,38.19,80a46.11,46.11,0,0,1-10-4.34,51.76,51.76,0,0,1-7.78-5.5,57.64,57.64,0,0,1-5.54-5.51c-1.18-1.37-2.31-2.81-3.36-4.3a17.7,17.7,0,0,1-1.17-1.83L0,47.34V22.15A22.13,22.13,0,0,1,22.09,0H41.82L56.43,14.84C89.4,37.27,78.73,62,78.73,62S88.11,72.54,84.36,81.8Z" transform="translate(0.02)"/><path class="cls-3" d="M56.51,14.84C89.47,37.27,78.81,62,78.81,62s9.38,10.59,5.59,19.85c0,0-3.87-6.49-10.35-6.49-6.25,0-9.93,6.49-22.5,6.49-28,0-41.25-23.4-41.25-23.4C35.53,75,52.76,63.28,52.76,63.28c-11.37-6.6-35.55-38.16-35.55-38.16,21,17.93,30.16,22.65,30.16,22.65C41.94,43.28,26.7,21.33,26.7,21.33,38.89,33.67,63.11,50.9,63.11,50.9,70,31.84,56.51,14.84,56.51,14.84Z" transform="translate(0.02)"/></svg>