<svg id="Layer_1" data-name="Layer 1" xmlns="http://www.w3.org/2000/svg" viewBox="0 0 99.98 99.98"><defs><style>.cls-1{fill:#fff;}.cls-2{fill:#007acc;}</style></defs><path class="cls-1" d="M16.94,36.47H96.66V95.39H16.94Z" transform="translate(-0.01)"/><path class="cls-2" d="M0,50v50H100V0H0Zm80.57-4a12.48,12.48,0,0,1,6.25,3.6,16.22,16.22,0,0,1,2.4,3.2c0,.13-4.32,3.05-7,4.68-.09.06-.48-.35-.9-1a5.69,5.69,0,0,0-4.7-2.83c-3-.21-5,1.39-5,4a3.58,3.58,0,0,0,.43,1.87c.66,1.39,1.9,2.21,5.79,3.89,7.16,3.08,10.22,5.11,12.13,8a14.58,14.58,0,0,1,1.16,12.19c-1.6,4.16-5.52,7-11.07,7.92a30.76,30.76,0,0,1-7.61-.08,18.47,18.47,0,0,1-10.18-5.3,17.8,17.8,0,0,1-2.6-3.86,7.45,7.45,0,0,1,.92-.58l3.71-2L67.27,78l.6.89a13.38,13.38,0,0,0,3.79,3.63c3.2,1.68,7.57,1.45,9.73-.49a4.35,4.35,0,0,0,.55-5.54c-.8-1.11-2.4-2-6.87-4-5.16-2.22-7.38-3.6-9.42-5.79a13.24,13.24,0,0,1-2.74-5,20.21,20.21,0,0,1-.18-6.4c1.07-5,4.8-8.46,10.26-9.49a25.43,25.43,0,0,1,7.59.21ZM57.11,50.18v4.1h-13v37H34.92v-37h-13v-4A40.6,40.6,0,0,1,22,46.14c.07-.08,8-.08,17.6-.08H57.06Z" transform="translate(-0.01)"/></svg>