<svg width="101" height="101" viewBox="0 0 101 101" fill="none" xmlns="http://www.w3.org/2000/svg">
<rect width="100.338" height="100.338" rx="16.6715" fill="#F1F7FF"/>
<g clip-path="url(#clip0_1341_1647)">
<path d="M24.6227 62.1819C24.6227 64.5996 25.8607 66.7222 27.7561 67.9673C23.2309 68.2876 19.75 72.0046 19.75 76.5766V79.2187C19.75 79.5481 19.8598 79.8423 20.0705 80.0551C20.2815 80.2681 20.5741 80.3797 20.9024 80.3797H41.8369C42.1652 80.3797 42.4578 80.2681 42.6688 80.0551C42.8795 79.8423 42.9893 79.5481 42.9893 79.2187V76.5766C42.9893 72.0374 39.5572 68.3385 35.1529 67.9743C37.0544 66.7302 38.2971 64.6041 38.2971 62.1819C38.2971 58.4019 35.2096 55.2812 31.4599 55.2812C27.7101 55.2812 24.6227 58.4019 24.6227 62.1819ZM26.9274 62.1819C26.9274 59.6757 28.9834 57.6034 31.4599 57.6034C33.9364 57.6034 35.9924 59.6757 35.9924 62.1819C35.9924 64.6882 33.9364 66.7605 31.4599 66.7605C28.9834 66.7605 26.9274 64.6882 26.9274 62.1819ZM40.6846 78.0576H22.0547V76.5766C22.0547 73.0682 24.8326 70.267 28.3016 70.267H34.4376C37.9067 70.267 40.6846 73.0682 40.6846 76.5766V78.0576Z" fill="#2639ED" stroke="#2639ED" stroke-width="0.5"/>
<path d="M57.6488 58.1735C57.6488 61.4227 59.5495 64.2249 62.2462 65.604C56.3425 66.0156 51.6932 70.9713 51.6932 77.0323V79.2189C51.6932 79.5483 51.803 79.8425 52.0138 80.0553C52.2247 80.2683 52.5173 80.3799 52.8456 80.3799H78.6529C78.9811 80.3799 79.2738 80.2683 79.4847 80.0553C79.6955 79.8425 79.8052 79.5483 79.8052 79.2189V77.0323C79.8052 71.0394 75.2598 66.1271 69.4507 65.6196C72.1422 64.2817 74.0302 61.4102 74.0302 58.1735C74.0302 53.6647 70.3111 49.9062 65.8395 49.9062C61.3697 49.9062 57.6488 53.5717 57.6488 58.1735ZM59.8632 58.1735C59.8632 54.9384 62.5509 52.2284 65.7492 52.2284C69.0379 52.2284 71.6352 54.8473 71.6352 58.1735C71.6352 61.4973 68.95 64.1187 65.7492 64.1187C62.5509 64.1187 59.8632 61.4086 59.8632 58.1735ZM77.5005 78.0578H53.9077V77.0323C53.9077 71.9751 57.9489 67.8985 62.9519 67.8985H68.4563C73.4594 67.8985 77.5005 71.9751 77.5005 77.0323V78.0578Z" fill="#2639ED" stroke="#2639ED" stroke-width="0.5"/>
<path d="M27.5103 38.0389C27.5103 41.248 28.9384 44.3615 31.4368 46.5864L29.1499 52.8027L29.1451 52.8156L29.1418 52.829C29.0316 53.274 29.1427 53.729 29.4776 54.0671C29.8402 54.4333 30.42 54.4302 30.778 54.1959L38.3629 49.9615C39.4144 50.1383 40.4886 50.3148 41.5663 50.3148C46.8125 50.3148 51.3572 47.79 53.7766 44.1448C55.7084 44.4801 57.6451 44.4735 59.6641 44.0428L67.2517 48.2787L67.2516 48.2789L67.2609 48.2836C67.7257 48.5183 68.1842 48.3932 68.5057 48.1768L68.5263 48.1629L68.5438 48.1453C68.8787 47.8071 68.9897 47.3522 68.8795 46.9071L68.8762 46.8938L68.8715 46.8809L66.5834 40.6613C69.0785 38.3588 70.6013 35.3352 70.6013 32.117C70.6013 25.2996 64.3229 19.75 56.5453 19.75C51.4806 19.75 46.846 22.0949 44.3356 25.9175C43.4609 25.7534 42.5126 25.6719 41.5663 25.6719C33.7887 25.6719 27.5103 31.2215 27.5103 38.0389ZM64.5156 39.3884L64.5014 39.3991L64.4889 39.4117C64.1962 39.7073 63.9232 40.1807 64.1652 40.6872L65.647 44.7818L60.367 41.8293L60.3671 41.8291L60.3576 41.8243C60.2548 41.7724 60.1202 41.7172 59.9786 41.6886C59.8519 41.663 59.6888 41.6526 59.5358 41.717C57.8787 42.0491 56.3085 42.1454 54.8215 41.9396C55.3055 40.7118 55.6223 39.3326 55.6223 37.9478C55.6223 32.7392 51.9056 28.275 46.6825 26.4391C48.9172 23.8287 52.6045 22.0721 56.5453 22.0721C63.1207 22.0721 68.2966 26.64 68.2966 32.117C68.2966 34.9482 66.9846 37.5187 64.5156 39.3884ZM37.6637 47.8373L37.6636 47.8371L37.6544 47.8423L32.3744 50.7948L33.8562 46.7001C33.9736 46.4531 33.9683 46.1858 33.8982 45.9594C33.829 45.7359 33.6897 45.5291 33.5053 45.4006C31.1194 43.4345 29.7254 40.8623 29.7247 38.1319C29.8135 32.5604 35.0835 27.994 41.5663 27.994C48.1416 27.994 53.3175 32.5619 53.3175 38.0389C53.3175 43.5148 48.0527 48.0838 41.5663 48.0838C40.5953 48.0838 39.5421 47.9952 38.4919 47.7327C38.3371 47.6652 38.1712 47.6756 38.0427 47.7015C37.9011 47.7301 37.7665 47.7854 37.6637 47.8373Z" fill="#2639ED" stroke="#2639ED" stroke-width="0.5"/>
<path d="M37.7763 38.2219C37.7763 36.4909 36.3325 35.0332 34.6181 35.0332C32.9036 35.0332 31.4598 36.3998 31.4598 38.2219C31.4598 39.9529 32.9036 41.4106 34.6181 41.4106C36.3325 41.4106 37.7763 39.9529 37.7763 38.2219ZM33.2645 38.2219C33.2645 37.493 33.8962 36.8553 34.6181 36.8553C35.34 36.8553 35.9716 37.493 35.9716 38.2219C35.9716 38.9507 35.34 39.5885 34.6181 39.5885C33.8962 39.5885 33.2645 38.9507 33.2645 38.2219Z" fill="#2639ED"/>
<path d="M41.5662 41.4106C43.2807 41.4106 44.7244 39.9529 44.7244 38.2219C44.7244 36.4909 43.2807 35.0332 41.5662 35.0332C39.8517 35.0332 38.408 36.4909 38.408 38.2219C38.408 39.9529 39.8517 41.4106 41.5662 41.4106ZM41.5662 36.8553C42.2881 36.8553 42.9197 37.493 42.9197 38.2219C42.9197 38.9507 42.2881 39.5885 41.5662 39.5885C40.8443 39.5885 40.2127 38.9507 40.2127 38.2219C40.2127 37.4019 40.8443 36.8553 41.5662 36.8553Z" fill="#2639ED"/>
<path d="M48.5143 41.4106C50.2288 41.4106 51.6725 39.9529 51.6725 38.2219C51.6725 36.4909 50.2288 35.0332 48.5143 35.0332C46.7998 35.0332 45.3561 36.4909 45.3561 38.2219C45.3561 39.9529 46.7998 41.4106 48.5143 41.4106ZM48.5143 36.8553C49.2362 36.8553 49.8678 37.493 49.8678 38.2219C49.8678 38.9507 49.2362 39.5885 48.5143 39.5885C47.7924 39.5885 47.1608 38.9507 47.1608 38.2219C47.1608 37.4019 47.7924 36.8553 48.5143 36.8553Z" fill="#2639ED"/>
<path d="M53.4773 28.1991H64.5762C65.1177 28.1991 65.4786 27.8346 65.4786 27.288C65.4786 26.7414 65.1177 26.377 64.5762 26.377H53.4773C52.9359 26.377 52.575 26.7414 52.575 27.288C52.575 27.7435 53.0261 28.1991 53.4773 28.1991Z" fill="#2639ED"/>
<path d="M64.5762 30.4766H56.1843C55.6429 30.4766 55.282 30.841 55.282 31.3876C55.282 31.9342 55.6429 32.2987 56.1843 32.2987H64.5762C65.1176 32.2987 65.4786 31.9342 65.4786 31.3876C65.4786 30.841 65.1176 30.4766 64.5762 30.4766Z" fill="#2639ED"/>
<path d="M64.5762 34.5762H57.989C57.4476 34.5762 57.0867 34.9406 57.0867 35.4872C57.0867 36.0339 57.4476 36.3983 57.989 36.3983H64.5762C65.1176 36.3983 65.4786 36.0339 65.4786 35.4872C65.4786 34.9406 65.1176 34.5762 64.5762 34.5762Z" fill="#2639ED"/>
</g>
<defs>
<clipPath id="clip0_1341_1647">
<rect width="61.36" height="66.598" fill="white" transform="translate(19 17)"/>
</clipPath>
</defs>
</svg>
